<?xml version="1.0" encoding="utf-8"?>
<!-- Generator: Adobe Illustrator 21.1.0, SVG Export Plug-In . SVG Version: 6.00 Build 0)  -->
<svg version="1.1" id="Layer_1" xmlns="http://www.w3.org/2000/svg" xmlns:xlink="http://www.w3.org/1999/xlink" x="0px" y="0px"
	 width="378.8px" height="413.8px" viewBox="0 0 378.8 413.8" style="enable-background:new 0 0 378.8 413.8;" xml:space="preserve"
	>
<style type="text/css">
	.st0{fill:#D7DEE2;stroke:#AAB5BF;stroke-linecap:round;stroke-linejoin:round;stroke-miterlimit:10;stroke-dasharray:4,3;}
	.st1{fill:#F7F8F9;}
	.st2{fill:#CCD0D6;}
	.st3{fill:none;}
	.st4{fill:#E6BC45;}
	.st5{fill:#D75352;}
	.st6{fill:#50BC93;}
	.st7{fill:#41ACE1;}
	.st8{fill:#BF83D6;stroke:#BF83D6;stroke-miterlimit:10;}
	.st9{fill:#BF83D6;}
</style>
<g>
	<path class="st0" d="M33.5,71.7c0,0-54.1,267,163.5,334.1c0,0,178.8-40.1,159.2-329.6L197,9.4L33.5,71.7z"/>
	<path class="st1" d="M36.6,74.4c0,0-53,261.7,160.3,327.5c0,0,175.3-39.3,156.1-323.1L196.9,13.3L36.6,74.4z"/>
	<g>
		<circle class="st1" cx="354.9" cy="153.4" r="9.9"/>
		<g>
			<circle class="st1" cx="77.1" cy="327.3" r="7"/>
			<path class="st2" d="M85.5,324.7c0.1,0.1,0.1,0.2,0.2,0.2c0,0.1,0,0.1,0.1,0.2c0.1,0.4-0.2,0.5-0.5,0.6c-0.4,0.1-0.6,0.3-0.5,0.7
				c0.1,0.3,0.2,0.5,0.6,0.5c0.4,0,0.6,0,0.6,0.5c0,0.5-0.4,0.4-0.6,0.4c-0.4,0.1-0.5,0.2-0.6,0.6c-0.1,0.5,0.3,0.5,0.6,0.6
				c0.3,0.1,0.4,0.2,0.4,0.5c-0.1,0.3-0.3,0.4-0.6,0.4c-0.4-0.1-0.8-0.1-0.9,0.5c-0.1,0.6,0.4,0.6,0.7,0.8c0,0.1,0,0.3,0,0.4
				c-0.2,0.2-0.3,0.5-0.6,0.3c-0.3-0.1-0.6-0.6-1,0c-0.3,0.4-0.3,0.6,0.1,0.9c0.2,0.3,0.3,0.6-0.1,0.8c-0.3,0.2-0.5,0-0.6-0.1
				c-0.3-0.2-0.5-0.4-0.8-0.1c-0.3,0.2-0.4,0.5-0.1,0.7c0.4,0.5,0,0.7-0.3,1c-0.1,0-0.1,0-0.2,0c-0.1-0.2-0.2-0.3-0.4-0.3l0,0
				c0-0.3-0.1-0.5-0.5-0.4c-0.1,0-0.1,0.1-0.2,0.1c-0.6,0.1-0.3,0.4-0.3,0.7c0,0.3,0.1,0.5-0.3,0.6c-0.3,0-0.5,0-0.6-0.3
				c-0.1-0.3-0.2-0.7-0.7-0.6c-0.6,0.1-0.5,0.4-0.5,0.8c0,0.3-0.2,0.4-0.4,0.4c-0.3,0-0.5-0.1-0.5-0.4c0-0.5-0.2-0.8-0.7-0.7
				c-0.6,0.1-0.6,0.5-0.5,1l0,0c-0.3-0.2-1.1,0.1-0.9-0.7c0.1-0.4,0.1-0.6-0.4-0.8c-0.6-0.2-0.6,0.2-0.8,0.4
				c-0.1,0.1-0.2,0.2-0.3,0.3c-0.1-0.1-0.3-0.1-0.4-0.2c-0.3-0.3-0.1-0.6,0-0.8c0.2-0.3,0.1-0.5-0.2-0.7c-0.3-0.2-0.5-0.3-0.8,0
				c-0.2,0.2-0.4,0.5-0.8,0.2c-0.4-0.4-0.1-0.6,0.1-0.8c0.2-0.2,0.3-0.4,0.1-0.7c-0.2-0.3-0.5-0.4-0.8-0.2c-0.2,0.1-0.5,0.3-0.7-0.1
				c-0.3-0.4,0-0.6,0.3-0.8c0.2-0.2,0.5-0.3,0.2-0.7c-0.2-0.3-0.3-0.4-0.7-0.4c-0.3,0-0.7,0.2-0.8-0.3c-0.1-0.4,0.2-0.5,0.5-0.6
				c0.3-0.1,0.4-0.3,0.4-0.6c0-0.4-0.2-0.5-0.5-0.5c-0.3,0-0.7,0-0.7-0.5c0-0.5,0.4-0.5,0.7-0.5c0.4,0,0.5-0.2,0.5-0.5
				c0-0.4-0.1-0.5-0.4-0.6c-0.3-0.1-0.6-0.3-0.4-0.7c0.1-0.4,0.4-0.3,0.7-0.2c0.4,0.1,0.6-0.1,0.7-0.4c0.2-0.4-0.1-0.5-0.3-0.7
				c-0.2-0.2-0.5-0.3-0.3-0.7c0.2-0.3,0.4-0.3,0.7-0.2c0.3,0.2,0.6,0.2,0.8-0.1c0.3-0.4,0.2-0.6-0.1-0.8c-0.3-0.2-0.3-0.4,0-0.7
				c0.3-0.3,0.5-0.1,0.7,0.1c0.3,0.3,0.5,0.2,0.8,0c0.4-0.2,0.2-0.5,0.1-0.7c-0.1-0.2-0.3-0.5,0.1-0.7c0.4-0.3,0.6,0,0.8,0.3
				c0.2,0.3,0.4,0.4,0.7,0.3c0.3-0.1,0.4-0.3,0.4-0.7c-0.1-0.3-0.1-0.7,0.4-0.8c0.4-0.1,0.5,0.2,0.6,0.5c0.1,0.3,0.2,0.5,0.6,0.4
				c0.3-0.1,0.5-0.1,0.6-0.5c0-0.3-0.1-0.7,0.5-0.7c0.5,0,0.5,0.3,0.5,0.7c0,0.4,0.2,0.5,0.5,0.5c0.3,0,0.5,0,0.7-0.4
				c0.1-0.3,0.1-0.7,0.6-0.5c0.4,0.2,0.4,0.5,0.3,0.8c-0.2,0.4,0.1,0.5,0.4,0.6c0.3,0.2,0.5,0.1,0.7-0.2c0.2-0.3,0.4-0.6,0.8-0.3
				c0.4,0.3,0.2,0.5,0.1,0.7c-0.2,0.3-0.1,0.5,0.1,0.8c0.3,0.3,0.6,0.2,0.8-0.1c0.2-0.2,0.4-0.3,0.7,0c0.3,0.3,0.1,0.5-0.1,0.7
				c-0.3,0.3-0.3,0.5,0,0.9c0.3,0.3,0.5,0.2,0.8,0.1c0.8-0.4,0.8,0.1,0.7,0.7c-0.4,0.2-0.7,0.3-0.5,0.9
				C84.5,325.2,85,324.6,85.5,324.7z M78.9,327.3c0-1-0.8-1.8-1.8-1.8c-1,0-1.9,0.8-1.9,1.8c0,0.9,0.9,1.8,1.8,1.8
				C78.1,329.1,78.9,328.3,78.9,327.3z M77.4,331.3c0,1,0.7,2.3,1.2,2.3c0.8,0,2-0.8,2-1.3c0-0.8-1.1-2.4-1.5-2.2
				C78.6,330.5,77.5,330.3,77.4,331.3z M77.5,323c0,0.7,0.9,1.5,1.7,1.5c0.5,0,1.4-1.3,1.5-2.1c0-0.5-1.3-1.5-2.1-1.3
				C77.6,321.3,77.7,322.3,77.5,323z M76.7,331.5c0-0.6-0.9-1.4-1.7-1.4c-0.5,0-1.5,1.3-1.5,2.2c0,0.5,1.2,1.3,2,1.3
				C76.1,333.6,76.7,332.6,76.7,331.5z M76.8,323.1c-0.2-0.8-0.1-1.7-1.1-2.1c-0.6-0.2-2.1,0.8-2.1,1.3c0,0.8,1.1,2.4,1.5,2.1
				C75.6,324,76.8,324.3,76.8,323.1z M72.8,326.9c0.6,0,1.4-0.9,1.5-1.6c0-0.5-1.3-1.5-2.2-1.5c-0.5,0-1.3,1.2-1.3,2
				C70.8,326.3,71.8,326.9,72.8,326.9z M72.9,327.6c-1,0-2.2,0.7-2.1,1.3c0.2,0.7,0.2,1.7,1.2,1.9c0.8,0.1,2.2-0.9,2.2-1.4
				C74.3,328.8,73.4,327.6,72.9,327.6z M81.3,326.9c1,0,2.1-0.7,2.1-1.2c0-0.7-0.9-2-1.3-2c-0.8,0-2.2,0.9-2.2,1.5
				C79.9,325.9,80.8,327,81.3,326.9z M81.5,327.7c-0.7,0-1.5,1.1-1.5,1.7c0,0.5,1.5,1.5,2.3,1.5c0.5,0,1.4-1.5,1.2-2.1
				C83.1,327.8,82.1,327.8,81.5,327.7z"/>
		</g>
		<path class="st2" d="M267.8,347.1c0.1,0.2,0.2,0.3,0.3,0.5c0,0.2,0,0.3,0.1,0.4c0.1,0.7-0.4,0.9-0.9,1.1c-0.7,0.2-1.1,0.5-0.9,1.3
			c0.2,0.6,0.4,1,1.1,0.9c0.7-0.1,1.2,0.1,1.2,1c0,0.9-0.7,0.7-1.1,0.8c-0.7,0.1-1,0.4-1.2,1.2c-0.2,0.9,0.5,1,1.1,1.1
			c0.5,0.2,0.8,0.4,0.7,1c-0.1,0.5-0.5,0.8-1,0.7c-0.8-0.2-1.5-0.1-1.7,0.9c-0.3,1.1,0.7,1.1,1.2,1.5c0,0.3,0,0.5,0,0.8
			c-0.4,0.3-0.5,0.9-1.2,0.6c-0.6-0.2-1.1-1-1.8-0.1c-0.5,0.7-0.5,1.1,0.2,1.6c0.4,0.6,0.5,1-0.2,1.5c-0.6,0.4-0.9,0-1.2-0.3
			c-0.5-0.5-0.9-0.7-1.6-0.1c-0.5,0.4-0.7,0.8-0.3,1.4c0.7,0.9-0.1,1.3-0.6,1.8c-0.1,0-0.3,0-0.4,0c-0.1-0.3-0.3-0.6-0.7-0.6
			c0,0,0,0,0,0c0-0.6-0.2-1-0.9-0.7c-0.1,0.1-0.3,0.1-0.4,0.2c-1.1,0.1-0.6,0.8-0.5,1.4c0.1,0.5,0.1,1-0.6,1.1
			c-0.5,0.1-0.9,0.1-1.1-0.6c-0.2-0.6-0.4-1.2-1.4-1.1c-1.1,0.1-0.9,0.8-1,1.4c0,0.5-0.3,0.7-0.8,0.7c-0.6,0-0.9-0.2-0.9-0.8
			c0-0.8-0.3-1.5-1.3-1.3c-1.1,0.2-1.1,1-1,1.8l0,0c-0.5-0.4-2,0.3-1.6-1.3c0.2-0.7,0.1-1.2-0.7-1.5c-1-0.4-1.1,0.4-1.5,0.8
			c-0.2,0.2-0.4,0.4-0.6,0.5c-0.3-0.1-0.6-0.2-0.8-0.4c-0.5-0.5-0.2-1,0.1-1.5c0.4-0.6,0.2-1-0.3-1.4c-0.5-0.4-0.9-0.5-1.4,0
			c-0.4,0.4-0.8,1-1.5,0.3c-0.7-0.7-0.2-1.1,0.2-1.5c0.4-0.5,0.5-0.8,0.1-1.4c-0.5-0.6-0.9-0.7-1.5-0.3c-0.5,0.3-0.9,0.5-1.4-0.2
			c-0.5-0.8,0-1.1,0.5-1.4c0.5-0.3,0.9-0.6,0.5-1.3c-0.3-0.6-0.6-0.8-1.2-0.8c-0.5,0-1.3,0.4-1.4-0.6c-0.1-0.7,0.3-1,0.9-1.1
			c0.6-0.2,0.8-0.6,0.8-1.2c-0.1-0.7-0.4-0.9-1-1c-0.5-0.1-1.3,0.1-1.3-0.9c0-0.9,0.7-0.9,1.3-0.9c0.7,0,0.9-0.4,1-1
			c0.1-0.7-0.2-1-0.8-1.2c-0.6-0.2-1.1-0.5-0.8-1.3c0.2-0.8,0.8-0.6,1.3-0.4c0.8,0.2,1-0.2,1.3-0.8c0.4-0.8-0.2-0.9-0.6-1.3
			c-0.4-0.3-1-0.5-0.5-1.3c0.4-0.7,0.8-0.7,1.4-0.4c0.6,0.3,1,0.4,1.6-0.2c0.6-0.7,0.3-1.1-0.2-1.6c-0.5-0.5-0.6-0.8,0-1.3
			c0.6-0.6,1-0.3,1.4,0.1c0.5,0.6,1,0.4,1.6,0c0.7-0.5,0.4-0.9,0.2-1.4c-0.2-0.5-0.6-0.9,0.1-1.4c0.8-0.5,1.1-0.1,1.5,0.5
			c0.3,0.6,0.7,0.7,1.4,0.5c0.6-0.2,0.8-0.6,0.7-1.3c-0.1-0.7-0.2-1.2,0.7-1.4c0.8-0.2,0.8,0.4,1,0.9c0.2,0.5,0.4,1,1.2,0.8
			c0.6-0.1,1-0.3,1.1-1c0.1-0.5-0.1-1.3,0.9-1.3c1,0,0.9,0.6,0.9,1.2c0,0.7,0.4,0.9,1,1c0.6,0.1,1-0.1,1.2-0.7
			c0.2-0.5,0.3-1.3,1.2-0.9c0.8,0.3,0.8,0.9,0.5,1.5c-0.3,0.8,0.2,0.9,0.7,1.2c0.6,0.3,1,0.2,1.4-0.4c0.3-0.5,0.7-1.1,1.4-0.5
			c0.7,0.5,0.4,0.9,0.1,1.4c-0.3,0.5-0.3,1,0.3,1.4c0.6,0.5,1.1,0.3,1.6-0.1c0.4-0.4,0.8-0.6,1.4-0.1c0.6,0.6,0.2,1-0.1,1.4
			c-0.5,0.5-0.6,1-0.1,1.6c0.5,0.6,0.9,0.4,1.4,0.2c1.5-0.7,1.6,0.2,1.4,1.3c-0.7,0.3-1.4,0.6-1,1.6
			C266,348.1,267.1,346.9,267.8,347.1z M255.6,352c0-1.9-1.5-3.3-3.3-3.3c-1.9,0-3.6,1.6-3.5,3.4c0,1.8,1.6,3.3,3.4,3.4
			C254.1,355.5,255.6,353.9,255.6,352z M252.8,359.6c0,1.9,1.3,4.3,2.3,4.3c1.5,0,3.8-1.5,3.8-2.5c0-1.6-2-4.5-2.8-4.1
			C254.9,358.1,252.9,357.6,252.8,359.6z M252.9,343.9c0,1.3,1.7,2.7,3.2,2.8c1,0,2.7-2.4,2.8-3.9c0.1-0.9-2.5-2.8-3.9-2.5
			C253.2,340.7,253.2,342.6,252.9,343.9z M251.5,360c0-1.2-1.7-2.6-3.1-2.7c-1,0-2.8,2.5-2.9,4.1c-0.1,0.9,2.3,2.4,3.8,2.4
			C250.3,363.9,251.4,361.9,251.5,360z M251.6,344.1c-0.3-1.4-0.3-3.3-2.1-3.9c-1.2-0.4-4,1.5-4,2.4c0.1,1.6,2.1,4.5,2.8,4
			C249.4,345.9,251.6,346.5,251.6,344.1z M244.2,351.3c1.2,0,2.6-1.6,2.7-3.1c0.1-1-2.5-2.8-4.1-2.9c-0.9,0-2.4,2.2-2.4,3.7
			C240.4,350.2,242.2,351.3,244.2,351.3z M244.3,352.7c-1.9,0-4.1,1.3-3.8,2.4c0.4,1.4,0.3,3.3,2.3,3.6c1.5,0.2,4.1-1.7,4.2-2.7
			C247,354.8,245.3,352.7,244.3,352.7z M260.1,351.4c1.8,0,4-1.2,4-2.2c0-1.3-1.6-3.8-2.4-3.8c-1.5,0-4.2,1.8-4.1,2.8
			C257.5,349.4,259.1,351.4,260.1,351.4z M260.3,352.8c-1.3,0-2.9,2.1-2.8,3.2c0.1,1,2.8,2.8,4.2,2.7c0.9,0,2.7-2.7,2.3-3.9
			C263.4,353.1,261.6,353,260.3,352.8z"/>
		<path class="st2" d="M168.4,350.2c0.1,0.1,0.2,0.2,0.2,0.4c0,0.1,0,0.2,0.1,0.3c0.1,0.6-0.4,0.7-0.8,0.9c-0.6,0.2-0.9,0.4-0.7,1.1
			c0.1,0.5,0.3,0.8,0.9,0.7c0.5,0,1,0.1,1,0.8c0,0.7-0.5,0.6-0.9,0.6c-0.6,0.1-0.8,0.4-0.9,0.9c-0.1,0.8,0.4,0.8,0.9,0.9
			c0.4,0.2,0.7,0.3,0.6,0.8c-0.1,0.4-0.4,0.6-0.9,0.5c-0.7-0.1-1.2-0.1-1.4,0.7c-0.2,0.9,0.6,0.9,1,1.3c0,0.2,0,0.4,0,0.7
			c-0.3,0.2-0.4,0.8-1,0.5c-0.5-0.2-0.9-0.8-1.5-0.1c-0.4,0.6-0.4,0.9,0.2,1.3c0.3,0.5,0.4,0.9-0.1,1.3c-0.5,0.4-0.7,0-1-0.2
			c-0.4-0.4-0.8-0.5-1.3-0.1c-0.4,0.4-0.5,0.7-0.2,1.1c0.5,0.7-0.1,1.1-0.5,1.5c-0.1,0-0.2,0-0.3,0c-0.1-0.3-0.3-0.5-0.6-0.5
			c0,0,0,0,0,0c0-0.5-0.2-0.8-0.7-0.6c-0.1,0.1-0.2,0.1-0.3,0.2c-0.9,0.1-0.5,0.7-0.4,1.1c0.1,0.4,0.1,0.8-0.5,0.9
			c-0.4,0.1-0.7,0.1-0.9-0.4c-0.2-0.5-0.3-1-1.1-0.9c-0.9,0.1-0.7,0.6-0.8,1.2c0,0.4-0.3,0.5-0.7,0.6c-0.5,0-0.7-0.2-0.7-0.6
			c0-0.7-0.3-1.2-1.1-1.1c-0.9,0.1-0.9,0.8-0.8,1.5l0,0c-0.4-0.3-1.6,0.2-1.3-1.1c0.1-0.6,0.1-1-0.6-1.3c-0.8-0.3-0.9,0.3-1.2,0.7
			c-0.2,0.2-0.3,0.3-0.5,0.4c-0.2-0.1-0.5-0.2-0.7-0.3c-0.4-0.4-0.2-0.8,0.1-1.2c0.3-0.5,0.2-0.8-0.2-1.1c-0.4-0.3-0.7-0.4-1.1,0
			c-0.3,0.3-0.6,0.8-1.2,0.2c-0.6-0.5-0.2-0.9,0.1-1.2c0.3-0.4,0.4-0.7,0.1-1.1c-0.4-0.5-0.7-0.5-1.3-0.3c-0.4,0.2-0.8,0.4-1.1-0.2
			c-0.4-0.6,0-0.9,0.4-1.2c0.4-0.2,0.7-0.5,0.4-1.1c-0.2-0.5-0.5-0.7-1-0.6c-0.4,0-1,0.3-1.2-0.5c-0.1-0.6,0.3-0.8,0.7-0.9
			c0.5-0.1,0.7-0.5,0.6-1c0-0.6-0.3-0.8-0.8-0.8c-0.4-0.1-1.1,0.1-1-0.7c0-0.8,0.6-0.7,1.1-0.7c0.6,0,0.7-0.3,0.8-0.8
			c0.1-0.5-0.1-0.8-0.7-0.9c-0.5-0.1-0.9-0.4-0.7-1.1c0.2-0.7,0.7-0.5,1.1-0.4c0.6,0.2,0.8-0.1,1.1-0.7c0.3-0.6-0.1-0.8-0.5-1
			c-0.3-0.3-0.8-0.4-0.4-1c0.3-0.5,0.7-0.5,1.1-0.3c0.5,0.3,0.9,0.3,1.3-0.2c0.5-0.5,0.2-0.9-0.1-1.3c-0.4-0.4-0.5-0.7,0-1.1
			c0.5-0.5,0.8-0.2,1.1,0.1c0.4,0.5,0.8,0.4,1.3,0c0.5-0.4,0.3-0.7,0.1-1.1c-0.1-0.4-0.5-0.7,0.1-1.1c0.6-0.4,0.9-0.1,1.2,0.4
			c0.3,0.5,0.6,0.6,1.1,0.4c0.5-0.2,0.7-0.5,0.6-1c-0.1-0.5-0.1-1,0.5-1.2c0.6-0.2,0.7,0.3,0.8,0.7c0.2,0.4,0.4,0.8,1,0.6
			c0.5-0.1,0.8-0.2,0.9-0.8c0-0.4-0.1-1,0.7-1c0.8,0,0.7,0.5,0.7,1c0,0.6,0.3,0.7,0.8,0.8c0.5,0.1,0.8-0.1,1-0.6
			c0.1-0.4,0.2-1,1-0.8c0.7,0.2,0.6,0.7,0.4,1.2c-0.3,0.6,0.2,0.8,0.6,1c0.5,0.2,0.8,0.1,1.1-0.3c0.3-0.4,0.5-0.9,1.2-0.4
			c0.5,0.4,0.3,0.7,0.1,1.1c-0.2,0.4-0.2,0.8,0.2,1.1c0.5,0.4,0.9,0.3,1.3-0.1c0.4-0.3,0.7-0.5,1.1-0.1c0.5,0.5,0.2,0.8-0.1,1.1
			c-0.4,0.4-0.5,0.8-0.1,1.3c0.4,0.5,0.7,0.3,1.2,0.2c1.3-0.5,1.3,0.2,1.1,1.1c-0.6,0.2-1.1,0.5-0.8,1.3
			C166.9,351,167.7,350.1,168.4,350.2z M158.4,354.2c0-1.5-1.2-2.7-2.7-2.7c-1.6,0-2.9,1.3-2.9,2.8c0,1.4,1.3,2.7,2.8,2.7
			C157.2,357,158.4,355.8,158.4,354.2z M156.1,360.4c0,1.6,1.1,3.5,1.9,3.5c1.2,0,3.1-1.2,3.1-2c0-1.3-1.6-3.7-2.3-3.3
			C157.9,359.1,156.2,358.8,156.1,360.4z M156.2,347.6c0,1.1,1.4,2.2,2.6,2.3c0.8,0,2.2-1.9,2.3-3.2c0-0.8-2-2.3-3.1-2
			C156.4,345,156.5,346.5,156.2,347.6z M155.1,360.7c0-1-1.4-2.1-2.6-2.2c-0.8,0-2.2,2-2.3,3.4c0,0.7,1.9,2,3.1,2
			C154.1,363.9,155,362.2,155.1,360.7z M155.1,347.8c-0.2-1.2-0.2-2.7-1.7-3.1c-1-0.3-3.3,1.3-3.2,1.9c0.1,1.3,1.7,3.6,2.3,3.2
			C153.4,349.2,155.1,349.7,155.1,347.8z M149.1,353.6c0.9,0,2.1-1.3,2.2-2.5c0.1-0.8-2-2.3-3.3-2.3c-0.7,0-1.9,1.8-2,3
			C146,352.7,147.5,353.6,149.1,353.6z M149.2,354.7c-1.6,0-3.4,1.1-3.1,1.9c0.3,1.1,0.3,2.7,1.8,2.9c1.2,0.2,3.4-1.3,3.4-2.2
			C151.4,356.4,150,354.7,149.2,354.7z M162.1,353.7c1.5,0,3.2-1,3.2-1.8c0-1-1.3-3.1-2-3.1c-1.2,0-3.4,1.4-3.4,2.3
			C160,352.1,161.2,353.7,162.1,353.7z M162.3,354.8c-1,0-2.4,1.7-2.3,2.6c0,0.8,2.3,2.3,3.4,2.2c0.7,0,2.2-2.2,1.9-3.2
			C164.8,355,163.3,354.9,162.3,354.8z"/>
		<g>
			<path class="st2" d="M110.7,360.4c-0.5,0-1,0-1.5-0.1c-0.5-0.2-1.3,0.2-1.4-0.7c0-0.7,0.6-0.7,1-1c0.3-0.3,0.7-0.5,1.1-0.6
				c0.9-0.4,1.1-0.8,0.7-1.8c-0.4-0.8-0.7-1.2-1.7-1c-0.9,0.2-1.8,1-2.8,0.4c0-1,0.7-1.5,1.2-2c0.8-0.8,0.9-1.4,0.1-2.3
				c-0.9-1-1.4-0.4-2.1,0.1c-0.7,0.5-1.2,1.5-2.3,1.3c-0.5-0.9,0.2-1.5,0.3-2.2c0.2-1,0.6-1.8-0.8-2.4c-1.4-0.6-1.5,0.5-2,1.1
				c-0.5,0.6-0.5,1.7-1.4,1.8c-1.5-1,0.6-3.8-2.1-3.9c-2.9-0.1-0.7,3.1-2.3,3.9c-1.7-0.3-0.8-3.9-3.5-2.8c-2.8,1.1,0.6,3.1-0.4,4.5
				c-0.8,0.1-1.2-0.5-1.8-0.9c-0.8-0.6-1.4-1.7-2.7-0.4c-1.3,1.4,0.2,1.8,0.6,2.7c0.3,0.5,1.1,0.9,0.8,1.5c-1.5,1.2-3.4-2-4.5,0.6
				c-1.1,2.7,2.6,1.7,2.8,3.5c-0.9,1.4-3.5-0.7-3.8,1.8c-0.4,3.2,3.2,0.8,3.8,2.5c-0.4,1.6-3.5,0.9-2.8,3.2c0.9,3.1,3.3-0.5,4.4,0.7
				c0.6,1.9-3.2,2.2-1.2,4.3c2.1,2.1,2.7-1.7,4.4-1.2c0.5,0.5,0.1,1,0.1,1.4c-0.2,1.1-1.4,2.4,0.6,3.1c1.8,0.7,1.7-1.1,2.4-1.9
				c0.3-0.3,0-1.2,0.8-1.1c0.8,0.1,0.6,0.9,0.8,1.4c0.3,1-0.7,2.7,1.6,2.7c2.1-0.1,1.2-1.6,1.5-2.6c0.2-0.5-0.3-1.3,0.6-1.5
				c0.7-0.1,0.8,0.7,1.1,1.2c0.6,0.9,0.7,2.4,2.5,1.6c1.7-0.8,0.5-1.8,0.5-2.7c0-0.6-0.7-1.2-0.1-1.6c0.8-0.5,1.2,0.4,1.6,0.8
				c1,0.9,2,1.5,3,0c0.9-1.4-0.7-1.8-1.1-2.7c-0.2-0.4-0.8-0.7-0.5-1.3c0.4-0.7,0.9-0.1,1.3-0.1c0.4,0.1,0.8,0.2,1.2,0.3
				c1,0.5,1.5,0.3,1.9-0.7c0.4-1,0.1-1.5-0.7-2c-0.8-0.4-2-0.5-2.1-1.9c1.1-0.1,2.1-0.2,3.1-0.4c0.9-0.1,0.9-0.8,0.9-1.5
				C111.8,361,111.7,360.4,110.7,360.4z M97,367.7c-3.2,0-5.7-2.6-5.7-5.7c0-3.2,2.6-5.7,5.7-5.7c3.2,0,5.7,2.6,5.7,5.7
				C102.7,365.2,100.2,367.7,97,367.7z"/>
		</g>
		<g>
			<circle class="st1" cx="349.7" cy="214.9" r="8.8"/>
			<path class="st2" d="M365.4,212.6c-0.6,0-1.2,0-1.7-0.2c-0.6-0.2-1.5,0.3-1.6-0.8c-0.1-0.8,0.7-0.8,1.2-1.1
				c0.4-0.3,0.8-0.5,1.3-0.7c1-0.4,1.3-1,0.8-2c-0.4-0.9-0.8-1.4-2-1.1c-1,0.2-2,1.2-3.2,0.4c0-1.1,0.7-1.7,1.3-2.3
				c0.9-0.9,1.1-1.6,0.1-2.7c-1-1.1-1.6-0.4-2.4,0.1c-0.8,0.5-1.4,1.7-2.6,1.5c-0.6-1,0.2-1.7,0.4-2.6c0.2-1.1,0.7-2.1-1-2.7
				c-1.7-0.7-1.7,0.5-2.3,1.3c-0.6,0.7-0.5,1.9-1.6,2.1c-1.7-1.1,0.7-4.4-2.5-4.5c-3.3-0.1-0.8,3.5-2.6,4.5c-2-0.3-1-4.5-4-3.3
				c-3.2,1.3,0.7,3.5-0.5,5.2c-0.9,0.2-1.4-0.6-2-1c-0.9-0.7-1.6-2-3.1-0.4c-1.5,1.6,0.2,2.1,0.7,3.1c0.3,0.6,1.2,1,0.9,1.8
				c-1.7,1.4-3.9-2.3-5.1,0.7c-1.3,3.1,3,2,3.2,4.1c-1,1.6-4-0.8-4.4,2.1c-0.5,3.7,3.7,0.9,4.4,2.9c-0.5,1.8-4,1-3.3,3.7
				c1,3.6,3.7-0.6,5.1,0.8c0.7,2.1-3.7,2.6-1.3,5c2.4,2.4,3.1-1.9,5-1.4c0.5,0.5,0.2,1.1,0.1,1.6c-0.2,1.3-1.6,2.7,0.7,3.6
				c2.1,0.8,2-1.3,2.8-2.2c0.3-0.4,0-1.3,0.9-1.2c0.9,0.1,0.7,1,0.9,1.6c0.4,1.2-0.8,3.1,1.9,3.1c2.4-0.1,1.3-1.9,1.7-3
				c0.2-0.6-0.3-1.6,0.7-1.7c0.8-0.1,0.9,0.8,1.3,1.4c0.7,1,0.8,2.8,2.9,1.9c2-0.9,0.6-2.1,0.5-3.1c0-0.6-0.9-1.4-0.1-1.9
				c0.9-0.6,1.4,0.4,1.9,0.9c1.2,1,2.3,1.8,3.5,0c1.1-1.7-0.8-2.1-1.3-3.1c-0.2-0.5-0.9-0.8-0.6-1.5c0.5-0.8,1-0.2,1.5-0.1
				c0.5,0.1,1,0.2,1.4,0.4c1.1,0.6,1.7,0.3,2.2-0.9c0.5-1.1,0.2-1.8-0.8-2.3c-0.9-0.5-2.3-0.6-2.4-2.2c1.3-0.2,2.4-0.3,3.6-0.4
				c1.1-0.1,1-1,1-1.8C366.7,213.2,366.5,212.6,365.4,212.6z M349.6,221c-3.6,0-6.6-2.9-6.6-6.6c0-3.6,2.9-6.6,6.6-6.6
				c3.6,0,6.6,2.9,6.6,6.6C356.2,218,353.3,221,349.6,221z"/>
		</g>
		<path class="st2" d="M157,85.9c0.6,0.6,1.4,0.4,2.1,0.6c0.4,0.1,0.9,0.3,0.9,0.8c0,0.5-0.4,0.5-0.8,0.7c-3,1.1-3.1,1.1-0.6,3.3
			c0.3,0.3,0.5,0.6,0.4,1c-0.2,0.4-0.6,0.4-1,0.4c-1-0.1-2.3-1-3,0.2c-0.6,1,0.7,1.8,1.1,2.7c0.2,0.3,0.4,0.7,0,1
			c-0.3,0.3-0.7,0.1-1.1,0c-0.9-0.4-1.7-1.8-2.8-1c-1,0.7-0.1,1.9,0,2.9c0,0.4,0.1,0.8-0.3,1c-0.5,0.3-0.8-0.2-1-0.5
			c-0.7-0.7-0.9-2.2-2.1-1.9c-1.2,0.3-0.8,1.7-1.2,2.6c-0.2,0.4-0.3,0.9-0.8,0.8c-0.5,0-0.5-0.5-0.6-0.8c-0.4-0.9,0-2.4-1.2-2.6
			c-1.2-0.2-1.4,1.3-2.1,2c-0.3,0.3-0.6,0.8-1,0.5c-0.4-0.2-0.4-0.7-0.3-1.2c0-0.1,0-0.1,0-0.2c0.1-0.9,0.7-2-0.1-2.6
			c-0.9-0.7-1.7,0.3-2.4,0.8c-0.5,0.3-1,0.7-1.4,0.2c-0.5-0.5,0.1-1,0.3-1.4c0.1-0.1,0.2-0.3,0.3-0.4c0.4-0.6,1-1.2,0.6-1.9
			c-0.5-0.8-1.4-0.3-2.1-0.3c-0.1,0-0.2,0-0.3,0.1c-0.6,0.1-1.3,0.5-1.5-0.3c-0.3-0.7,0.5-1,1-1.3c0.3-0.2,0.5-0.4,0.8-0.5
			c0.4-0.3,0.8-0.7,0.7-1.2c-0.1-0.6-0.7-0.8-1.2-1c-0.5-0.1-1-0.2-1.6-0.3c-0.4-0.1-0.8-0.2-0.7-0.7c0-0.5,0.3-0.6,0.7-0.7
			c0.5-0.1,1.1-0.2,1.6-0.3c0.5-0.1,1.1-0.3,1.2-0.9c0.1-0.5-0.4-0.8-0.7-1.2c-0.6-0.6-2.1-0.7-1.6-1.8c0.4-0.9,1.6-0.1,2.4,0
			c0.5,0,1,0.1,1.3-0.4c0.4-0.5,0.1-1-0.1-1.5c-0.3-0.8-1.7-1.5-0.9-2.3c0.8-0.8,1.5,0.6,2.3,0.9c0.5,0.2,1,0.6,1.5,0.2
			c0.5-0.4,0.3-0.9,0.3-1.5c0-0.8-1-1.9,0.1-2.3c1.1-0.5,1.2,1,1.7,1.5c0.4,0.4,0.8,1.1,1.4,0.9c0.6-0.1,0.8-0.8,0.9-1.4
			c0.2-0.7,0-2,0.9-2c1.2-0.1,0.8,1.3,1,2c0.2,0.6,0.3,1.2,0.9,1.4c0.7,0.2,1-0.5,1.4-0.9c0.5-0.6,0.7-2,1.7-1.5
			c0.9,0.4,0.2,1.5,0.1,2.2c-0.1,0.6-0.2,1.2,0.3,1.6c0.6,0.5,1.1-0.1,1.6-0.3c0.8-0.3,1.4-1.6,2.2-0.8c0.8,0.8-0.4,1.5-0.8,2.2
			c-0.3,0.5-0.7,1.1-0.3,1.6c0.4,0.6,1,0.5,1.6,0.3c0.5-0.1,0.9-0.3,1.4-0.3c0.8-0.1,1.1,0.3,0.8,1.1c-0.6,0.4-1.3,0.8-1.9,1.3
			C156.6,84.8,156,85.4,157,85.9z M149.6,87.3c0-1.4-1.4-2.7-2.7-2.6c-1.4,0-2.5,1.2-2.5,2.6c0,1.4,1.1,2.5,2.5,2.6
			C148.4,89.9,149.6,88.8,149.6,87.3z M144.4,90.8c0-0.7-0.4-1-1.1-1c-1.1,0.1-2.5,1.6-2.4,2.6c0.1,0.6,0.4,1,1.1,1
			C143,93.4,144.5,91.9,144.4,90.8z M153,92.3c0-1.1-1.4-2.5-2.5-2.5c-0.8,0-1.1,0.4-1.1,1.1c0,1,1.4,2.4,2.4,2.5
			C152.6,93.4,152.9,92.9,153,92.3z M145.6,93.5c0.1,0.9,0.2,2,1.4,1.9c1.1-0.1,1.3-1.2,1.2-2.1c0-0.9-0.3-2.1-1.4-2
			C145.8,91.4,145.7,92.5,145.6,93.5z M142,81.3c-0.6,0.1-1.1,0.4-1.1,1.1c0,1.1,1.6,2.5,2.6,2.4c0.6,0,1-0.4,1-1
			C144.5,82.8,143,81.3,142,81.3z M140.9,88.6c1,0,2.1-0.2,2.2-1.2c0-1.1-1.1-1.4-2-1.4c-0.9,0-2.2,0.1-2.2,1.4
			C138.9,88.5,140,88.6,140.9,88.6z M152.8,88.6c1.1,0,2.2-0.1,2.2-1.3c0-1.1-1.1-1.3-2-1.3c-0.9,0-2.1,0.2-2.1,1.3
			C150.9,88.5,152,88.5,152.8,88.6z M145.7,81.2c0,1,0.1,2.1,1.2,2.2c1.2,0.1,1.3-1.1,1.4-2c0-0.9-0.2-2.1-1.3-2.1
			C145.8,79.2,145.7,80.3,145.7,81.2z M150.5,84.8c1,0,2.5-1.3,2.5-2.4c0-0.7-0.2-1.1-1-1.1c-1,0-2.4,1.3-2.5,2.4
			C149.4,84.4,149.7,84.8,150.5,84.8z"/>
		<path class="st2" d="M180.3,120.2c-0.4,0-0.7,0.1-1.1,0.1c-0.3-0.8-0.5-1.6-0.8-2.4c-1.5-0.2-1.5-0.2-2.3,2.4
			c-0.3,0-0.7-0.1-1.1-0.1c0-0.6-0.1-1.2-0.1-1.7c0-0.6-0.2-1-0.9-1.1c-0.7-0.2-0.9,0.2-1.2,0.6c-0.3,0.4-0.6,0.9-0.9,1.4
			c-0.4-0.1-0.7-0.2-1.1-0.4c0.1-0.5,0.2-0.9,0.2-1.3c0.1-0.4,0.2-0.8,0.3-1.3c-0.4-0.3-0.8-0.5-1.3-0.8c-0.6,0.6-1.3,1.1-1.9,1.7
			c-0.9-0.3-1-0.8-0.5-1.5c0.3-0.4,0.5-0.9,0.8-1.5c-0.4-0.3-0.8-0.6-1.3-1c-0.3,0.2-0.8,0.4-1.3,0.7c-0.7,0.5-1.2,0.4-1.5-0.5
			c0.5-0.6,1.1-1.2,1.7-1.9c-0.2-0.4-0.5-0.9-0.8-1.3c-0.8,0.2-1.6,0.4-2.5,0.6c-0.1-0.3-0.3-0.6-0.5-1c0.6-0.4,1.1-0.7,1.6-1
			c0.4-0.2,0.7-0.5,0.5-1c-0.2-0.5-0.2-1-0.9-1c-0.6,0-1.2,0-1.9-0.1c-0.1-0.4-0.1-0.7-0.2-1.1c0.8-0.3,1.6-0.5,2.4-0.8
			c0-0.5,0-0.9,0-1.5c-0.7-0.3-1.5-0.5-2.4-0.8c0-0.3,0.1-0.7,0.1-1.1c0.9-0.1,1.7-0.1,2.5-0.2c1.2-2-1-2-1.6-2.9
			c0.1-0.8,0.4-1.2,1.2-0.8c0.1,0,0.2,0,0.3,0.1c1.7,0.3,1.2,0.5,2.1-1.1c-0.6-0.6-1.1-1.2-1.7-1.9c0.2-0.3,0.5-0.6,0.7-0.9
			c0.4,0.2,0.7,0.4,1.1,0.6c1.3,0.7,1.3,0.7,2.3-0.5c-0.4-0.7-0.7-1.5-1.1-2.2c0.5-0.8,1-0.8,1.6-0.1c0.3,0.4,0.7,0.7,1.2,1.1
			c0.5-0.3,0.9-0.5,1.4-0.8c-0.2-0.8-0.4-1.6-0.5-2.5c0.6-0.5,1.1-0.6,1.5,0.2c0.1,0.3,0.4,0.5,0.5,0.8c0.3,0.5,0.6,0.7,1.2,0.5
			c0.6-0.2,0.8-0.5,0.8-1.1c0-0.5,0-1.1,0-1.6c0.4-0.1,0.7-0.1,1.1-0.2c0.2,0.7,0.5,1.3,0.6,2c0.1,0.6,0.5,0.6,1,0.6
			c0.4,0,0.8,0,1-0.6c0.1-0.5,0.2-1,0.4-1.4c0.1-0.2,0.5-0.5,0.7-0.5c0.2,0,0.5,0.3,0.6,0.6c0.1,0.3,0.1,0.7,0.1,1.1
			c-0.1,0.7,0.1,1,0.9,1.2c0.7,0.2,0.9-0.2,1.2-0.6c0.2-0.3,0.3-0.7,0.6-0.9c0.2-0.2,0.6-0.3,0.8-0.2c0.2,0.1,0.4,0.5,0.4,0.7
			c-0.1,0.7-0.3,1.3-0.4,2c0.4,0.3,0.8,0.5,1.3,0.8c0.6-0.6,1.3-1.1,1.9-1.7c0.3,0.2,0.6,0.4,0.9,0.7c-0.3,0.5-0.5,1-0.8,1.5
			c-0.3,0.5-0.5,0.8,0.1,1.3c0.5,0.5,0.9,0.5,1.4,0.2c0.5-0.3,1-0.5,1.5-0.8c0.2,0.3,0.4,0.5,0.7,0.8c-0.6,0.7-1.1,1.3-1.7,1.9
			c0.5,1.4,0.5,1.4,2,1.1c0.5-0.1,1.1-0.7,1.5,0.2c0.2,0.4,0.2,0.7-0.2,0.9c-0.3,0.2-0.6,0.4-0.9,0.6c-0.6,0.3-0.8,0.6-0.6,1.3
			c0.2,0.8,0.7,0.6,1.2,0.7c0.3,0,0.5,0,0.8,0c0.8,0,1,0.4,0.9,1.2c-0.5,0.2-1.1,0.4-1.7,0.5c-0.6,0.1-0.8,0.4-0.8,1.1
			c0,0.7,0.3,0.9,0.9,1c0.3,0.1,0.5,0.2,0.8,0.2c0.8,0.2,1.1,0.6,0.6,1.4c-0.6,0-1.2,0.1-1.8,0.1c-0.8,0-0.7,0.5-0.9,1
			c-0.2,0.5,0.1,0.7,0.4,0.9c0.3,0.1,0.5,0.3,0.8,0.5c0.8,0.4,0.9,0.9,0.3,1.6c-0.8-0.2-1.6-0.3-2.4-0.5c-0.9,1.3-0.9,1.3,0.1,2.3
			c0.2,0.2,0.4,0.3,0.5,0.5c0.1,0.3,0.1,0.6-0.1,0.8c-0.1,0.2-0.5,0.3-0.7,0.2c-0.6-0.3-1.2-0.6-1.8-0.9c-2,1.1-0.3,2.2,0,3.3
			c-0.4,0.7-0.9,0.9-1.5,0.1c-0.4-0.4-0.8-0.7-1.2-1.1c-0.4,0.2-0.8,0.5-1.3,0.8c0.1,0.5,0.2,1.1,0.3,1.6c0.3,0.9,0,1.3-0.9,1.3
			c-0.3-0.4-0.6-0.9-0.9-1.4c-0.3-0.6-0.7-0.7-1.4-0.5c-0.4,0.1-0.6,0.3-0.6,0.7C180.4,118.8,180.4,119.5,180.3,120.2z M179.9,104.2
			c0-1.3-0.9-2.3-2.2-2.3c-1.3,0-2.4,1-2.4,2.2c0,1.2,1.1,2.4,2.3,2.4C178.8,106.5,179.9,105.5,179.9,104.2z M183.4,95.9
			c-1.4-0.6-2.6-1.1-4-1.6c-0.2,1.6-0.2,3-0.5,4.4c-0.2,0.9,0.1,1.3,1,1.4C181,98.8,182.1,97.5,183.4,95.9z M171.9,112.4
			c1.3,0.5,2.6,1,3.9,1.6c0.2-2,0.4-3.7,0.6-5.4c-0.4-0.2-0.7-0.3-1.1-0.4C174.2,109.6,173.1,110.9,171.9,112.4z M171.9,95.9
			c1.2,1.4,2.2,2.7,3.3,4c0.1,0.1,0.6,0.1,0.8,0c0.2-0.1,0.4-0.4,0.4-0.6c-0.1-1.6-0.3-3.2-0.5-5C174.5,94.9,173.3,95.4,171.9,95.9z
			 M169.5,98.6c-0.8,1.2-1.4,2.4-1.5,3.9c1.8,0.2,3.5,0.3,5.2,0.5c0.2-0.4,0.3-0.7,0.5-1.1C172.3,100.8,170.9,99.7,169.5,98.6z
			 M169.4,109.9c1.3-1.1,2.5-2,3.7-3c0.4-0.3,0.5-0.5,0.3-1c-0.2-0.5-0.5-0.5-0.9-0.4c-0.5,0.1-1,0.1-1.5,0.2c-1,0.1-2,0.2-3.2,0.4
			C168.4,107.4,168.9,108.6,169.4,109.9z M187.5,106c-1.8-0.2-3.4-0.4-4.9-0.5c-0.2,0-0.5,0.3-0.7,0.5c-0.1,0.2-0.1,0.6,0.1,0.7
			c1.2,1,2.5,2,3.9,3.2C186.4,108.6,186.9,107.4,187.5,106z M178.9,108.7c0.2,1.8,0.4,3.4,0.6,5.4c1.3-0.6,2.6-1.1,3.9-1.6
			c-1.3-1.5-2.4-2.9-3.5-4.2C179.5,108.4,179.2,108.5,178.9,108.7z M185.9,98.5c-1.3,1-2.3,2-3.5,2.8c-0.8,0.5-0.8,1-0.2,1.7
			c1.7-0.2,3.4-0.3,5.3-0.5C186.9,101.1,186.4,99.8,185.9,98.5z"/>
		<g>
			<circle class="st1" cx="318.1" cy="124.3" r="14.9"/>
			<path class="st2" d="M321.1,144c-0.5,0-0.9,0.1-1.4,0.1c-0.3-1-0.7-2-1-2.9c-1.8-0.2-1.8-0.2-2.8,2.9c-0.4,0-0.8-0.1-1.3-0.1
				c0-0.7-0.1-1.4-0.1-2.1c0-0.8-0.2-1.2-1.1-1.4c-0.9-0.2-1.1,0.2-1.5,0.8c-0.3,0.5-0.7,1.1-1.1,1.7c-0.4-0.1-0.8-0.3-1.3-0.4
				c0.1-0.6,0.2-1.1,0.3-1.6c0.1-0.5,0.2-1,0.4-1.5c-0.5-0.3-1-0.6-1.6-1c-0.8,0.7-1.6,1.4-2.3,2.1c-1.1-0.3-1.3-0.9-0.7-1.8
				c0.4-0.5,0.6-1.1,0.9-1.8c-0.5-0.4-1-0.7-1.6-1.2c-0.4,0.2-1,0.4-1.5,0.8c-0.9,0.6-1.4,0.5-1.8-0.6c0.6-0.7,1.3-1.5,2.1-2.3
				c-0.3-0.5-0.6-1.1-0.9-1.6c-1,0.2-2,0.4-3.1,0.7c-0.2-0.4-0.4-0.8-0.6-1.3c0.7-0.4,1.3-0.9,1.9-1.2c0.5-0.3,0.8-0.6,0.6-1.2
				c-0.2-0.6-0.3-1.2-1.2-1.2c-0.7,0-1.5-0.1-2.3-0.1c-0.1-0.4-0.1-0.9-0.2-1.4c1-0.3,2-0.6,3-1c0-0.6,0-1.2,0-1.9
				c-0.9-0.3-1.9-0.6-3-1c0.1-0.4,0.1-0.8,0.2-1.4c1.1-0.1,2.1-0.1,3.1-0.2c1.5-2.5-1.2-2.4-2-3.5c0.1-1,0.5-1.5,1.5-1
				c0.1,0,0.2,0.1,0.3,0.1c2.1,0.4,1.5,0.7,2.6-1.3c-0.7-0.7-1.4-1.5-2.1-2.3c0.3-0.4,0.6-0.7,0.9-1.1c0.5,0.3,0.9,0.5,1.3,0.7
				c1.6,0.8,1.6,0.8,2.8-0.6c-0.5-0.9-0.9-1.8-1.4-2.7c0.6-0.9,1.2-1,1.9-0.1c0.4,0.5,0.9,0.9,1.4,1.3c0.6-0.3,1.1-0.6,1.7-0.9
				c-0.2-1-0.4-2-0.7-3c0.7-0.6,1.4-0.8,1.8,0.3c0.1,0.3,0.4,0.6,0.6,0.9c0.3,0.7,0.7,0.9,1.5,0.6c0.8-0.2,1-0.6,1-1.4
				c0-0.7,0-1.3,0-2c0.5-0.1,0.9-0.2,1.4-0.3c0.3,0.8,0.6,1.6,0.8,2.4c0.2,0.7,0.6,0.7,1.2,0.7c0.5,0,1,0,1.2-0.7
				c0.1-0.6,0.3-1.2,0.5-1.7c0.1-0.3,0.6-0.6,0.8-0.6c0.3,0,0.6,0.4,0.7,0.7c0.1,0.4,0.1,0.9,0.1,1.3c-0.1,0.8,0.2,1.3,1.1,1.5
				c0.9,0.2,1.1-0.2,1.4-0.8c0.2-0.4,0.4-0.8,0.7-1.1c0.2-0.2,0.7-0.4,1-0.3c0.2,0.1,0.5,0.6,0.5,0.9c-0.1,0.8-0.3,1.6-0.5,2.5
				c0.5,0.3,1,0.6,1.6,0.9c0.8-0.7,1.5-1.4,2.4-2.1c0.4,0.3,0.7,0.5,1.1,0.8c-0.3,0.7-0.6,1.3-1,1.9c-0.3,0.6-0.6,1,0.1,1.6
				c0.6,0.6,1.1,0.6,1.7,0.2c0.6-0.4,1.2-0.6,1.8-1c0.3,0.3,0.5,0.6,0.9,1c-0.7,0.8-1.4,1.6-2,2.3c0.7,1.7,0.6,1.7,2.4,1.4
				c0.6-0.1,1.3-0.9,1.8,0.2c0.2,0.5,0.3,0.8-0.3,1.1c-0.4,0.2-0.7,0.5-1.1,0.7c-0.7,0.4-1,0.7-0.8,1.7c0.3,0.9,0.8,0.8,1.4,0.8
				c0.3,0,0.7,0.1,1,0c0.9,0,1.3,0.4,1.1,1.4c-0.6,0.2-1.3,0.5-2,0.7c-0.7,0.2-1,0.5-1,1.3c0,0.8,0.4,1.1,1.1,1.2
				c0.3,0.1,0.6,0.2,1,0.3c1,0.2,1.3,0.7,0.8,1.7c-0.7,0-1.5,0.1-2.3,0.1c-0.9,0-0.9,0.6-1.1,1.2c-0.2,0.7,0.1,0.9,0.6,1.1
				c0.3,0.2,0.6,0.4,1,0.6c1,0.5,1.1,1.1,0.4,1.9c-1-0.2-2-0.4-3-0.6c-1,1.6-1,1.6,0.2,2.9c0.2,0.2,0.5,0.4,0.6,0.7
				c0.1,0.3,0.1,0.8-0.1,1c-0.1,0.2-0.6,0.3-0.9,0.2c-0.8-0.3-1.5-0.8-2.3-1.1c-2.4,1.4-0.4,2.7,0,4.1c-0.5,0.8-1.1,1.1-1.9,0.2
				c-0.4-0.5-1-0.9-1.5-1.4c-0.5,0.3-1,0.6-1.6,0.9c0.1,0.7,0.2,1.3,0.4,1.9c0.4,1.1,0,1.6-1.1,1.6c-0.4-0.5-0.8-1.1-1.1-1.7
				c-0.4-0.8-0.9-0.9-1.7-0.6c-0.5,0.2-0.7,0.3-0.7,0.9C321.3,142.2,321.2,143.1,321.1,144z M320.6,124.3c0-1.6-1.1-2.8-2.7-2.8
				c-1.6,0-2.9,1.2-2.9,2.7c0,1.5,1.3,2.9,2.8,2.9C319.3,127.1,320.6,125.8,320.6,124.3z M324.9,114.1c-1.7-0.7-3.2-1.3-4.9-2
				c-0.2,2-0.3,3.7-0.6,5.4c-0.2,1.1,0.1,1.6,1.3,1.7C322,117.7,323.4,116,324.9,114.1z M310.8,134.4c1.7,0.7,3.2,1.3,4.8,2
				c0.3-2.4,0.5-4.5,0.7-6.6c-0.5-0.2-0.9-0.3-1.3-0.5C313.7,130.9,312.4,132.5,310.8,134.4z M310.8,114.1c1.4,1.8,2.7,3.4,4,4.9
				c0.1,0.2,0.7,0.1,1,0c0.2-0.1,0.5-0.5,0.5-0.7c-0.2-2-0.4-3.9-0.7-6.1C314,112.8,312.5,113.5,310.8,114.1z M307.9,117.4
				c-1,1.5-1.7,3-1.9,4.8c2.2,0.2,4.3,0.4,6.3,0.6c0.2-0.5,0.4-0.9,0.6-1.3C311.3,120.1,309.6,118.8,307.9,117.4z M307.8,131.3
				c1.6-1.3,3.1-2.5,4.5-3.7c0.5-0.4,0.6-0.6,0.4-1.3c-0.3-0.6-0.7-0.6-1.1-0.5c-0.6,0.1-1.3,0.1-1.9,0.2c-1.2,0.1-2.4,0.3-3.9,0.5
				C306.5,128.2,307.1,129.7,307.8,131.3z M330,126.5c-2.2-0.3-4.1-0.5-6-0.7c-0.3,0-0.7,0.3-0.8,0.6c-0.1,0.2-0.1,0.8,0.1,0.9
				c1.5,1.3,3,2.5,4.8,3.9C328.7,129.6,329.3,128.2,330,126.5z M319.4,129.8c0.2,2.2,0.4,4.2,0.7,6.6c1.6-0.7,3.2-1.3,4.8-2
				c-1.5-1.9-2.9-3.5-4.2-5.2C320.2,129.4,319.8,129.6,319.4,129.8z M328,117.2c-1.6,1.3-2.8,2.4-4.2,3.4c-0.9,0.7-1,1.3-0.3,2.1
				c2-0.2,4.1-0.4,6.5-0.7C329.3,120.4,328.7,118.9,328,117.2z"/>
		</g>
		<path class="st2" d="M200.9,89.5c-0.4,0-0.7,0.1-1,0.1c-0.2-0.7-0.5-1.5-0.7-2.2c-1.4-0.2-1.4-0.2-2.1,2.2c-0.3,0-0.6-0.1-1-0.1
			c0-0.5-0.1-1.1-0.1-1.6c0-0.6-0.2-0.9-0.8-1c-0.6-0.2-0.9,0.2-1.1,0.6c-0.2,0.4-0.5,0.8-0.8,1.3c-0.3-0.1-0.6-0.2-1-0.3
			c0.1-0.4,0.1-0.8,0.2-1.2c0.1-0.4,0.2-0.8,0.3-1.2c-0.4-0.2-0.8-0.5-1.2-0.7c-0.6,0.5-1.2,1.1-1.7,1.6c-0.9-0.3-1-0.7-0.5-1.4
			c0.3-0.4,0.4-0.8,0.7-1.3c-0.4-0.3-0.7-0.5-1.2-0.9c-0.3,0.1-0.8,0.3-1.2,0.6c-0.6,0.4-1.1,0.4-1.4-0.5c0.5-0.5,1-1.1,1.5-1.7
			c-0.2-0.4-0.5-0.8-0.7-1.2c-0.8,0.2-1.5,0.3-2.3,0.5c-0.1-0.3-0.3-0.6-0.4-1c0.5-0.3,1-0.6,1.5-0.9c0.4-0.2,0.6-0.4,0.5-0.9
			c-0.2-0.5-0.2-0.9-0.9-0.9c-0.6,0-1.1,0-1.7-0.1c0-0.3-0.1-0.7-0.1-1c0.8-0.2,1.5-0.5,2.2-0.7c0-0.4,0-0.9,0-1.4
			c-0.7-0.2-1.4-0.5-2.2-0.8c0-0.3,0.1-0.6,0.1-1c0.8-0.1,1.6-0.1,2.3-0.1c1.1-1.9-0.9-1.8-1.5-2.7c0.1-0.7,0.4-1.1,1.1-0.8
			c0.1,0,0.2,0,0.2,0.1c1.6,0.3,1.1,0.5,2-1c-0.5-0.6-1-1.1-1.6-1.8c0.2-0.3,0.4-0.5,0.6-0.8c0.4,0.2,0.7,0.4,1,0.5
			c1.2,0.6,1.2,0.6,2.1-0.5c-0.3-0.7-0.7-1.3-1-2c0.5-0.7,0.9-0.8,1.4-0.1c0.3,0.4,0.7,0.7,1.1,1c0.4-0.2,0.8-0.5,1.3-0.7
			c-0.2-0.8-0.3-1.5-0.5-2.3c0.5-0.4,1-0.6,1.4,0.2c0.1,0.3,0.3,0.5,0.5,0.7c0.3,0.5,0.5,0.7,1.1,0.5c0.6-0.2,0.8-0.5,0.7-1
			c0-0.5,0-1,0-1.5c0.4-0.1,0.6-0.1,1-0.2c0.2,0.6,0.4,1.2,0.6,1.8c0.1,0.5,0.5,0.5,0.9,0.5c0.4,0,0.8,0,0.9-0.5
			c0.1-0.4,0.2-0.9,0.4-1.3c0.1-0.2,0.4-0.5,0.6-0.4c0.2,0,0.5,0.3,0.5,0.5c0.1,0.3,0.1,0.7,0.1,1c-0.1,0.6,0.1,0.9,0.8,1.1
			c0.7,0.2,0.8-0.2,1.1-0.6c0.2-0.3,0.3-0.6,0.6-0.8c0.2-0.2,0.5-0.3,0.7-0.2c0.2,0.1,0.4,0.4,0.4,0.7c-0.1,0.6-0.2,1.2-0.4,1.8
			c0.4,0.2,0.8,0.5,1.2,0.7c0.6-0.5,1.2-1,1.8-1.6c0.3,0.2,0.5,0.4,0.8,0.6c-0.3,0.5-0.5,1-0.7,1.4c-0.3,0.4-0.4,0.8,0.1,1.2
			c0.5,0.4,0.8,0.5,1.3,0.1c0.4-0.3,0.9-0.5,1.4-0.7c0.2,0.2,0.4,0.5,0.7,0.8c-0.5,0.6-1,1.2-1.5,1.8c0.5,1.3,0.5,1.2,1.8,1
			c0.4-0.1,1-0.7,1.4,0.2c0.2,0.4,0.2,0.6-0.2,0.8c-0.3,0.1-0.6,0.4-0.9,0.5c-0.5,0.3-0.8,0.6-0.6,1.2c0.2,0.7,0.6,0.6,1.1,0.6
			c0.3,0,0.5,0,0.8,0c0.7,0,1,0.3,0.9,1.1c-0.5,0.2-1,0.4-1.5,0.5c-0.6,0.1-0.8,0.4-0.8,1c0,0.6,0.3,0.8,0.8,0.9
			c0.2,0.1,0.5,0.2,0.7,0.2c0.8,0.1,1,0.5,0.6,1.3c-0.5,0-1.1,0.1-1.7,0.1c-0.7,0-0.7,0.5-0.8,0.9c-0.2,0.5,0.1,0.7,0.4,0.8
			c0.2,0.1,0.5,0.3,0.7,0.4c0.7,0.3,0.9,0.8,0.3,1.5c-0.7-0.2-1.5-0.3-2.2-0.5c-0.8,1.2-0.8,1.2,0.1,2.2c0.2,0.2,0.4,0.3,0.4,0.5
			c0.1,0.2,0.1,0.6-0.1,0.8c-0.1,0.1-0.5,0.2-0.7,0.2c-0.6-0.2-1.2-0.6-1.7-0.9c-1.8,1-0.3,2,0,3.1c-0.4,0.6-0.8,0.8-1.4,0.1
			c-0.3-0.4-0.7-0.7-1.1-1.1c-0.4,0.2-0.8,0.4-1.2,0.7c0.1,0.5,0.1,1,0.3,1.5c0.3,0.8,0,1.2-0.8,1.2c-0.3-0.4-0.6-0.8-0.8-1.3
			c-0.3-0.6-0.7-0.7-1.3-0.5c-0.4,0.1-0.6,0.2-0.6,0.7C201,88.2,200.9,88.8,200.9,89.5z M200.5,74.7c0-1.2-0.9-2.1-2-2.1
			c-1.2,0-2.2,0.9-2.2,2c0,1.1,1,2.2,2.1,2.2C199.5,76.8,200.5,75.9,200.5,74.7z M203.7,67.1c-1.3-0.5-2.4-1-3.7-1.5
			c-0.1,1.5-0.2,2.8-0.4,4.1c-0.1,0.8,0.1,1.2,1,1.3C201.6,69.7,202.6,68.5,203.7,67.1z M193.1,82.3c1.2,0.5,2.4,1,3.6,1.5
			c0.2-1.8,0.4-3.4,0.5-5c-0.4-0.1-0.7-0.3-1-0.4C195.3,79.7,194.3,80.9,193.1,82.3z M193.1,67.1c1.1,1.3,2,2.5,3,3.7
			c0.1,0.1,0.5,0.1,0.7,0c0.2-0.1,0.4-0.3,0.4-0.5c-0.1-1.5-0.3-2.9-0.5-4.6C195.5,66.1,194.4,66.6,193.1,67.1z M190.9,69.5
			c-0.7,1.1-1.3,2.3-1.4,3.6c1.6,0.2,3.2,0.3,4.8,0.5c0.1-0.3,0.3-0.6,0.4-1C193.5,71.6,192.2,70.6,190.9,69.5z M190.8,80
			c1.2-1,2.3-1.9,3.4-2.7c0.4-0.3,0.5-0.5,0.3-1c-0.2-0.5-0.5-0.4-0.9-0.4c-0.5,0.1-0.9,0.1-1.4,0.2c-0.9,0.1-1.8,0.2-2.9,0.4
			C189.9,77.6,190.3,78.8,190.8,80z M207.5,76.4c-1.7-0.2-3.1-0.4-4.5-0.5c-0.2,0-0.5,0.3-0.6,0.5c-0.1,0.2-0.1,0.6,0.1,0.7
			c1.1,1,2.3,1.9,3.6,3C206.5,78.7,207,77.6,207.5,76.4z M199.6,78.8c0.2,1.6,0.3,3.2,0.5,4.9c1.2-0.5,2.4-1,3.6-1.5
			c-1.2-1.4-2.2-2.7-3.2-3.9C200.2,78.6,199.9,78.7,199.6,78.8z M206,69.4c-1.2,1-2.1,1.8-3.2,2.6c-0.7,0.5-0.7,1-0.2,1.6
			c1.5-0.2,3.1-0.3,4.9-0.5C207,71.8,206.5,70.7,206,69.4z"/>
		<path class="st2" d="M82.2,310.7c-0.3,0-0.5,0-0.8,0.1c-0.2-0.6-0.4-1.2-0.6-1.8c-1.1-0.1-1.1-0.1-1.7,1.8c-0.2,0-0.5,0-0.8-0.1
			c0-0.4-0.1-0.9-0.1-1.3c0-0.5-0.1-0.7-0.6-0.8c-0.5-0.1-0.7,0.1-0.9,0.5c-0.2,0.3-0.4,0.6-0.6,1c-0.3-0.1-0.5-0.2-0.8-0.3
			c0.1-0.3,0.1-0.7,0.2-1c0.1-0.3,0.1-0.6,0.2-0.9c-0.3-0.2-0.6-0.4-1-0.6c-0.5,0.4-0.9,0.8-1.4,1.3c-0.7-0.2-0.8-0.6-0.4-1.1
			c0.2-0.3,0.4-0.7,0.6-1.1c-0.3-0.2-0.6-0.4-0.9-0.7c-0.2,0.1-0.6,0.3-0.9,0.5c-0.5,0.4-0.9,0.3-1.1-0.4c0.4-0.4,0.8-0.9,1.2-1.4
			c-0.2-0.3-0.4-0.6-0.6-1c-0.6,0.1-1.2,0.3-1.9,0.4c-0.1-0.2-0.2-0.5-0.4-0.8c0.4-0.3,0.8-0.5,1.2-0.7c0.3-0.2,0.5-0.3,0.4-0.7
			c-0.1-0.4-0.2-0.7-0.7-0.7c-0.4,0-0.9,0-1.4-0.1c0-0.3-0.1-0.5-0.1-0.8c0.6-0.2,1.2-0.4,1.8-0.6c0-0.3,0-0.7,0-1.1
			c-0.6-0.2-1.1-0.4-1.8-0.6c0-0.3,0.1-0.5,0.1-0.8c0.7,0,1.3-0.1,1.9-0.1c0.9-1.5-0.7-1.5-1.2-2.1c0.1-0.6,0.3-0.9,0.9-0.6
			c0.1,0,0.1,0,0.2,0c1.3,0.2,0.9,0.4,1.6-0.8c-0.4-0.5-0.8-0.9-1.3-1.4c0.2-0.2,0.3-0.4,0.5-0.7c0.3,0.2,0.6,0.3,0.8,0.4
			c1,0.5,1,0.5,1.7-0.4c-0.3-0.5-0.6-1.1-0.8-1.6c0.4-0.6,0.7-0.6,1.2-0.1c0.2,0.3,0.6,0.5,0.9,0.8c0.3-0.2,0.7-0.4,1-0.6
			c-0.1-0.6-0.3-1.2-0.4-1.8c0.4-0.3,0.8-0.5,1.1,0.2c0.1,0.2,0.3,0.4,0.4,0.6c0.2,0.4,0.4,0.5,0.9,0.4c0.5-0.1,0.6-0.4,0.6-0.8
			c0-0.4,0-0.8,0-1.2c0.3-0.1,0.5-0.1,0.8-0.2c0.2,0.5,0.4,1,0.5,1.5c0.1,0.4,0.4,0.4,0.7,0.4c0.3,0,0.6,0,0.7-0.4
			c0.1-0.4,0.2-0.7,0.3-1c0.1-0.2,0.3-0.4,0.5-0.3c0.2,0,0.4,0.3,0.4,0.4c0.1,0.2,0.1,0.5,0.1,0.8c0,0.5,0.1,0.8,0.6,0.9
			c0.5,0.1,0.7-0.1,0.9-0.5c0.1-0.2,0.3-0.5,0.4-0.7c0.1-0.1,0.4-0.2,0.6-0.2c0.1,0.1,0.3,0.4,0.3,0.5c-0.1,0.5-0.2,1-0.3,1.5
			c0.3,0.2,0.6,0.4,1,0.6c0.5-0.4,0.9-0.8,1.4-1.3c0.2,0.2,0.4,0.3,0.7,0.5c-0.2,0.4-0.4,0.8-0.6,1.1c-0.2,0.4-0.3,0.6,0.1,1
			c0.4,0.4,0.6,0.4,1,0.1c0.3-0.2,0.7-0.4,1.1-0.6c0.2,0.2,0.3,0.4,0.5,0.6c-0.4,0.5-0.8,1-1.2,1.4c0.4,1,0.4,1,1.5,0.8
			c0.3-0.1,0.8-0.5,1.1,0.1c0.1,0.3,0.2,0.5-0.2,0.7c-0.2,0.1-0.5,0.3-0.7,0.4c-0.4,0.2-0.6,0.5-0.5,1c0.2,0.6,0.5,0.5,0.9,0.5
			c0.2,0,0.4,0,0.6,0c0.6,0,0.8,0.3,0.7,0.9c-0.4,0.1-0.8,0.3-1.2,0.4c-0.4,0.1-0.6,0.3-0.6,0.8c0,0.5,0.2,0.7,0.7,0.8
			c0.2,0,0.4,0.1,0.6,0.2c0.6,0.1,0.8,0.4,0.5,1c-0.4,0-0.9,0.1-1.4,0.1c-0.6,0-0.5,0.4-0.7,0.7c-0.1,0.4,0.1,0.5,0.3,0.7
			c0.2,0.1,0.4,0.3,0.6,0.4c0.6,0.3,0.7,0.6,0.2,1.2c-0.6-0.1-1.2-0.3-1.8-0.4c-0.6,0.9-0.6,0.9,0.1,1.7c0.1,0.1,0.3,0.2,0.4,0.4
			c0.1,0.2,0.1,0.5,0,0.6c-0.1,0.1-0.4,0.2-0.5,0.1c-0.5-0.2-0.9-0.5-1.4-0.7c-1.5,0.8-0.2,1.6,0,2.5c-0.3,0.5-0.7,0.7-1.1,0.1
			c-0.3-0.3-0.6-0.6-0.9-0.8c-0.3,0.2-0.6,0.4-1,0.6c0.1,0.4,0.1,0.8,0.2,1.2c0.2,0.6,0,0.9-0.7,1c-0.2-0.3-0.5-0.7-0.6-1
			c-0.2-0.5-0.5-0.6-1-0.4c-0.3,0.1-0.4,0.2-0.4,0.5C82.3,309.6,82.3,310.1,82.2,310.7z M81.9,298.8c0-1-0.7-1.7-1.6-1.7
			c-1,0-1.8,0.7-1.8,1.7c0,0.9,0.8,1.8,1.7,1.8C81.1,300.4,81.9,299.7,81.9,298.8z M84.5,292.6c-1-0.4-2-0.8-3-1.2
			c-0.1,1.2-0.2,2.3-0.3,3.3c-0.1,0.7,0.1,1,0.8,1C82.8,294.7,83.6,293.7,84.5,292.6z M76,304.9c1,0.4,1.9,0.8,2.9,1.2
			c0.2-1.5,0.3-2.8,0.4-4c-0.3-0.1-0.6-0.2-0.8-0.3C77.7,302.7,76.9,303.7,76,304.9z M76,292.6c0.9,1.1,1.6,2,2.4,3
			c0.1,0.1,0.4,0,0.6,0c0.1-0.1,0.3-0.3,0.3-0.4c-0.1-1.2-0.2-2.4-0.4-3.7C77.9,291.8,77,292.2,76,292.6z M74.2,294.5
			c-0.6,0.9-1,1.8-1.1,2.9c1.3,0.1,2.6,0.3,3.8,0.4c0.1-0.3,0.2-0.5,0.3-0.8C76.2,296.2,75.2,295.4,74.2,294.5z M74.1,303
			c1-0.8,1.9-1.5,2.7-2.2c0.3-0.2,0.4-0.4,0.2-0.8c-0.2-0.4-0.4-0.4-0.7-0.3c-0.4,0-0.8,0.1-1.1,0.1c-0.7,0.1-1.5,0.2-2.4,0.3
			C73.3,301.1,73.7,302,74.1,303z M87.6,300.1c-1.4-0.2-2.5-0.3-3.7-0.4c-0.2,0-0.4,0.2-0.5,0.4c-0.1,0.1-0.1,0.5,0.1,0.6
			c0.9,0.8,1.8,1.5,2.9,2.4C86.8,302,87.2,301.1,87.6,300.1z M81.2,302.1c0.1,1.3,0.3,2.6,0.4,4c1-0.4,1.9-0.8,2.9-1.2
			c-0.9-1.1-1.8-2.2-2.6-3.1C81.6,301.8,81.4,301.9,81.2,302.1z M86.4,294.4c-1,0.8-1.7,1.5-2.6,2.1c-0.6,0.4-0.6,0.8-0.2,1.3
			c1.2-0.1,2.5-0.3,3.9-0.4C87.2,296.4,86.8,295.5,86.4,294.4z"/>
		<path class="st2" d="M275,221.7c-0.2-1.2-0.2-1-1.3-1c-0.6,0-0.9-0.1-0.7-0.8c0.2-0.1,0.5-0.2,0.8-0.2c0.3-0.1,0.5-0.2,0.7-0.3
			c0.1-1,0.1-1-0.8-1.3c-0.2-0.1-0.4-0.1-0.5-0.2c-0.1-0.1-0.2-0.3-0.2-0.5c0-0.1,0.2-0.3,0.3-0.4c0.2-0.1,0.5-0.1,0.7-0.1
			c0.2,0,0.5,0,0.7,0c0.1-0.2,0.1-0.4,0.2-0.5c0-0.2,0.1-0.3,0.1-0.5c-0.5-0.3-1-0.6-1.4-0.9c0.1-0.6,0.3-0.8,0.9-0.6
			c0.2,0.1,0.4,0.1,0.5,0.1c0.3,0.1,0.6,0.2,0.8-0.3c0.2-0.4,0.3-0.6-0.1-1c-0.3-0.2-0.5-0.5-0.8-0.8c0.1-0.2,0.3-0.4,0.4-0.6
			c0.3,0.1,0.5,0.2,0.7,0.4c0.9,0.4,0.9,0.4,1.6-0.3c-0.2-0.3-0.3-0.7-0.5-1c-0.4-0.5-0.3-0.8,0.3-1c0.4,0.4,0.8,0.8,1.3,1.1
			c0.9-0.5,0.9-0.5,0.7-1.4c0-0.1-0.1-0.3-0.1-0.4c0-0.2,0.1-0.5,0.3-0.6c0.1-0.1,0.5,0.1,0.6,0.2c0.3,0.3,0.5,0.7,0.7,1.1
			c0.3-0.3,1,0.1,1-0.7c0-0.4,0-0.9,0-1.3c0.3-0.1,0.5-0.1,0.8-0.1c0.2,0.5,0.3,0.9,0.4,1.3c0.1,0.4,0.4,0.4,0.7,0.4
			c0.3,0,0.6,0,0.7-0.4c0.1-0.4,0.3-0.9,0.4-1.3c0.2,0,0.5,0.1,0.8,0.1c0,0.4,0,0.8,0,1.2c0,0.4,0.2,0.6,0.6,0.7
			c0.4,0.1,0.6,0,0.8-0.3c0.1-0.3,0.3-0.5,0.5-0.7c0.1-0.1,0.4-0.2,0.6-0.1c0.1,0,0.2,0.3,0.3,0.4c0,0.2-0.1,0.3-0.1,0.5
			c-0.2,0.9-0.2,0.9,0.7,1.4c0.4-0.4,0.8-0.8,1.3-1.1c0.6,0.2,0.7,0.5,0.3,1c-0.2,0.3-0.3,0.6-0.5,1c0.4,0.1,0.4,0.9,1.1,0.6
			c0.4-0.2,0.8-0.4,1.2-0.6c0.2,0.2,0.3,0.4,0.5,0.6c-0.3,0.3-0.5,0.6-0.7,0.8c-0.3,0.3-0.5,0.5-0.2,1c0.3,0.5,0.5,0.4,0.9,0.3
			c0.3-0.1,0.7-0.1,1.1-0.2c0.1,0.2,0.2,0.4,0.3,0.7c-0.3,0.2-0.5,0.3-0.8,0.5c-0.2,0.1-0.4,0.3-0.7,0.5c0.1,0.3,0.2,0.6,0.3,1
			c0.5,0,0.9,0,1.3,0.1c0.2,0,0.4,0.2,0.5,0.4c0,0.2-0.2,0.4-0.3,0.5c-0.4,0.2-0.8,0.3-1.2,0.4c0,0.4,0,0.7,0,1.1
			c0.4,0.1,0.9,0.2,1.3,0.4c0.2,0.1,0.3,0.3,0.3,0.5c0,0.1-0.3,0.3-0.4,0.4c-0.1,0.1-0.2,0-0.4,0c-1.2,0.1-0.9-0.1-1.3,1.1
			c0.5,0.3,1,0.6,1.5,1c-0.1,0.2-0.2,0.4-0.3,0.7c-0.6-0.1-1.1-0.2-1.7-0.4c-0.6,0.8-0.6,0.8,0.6,2.2c-0.1,0.2-0.3,0.4-0.5,0.6
			c-0.5-0.3-1-0.5-1.5-0.8c-0.2,0.2-0.5,0.5-0.8,0.7c0.3,0.5,0.5,1,0.8,1.5c-0.4,0.7-0.5,0.7-1,0.1c-0.3-0.2-0.5-0.5-0.8-0.7
			c-1,0.4-1,0.4-0.7,1.4c0,0.2,0.1,0.3,0.1,0.5c0,0.2-0.1,0.4-0.3,0.4c-0.1,0.1-0.4,0-0.5-0.1c-0.2-0.2-0.3-0.4-0.4-0.7
			c-0.2-0.5-0.5-0.5-1-0.4c-0.5,0.1-0.4,0.5-0.4,0.8c0,0.3,0,0.7,0,1.1c-0.3,0-0.5,0.1-0.8,0.1c-0.1-0.4-0.2-0.7-0.3-1
			c-0.1-0.4-0.2-0.7-0.7-0.7c-0.5,0-0.6,0.2-0.7,0.6c-0.1,0.3-0.2,0.7-0.3,1c-0.2,0-0.5,0-0.8-0.1c0-0.4,0-0.8,0-1.1
			c0-0.3,0.1-0.6-0.4-0.7c-0.4-0.1-0.7-0.1-1,0.3c-0.2,0.3-0.4,0.6-0.6,1c-0.2-0.1-0.4-0.2-0.7-0.3c0-0.3,0.1-0.5,0.1-0.7
			c0.2-1,0.2-1-0.7-1.6c-0.3,0.3-0.6,0.5-0.8,0.8c-0.4,0.4-0.7,0.4-1-0.1c0.2-0.5,0.5-1,0.8-1.5c-0.2-0.2-0.5-0.5-0.7-0.7
			c-0.5,0.3-1,0.5-1.5,0.8c-0.2-0.2-0.3-0.4-0.5-0.6c0.4-0.5,0.8-0.9,1.2-1.3c-0.2-0.3-0.3-0.6-0.5-0.9c-0.6,0.1-1.1,0.2-1.6,0.4
			c-0.5-0.6-0.5-0.6,0.1-1C274.4,222.2,274.7,222,275,221.7C275,221.8,275,221.8,275,221.7z M288.7,223.8c-1.2-1.1-2.4-2.2-3.6-3.3
			c-0.8,0.6-1.7,0.5-2.3,0.1c-1.3,1.1-2.5,2.2-3.7,3.2C281.6,226.4,286.3,226.4,288.7,223.8z M285.9,212.3c-0.4,1.5-0.8,2.9-1.2,4.4
			c0,0.1,0.2,0.3,0.3,0.5c0.3,0.4,0.7,0.9,0.9,1.4c0.1,0.3,0.2,0.5,0.6,0.6c0.2,0,0.4,0.1,0.6,0.2c1.2,0.3,2.4,0.6,3.6,0.9
			C291.5,216.7,289,213,285.9,212.3z M277.2,220.2c1.5-0.4,3-0.8,4.4-1.2c0.1,0,0.3-0.2,0.3-0.3c0.1-0.7,0.4-1.2,1-1.6
			c0.1-0.1,0.2-0.3,0.2-0.4c-0.4-1.5-0.8-2.9-1.2-4.4C278.7,213,276.4,216.9,277.2,220.2z M283.9,217.8c-0.6,0-1.1,0.5-1.1,1.1
			c0,0.6,0.5,1.1,1.1,1.1c0.6,0,1-0.5,1-1C285,218.3,284.5,217.8,283.9,217.8z"/>
		<path class="st2" d="M93.6,329.8c-0.7-3.3-0.4-2.6-3.5-2.7c-1.5,0-2.4-0.3-1.8-2.2c0.6-0.2,1.3-0.4,2-0.6c0.7-0.2,1.3-0.5,2-0.7
			c0.4-2.7,0.4-2.7-2.1-3.5c-0.5-0.1-1-0.2-1.4-0.5c-0.3-0.3-0.6-0.9-0.6-1.3c0-0.3,0.5-0.8,0.8-0.9c0.6-0.2,1.3-0.1,1.9-0.2
			c0.6,0,1.2,0,1.9,0c0.2-0.5,0.3-1,0.5-1.4c0.1-0.4,0.2-0.8,0.3-1.3c-1.3-0.8-2.6-1.7-3.8-2.5c0.2-1.5,0.8-2.2,2.3-1.5
			c0.4,0.2,1,0.2,1.4,0.3c0.9,0.2,1.6,0.4,2.1-0.7c0.5-1,0.8-1.7-0.2-2.5c-0.8-0.6-1.4-1.4-2.1-2.2c0.4-0.5,0.7-1,1.2-1.7
			c0.7,0.3,1.3,0.6,1.9,1c2.3,1.2,2.3,1.2,4.2-0.8c-0.4-0.8-0.8-1.7-1.3-2.5c-0.9-1.3-0.7-2.2,0.9-2.7c1.1,1,2.2,2,3.3,3
			c2.5-1.3,2.5-1.3,1.9-3.8c-0.1-0.3-0.3-0.7-0.2-0.9c0.1-0.5,0.3-1.3,0.7-1.5c0.4-0.2,1.2,0.2,1.5,0.6c0.7,0.9,1.3,1.9,1.9,3
			c0.9-0.8,2.6,0.2,2.7-1.7c0-1.1,0-2.3,0-3.6c0.8-0.1,1.4-0.3,2.1-0.4c0.4,1.3,0.9,2.4,1.1,3.5c0.2,1.1,0.9,1,1.7,1
			c0.8,0,1.5,0.1,1.7-1c0.2-1.2,0.7-2.3,1.1-3.5c0.7,0.1,1.2,0.2,2.1,0.4c0,1,0.1,2.1,0,3.1c-0.1,1.2,0.4,1.5,1.5,1.9
			c1.1,0.3,1.6,0,2.1-0.8c0.4-0.7,0.7-1.4,1.2-1.9c0.3-0.3,1-0.5,1.5-0.4c0.3,0.1,0.6,0.7,0.7,1.2c0.1,0.4-0.2,0.8-0.3,1.3
			c-0.6,2.5-0.6,2.5,2,3.8c1.1-1,2.2-2,3.3-3c1.5,0.6,1.8,1.4,0.8,2.7c-0.5,0.7-0.9,1.6-1.3,2.6c1,0.4,1.1,2.3,2.8,1.5
			c1.1-0.5,2.1-1.1,3.3-1.7c0.4,0.5,0.8,1,1.2,1.6c-0.7,0.7-1.3,1.5-1.9,2.1c-0.8,0.8-1.3,1.4-0.5,2.6c0.7,1.2,1.4,1,2.4,0.8
			c0.9-0.2,1.8-0.4,2.8-0.6c0.3,0.6,0.6,1.2,0.9,1.8c-0.7,0.5-1.4,0.9-2,1.3c-0.6,0.4-1.2,0.8-1.9,1.3c0.2,0.8,0.5,1.7,0.7,2.6
			c1.2,0.1,2.4,0,3.5,0.2c0.5,0.1,1.2,0.6,1.2,1c0.1,0.4-0.4,1.1-0.9,1.3c-1,0.5-2.2,0.7-3.3,1.1c0,0.9,0,1.8,0,2.8
			c1.1,0.4,2.3,0.6,3.3,1.1c0.4,0.2,0.8,0.9,0.8,1.4c0,0.3-0.7,0.7-1.1,0.9c-0.3,0.1-0.6,0-1,0.1c-3.2,0.2-2.5-0.2-3.3,2.8
			c1.3,0.8,2.6,1.7,3.9,2.6c-0.3,0.6-0.5,1.2-0.8,1.8c-1.5-0.3-2.9-0.6-4.4-0.9c-1.6,2.1-1.6,2.1,1.6,5.8c-0.4,0.5-0.8,1-1.2,1.6
			c-1.3-0.7-2.6-1.4-4.1-2.1c-0.6,0.6-1.3,1.2-2,1.9c0.7,1.3,1.3,2.6,2,3.9c-1.2,1.8-1.3,1.8-2.8,0.4c-0.7-0.6-1.4-1.3-2-1.9
			c-2.6,1.1-2.6,1.1-2,3.8c0.1,0.4,0.3,0.9,0.2,1.3c-0.1,0.4-0.4,0.9-0.7,1.1c-0.4,0.2-1,0-1.3-0.2c-0.5-0.5-0.9-1.1-1.2-1.8
			c-0.6-1.4-1.4-1.4-2.7-1.1c-1.4,0.3-0.9,1.3-1,2c-0.1,0.9,0,1.8,0,2.9c-0.8,0.1-1.4,0.1-2.1,0.2c-0.3-1-0.6-1.8-0.9-2.7
			c-0.3-1-0.5-1.7-1.9-1.7c-1.3,0-1.7,0.6-1.9,1.7c-0.2,0.9-0.5,1.8-0.9,2.8c-0.7,0-1.3-0.1-2.2-0.1c0-1.1,0-2,0-3
			c0-0.8,0.3-1.7-1.1-2c-1.1-0.2-1.9-0.4-2.5,0.9c-0.4,0.9-1,1.6-1.7,2.6c-0.6-0.2-1.2-0.5-1.8-0.7c0.1-0.7,0.2-1.3,0.3-1.8
			c0.6-2.7,0.6-2.7-1.7-4.1c-0.7,0.7-1.5,1.3-2.2,2.1c-1,1.2-1.9,1.1-2.8-0.3c0.6-1.2,1.3-2.6,2-3.9c-0.7-0.6-1.3-1.2-2-1.9
			c-1.3,0.7-2.7,1.4-4.1,2.1c-0.4-0.5-0.8-1-1.3-1.5c1.1-1.2,2.1-2.3,3.1-3.5c-0.5-0.8-0.9-1.5-1.3-2.4c-1.5,0.3-2.9,0.6-4.3,0.9
			c-1.3-1.7-1.3-1.7,0.4-2.8c0.7-0.5,1.5-0.9,2.2-1.4C93.5,330,93.5,329.9,93.6,329.8z M129.6,335.1c-3.1-2.9-6.2-5.7-9.4-8.6
			c-2,1.6-4.4,1.2-6,0.3c-3.4,3-6.5,5.7-9.6,8.5C110.9,341.9,123.1,341.9,129.6,335.1z M122.1,304.9c-1,3.9-2.1,7.7-3.1,11.6
			c-0.1,0.3,0.5,0.8,0.8,1.2c0.8,1.2,1.8,2.3,2.3,3.6c0.3,0.9,0.6,1.4,1.5,1.5c0.5,0.1,1,0.3,1.6,0.5c3.1,0.8,6.3,1.7,9.4,2.5
			C137,316.4,130.4,306.8,122.1,304.9z M99.3,325.8c4-1.1,7.9-2.1,11.7-3.2c0.3-0.1,0.7-0.6,0.7-0.9c0.2-1.9,1.2-3.2,2.7-4.2
			c0.3-0.2,0.6-0.7,0.5-1c-1-3.9-2-7.7-3.1-11.6C103.3,306.7,97.1,317,99.3,325.8z M117,319.4c-1.6,0-2.8,1.3-2.8,2.8
			c0,1.5,1.4,2.8,2.9,2.8c1.5-0.1,2.7-1.3,2.7-2.8C119.8,320.7,118.6,319.4,117,319.4z"/>
		<path class="st2" d="M338.8,165.5c-1.1,0.8-2.1,1.6-3.2,2.4c0,0.2,0.1,0.3,0.1,0.5c1.4-0.2,2.7-0.5,4.1-0.7
			c0.1,0.2,0.2,0.4,0.3,0.6c-1.1,0.7-2.2,1.5-3.3,2.2c0,0.2,0,0.3,0.1,0.5c1.3-0.1,2.7-0.3,4-0.4c0.1,0.2,0.2,0.4,0.2,0.6
			c-1.2,0.7-2.3,1.3-3.5,2c0,0.2,0,0.3,0.1,0.5c1.4,0,2.7,0,4.1,0c0,0.2,0.1,0.4,0.1,0.7c-1.2,0.5-2.4,1-3.6,1.5c0,0.2,0,0.3,0,0.5
			c1.3,0.1,2.7,0.2,4,0.4c0,0.2,0,0.5,0,0.7c-1.3,0.4-2.6,0.8-3.9,1.2c0,0.2,0,0.4,0,0.5c1.3,0.2,2.6,0.4,3.9,0.6c0,0.2,0,0.4,0,0.7
			c-1.3,0.3-2.6,0.6-4.6,1.1c1.9,0.6,3.2,0.9,4.5,1.3c0,0.2,0,0.4,0,0.7c-1.3,0.1-2.6,0.3-3.9,0.4c-0.1,0.2-0.1,0.3-0.2,0.5
			c1.2,0.5,2.5,1,3.7,1.5c0,0.2-0.1,0.4-0.1,0.6c-1.3,0-2.6,0-3.9,0c-0.1,0.2-0.1,0.4-0.2,0.6c1.2,0.6,2.3,1.2,3.5,1.7
			c-0.1,0.2-0.1,0.5-0.2,0.7c-1.3-0.1-2.7-0.3-4-0.4c-0.1,0.1-0.2,0.3-0.2,0.4c1.1,0.7,2.3,1.5,3.4,2.2c-0.1,0.2-0.2,0.4-0.3,0.7
			c-1.3-0.3-2.6-0.5-4-0.8c-0.1,0.1-0.1,0.3-0.2,0.4c1,0.9,2.1,1.8,3.1,2.6c-0.1,0.2-0.2,0.4-0.4,0.6c-1.3-0.4-2.5-0.8-3.8-1.2
			c-0.1,0.1-0.2,0.3-0.3,0.4c1,0.9,1.9,1.8,2.9,2.7c-0.1,0.2-0.2,0.5-0.3,0.7c-1.3-0.5-2.5-1-3.8-1.4c-0.1,0.1-0.2,0.2-0.3,0.3
			c0.9,1,1.7,2,2.6,3c-0.1,0.2-0.2,0.4-0.4,0.7c-1.2-0.6-2.4-1.3-3.6-1.9c-0.1,0.1-0.3,0.2-0.4,0.3c0.8,1.1,1.5,2.2,2.3,3.4
			c-0.2,0.2-0.3,0.3-0.5,0.5c-1.1-0.7-2.3-1.5-3.4-2.2c-0.1,0.1-0.2,0.2-0.4,0.3c0.7,1.1,1.3,2.3,2,3.4c-0.2,0.2-0.4,0.4-0.5,0.6
			c-1-0.9-2.1-1.7-3.1-2.6c-0.2,0.1-0.3,0.2-0.5,0.3c0.6,1.2,1.1,2.5,1.7,3.7c-0.2,0.1-0.4,0.3-0.5,0.4c-1-1-2-1.9-3-2.9
			c-0.1,0.1-0.2,0.1-0.3,0.2c0.4,1.3,0.8,2.6,1.2,3.9c-0.2,0.1-0.4,0.2-0.6,0.3c-0.8-1.1-1.7-2.1-2.5-3.2c-0.1,0.1-0.3,0.1-0.4,0.2
			c0.2,1.3,0.5,2.7,0.7,4c-0.2,0.1-0.4,0.1-0.6,0.2c-0.7-1.1-1.4-2.3-2.1-3.4c-0.2,0-0.3,0-0.5,0.1c0.2,1.4,0.3,2.8,0.5,4.1
			c-0.2,0.1-0.5,0.1-0.7,0.2c-0.3-0.6-0.6-1.2-0.9-1.8c-0.3-0.6-0.6-1.2-0.9-1.9c-0.2,0-0.4,0.1-0.6,0.1c0.1,1.3,0.1,2.6,0.2,3.9
			c-0.2,0.1-0.5,0.2-0.7,0.3c-0.5-1.2-1.1-2.5-1.6-3.7c-0.1,0-0.3,0-0.4,0c-0.1,1.3-0.2,2.6-0.3,4c-0.2,0-0.4,0.1-0.6,0.1
			c-0.4-1.3-0.9-2.5-1.3-3.8c-0.1,0-0.3,0-0.4,0c-0.2,1.3-0.5,2.6-0.7,3.9c-0.2,0-0.4,0-0.7,0c-0.3-1.3-0.6-2.6-1-4.5
			c-0.6,1.8-1.1,3.1-1.5,4.3c-0.2,0-0.4-0.1-0.6-0.1c-0.1-1.3-0.2-2.6-0.3-3.9c-0.2,0-0.3-0.1-0.5-0.1c-0.5,1.2-1,2.4-1.5,3.7
			c-0.2,0-0.3,0-0.5-0.1c0-1.3,0-2.7,0-4c-0.2-0.1-0.4-0.1-0.6-0.2c-0.6,1.2-1.2,2.4-1.9,3.6c-0.2,0-0.4-0.1-0.6-0.1
			c0.1-1.4,0.2-2.7,0.3-4.1c-0.1-0.1-0.3-0.1-0.4-0.2c-0.7,1.2-1.4,2.3-2.2,3.5c-0.2-0.1-0.5-0.2-0.7-0.3c0.3-1.3,0.5-2.6,0.8-4
			c-0.1-0.1-0.3-0.2-0.4-0.3c-0.8,1.1-1.7,2.1-2.5,3.2c-0.2-0.1-0.4-0.2-0.6-0.3c0.4-1.3,0.8-2.7,1.1-4c-0.3-0.2-0.6-0.5-0.9-0.7
			c-0.7,1.2-1.4,2.5-2.1,3.7c-0.3-0.2-0.6-0.5-0.9-0.7c0.5-1.2,1.1-2.4,1.6-3.6c-0.1-0.1-0.2-0.2-0.3-0.4c-1,0.9-2.1,1.7-3.1,2.6
			c-0.2-0.1-0.4-0.3-0.6-0.4c0.6-1.2,1.3-2.4,1.9-3.5c-0.1-0.1-0.2-0.3-0.3-0.4c-1.2,0.8-2.3,1.5-3.5,2.3c-0.2-0.2-0.3-0.4-0.5-0.6
			c0.8-1.1,1.6-2.1,2.4-3.2c-0.1-0.1-0.2-0.3-0.3-0.4c-1.3,0.6-2.5,1.3-3.8,1.9c-0.1-0.2-0.3-0.4-0.4-0.6c0.9-1,1.8-2,2.7-3
			c-0.1-0.1-0.2-0.3-0.3-0.4c-1.3,0.5-2.6,1-3.9,1.5c-0.1-0.2-0.2-0.4-0.3-0.6c1-0.9,1.9-1.8,2.9-2.7c-0.1-0.1-0.1-0.3-0.2-0.4
			c-1.3,0.4-2.6,0.8-3.9,1.2c-0.1-0.2-0.2-0.4-0.3-0.6c1-0.8,2-1.7,3.1-2.5c-0.1-0.2-0.1-0.3-0.2-0.5c-1.3,0.3-2.7,0.6-4,0.9
			c-0.1-0.2-0.2-0.4-0.3-0.6c1.1-0.8,2.2-1.5,3.3-2.3c-0.1-0.1-0.1-0.3-0.2-0.4c-1.3,0.2-2.5,0.3-3.8,0.5c-0.1-0.2-0.2-0.5-0.3-0.7
			c1.2-0.6,2.3-1.2,3.5-1.8c0-0.2,0-0.3,0-0.5c-1.3,0-2.7,0-4,0c-0.1-0.2-0.1-0.5-0.2-0.7c1.2-0.5,2.4-1,3.6-1.5c0-0.2,0-0.3,0-0.5
			c-1.3-0.1-2.6-0.3-4-0.4c0-0.2,0-0.5-0.1-0.7c1.3-0.4,2.6-0.8,4-1.2c0-0.1,0-0.3,0-0.4c-1.3-0.3-2.6-0.5-3.9-0.8
			c0-0.2,0-0.5,0-0.7c1.3-0.2,2.5-0.5,3.8-0.7c0-0.2,0.1-0.3,0.1-0.5c-1.3-0.4-2.6-0.8-3.9-1.1c0-0.2,0-0.5,0-0.7
			c1.3-0.2,2.7-0.3,4-0.5c0-0.2,0.1-0.3,0.1-0.5c-1.2-0.5-2.4-1-3.6-1.5c0-0.2,0-0.3,0.1-0.5c1.3,0,2.6,0,3.9,0
			c0.1-0.2,0.1-0.4,0.2-0.6c-1.2-0.6-2.3-1.3-3.5-1.9c0.1-0.2,0.1-0.4,0.2-0.6c1.3,0.1,2.6,0.3,3.9,0.4c0.1-0.2,0.2-0.3,0.2-0.5
			c-1.1-0.7-2.3-1.5-3.4-2.2c0.1-0.2,0.2-0.4,0.2-0.6c1.3,0.3,2.6,0.5,4,0.8c0.1-0.1,0.1-0.3,0.2-0.4c-1-0.8-2.1-1.6-3.1-2.4
			c0.1-0.2,0.2-0.5,0.2-0.7c1.3,0.4,2.6,0.8,3.9,1.2c0.2-0.3,0.4-0.5,0.6-0.8c-1.2-0.7-2.4-1.4-3.6-2.1c0.2-0.3,0.5-0.6,0.7-0.9
			c1.3,0.5,2.5,1,3.8,1.6c0.1-0.1,0.2-0.2,0.2-0.4c-0.9-1-1.8-2.1-2.6-3.1c0.2-0.2,0.3-0.4,0.5-0.6c1.2,0.7,2.4,1.3,3.6,2
			c0.1-0.1,0.2-0.2,0.3-0.4c-0.8-1.2-1.5-2.3-2.3-3.5c0.2-0.1,0.3-0.3,0.5-0.4c1.1,0.8,2.2,1.5,3.3,2.3c0.1-0.1,0.3-0.2,0.4-0.3
			c-0.7-1.2-1.3-2.3-2-3.5c0.2-0.2,0.4-0.3,0.5-0.5c1.1,0.8,2.1,1.7,3.2,2.5c0.1-0.1,0.3-0.2,0.4-0.3c-0.6-1.2-1.1-2.5-1.7-3.7
			c0.3-0.2,0.5-0.4,0.8-0.6c0.7,1.2,1.4,2.4,2.1,3.6c0.3-0.2,0.6-0.5,0.9-0.7c-0.4-1.3-0.8-2.7-1.2-4c0.2-0.1,0.4-0.2,0.6-0.3
			c0.8,1,1.6,2.1,2.4,3.1c0.2-0.1,0.3-0.1,0.5-0.2c-0.3-1.3-0.5-2.5-0.8-3.8c0.2-0.1,0.4-0.3,0.5-0.4c0.8,1.1,1.6,2.2,2.4,3.2
			c0.1,0,0.3-0.1,0.4-0.1c-0.2-1.3-0.3-2.6-0.5-3.9c0.2-0.1,0.4-0.2,0.6-0.3c0.6,1.2,1.3,2.3,1.9,3.5c0.2,0,0.3,0,0.5,0
			c0-1.3,0-2.7,0-4c0.2,0,0.5-0.1,0.7-0.1c0.3,0.6,0.5,1.2,0.8,1.9c0.2,0.6,0.4,1.2,0.6,1.8c0.2,0,0.4,0,0.6,0
			c0.1-1.3,0.2-2.6,0.3-3.9c0.2,0,0.4-0.1,0.7-0.1c0.4,1.3,0.8,2.5,1.3,3.8c0.1,0,0.3,0,0.4,0c0.3-1.3,0.5-2.6,0.8-3.9
			c0.2,0,0.5-0.1,0.7-0.1c0.2,1.3,0.5,2.6,0.7,3.9c0.1,0,0.3,0,0.4,0.1c0.4-1.3,0.8-2.5,1.2-3.8c0.2,0,0.5,0.1,0.7,0.1
			c0.1,1.3,0.2,2.6,0.3,3.9c0.1,0,0.3,0,0.4,0.1c0.6-1.2,1.1-2.4,1.7-3.6c0.2,0.1,0.5,0.1,0.7,0.2c-0.1,1.3-0.1,2.6-0.2,3.9
			c0.2,0.1,0.3,0.1,0.5,0.2c0.6-1.2,1.2-2.4,1.7-3.6c0.2,0,0.5,0,0.7,0.1c-0.1,1.4-0.2,2.7-0.3,4.1c0.1,0.1,0.3,0.2,0.4,0.2
			c0.7-1.1,1.4-2.3,2.2-3.4c0.2,0.1,0.5,0.2,0.7,0.2c-0.2,1.3-0.5,2.7-0.7,4c0.1,0.1,0.2,0.1,0.3,0.2c0.9-1.1,1.7-2.1,2.6-3.2
			c0.2,0.1,0.4,0.2,0.6,0.4c-0.4,1.3-0.8,2.6-1.3,3.9c0.1,0.1,0.3,0.2,0.4,0.2c1-1,2-1.9,3-2.9c0.2,0.1,0.4,0.3,0.5,0.4
			c-0.6,1.2-1.1,2.4-1.7,3.6c0.1,0.1,0.3,0.3,0.4,0.4c1-0.9,2-1.8,3-2.7c0.2,0.2,0.4,0.3,0.6,0.5c-0.6,1.2-1.3,2.4-1.9,3.5
			c0.1,0.1,0.2,0.3,0.3,0.4c1.1-0.8,2.2-1.5,3.4-2.3c0.2,0.2,0.4,0.3,0.6,0.5c-0.8,1.1-1.5,2.2-2.3,3.3c0.1,0.1,0.2,0.3,0.3,0.4
			c1.2-0.7,2.3-1.3,3.5-2c0.2,0.2,0.3,0.4,0.5,0.5c-0.9,1.1-1.7,2.1-2.6,3.2c0.1,0.1,0.1,0.2,0.2,0.3c1.3-0.5,2.6-1,3.9-1.5
			c0.1,0.2,0.2,0.5,0.3,0.7c-1,0.8-1.9,1.7-2.9,2.5c0.1,0.2,0.2,0.3,0.3,0.5c1.3-0.4,2.5-0.8,3.8-1.3
			C338.6,165,338.7,165.2,338.8,165.5z M318.9,180c0-4.5-3.6-8.2-8-8.2c-4.5,0-8.1,3.6-8.2,8.1c0,4.4,3.6,8.1,8.1,8.2
			C315.3,188.2,318.9,184.5,318.9,180z M332.9,180.1c0-2.5-2-4.6-4.4-4.7c-2.5-0.1-4.7,2.1-4.7,4.6c0,2.5,2,4.5,4.6,4.5
			C330.8,184.6,332.8,182.6,332.9,180.1z M298,179.9c0-2.5-2.1-4.6-4.6-4.5c-2.5,0-4.6,2.2-4.5,4.8c0.1,2.5,2.2,4.5,4.7,4.4
			C296.1,184.5,298,182.4,298,179.9z M306.3,197.5c0,2.5,2,4.5,4.6,4.5c2.5,0,4.5-2,4.5-4.5c0-2.6-2.1-4.7-4.7-4.6
			C308.2,192.9,306.3,194.9,306.3,197.5z M315.4,162.6c0-2.5-1.9-4.6-4.4-4.7c-2.4-0.1-4.6,1.9-4.7,4.4c-0.1,2.6,2,4.8,4.5,4.8
			C313.3,167.2,315.3,165.1,315.4,162.6z M298.5,195.1c1.6-0.2,2.7-1,2.7-2.7c0-1.6-1-2.6-2.6-2.8c-1.5-0.1-3,1.3-2.9,2.7
			C295.9,194,296.9,194.9,298.5,195.1z M298.6,170.4c1.6-0.2,2.6-1.1,2.7-2.7c0.1-1.5-1.3-2.8-2.9-2.7c-1.7,0.1-2.6,1.2-2.5,2.8
			C295.9,169.4,297,170.2,298.6,170.4z M320.5,167.9c0.2,1.5,1.2,2.5,2.8,2.4c1.7-0.1,2.6-1.3,2.5-2.8c-0.1-1.6-1.1-2.6-2.8-2.5
			C321.3,165.1,320.6,166.2,320.5,167.9z M323.1,195.1c1.7-0.1,2.8-1,2.8-2.6c0-1.6-0.9-2.7-2.6-2.8c-1.7-0.1-2.7,0.9-2.7,2.6
			C320.5,193.9,321.5,194.8,323.1,195.1z"/>
		<g>
			<path class="st2" d="M340.3,150.1c1.1,0,2.1,0.1,3,0c0.3,0,0.9-0.4,0.9-0.7c0.2-0.6,1.2-1.3,0.2-2c-0.7-0.6-1.4-1.3-2.4-2.1
				c1.7-1.7,3.1-3.1,4.7-4.6c0.9,0.9,1.5,1.6,2.2,2.3c0.2,0.2,0.8,0.3,1.1,0.2c0.6-0.4,1.7-0.1,1.6-1.3c0-0.5,0-1,0-1.5
				c0-1.6,0-1.6,1.5-1.7c1.4,0,2.8,0,4.1,0.2c0.2,0,0.6,0.5,0.7,0.8c0.1,0.4,0.1,0.8,0,1.3c-0.2,1.2,0.2,1.9,1.4,2.2
				c0.7,0.2,1.1,0.2,1.5-0.3c0.5-0.7,1.1-1.3,1.9-2.1c1.6,1.6,3,3,4.7,4.7c-0.9,0.8-1.7,1.4-2.3,2.1c-0.2,0.2-0.3,0.9-0.2,1.1
				c0.3,0.6,0.1,1.7,1.3,1.6c0.6,0,1.1,0,1.7,0c0.9-0.1,1.4,0.2,1.4,1.2c0,1.4,0,2.8,0,4.1c0,0.8-0.4,1.1-1.2,1c-0.3,0-0.6,0-1,0
				c-1.2-0.2-1.9,0.2-2.2,1.4c-0.2,0.6-0.3,1,0.3,1.5c0.7,0.5,1.3,1.2,2.2,1.9c-1.6,1.6-3.1,3.1-4.7,4.7c-0.8-0.9-1.4-1.6-2-2.3
				c-0.4-0.4-0.7-0.4-1.3-0.3c-1.4,0.4-1.8,1.2-1.5,2.5c0.1,0.5,0,1.1,0,1.7c-2,0.5-3.9,0.5-5.8,0.1c-0.2,0-0.4-0.4-0.5-0.7
				c-0.1-0.4-0.1-0.9,0-1.4c0.2-1.2-0.1-1.9-1.4-2.2c-0.7-0.2-1.1-0.2-1.5,0.3c-0.5,0.7-1.1,1.3-1.7,1.9c-2-1.2-3.4-2.7-4.7-4.7
				c0.7-0.6,1.5-1.2,2.2-1.9c0.2-0.2,0.3-0.7,0.2-1c-0.6-1.7-0.6-1.7-2.4-1.7c-0.6,0-1.2,0-2,0C340.3,154.3,340.3,152.3,340.3,150.1
				z M362.8,153.4c0.1-4.3-3.4-8-7.7-8.1c-4.6-0.1-8.2,3.4-8.3,7.9c0,4.3,3.5,7.9,7.8,8C359.1,161.3,362.7,157.8,362.8,153.4z"/>
			<path class="st2" d="M355,145.9c4.2,0.1,7.4,3.5,7.3,7.6c-0.1,4.1-3.6,7.4-7.7,7.2c-4.2-0.2-7.3-3.6-7.1-7.8
				C347.6,149,351,145.8,355,145.9z M354.9,148.3c-2.7,0-5,2.2-5,4.8c0,2.8,2.1,5,4.9,5.1c2.7,0.1,5-2.2,5-5
				C359.9,150.6,357.6,148.4,354.9,148.3z"/>
		</g>
		<g>
			<path class="st2" d="M124.3,363.7c0.6,0,1.1,0,1.6,0c0.2,0,0.4-0.2,0.5-0.4c0.1-0.3,0.6-0.7,0.1-1.1c-0.4-0.3-0.8-0.7-1.2-1.1
				c0.9-0.9,1.6-1.6,2.5-2.4c0.5,0.5,0.8,0.9,1.2,1.2c0.1,0.1,0.4,0.2,0.6,0.1c0.3-0.2,0.9,0,0.9-0.7c0-0.3,0-0.5,0-0.8
				c0-0.8,0-0.9,0.8-0.9c0.7,0,1.4,0,2.2,0.1c0.1,0,0.3,0.3,0.3,0.4c0.1,0.2,0,0.4,0,0.7c-0.1,0.6,0.1,1,0.7,1.2
				c0.4,0.1,0.6,0.1,0.8-0.2c0.3-0.3,0.6-0.7,1-1.1c0.8,0.8,1.6,1.6,2.5,2.5c-0.5,0.4-0.9,0.7-1.2,1.1c-0.1,0.1-0.2,0.4-0.1,0.6
				c0.2,0.3,0.1,0.9,0.7,0.8c0.3,0,0.6,0,0.9,0c0.5-0.1,0.7,0.1,0.7,0.6c0,0.7,0,1.4,0,2.2c0,0.4-0.2,0.6-0.6,0.5
				c-0.2,0-0.3,0-0.5,0c-0.6-0.1-1,0.1-1.2,0.8c-0.1,0.3-0.1,0.5,0.1,0.8c0.4,0.3,0.7,0.6,1.2,1c-0.9,0.9-1.6,1.6-2.5,2.5
				c-0.4-0.5-0.8-0.8-1.1-1.2c-0.2-0.2-0.4-0.2-0.7-0.1c-0.7,0.2-0.9,0.6-0.8,1.3c0,0.3,0,0.6,0,0.9c-1,0.3-2,0.3-3.1,0.1
				c-0.1,0-0.2-0.2-0.3-0.3c0-0.2,0-0.5,0-0.7c0.1-0.6-0.1-1-0.7-1.2c-0.4-0.1-0.6-0.1-0.8,0.2c-0.3,0.3-0.6,0.7-0.9,1
				c-1-0.6-1.8-1.4-2.5-2.5c0.4-0.3,0.8-0.7,1.2-1c0.1-0.1,0.1-0.4,0.1-0.5c-0.3-0.9-0.3-0.9-1.3-0.9c-0.3,0-0.6,0-1,0
				C124.3,365.9,124.3,364.9,124.3,363.7z M136.1,365.4c0-2.3-1.8-4.2-4-4.2c-2.4,0-4.3,1.8-4.4,4.1c0,2.3,1.8,4.2,4.1,4.2
				C134.1,369.6,136,367.8,136.1,365.4z"/>
			<path class="st2" d="M132,361.5c2.2,0.1,3.9,1.8,3.8,4c-0.1,2.2-1.9,3.9-4,3.8c-2.2-0.1-3.8-1.9-3.8-4.1
				C128.1,363.1,129.9,361.4,132,361.5z M131.9,362.8c-1.4,0-2.6,1.1-2.6,2.5c0,1.5,1.1,2.6,2.6,2.7c1.4,0,2.6-1.1,2.6-2.6
				C134.5,364,133.3,362.8,131.9,362.8z"/>
		</g>
	</g>
	<g>
		<path class="st3" d="M99.6,130.3c0.3-2.8,0.1-5.6,0.1-9.4c-6.8,1.3-12.7,2.3-19.1,3.5c1.6,4.1,2.7,7.1,3.8,10
			c4.5-0.7,8.6-1.2,12.6-2C98.1,132.3,99.5,131.1,99.6,130.3z"/>
		<path class="st3" d="M171.3,181.5c-3.7,0.7-6.9,1.3-10.4,2c0,5.2,0,9.9,0,14.9c3.4,0.7,6.7,1.3,10.4,2
			C171.3,194,171.3,187.9,171.3,181.5z"/>
		<path class="st3" d="M102,168.7c-12.5,0.1-22,9.7-22,22.3c0,12.6,9.5,22.2,22,22.3c12.8,0.1,22.6-9.8,22.5-22.7
			C124.3,178.2,114.5,168.6,102,168.7z"/>
		<path class="st3" d="M161.5,228.2c-3.8-2.1-6.6-3.7-9.4-5.3c-3.3,3.9-6.3,7.5-9.8,11.7c2.3,2.8,4.4,5.4,7,8.5
			C153.6,237.9,157.4,233.2,161.5,228.2z"/>
		<path class="st3" d="M96.5,249.6c-3.8-0.9-7.8-1.3-11.9-1.9c-1.2,3.1-2.3,6.1-3.9,10.3c6.9,1,12.8,1.9,19,2.8
			c0-3.5,0.4-5.7-0.1-7.8C99.2,251.6,97.7,249.9,96.5,249.6z"/>
		<path class="st3" d="M170.8,205.8c-4.2-0.7-7.6-1.2-10.8-1.7c-1.8,5.1-3.4,9.5-5.1,14.1c2.9,1.7,5.7,3.4,9.4,5.7
			C166.6,217.4,168.6,211.9,170.8,205.8z"/>
		<path class="st3" d="M142.3,147.5c3.3,3.9,6.4,7.6,9.8,11.7c2.9-1.7,5.8-3.3,9.5-5.4c-4.3-5.1-8.2-9.8-12.4-14.8
			C146.6,142.1,144.5,144.8,142.3,147.5z"/>
		<path class="st3" d="M128.8,256c5.9-3.5,11.1-6.6,16.5-9.9c-3-3.2-5.2-5.6-7.4-8c-4.4,2.6-8.5,5-12.9,7.6
			C126.2,249,127.3,252,128.8,256z"/>
		<path class="st3" d="M170.8,176.2c-2.3-6.1-4.5-11.9-6.8-18c-3.6,2.2-6.2,3.8-9.2,5.7c1.9,5,3.5,9.5,5.3,14.3
			C163.6,177.5,166.8,176.9,170.8,176.2z"/>
		<path class="st3" d="M125.1,136.4c4.4,2.5,8.3,4.8,13,7.5c2.3-2.5,4.5-5,7.4-8.2c-5.9-3.3-11.2-6.3-16.9-9.5
			C127.1,130.3,126.1,133.4,125.1,136.4z"/>
		<path class="st3" d="M104.9,252.8c-0.5,2.2-0.1,4.6-0.1,8.1c6.4-1.1,12.3-2,18.9-3.1c-1.5-4.1-2.7-7.2-3.8-10.1
			c-4.4,0.6-8.2,1-11.8,1.9C106.8,249.9,105.2,251.5,104.9,252.8z"/>
		<path class="st3" d="M45.1,127.3c-0.3,0.2-0.5,0.5-0.7,0.7C44.7,127.8,44.9,127.6,45.1,127.3z"/>
		<path class="st3" d="M75.7,126.1c-5.9,3.4-11.1,6.5-16.6,9.7c2.9,3.2,5.1,5.6,7.4,8.1c4.4-2.5,8.6-4.9,13.1-7.5
			C78.3,133.1,77.1,130,75.7,126.1z"/>
		<path class="st3" d="M107.5,132.5c4,0.9,8.1,1.3,12.5,2c1.1-3.1,2.3-6.1,3.9-10.3c-6.9-1.1-12.8-2-19.2-2.9c0,3.6-0.3,5.9,0.1,8.2
			C105,130.6,106.4,132.2,107.5,132.5z"/>
		<path class="st3" d="M79.4,245.7c-4.7-2.7-8.8-5.1-13-7.6c-2.3,2.6-4.5,5-7.3,8.2c5.7,3.3,10.9,6.2,16.7,9.6
			C77.2,251.9,78.3,248.8,79.4,245.7z"/>
		<path class="st3" d="M62.1,234.5c-3.4-4-6.6-7.8-9.8-11.6c-3,1.7-5.8,3.4-9.4,5.5c4.3,5.1,8.2,9.8,12.4,14.7
			C57.8,239.9,60,237.2,62.1,234.5z"/>
		<path class="st3" d="M62.2,147.4c-2.3-2.8-4.4-5.4-7-8.4c-4.2,5.1-8.1,9.8-12.3,14.9c3.7,2.1,6.7,3.7,9.5,5.3
			C55.8,155.1,58.8,151.5,62.2,147.4z"/>
		<path class="st3" d="M33.1,200.6c4-0.8,7.3-1.5,10.5-2.1c0-5.2,0-9.9,0-14.9c-3.4-0.7-6.7-1.3-10.5-2
			C33.1,187.9,33.1,193.8,33.1,200.6z"/>
		<path class="st3" d="M33.7,176.3c4.2,0.7,7.5,1.2,10.7,1.7c1.8-4.9,3.4-9.3,5.2-14.1c-2.7-1.7-5.4-3.4-9.3-5.8
			C38,164.5,35.9,170.2,33.7,176.3z"/>
		<path class="st3" d="M49.6,218.2c-1.9-5.1-3.5-9.5-5.2-14.3c-3.4,0.6-6.7,1.2-10.7,1.9c2.3,6.2,4.5,11.8,6.8,17.9
			C44,221.6,46.7,219.9,49.6,218.2z"/>
		<path class="st4" d="M195.6,195.5c0.1-1.8,0.2-3.6,0.2-5.3c0-1.2,0-2.5-0.1-3.7c-1.6-0.2-3.2-0.5-4.7-0.8c-0.1-2-0.3-3.9-0.5-5.8
			c1.4-0.5,2.9-1,4.5-1.5c-0.4-3.3-1-6.5-1.7-9.6c-1.5,0.3-3.1,0.8-4.5,1c-0.5-2-1-4-1.6-6c1.4-0.8,2.8-1.6,4.1-2.4
			c-0.9-2.9-2-5.7-3.2-8.5c-0.9,0.2-1.9,0.4-3.2,0.7c-0.4,0.1-0.9,0.3-1.4,0.4c-0.8-1.9-1.8-3.8-2.7-5.6c1.2-1.1,2.4-2.1,3.6-3
			c-1.4-2.5-2.8-5-4.4-7.3c-1.2,0.3-2.6,0.8-4.5,1.6c-1.2-1.7-2.4-3.4-3.7-5.1c1-1.2,1.9-2.4,2.9-3.7c-1.9-2.3-3.8-4.5-5.9-6.6
			c-1.3,0.9-2.5,1.8-3.8,2.7c-1.5-1.6-3.1-3-4.8-4.5c0.8-1.3,1.8-2.6,2.5-3.9c-2.3-2-4.7-3.8-7.2-5.6c-1.1,1.2-2.1,2.3-3.1,3.4
			c-1.9-1.3-3.8-2.5-5.8-3.7c0.5-1.4,1.4-2.9,1.7-4.3c-2.5-1.5-5.1-2.8-7.8-4c-0.9,1.3-1.8,2.6-2.7,3.8c-2.1-0.9-4.2-1.8-6.4-2.5
			c0.3-1.5,0.8-3.1,0.8-4.6c-2.7-0.9-5.5-1.8-8.3-2.4c-0.7,1.5-1.3,2.9-2,4.3c-2.2-0.5-4.4-0.9-6.7-1.3c0-0.1,0-0.2,0-0.3
			c0-1.9-0.1-3.3-0.2-4.4c-2.8-0.4-5.6-0.7-8.4-0.8c-0.3,1.5-0.6,3.1-1,4.6c-1.3-0.1-2.7-0.1-4-0.1c-1,0-2,0-2.9,0.1
			c-0.4-1.5-0.7-3.1-1-4.6c-2.8,0.1-5.6,0.3-8.3,0.7c-0.2,2-0.5,3.6-0.7,4.8c-2.2,0.3-4.3,0.7-6.4,1.2c-0.6-1.4-1.3-2.9-2-4.4
			c-2.7,0.6-5.4,1.4-8,2.2c-0.1,1.6,0.3,3.2,0.7,4.8c-2.2,0.8-4.4,1.6-6.5,2.5c-0.9-1.4-1.8-2.7-2.7-4c-2.6,1.1-5.1,2.4-7.5,3.7
			c0.1,1.1,0.6,2.6,1.4,4.7c-2.2,1.2-4.3,2.6-6.4,4c-0.9-1.2-1.9-2.6-2.9-3.9c-2.4,1.6-4.7,3.4-7,5.3c0.9,1.6,1.6,3,2.4,4.4
			c-1.7,1.4-3.3,3-4.9,4.5c-1.3-0.9-2.7-1.9-4.1-2.9c-2,2-4,4.2-5.8,6.4c1.2,1.4,2.2,2.7,3.2,3.9c-1.4,1.8-2.8,3.6-4.1,5.4
			c-2.3-0.9-3.8-1.4-5-1.5c-1.5,2.2-2.9,4.5-4.2,6.9c0.9,1.3,2.6,2.1,4.1,3c-1.1,2-2.1,4-3,6c-1.8-0.6-3.5-1.5-5-1.2
			c-1.2,2.7-2.3,5.5-3.2,8.4c0.9,1.3,2.8,1.8,4.5,2.5c-0.7,2.2-1.3,4.3-1.8,6.6c-1.7-0.3-3.5-0.8-5.1-0.5c-0.6,2.7-1.1,5.4-1.5,8.1
			c1.4,1,3.3,1.3,4.9,1.8c-0.3,2.2-0.4,4.4-0.5,6.6c-1.8,0.3-3.5,0.6-5.2,0.9c0,1.1-0.1,2.3-0.1,3.5c0,1.7,0,3.4,0.1,5.1
			c1.8,0.3,3.6,0.5,5.2,0.9c0.1,2.1,0.4,4.2,0.7,6.3c-1.6,0.6-3.3,1.2-5,1.7c0.4,2.9,1,5.8,1.7,8.7c1.9-0.2,3.6-0.3,5.3-0.3
			c0.5,2,1.1,4,1.8,6c-1.3,0.7-2.9,1.1-3.8,2.1c-0.2,0.3-0.5,0.7-0.7,1.1c0.9,2.7,2,5.3,3.2,7.8c0.3,0,0.6-0.1,0.9-0.2
			c1.4-0.4,2.9-1,4.3-1.2c0.9,1.8,1.8,3.6,2.8,5.3c-1.2,1.3-2.7,2.4-4.1,3.5c1.5,2.5,3,5,4.7,7.4c1.1-0.3,2.5-0.9,4.3-1.8
			c0.2-0.1,0.5-0.2,0.7-0.3c1.2,1.6,2.4,3.2,3.7,4.8c-1.1,1.3-2.2,2.7-3.4,4.2c1.9,2.3,4,4.5,6.2,6.6c1.5-1.1,2.9-2.2,4.4-2.9
			c0.1,0,0.1,0,0.2-0.1c1.4,1.3,2.8,2.6,4.3,3.8c0,0,0,0,0,0.1c-0.7,1.6-1.6,3.1-2.5,4.7c2.4,1.9,4.8,3.7,7.4,5.4
			c1.2-1.4,2.4-2.7,3.5-4c1.7,1.1,3.4,2.1,5.1,3.1c-0.2,0.7-0.5,1.4-0.7,2.1c-0.3,1-0.8,2-1.2,2.9c2.7,1.5,5.6,2.9,8.5,4.1
			c0.5-0.8,1-1.6,1.5-2.4c0.5-0.7,1-1.4,1.5-2.1c1.8,0.7,3.6,1.4,5.4,2c0,1.6-0.6,3.4-1,5.2c2.9,1,5.9,1.8,9,2.4
			c0.8-1.7,1.5-3.3,2.2-4.8c1.8,0.4,3.7,0.7,5.6,1c0.1,0.6,0.1,1.2,0.1,1.9c0,1.4,0.1,2.5,0.1,3.4c3,0.4,6,0.6,9,0.7
			c0.2-1.3,0.5-2.6,1-3.8c0.2-0.5,0.5-0.9,0.8-1.3c0.6,0,1.2,0,1.7,0c1,0,1.9,0,2.9-0.1c0.3,0.4,0.6,0.8,0.7,1.2
			c0.5,1.3,0.8,2.6,1,3.9c3.1-0.2,6.1-0.5,9-0.9c0-0.8,0.1-1.8,0.1-3c0-0.8,0-1.5,0.1-2.2c1.9-0.3,3.7-0.6,5.5-1.1
			c0.7,1.6,1.4,3.1,2.1,4.7c3.1-0.7,6-1.6,9-2.6c-0.3-1.8-1-3.5-0.8-5.1c1.8-0.6,3.5-1.3,5.2-2c1,1.5,2,2.9,2.9,4.2
			c2.9-1.3,5.7-2.7,8.4-4.2c-0.2-0.7-0.5-1.5-0.8-2.5c-0.3-0.8-0.6-1.6-0.8-2.4c1.7-1,3.4-2.1,5.1-3.2c1,1.2,2.1,2.5,3.3,3.8
			c2.6-1.7,5-3.6,7.4-5.6c-0.8-1.5-1.7-2.9-2.5-4.4c1.4-1.2,2.8-2.5,4.2-3.8c1.4,0.6,2.7,1.9,4,3c2.2-2.2,4.3-4.5,6.3-6.9
			c-0.9-1.4-2-2.8-3-4.1c1.1-1.4,2.2-2.8,3.3-4.3c0.6,0.2,1.2,0.5,1.8,0.8c1.1,0.5,2,0.9,2.8,1.2c1.8-2.6,3.4-5.2,4.9-7.9
			c0,0,0,0-0.1-0.1c-0.9-1.2-2.3-2.6-3.3-3.8c0.8-1.5,1.6-3.1,2.3-4.6c1.4,0.5,2.9,1.6,4.2,1.8c0.1,0,0.1,0,0.2,0
			c1.3-2.9,2.5-6,3.6-9c-0.1,0-0.1-0.1-0.2-0.1c-1.4-0.6-2.9-1.2-4.1-2.2c0.6-1.8,1.1-3.6,1.6-5.5c1.6,0,3.2,0.1,4.8,0.2
			c0.7-3,1.3-6,1.8-9.1c-1.6-0.5-3.1-1-4.5-1.5c0.3-1.9,0.5-3.8,0.6-5.8C192.4,196,194,195.8,195.6,195.5z M152.1,159.1
			c-3.4-4-6.5-7.8-9.8-11.7c2.2-2.7,4.3-5.4,6.9-8.5c4.2,5,8.1,9.7,12.4,14.8C157.9,155.9,155,157.5,152.1,159.1z M164,158.2
			c2.3,6.1,4.5,11.9,6.8,18c-4,0.7-7.2,1.3-10.7,1.9c-1.8-4.8-3.5-9.3-5.3-14.3C157.8,162,160.4,160.4,164,158.2z M138.1,143.9
			c-4.7-2.7-8.6-5-13-7.5c1-3,2.1-6.1,3.5-10.2c5.7,3.2,11,6.2,16.9,9.5C142.6,138.9,140.3,141.4,138.1,143.9z M138,238.2
			c2.2,2.4,4.4,4.8,7.4,8c-5.5,3.3-10.6,6.3-16.5,9.9c-1.5-4.1-2.6-7-3.8-10.2C129.4,243.2,133.6,240.7,138,238.2z M142.3,234.6
			c3.4-4.1,6.5-7.7,9.8-11.7c2.8,1.6,5.6,3.1,9.4,5.3c-4.1,5-7.9,9.7-12.2,14.9C146.8,240,144.6,237.4,142.3,234.6z M154.9,218.2
			c1.7-4.7,3.3-9,5.1-14.1c3.2,0.5,6.6,1,10.8,1.7c-2.2,6.1-4.2,11.6-6.5,18.1C160.5,221.6,157.8,220,154.9,218.2z M160.9,198.5
			c0-5.1,0-9.7,0-14.9c3.5-0.7,6.7-1.3,10.4-2c0,6.4,0,12.5,0,19C167.6,199.8,164.3,199.1,160.9,198.5z M102,213.3
			c-12.5-0.1-22-9.7-22-22.3c0-12.6,9.5-22.2,22-22.3c12.5-0.1,22.3,9.5,22.4,21.9C124.7,203.5,114.8,213.4,102,213.3z M123.7,257.8
			c-6.6,1.1-12.5,2.1-18.9,3.1c0-3.5-0.4-5.9,0.1-8.1c0.3-1.3,1.9-2.9,3.2-3.3c3.7-0.9,7.5-1.2,11.8-1.9
			C121,250.6,122.2,253.7,123.7,257.8z M99.7,260.7c-6.2-0.9-12.1-1.8-19-2.8c1.6-4.2,2.7-7.2,3.9-10.3c4.2,0.6,8.1,1,11.9,1.9
			c1.3,0.3,2.7,2,3.1,3.4C100.1,255,99.7,257.3,99.7,260.7z M80.7,124.4c6.4-1.2,12.3-2.3,19.1-3.5c0,3.8,0.2,6.6-0.1,9.4
			c-0.1,0.8-1.5,2-2.5,2.2c-4,0.8-8.2,1.3-12.6,2C83.4,131.5,82.2,128.5,80.7,124.4z M104.7,121.2c6.4,1,12.3,1.9,19.2,2.9
			c-1.6,4.2-2.7,7.2-3.9,10.3c-4.4-0.7-8.5-1.1-12.5-2c-1.1-0.3-2.5-1.9-2.7-3C104.3,127.2,104.7,124.8,104.7,121.2z M49.6,163.9
			c-1.8,4.8-3.4,9.2-5.2,14.1c-3.2-0.5-6.6-1.1-10.7-1.7c2.2-6.1,4.3-11.8,6.7-18.2C44.2,160.5,46.9,162.2,49.6,163.9z M42.9,153.8
			c4.2-5.1,8.1-9.7,12.3-14.9c2.5,3.1,4.7,5.7,7,8.4c-3.4,4.1-6.4,7.7-9.8,11.7C49.6,157.6,46.7,155.9,42.9,153.8z M43.6,183.5
			c0,5,0,9.7,0,14.9c-3.2,0.7-6.5,1.3-10.5,2.1c0-6.8,0-12.7,0-19C36.8,182.2,40.2,182.9,43.6,183.5z M44.4,203.9
			c1.8,4.8,3.4,9.2,5.2,14.3c-2.9,1.7-5.6,3.4-9.2,5.6c-2.3-6.1-4.4-11.8-6.8-17.9C37.7,205.1,41,204.6,44.4,203.9z M52.3,222.9
			c3.3,3.9,6.4,7.6,9.8,11.6c-2.1,2.7-4.3,5.3-6.8,8.5c-4.2-5-8.1-9.6-12.4-14.7C46.5,226.2,49.3,224.6,52.3,222.9z M66.3,238.1
			c4.2,2.5,8.4,4.9,13,7.6c-1.1,3.1-2.2,6.2-3.6,10.2c-5.8-3.3-11-6.3-16.7-9.6C61.9,243.2,64,240.8,66.3,238.1z M66.4,143.9
			c-2.3-2.5-4.5-4.9-7.4-8.1c5.5-3.2,10.7-6.3,16.6-9.7c1.5,3.8,2.6,7,3.9,10.2C75,139,70.8,141.4,66.4,143.9z M45.1,127.3
			c-0.2,0.2-0.4,0.5-0.7,0.7C44.6,127.8,44.9,127.6,45.1,127.3z"/>
		<g>
			<path class="st4" d="M102.3,171.7c-10.8,0-19.6,8.8-19.6,19.6c0,10.8,8.8,19.6,19.6,19.6c10.8,0,19.6-8.8,19.6-19.6
				C121.9,180.5,113.1,171.7,102.3,171.7z M102.3,200.4c-5,0-9-4-9-9s4-9,9-9c5,0,9,4,9,9S107.2,200.4,102.3,200.4z"/>
		</g>
	</g>
	<g>
		<ellipse transform="matrix(0.991 -0.134 0.134 0.991 -36.6994 43.9318)" class="st1" cx="308.1" cy="294.7" rx="52.4" ry="52.4"/>
		<path class="st3" d="M331.2,302.6c-0.4,1.2-0.6,2.1-0.9,3c5.8,2.4,11.3,4.7,16.8,6.8c0.8,0.3,2.1-0.5,3.1-0.8
			c-0.1-0.5-0.3-0.9-0.4-1.4C343.7,307.7,337.6,305.2,331.2,302.6z"/>
		<path class="st3" d="M281.7,239.5c-1.9,0.9-3.8,1.9-5.6,3.1c1.6,1.7,3.1,3.4,4.6,5C283.4,246.6,283.4,246.6,281.7,239.5z"/>
		<path class="st3" d="M292.8,235.4c-2.2,0.6-4.3,1.3-6.4,2.1c1.3,2,2.5,4,3.9,6.2C295,242.1,291.6,238.3,292.8,235.4z"/>
		<path class="st3" d="M311.6,240.5c0.7-1,1.6-1.9,2.1-3c0.5-1.1,0.7-2.3,1.1-3.8c-2.2-0.2-4.4-0.3-6.7-0.3c0.7,0.5,0.9,1.7,1.4,4.1
			C309.8,238.5,310.9,239.5,311.6,240.5z"/>
		<path class="st3" d="M322.7,242.2c1.1-2.2,2.2-4.2,3.3-6.4c-2.1-0.6-4.3-1.2-6.6-1.6C321.2,236.8,317.7,241.1,322.7,242.2z"/>
		<path class="st3" d="M301.2,240.8c0.6-0.8,1.5-1.5,1.8-2.4c0.4-1.5,0.4-3.2,0.5-4.7c0.3-0.1,0.6-0.1,0.9-0.2
			c-1.4,0.1-2.8,0.2-4.2,0.4c-1,0.1-2,0.3-3,0.5c0.7,1.6,1.2,3.2,2,4.6C299.6,239.7,300.5,240.2,301.2,240.8z"/>
		<path class="st3" d="M321.1,316.6c0.8,6.6,1.7,13.1,2.7,20c9-3.4,15.9-8.6,21.4-16.7c-6.4-2.6-12.5-5.1-18.5-7.5
			C325,311.8,320.8,314.9,321.1,316.6z"/>
		<path class="st3" d="M336.6,240.1c-1.9-1-3.8-1.8-5.7-2.6c-0.4,2.3-0.8,4.4-1.2,6.5C331.8,245.4,331.9,245.4,336.6,240.1z"/>
		<path class="st3" d="M354,264.2c0.6,0.5,1.7,0.5,2.6,0.6c0.4,0,0.9-0.3,1.3-0.5c1.8-0.7,2.8-1.1,3.5-0.9c-1.1-1.8-2.3-3.6-3.5-5.3
			c-1.2,1.3-2.4,2.5-3.4,3.8C353.9,262.5,353.6,263.9,354,264.2z"/>
		<path class="st3" d="M366.1,273.4c-0.7-1.9-1.5-3.8-2.4-5.7c-1.7,1.4-3.5,2.7-5.5,4.3C360.2,276.4,363.4,272.7,366.1,273.4z"/>
		<path class="st3" d="M328.5,281.8c5.5-4.3,10.7-8.3,16.2-12.5c-0.8-0.9-1.4-1.6-2.1-2.4c-5.4,4.2-10.6,8.2-16,12.3
			C327.2,280.1,327.8,280.8,328.5,281.8z"/>
		<path class="st3" d="M347.4,256.5c1.3-0.2,2.7-0.2,3.9-0.7c1.1-0.4,2-1.1,3.1-1.9c-1.4-1.5-2.8-3-4.3-4.3
			c-0.7,1.2-1.5,2.2-1.9,3.3C347.7,254,347.6,255.2,347.4,256.5z"/>
		<path class="st3" d="M334,295.4c5.9,2.5,11.8,4.9,18.2,7.5c1.7-9.6,0.5-18.3-3.7-27c-5.4,4.2-10.6,8.1-15.7,12.2
			C331,289.6,331.8,294.5,334,295.4z"/>
		<path class="st3" d="M340.8,251c1.8-1.6,3.5-3.2,5.3-4.8c-1.7-1.3-3.4-2.5-5.2-3.6C341.1,245.4,336.8,248,340.8,251z"/>
		<path class="st3" d="M251.5,288.8c1.1-0.1,2.1-0.9,3.1-1.4c-0.8-0.9-1.6-1.9-2.5-2.6c-1.2-0.7-2.6-1.1-3.8-1.6c0-0.3,0-0.6,0-0.9
			c-0.5,2.4-0.8,4.8-1,7.2C247.8,289,249.1,289,251.5,288.8z"/>
		<path class="st3" d="M258.5,316.9c-0.3-0.6-1.4-0.7-2.2-1c-0.3-0.1-0.7,0.2-1,0.3c-2.3,0.5-3.5,0.8-4.3,0.4c0.7,2,1.6,3.9,2.5,5.7
			c1.4-1,2.9-2,4.3-3.2C258.3,318.7,258.7,317.5,258.5,316.9z"/>
		<path class="st3" d="M297.4,351.6c0-2.7,0-2.7-2.8-3.5c-1,1.9-2,3.8-3,5.8c2,0.6,4,1.1,6.1,1.4
			C297.4,354.6,297.4,353.4,297.4,351.6z"/>
		<path class="st3" d="M285.4,344.4c-1.6,1.9-2.9,3.9-4.7,5.2c1.9,1,3.8,1.8,5.8,2.6C286.2,349.5,289.4,346.5,285.4,344.4z"/>
		<path class="st3" d="M255.1,306.1c-2.3-0.1-4.6-0.2-7.1-0.2c0.4,2.1,0.9,4.2,1.5,6.2C250.9,309.7,256.2,311.1,255.1,306.1z"/>
		<path class="st3" d="M260.2,325.6c-2.3,0.9-3.4,1.4-4.3,1c1.1,1.9,2.4,3.7,3.7,5.4c1.5-1.6,3-3.3,4.5-5
			C263.5,324.7,262.2,324.7,260.2,325.6z"/>
		<path class="st3" d="M276.5,339.3c-1.7,1.5-3.3,3-5,4.5c1.6,1.2,3.3,2.4,5,3.4C276.6,344.4,280.5,342,276.5,339.3z"/>
		<path class="st3" d="M270,333.8c-0.6-0.4-1.6-0.5-2.4-0.5c-0.4,0-0.8,0.5-1.2,0.7c-1.9,1.2-2.9,1.8-3.7,1.7c1.5,1.6,3,3.1,4.6,4.6
			c1-1.5,1.9-3,2.7-4.5C270.3,335.3,270.3,334.1,270,333.8z"/>
		<path class="st3" d="M267.6,258.8c-1.4-1.9-2.7-3.7-4.2-5.8c-1.4,1.5-2.7,3.1-4,4.8c2.2,1.1,4.2,2.1,6.3,3.1
			C266.4,260.2,267,259.5,267.6,258.8z"/>
		<path class="st3" d="M253.5,278.5c1.8,0.2,3.7,0.7,3.7-2.4c-0.9-0.6-1.9-1.3-3-1.9c-0.9-0.6-1.8-1.1-2.9-1.8
			c-0.8,2-1.5,4.1-2.1,6.2C249.9,278.1,251.2,278.2,253.5,278.5z"/>
		<path class="st3" d="M261.8,267c-1.8-1.6-3.5-3.2-5.4-4.9c-1.2,1.9-2.2,3.8-3.2,5.7C256.2,267,259.2,271.5,261.8,267z"/>
		<path class="st3" d="M272,245.3c-1.6,1.2-3.2,2.5-4.7,3.8c1.7,1.6,3.4,3.2,4.9,4.6C274.9,252,274.9,252,272,245.3z"/>
		<path class="st3" d="M304.7,349.4c-0.7,2.3-1.3,4.5-1.9,6.6c2,0.2,4,0.3,6,0.3C307.6,353.9,308.9,350.2,304.7,349.4z"/>
		<path class="st3" d="M362.1,284c2.4,0.1,4.6,0.1,7,0.2c-0.4-2-0.8-4-1.4-6C365.8,280.2,361.3,279.4,362.1,284z"/>
		<path class="st3" d="M247.1,294.2c0-0.1,0-0.1,0-0.2c0,2.2,0.1,4.4,0.3,6.7c2.3-0.7,4.4-1.4,6.7-2.1
			C253.9,293.5,249,296.3,247.1,294.2z"/>
		<path class="st3" d="M346,337.5c-0.7-0.4-1.9-0.4-2.6-0.1c-0.3,0.1-0.2,1.5-0.1,2.3c0,0.4,0.3,0.9,0.6,1.3
			c0.8,1.5,1.2,2.4,1.4,3.2c1.5-1.1,3-2.4,4.5-3.6C348.4,339.5,347.2,338.4,346,337.5z"/>
		<path class="st3" d="M334.5,346.1c0.7,1.9,1.1,3.1,1,3.9c1.8-0.9,3.5-1.8,5.2-2.9c-1.4-1.5-2.8-3-4.3-4.6
			C334.2,342.9,333.7,343.9,334.5,346.1z"/>
		<path class="st3" d="M326.1,347c-0.6,0.3-1.1,1.2-1.4,2c-0.2,0.4,0.1,0.9,0.1,1.4c0.2,1.8,0.3,2.9,0.1,3.7
			c1.9-0.5,3.8-1.2,5.6-1.9c-0.8-1.4-1.7-2.9-2.6-4.2C327.6,347.4,326.5,346.8,326.1,347z"/>
		<path class="st3" d="M317.9,293.6c-0.8-4.9-5.5-8.3-10.4-7.6c-5.2,0.7-8.6,5.3-7.8,10.5c0.8,5,5.3,8.3,10.3,7.6
			C315,303.4,318.7,298.5,317.9,293.6z"/>
		<path class="st3" d="M296.1,273.3c-0.2-6.5-1.5-12.9-2.4-19.8c-9.2,3.3-16.1,8.8-21.6,16.6c6.4,2.6,12.4,5.5,18.7,7.4
			C292.2,277.9,296.2,274.7,296.1,273.3z"/>
		<path class="st3" d="M295.8,316.7c-5.2,3.9-10.3,7.9-15.8,12.2c7.6,6,15.6,9.7,25.3,10.2c-0.9-6.8-1.7-12.9-2.6-19
			C302.4,317.5,297.7,315.3,295.8,316.7z"/>
		<path class="st3" d="M288.7,308.5c-5.4,4.2-10.6,8.2-16,12.4c0.7,0.8,1.3,1.5,2.1,2.4c5-3.8,9.6-7.4,14.2-10.9
			C291.1,310.8,290.5,309.7,288.7,308.5z"/>
		<path class="st3" d="M316,338.4c-0.9-6.7-1.8-13.2-2.7-20c-1.1,0.3-2,0.5-3.1,0.8c0.8,6.1,1.7,11.9,2.4,17.6
			C312.9,339.4,314.2,339.1,316,338.4z"/>
		<path class="st3" d="M283.7,294.8c-6-2.6-12.2-5.1-18.6-7.7c-1.5,9.6-0.3,18.2,3.7,27.1c5.5-4.3,10.6-8.1,15.6-12.1
			C286.1,300.7,285.7,295.7,283.7,294.8z"/>
		<path class="st3" d="M285,283.5c-4.8-1.9-9.5-3.8-14.2-5.9c-2.3-1-3.1-0.2-3.3,2.2c6.2,2.5,12.3,5,18.5,7.6
			C287.7,285.2,286.8,284.3,285,283.5z"/>
		<path class="st3" d="M353.6,336.6c1.3-1.4,2.6-3,3.8-4.5c-1.9-1-3.9-1.9-6-2.9C348.5,332.7,352.6,334.1,353.6,336.6z"/>
		<path class="st3" d="M363.3,292.7c0.1,0.6,1,1.2,1.7,1.7c0.2,0.2,0.7,0.1,1,0.2c2.1,0.4,3.3,0.7,4,1.2c0-2.1,0-4.3-0.2-6.4
			c-1.6,0.5-3.3,0.9-4.9,1.6C364.2,291.3,363.3,292.2,363.3,292.7z"/>
		<path class="st3" d="M362.5,304.1c2.2,0.9,4.3,1.7,6.3,2.6c0.4-1.9,0.7-3.9,0.9-5.8C367.5,302.2,363.3,299.3,362.5,304.1z"/>
		<path class="st3" d="M361.2,311.5c-1.4,1.6-1.1,2.8,0.9,3.8c1.2,0.6,2.3,1.4,3.6,2.2c0.8-2,1.5-4,2.1-6.1
			C366.6,311.8,364.6,311.7,361.2,311.5z"/>
		<path class="st3" d="M317.4,349.3c-4.8,0.3-2.2,4.4-3.6,6.8c1-0.1,2-0.2,3-0.3c1-0.1,2.1-0.3,3.1-0.5
			C319.1,353.4,318.3,351.5,317.4,349.3z"/>
		<path class="st3" d="M321.5,273.5c5.2-3.9,10.3-7.9,15.8-12.2c-7.6-6.2-15.6-9.6-25.2-10.3c0.9,6.8,1.7,13.3,2.7,19.7
			C315.1,272.7,320,274.6,321.5,273.5z"/>
		<path class="st3" d="M306.9,271.1c-0.9-6.7-1.8-13.3-2.8-21c-1.4,1.4-2.8,2.3-2.7,3c0.6,6.1,1.5,12.2,2.4,18.4
			C305.1,271.3,305.9,271.2,306.9,271.1z"/>
		<path class="st3" d="M356.4,321.8c0.2,0.9,0.2,2,0.7,2.6c1,1.1,2.1,2.1,3.4,3.2c1-1.7,2-3.4,2.9-5.1c-1.6-0.5-3.1-0.9-4.7-1.2
			C358,321.1,357.2,321.6,356.4,321.8z"/>
		<path class="st3" d="M267.4,279.8c6.2,2.5,12.3,5,18.5,7.6c1.8-2.2,0.9-3.2-0.9-3.9c-4.8-1.9-9.5-3.8-14.2-5.9
			C268.4,276.6,267.6,277.5,267.4,279.8z"/>
		<path class="st3" d="M268.8,314.2c5.5-4.3,10.6-8.1,15.6-12.1c1.7-1.4,1.3-6.4-0.6-7.3c-6-2.6-12.2-5.1-18.6-7.7
			C263.7,296.7,264.8,305.3,268.8,314.2z"/>
		<path class="st3" d="M296.1,273.3c-0.2-6.5-1.5-12.9-2.4-19.8c-9.2,3.3-16.1,8.8-21.6,16.6c6.4,2.6,12.4,5.5,18.7,7.4
			C292.2,277.9,296.2,274.7,296.1,273.3z"/>
		<path class="st3" d="M305.4,339c-0.9-6.8-1.7-12.9-2.6-19c-0.4-2.5-5.1-4.8-7-3.3c-5.2,3.9-10.3,7.9-15.8,12.2
			C287.7,334.8,295.7,338.5,305.4,339z"/>
		<path class="st3" d="M289,312.4c2.1-1.6,1.5-2.7-0.3-3.9c-5.4,4.2-10.6,8.2-16,12.4c0.7,0.8,1.3,1.5,2.1,2.4
			C279.8,319.4,284.3,315.8,289,312.4z"/>
		<path class="st3" d="M317.9,293.6c-0.8-4.9-5.5-8.3-10.4-7.6c-5.2,0.7-8.6,5.3-7.8,10.5c0.8,5,5.3,8.3,10.3,7.6
			C315,303.4,318.7,298.5,317.9,293.6z"/>
		<path class="st3" d="M316,338.4c-0.9-6.7-1.8-13.2-2.7-20c-1.1,0.3-2,0.5-3.1,0.8c0.8,6.1,1.7,11.9,2.4,17.6
			C312.9,339.4,314.2,339.1,316,338.4z"/>
		<path class="st3" d="M344.7,269.3c-0.8-0.9-1.4-1.6-2.1-2.4c-5.4,4.2-10.6,8.2-16,12.3c0.7,0.9,1.2,1.6,1.9,2.6
			C334,277.5,339.2,273.5,344.7,269.3z"/>
		<path class="st3" d="M350.6,310.8c-0.1-0.5-0.2-0.4-0.8-0.6c-6.1-2.5-12.2-5-18.6-7.6c-0.4,1.2-0.6,2.1-0.9,3
			c5.8,2.4,12.7,5.3,18.3,7.4C349.4,313.3,350.1,311.7,350.6,310.8z"/>
		<path class="st3" d="M348.5,275.9c-5.4,4.2-10.6,8.1-15.7,12.2c-1.8,1.5-1,6.4,1.2,7.3c5.9,2.5,11.8,4.9,18.2,7.5
			C353.8,293.3,352.7,284.6,348.5,275.9z"/>
		<path class="st3" d="M304.1,250.1c-2.1,0.4-3.1,0.4-3,1.1c0.6,6.1,1.8,14.2,2.6,20.3c1.3-0.2,2.2-0.3,3.2-0.4
			C306,264.3,305.1,257.8,304.1,250.1z"/>
		<path class="st3" d="M345.1,319.9c-6.4-2.6-12.5-5.1-18.5-7.5c-1.6-0.6-5.8,2.5-5.6,4.2c0.8,6.6,1.7,13.1,2.7,20
			C332.7,333.2,339.6,328,345.1,319.9z"/>
		<path class="st3" d="M312.1,251c0.9,6.8,1.7,13.3,2.7,19.7c0.3,2,5.2,3.9,6.7,2.7c5.2-3.9,10.3-7.9,15.8-12.2
			C329.7,255.1,321.7,251.7,312.1,251z"/>
		<path class="st5" d="M369.7,289.4c-0.1-0.9-0.2-1.9-0.3-2.8c-0.1-0.8-0.2-1.6-0.4-2.4c-1.4,0-2.8-0.1-4.2-0.1
			c-0.3-1.3-0.6-2.7-0.9-4c1.3-0.6,2.8-0.9,3.8-1.9c-0.5-1.6-1-3.3-1.6-4.8c-1.3-0.3-2.8,0.4-4.2,0.7c-0.5-1.3-1-2.5-1.6-3.8
			c1.1-0.9,2.3-1.7,3.3-2.6c-0.7-1.5-1.5-2.9-2.3-4.3c-0.7-0.1-1.8,0.3-3.5,0.9c-0.2,0.1-0.4,0.2-0.6,0.3c-0.7-1.2-1.5-2.3-2.3-3.4
			c0.9-1,1.8-2,2.8-3.1c-1.1-1.4-2.2-2.8-3.4-4.2c-1.1,0.7-2.1,1.5-3.1,1.9c-0.2,0.1-0.4,0.1-0.6,0.2c-0.8-0.9-1.7-1.8-2.6-2.7
			c0-0.1,0.1-0.3,0.1-0.4c0.5-1.1,1.2-2.1,1.9-3.3c-1.3-1.2-2.7-2.3-4.1-3.4c-1.1,1-2.1,1.9-3.1,2.8c-1.1-0.8-2.3-1.6-3.5-2.4
			c0.6-1.3,1.5-2.6,1.4-4c-1.4-0.9-2.8-1.6-4.3-2.4c-1.3,1.4-2.2,2.4-2.9,3.2c-1.2-0.6-2.4-1.1-3.6-1.6c0.2-1.4,0.5-2.7,0.8-4.2
			c-1.6-0.6-3.2-1.2-4.9-1.7c-0.7,1.3-1.3,2.5-1.9,3.7c-1.4-0.4-2.8-0.7-4.2-1c0.1-1.5,0.4-3.1-0.4-4.3c-1.5-0.3-3.1-0.5-4.6-0.7
			c-0.4,1.5-0.6,2.7-1.1,3.8c0,0.1-0.1,0.1-0.1,0.2c-1.3-0.1-2.7-0.2-4-0.2c0,0,0,0,0,0c-0.5-2.3-0.8-3.6-1.4-4.1
			c-1.2,0-2.5,0.1-3.7,0.1c-0.3,0.1-0.6,0.1-0.9,0.2c-0.1,1.3-0.1,2.7-0.4,4c-0.8,0.1-1.5,0.1-2.3,0.3c-0.7,0.1-1.3,0.2-2,0.3
			c-0.6-1.2-1.1-2.6-1.6-3.9c-1.5,0.3-3,0.6-4.5,1c-0.5,1.3-0.1,2.8,0.1,4.3c-1.4,0.4-2.8,0.9-4.2,1.4c-0.8-1.2-1.5-2.4-2.2-3.6
			c-1.6,0.6-3.1,1.3-4.6,2c0.4,1.8,0.7,3.1,0.9,4.1c-1.3,0.6-2.5,1.3-3.7,2c-0.9-1-1.9-2-2.8-3.1c-1.4,0.9-2.8,1.8-4.2,2.8
			c0.8,1.7,1.3,2.9,1.7,3.9c-1.2,0.9-2.3,1.8-3.4,2.8c-1-0.9-2-1.9-3-2.8c-1.3,1.2-2.6,2.5-3.9,3.8c0.9,1.2,1.7,2.3,2.5,3.4
			c-0.9,1-1.8,2.1-2.7,3.2c-1.2-0.6-2.5-1.2-3.8-1.9c-1.1,1.4-2.1,2.8-3,4.3c1.1,1,2.1,1.9,3.1,2.9c-0.7,1.2-1.4,2.5-2.1,3.8
			c-1.4-0.5-2.8-1.3-4.2-0.9c-0.7,1.4-1.4,2.9-1.9,4.4c1.1,0.7,2,1.3,2.9,1.8c0.2,0.1,0.4,0.3,0.6,0.4c-0.5,1.3-0.9,2.6-1.3,3.9
			c0,0,0,0,0,0c-2.3-0.3-3.6-0.4-4.3,0.1c-0.4,1.3-0.7,2.6-0.9,3.9c0,0.3,0,0.6,0,0.9c1.2,0.5,2.6,0.8,3.8,1.5
			c-0.2,1.3-0.4,2.6-0.6,4c-2.4,0.2-3.6,0.3-4.2,0.8c-0.1,1.5-0.2,2.9-0.2,4.4c0,0.1,0,0.1,0,0.2c1,1,2.6,0.9,4.1,1
			c0,1.4,0.1,2.8,0.2,4.2c-1.3,0.4-2.6,0.8-4,1.2c0.1,0.8,0.1,1.5,0.3,2.3c0.1,1,0.3,1.9,0.5,2.8c1.5,0.1,2.9,0.1,4.2,0.1
			c0.3,1.4,0.6,2.7,1,4.1c-1.4,0.6-3,0.8-3.7,2c0.5,1.6,1,3.1,1.6,4.6c0.8,0.4,2,0.1,4.2-0.4c0.5,1.3,1.1,2.5,1.6,3.7
			c-1.1,0.9-2.3,1.7-3.4,2.5c0.7,1.4,1.5,2.8,2.3,4.2c0.9,0.4,2-0.1,4.2-1c0.7,1.1,1.5,2.3,2.3,3.3c-0.9,1.1-1.9,2.1-2.8,3.1
			c1,1.3,2,2.6,3.1,3.8c0.8,0.1,1.9-0.5,3.7-1.7c0.1,0,0.1-0.1,0.2-0.1c0.9,1,1.9,2,2.9,2.9c-0.7,1.2-1.4,2.4-2.2,3.6
			c1.3,1.2,2.7,2.4,4.1,3.4c1.1-1,2.1-1.9,3.1-2.8c1.1,0.8,2.2,1.6,3.4,2.3c-0.5,1.3-1.5,2.6-1.5,3.9c1.4,0.8,2.8,1.6,4.2,2.3
			c1.1-0.8,2.1-1.9,3-3.1c1.2,0.6,2.4,1.1,3.6,1.6c-0.3,1.4-1,2.8-0.9,4.1c1.7,0.6,3.4,1.2,5.1,1.7c0.7-1.3,1.3-2.5,1.9-3.7
			c1.3,0.3,2.5,0.6,3.8,0.9c0,0.2,0,0.3,0,0.5c0,1.9,0.1,3,0.3,3.7c1.7,0.3,3.4,0.5,5.1,0.7c0.4-1.3,0.8-2.7,1.2-4
			c1.3,0.1,2.6,0.2,3.9,0.2c0.4,1.3,0.3,2.9,0.9,4.1c1.7,0,3.4-0.1,5-0.2c0.7-1.2,0.4-2.8,0.5-4.2c0.6-0.1,1.3-0.1,1.9-0.2
			c0.7-0.1,1.4-0.2,2-0.3c0.6,1.4,1.1,2.7,1.6,3.9c1.7-0.3,3.4-0.7,5.1-1.2c0.2-0.7,0.1-1.9-0.1-3.7c0-0.2-0.1-0.4-0.1-0.6
			c1.2-0.4,2.4-0.8,3.6-1.2c0.8,1.2,1.5,2.4,2.2,3.6c1.7-0.6,3.3-1.3,4.9-2.1c0.1-0.8-0.3-2-1-3.9c0-0.1,0-0.1-0.1-0.2
			c1.2-0.6,2.3-1.2,3.4-1.9c1,1,1.9,2.1,2.8,3.1c1.5-0.9,3-1.9,4.4-3c-0.1-0.7-0.6-1.7-1.4-3.2c-0.1-0.2-0.3-0.5-0.4-0.7
			c1-0.8,2.1-1.6,3-2.5c1.1,0.8,2.1,1.7,3.2,2.7c1.4-1.3,2.7-2.6,4-4c-0.5-1.3-1.8-2.2-2.6-3.3c0.9-1,1.8-2,2.6-3.1
			c1.3,0.6,2.5,1.3,3.8,1.9c1.1-1.5,2.1-3,3.1-4.5c-1.1-1-2.2-1.9-3.1-2.8c0.7-1.1,1.3-2.2,1.9-3.4c1.3,0.3,2.7,0.7,4.1,1.1
			c0.8-1.6,1.6-3.3,2.2-5c-1.2-0.8-2.4-1.6-3.6-2.2c0.5-1.2,0.9-2.5,1.3-3.7c2.1,0.1,3.5,0.1,4.4-0.2c0.4-1.5,0.8-3.1,1.1-4.7
			c-1.3-0.5-2.6-1.1-3.9-1.6c0.2-1.3,0.4-2.6,0.6-3.9c1.4-0.1,3,0.3,4.2-0.3c0.2-1.7,0.3-3.3,0.3-5c-0.6-0.5-1.8-0.8-4-1.2
			c-0.1,0-0.1,0-0.2,0c0-1.3-0.1-2.6-0.1-3.9C367.1,290.2,368.4,289.8,369.7,289.4z M310.2,319.2c1-0.3,2-0.5,3.1-0.8
			c0.9,6.8,1.8,13.3,2.7,20c-1.8,0.7-3.1,1-3.4-1.6C311.9,331.1,311.1,325.3,310.2,319.2z M309.9,304.1c-5,0.7-9.5-2.7-10.3-7.6
			c-0.8-5.1,2.7-9.8,7.8-10.5c4.9-0.7,9.6,2.8,10.4,7.6C318.7,298.5,315,303.4,309.9,304.1z M285,283.5c1.9,0.8,2.7,1.7,0.9,3.9
			c-6.2-2.5-12.3-5-18.5-7.6c0.2-2.4,1-3.2,3.3-2.2C275.4,279.7,280.2,281.6,285,283.5z M272.1,270.1c5.5-7.9,12.4-13.3,21.6-16.6
			c0.9,7,2.2,13.4,2.4,19.8c0,1.4-4,4.6-5.3,4.2C284.5,275.6,278.5,272.7,272.1,270.1z M283.7,294.8c2,0.9,2.4,5.9,0.6,7.3
			c-5,4-10.1,7.9-15.6,12.1c-4-8.9-5.1-17.6-3.7-27.1C271.6,289.8,277.7,292.2,283.7,294.8z M288.7,308.5c1.8,1.2,2.4,2.3,0.3,3.9
			c-4.7,3.5-9.2,7-14.2,10.9c-0.7-0.9-1.3-1.5-2.1-2.4C278.1,316.7,283.3,312.6,288.7,308.5z M295.8,316.7c1.9-1.4,6.6,0.8,7,3.3
			c0.9,6.1,1.7,12.2,2.6,19c-9.7-0.5-17.7-4.2-25.3-10.2C285.5,324.6,290.6,320.6,295.8,316.7z M301.1,251.2c-0.1-0.7,0.9-0.7,3-1.1
			c1,7.7,1.9,14.3,2.8,21c-1,0.1-1.9,0.3-3.2,0.4C302.9,265.3,301.7,257.3,301.1,251.2z M321.5,273.5c-1.5,1.2-6.4-0.8-6.7-2.7
			c-1-6.4-1.8-12.9-2.7-19.7c9.5,0.7,17.6,4.1,25.2,10.3C331.8,265.5,326.7,269.5,321.5,273.5z M342.5,266.9
			c0.7,0.8,1.4,1.5,2.1,2.4c-5.5,4.2-10.7,8.2-16.2,12.5c-0.7-0.9-1.2-1.7-1.9-2.6C331.9,275.1,337.1,271.1,342.5,266.9z
			 M321.1,316.6c-0.2-1.7,4-4.8,5.6-4.2c6.1,2.4,12.1,4.9,18.5,7.5c-5.5,8.1-12.4,13.3-21.4,16.7
			C322.8,329.7,321.8,323.2,321.1,316.6z M330.3,305.6c0.3-1,0.6-1.9,0.9-3c6.4,2.6,12.5,5.1,18.6,7.6c0.6,0.2,0.7,0.2,0.8,0.6
			c-0.5,0.9-1.2,2.5-2.1,2.2C343,310.9,336.1,308,330.3,305.6z M334,295.4c-2.2-0.9-3-5.8-1.2-7.3c5.1-4.1,10.2-8,15.7-12.2
			c4.2,8.7,5.4,17.4,3.7,27C345.8,300.3,339.9,297.9,334,295.4z"/>
	</g>
	<path class="st6" d="M212.4,258c3.4-0.6,5.3,0.5,4,4.1c-0.8,2.1-0.5,3.2,1.3,4.5c2.2,1.6,3.3,0.4,4.5-1.1c1.1-1.3,2.2-2.2,4-0.7
		c1.7,1.5,1.2,2.6,0.1,4c-1.1,1.5-1.9,2.8-0.2,4.7c2,2.2,3.6,1.2,5.1,0c1.5-1.2,2.5-0.8,3.5,0.6c1.1,1.4,0.9,2.5-0.4,3.7
		c-1.5,1.3-3.1,2.3-1.7,5c1.5,2.7,3.3,1.7,5.1,1.2c1.4-0.4,2.4,0,2.9,1.3c0.7,1.5,0.5,2.8-1.2,3.5c-2,0.8-3.5,1.6-2.9,4.4
		c0.5,2.7,2.3,2.3,4,2.5c1.4,0.1,2.8,0.1,3,2.1c0.2,2.1-0.8,3-2.7,3.2c-2,0.2-3.4,0.6-3.2,3.2c0.1,1.9,0.7,3,2.7,3.3
		c2,0.3,3.4,1.1,2.8,3.6c-0.5,2.3-2.1,2-3.8,1.7c-1.8-0.4-3-0.1-3.6,2c-0.7,2.2-0.2,3.4,1.8,4.3c1.4,0.7,2.9,1.4,2,3.7
		c-1,2.6-2.6,1.9-4.4,1.2c-1.6-0.7-2.9-0.6-4,1.2c-1.3,2-0.9,3.3,0.8,4.6c1.5,1.1,2,2.4,0.6,4.1c-1.5,1.9-2.8,1-4-0.1
		c-1.7-1.4-3.1-1.4-4.7,0.2c-1.4,1.4-1.5,2.6-0.3,4.2c1,1.3,1.8,2.6-0.1,4.1c-2.2,1.8-3.3,0.3-4.4-1.2c-1.2-1.6-2.5-1.6-4.2-0.8
		c-1.9,0.9-2,2.2-1.5,3.9c0.5,1.8,1,3.4-1.6,4.2c-2.4,0.8-2.7-1.1-3.4-2.4c-0.8-1.4-1.3-3-3.5-2.1c-1.9,0.7-3.3,1.3-3,3.7
		c0.2,1.4,0.7,3.2-1.9,3.6c-2.8,0.4-3.1-1.3-3.2-3.2c-0.1-2.5-1.6-2.8-3.6-3c-2.4-0.3-2.6,1.3-3.1,2.8c-0.5,1.4-0.3,3.3-2.9,2.9
		c-2.7-0.4-2.6-2.1-2.4-3.9c0.2-1.9-0.5-3-2.3-3.6c-2-0.6-3,0.1-3.8,1.8c-0.8,1.6-1.6,3.2-4.1,1.9c-2.3-1.2-1.4-2.7-0.8-4
		c0.7-1.8,0.7-2.9-1.1-4c-1.9-1.2-3.3-0.9-4.7,0.7c-1.1,1.3-2.2,2.2-4,0.7c-1.7-1.4-1.3-2.6-0.2-4c1.2-1.5,1.7-2.9,0-4.7
		c-1.8-1.8-3.2-1.2-4.7-0.1c-1.3,1-2.4,1.3-3.6-0.2c-1.3-1.6-1.1-2.9,0.5-4.1c1.9-1.3,2.5-2.7,1.2-5.1c-1.4-2.6-3-1.4-4.5-0.9
		c-1.5,0.4-2.6,0.5-3.4-1.2c-0.8-2-0.1-3.1,1.7-3.7c2-0.7,2.9-1.7,2.5-4c-0.4-2.6-1.9-2.6-3.8-2.5c-1.9,0.1-3.1-0.5-3.2-2.7
		c-0.1-2,1.2-2.3,2.6-2.7c1.8-0.4,3.4-0.5,3.3-3.2c-0.1-2.4-1.2-3.1-3.2-3.5c-1.5-0.3-2.6-1-2.4-2.8c0.3-2.1,1.7-2.6,3.5-2.3
		c2.1,0.4,3.2-0.2,4-2.4c0.9-2.5-0.6-3.3-2.3-4.1c-1.8-0.9-2.2-2.1-1.4-3.9c1-2.2,2.4-1.5,4-0.9c1.5,0.7,2.9,1.1,4-0.8
		c1-1.8,1.5-3.2-0.4-4.7c-1.5-1.2-2.7-2.3-1-4.4c1.9-2.3,3.3-0.5,4.5,0.5c1.6,1.2,2.8,1.1,4.1-0.4c1.2-1.3,1.9-2.4,0.6-4.2
		c-1-1.4-2.1-2.9,0.2-4.5c2.5-1.8,3.2,0.4,4.2,1.6c1.4,1.7,2.7,1,4.2,0.4c1.8-0.7,1.6-1.9,1.4-3.4c-0.2-1.3-1.8-3.3,0.8-4
		c1.5-0.4,2.6-0.3,4,1.3c2,2.3,4.9,3.6,5.7-1.6c0.2-1.4,1.2-2.9,3.3-3c2.5-0.2,2.6,1.4,2.8,3c0.3,2.2,1.5,2.9,3.7,3.1
		c2.3,0.2,2.5-1.4,3.1-2.9c0.5-1.4,0.2-3.2,2.8-2.9c2.8,0.3,2.4,2.1,2.7,3.8c-1.2,2.9,0.9,3.5,2.9,3.9
		C211.7,262.8,211.2,259.5,212.4,258z M226.3,317.8c-0.6-6.1-6.7-10.9-12.8-10.2c-6,0.7-10.5,6.4-9.9,12.4c0.6,6.2,6.7,11,12.7,10.3
		C222,329.5,226.9,323.5,226.3,317.8z M164.2,287.5c0.7,6.2,5.9,10.6,12,10.1c6.2-0.5,11-6.4,10.3-12.6c-0.7-5.9-6.4-10.6-12.2-10.1
		C168,275.4,163.5,281.1,164.2,287.5z M222.4,281.6c-0.7-6.2-5.9-10.7-12-10.2c-6.2,0.5-10.9,6.3-10.3,12.6
		c0.6,6,6.1,10.6,12.1,10.1C218.6,293.5,223.2,288,222.4,281.6z M177.7,311.2c-6.1,0.6-10.6,6-10.1,12.1c0.5,6.4,6,11.2,12.3,10.6
		c6.1-0.6,10.9-6.7,10.2-12.8C189.4,315.2,183.6,310.6,177.7,311.2z M204.9,301.2c-0.6-5.4-5.7-9.4-11.1-8.8
		c-5.4,0.6-9.2,5.6-8.6,11.2c0.6,5.5,5.3,9.5,10.8,9.1C201.6,312.2,205.6,307.1,204.9,301.2z M197.1,324.8c-3.8,1.2-6.6,3.5-6.2,7.7
		c0.4,4.3,3.5,7,7.8,6.5c4-0.4,6.5-3.4,6.2-7.5C204.5,327.1,201.5,325,197.1,324.8z M192.6,280.3c4.2-0.7,6.5-3.1,6.6-7.3
		c0-3.8-4-7.3-7.8-6.6c-4.2,0.7-6.6,3.5-6.2,7.6C185.7,277.9,188.3,280.3,192.6,280.3z M217.5,300.5c0.8,4.4,3.7,6.6,7.7,6.2
		c4.4-0.5,6.7-3.7,6-8.1c-0.7-4.1-3.7-6.2-7.9-5.6C219.1,293.6,217.4,296.5,217.5,300.5z M164.6,298.6c-3.7,0.9-6.2,3.3-5.7,7.6
		c0.4,4.2,3.2,6.6,7.4,6.2c4.5-0.4,6.9-3.5,6.3-7.9C172,300.3,169.2,298.3,164.6,298.6z"/>
	<g>
		<path class="st3" d="M213.7,216.7c-2.2,0.2-3.6,1.3-3.6,3.5c-0.1,2.2,1.4,3.6,3.4,3.7c2.2,0.1,3.9-1.3,3.8-3.7
			C217.2,218.1,215.9,216.8,213.7,216.7z"/>
		<path class="st3" d="M219.6,231.5c-1.9,0.5-3.3,1.6-3.2,3.9c0.1,2.2,1.3,3.4,3.6,3.4c2.3,0,3.6-1.5,3.6-3.5
			C223.6,233.2,221.9,231.9,219.6,231.5z"/>
		<path class="st3" d="M271.1,223.3c-2.1-0.2-2.6,1.1-2.7,2.7c-0.1,1.5-1.2,3.3,1.2,4.1c0.5,0.2,0.9,0.4,1.2,0.6
			c0.7-2.4,1.2-4.8,1.4-7.4C271.9,223.3,271.6,223.3,271.1,223.3z"/>
		<path class="st3" d="M252.3,250.8c-0.2,0.7,0.1,1.3,0.6,1.7c0,0.1,0,0.2,0,0.3c2.2-1.2,4.2-2.6,6.1-4.2c-0.1-0.1-0.3-0.1-0.4-0.2
			C256.2,246.5,254.5,247.1,252.3,250.8z"/>
		<path class="st3" d="M235.1,202.6c2.1-0.1,3.4-1.4,3.4-4.3c-0.2-1.6-1.4-3-3.6-3c-2.1,0-3.7,1.4-3.7,3.5
			C231.2,201.2,232.7,202.8,235.1,202.6z"/>
		<path class="st3" d="M266.7,236.6c-1.8-0.8-5.3,3.8-3.9,5.2c0.7,0.7,1,1.3,1.1,1.8c1.7-2.1,3.1-4.3,4.4-6.7
			C267.8,237,267.3,236.9,266.7,236.6z"/>
		<path class="st3" d="M243.5,253.4c-1.6,0.6-4.4-0.4-4.6,2.6c0,0.5-0.1,0.9-0.3,1.2c2.7-0.3,5.3-0.8,7.8-1.6
			C245.8,254.3,245.5,252.6,243.5,253.4z"/>
		<path class="st3" d="M256.2,216.7c-2.5,0-3.8,1.5-3.7,3.8c0.1,2.2,1.6,3.5,3.8,3.4c2.2-0.1,3.3-1.5,3.5-3.7
			C259.5,218.2,258.6,216.7,256.2,216.7z"/>
		<path class="st3" d="M250.2,231.7c-2.2-0.1-3.9,1.2-3.9,3.7c0,2.2,1.3,3.4,3.3,3.5c2.6,0,3.9-1.4,4-3.4
			C253.7,233.4,252.3,231.7,250.2,231.7z"/>
		<path class="st3" d="M269.7,209.1c-2.8,1-1.4,2.9-1.4,4.6c0,2,1.2,2.5,2.8,2.5c0.4,0,0.8,0.1,1.1,0.1c-0.3-2.7-0.8-5.2-1.6-7.7
			C270.4,208.8,270.1,209,269.7,209.1z"/>
		<path class="st3" d="M249.7,208.8c2.3,0.2,3.4-1.2,3.9-3.2c-0.1-2.1-1.2-3.7-3.3-3.9c-2.1-0.3-3.7,0.8-3.9,3.1
			C246.2,207.1,247.3,208.6,249.7,208.8z"/>
		<path class="st3" d="M234.7,212.1c-4.3,0.1-7.8,3.8-7.8,8.2c0,4.5,3.4,8,7.9,8c4.6,0.1,8.4-3.6,8.4-8
			C243,215.9,239.1,212,234.7,212.1z"/>
		<path class="st3" d="M235.1,237.9c-2.4-0.1-3.8,1.4-3.8,3.7c0,2.1,1.4,3.5,3.6,3.5c2.2,0,3.4-1.3,3.6-3.5
			C238.4,239.5,237.3,238.1,235.1,237.9z"/>
		<path class="st3" d="M220.1,201.6c-2.1-0.1-3.6,1-3.7,3.3c-0.2,2.5,1.2,3.8,3.5,3.9c2.3,0.1,3.2-1.6,3.8-3.5
			C223.3,203.3,222.3,201.7,220.1,201.6z"/>
		<path class="st3" d="M201.7,212.9c0.6-1.4,0.3-2.7-1.3-3.2c-0.5-0.2-0.9-0.4-1.1-0.7c-0.8,2.5-1.3,5.2-1.5,7.9
			c0.3-0.1,0.7-0.2,1.3-0.2C201.8,216.8,201.1,214.3,201.7,212.9z"/>
		<path class="st3" d="M202.9,203.1c3,1,3.3-1.6,4.5-2.9c1.3-1.3,0.5-2.3-0.5-3.4c-0.3-0.3-0.5-0.6-0.6-0.8
			c-1.8,2.1-3.3,4.4-4.6,6.9C202,202.9,202.4,203,202.9,203.1z"/>
		<path class="st3" d="M200.4,230.8c2-0.7,1.7-2.2,1.1-3.6c-0.5-1.4,0.1-3.8-2.7-3.7c-0.5,0-0.8,0-1.1-0.1c0.2,2.8,0.8,5.5,1.6,8.1
			C199.6,231.2,199.9,231,200.4,230.8z"/>
		<path class="st3" d="M224.4,185.4c0.7,2.2,2.2,1.8,3.8,1.5c1.7-0.3,3.2-0.5,3.1-2.7c0-0.6,0.1-1.1,0.2-1.4
			c-2.7,0.2-5.3,0.7-7.8,1.5C224.1,184.5,224.3,184.9,224.4,185.4z"/>
		<path class="st3" d="M225.1,254.5c-0.4,0.6-0.7,1-1.1,1.3c2.6,0.8,5.3,1.3,8.1,1.5c-0.2-0.3-0.4-0.8-0.4-1.5
			C231.5,253.6,226.3,252.6,225.1,254.5z"/>
		<path class="st3" d="M211.9,191.9c1.6,2,2.9,0.7,4.4-0.1c1.7-0.9,2.3-2.1,1.5-3.9c-0.2-0.4-0.2-0.7-0.3-0.9
			c-2.3,1.2-4.4,2.6-6.4,4.3C211.4,191.4,211.6,191.6,211.9,191.9z"/>
		<path class="st3" d="M263,201.1c1,1.5,1.9,2.6,3.8,1.6c0.4-0.2,0.7-0.3,1-0.4c-1.2-2.2-2.6-4.3-4.2-6.3c-0.2,0.3-0.4,0.6-0.7,0.9
			C261.3,198.4,262,199.6,263,201.1z"/>
		<path class="st3" d="M218.3,251.7c1-2.7-2-2.2-3-3.4c-0.8-1-1.9-1.6-3-0.3c-0.4,0.5-0.7,0.7-1.1,0.9c2.1,1.7,4.4,3.2,6.9,4.5
			C218,253,218,252.4,218.3,251.7z"/>
		<path class="st3" d="M238.5,184.2c-0.2,1.9,1.2,2.4,2.9,2.7c1.7,0.3,3.3,0.6,3.9-1.5c0.2-0.5,0.4-0.9,0.6-1.1
			c-2.4-0.7-4.9-1.2-7.5-1.5C238.5,183.1,238.6,183.6,238.5,184.2z"/>
		<path class="st3" d="M251.9,188.2c-1.1,2.2,0.4,2.7,1.8,3.6c1.4,0.9,2.6,2,4,0.2c0.4-0.4,0.7-0.7,1-0.9c-2-1.6-4.2-3.1-6.5-4.3
			C252.3,187.2,252.2,187.7,251.9,188.2z"/>
		<path class="st3" d="M206.7,239.4c-0.9-1.2-1.3-3.1-3.6-2.2c-0.5,0.2-0.8,0.3-1.1,0.3c1.3,2.4,2.8,4.6,4.5,6.6
			c0.1-0.3,0.3-0.6,0.7-1C208.7,241.6,207.5,240.6,206.7,239.4z"/>
		<path class="st3" d="M219.6,231.5c-1.9,0.5-3.3,1.6-3.2,3.9c0.1,2.2,1.3,3.4,3.6,3.4c2.3,0,3.6-1.5,3.6-3.5
			C223.6,233.2,221.9,231.9,219.6,231.5z"/>
		<path class="st3" d="M220.1,201.6c-2.1-0.1-3.6,1-3.7,3.3c-0.2,2.5,1.2,3.8,3.5,3.9c2.3,0.1,3.2-1.6,3.8-3.5
			C223.3,203.3,222.3,201.7,220.1,201.6z"/>
		<path class="st3" d="M213.7,216.7c-2.2,0.2-3.6,1.3-3.6,3.5c-0.1,2.2,1.4,3.6,3.4,3.7c2.2,0.1,3.9-1.3,3.8-3.7
			C217.2,218.1,215.9,216.8,213.7,216.7z"/>
		<path class="st3" d="M249.7,208.8c2.3,0.2,3.4-1.2,3.9-3.2c-0.1-2.1-1.2-3.7-3.3-3.9c-2.1-0.3-3.7,0.8-3.9,3.1
			C246.2,207.1,247.3,208.6,249.7,208.8z"/>
		<path class="st3" d="M235.1,237.9c-2.4-0.1-3.8,1.4-3.8,3.7c0,2.1,1.4,3.5,3.6,3.5c2.2,0,3.4-1.3,3.6-3.5
			C238.4,239.5,237.3,238.1,235.1,237.9z"/>
		<path class="st3" d="M235.1,202.6c2.1-0.1,3.4-1.4,3.4-4.3c-0.2-1.6-1.4-3-3.6-3c-2.1,0-3.7,1.4-3.7,3.5
			C231.2,201.2,232.7,202.8,235.1,202.6z"/>
		<path class="st3" d="M234.7,212.1c-4.3,0.1-7.8,3.8-7.8,8.2c0,4.5,3.4,8,7.9,8c4.6,0.1,8.4-3.6,8.4-8
			C243,215.9,239.1,212,234.7,212.1z"/>
		<path class="st3" d="M252.6,220.5c0.1,2.2,1.6,3.5,3.8,3.4c2.2-0.1,3.3-1.5,3.5-3.7c-0.4-2.1-1.3-3.6-3.6-3.6
			C253.7,216.7,252.5,218.2,252.6,220.5z"/>
		<path class="st3" d="M250.2,231.7c-2.2-0.1-3.9,1.2-3.9,3.7c0,2.2,1.3,3.4,3.3,3.5c2.6,0,3.9-1.4,4-3.4
			C253.7,233.4,252.3,231.7,250.2,231.7z"/>
		<path class="st7" d="M246.4,255.6c2.3-0.7,4.5-1.7,6.6-2.8c0-0.1,0-0.2,0-0.3c-0.5-0.5-0.9-1-0.6-1.7c0.1-0.2,0.3-0.4,0.4-0.6
			c-2.3,1.4-4.9,2.5-7.5,3.3C245.8,253.9,246,254.8,246.4,255.6z"/>
		<path class="st7" d="M224.4,185.4c-0.2-0.5-0.3-0.8-0.6-1.1c-2.2,0.7-4.3,1.6-6.4,2.6c0,0.3,0.1,0.6,0.3,0.9
			c0.2,0.5,0.3,1,0.3,1.5c2.2-1.2,4.4-2.1,6.8-2.9C224.8,186.2,224.6,185.9,224.4,185.4z"/>
		<path class="st7" d="M202.9,203.1c-0.5-0.2-0.8-0.2-1.1-0.2c-1,1.9-1.8,3.9-2.5,6c0.2,0.3,0.6,0.5,1.1,0.7c0.4,0.2,0.8,0.4,1,0.6
			c0.7-2.4,1.7-4.7,2.8-6.9C203.8,203.4,203.4,203.3,202.9,203.1z"/>
		<path class="st7" d="M262.1,198c0.1-0.3,0.4-0.7,0.8-1.1c0.4-0.3,0.6-0.6,0.7-0.9c-1.5-1.8-3.1-3.4-4.9-4.9
			c-0.3,0.2-0.7,0.4-1,0.9c-0.3,0.4-0.5,0.6-0.8,0.8C258.8,194.3,260.6,196.1,262.1,198z"/>
		<path class="st7" d="M200.4,230.8c-0.5,0.2-0.8,0.4-1,0.6c0.7,2.1,1.5,4.1,2.6,6.1c0.3,0,0.7-0.1,1.1-0.3c0.5-0.2,1-0.3,1.3-0.2
			c-1.2-2.2-2.2-4.5-2.9-6.9C201.3,230.4,200.9,230.6,200.4,230.8z"/>
		<path class="st7" d="M256.7,247.4c0.6,0.1,1.3,0.4,1.9,1c0.1,0.1,0.3,0.2,0.4,0.2c1.8-1.5,3.4-3.1,4.9-4.9
			c-0.1-0.5-0.4-1.1-1.1-1.8c-0.1-0.1-0.2-0.2-0.2-0.4C260.8,243.7,258.9,245.7,256.7,247.4z"/>
		<path class="st7" d="M238.6,185.2c-0.1-0.3-0.1-0.6-0.1-1c0.1-0.6,0-1.1-0.1-1.4c-1.1-0.1-2.2-0.2-3.4-0.2c-1.1,0-2.2,0.1-3.3,0.2
			c-0.2,0.3-0.3,0.8-0.2,1.4c0,0.4-0.1,0.8-0.1,1c1.2-0.1,2.5-0.2,3.7-0.2C236.2,185,237.4,185.1,238.6,185.2z"/>
		<path class="st7" d="M251.9,188.2c0.3-0.5,0.4-1,0.4-1.4c-2-1.1-4.1-1.9-6.4-2.6c-0.2,0.3-0.4,0.6-0.6,1.1c-0.1,0.5-0.3,0.8-0.6,1
			c2.4,0.7,4.7,1.6,6.8,2.8C251.6,188.9,251.7,188.6,251.9,188.2z"/>
		<path class="st7" d="M218.3,251.7c-0.3,0.7-0.3,1.2-0.2,1.7c1.9,0.9,3.8,1.7,5.9,2.4c0.4-0.2,0.7-0.6,1.1-1.3
			c0.2-0.3,0.5-0.5,0.8-0.7c-2.6-0.7-5.1-1.7-7.5-3C218.5,251.1,218.4,251.4,218.3,251.7z"/>
		<path class="st7" d="M213,192.8c-0.4-0.2-0.7-0.4-1.1-0.9c-0.3-0.3-0.5-0.6-0.8-0.7c-1.7,1.4-3.4,3.1-4.8,4.8
			c0.1,0.3,0.3,0.5,0.6,0.8c0.4,0.4,0.7,0.8,0.9,1.2C209.3,196.1,211.1,194.4,213,192.8z"/>
		<path class="st7" d="M272.2,216.3c-0.3-0.1-0.6-0.1-1.1-0.1c-0.5,0-1-0.1-1.4-0.2c0.1,1.3,0.2,2.6,0.2,4c0,1.2-0.1,2.3-0.2,3.4
			c0.4-0.1,0.8-0.2,1.3-0.1c0.5,0,0.8,0,1.1-0.1c0.1-1.1,0.1-2.1,0.1-3.2C272.4,218.8,272.3,217.5,272.2,216.3z"/>
		<path class="st7" d="M269.7,209.1c0.4-0.1,0.7-0.3,0.9-0.5c-0.7-2.2-1.6-4.3-2.7-6.3c-0.3,0-0.6,0.2-1,0.4c-0.5,0.3-1,0.4-1.3,0.4
			c1.2,2.1,2.2,4.4,2.9,6.8C268.7,209.6,269.1,209.3,269.7,209.1z"/>
		<path class="st7" d="M207.9,242.1c-0.1,0.3-0.3,0.7-0.7,1.1c-0.4,0.4-0.6,0.7-0.7,1c1.5,1.7,3.1,3.3,4.8,4.8
			c0.3-0.1,0.7-0.4,1.1-0.9c0.3-0.4,0.6-0.6,0.9-0.7C211.2,245.8,209.4,244,207.9,242.1z"/>
		<path class="st7" d="M231.2,254.8c0.3,0.3,0.5,0.6,0.5,1c0.1,0.7,0.2,1.2,0.4,1.5c0.9,0.1,1.9,0.1,2.9,0.1c1.2,0,2.4-0.1,3.6-0.2
			c0.2-0.3,0.3-0.7,0.3-1.2c0-0.6,0.2-1,0.4-1.3c-1.4,0.2-2.8,0.3-4.3,0.3C233.7,255,232.5,254.9,231.2,254.8z"/>
		<path class="st7" d="M266.7,236.6c0.6,0.3,1.2,0.4,1.6,0.4c1-2,1.9-4.2,2.6-6.4c-0.3-0.2-0.6-0.4-1.2-0.6c-0.5-0.1-0.8-0.3-1-0.6
			c-0.7,2.5-1.7,4.9-2.9,7.2C266.1,236.5,266.4,236.5,266.7,236.6z"/>
		<path class="st7" d="M200.2,216.5c-0.3,0.1-0.7,0.2-1.1,0.2c-0.6,0-1,0.1-1.3,0.2c-0.1,1-0.1,2.1-0.1,3.2c0,1.1,0.1,2.3,0.2,3.4
			c0.3,0.1,0.6,0.2,1.1,0.1c0.6,0,1,0.1,1.3,0.2c-0.1-1.2-0.2-2.5-0.2-3.7C200,218.8,200.1,217.6,200.2,216.5z"/>
		<path class="st7" d="M235,187.8c-17.7,0-32.2,14.4-32.2,32.2c0,17.7,14.4,32.2,32.2,32.2s32.2-14.4,32.2-32.2
			C267.1,202.3,252.7,187.8,235,187.8z M246.4,204.7c0.3-2.3,1.9-3.3,3.9-3.1c2.1,0.3,3.2,1.8,3.3,3.9c-0.6,2-1.6,3.5-3.9,3.2
			C247.3,208.6,246.2,207.1,246.4,204.7z M234.9,195.4c2.2,0,3.4,1.4,3.6,3c0,2.9-1.3,4.2-3.4,4.3c-2.4,0.1-3.9-1.4-3.9-3.7
			C231.2,196.8,232.8,195.4,234.9,195.4z M213.5,223.9c-2-0.1-3.5-1.5-3.4-3.7c0.1-2.2,1.4-3.4,3.6-3.5c2.2,0.1,3.6,1.4,3.6,3.5
			C217.3,222.6,215.7,224,213.5,223.9z M219.9,238.9c-2.3,0-3.5-1.2-3.6-3.4c-0.1-2.3,1.3-3.3,3.2-3.9c2.4,0.3,4,1.6,4,3.8
			C223.5,237.4,222.2,238.9,219.9,238.9z M219.9,208.8c-2.3-0.1-3.7-1.4-3.5-3.9c0.2-2.3,1.7-3.4,3.7-3.3c2.2,0.1,3.2,1.6,3.5,3.7
			C223.1,207.3,222.2,208.9,219.9,208.8z M234.9,245.2c-2.2,0-3.6-1.5-3.6-3.5c0-2.3,1.4-3.8,3.8-3.7c2.2,0.1,3.3,1.5,3.4,3.8
			C238.3,243.8,237.1,245.2,234.9,245.2z M234.7,228.3c-4.5-0.1-7.9-3.5-7.9-8c0-4.4,3.5-8.1,7.8-8.2c4.3-0.1,8.3,3.8,8.4,8.2
			C243.2,224.7,239.3,228.4,234.7,228.3z M249.6,238.9c-1.9-0.1-3.2-1.3-3.3-3.5c0-2.5,1.7-3.8,3.9-3.7c2.1,0.1,3.5,1.7,3.4,3.8
			C253.5,237.5,252.2,238.9,249.6,238.9z M259.9,220.3c-0.2,2.2-1.4,3.6-3.5,3.7c-2.1,0.1-3.7-1.3-3.8-3.4c-0.1-2.3,1.2-3.8,3.7-3.8
			C258.6,216.7,259.5,218.2,259.9,220.3z"/>
		<path class="st7" d="M269.7,216c-0.2-2.1-0.7-4.2-1.3-6.2c-0.7-2.4-1.7-4.7-2.9-6.8c-1-1.8-2.1-3.5-3.4-5.1
			c-1.6-1.9-3.3-3.6-5.2-5.2c-1.7-1.3-3.5-2.5-5.4-3.6c-2.1-1.2-4.4-2.1-6.8-2.8c-2-0.6-4-1-6.1-1.2c-1.2-0.1-2.4-0.2-3.6-0.2
			c-1.3,0-2.5,0.1-3.7,0.2c-2.1,0.2-4.2,0.7-6.3,1.3c-2.4,0.7-4.7,1.7-6.8,2.9c-1.8,1-3.5,2.2-5.2,3.5c-1.9,1.5-3.7,3.3-5.2,5.2
			c-1.3,1.7-2.5,3.4-3.6,5.3c-1.2,2.2-2.1,4.5-2.8,6.9c-0.6,2-1,4.1-1.2,6.2c-0.1,1.2-0.2,2.3-0.2,3.5c0,1.3,0.1,2.5,0.2,3.7
			c0.2,2.2,0.7,4.3,1.3,6.4c0.7,2.4,1.7,4.7,2.9,6.9c1,1.8,2.1,3.5,3.4,5c1.6,2,3.4,3.7,5.4,5.3c1.6,1.3,3.4,2.5,5.3,3.5
			c2.3,1.3,4.9,2.3,7.5,3c1.7,0.5,3.5,0.8,5.2,1c1.2,0.1,2.5,0.2,3.8,0.2c1.4,0,2.9-0.1,4.3-0.3c2-0.2,4-0.7,5.9-1.3
			c2.7-0.8,5.2-1.9,7.5-3.3c1.4-0.8,2.7-1.7,4-2.7c2.2-1.7,4.1-3.7,5.9-5.9c1.2-1.5,2.3-3.1,3.2-4.8c1.2-2.2,2.2-4.7,2.9-7.2
			c0.5-2,0.9-4,1.1-6c0.1-1.1,0.2-2.3,0.2-3.4C269.9,218.6,269.9,217.3,269.7,216z M235,252.2c-17.7,0-32.2-14.4-32.2-32.2
			c0-17.7,14.4-32.2,32.2-32.2s32.2,14.4,32.2,32.2C267.1,237.7,252.7,252.2,235,252.2z"/>
	</g>
	<g>
		<path class="st8" d="M209.9,91.6c2.8-1.7,5.4-3.3,8.2-5c2.4,2.7,4.1,6.8,8.3,5.3c3.8-1.4,3.8-5.2,3.3-9.2c3.1-0.3,6.2-0.7,9.3-1
			c1.2,3.5,0.9,8,5.6,8.4c4.2,0.4,5.1-3.5,6.9-6.8c3,1.1,5.9,2.1,9,3.2c-1.1,3.8-2.4,7.7,1.2,9.9c3.5,2.2,6.3-1.1,9.2-3.3
			c2.2,2.2,4.4,4.5,6.6,6.7c-2.1,2.9-5.6,5.6-3.4,9.3c2.1,3.5,6,2.2,9.8,1.3c1,3,2.1,6,3.1,9c-3.3,1.6-7.5,2.5-7,6.9
			c0.4,4.3,4.6,4.5,8,5.5c-0.4,3.1-0.7,6.1-1.1,9.2c-1.6,0-3.1,0-4.5,0.1c-2.2,0.3-4.6,1.1-4.8,3.4c-0.2,1.7,1,3.7,2,5.4
			c0.6,1.1,2.8,1.9,2.7,2.8c-0.1,1.5-1.3,3-2.2,4.4c-0.8,1.2-1.7,2.4-2.7,3.6c-3.2-1.6-6.7-4.1-9.7-1.1c-3,3-0.4,6.4,1,9.8
			c-2.6,1.6-5.2,3.3-7.9,4.9c-2.4-2.7-4.2-6.7-8.3-5.3c-3.9,1.3-3.5,5.4-3.5,9.2c-3,0.3-6.1,0.7-9.3,1.1c-1.3-3.5-0.9-8.4-6.1-8.5
			c-3.8,0-4.8,3.5-6.4,6.8c-2.9-1-5.8-2-8.9-3.1c1.1-3.9,2.5-7.9-1.4-10.1c-3.4-1.9-6.1,1.1-8.9,3.4c-2.2-2.3-4.5-4.5-6.7-6.9
			c2.2-3,5.7-5.7,3.4-9.4c-2.2-3.4-6.1-2.1-9.8-1.3c-1-3-2-5.9-3-8.9c3.3-1.7,7.5-2.6,7-7c-0.5-4.2-4.5-4.6-8.1-5.3
			c0.4-3.2,0.7-6.3,1.1-9.5c3.6-0.3,8.1,0.7,9.4-3.8c1.1-3.8-2.5-5.7-5.3-8c1.7-2.6,3.4-5.2,5.1-7.9c3.4,1.5,7,4.2,10.1,0.9
			C213.9,98.3,211.6,94.9,209.9,91.6z M276.4,135c2.6-20.3-12-39-32.6-41.6c-19.8-2.5-38.8,12-41.3,31.6
			c-2.7,21,11.4,39.8,31.8,42.4C255.2,170.2,273.7,155.9,276.4,135z"/>
		<path class="st9" d="M204.8,126.5c2.5-19.6,19.7-33.1,39.2-30.5c19.1,2.5,32.4,19.9,29.9,39.2c-2.4,19-19.8,32.2-39.3,29.8
			C216,162.7,202.5,145.2,204.8,126.5z M214.8,120.3c4,1.3,7.7,2.6,11.2,3.7c2-2.2,3.7-4.1,5.5-6c-1.7-3.5-3.3-7.1-5-10.7
			C221,110.4,217.3,114.6,214.8,120.3z M263.8,140.7c-3.9-1.3-7.6-2.5-11-3.7c-1.9,2.2-3.6,4.1-5.4,6.1c1.6,3.5,3.3,7,4.9,10.6
			C257.7,150.9,261.8,146.2,263.8,140.7z M246.4,131.3c0.4-3.8-2.4-7.4-6.3-7.7c-3.9-0.4-7.2,2.3-7.6,6.3c-0.4,3.9,2.2,7,6.1,7.5
			C242.5,137.9,246,135.2,246.4,131.3z M213.6,123.9c-1.5,6-1,11.5,1.3,17.1c3.8-2,7.3-3.8,10.6-5.5c-0.2-2.2-0.6-4.1-0.5-5.9
			c0.1-1.5-0.3-2.1-1.7-2.5C220.2,126.2,217.2,125.1,213.6,123.9z M263.9,120.1c-3.2,1.6-6.2,3.2-9.1,4.7c-1.4,0.7-1.5,7.9-0.2,8.7
			c0.1,0,0.2,0.1,0.3,0.1c3.4,1.1,6.9,2.3,10.4,3.4C266.5,131.2,266.4,125.7,263.9,120.1z M227.4,138.9c-3.6,1.9-7.1,3.7-10.6,5.5
			c2.7,4.9,7.5,9,12.4,10.5c0.7-2.1,1.4-4.3,2.3-6.4c1.1-2.9,2.1-5.5-1.7-7.2C228.9,140.8,228.3,139.8,227.4,138.9z M262.2,116.6
			c-3.2-4.9-7.1-8.4-12.5-10.6c-1.3,3.9-2.6,7.7-3.8,11.2c2,1.7,3.8,3.3,5.7,4.9C255.1,120.3,258.6,118.5,262.2,116.6z M248.9,155.4
			c-1.6-3.5-3.1-6.7-4.7-9.9c-0.2-0.4-1-0.8-1.5-0.8c-2,0-4,0.2-6.1,0.4c-1.2,3.7-2.4,7.4-3.7,11.3
			C238.5,157.7,243.6,157.4,248.9,155.4z M230.1,105.9c0.8,1.7,1.6,3.5,2.5,5.2c2.5,5.5,2.5,5.5,8.3,5c0.6-0.1,1.5-0.5,1.7-1
			c1.2-3.4,2.2-6.8,3.3-10.2C240.7,103.3,234,103.7,230.1,105.9z"/>
	</g>
</g>
</svg>
