<?xml version="1.0" encoding="utf-8"?>
<!-- Generator: Adobe Illustrator 21.1.0, SVG Export Plug-In . SVG Version: 6.00 Build 0)  -->
<svg version="1.1" id="Layer_1" xmlns="http://www.w3.org/2000/svg" xmlns:xlink="http://www.w3.org/1999/xlink" x="0px" y="0px"
	 width="1000px" height="600px" viewBox="0 0 1000 600" enable-background="new 0 0 1000 600" xml:space="preserve">
<g>
	<path fill="none" stroke="#1F2C46" stroke-width="3" stroke-linecap="round" stroke-linejoin="round" stroke-miterlimit="10" d="
		M610.6,292.3L610.6,292.3c0-27.6-24.4-49.4-54.4-49.4c-8.1,0-15.4,1.5-22.7,4.4c-13.8-21.1-39-35.6-69.1-35.6
		c-43.9,0-78.8,31.2-78.8,70.4c0,3.6,0,6.5,0.8,10.2h-6.5c-30.9,0-56.9,22.5-56.9,50.8v6.5c0,27.6,25.2,50.8,56.9,50.8h223.4
		c30.9,0,56.9-22.5,56.9-50.8v-6.5C660.1,317,638.2,295.2,610.6,292.3z"/>
	<path fill="none" stroke="#C4C4C4" stroke-linecap="round" stroke-linejoin="round" stroke-miterlimit="10" d="M617.5,286.8
		L617.5,286.8c0-29.2-25.8-52.2-57.6-52.2c-8.6,0-16.3,1-24.1,4.1c-14.6-22.3-41.3-34.5-73.1-34.5c-37,0-79.1,24.5-84,70.3
		c-0.4,3.8,0,6.9,0.9,10.8h-6.9c-32.7,0-58.6,30.1-58.6,60.1v6.9c0,29.2,25.6,55.9,59.2,55.9h236.5c32.7,0,59.2-25.9,59.2-55.9v-6.9
		C669,317.6,646.8,289.9,617.5,286.8z"/>
	
		<line fill="none" stroke="#C4C4C4" stroke-linecap="round" stroke-linejoin="round" stroke-miterlimit="10" x1="577.2" y1="236.6" x2="627.5" y2="186"/>
	
		<line fill="none" stroke="#C4C4C4" stroke-linecap="round" stroke-linejoin="round" stroke-miterlimit="10" x1="396.6" y1="233.5" x2="348.9" y2="186.1"/>
	
		<line fill="none" stroke="#C4C4C4" stroke-linecap="round" stroke-linejoin="round" stroke-miterlimit="10" x1="577.2" y1="408.7" x2="626" y2="457.6"/>
	
		<line fill="none" stroke="#C4C4C4" stroke-linecap="round" stroke-linejoin="round" stroke-miterlimit="10" x1="357.5" y1="457.6" x2="406.4" y2="408.7"/>
	
		<line fill="none" stroke="#C4C4C4" stroke-linecap="round" stroke-linejoin="round" stroke-miterlimit="10" x1="627.6" y1="186" x2="906.8" y2="186"/>
	
		<line fill="none" stroke="#C4C4C4" stroke-linecap="round" stroke-linejoin="round" stroke-miterlimit="10" x1="617" y1="276.5" x2="906.8" y2="276.5"/>
	
		<line fill="none" stroke="#C4C4C4" stroke-linecap="round" stroke-linejoin="round" stroke-miterlimit="10" x1="667.5" y1="367" x2="906.8" y2="367"/>
	
		<line fill="none" stroke="#C4C4C4" stroke-linecap="round" stroke-linejoin="round" stroke-miterlimit="10" x1="626.1" y1="457.5" x2="906.8" y2="457.5"/>
	
		<line fill="none" stroke="#C4C4C4" stroke-linecap="round" stroke-linejoin="round" stroke-miterlimit="10" x1="79" y1="186" x2="348.6" y2="186"/>
	
		<line fill="none" stroke="#C4C4C4" stroke-linecap="round" stroke-linejoin="round" stroke-miterlimit="10" x1="79" y1="276.5" x2="378.5" y2="276.5"/>
	
		<line fill="none" stroke="#C4C4C4" stroke-linecap="round" stroke-linejoin="round" stroke-miterlimit="10" x1="79" y1="367" x2="316.1" y2="367"/>
	
		<line fill="none" stroke="#C4C4C4" stroke-linecap="round" stroke-linejoin="round" stroke-miterlimit="10" x1="79" y1="457.5" x2="357" y2="457.5"/>
	
		<line fill="none" stroke="#C4C4C4" stroke-linecap="round" stroke-linejoin="round" stroke-miterlimit="10" x1="487.8" y1="206.2" x2="487.8" y2="122.2"/>
	<g enable-background="new    ">
		<path fill="#1F2C46" d="M86.8,346l-1.1-2.1h-0.1l0.2,2.1v9.6h-1.6v-14.9h0.9l7,9.8l1.1,2h0.1l-0.2-2v-9.6h1.6v14.9h-0.9L86.8,346z
			"/>
		<path fill="#1F2C46" d="M105.8,354.8c-0.4,0.3-0.9,0.6-1.6,0.8c-0.6,0.2-1.3,0.3-2,0.3c-0.8,0-1.5-0.1-2.1-0.4s-1.1-0.6-1.4-1.1
			s-0.7-1.1-0.8-1.7c-0.2-0.7-0.3-1.4-0.3-2.3c0-1.8,0.4-3.2,1.2-4.1c0.8-0.9,1.9-1.4,3.4-1.4c0.5,0,1,0.1,1.4,0.2
			c0.5,0.1,0.9,0.3,1.3,0.6s0.7,0.7,0.9,1.2c0.2,0.5,0.4,1.2,0.4,2.1c0,0.5,0,1-0.1,1.5h-6.7c0,0.6,0.1,1.2,0.2,1.6s0.3,0.9,0.6,1.2
			c0.3,0.3,0.6,0.6,1,0.8c0.4,0.2,0.9,0.3,1.6,0.3c0.5,0,1-0.1,1.4-0.3c0.5-0.2,0.8-0.4,1.1-0.6L105.8,354.8z M102.2,346.4
			c-0.8,0-1.5,0.2-2,0.7s-0.8,1.2-0.9,2.2h5.2c0-1.1-0.2-1.8-0.6-2.2C103.5,346.6,102.9,346.4,102.2,346.4z"/>
		<path fill="#1F2C46" d="M115.4,345.1l2.4,6.1l0.5,2h0l0.4-2.1l1.9-6.1h1.6l-3.5,10.7h-0.8l-2.8-6.9l-0.4-1.7h-0.1l-0.4,1.7
			l-2.6,6.9h-0.8l-3.7-10.7h1.8l2.1,6.1l0.4,2h0l0.5-2.1l2.2-6.1H115.4z"/>
	</g>
	<g enable-background="new    ">
		<path fill="#1F2C46" d="M136.6,351.9c0-0.6-0.2-1.1-0.5-1.4c-0.3-0.4-0.8-0.7-1.3-1c-0.5-0.3-1.1-0.6-1.7-0.8s-1.2-0.6-1.7-0.9
			c-0.5-0.4-1-0.8-1.3-1.3c-0.3-0.5-0.5-1.2-0.5-2c0-1.1,0.4-2.1,1.2-2.7s1.9-1,3.4-1c0.9,0,1.6,0.1,2.3,0.2s1.2,0.3,1.6,0.5
			l-0.5,1.6c-0.3-0.2-0.8-0.3-1.4-0.5c-0.6-0.1-1.3-0.2-2.1-0.2c-0.9,0-1.6,0.2-2.1,0.6c-0.5,0.4-0.7,0.9-0.7,1.5
			c0,0.5,0.2,1,0.5,1.4c0.3,0.4,0.8,0.7,1.3,1c0.5,0.3,1.1,0.6,1.7,0.9c0.6,0.3,1.2,0.6,1.7,1c0.5,0.4,1,0.8,1.3,1.3
			c0.3,0.5,0.5,1.2,0.5,1.9c0,0.6-0.1,1.2-0.3,1.7c-0.2,0.5-0.6,0.9-1,1.3c-0.4,0.4-1,0.6-1.6,0.8c-0.6,0.2-1.3,0.3-2.1,0.3
			c-1,0-1.9-0.1-2.6-0.2c-0.7-0.2-1.2-0.3-1.6-0.5l0.6-1.6c0.3,0.2,0.8,0.4,1.4,0.5c0.6,0.2,1.3,0.3,2.1,0.3c0.5,0,0.9,0,1.3-0.1
			c0.4-0.1,0.8-0.2,1-0.4s0.5-0.5,0.7-0.8C136.5,352.7,136.6,352.3,136.6,351.9z"/>
		<path fill="#1F2C46" d="M140.3,350.4c0-1.8,0.4-3.1,1.2-4.1c0.8-0.9,1.9-1.4,3.4-1.4c0.8,0,1.5,0.1,2,0.4c0.6,0.3,1.1,0.6,1.4,1.1
			c0.4,0.5,0.7,1.1,0.8,1.7c0.2,0.7,0.3,1.4,0.3,2.3c0,1.8-0.4,3.1-1.2,4.1c-0.8,0.9-1.9,1.4-3.4,1.4c-0.8,0-1.5-0.1-2-0.4
			s-1.1-0.6-1.4-1.1s-0.7-1.1-0.8-1.7C140.4,352,140.3,351.2,140.3,350.4z M142.1,350.4c0,0.5,0.1,1,0.2,1.5
			c0.1,0.5,0.3,0.9,0.5,1.3c0.2,0.4,0.5,0.7,0.9,0.9c0.4,0.2,0.8,0.3,1.3,0.3c1.9,0,2.9-1.3,2.9-4c0-0.5-0.1-1.1-0.2-1.6
			c-0.1-0.5-0.3-0.9-0.5-1.3c-0.2-0.4-0.5-0.7-0.9-0.9c-0.4-0.2-0.8-0.3-1.3-0.3C143,346.3,142.1,347.7,142.1,350.4z"/>
		<path fill="#1F2C46" d="M154.1,353.1c0,0.5,0.1,0.8,0.3,1s0.4,0.3,0.7,0.3c0.2,0,0.4,0,0.6,0c0.2,0,0.4-0.1,0.7-0.2l0.2,1.3
			c-0.2,0.1-0.5,0.2-0.9,0.3c-0.4,0.1-0.7,0.1-1,0.1c-0.6,0-1.1-0.2-1.6-0.5c-0.4-0.4-0.6-1-0.6-1.8v-12.6h1.7V353.1z"/>
		<path fill="#1F2C46" d="M159.8,345.1v6c0,0.5,0,1,0.1,1.4s0.2,0.8,0.3,1c0.2,0.3,0.4,0.5,0.6,0.6c0.3,0.1,0.6,0.2,1,0.2
			c0.4,0,0.7-0.1,1-0.2c0.3-0.1,0.6-0.3,0.8-0.5s0.4-0.5,0.6-0.7c0.2-0.3,0.3-0.6,0.4-0.9v-7h1.7v7.5c0,0.5,0,1,0.1,1.6
			s0.1,1,0.2,1.4h-1.2l-0.4-1.7H165c-0.3,0.5-0.8,1-1.3,1.4c-0.5,0.4-1.2,0.5-2.1,0.5c-0.6,0-1.1-0.1-1.5-0.2s-0.8-0.4-1.1-0.7
			c-0.3-0.3-0.5-0.8-0.7-1.4s-0.2-1.3-0.2-2.2v-6.3H159.8z"/>
		<path fill="#1F2C46" d="M168.2,345.1h1.6v-2.1l1.7-0.5v2.6h2.9v1.5h-2.9v5.8c0,0.7,0.1,1.2,0.3,1.5c0.2,0.3,0.5,0.5,0.9,0.5
			c0.4,0,0.7,0,0.9-0.1s0.5-0.2,0.8-0.3l0.4,1.3c-0.4,0.2-0.8,0.3-1.2,0.4s-0.9,0.2-1.4,0.2c-0.9,0-1.5-0.2-1.8-0.7
			c-0.4-0.5-0.5-1.3-0.5-2.4v-6.1h-1.6V345.1z"/>
		<path fill="#1F2C46" d="M176.7,342c0-0.3,0.1-0.6,0.3-0.8c0.2-0.2,0.5-0.3,0.8-0.3s0.6,0.1,0.9,0.3c0.2,0.2,0.4,0.5,0.4,0.8
			c0,0.3-0.1,0.6-0.4,0.8c-0.2,0.2-0.5,0.3-0.9,0.3s-0.6-0.1-0.8-0.3C176.9,342.5,176.7,342.3,176.7,342z M177.1,345.1h1.7v10.5
			h-1.7V345.1z"/>
		<path fill="#1F2C46" d="M181.8,350.4c0-1.8,0.4-3.1,1.2-4.1c0.8-0.9,1.9-1.4,3.4-1.4c0.8,0,1.5,0.1,2,0.4c0.6,0.3,1.1,0.6,1.4,1.1
			c0.4,0.5,0.7,1.1,0.8,1.7c0.2,0.7,0.3,1.4,0.3,2.3c0,1.8-0.4,3.1-1.2,4.1c-0.8,0.9-1.9,1.4-3.4,1.4c-0.8,0-1.5-0.1-2-0.4
			s-1.1-0.6-1.4-1.1s-0.7-1.1-0.8-1.7C181.9,352,181.8,351.2,181.8,350.4z M183.5,350.4c0,0.5,0.1,1,0.2,1.5
			c0.1,0.5,0.3,0.9,0.5,1.3c0.2,0.4,0.5,0.7,0.9,0.9c0.4,0.2,0.8,0.3,1.3,0.3c1.9,0,2.9-1.3,2.9-4c0-0.5-0.1-1.1-0.2-1.6
			c-0.1-0.5-0.3-0.9-0.5-1.3c-0.2-0.4-0.5-0.7-0.9-0.9c-0.4-0.2-0.8-0.3-1.3-0.3C184.5,346.3,183.5,347.7,183.5,350.4z"/>
		<path fill="#1F2C46" d="M200.4,355.6v-6c0-1.1-0.2-1.9-0.5-2.5s-0.9-0.8-1.7-0.8c-0.7,0-1.4,0.2-1.8,0.6c-0.5,0.4-0.8,0.9-1,1.5
			v7.2h-1.7v-10.5h1.2l0.3,1.3h0.1c0.3-0.4,0.8-0.8,1.4-1.1c0.6-0.3,1.2-0.4,2-0.4c0.6,0,1.1,0.1,1.5,0.2s0.8,0.4,1.1,0.7
			c0.3,0.3,0.5,0.8,0.7,1.4c0.1,0.6,0.2,1.3,0.2,2.2v6.3H200.4z"/>
		<path fill="#1F2C46" d="M209.7,352.8c0-0.4-0.1-0.7-0.4-1c-0.3-0.2-0.6-0.4-0.9-0.6c-0.4-0.2-0.8-0.3-1.2-0.5
			c-0.4-0.1-0.8-0.3-1.2-0.6c-0.4-0.2-0.7-0.5-0.9-0.9c-0.3-0.4-0.4-0.9-0.4-1.5c0-1,0.3-1.7,0.9-2.2s1.4-0.7,2.4-0.7
			c0.8,0,1.4,0.1,1.9,0.2s1,0.3,1.3,0.5l-0.4,1.4c-0.3-0.2-0.7-0.3-1.2-0.4c-0.5-0.1-0.9-0.2-1.5-0.2c-0.6,0-1.1,0.1-1.4,0.3
			c-0.3,0.2-0.4,0.6-0.4,1.1c0,0.4,0.1,0.6,0.4,0.8c0.3,0.2,0.6,0.4,0.9,0.5c0.4,0.2,0.8,0.3,1.2,0.5s0.8,0.4,1.2,0.6s0.7,0.6,0.9,1
			c0.3,0.4,0.4,0.9,0.4,1.5c0,0.4-0.1,0.9-0.2,1.3s-0.4,0.7-0.7,1c-0.3,0.3-0.7,0.5-1.1,0.7c-0.5,0.2-1,0.2-1.6,0.2
			c-0.8,0-1.5-0.1-2-0.2c-0.6-0.2-1-0.3-1.4-0.5l0.5-1.4c0.3,0.2,0.7,0.3,1.3,0.5c0.5,0.2,1,0.2,1.6,0.2c0.6,0,1.1-0.1,1.5-0.4
			C209.5,353.8,209.7,353.4,209.7,352.8z"/>
	</g>
	<g enable-background="new    ">
		<path fill="#1F2C46" d="M84.2,431.5c0.5-0.1,1.1-0.2,1.7-0.3c0.6,0,1.2-0.1,1.8-0.1c0.6,0,1.3,0.1,2,0.2c0.7,0.1,1.3,0.4,1.8,0.7
			s1,0.8,1.3,1.4c0.3,0.6,0.5,1.3,0.5,2.2c0,0.9-0.2,1.7-0.5,2.3c-0.3,0.6-0.7,1.1-1.3,1.5c-0.5,0.4-1.1,0.7-1.8,0.8
			c-0.7,0.2-1.4,0.3-2.1,0.3c-0.1,0-0.2,0-0.3,0c-0.2,0-0.3,0-0.5,0c-0.2,0-0.3,0-0.5,0s-0.3,0-0.4,0v5.6h-1.7V431.5z M87.7,432.7
			c-0.4,0-0.7,0-1,0s-0.6,0-0.8,0.1v6.1c0.1,0,0.2,0,0.3,0.1c0.2,0,0.3,0,0.5,0c0.2,0,0.3,0,0.5,0c0.2,0,0.3,0,0.3,0
			c0.5,0,0.9,0,1.4-0.1c0.5-0.1,0.9-0.3,1.3-0.5c0.4-0.2,0.7-0.6,0.9-1c0.2-0.4,0.3-1,0.3-1.7c0-0.6-0.1-1.1-0.3-1.4
			c-0.2-0.4-0.5-0.7-0.9-0.9c-0.4-0.2-0.8-0.4-1.2-0.5C88.6,432.8,88.2,432.7,87.7,432.7z"/>
		<path fill="#1F2C46" d="M94.8,436.3c0.5-0.3,1.2-0.6,1.9-0.7c0.7-0.2,1.4-0.2,2.2-0.2c0.7,0,1.3,0.1,1.8,0.3s0.8,0.5,1,0.8
			c0.2,0.3,0.4,0.7,0.5,1c0.1,0.4,0.1,0.8,0.1,1.1c0,0.8,0,1.7-0.1,2.5s-0.1,1.6-0.1,2.3c0,0.5,0,1,0.1,1.5s0.1,0.9,0.2,1.3h-1.2
			l-0.4-1.5h-0.1c-0.1,0.2-0.3,0.4-0.5,0.6c-0.2,0.2-0.4,0.4-0.7,0.5c-0.3,0.1-0.6,0.3-0.9,0.4c-0.3,0.1-0.7,0.1-1.2,0.1
			c-0.4,0-0.9-0.1-1.2-0.2c-0.4-0.1-0.7-0.3-1-0.6c-0.3-0.3-0.5-0.6-0.7-0.9c-0.2-0.4-0.2-0.8-0.2-1.2c0-0.6,0.1-1.1,0.4-1.5
			c0.3-0.4,0.6-0.7,1.1-1c0.5-0.2,1-0.4,1.6-0.5c0.6-0.1,1.3-0.2,2.1-0.2c0.2,0,0.4,0,0.6,0s0.4,0,0.6,0c0-0.4,0.1-0.8,0.1-1.1
			c0-0.8-0.2-1.3-0.5-1.6c-0.3-0.3-0.9-0.5-1.7-0.5c-0.2,0-0.5,0-0.8,0.1s-0.6,0.1-0.8,0.2c-0.3,0.1-0.6,0.1-0.8,0.2
			c-0.3,0.1-0.5,0.2-0.7,0.3L94.8,436.3z M97.8,444.8c0.4,0,0.7-0.1,1-0.2c0.3-0.1,0.6-0.2,0.8-0.4c0.2-0.2,0.4-0.3,0.6-0.5
			c0.1-0.2,0.3-0.4,0.3-0.6v-1.7c-0.2,0-0.4,0-0.6,0c-0.2,0-0.4,0-0.6,0c-0.4,0-0.9,0-1.3,0.1c-0.4,0-0.8,0.1-1.1,0.3
			c-0.3,0.1-0.6,0.3-0.8,0.5c-0.2,0.2-0.3,0.5-0.3,0.9c0,0.5,0.2,0.9,0.5,1.2C96.8,444.6,97.3,444.8,97.8,444.8z"/>
		<path fill="#1F2C46" d="M108.5,442.4l0.6,2h0.1l0.5-2l2-6.8h1.7l-3.1,9.4c-0.2,0.7-0.5,1.4-0.7,2s-0.5,1.2-0.8,1.7
			c-0.3,0.5-0.6,0.9-0.9,1.2c-0.4,0.3-0.8,0.5-1.2,0.5c-0.5,0-0.9-0.1-1.2-0.2l0.3-1.4c0.2,0.1,0.4,0.1,0.5,0.1
			c0.4,0,0.8-0.2,1.1-0.6c0.4-0.4,0.7-1.1,0.9-2.1l-4.2-10.5h1.9L108.5,442.4z"/>
	</g>
	<g enable-background="new    ">
		<path fill="#1F2C46" d="M120.3,435.6h1.6V435c0-0.6,0.1-1.2,0.2-1.7s0.3-0.9,0.5-1.2c0.2-0.3,0.5-0.5,0.9-0.7
			c0.4-0.1,0.8-0.2,1.4-0.2c0.4,0,0.8,0,1.2,0.1c0.3,0.1,0.7,0.2,1.1,0.3l-0.4,1.4c-0.3-0.1-0.6-0.2-0.9-0.3c-0.3,0-0.6-0.1-0.8-0.1
			c-0.4,0-0.6,0.1-0.9,0.2c-0.2,0.1-0.4,0.3-0.4,0.5c-0.1,0.2-0.1,0.5-0.2,0.8c0,0.3,0,0.7,0,1.1v0.3h2.8v1.5h-2.8v9H122v-9h-1.6
			V435.6z"/>
		<path fill="#1F2C46" d="M127.4,440.8c0-1.8,0.4-3.1,1.2-4.1c0.8-0.9,1.9-1.4,3.4-1.4c0.8,0,1.5,0.1,2,0.4c0.6,0.3,1.1,0.6,1.4,1.1
			c0.4,0.5,0.7,1.1,0.8,1.7c0.2,0.7,0.3,1.4,0.3,2.3c0,1.8-0.4,3.1-1.2,4.1c-0.8,0.9-1.9,1.4-3.4,1.4c-0.8,0-1.5-0.1-2-0.4
			s-1.1-0.6-1.4-1.1s-0.7-1.1-0.8-1.7C127.5,442.4,127.4,441.6,127.4,440.8z M129.1,440.8c0,0.5,0.1,1,0.2,1.5
			c0.1,0.5,0.3,0.9,0.5,1.3c0.2,0.4,0.5,0.7,0.9,0.9c0.4,0.2,0.8,0.3,1.3,0.3c1.9,0,2.9-1.3,2.9-4c0-0.5-0.1-1.1-0.2-1.6
			c-0.1-0.5-0.3-0.9-0.5-1.3c-0.2-0.4-0.5-0.7-0.9-0.9c-0.4-0.2-0.8-0.3-1.3-0.3C130.1,436.8,129.1,438.1,129.1,440.8z"/>
		<path fill="#1F2C46" d="M144.2,437.2c-0.4-0.1-0.8-0.2-1.2-0.2c-0.6,0-1.1,0.2-1.4,0.5c-0.4,0.3-0.6,0.7-0.7,1.2v7.3h-1.7v-10.5
			h1.2l0.3,1.3h0.1c0.3-0.5,0.6-0.8,1-1.1c0.4-0.3,0.8-0.4,1.4-0.4c0.4,0,0.9,0.1,1.4,0.2L144.2,437.2z"/>
	</g>
	<g enable-background="new    ">
		<path fill="#1F2C46" d="M155.2,441.2l0.3,2.4h0l0.4-2.5l3-9.8h0.8l3,9.8l0.4,2.4h0l0.4-2.5l2.5-9.8h1.7l-4.1,14.9h-1l-3-9.8
			l-0.4-2.2h-0.1l-0.4,2.2l-3,9.8h-1l-4.2-14.9h1.8L155.2,441.2z"/>
		<path fill="#1F2C46" d="M176.3,446.1v-6c0-0.5,0-1-0.1-1.4s-0.2-0.8-0.3-1c-0.2-0.3-0.4-0.5-0.7-0.6c-0.3-0.1-0.7-0.2-1.1-0.2
			c-0.7,0-1.3,0.2-1.8,0.6c-0.5,0.4-0.9,1-1,1.6v7h-1.7v-14.7h1.7v5.4h0.1c0.4-0.4,0.8-0.8,1.3-1c0.5-0.3,1.1-0.4,1.9-0.4
			c0.6,0,1.1,0.1,1.5,0.2s0.8,0.4,1.1,0.7c0.3,0.3,0.5,0.8,0.6,1.4c0.1,0.6,0.2,1.3,0.2,2.2v6.3H176.3z"/>
		<path fill="#1F2C46" d="M180.9,436.3c0.5-0.3,1.2-0.6,1.9-0.7c0.7-0.2,1.4-0.2,2.2-0.2c0.7,0,1.3,0.1,1.8,0.3s0.8,0.5,1,0.8
			c0.2,0.3,0.4,0.7,0.5,1c0.1,0.4,0.1,0.8,0.1,1.1c0,0.8,0,1.7-0.1,2.5s-0.1,1.6-0.1,2.3c0,0.5,0,1,0.1,1.5s0.1,0.9,0.2,1.3h-1.2
			l-0.4-1.5h-0.1c-0.1,0.2-0.3,0.4-0.5,0.6c-0.2,0.2-0.4,0.4-0.7,0.5c-0.3,0.1-0.6,0.3-0.9,0.4c-0.3,0.1-0.7,0.1-1.2,0.1
			c-0.4,0-0.9-0.1-1.2-0.2c-0.4-0.1-0.7-0.3-1-0.6c-0.3-0.3-0.5-0.6-0.7-0.9c-0.2-0.4-0.2-0.8-0.2-1.2c0-0.6,0.1-1.1,0.4-1.5
			c0.3-0.4,0.6-0.7,1.1-1c0.5-0.2,1-0.4,1.6-0.5c0.6-0.1,1.3-0.2,2.1-0.2c0.2,0,0.4,0,0.6,0s0.4,0,0.6,0c0-0.4,0.1-0.8,0.1-1.1
			c0-0.8-0.2-1.3-0.5-1.6c-0.3-0.3-0.9-0.5-1.7-0.5c-0.2,0-0.5,0-0.8,0.1s-0.6,0.1-0.8,0.2c-0.3,0.1-0.6,0.1-0.8,0.2
			c-0.3,0.1-0.5,0.2-0.7,0.3L180.9,436.3z M183.9,444.8c0.4,0,0.7-0.1,1-0.2c0.3-0.1,0.6-0.2,0.8-0.4c0.2-0.2,0.4-0.3,0.6-0.5
			c0.1-0.2,0.3-0.4,0.3-0.6v-1.7c-0.2,0-0.4,0-0.6,0c-0.2,0-0.4,0-0.6,0c-0.4,0-0.9,0-1.3,0.1c-0.4,0-0.8,0.1-1.1,0.3
			c-0.3,0.1-0.6,0.3-0.8,0.5c-0.2,0.2-0.3,0.5-0.3,0.9c0,0.5,0.2,0.9,0.5,1.2C182.9,444.6,183.3,444.8,183.9,444.8z"/>
		<path fill="#1F2C46" d="M190.1,435.6h1.6v-2.1l1.7-0.5v2.6h2.9v1.5h-2.9v5.8c0,0.7,0.1,1.2,0.3,1.5c0.2,0.3,0.5,0.5,0.9,0.5
			c0.4,0,0.7,0,0.9-0.1s0.5-0.2,0.8-0.3l0.4,1.3c-0.4,0.2-0.8,0.3-1.2,0.4s-0.9,0.2-1.4,0.2c-0.9,0-1.5-0.2-1.8-0.7
			c-0.4-0.5-0.5-1.3-0.5-2.4V437h-1.6V435.6z"/>
	</g>
	<g enable-background="new    ">
		<path fill="#1F2C46" d="M207,440.2l-4.8-8.9h2l3.4,6.4l0.4,1.3h0l0.4-1.3l3.3-6.4h1.8l-4.8,8.8v5.9H207V440.2z"/>
		<path fill="#1F2C46" d="M212.9,440.8c0-1.8,0.4-3.1,1.2-4.1c0.8-0.9,1.9-1.4,3.4-1.4c0.8,0,1.5,0.1,2,0.4c0.6,0.3,1.1,0.6,1.4,1.1
			c0.4,0.5,0.7,1.1,0.8,1.7c0.2,0.7,0.3,1.4,0.3,2.3c0,1.8-0.4,3.1-1.2,4.1c-0.8,0.9-1.9,1.4-3.4,1.4c-0.8,0-1.5-0.1-2-0.4
			s-1.1-0.6-1.4-1.1s-0.7-1.1-0.8-1.7C213,442.4,212.9,441.6,212.9,440.8z M214.6,440.8c0,0.5,0.1,1,0.2,1.5
			c0.1,0.5,0.3,0.9,0.5,1.3c0.2,0.4,0.5,0.7,0.9,0.9c0.4,0.2,0.8,0.3,1.3,0.3c1.9,0,2.9-1.3,2.9-4c0-0.5-0.1-1.1-0.2-1.6
			c-0.1-0.5-0.3-0.9-0.5-1.3c-0.2-0.4-0.5-0.7-0.9-0.9c-0.4-0.2-0.8-0.3-1.3-0.3C215.6,436.8,214.6,438.1,214.6,440.8z"/>
		<path fill="#1F2C46" d="M226.3,435.6v6c0,0.5,0,1,0.1,1.4s0.2,0.8,0.3,1c0.2,0.3,0.4,0.5,0.6,0.6c0.3,0.1,0.6,0.2,1,0.2
			c0.4,0,0.7-0.1,1-0.2c0.3-0.1,0.6-0.3,0.8-0.5s0.4-0.5,0.6-0.7c0.2-0.3,0.3-0.6,0.4-0.9v-7h1.7v7.5c0,0.5,0,1,0.1,1.6
			s0.1,1,0.2,1.4h-1.2l-0.4-1.7h-0.1c-0.3,0.5-0.8,1-1.3,1.4c-0.5,0.4-1.2,0.5-2.1,0.5c-0.6,0-1.1-0.1-1.5-0.2s-0.8-0.4-1.1-0.7
			c-0.3-0.3-0.5-0.8-0.7-1.4s-0.2-1.3-0.2-2.2v-6.3H226.3z"/>
	</g>
	<g enable-background="new    ">
		<path fill="#1F2C46" d="M252.7,431.4h1.7v9.8c0,0.9-0.1,1.6-0.3,2.3c-0.2,0.6-0.6,1.2-1,1.6c-0.4,0.4-0.9,0.7-1.5,0.9
			c-0.6,0.2-1.3,0.3-2,0.3c-1.7,0-3-0.4-3.9-1.2c-0.9-0.8-1.3-2-1.3-3.6v-10.1h1.7v9.3c0,0.7,0.1,1.4,0.2,1.9s0.4,0.9,0.7,1.2
			c0.3,0.3,0.7,0.5,1.1,0.7s1,0.2,1.5,0.2c1.1,0,1.9-0.3,2.4-0.9c0.5-0.6,0.7-1.6,0.7-3.1V431.4z"/>
		<path fill="#1F2C46" d="M262.4,443.2c0-0.4-0.1-0.7-0.4-1c-0.3-0.2-0.6-0.4-0.9-0.6c-0.4-0.2-0.8-0.3-1.2-0.5
			c-0.4-0.1-0.8-0.3-1.2-0.6c-0.4-0.2-0.7-0.5-0.9-0.9c-0.3-0.4-0.4-0.9-0.4-1.5c0-1,0.3-1.7,0.9-2.2s1.4-0.7,2.4-0.7
			c0.8,0,1.4,0.1,1.9,0.2s1,0.3,1.3,0.5l-0.4,1.4c-0.3-0.2-0.7-0.3-1.2-0.4c-0.5-0.1-0.9-0.2-1.5-0.2c-0.6,0-1.1,0.1-1.4,0.3
			c-0.3,0.2-0.4,0.6-0.4,1.1c0,0.4,0.1,0.6,0.4,0.8c0.3,0.2,0.6,0.4,0.9,0.5c0.4,0.2,0.8,0.3,1.2,0.5s0.8,0.4,1.2,0.6s0.7,0.6,0.9,1
			c0.3,0.4,0.4,0.9,0.4,1.5c0,0.4-0.1,0.9-0.2,1.3s-0.4,0.7-0.7,1c-0.3,0.3-0.7,0.5-1.1,0.7c-0.5,0.2-1,0.2-1.6,0.2
			c-0.8,0-1.5-0.1-2-0.2c-0.6-0.2-1-0.3-1.4-0.5l0.5-1.4c0.3,0.2,0.7,0.3,1.3,0.5c0.5,0.2,1,0.2,1.6,0.2c0.6,0,1.1-0.1,1.5-0.4
			C262.2,444.3,262.4,443.8,262.4,443.2z"/>
		<path fill="#1F2C46" d="M274.3,445.2c-0.4,0.3-0.9,0.6-1.6,0.8c-0.6,0.2-1.3,0.3-2,0.3c-0.8,0-1.5-0.1-2.1-0.4s-1.1-0.6-1.4-1.1
			s-0.7-1.1-0.8-1.7c-0.2-0.7-0.3-1.4-0.3-2.3c0-1.8,0.4-3.2,1.2-4.1c0.8-0.9,1.9-1.4,3.4-1.4c0.5,0,1,0.1,1.4,0.2
			c0.5,0.1,0.9,0.3,1.3,0.6s0.7,0.7,0.9,1.2c0.2,0.5,0.4,1.2,0.4,2.1c0,0.5,0,1-0.1,1.5h-6.7c0,0.6,0.1,1.2,0.2,1.6s0.3,0.9,0.6,1.2
			c0.3,0.3,0.6,0.6,1,0.8c0.4,0.2,0.9,0.3,1.6,0.3c0.5,0,1-0.1,1.4-0.3c0.5-0.2,0.8-0.4,1.1-0.6L274.3,445.2z M270.7,436.8
			c-0.8,0-1.5,0.2-2,0.7s-0.8,1.2-0.9,2.2h5.2c0-1.1-0.2-1.8-0.6-2.2C272,437,271.4,436.8,270.7,436.8z"/>
	</g>
	<g enable-background="new    ">
		<path fill="#1F2C46" d="M84.2,160.3c0.5-0.1,1.1-0.2,1.8-0.2c0.7-0.1,1.3-0.1,1.9-0.1c0.6,0,1.3,0.1,1.8,0.2
			c0.6,0.1,1.1,0.4,1.5,0.7s0.8,0.7,1.1,1.3c0.3,0.5,0.4,1.1,0.4,1.9c0,1.1-0.3,2.1-0.9,2.8s-1.4,1.2-2.4,1.4l1,0.8l3.7,5.8h-2
			l-4.1-6.3l-2.1-0.3v6.7h-1.7V160.3z M87.9,161.5c-0.2,0-0.4,0-0.6,0s-0.4,0-0.6,0c-0.2,0-0.4,0-0.5,0c-0.2,0-0.3,0-0.4,0.1v5.4
			h1.6c1,0,1.8-0.2,2.4-0.7c0.6-0.5,0.9-1.2,0.9-2.2c0-0.8-0.3-1.4-0.8-1.9C89.6,161.7,88.9,161.5,87.9,161.5z"/>
		<path fill="#1F2C46" d="M96.5,161.2c0-0.3,0.1-0.6,0.3-0.8c0.2-0.2,0.5-0.3,0.8-0.3s0.6,0.1,0.9,0.3c0.2,0.2,0.4,0.5,0.4,0.8
			c0,0.3-0.1,0.6-0.4,0.8c-0.2,0.2-0.5,0.3-0.9,0.3s-0.6-0.1-0.8-0.3C96.6,161.8,96.5,161.5,96.5,161.2z M96.8,164.4h1.7v10.5h-1.7
			V164.4z"/>
		<path fill="#1F2C46" d="M109.3,174.2c-0.4,0.3-0.9,0.5-1.5,0.7c-0.6,0.2-1.2,0.2-1.8,0.2c-0.8,0-1.5-0.1-2.1-0.4
			c-0.6-0.3-1-0.6-1.4-1.1s-0.6-1.1-0.8-1.7c-0.2-0.7-0.2-1.4-0.2-2.3c0-1.8,0.4-3.1,1.2-4.1c0.8-0.9,1.9-1.4,3.4-1.4
			c0.7,0,1.2,0.1,1.7,0.2c0.5,0.1,0.9,0.3,1.3,0.5l-0.5,1.4c-0.3-0.2-0.7-0.3-1.1-0.4c-0.4-0.1-0.8-0.2-1.3-0.2c-2,0-3,1.3-3,4
			c0,0.5,0.1,1,0.2,1.5c0.1,0.5,0.3,0.9,0.5,1.3c0.2,0.4,0.6,0.7,1,0.9c0.4,0.2,0.9,0.3,1.5,0.3c0.5,0,1-0.1,1.4-0.2s0.7-0.3,1-0.5
			L109.3,174.2z"/>
		<path fill="#1F2C46" d="M118.3,174.8v-6c0-0.5,0-1-0.1-1.4s-0.2-0.8-0.3-1c-0.2-0.3-0.4-0.5-0.7-0.6c-0.3-0.1-0.7-0.2-1.1-0.2
			c-0.7,0-1.3,0.2-1.8,0.6c-0.5,0.4-0.9,1-1,1.6v7h-1.7v-14.7h1.7v5.4h0.1c0.4-0.4,0.8-0.8,1.3-1c0.5-0.3,1.1-0.4,1.9-0.4
			c0.6,0,1.1,0.1,1.5,0.2s0.8,0.4,1.1,0.7c0.3,0.3,0.5,0.8,0.6,1.4c0.1,0.6,0.2,1.3,0.2,2.2v6.3H118.3z"/>
	</g>
	<g enable-background="new    ">
		<path fill="#1F2C46" d="M128.9,160.2h8v1.6h-6.3v5h5.8v1.6h-5.8v6.6h-1.7V160.2z"/>
		<path fill="#1F2C46" d="M147.2,174c-0.4,0.3-0.9,0.6-1.6,0.8c-0.6,0.2-1.3,0.3-2,0.3c-0.8,0-1.5-0.1-2.1-0.4s-1.1-0.6-1.4-1.1
			s-0.7-1.1-0.8-1.7c-0.2-0.7-0.3-1.4-0.3-2.3c0-1.8,0.4-3.2,1.2-4.1c0.8-0.9,1.9-1.4,3.4-1.4c0.5,0,1,0.1,1.4,0.2
			c0.5,0.1,0.9,0.3,1.3,0.6s0.7,0.7,0.9,1.2c0.2,0.5,0.4,1.2,0.4,2.1c0,0.5,0,1-0.1,1.5h-6.7c0,0.6,0.1,1.2,0.2,1.6s0.3,0.9,0.6,1.2
			c0.3,0.3,0.6,0.6,1,0.8c0.4,0.2,0.9,0.3,1.6,0.3c0.5,0,1-0.1,1.4-0.3c0.5-0.2,0.8-0.4,1.1-0.6L147.2,174z M143.6,165.6
			c-0.8,0-1.5,0.2-2,0.7s-0.8,1.2-0.9,2.2h5.2c0-1.1-0.2-1.8-0.6-2.2C144.9,165.8,144.3,165.6,143.6,165.6z"/>
		<path fill="#1F2C46" d="M150,165.1c0.5-0.3,1.2-0.6,1.9-0.7c0.7-0.2,1.4-0.2,2.2-0.2c0.7,0,1.3,0.1,1.8,0.3s0.8,0.5,1,0.8
			c0.2,0.3,0.4,0.7,0.5,1c0.1,0.4,0.1,0.8,0.1,1.1c0,0.8,0,1.7-0.1,2.5s-0.1,1.6-0.1,2.3c0,0.5,0,1,0.1,1.5s0.1,0.9,0.2,1.3h-1.2
			l-0.4-1.5h-0.1c-0.1,0.2-0.3,0.4-0.5,0.6c-0.2,0.2-0.4,0.4-0.7,0.5c-0.3,0.1-0.6,0.3-0.9,0.4c-0.3,0.1-0.7,0.1-1.2,0.1
			c-0.4,0-0.9-0.1-1.2-0.2c-0.4-0.1-0.7-0.3-1-0.6c-0.3-0.3-0.5-0.6-0.7-0.9c-0.2-0.4-0.2-0.8-0.2-1.2c0-0.6,0.1-1.1,0.4-1.5
			c0.3-0.4,0.6-0.7,1.1-1c0.5-0.2,1-0.4,1.6-0.5c0.6-0.1,1.3-0.2,2.1-0.2c0.2,0,0.4,0,0.6,0s0.4,0,0.6,0c0-0.4,0.1-0.8,0.1-1.1
			c0-0.8-0.2-1.3-0.5-1.6c-0.3-0.3-0.9-0.5-1.7-0.5c-0.2,0-0.5,0-0.8,0.1s-0.6,0.1-0.8,0.2c-0.3,0.1-0.6,0.1-0.8,0.2
			c-0.3,0.1-0.5,0.2-0.7,0.3L150,165.1z M153,173.5c0.4,0,0.7-0.1,1-0.2c0.3-0.1,0.6-0.2,0.8-0.4c0.2-0.2,0.4-0.3,0.6-0.5
			c0.1-0.2,0.3-0.4,0.3-0.6v-1.7c-0.2,0-0.4,0-0.6,0c-0.2,0-0.4,0-0.6,0c-0.4,0-0.9,0-1.3,0.1c-0.4,0-0.8,0.1-1.1,0.3
			c-0.3,0.1-0.6,0.3-0.8,0.5c-0.2,0.2-0.3,0.5-0.3,0.9c0,0.5,0.2,0.9,0.5,1.2C152,173.4,152.5,173.5,153,173.5z"/>
		<path fill="#1F2C46" d="M159.2,164.4h1.6v-2.1l1.7-0.5v2.6h2.9v1.5h-2.9v5.8c0,0.7,0.1,1.2,0.3,1.5c0.2,0.3,0.5,0.5,0.9,0.5
			c0.4,0,0.7,0,0.9-0.1s0.5-0.2,0.8-0.3l0.4,1.3c-0.4,0.2-0.8,0.3-1.2,0.4s-0.9,0.2-1.4,0.2c-0.9,0-1.5-0.2-1.8-0.7
			c-0.4-0.5-0.5-1.3-0.5-2.4v-6.1h-1.6V164.4z"/>
		<path fill="#1F2C46" d="M169.2,164.4v6c0,0.5,0,1,0.1,1.4s0.2,0.8,0.3,1c0.2,0.3,0.4,0.5,0.6,0.6c0.3,0.1,0.6,0.2,1,0.2
			c0.4,0,0.7-0.1,1-0.2c0.3-0.1,0.6-0.3,0.8-0.5s0.4-0.5,0.6-0.7c0.2-0.3,0.3-0.6,0.4-0.9v-7h1.7v7.5c0,0.5,0,1,0.1,1.6
			s0.1,1,0.2,1.4h-1.2l-0.4-1.7h-0.1c-0.3,0.5-0.8,1-1.3,1.4c-0.5,0.4-1.2,0.5-2.1,0.5c-0.6,0-1.1-0.1-1.5-0.2s-0.8-0.4-1.1-0.7
			c-0.3-0.3-0.5-0.8-0.7-1.4s-0.2-1.3-0.2-2.2v-6.3H169.2z"/>
		<path fill="#1F2C46" d="M184,166c-0.4-0.1-0.8-0.2-1.2-0.2c-0.6,0-1.1,0.2-1.4,0.5c-0.4,0.3-0.6,0.7-0.7,1.2v7.3H179v-10.5h1.2
			l0.3,1.3h0.1c0.3-0.5,0.6-0.8,1-1.1c0.4-0.3,0.8-0.4,1.4-0.4c0.4,0,0.9,0.1,1.4,0.2L184,166z"/>
		<path fill="#1F2C46" d="M193.8,174c-0.4,0.3-0.9,0.6-1.6,0.8c-0.6,0.2-1.3,0.3-2,0.3c-0.8,0-1.5-0.1-2.1-0.4s-1.1-0.6-1.4-1.1
			s-0.7-1.1-0.8-1.7c-0.2-0.7-0.3-1.4-0.3-2.3c0-1.8,0.4-3.2,1.2-4.1c0.8-0.9,1.9-1.4,3.4-1.4c0.5,0,1,0.1,1.4,0.2
			c0.5,0.1,0.9,0.3,1.3,0.6s0.7,0.7,0.9,1.2c0.2,0.5,0.4,1.2,0.4,2.1c0,0.5,0,1-0.1,1.5h-6.7c0,0.6,0.1,1.2,0.2,1.6s0.3,0.9,0.6,1.2
			c0.3,0.3,0.6,0.6,1,0.8c0.4,0.2,0.9,0.3,1.6,0.3c0.5,0,1-0.1,1.4-0.3c0.5-0.2,0.8-0.4,1.1-0.6L193.8,174z M190.2,165.6
			c-0.8,0-1.5,0.2-2,0.7s-0.8,1.2-0.9,2.2h5.2c0-1.1-0.2-1.8-0.6-2.2C191.6,165.8,191,165.6,190.2,165.6z"/>
		<path fill="#1F2C46" d="M201.5,172c0-0.4-0.1-0.7-0.4-1c-0.3-0.2-0.6-0.4-0.9-0.6c-0.4-0.2-0.8-0.3-1.2-0.5
			c-0.4-0.1-0.8-0.3-1.2-0.6c-0.4-0.2-0.7-0.5-0.9-0.9c-0.3-0.4-0.4-0.9-0.4-1.5c0-1,0.3-1.7,0.9-2.2s1.4-0.7,2.4-0.7
			c0.8,0,1.4,0.1,1.9,0.2s1,0.3,1.3,0.5l-0.4,1.4c-0.3-0.2-0.7-0.3-1.2-0.4c-0.5-0.1-0.9-0.2-1.5-0.2c-0.6,0-1.1,0.1-1.4,0.3
			c-0.3,0.2-0.4,0.6-0.4,1.1c0,0.4,0.1,0.6,0.4,0.8c0.3,0.2,0.6,0.4,0.9,0.5c0.4,0.2,0.8,0.3,1.2,0.5s0.8,0.4,1.2,0.6s0.7,0.6,0.9,1
			c0.3,0.4,0.4,0.9,0.4,1.5c0,0.4-0.1,0.9-0.2,1.3s-0.4,0.7-0.7,1c-0.3,0.3-0.7,0.5-1.1,0.7c-0.5,0.2-1,0.2-1.6,0.2
			c-0.8,0-1.5-0.1-2-0.2c-0.6-0.2-1-0.3-1.4-0.5l0.5-1.4c0.3,0.2,0.7,0.3,1.3,0.5c0.5,0.2,1,0.2,1.6,0.2c0.6,0,1.1-0.1,1.5-0.4
			C201.3,173,201.5,172.6,201.5,172z"/>
		<path fill="#1F2C46" d="M213.4,174c-0.4,0.3-0.9,0.6-1.6,0.8c-0.6,0.2-1.3,0.3-2,0.3c-0.8,0-1.5-0.1-2.1-0.4s-1.1-0.6-1.4-1.1
			s-0.7-1.1-0.8-1.7c-0.2-0.7-0.3-1.4-0.3-2.3c0-1.8,0.4-3.2,1.2-4.1c0.8-0.9,1.9-1.4,3.4-1.4c0.5,0,1,0.1,1.4,0.2
			c0.5,0.1,0.9,0.3,1.3,0.6s0.7,0.7,0.9,1.2c0.2,0.5,0.4,1.2,0.4,2.1c0,0.5,0,1-0.1,1.5h-6.7c0,0.6,0.1,1.2,0.2,1.6s0.3,0.9,0.6,1.2
			c0.3,0.3,0.6,0.6,1,0.8c0.4,0.2,0.9,0.3,1.6,0.3c0.5,0,1-0.1,1.4-0.3c0.5-0.2,0.8-0.4,1.1-0.6L213.4,174z M209.7,165.6
			c-0.8,0-1.5,0.2-2,0.7s-0.8,1.2-0.9,2.2h5.2c0-1.1-0.2-1.8-0.6-2.2C211.1,165.8,210.5,165.6,209.7,165.6z"/>
		<path fill="#1F2C46" d="M215,164.4h1.6v-2.1l1.7-0.5v2.6h2.9v1.5h-2.9v5.8c0,0.7,0.1,1.2,0.3,1.5c0.2,0.3,0.5,0.5,0.9,0.5
			c0.4,0,0.7,0,0.9-0.1s0.5-0.2,0.8-0.3l0.4,1.3c-0.4,0.2-0.8,0.3-1.2,0.4s-0.9,0.2-1.4,0.2c-0.9,0-1.5-0.2-1.8-0.7
			c-0.4-0.5-0.5-1.3-0.5-2.4v-6.1H215V164.4z"/>
	</g>
	<g enable-background="new    ">
		<path fill="#1F2C46" d="M762.3,167.5c0-2.4,0.5-4.3,1.6-5.6c1-1.3,2.5-2,4.4-2c1,0,1.9,0.2,2.7,0.5c0.8,0.4,1.4,0.9,1.9,1.5
			c0.5,0.7,0.9,1.5,1.1,2.4c0.2,0.9,0.4,2,0.4,3.1c0,2.4-0.5,4.3-1.6,5.6c-1,1.3-2.5,2-4.5,2c-1,0-1.9-0.2-2.7-0.5
			c-0.7-0.4-1.4-0.9-1.9-1.5c-0.5-0.7-0.9-1.5-1.1-2.4C762.4,169.7,762.3,168.7,762.3,167.5z M764.1,167.5c0,0.8,0.1,1.6,0.2,2.3
			s0.4,1.4,0.7,1.9s0.8,1,1.3,1.3c0.5,0.3,1.1,0.5,1.9,0.5c1.3,0,2.3-0.5,3.1-1.5c0.7-1,1.1-2.5,1.1-4.6c0-0.8-0.1-1.6-0.2-2.3
			c-0.2-0.7-0.4-1.4-0.8-1.9s-0.8-1-1.3-1.3c-0.5-0.3-1.2-0.5-1.9-0.5c-1.3,0-2.3,0.5-3,1.5C764.5,163.9,764.1,165.5,764.1,167.5z
			 M775.9,178.5c-0.3,0.1-0.7,0.2-1,0.2c-0.3,0-0.6,0.1-1,0.1c-0.7,0-1.4-0.1-2-0.2c-0.7-0.1-1.3-0.3-1.9-0.5
			c-0.6-0.2-1.2-0.3-1.8-0.5c-0.6-0.1-1.1-0.2-1.6-0.2c-0.3,0-0.7,0-1,0.1v-1.5c0.2,0,0.4-0.1,0.6-0.1c0.2,0,0.4,0,0.6,0
			c0.6,0,1.2,0.1,1.8,0.2c0.6,0.1,1.2,0.3,1.8,0.5c0.6,0.2,1.2,0.3,1.8,0.5c0.6,0.1,1.3,0.2,2,0.2c0.6,0,1.2-0.1,1.8-0.2V178.5z"/>
		<path fill="#1F2C46" d="M778.6,164.4v6c0,0.5,0,1,0.1,1.4c0.1,0.4,0.2,0.8,0.3,1c0.2,0.3,0.4,0.5,0.6,0.6c0.3,0.1,0.6,0.2,1,0.2
			c0.4,0,0.7-0.1,1-0.2c0.3-0.1,0.6-0.3,0.8-0.5c0.2-0.2,0.4-0.5,0.6-0.7c0.2-0.3,0.3-0.6,0.4-0.9v-7h1.7v7.5c0,0.5,0,1,0.1,1.6
			s0.1,1,0.2,1.4h-1.2l-0.4-1.7h-0.1c-0.3,0.5-0.8,1-1.3,1.4c-0.5,0.4-1.2,0.5-2.1,0.5c-0.6,0-1.1-0.1-1.5-0.2s-0.8-0.4-1.1-0.7
			s-0.5-0.8-0.7-1.4c-0.1-0.6-0.2-1.3-0.2-2.2v-6.3H778.6z"/>
		<path fill="#1F2C46" d="M788.4,161.2c0-0.3,0.1-0.6,0.3-0.8c0.2-0.2,0.5-0.3,0.8-0.3s0.6,0.1,0.9,0.3c0.2,0.2,0.4,0.5,0.4,0.8
			c0,0.3-0.1,0.6-0.4,0.8s-0.5,0.3-0.9,0.3s-0.6-0.1-0.8-0.3C788.5,161.8,788.4,161.5,788.4,161.2z M788.7,164.4h1.7v10.5h-1.7
			V164.4z"/>
		<path fill="#1F2C46" d="M801.2,174.2c-0.4,0.3-0.9,0.5-1.5,0.7c-0.6,0.2-1.2,0.2-1.8,0.2c-0.8,0-1.5-0.1-2.1-0.4
			c-0.6-0.3-1-0.6-1.4-1.1c-0.4-0.5-0.6-1.1-0.8-1.7s-0.2-1.4-0.2-2.3c0-1.8,0.4-3.1,1.2-4.1c0.8-0.9,1.9-1.4,3.4-1.4
			c0.7,0,1.2,0.1,1.7,0.2c0.5,0.1,0.9,0.3,1.3,0.5l-0.5,1.4c-0.3-0.2-0.7-0.3-1.1-0.4c-0.4-0.1-0.8-0.2-1.3-0.2c-2,0-3,1.3-3,4
			c0,0.5,0.1,1,0.2,1.5c0.1,0.5,0.3,0.9,0.5,1.3s0.6,0.7,1,0.9c0.4,0.2,0.9,0.3,1.5,0.3c0.5,0,1-0.1,1.4-0.2c0.4-0.2,0.7-0.3,1-0.5
			L801.2,174.2z"/>
		<path fill="#1F2C46" d="M806.1,170.1h-1v4.7h-1.7v-14.7h1.7v8.9l0.9-0.3l3.3-4.5h2l-3.2,4.2l-0.9,0.7l1,0.8l3.5,4.7h-2.1
			L806.1,170.1z"/>
	</g>
	<g enable-background="new    ">
		<path fill="#1F2C46" d="M817.7,164.4h1.6v-2.1l1.7-0.5v2.6h2.9v1.5H821v5.8c0,0.7,0.1,1.2,0.3,1.5s0.5,0.5,0.9,0.5
			c0.4,0,0.7,0,0.9-0.1s0.5-0.2,0.8-0.3l0.4,1.3c-0.4,0.2-0.8,0.3-1.2,0.4c-0.4,0.1-0.9,0.2-1.4,0.2c-0.9,0-1.5-0.2-1.8-0.7
			c-0.3-0.5-0.5-1.3-0.5-2.4v-6.1h-1.6V164.4z"/>
		<path fill="#1F2C46" d="M825.4,169.6c0-1.8,0.4-3.1,1.2-4.1c0.8-0.9,1.9-1.4,3.4-1.4c0.8,0,1.5,0.1,2,0.4c0.6,0.3,1.1,0.6,1.4,1.1
			c0.4,0.5,0.7,1.1,0.8,1.7s0.3,1.4,0.3,2.3c0,1.8-0.4,3.1-1.2,4.1s-1.9,1.4-3.4,1.4c-0.8,0-1.5-0.1-2-0.4c-0.6-0.3-1.1-0.6-1.4-1.1
			s-0.7-1.1-0.8-1.7C825.5,171.2,825.4,170.4,825.4,169.6z M827.2,169.6c0,0.5,0.1,1,0.2,1.5c0.1,0.5,0.3,0.9,0.5,1.3
			c0.2,0.4,0.5,0.7,0.9,0.9c0.4,0.2,0.8,0.3,1.3,0.3c1.9,0,2.9-1.3,2.9-4c0-0.5-0.1-1.1-0.2-1.6c-0.1-0.5-0.3-0.9-0.5-1.3
			s-0.5-0.7-0.9-0.9s-0.8-0.3-1.3-0.3C828.1,165.6,827.2,166.9,827.2,169.6z"/>
	</g>
	<g enable-background="new    ">
		<path fill="#1F2C46" d="M854.6,165l0.2-2.2h-0.1l-0.8,2l-3.8,6.6h-0.5l-4.1-6.7l-0.8-2h-0.1l0.3,2.2v9.9h-1.6v-14.7h1.3l4.6,7.5
			l0.7,1.6h0l0.7-1.7l4.4-7.5h1.4v14.7h-1.7V165z"/>
		<path fill="#1F2C46" d="M859.6,165.1c0.5-0.3,1.2-0.6,1.9-0.7c0.7-0.2,1.4-0.2,2.2-0.2c0.7,0,1.3,0.1,1.8,0.3
			c0.4,0.2,0.8,0.5,1,0.8c0.2,0.3,0.4,0.7,0.5,1c0.1,0.4,0.1,0.8,0.1,1.1c0,0.8,0,1.7-0.1,2.5s-0.1,1.6-0.1,2.3c0,0.5,0,1,0.1,1.5
			s0.1,0.9,0.2,1.3h-1.2l-0.4-1.5h-0.1c-0.1,0.2-0.3,0.4-0.5,0.6c-0.2,0.2-0.4,0.4-0.7,0.5c-0.3,0.1-0.6,0.3-0.9,0.4
			c-0.3,0.1-0.7,0.1-1.2,0.1s-0.9-0.1-1.2-0.2s-0.7-0.3-1-0.6c-0.3-0.3-0.5-0.6-0.7-0.9c-0.2-0.4-0.2-0.8-0.2-1.2
			c0-0.6,0.1-1.1,0.4-1.5c0.3-0.4,0.6-0.7,1.1-1c0.5-0.2,1-0.4,1.6-0.5c0.6-0.1,1.3-0.2,2.1-0.2c0.2,0,0.4,0,0.6,0
			c0.2,0,0.4,0,0.6,0c0-0.4,0.1-0.8,0.1-1.1c0-0.8-0.2-1.3-0.5-1.6c-0.3-0.3-0.9-0.5-1.7-0.5c-0.2,0-0.5,0-0.8,0.1
			c-0.3,0-0.6,0.1-0.8,0.2c-0.3,0.1-0.6,0.1-0.8,0.2c-0.3,0.1-0.5,0.2-0.7,0.3L859.6,165.1z M862.5,173.6c0.4,0,0.7-0.1,1-0.2
			c0.3-0.1,0.6-0.2,0.8-0.4c0.2-0.2,0.4-0.3,0.6-0.5c0.1-0.2,0.3-0.4,0.3-0.6v-1.7c-0.2,0-0.4,0-0.6,0c-0.2,0-0.4,0-0.6,0
			c-0.4,0-0.9,0-1.3,0.1c-0.4,0-0.8,0.1-1.1,0.3c-0.3,0.1-0.6,0.3-0.8,0.5c-0.2,0.2-0.3,0.5-0.3,0.9c0,0.5,0.2,0.9,0.5,1.2
			C861.5,173.4,862,173.6,862.5,173.6z"/>
		<path fill="#1F2C46" d="M875.1,166c-0.4-0.1-0.8-0.2-1.2-0.2c-0.6,0-1.1,0.2-1.4,0.5c-0.4,0.3-0.6,0.7-0.7,1.2v7.3h-1.7v-10.5h1.2
			l0.3,1.3h0.1c0.3-0.5,0.6-0.8,1-1.1c0.4-0.3,0.8-0.4,1.4-0.4c0.4,0,0.9,0.1,1.4,0.2L875.1,166z"/>
		<path fill="#1F2C46" d="M879.9,170.1h-1v4.7h-1.7v-14.7h1.7v8.9l0.9-0.3l3.3-4.5h2l-3.2,4.2l-0.9,0.7l1,0.8l3.5,4.7h-2.1
			L879.9,170.1z"/>
		<path fill="#1F2C46" d="M894.7,174c-0.4,0.3-0.9,0.6-1.6,0.8s-1.3,0.3-2,0.3c-0.8,0-1.5-0.1-2.1-0.4s-1.1-0.6-1.4-1.1
			s-0.7-1.1-0.8-1.7c-0.2-0.7-0.3-1.4-0.3-2.3c0-1.8,0.4-3.2,1.2-4.1c0.8-0.9,1.9-1.4,3.4-1.4c0.5,0,1,0.1,1.4,0.2
			c0.5,0.1,0.9,0.3,1.3,0.6s0.7,0.7,0.9,1.2s0.4,1.2,0.4,2.1c0,0.5,0,1-0.1,1.5h-6.7c0,0.6,0.1,1.2,0.2,1.6s0.3,0.9,0.6,1.2
			c0.3,0.3,0.6,0.6,1,0.8c0.4,0.2,0.9,0.3,1.6,0.3c0.5,0,1-0.1,1.4-0.3s0.8-0.4,1.1-0.6L894.7,174z M891.1,165.6
			c-0.8,0-1.5,0.2-2,0.7c-0.5,0.4-0.8,1.2-0.9,2.2h5.2c0-1.1-0.2-1.8-0.6-2.2C892.4,165.8,891.9,165.6,891.1,165.6z"/>
		<path fill="#1F2C46" d="M896.4,164.4h1.6v-2.1l1.7-0.5v2.6h2.9v1.5h-2.9v5.8c0,0.7,0.1,1.2,0.3,1.5c0.2,0.3,0.5,0.5,0.9,0.5
			c0.4,0,0.7,0,0.9-0.1s0.5-0.2,0.8-0.3l0.4,1.3c-0.4,0.2-0.8,0.3-1.2,0.4c-0.4,0.1-0.9,0.2-1.4,0.2c-0.9,0-1.5-0.2-1.8-0.7
			c-0.4-0.5-0.5-1.3-0.5-2.4v-6.1h-1.6V164.4z"/>
	</g>
	<g enable-background="new    ">
		<path fill="#1F2C46" d="M765.1,250.8h1.7v14.7h-1.7V250.8z"/>
		<path fill="#1F2C46" d="M777.4,265.5v-6c0-1.1-0.2-1.9-0.5-2.5c-0.3-0.6-0.9-0.8-1.7-0.8c-0.7,0-1.4,0.2-1.8,0.6
			c-0.5,0.4-0.8,0.9-1,1.5v7.2h-1.7V255h1.2l0.3,1.3h0.1c0.3-0.4,0.8-0.8,1.4-1.1c0.6-0.3,1.2-0.4,2-0.4c0.6,0,1.1,0.1,1.5,0.2
			s0.8,0.4,1.1,0.7c0.3,0.3,0.5,0.8,0.7,1.4c0.1,0.6,0.2,1.3,0.2,2.2v6.3H777.4z"/>
		<path fill="#1F2C46" d="M788.9,265.5v-6c0-1.1-0.2-1.9-0.5-2.5c-0.3-0.6-0.9-0.8-1.7-0.8c-0.7,0-1.4,0.2-1.8,0.6
			c-0.5,0.4-0.8,0.9-1,1.5v7.2h-1.7V255h1.2l0.3,1.3h0.1c0.3-0.4,0.8-0.8,1.4-1.1c0.6-0.3,1.2-0.4,2-0.4c0.6,0,1.1,0.1,1.5,0.2
			s0.8,0.4,1.1,0.7c0.3,0.3,0.5,0.8,0.7,1.4c0.1,0.6,0.2,1.3,0.2,2.2v6.3H788.9z"/>
		<path fill="#1F2C46" d="M793,260.2c0-1.8,0.4-3.1,1.2-4.1c0.8-0.9,1.9-1.4,3.4-1.4c0.8,0,1.5,0.1,2,0.4c0.6,0.3,1.1,0.6,1.4,1.1
			c0.4,0.5,0.7,1.1,0.8,1.7s0.3,1.4,0.3,2.3c0,1.8-0.4,3.1-1.2,4.1s-1.9,1.4-3.4,1.4c-0.8,0-1.5-0.1-2-0.4c-0.6-0.3-1.1-0.6-1.4-1.1
			s-0.7-1.1-0.8-1.7C793.1,261.8,793,261.1,793,260.2z M794.8,260.2c0,0.5,0.1,1,0.2,1.5c0.1,0.5,0.3,0.9,0.5,1.3
			c0.2,0.4,0.5,0.7,0.9,0.9c0.4,0.2,0.8,0.3,1.3,0.3c1.9,0,2.9-1.3,2.9-4c0-0.5-0.1-1.1-0.2-1.6c-0.1-0.5-0.3-0.9-0.5-1.3
			s-0.5-0.7-0.9-0.9s-0.8-0.3-1.3-0.3C795.7,256.2,794.8,257.5,794.8,260.2z"/>
		<path fill="#1F2C46" d="M807.6,261.1l0.6,2h0l0.5-2l2.4-6.1h1.8l-4.5,10.7h-0.7l-4.6-10.7h1.9L807.6,261.1z"/>
		<path fill="#1F2C46" d="M814.5,255.8c0.5-0.3,1.2-0.6,1.9-0.7c0.7-0.2,1.4-0.2,2.2-0.2c0.7,0,1.3,0.1,1.8,0.3
			c0.4,0.2,0.8,0.5,1,0.8c0.2,0.3,0.4,0.7,0.5,1c0.1,0.4,0.1,0.8,0.1,1.1c0,0.8,0,1.7-0.1,2.5s-0.1,1.6-0.1,2.3c0,0.5,0,1,0.1,1.5
			s0.1,0.9,0.2,1.3h-1.2l-0.4-1.5h-0.1c-0.1,0.2-0.3,0.4-0.5,0.6c-0.2,0.2-0.4,0.4-0.7,0.5c-0.3,0.1-0.6,0.3-0.9,0.4
			c-0.3,0.1-0.7,0.1-1.2,0.1s-0.9-0.1-1.2-0.2s-0.7-0.3-1-0.6c-0.3-0.3-0.5-0.6-0.7-0.9c-0.2-0.4-0.2-0.8-0.2-1.2
			c0-0.6,0.1-1.1,0.4-1.5c0.3-0.4,0.6-0.7,1.1-1c0.5-0.2,1-0.4,1.6-0.5c0.6-0.1,1.3-0.2,2.1-0.2c0.2,0,0.4,0,0.6,0
			c0.2,0,0.4,0,0.6,0c0-0.4,0.1-0.8,0.1-1.1c0-0.8-0.2-1.3-0.5-1.6c-0.3-0.3-0.9-0.5-1.7-0.5c-0.2,0-0.5,0-0.8,0.1
			c-0.3,0-0.6,0.1-0.8,0.2c-0.3,0.1-0.6,0.1-0.8,0.2c-0.3,0.1-0.5,0.2-0.7,0.3L814.5,255.8z M817.5,264.2c0.4,0,0.7-0.1,1-0.2
			c0.3-0.1,0.6-0.2,0.8-0.4c0.2-0.2,0.4-0.3,0.6-0.5c0.1-0.2,0.3-0.4,0.3-0.6v-1.7c-0.2,0-0.4,0-0.6,0c-0.2,0-0.4,0-0.6,0
			c-0.4,0-0.9,0-1.3,0.1c-0.4,0-0.8,0.1-1.1,0.3c-0.3,0.1-0.6,0.3-0.8,0.5c-0.2,0.2-0.3,0.5-0.3,0.9c0,0.5,0.2,0.9,0.5,1.2
			C816.5,264,817,264.2,817.5,264.2z"/>
		<path fill="#1F2C46" d="M823.7,255h1.6v-2.1l1.7-0.5v2.6h2.9v1.5h-2.9v5.8c0,0.7,0.1,1.2,0.3,1.5c0.2,0.3,0.5,0.5,0.9,0.5
			c0.4,0,0.7,0,0.9-0.1s0.5-0.2,0.8-0.3l0.4,1.3c-0.4,0.2-0.8,0.3-1.2,0.4c-0.4,0.1-0.9,0.2-1.4,0.2c-0.9,0-1.5-0.2-1.8-0.7
			c-0.4-0.5-0.5-1.3-0.5-2.4v-6.1h-1.6V255z"/>
		<path fill="#1F2C46" d="M832.2,251.8c0-0.3,0.1-0.6,0.3-0.8c0.2-0.2,0.5-0.3,0.8-0.3s0.6,0.1,0.9,0.3c0.2,0.2,0.4,0.5,0.4,0.8
			c0,0.3-0.1,0.6-0.4,0.8s-0.5,0.3-0.9,0.3s-0.6-0.1-0.8-0.3C832.4,252.4,832.2,252.1,832.2,251.8z M832.6,255h1.7v10.5h-1.7V255z"
			/>
		<path fill="#1F2C46" d="M837.3,260.2c0-1.8,0.4-3.1,1.2-4.1c0.8-0.9,1.9-1.4,3.4-1.4c0.8,0,1.5,0.1,2,0.4c0.6,0.3,1.1,0.6,1.4,1.1
			c0.4,0.5,0.7,1.1,0.8,1.7c0.2,0.7,0.3,1.4,0.3,2.3c0,1.8-0.4,3.1-1.2,4.1c-0.8,0.9-1.9,1.4-3.4,1.4c-0.8,0-1.5-0.1-2-0.4
			c-0.6-0.3-1.1-0.6-1.4-1.1s-0.7-1.1-0.8-1.7S837.3,261.1,837.3,260.2z M839,260.2c0,0.5,0.1,1,0.2,1.5c0.1,0.5,0.3,0.9,0.5,1.3
			c0.2,0.4,0.5,0.7,0.9,0.9c0.4,0.2,0.8,0.3,1.3,0.3c1.9,0,2.9-1.3,2.9-4c0-0.5-0.1-1.1-0.2-1.6c-0.1-0.5-0.3-0.9-0.5-1.3
			c-0.2-0.4-0.5-0.7-0.9-0.9c-0.4-0.2-0.8-0.3-1.3-0.3C840,256.2,839,257.5,839,260.2z"/>
		<path fill="#1F2C46" d="M855.9,265.5v-6c0-1.1-0.2-1.9-0.5-2.5c-0.3-0.6-0.9-0.8-1.7-0.8c-0.7,0-1.4,0.2-1.8,0.6
			c-0.5,0.4-0.8,0.9-1,1.5v7.2h-1.7V255h1.2l0.3,1.3h0.1c0.3-0.4,0.8-0.8,1.4-1.1c0.6-0.3,1.2-0.4,2-0.4c0.6,0,1.1,0.1,1.5,0.2
			s0.8,0.4,1.1,0.7c0.3,0.3,0.5,0.8,0.7,1.4c0.1,0.6,0.2,1.3,0.2,2.2v6.3H855.9z"/>
	</g>
	<g enable-background="new    ">
		<path fill="#1F2C46" d="M875.3,265.5h-8.7v-14.7h1.7v13.1h6.9V265.5z"/>
		<path fill="#1F2C46" d="M876.7,255.8c0.5-0.3,1.2-0.6,1.9-0.7c0.7-0.2,1.4-0.2,2.2-0.2c0.7,0,1.3,0.1,1.8,0.3
			c0.4,0.2,0.8,0.5,1,0.8c0.2,0.3,0.4,0.7,0.5,1s0.1,0.8,0.1,1.1c0,0.8,0,1.7-0.1,2.5s-0.1,1.6-0.1,2.3c0,0.5,0,1,0.1,1.5
			s0.1,0.9,0.2,1.3H883l-0.4-1.5h-0.1c-0.1,0.2-0.3,0.4-0.5,0.6c-0.2,0.2-0.4,0.4-0.7,0.5c-0.3,0.1-0.6,0.3-0.9,0.4
			c-0.3,0.1-0.7,0.1-1.2,0.1c-0.4,0-0.9-0.1-1.2-0.2c-0.4-0.1-0.7-0.3-1-0.6c-0.3-0.3-0.5-0.6-0.7-0.9s-0.2-0.8-0.2-1.2
			c0-0.6,0.1-1.1,0.4-1.5c0.3-0.4,0.6-0.7,1.1-1c0.5-0.2,1-0.4,1.6-0.5c0.6-0.1,1.3-0.2,2.1-0.2c0.2,0,0.4,0,0.6,0
			c0.2,0,0.4,0,0.6,0c0-0.4,0.1-0.8,0.1-1.1c0-0.8-0.2-1.3-0.5-1.6c-0.3-0.3-0.9-0.5-1.7-0.5c-0.2,0-0.5,0-0.8,0.1
			c-0.3,0-0.6,0.1-0.8,0.2c-0.3,0.1-0.6,0.1-0.8,0.2s-0.5,0.2-0.7,0.3L876.7,255.8z M879.7,264.2c0.4,0,0.7-0.1,1-0.2
			s0.6-0.2,0.8-0.4c0.2-0.2,0.4-0.3,0.6-0.5c0.1-0.2,0.3-0.4,0.3-0.6v-1.7c-0.2,0-0.4,0-0.6,0c-0.2,0-0.4,0-0.6,0
			c-0.4,0-0.9,0-1.3,0.1s-0.8,0.1-1.1,0.3c-0.3,0.1-0.6,0.3-0.8,0.5c-0.2,0.2-0.3,0.5-0.3,0.9c0,0.5,0.2,0.9,0.5,1.2
			C878.7,264,879.1,264.2,879.7,264.2z"/>
		<path fill="#1F2C46" d="M887.3,250.8h1.7v5.2h0.1c0.3-0.4,0.7-0.7,1.2-0.9s1-0.3,1.6-0.3c1.4,0,2.4,0.4,3.1,1.3c0.7,0.9,1,2.2,1,4
			c0,1.8-0.4,3.2-1.3,4.2c-0.9,1-2.2,1.4-3.8,1.4c-0.8,0-1.5-0.1-2.1-0.3c-0.6-0.2-1.1-0.4-1.4-0.5V250.8z M891.6,256.2
			c-0.7,0-1.3,0.2-1.7,0.6c-0.4,0.4-0.7,0.9-0.9,1.7v5.3c0.3,0.2,0.6,0.3,1,0.3c0.4,0.1,0.8,0.1,1.2,0.1c1,0,1.7-0.3,2.3-1
			c0.6-0.7,0.8-1.7,0.8-3.1c0-0.5,0-1.1-0.1-1.5c-0.1-0.5-0.3-0.9-0.5-1.2s-0.5-0.6-0.8-0.8C892.5,256.3,892.1,256.2,891.6,256.2z"
			/>
	</g>
	<g enable-background="new    ">
		<path fill="#1F2C46" d="M839,352c0-0.6-0.2-1.1-0.5-1.4c-0.3-0.4-0.8-0.7-1.3-1s-1.1-0.6-1.7-0.8s-1.2-0.6-1.7-0.9s-1-0.8-1.3-1.3
			c-0.3-0.5-0.5-1.2-0.5-2c0-1.1,0.4-2.1,1.2-2.7c0.8-0.7,1.9-1,3.4-1c0.9,0,1.6,0.1,2.3,0.2s1.2,0.3,1.6,0.5l-0.5,1.6
			c-0.3-0.2-0.8-0.3-1.4-0.5s-1.3-0.2-2.1-0.2c-0.9,0-1.6,0.2-2.1,0.6c-0.5,0.4-0.7,0.9-0.7,1.5c0,0.5,0.2,1,0.5,1.4
			c0.3,0.4,0.8,0.7,1.3,1c0.5,0.3,1.1,0.6,1.7,0.9c0.6,0.3,1.2,0.6,1.7,1c0.5,0.4,1,0.8,1.3,1.3c0.3,0.5,0.5,1.2,0.5,1.9
			c0,0.6-0.1,1.2-0.3,1.7c-0.2,0.5-0.6,0.9-1,1.3c-0.4,0.4-1,0.6-1.6,0.8c-0.6,0.2-1.3,0.3-2.1,0.3c-1,0-1.9-0.1-2.6-0.2
			c-0.7-0.2-1.2-0.3-1.6-0.5l0.6-1.6c0.3,0.2,0.8,0.4,1.4,0.5c0.6,0.2,1.3,0.3,2.1,0.3c0.5,0,0.9,0,1.3-0.1c0.4-0.1,0.8-0.2,1.1-0.4
			c0.3-0.2,0.5-0.5,0.7-0.8C838.9,352.8,839,352.4,839,352z"/>
		<path fill="#1F2C46" d="M851,354.9c-0.4,0.3-0.9,0.6-1.6,0.8c-0.6,0.2-1.3,0.3-2,0.3c-0.8,0-1.5-0.1-2.1-0.4s-1.1-0.6-1.4-1.1
			s-0.7-1.1-0.8-1.7c-0.2-0.7-0.3-1.4-0.3-2.3c0-1.8,0.4-3.2,1.2-4.1s1.9-1.4,3.4-1.4c0.5,0,1,0.1,1.4,0.2c0.5,0.1,0.9,0.3,1.3,0.6
			s0.7,0.7,0.9,1.2s0.4,1.2,0.4,2.1c0,0.5,0,1-0.1,1.5h-6.7c0,0.6,0.1,1.2,0.2,1.6c0.1,0.5,0.3,0.9,0.6,1.2c0.3,0.3,0.6,0.6,1,0.8
			c0.4,0.2,0.9,0.3,1.6,0.3c0.5,0,1-0.1,1.4-0.3s0.8-0.4,1.1-0.6L851,354.9z M847.4,346.5c-0.8,0-1.5,0.2-2,0.7s-0.8,1.2-0.9,2.2
			h5.2c0-1.1-0.2-1.8-0.6-2.2C848.7,346.7,848.1,346.5,847.4,346.5z"/>
		<path fill="#1F2C46" d="M860.9,355.1c-0.4,0.3-0.9,0.5-1.5,0.7c-0.6,0.2-1.2,0.2-1.8,0.2c-0.8,0-1.5-0.1-2.1-0.4
			c-0.6-0.3-1-0.6-1.4-1.1c-0.4-0.5-0.6-1.1-0.8-1.7s-0.2-1.4-0.2-2.3c0-1.8,0.4-3.1,1.2-4.1c0.8-0.9,1.9-1.4,3.4-1.4
			c0.7,0,1.2,0.1,1.7,0.2c0.5,0.1,0.9,0.3,1.3,0.5l-0.5,1.4c-0.3-0.2-0.7-0.3-1.1-0.4c-0.4-0.1-0.8-0.2-1.3-0.2c-2,0-3,1.3-3,4
			c0,0.5,0.1,1,0.2,1.5c0.1,0.5,0.3,0.9,0.5,1.3c0.2,0.4,0.6,0.7,1,0.9c0.4,0.2,0.9,0.3,1.5,0.3c0.5,0,1-0.1,1.4-0.2
			c0.4-0.2,0.7-0.3,1-0.5L860.9,355.1z"/>
		<path fill="#1F2C46" d="M864.7,345.3v6c0,0.5,0,1,0.1,1.4s0.2,0.8,0.3,1c0.2,0.3,0.4,0.5,0.6,0.6c0.3,0.1,0.6,0.2,1,0.2
			c0.4,0,0.7-0.1,1-0.2c0.3-0.1,0.6-0.3,0.8-0.5s0.4-0.5,0.6-0.7c0.2-0.3,0.3-0.6,0.4-0.9v-7h1.7v7.5c0,0.5,0,1,0.1,1.6
			s0.1,1,0.2,1.4h-1.2l-0.4-1.7h-0.1c-0.3,0.5-0.8,1-1.3,1.4c-0.5,0.4-1.2,0.5-2.1,0.5c-0.6,0-1.1-0.1-1.5-0.2s-0.8-0.4-1.1-0.7
			c-0.3-0.3-0.5-0.8-0.7-1.4c-0.1-0.6-0.2-1.3-0.2-2.2v-6.3H864.7z"/>
		<path fill="#1F2C46" d="M879.5,346.9c-0.4-0.1-0.8-0.2-1.2-0.2c-0.6,0-1.1,0.2-1.4,0.5c-0.4,0.3-0.6,0.7-0.7,1.2v7.3h-1.7v-10.5
			h1.2l0.3,1.3h0.1c0.3-0.5,0.6-0.8,1-1.1c0.4-0.3,0.8-0.4,1.4-0.4c0.4,0,0.9,0.1,1.4,0.2L879.5,346.9z"/>
		<path fill="#1F2C46" d="M881.7,342.1c0-0.3,0.1-0.6,0.3-0.8c0.2-0.2,0.5-0.3,0.8-0.3s0.6,0.1,0.9,0.3c0.2,0.2,0.4,0.5,0.4,0.8
			c0,0.3-0.1,0.6-0.4,0.8c-0.2,0.2-0.5,0.3-0.9,0.3s-0.6-0.1-0.8-0.3C881.8,342.7,881.7,342.4,881.7,342.1z M882,345.3h1.7v10.5H882
			V345.3z"/>
		<path fill="#1F2C46" d="M885.9,345.3h1.6v-2.1l1.7-0.5v2.6h2.9v1.5h-2.9v5.8c0,0.7,0.1,1.2,0.3,1.5s0.5,0.5,0.9,0.5
			c0.4,0,0.7,0,0.9-0.1s0.5-0.2,0.8-0.3l0.4,1.3c-0.4,0.2-0.8,0.3-1.2,0.4s-0.9,0.2-1.4,0.2c-0.9,0-1.5-0.2-1.8-0.7
			c-0.3-0.5-0.5-1.3-0.5-2.4v-6.1h-1.6V345.3z"/>
		<path fill="#1F2C46" d="M897.5,352.1l0.6,2h0.1l0.5-2l2-6.8h1.7l-3.1,9.4c-0.2,0.7-0.5,1.4-0.7,2s-0.5,1.2-0.8,1.7
			c-0.3,0.5-0.6,0.9-0.9,1.2c-0.4,0.3-0.8,0.5-1.2,0.5c-0.5,0-0.9-0.1-1.2-0.2l0.3-1.4c0.2,0.1,0.4,0.1,0.5,0.1
			c0.4,0,0.8-0.2,1.1-0.6c0.4-0.4,0.7-1.1,0.9-2.1l-4.2-10.5h1.9L897.5,352.1z"/>
	</g>
	<g enable-background="new    ">
		<path fill="#1F2C46" d="M753.3,439.5h-1v6.8h-1.7v-14.7h1.7v6.8l0.9-0.3l4.9-6.5h2l-4.9,6.3l-0.9,0.7l1.1,0.8l5.4,6.8h-2.2
			L753.3,439.5z"/>
		<path fill="#1F2C46" d="M769.4,446.3v-6c0-1.1-0.2-1.9-0.5-2.5c-0.3-0.6-0.9-0.8-1.7-0.8c-0.7,0-1.4,0.2-1.8,0.6
			c-0.5,0.4-0.8,0.9-1,1.5v7.2h-1.7v-10.5h1.2l0.3,1.3h0.1c0.3-0.4,0.8-0.8,1.4-1.1c0.6-0.3,1.2-0.4,2-0.4c0.6,0,1.1,0.1,1.5,0.2
			s0.8,0.4,1.1,0.7c0.3,0.3,0.5,0.8,0.7,1.4c0.1,0.6,0.2,1.3,0.2,2.2v6.3H769.4z"/>
		<path fill="#1F2C46" d="M773.6,441.1c0-1.8,0.4-3.1,1.2-4.1c0.8-0.9,1.9-1.4,3.4-1.4c0.8,0,1.5,0.1,2,0.4c0.6,0.3,1.1,0.6,1.4,1.1
			c0.4,0.5,0.7,1.1,0.8,1.7c0.2,0.7,0.3,1.4,0.3,2.3c0,1.8-0.4,3.1-1.2,4.1s-1.9,1.4-3.4,1.4c-0.8,0-1.5-0.1-2-0.4s-1.1-0.6-1.4-1.1
			c-0.4-0.5-0.7-1.1-0.8-1.7C773.6,442.7,773.6,441.9,773.6,441.1z M775.3,441.1c0,0.5,0.1,1,0.2,1.5c0.1,0.5,0.3,0.9,0.5,1.3
			c0.2,0.4,0.5,0.7,0.9,0.9c0.4,0.2,0.8,0.3,1.3,0.3c1.9,0,2.9-1.3,2.9-4c0-0.5-0.1-1.1-0.2-1.6c-0.1-0.5-0.3-0.9-0.5-1.3
			c-0.2-0.4-0.5-0.7-0.9-0.9c-0.4-0.2-0.8-0.3-1.3-0.3C776.2,437,775.3,438.4,775.3,441.1z"/>
		<path fill="#1F2C46" d="M792,435.8l2.4,6.1l0.5,2h0l0.4-2.1l1.9-6.1h1.6l-3.5,10.7h-0.8l-2.8-6.9l-0.4-1.7h-0.1l-0.4,1.7l-2.6,6.9
			h-0.8l-3.7-10.7h1.8l2.1,6.1l0.4,2h0l0.5-2.1l2.2-6.1H792z"/>
		<path fill="#1F2C46" d="M802.5,443.8c0,0.5,0.1,0.8,0.3,1s0.4,0.3,0.7,0.3c0.2,0,0.4,0,0.6,0c0.2,0,0.4-0.1,0.7-0.2l0.2,1.3
			c-0.2,0.1-0.5,0.2-0.9,0.3c-0.4,0.1-0.7,0.1-1,0.1c-0.6,0-1.1-0.2-1.6-0.5c-0.4-0.4-0.6-1-0.6-1.8v-12.6h1.7V443.8z"/>
		<path fill="#1F2C46" d="M814.4,445.5c-0.4,0.3-0.9,0.6-1.6,0.8c-0.6,0.2-1.3,0.3-2,0.3c-0.8,0-1.5-0.1-2.1-0.4s-1.1-0.6-1.4-1.1
			s-0.7-1.1-0.8-1.7c-0.2-0.7-0.3-1.4-0.3-2.3c0-1.8,0.4-3.2,1.2-4.1s1.9-1.4,3.4-1.4c0.5,0,1,0.1,1.4,0.2c0.5,0.1,0.9,0.3,1.3,0.6
			s0.7,0.7,0.9,1.2s0.4,1.2,0.4,2.1c0,0.5,0,1-0.1,1.5h-6.7c0,0.6,0.1,1.2,0.2,1.6c0.1,0.5,0.3,0.9,0.6,1.2c0.3,0.3,0.6,0.6,1,0.8
			c0.4,0.2,0.9,0.3,1.6,0.3c0.5,0,1-0.1,1.4-0.3s0.8-0.4,1.1-0.6L814.4,445.5z M810.8,437.1c-0.8,0-1.5,0.2-2,0.7s-0.8,1.2-0.9,2.2
			h5.2c0-1.1-0.2-1.8-0.6-2.2C812.1,437.3,811.5,437.1,810.8,437.1z"/>
		<path fill="#1F2C46" d="M825.4,442.7c0,0.7,0,1.4,0,1.9c0,0.6,0.1,1.2,0.2,1.7h-1.1l-0.4-1.5H824c-0.3,0.5-0.7,0.9-1.2,1.2
			c-0.5,0.3-1.2,0.5-1.9,0.5c-1.4,0-2.4-0.4-3.1-1.3c-0.7-0.9-1-2.3-1-4.1c0-1.8,0.4-3.2,1.3-4.1c0.8-0.9,2-1.4,3.5-1.4
			c0.5,0,0.9,0,1.2,0.1c0.3,0.1,0.6,0.1,1,0.3v-4.4h1.7V442.7z M821.2,445.1c0.7,0,1.3-0.2,1.7-0.6c0.4-0.4,0.7-0.9,0.9-1.7v-5.2
			c-0.3-0.2-0.5-0.3-0.9-0.4c-0.3-0.1-0.8-0.1-1.3-0.1c-1,0-1.7,0.3-2.3,1c-0.5,0.6-0.8,1.7-0.8,3.1c0,0.6,0,1.1,0.1,1.6
			c0.1,0.5,0.2,0.9,0.5,1.3c0.2,0.4,0.5,0.6,0.8,0.8C820.3,445,820.7,445.1,821.2,445.1z"/>
		<path fill="#1F2C46" d="M836.7,446.8c0,1.4-0.4,2.4-1.1,3c-0.7,0.6-1.8,1-3.2,1c-0.8,0-1.5-0.1-2-0.2c-0.5-0.1-0.9-0.2-1.3-0.4
			l0.4-1.4c0.3,0.1,0.7,0.2,1.1,0.4c0.4,0.1,0.9,0.2,1.5,0.2c0.6,0,1.1-0.1,1.4-0.2c0.4-0.1,0.7-0.3,0.9-0.5
			c0.2-0.2,0.4-0.6,0.5-0.9c0.1-0.4,0.1-0.8,0.1-1.4v-1H835c-0.3,0.4-0.6,0.7-1.1,0.9c-0.4,0.2-1,0.3-1.7,0.3
			c-1.4,0-2.5-0.4-3.1-1.3c-0.7-0.9-1-2.3-1-4.1c0-1.8,0.4-3.2,1.3-4.1s2.1-1.4,3.8-1.4c0.8,0,1.5,0.1,2,0.2
			c0.6,0.1,1.1,0.3,1.5,0.4V446.8z M832.5,445.1c0.7,0,1.3-0.2,1.7-0.5c0.4-0.4,0.7-0.9,0.9-1.7v-5.4c-0.6-0.3-1.3-0.4-2.1-0.4
			c-1,0-1.7,0.3-2.2,1c-0.5,0.6-0.8,1.7-0.8,3c0,0.6,0,1.1,0.1,1.6c0.1,0.5,0.3,0.9,0.5,1.3c0.2,0.4,0.5,0.6,0.8,0.8
			S832,445.1,832.5,445.1z"/>
		<path fill="#1F2C46" d="M847.6,445.5c-0.4,0.3-0.9,0.6-1.6,0.8c-0.6,0.2-1.3,0.3-2,0.3c-0.8,0-1.5-0.1-2.1-0.4s-1.1-0.6-1.4-1.1
			c-0.4-0.5-0.7-1.1-0.8-1.7c-0.2-0.7-0.3-1.4-0.3-2.3c0-1.8,0.4-3.2,1.2-4.1c0.8-0.9,1.9-1.4,3.4-1.4c0.5,0,1,0.1,1.4,0.2
			c0.5,0.1,0.9,0.3,1.3,0.6c0.4,0.3,0.7,0.7,0.9,1.2s0.4,1.2,0.4,2.1c0,0.5,0,1-0.1,1.5h-6.7c0,0.6,0.1,1.2,0.2,1.6s0.3,0.9,0.6,1.2
			s0.6,0.6,1,0.8c0.4,0.2,0.9,0.3,1.6,0.3c0.5,0,1-0.1,1.4-0.3c0.5-0.2,0.8-0.4,1.1-0.6L847.6,445.5z M844,437.1
			c-0.8,0-1.5,0.2-2,0.7c-0.5,0.4-0.8,1.2-0.9,2.2h5.2c0-1.1-0.2-1.8-0.6-2.2S844.7,437.1,844,437.1z"/>
	</g>
	<g enable-background="new    ">
		<path fill="#1F2C46" d="M866.1,435c0,0.3-0.1,0.7-0.2,1.1c-0.1,0.4-0.3,0.7-0.5,1c-0.2,0.3-0.5,0.6-0.9,0.8s-0.8,0.4-1.2,0.5v0.1
			c0.4,0.1,0.8,0.2,1.2,0.4s0.7,0.4,1,0.7s0.5,0.7,0.7,1.1c0.2,0.4,0.3,0.9,0.3,1.5c0,0.8-0.2,1.4-0.5,2c-0.3,0.6-0.7,1-1.2,1.4
			s-1.1,0.6-1.8,0.8c-0.7,0.2-1.3,0.3-2,0.3c-0.2,0-0.5,0-0.8,0c-0.3,0-0.7,0-1,0c-0.4,0-0.7,0-1-0.1c-0.4,0-0.7-0.1-0.9-0.2v-14.5
			c0.5-0.1,1.1-0.2,1.8-0.2c0.7-0.1,1.4-0.1,2.2-0.1c0.5,0,1.1,0,1.7,0.1c0.6,0.1,1.1,0.3,1.5,0.5s0.8,0.6,1.1,1.1
			S866.1,434.3,866.1,435z M860,438.1c0.2,0,0.5,0,0.9,0s0.6,0,0.8-0.1c0.3-0.1,0.7-0.2,0.9-0.4c0.3-0.2,0.6-0.3,0.8-0.6
			c0.2-0.2,0.4-0.5,0.5-0.8c0.1-0.3,0.2-0.6,0.2-0.9c0-0.5-0.1-0.8-0.3-1.1s-0.4-0.5-0.7-0.7s-0.6-0.3-1-0.4
			c-0.4-0.1-0.8-0.1-1.2-0.1c-0.5,0-0.9,0-1.3,0c-0.4,0-0.7,0.1-0.9,0.1v5H860z M861.2,445c0.4,0,0.9-0.1,1.3-0.2s0.8-0.3,1.1-0.5
			c0.3-0.2,0.6-0.5,0.8-0.9c0.2-0.3,0.3-0.7,0.3-1.2c0-0.6-0.1-1-0.3-1.4c-0.2-0.3-0.5-0.6-0.9-0.8s-0.8-0.3-1.2-0.4
			c-0.5-0.1-0.9-0.1-1.4-0.1h-1.8v5.3c0.1,0,0.2,0,0.4,0.1c0.2,0,0.4,0,0.6,0c0.2,0,0.4,0,0.7,0C860.8,445,861,445,861.2,445z"/>
		<path fill="#1F2C46" d="M869.1,436.6c0.5-0.3,1.2-0.6,1.9-0.7c0.7-0.2,1.4-0.2,2.2-0.2c0.7,0,1.3,0.1,1.8,0.3
			c0.4,0.2,0.8,0.5,1,0.8c0.2,0.3,0.4,0.7,0.5,1s0.1,0.8,0.1,1.1c0,0.8,0,1.7-0.1,2.5s-0.1,1.6-0.1,2.3c0,0.5,0,1,0.1,1.5
			s0.1,0.9,0.2,1.3h-1.2l-0.4-1.5h-0.1c-0.1,0.2-0.3,0.4-0.5,0.6c-0.2,0.2-0.4,0.4-0.7,0.5c-0.3,0.1-0.6,0.3-0.9,0.4
			c-0.3,0.1-0.7,0.1-1.2,0.1c-0.4,0-0.9-0.1-1.2-0.2c-0.4-0.1-0.7-0.3-1-0.6c-0.3-0.3-0.5-0.6-0.7-0.9s-0.2-0.8-0.2-1.2
			c0-0.6,0.1-1.1,0.4-1.5c0.3-0.4,0.6-0.7,1.1-1c0.5-0.2,1-0.4,1.6-0.5c0.6-0.1,1.3-0.2,2.1-0.2c0.2,0,0.4,0,0.6,0
			c0.2,0,0.4,0,0.6,0c0-0.4,0.1-0.8,0.1-1.1c0-0.8-0.2-1.3-0.5-1.6c-0.3-0.3-0.9-0.5-1.7-0.5c-0.2,0-0.5,0-0.8,0.1
			c-0.3,0-0.6,0.1-0.8,0.2c-0.3,0.1-0.6,0.1-0.8,0.2s-0.5,0.2-0.7,0.3L869.1,436.6z M872.1,445c0.4,0,0.7-0.1,1-0.2s0.6-0.2,0.8-0.4
			c0.2-0.2,0.4-0.3,0.6-0.5c0.1-0.2,0.3-0.4,0.3-0.6v-1.7c-0.2,0-0.4,0-0.6,0c-0.2,0-0.4,0-0.6,0c-0.4,0-0.9,0-1.3,0.1
			s-0.8,0.1-1.1,0.3c-0.3,0.1-0.6,0.3-0.8,0.5c-0.2,0.2-0.3,0.5-0.3,0.9c0,0.5,0.2,0.9,0.5,1.2C871.1,444.9,871.6,445,872.1,445z"/>
		<path fill="#1F2C46" d="M884.3,443.5c0-0.4-0.1-0.7-0.4-1c-0.3-0.2-0.6-0.4-0.9-0.6c-0.4-0.2-0.8-0.3-1.2-0.5
			c-0.4-0.1-0.8-0.3-1.2-0.6c-0.4-0.2-0.7-0.5-0.9-0.9c-0.3-0.4-0.4-0.9-0.4-1.5c0-1,0.3-1.7,0.9-2.2c0.6-0.5,1.4-0.7,2.4-0.7
			c0.8,0,1.4,0.1,1.9,0.2s1,0.3,1.3,0.5l-0.4,1.4c-0.3-0.2-0.7-0.3-1.2-0.4c-0.5-0.1-0.9-0.2-1.5-0.2c-0.6,0-1.1,0.1-1.4,0.3
			s-0.4,0.6-0.4,1.1c0,0.4,0.1,0.6,0.4,0.8c0.3,0.2,0.6,0.4,0.9,0.5c0.4,0.2,0.8,0.3,1.2,0.5c0.4,0.2,0.8,0.4,1.2,0.6
			c0.4,0.3,0.7,0.6,0.9,1c0.3,0.4,0.4,0.9,0.4,1.5c0,0.4-0.1,0.9-0.2,1.3c-0.1,0.4-0.4,0.7-0.7,1c-0.3,0.3-0.7,0.5-1.1,0.7
			c-0.5,0.2-1,0.2-1.6,0.2c-0.8,0-1.5-0.1-2-0.2c-0.6-0.2-1-0.3-1.4-0.5l0.5-1.4c0.3,0.2,0.7,0.3,1.3,0.5c0.5,0.2,1,0.2,1.6,0.2
			c0.6,0,1.1-0.1,1.5-0.4S884.3,444.1,884.3,443.5z"/>
		<path fill="#1F2C46" d="M896.2,445.5c-0.4,0.3-0.9,0.6-1.6,0.8s-1.3,0.3-2,0.3c-0.8,0-1.5-0.1-2.1-0.4s-1.1-0.6-1.4-1.1
			s-0.7-1.1-0.8-1.7c-0.2-0.7-0.3-1.4-0.3-2.3c0-1.8,0.4-3.2,1.2-4.1c0.8-0.9,1.9-1.4,3.4-1.4c0.5,0,1,0.1,1.4,0.2
			c0.5,0.1,0.9,0.3,1.3,0.6s0.7,0.7,0.9,1.2s0.4,1.2,0.4,2.1c0,0.5,0,1-0.1,1.5h-6.7c0,0.6,0.1,1.2,0.2,1.6s0.3,0.9,0.6,1.2
			c0.3,0.3,0.6,0.6,1,0.8c0.4,0.2,0.9,0.3,1.6,0.3c0.5,0,1-0.1,1.4-0.3s0.8-0.4,1.1-0.6L896.2,445.5z M892.6,437.1
			c-0.8,0-1.5,0.2-2,0.7c-0.5,0.4-0.8,1.2-0.9,2.2h5.2c0-1.1-0.2-1.8-0.6-2.2C893.9,437.3,893.3,437.1,892.6,437.1z"/>
	</g>
	<g enable-background="new    ">
		<path fill="#1F2C46" d="M84.2,250.8c0.5-0.1,1.1-0.2,1.8-0.2c0.7-0.1,1.3-0.1,1.9-0.1c0.6,0,1.3,0.1,1.8,0.2
			c0.6,0.1,1.1,0.4,1.5,0.7s0.8,0.7,1.1,1.3c0.3,0.5,0.4,1.1,0.4,1.9c0,1.1-0.3,2.1-0.9,2.8s-1.4,1.2-2.4,1.4l1,0.8l3.7,5.8h-2
			L88,259l-2.1-0.3v6.7h-1.7V250.8z M87.9,252c-0.2,0-0.4,0-0.6,0s-0.4,0-0.6,0c-0.2,0-0.4,0-0.5,0c-0.2,0-0.3,0-0.4,0.1v5.4h1.6
			c1,0,1.8-0.2,2.4-0.7c0.6-0.5,0.9-1.2,0.9-2.2c0-0.8-0.3-1.4-0.8-1.9C89.6,252.2,88.9,252,87.9,252z"/>
		<path fill="#1F2C46" d="M103.1,264.5c-0.4,0.3-0.9,0.6-1.6,0.8c-0.6,0.2-1.3,0.3-2,0.3c-0.8,0-1.5-0.1-2.1-0.4s-1.1-0.6-1.4-1.1
			s-0.7-1.1-0.8-1.7c-0.2-0.7-0.3-1.4-0.3-2.3c0-1.8,0.4-3.2,1.2-4.1c0.8-0.9,1.9-1.4,3.4-1.4c0.5,0,1,0.1,1.4,0.2
			c0.5,0.1,0.9,0.3,1.3,0.6s0.7,0.7,0.9,1.2c0.2,0.5,0.4,1.2,0.4,2.1c0,0.5,0,1-0.1,1.5h-6.7c0,0.6,0.1,1.2,0.2,1.6s0.3,0.9,0.6,1.2
			c0.3,0.3,0.6,0.6,1,0.8c0.4,0.2,0.9,0.3,1.6,0.3c0.5,0,1-0.1,1.4-0.3c0.5-0.2,0.8-0.4,1.1-0.6L103.1,264.5z M99.5,256.1
			c-0.8,0-1.5,0.2-2,0.7s-0.8,1.2-0.9,2.2h5.2c0-1.1-0.2-1.8-0.6-2.2C100.8,256.3,100.3,256.1,99.5,256.1z"/>
		<path fill="#1F2C46" d="M110.8,262.5c0-0.4-0.1-0.7-0.4-1c-0.3-0.2-0.6-0.4-0.9-0.6c-0.4-0.2-0.8-0.3-1.2-0.5
			c-0.4-0.1-0.8-0.3-1.2-0.6c-0.4-0.2-0.7-0.5-0.9-0.9c-0.3-0.4-0.4-0.9-0.4-1.5c0-1,0.3-1.7,0.9-2.2s1.4-0.7,2.4-0.7
			c0.8,0,1.4,0.1,1.9,0.2s1,0.3,1.3,0.5l-0.4,1.4c-0.3-0.2-0.7-0.3-1.2-0.4c-0.5-0.1-0.9-0.2-1.5-0.2c-0.6,0-1.1,0.1-1.4,0.3
			c-0.3,0.2-0.4,0.6-0.4,1.1c0,0.4,0.1,0.6,0.4,0.8c0.3,0.2,0.6,0.4,0.9,0.5c0.4,0.2,0.8,0.3,1.2,0.5s0.8,0.4,1.2,0.6s0.7,0.6,0.9,1
			c0.3,0.4,0.4,0.9,0.4,1.5c0,0.4-0.1,0.9-0.2,1.3s-0.4,0.7-0.7,1c-0.3,0.3-0.7,0.5-1.1,0.7c-0.5,0.2-1,0.2-1.6,0.2
			c-0.8,0-1.5-0.1-2-0.2c-0.6-0.2-1-0.3-1.4-0.5l0.5-1.4c0.3,0.2,0.7,0.3,1.3,0.5c0.5,0.2,1,0.2,1.6,0.2c0.6,0,1.1-0.1,1.5-0.4
			C110.6,263.5,110.8,263.1,110.8,262.5z"/>
		<path fill="#1F2C46" d="M114.4,260.1c0-1.8,0.4-3.1,1.2-4.1c0.8-0.9,1.9-1.4,3.4-1.4c0.8,0,1.5,0.1,2,0.4c0.6,0.3,1.1,0.6,1.4,1.1
			c0.4,0.5,0.7,1.1,0.8,1.7c0.2,0.7,0.3,1.4,0.3,2.3c0,1.8-0.4,3.1-1.2,4.1c-0.8,0.9-1.9,1.4-3.4,1.4c-0.8,0-1.5-0.1-2-0.4
			s-1.1-0.6-1.4-1.1s-0.7-1.1-0.8-1.7C114.5,261.7,114.4,260.9,114.4,260.1z M116.1,260.1c0,0.5,0.1,1,0.2,1.5
			c0.1,0.5,0.3,0.9,0.5,1.3c0.2,0.4,0.5,0.7,0.9,0.9c0.4,0.2,0.8,0.3,1.3,0.3c1.9,0,2.9-1.3,2.9-4c0-0.5-0.1-1.1-0.2-1.6
			c-0.1-0.5-0.3-0.9-0.5-1.3c-0.2-0.4-0.5-0.7-0.9-0.9c-0.4-0.2-0.8-0.3-1.3-0.3C117.1,256,116.1,257.4,116.1,260.1z"/>
		<path fill="#1F2C46" d="M127.7,254.8v6c0,0.5,0,1,0.1,1.4s0.2,0.8,0.3,1c0.2,0.3,0.4,0.5,0.6,0.6c0.3,0.1,0.6,0.2,1,0.2
			c0.4,0,0.7-0.1,1-0.2c0.3-0.1,0.6-0.3,0.8-0.5s0.4-0.5,0.6-0.7c0.2-0.3,0.3-0.6,0.4-0.9v-7h1.7v7.5c0,0.5,0,1,0.1,1.6
			s0.1,1,0.2,1.4h-1.2l-0.4-1.7h-0.1c-0.3,0.5-0.8,1-1.3,1.4c-0.5,0.4-1.2,0.5-2.1,0.5c-0.6,0-1.1-0.1-1.5-0.2s-0.8-0.4-1.1-0.7
			c-0.3-0.3-0.5-0.8-0.7-1.4s-0.2-1.3-0.2-2.2v-6.3H127.7z"/>
		<path fill="#1F2C46" d="M142.5,256.5c-0.4-0.1-0.8-0.2-1.2-0.2c-0.6,0-1.1,0.2-1.4,0.5c-0.4,0.3-0.6,0.7-0.7,1.2v7.3h-1.7v-10.5
			h1.2l0.3,1.3h0.1c0.3-0.5,0.6-0.8,1-1.1c0.4-0.3,0.8-0.4,1.4-0.4c0.4,0,0.9,0.1,1.4,0.2L142.5,256.5z"/>
		<path fill="#1F2C46" d="M151.8,264.6c-0.4,0.3-0.9,0.5-1.5,0.7c-0.6,0.2-1.2,0.2-1.8,0.2c-0.8,0-1.5-0.1-2.1-0.4
			c-0.6-0.3-1-0.6-1.4-1.1s-0.6-1.1-0.8-1.7c-0.2-0.7-0.2-1.4-0.2-2.3c0-1.8,0.4-3.1,1.2-4.1c0.8-0.9,1.9-1.4,3.4-1.4
			c0.7,0,1.2,0.1,1.7,0.2c0.5,0.1,0.9,0.3,1.3,0.5l-0.5,1.4c-0.3-0.2-0.7-0.3-1.1-0.4c-0.4-0.1-0.8-0.2-1.3-0.2c-2,0-3,1.3-3,4
			c0,0.5,0.1,1,0.2,1.5c0.1,0.5,0.3,0.9,0.5,1.3c0.2,0.4,0.6,0.7,1,0.9c0.4,0.2,0.9,0.3,1.5,0.3c0.5,0,1-0.1,1.4-0.2s0.7-0.3,1-0.5
			L151.8,264.6z"/>
		<path fill="#1F2C46" d="M161.3,264.5c-0.4,0.3-0.9,0.6-1.6,0.8c-0.6,0.2-1.3,0.3-2,0.3c-0.8,0-1.5-0.1-2.1-0.4s-1.1-0.6-1.4-1.1
			s-0.7-1.1-0.8-1.7c-0.2-0.7-0.3-1.4-0.3-2.3c0-1.8,0.4-3.2,1.2-4.1c0.8-0.9,1.9-1.4,3.4-1.4c0.5,0,1,0.1,1.4,0.2
			c0.5,0.1,0.9,0.3,1.3,0.6s0.7,0.7,0.9,1.2c0.2,0.5,0.4,1.2,0.4,2.1c0,0.5,0,1-0.1,1.5h-6.7c0,0.6,0.1,1.2,0.2,1.6s0.3,0.9,0.6,1.2
			c0.3,0.3,0.6,0.6,1,0.8c0.4,0.2,0.9,0.3,1.6,0.3c0.5,0,1-0.1,1.4-0.3c0.5-0.2,0.8-0.4,1.1-0.6L161.3,264.5z M157.7,256.1
			c-0.8,0-1.5,0.2-2,0.7s-0.8,1.2-0.9,2.2h5.2c0-1.1-0.2-1.8-0.6-2.2C159,256.3,158.5,256.1,157.7,256.1z"/>
	</g>
	<g enable-background="new    ">
		<path fill="#1F2C46" d="M176,262.5c0-0.4-0.1-0.7-0.4-1c-0.3-0.2-0.6-0.4-0.9-0.6c-0.4-0.2-0.8-0.3-1.2-0.5
			c-0.4-0.1-0.8-0.3-1.2-0.6c-0.4-0.2-0.7-0.5-0.9-0.9c-0.3-0.4-0.4-0.9-0.4-1.5c0-1,0.3-1.7,0.9-2.2s1.4-0.7,2.4-0.7
			c0.8,0,1.4,0.1,1.9,0.2s1,0.3,1.3,0.5l-0.4,1.4c-0.3-0.2-0.7-0.3-1.2-0.4c-0.5-0.1-0.9-0.2-1.5-0.2c-0.6,0-1.1,0.1-1.4,0.3
			c-0.3,0.2-0.4,0.6-0.4,1.1c0,0.4,0.1,0.6,0.4,0.8c0.3,0.2,0.6,0.4,0.9,0.5c0.4,0.2,0.8,0.3,1.2,0.5s0.8,0.4,1.2,0.6s0.7,0.6,0.9,1
			c0.3,0.4,0.4,0.9,0.4,1.5c0,0.4-0.1,0.9-0.2,1.3s-0.4,0.7-0.7,1c-0.3,0.3-0.7,0.5-1.1,0.7c-0.5,0.2-1,0.2-1.6,0.2
			c-0.8,0-1.5-0.1-2-0.2c-0.6-0.2-1-0.3-1.4-0.5l0.5-1.4c0.3,0.2,0.7,0.3,1.3,0.5c0.5,0.2,1,0.2,1.6,0.2c0.6,0,1.1-0.1,1.5-0.4
			C175.8,263.5,176,263.1,176,262.5z"/>
		<path fill="#1F2C46" d="M187,265.3v-6c0-0.5,0-1-0.1-1.4s-0.2-0.8-0.3-1c-0.2-0.3-0.4-0.5-0.7-0.6c-0.3-0.1-0.7-0.2-1.1-0.2
			c-0.7,0-1.3,0.2-1.8,0.6c-0.5,0.4-0.9,1-1,1.6v7h-1.7v-14.7h1.7v5.4h0.1c0.4-0.4,0.8-0.8,1.3-1c0.5-0.3,1.1-0.4,1.9-0.4
			c0.6,0,1.1,0.1,1.5,0.2s0.8,0.4,1.1,0.7c0.3,0.3,0.5,0.8,0.6,1.4c0.1,0.6,0.2,1.3,0.2,2.2v6.3H187z"/>
		<path fill="#1F2C46" d="M191.5,255.6c0.5-0.3,1.2-0.6,1.9-0.7c0.7-0.2,1.4-0.2,2.2-0.2c0.7,0,1.3,0.1,1.8,0.3s0.8,0.5,1,0.8
			c0.2,0.3,0.4,0.7,0.5,1c0.1,0.4,0.1,0.8,0.1,1.1c0,0.8,0,1.7-0.1,2.5s-0.1,1.6-0.1,2.3c0,0.5,0,1,0.1,1.5s0.1,0.9,0.2,1.3h-1.2
			l-0.4-1.5h-0.1c-0.1,0.2-0.3,0.4-0.5,0.6c-0.2,0.2-0.4,0.4-0.7,0.5c-0.3,0.1-0.6,0.3-0.9,0.4c-0.3,0.1-0.7,0.1-1.2,0.1
			c-0.4,0-0.9-0.1-1.2-0.2c-0.4-0.1-0.7-0.3-1-0.6c-0.3-0.3-0.5-0.6-0.7-0.9c-0.2-0.4-0.2-0.8-0.2-1.2c0-0.6,0.1-1.1,0.4-1.5
			c0.3-0.4,0.6-0.7,1.1-1c0.5-0.2,1-0.4,1.6-0.5c0.6-0.1,1.3-0.2,2.1-0.2c0.2,0,0.4,0,0.6,0s0.4,0,0.6,0c0-0.4,0.1-0.8,0.1-1.1
			c0-0.8-0.2-1.3-0.5-1.6c-0.3-0.3-0.9-0.5-1.7-0.5c-0.2,0-0.5,0-0.8,0.1s-0.6,0.1-0.8,0.2c-0.3,0.1-0.6,0.1-0.8,0.2
			c-0.3,0.1-0.5,0.2-0.7,0.3L191.5,255.6z M194.5,264c0.4,0,0.7-0.1,1-0.2c0.3-0.1,0.6-0.2,0.8-0.4c0.2-0.2,0.4-0.3,0.6-0.5
			c0.1-0.2,0.3-0.4,0.3-0.6v-1.7c-0.2,0-0.4,0-0.6,0c-0.2,0-0.4,0-0.6,0c-0.4,0-0.9,0-1.3,0.1c-0.4,0-0.8,0.1-1.1,0.3
			c-0.3,0.1-0.6,0.3-0.8,0.5c-0.2,0.2-0.3,0.5-0.3,0.9c0,0.5,0.2,0.9,0.5,1.2C193.5,263.9,194,264,194.5,264z"/>
		<path fill="#1F2C46" d="M207.1,256.5c-0.4-0.1-0.8-0.2-1.2-0.2c-0.6,0-1.1,0.2-1.4,0.5c-0.4,0.3-0.6,0.7-0.7,1.2v7.3h-1.7v-10.5
			h1.2l0.3,1.3h0.1c0.3-0.5,0.6-0.8,1-1.1c0.4-0.3,0.8-0.4,1.4-0.4c0.4,0,0.9,0.1,1.4,0.2L207.1,256.5z"/>
		<path fill="#1F2C46" d="M209.3,251.7c0-0.3,0.1-0.6,0.3-0.8c0.2-0.2,0.5-0.3,0.8-0.3s0.6,0.1,0.9,0.3c0.2,0.2,0.4,0.5,0.4,0.8
			c0,0.3-0.1,0.6-0.4,0.8c-0.2,0.2-0.5,0.3-0.9,0.3s-0.6-0.1-0.8-0.3C209.4,252.2,209.3,252,209.3,251.7z M209.6,254.8h1.7v10.5
			h-1.7V254.8z"/>
		<path fill="#1F2C46" d="M221.6,265.3v-6c0-1.1-0.2-1.9-0.5-2.5s-0.9-0.8-1.7-0.8c-0.7,0-1.4,0.2-1.8,0.6c-0.5,0.4-0.8,0.9-1,1.5
			v7.2h-1.7v-10.5h1.2l0.3,1.3h0.1c0.3-0.4,0.8-0.8,1.4-1.1c0.6-0.3,1.2-0.4,2-0.4c0.6,0,1.1,0.1,1.5,0.2s0.8,0.4,1.1,0.7
			c0.3,0.3,0.5,0.8,0.7,1.4c0.1,0.6,0.2,1.3,0.2,2.2v6.3H221.6z"/>
		<path fill="#1F2C46" d="M234.4,265.8c0,1.4-0.4,2.4-1.1,3c-0.7,0.6-1.8,1-3.2,1c-0.8,0-1.5-0.1-2-0.2c-0.5-0.1-0.9-0.2-1.3-0.4
			l0.4-1.4c0.3,0.1,0.7,0.2,1.1,0.4c0.4,0.1,0.9,0.2,1.5,0.2c0.6,0,1.1-0.1,1.4-0.2c0.4-0.1,0.7-0.3,0.9-0.5
			c0.2-0.2,0.4-0.6,0.5-0.9c0.1-0.4,0.1-0.8,0.1-1.4v-1h-0.1c-0.3,0.4-0.6,0.7-1.1,0.9c-0.4,0.2-1,0.3-1.7,0.3
			c-1.4,0-2.5-0.4-3.1-1.3c-0.7-0.9-1-2.3-1-4.1c0-1.8,0.4-3.2,1.3-4.1s2.1-1.4,3.8-1.4c0.8,0,1.5,0.1,2,0.2s1.1,0.3,1.5,0.4V265.8z
			 M230.2,264.1c0.7,0,1.3-0.2,1.7-0.5c0.4-0.4,0.7-0.9,0.9-1.7v-5.4c-0.6-0.3-1.3-0.4-2.1-0.4c-1,0-1.7,0.3-2.2,1s-0.8,1.7-0.8,3
			c0,0.6,0,1.1,0.1,1.6c0.1,0.5,0.3,0.9,0.5,1.3c0.2,0.4,0.5,0.6,0.8,0.8S229.7,264.1,230.2,264.1z"/>
	</g>
	<g>
		<g enable-background="new    ">
			<path fill="#1F2C46" d="M383.5,89h1.7v14.7h-1.7V89z"/>
			<path fill="#1F2C46" d="M395.2,103.7v-5.9c0-0.6,0-1-0.1-1.5c0-0.4-0.1-0.8-0.3-1c-0.1-0.3-0.3-0.5-0.6-0.6
				c-0.3-0.1-0.6-0.2-1-0.2c-0.6,0-1.2,0.2-1.6,0.6c-0.4,0.4-0.7,0.9-0.9,1.5v7.2H389V93.2h1.2l0.3,1.3h0.1c0.4-0.4,0.8-0.8,1.3-1.1
				c0.5-0.3,1.1-0.4,1.9-0.4c0.7,0,1.2,0.1,1.6,0.4c0.4,0.3,0.8,0.7,1,1.4c0.3-0.5,0.8-1,1.3-1.3s1.2-0.5,1.9-0.5
				c0.6,0,1.1,0.1,1.5,0.2c0.4,0.1,0.7,0.4,1,0.7c0.3,0.3,0.5,0.8,0.6,1.4c0.1,0.6,0.2,1.3,0.2,2.2v6.3h-1.7v-6.3
				c0-0.5,0-0.9-0.1-1.3c0-0.4-0.1-0.7-0.3-0.9c-0.1-0.2-0.4-0.4-0.6-0.5c-0.3-0.1-0.6-0.2-1-0.2c-0.7,0-1.2,0.2-1.6,0.6
				c-0.4,0.4-0.7,1-0.8,1.7v7H395.2z"/>
			<path fill="#1F2C46" d="M412.2,103.7v-5.9c0-0.6,0-1-0.1-1.5c0-0.4-0.1-0.8-0.3-1c-0.1-0.3-0.3-0.5-0.6-0.6
				c-0.3-0.1-0.6-0.2-1-0.2c-0.6,0-1.2,0.2-1.6,0.6c-0.4,0.4-0.7,0.9-0.9,1.5v7.2h-1.7V93.2h1.2l0.3,1.3h0.1
				c0.4-0.4,0.8-0.8,1.3-1.1c0.5-0.3,1.1-0.4,1.9-0.4c0.7,0,1.2,0.1,1.6,0.4c0.4,0.3,0.8,0.7,1,1.4c0.3-0.5,0.8-1,1.3-1.3
				s1.2-0.5,1.9-0.5c0.6,0,1.1,0.1,1.5,0.2c0.4,0.1,0.7,0.4,1,0.7c0.3,0.3,0.5,0.8,0.6,1.4c0.1,0.6,0.2,1.3,0.2,2.2v6.3h-1.7v-6.3
				c0-0.5,0-0.9-0.1-1.3c0-0.4-0.1-0.7-0.3-0.9c-0.1-0.2-0.4-0.4-0.6-0.5c-0.3-0.1-0.6-0.2-1-0.2c-0.7,0-1.2,0.2-1.6,0.6
				c-0.4,0.4-0.7,1-0.8,1.7v7H412.2z"/>
			<path fill="#1F2C46" d="M430.8,102.9c-0.4,0.3-0.9,0.6-1.6,0.8c-0.6,0.2-1.3,0.3-2,0.3c-0.8,0-1.5-0.1-2.1-0.4s-1.1-0.6-1.4-1.1
				s-0.7-1.1-0.8-1.7c-0.2-0.7-0.3-1.4-0.3-2.3c0-1.8,0.4-3.2,1.2-4.1c0.8-0.9,1.9-1.4,3.4-1.4c0.5,0,1,0.1,1.4,0.2
				c0.5,0.1,0.9,0.3,1.3,0.6s0.7,0.7,0.9,1.2c0.2,0.5,0.4,1.2,0.4,2.1c0,0.5,0,1-0.1,1.5h-6.7c0,0.6,0.1,1.2,0.2,1.6
				s0.3,0.9,0.6,1.2c0.3,0.3,0.6,0.6,1,0.8c0.4,0.2,0.9,0.3,1.6,0.3c0.5,0,1-0.1,1.4-0.3c0.5-0.2,0.8-0.4,1.1-0.6L430.8,102.9z
				 M427.2,94.5c-0.8,0-1.5,0.2-2,0.7s-0.8,1.2-0.9,2.2h5.2c0-1.1-0.2-1.8-0.6-2.2C428.5,94.7,427.9,94.5,427.2,94.5z"/>
			<path fill="#1F2C46" d="M441.8,100.1c0,0.7,0,1.4,0,1.9c0,0.6,0.1,1.2,0.2,1.7h-1.1l-0.4-1.5h-0.1c-0.3,0.5-0.7,0.9-1.2,1.2
				c-0.5,0.3-1.2,0.5-1.9,0.5c-1.4,0-2.4-0.4-3.1-1.3c-0.7-0.9-1-2.3-1-4.1c0-1.8,0.4-3.2,1.3-4.1c0.8-0.9,2-1.4,3.5-1.4
				c0.5,0,0.9,0,1.2,0.1c0.3,0.1,0.6,0.1,1,0.3V89h1.7V100.1z M437.6,102.5c0.7,0,1.3-0.2,1.7-0.6c0.4-0.4,0.7-0.9,0.9-1.7v-5.2
				c-0.3-0.2-0.5-0.3-0.9-0.4c-0.3-0.1-0.7-0.1-1.3-0.1c-1,0-1.7,0.3-2.3,1s-0.8,1.7-0.8,3.1c0,0.6,0,1.1,0.1,1.6
				c0.1,0.5,0.2,0.9,0.5,1.3c0.2,0.4,0.5,0.6,0.8,0.8C436.7,102.4,437.1,102.5,437.6,102.5z"/>
			<path fill="#1F2C46" d="M445.1,90.1c0-0.3,0.1-0.6,0.3-0.8c0.2-0.2,0.5-0.3,0.8-0.3s0.6,0.1,0.9,0.3c0.2,0.2,0.4,0.5,0.4,0.8
				c0,0.3-0.1,0.6-0.4,0.8c-0.2,0.2-0.5,0.3-0.9,0.3s-0.6-0.1-0.8-0.3C445.2,90.6,445.1,90.4,445.1,90.1z M445.4,93.2h1.7v10.5h-1.7
				V93.2z"/>
			<path fill="#1F2C46" d="M450.5,94c0.5-0.3,1.2-0.6,1.9-0.7c0.7-0.2,1.4-0.2,2.2-0.2c0.7,0,1.3,0.1,1.8,0.3s0.8,0.5,1,0.8
				c0.2,0.3,0.4,0.7,0.5,1c0.1,0.4,0.1,0.8,0.1,1.1c0,0.8,0,1.7-0.1,2.5s-0.1,1.6-0.1,2.3c0,0.5,0,1,0.1,1.5s0.1,0.9,0.2,1.3h-1.2
				l-0.4-1.5h-0.1c-0.1,0.2-0.3,0.4-0.5,0.6c-0.2,0.2-0.4,0.4-0.7,0.5c-0.3,0.1-0.6,0.3-0.9,0.4c-0.3,0.1-0.7,0.1-1.2,0.1
				c-0.4,0-0.9-0.1-1.2-0.2c-0.4-0.1-0.7-0.3-1-0.6c-0.3-0.3-0.5-0.6-0.7-0.9c-0.2-0.4-0.2-0.8-0.2-1.2c0-0.6,0.1-1.1,0.4-1.5
				c0.3-0.4,0.6-0.7,1.1-1c0.5-0.2,1-0.4,1.6-0.5c0.6-0.1,1.3-0.2,2.1-0.2c0.2,0,0.4,0,0.6,0s0.4,0,0.6,0c0-0.4,0.1-0.8,0.1-1.1
				c0-0.8-0.2-1.3-0.5-1.6c-0.3-0.3-0.9-0.5-1.7-0.5c-0.2,0-0.5,0-0.8,0.1s-0.6,0.1-0.8,0.2c-0.3,0.1-0.6,0.1-0.8,0.2
				c-0.3,0.1-0.5,0.2-0.7,0.3L450.5,94z M453.5,102.4c0.4,0,0.7-0.1,1-0.2c0.3-0.1,0.6-0.2,0.8-0.4c0.2-0.2,0.4-0.3,0.6-0.5
				c0.1-0.2,0.3-0.4,0.3-0.6V99c-0.2,0-0.4,0-0.6,0c-0.2,0-0.4,0-0.6,0c-0.4,0-0.9,0-1.3,0.1c-0.4,0-0.8,0.1-1.1,0.3
				c-0.3,0.1-0.6,0.3-0.8,0.5c-0.2,0.2-0.3,0.5-0.3,0.9c0,0.5,0.2,0.9,0.5,1.2C452.5,102.3,453,102.4,453.5,102.4z"/>
			<path fill="#1F2C46" d="M459.7,93.2h1.6v-2.1l1.7-0.5v2.6h2.9v1.5H463v5.8c0,0.7,0.1,1.2,0.3,1.5c0.2,0.3,0.5,0.5,0.9,0.5
				c0.4,0,0.7,0,0.9-0.1s0.5-0.2,0.8-0.3l0.4,1.3c-0.4,0.2-0.8,0.3-1.2,0.4s-0.9,0.2-1.4,0.2c-0.9,0-1.5-0.2-1.8-0.7
				c-0.4-0.5-0.5-1.3-0.5-2.4v-6.1h-1.6V93.2z"/>
			<path fill="#1F2C46" d="M475.6,102.9c-0.4,0.3-0.9,0.6-1.6,0.8c-0.6,0.2-1.3,0.3-2,0.3c-0.8,0-1.5-0.1-2.1-0.4s-1.1-0.6-1.4-1.1
				s-0.7-1.1-0.8-1.7c-0.2-0.7-0.3-1.4-0.3-2.3c0-1.8,0.4-3.2,1.2-4.1c0.8-0.9,1.9-1.4,3.4-1.4c0.5,0,1,0.1,1.4,0.2
				c0.5,0.1,0.9,0.3,1.3,0.6s0.7,0.7,0.9,1.2c0.2,0.5,0.4,1.2,0.4,2.1c0,0.5,0,1-0.1,1.5h-6.7c0,0.6,0.1,1.2,0.2,1.6
				s0.3,0.9,0.6,1.2c0.3,0.3,0.6,0.6,1,0.8c0.4,0.2,0.9,0.3,1.6,0.3c0.5,0,1-0.1,1.4-0.3c0.5-0.2,0.8-0.4,1.1-0.6L475.6,102.9z
				 M472,94.5c-0.8,0-1.5,0.2-2,0.7s-0.8,1.2-0.9,2.2h5.2c0-1.1-0.2-1.8-0.6-2.2C473.4,94.7,472.8,94.5,472,94.5z"/>
		</g>
		<g enable-background="new    ">
			<path fill="#1F2C46" d="M491.7,103.1c-0.4,0.3-0.9,0.5-1.5,0.7c-0.6,0.2-1.2,0.2-1.8,0.2c-0.8,0-1.5-0.1-2.1-0.4
				c-0.6-0.3-1-0.6-1.4-1.1s-0.6-1.1-0.8-1.7c-0.2-0.7-0.2-1.4-0.2-2.3c0-1.8,0.4-3.1,1.2-4.1c0.8-0.9,1.9-1.4,3.4-1.4
				c0.7,0,1.2,0.1,1.7,0.2c0.5,0.1,0.9,0.3,1.3,0.5l-0.5,1.4c-0.3-0.2-0.7-0.3-1.1-0.4c-0.4-0.1-0.8-0.2-1.3-0.2c-2,0-3,1.3-3,4
				c0,0.5,0.1,1,0.2,1.5c0.1,0.5,0.3,0.9,0.5,1.3c0.2,0.4,0.6,0.7,1,0.9c0.4,0.2,0.9,0.3,1.5,0.3c0.5,0,1-0.1,1.4-0.2s0.7-0.3,1-0.5
				L491.7,103.1z"/>
			<path fill="#1F2C46" d="M492.9,98.5c0-1.8,0.4-3.1,1.2-4.1c0.8-0.9,1.9-1.4,3.4-1.4c0.8,0,1.5,0.1,2,0.4c0.6,0.3,1.1,0.6,1.4,1.1
				c0.4,0.5,0.7,1.1,0.8,1.7s0.3,1.4,0.3,2.3c0,1.8-0.4,3.1-1.2,4.1s-1.9,1.4-3.4,1.4c-0.8,0-1.5-0.1-2-0.4s-1.1-0.6-1.4-1.1
				s-0.7-1.1-0.8-1.7C493,100.1,492.9,99.3,492.9,98.5z M494.6,98.5c0,0.5,0.1,1,0.2,1.5c0.1,0.5,0.3,0.9,0.5,1.3
				c0.2,0.4,0.5,0.7,0.9,0.9c0.4,0.2,0.8,0.3,1.3,0.3c1.9,0,2.9-1.3,2.9-4c0-0.5-0.1-1.1-0.2-1.6c-0.1-0.5-0.3-0.9-0.5-1.3
				c-0.2-0.4-0.5-0.7-0.9-0.9c-0.4-0.2-0.8-0.3-1.3-0.3C495.6,94.5,494.6,95.8,494.6,98.5z"/>
			<path fill="#1F2C46" d="M511.5,103.7v-6c0-1.1-0.2-1.9-0.5-2.5c-0.3-0.6-0.9-0.8-1.7-0.8c-0.7,0-1.4,0.2-1.8,0.6
				c-0.5,0.4-0.8,0.9-1,1.5v7.2h-1.7V93.2h1.2l0.3,1.3h0.1c0.3-0.4,0.8-0.8,1.4-1.1c0.6-0.3,1.2-0.4,2-0.4c0.6,0,1.1,0.1,1.5,0.2
				s0.8,0.4,1.1,0.7s0.5,0.8,0.7,1.4c0.1,0.6,0.2,1.3,0.2,2.2v6.3H511.5z"/>
			<path fill="#1F2C46" d="M523,103.7v-6c0-1.1-0.2-1.9-0.5-2.5c-0.3-0.6-0.9-0.8-1.7-0.8c-0.7,0-1.4,0.2-1.8,0.6
				c-0.5,0.4-0.8,0.9-1,1.5v7.2h-1.7V93.2h1.2l0.3,1.3h0.1c0.3-0.4,0.8-0.8,1.4-1.1c0.6-0.3,1.2-0.4,2-0.4c0.6,0,1.1,0.1,1.5,0.2
				s0.8,0.4,1.1,0.7c0.3,0.3,0.5,0.8,0.7,1.4c0.1,0.6,0.2,1.3,0.2,2.2v6.3H523z"/>
			<path fill="#1F2C46" d="M535.4,102.9c-0.4,0.3-0.9,0.6-1.6,0.8s-1.3,0.3-2,0.3c-0.8,0-1.5-0.1-2.1-0.4s-1.1-0.6-1.4-1.1
				s-0.7-1.1-0.8-1.7c-0.2-0.7-0.3-1.4-0.3-2.3c0-1.8,0.4-3.2,1.2-4.1c0.8-0.9,1.9-1.4,3.4-1.4c0.5,0,1,0.1,1.4,0.2
				c0.5,0.1,0.9,0.3,1.3,0.6s0.7,0.7,0.9,1.2s0.4,1.2,0.4,2.1c0,0.5,0,1-0.1,1.5h-6.7c0,0.6,0.1,1.2,0.2,1.6s0.3,0.9,0.6,1.2
				c0.3,0.3,0.6,0.6,1,0.8c0.4,0.2,0.9,0.3,1.6,0.3c0.5,0,1-0.1,1.4-0.3s0.8-0.4,1.1-0.6L535.4,102.9z M531.8,94.5
				c-0.8,0-1.5,0.2-2,0.7c-0.5,0.4-0.8,1.2-0.9,2.2h5.2c0-1.1-0.2-1.8-0.6-2.2C533.1,94.7,532.5,94.5,531.8,94.5z"/>
			<path fill="#1F2C46" d="M545.3,103.1c-0.4,0.3-0.9,0.5-1.5,0.7c-0.6,0.2-1.2,0.2-1.8,0.2c-0.8,0-1.5-0.1-2.1-0.4
				c-0.6-0.3-1-0.6-1.4-1.1c-0.4-0.5-0.6-1.1-0.8-1.7s-0.2-1.4-0.2-2.3c0-1.8,0.4-3.1,1.2-4.1c0.8-0.9,1.9-1.4,3.4-1.4
				c0.7,0,1.2,0.1,1.7,0.2c0.5,0.1,0.9,0.3,1.3,0.5l-0.5,1.4c-0.3-0.2-0.7-0.3-1.1-0.4c-0.4-0.1-0.8-0.2-1.3-0.2c-2,0-3,1.3-3,4
				c0,0.5,0.1,1,0.2,1.5c0.1,0.5,0.3,0.9,0.5,1.3s0.6,0.7,1,0.9c0.4,0.2,0.9,0.3,1.5,0.3c0.5,0,1-0.1,1.4-0.2c0.4-0.2,0.7-0.3,1-0.5
				L545.3,103.1z"/>
			<path fill="#1F2C46" d="M546.2,93.2h1.6v-2.1l1.7-0.5v2.6h2.9v1.5h-2.9v5.8c0,0.7,0.1,1.2,0.3,1.5s0.5,0.5,0.9,0.5
				c0.4,0,0.7,0,0.9-0.1s0.5-0.2,0.8-0.3l0.4,1.3c-0.4,0.2-0.8,0.3-1.2,0.4c-0.4,0.1-0.9,0.2-1.4,0.2c-0.9,0-1.5-0.2-1.8-0.7
				c-0.3-0.5-0.5-1.3-0.5-2.4v-6.1h-1.6V93.2z"/>
			<path fill="#1F2C46" d="M554.7,90.1c0-0.3,0.1-0.6,0.3-0.8c0.2-0.2,0.5-0.3,0.8-0.3s0.6,0.1,0.9,0.3c0.2,0.2,0.4,0.5,0.4,0.8
				c0,0.3-0.1,0.6-0.4,0.8c-0.2,0.2-0.5,0.3-0.9,0.3s-0.6-0.1-0.8-0.3S554.7,90.4,554.7,90.1z M555.1,93.2h1.7v10.5h-1.7V93.2z"/>
			<path fill="#1F2C46" d="M563.4,99.4l0.6,2h0l0.5-2l2.4-6.1h1.8l-4.5,10.7h-0.7l-4.6-10.7h1.9L563.4,99.4z"/>
			<path fill="#1F2C46" d="M570.5,90.1c0-0.3,0.1-0.6,0.3-0.8c0.2-0.2,0.5-0.3,0.8-0.3s0.6,0.1,0.9,0.3c0.2,0.2,0.4,0.5,0.4,0.8
				c0,0.3-0.1,0.6-0.4,0.8c-0.2,0.2-0.5,0.3-0.9,0.3s-0.6-0.1-0.8-0.3S570.5,90.4,570.5,90.1z M570.8,93.2h1.7v10.5h-1.7V93.2z"/>
			<path fill="#1F2C46" d="M574.7,93.2h1.6v-2.1l1.7-0.5v2.6h2.9v1.5H578v5.8c0,0.7,0.1,1.2,0.3,1.5s0.5,0.5,0.9,0.5
				c0.4,0,0.7,0,0.9-0.1s0.5-0.2,0.8-0.3l0.4,1.3c-0.4,0.2-0.8,0.3-1.2,0.4c-0.4,0.1-0.9,0.2-1.4,0.2c-0.9,0-1.5-0.2-1.8-0.7
				c-0.3-0.5-0.5-1.3-0.5-2.4v-6.1h-1.6V93.2z"/>
			<path fill="#1F2C46" d="M586.3,100l0.6,2h0.1l0.5-2l2-6.8h1.7l-3.1,9.4c-0.2,0.7-0.5,1.4-0.7,2c-0.2,0.6-0.5,1.2-0.8,1.7
				c-0.3,0.5-0.6,0.9-0.9,1.2c-0.3,0.3-0.8,0.5-1.2,0.5c-0.5,0-0.9-0.1-1.2-0.2l0.3-1.4c0.2,0.1,0.4,0.1,0.5,0.1
				c0.4,0,0.8-0.2,1.1-0.6c0.4-0.4,0.7-1.1,0.9-2.1l-4.2-10.5h1.9L586.3,100z"/>
		</g>
	</g>
	
		<ellipse transform="matrix(0.7413 -0.6712 0.6712 0.7413 111.1864 659.7773)" fill="#D75352" cx="911.4" cy="185.7" rx="4.6" ry="4.6"/>
	
		<ellipse transform="matrix(0.7413 -0.6712 0.6712 0.7413 50.4371 683.1848)" fill="#E6BC45" cx="911.4" cy="276.2" rx="4.6" ry="4.6"/>
	
		<ellipse transform="matrix(0.7413 -0.6712 0.6712 0.7413 -10.3897 706.6066)" fill="#41ACE1" cx="911.4" cy="366.8" rx="4.6" ry="4.6"/>
	
		<ellipse transform="matrix(0.7413 -0.6712 0.6712 0.7413 -71.249 730.0925)" fill="#D75352" cx="911.4" cy="457.5" rx="4.6" ry="4.6"/>
	
		<ellipse transform="matrix(0.7413 -0.6712 0.6712 0.7413 -104.7953 99.4655)" fill="#41ACE1" cx="76.6" cy="185.7" rx="4.6" ry="4.6"/>
	
		<ellipse transform="matrix(0.7413 -0.6712 0.6712 0.7413 46.9693 358.032)" fill="#E6BC45" cx="487.9" cy="118.1" rx="4.6" ry="4.6"/>
	
		<ellipse transform="matrix(0.7413 -0.6712 0.6712 0.7413 -165.5445 122.8729)" fill="#D75352" cx="76.6" cy="276.2" rx="4.6" ry="4.6"/>
	
		<ellipse transform="matrix(0.7413 -0.6712 0.6712 0.7413 -226.3715 146.2946)" fill="#E6BC45" cx="76.6" cy="366.8" rx="4.6" ry="4.6"/>
	
		<ellipse transform="matrix(0.7413 -0.6712 0.6712 0.7413 -287.2307 169.7806)" fill="#41ACE1" cx="76.6" cy="457.5" rx="4.6" ry="4.6"/>
	<g>
		<g>
			<g>
				<path fill="#41ACE1" d="M448.7,351.3c-4.8,0-8.8-1.6-12.1-4.8c-3.3-3.2-4.9-7.3-4.9-12.2c0-4.9,1.7-9,4.9-12.2
					c3.3-3.2,7.3-4.8,12.1-4.8c4.8,0,8.8,1.6,12.1,4.8c3.3,3.2,4.9,7.3,4.9,12.2c0,4.9-1.6,9-4.9,12.2
					C457.5,349.7,453.4,351.3,448.7,351.3z M448.7,320.1c-4.1,0-7.4,1.3-10.1,4c-2.8,2.7-4.1,6-4.1,10.2s1.3,7.5,4.1,10.3
					c2.8,2.7,6.1,4.1,10.1,4.1c4.1,0,7.4-1.3,10.1-4s4.1-6.1,4.1-10.3c0-4.2-1.3-7.5-4.1-10.2C456,321.4,452.7,320.1,448.7,320.1z"
					/>
			</g>
			<g>
				<path fill="#D75352" d="M454.5,351.3c-4.8,0-8.8-1.6-12.1-4.8c-3.3-3.2-4.9-7.3-4.9-12.2c0-4.9,1.7-9,4.9-12.2
					c3.3-3.2,7.3-4.8,12.1-4.8c4.8,0,8.8,1.6,12.1,4.8c3.3,3.2,4.9,7.3,4.9,12.2c0,4.9-1.6,9-4.9,12.2
					C463.3,349.7,459.2,351.3,454.5,351.3z M454.5,320.1c-4.1,0-7.4,1.3-10.1,4c-2.8,2.7-4.1,6-4.1,10.2s1.3,7.5,4.1,10.3
					c2.8,2.7,6.1,4.1,10.1,4.1c4.1,0,7.4-1.3,10.1-4s4.1-6.1,4.1-10.3c0-4.2-1.3-7.5-4.1-10.2C461.8,321.4,458.5,320.1,454.5,320.1z
					"/>
			</g>
			<g>
				<path fill="#E6BC45" d="M460.3,351.3c-4.8,0-8.8-1.6-12.1-4.8c-3.3-3.2-4.9-7.3-4.9-12.2c0-4.9,1.7-9,4.9-12.2
					c3.3-3.2,7.3-4.8,12.1-4.8c4.8,0,8.8,1.6,12.1,4.8c3.3,3.2,4.9,7.3,4.9,12.2c0,4.9-1.7,9-4.9,12.2
					C469.1,349.7,465,351.3,460.3,351.3z M460.3,320.1c-4.1,0-7.4,1.3-10.1,4c-2.8,2.7-4.1,6-4.1,10.2s1.3,7.5,4.1,10.3
					c2.8,2.7,6.1,4.1,10.1,4.1c4.1,0,7.4-1.3,10.1-4s4.1-6.1,4.1-10.3c0-4.2-1.3-7.5-4.1-10.2C467.6,321.4,464.3,320.1,460.3,320.1z
					"/>
			</g>
		</g>
		<g enable-background="new    ">
			<path fill="#202D47" d="M391.9,345.1c-3.3-3.3-5-7.4-5-12.4c0-5,1.7-9.2,5-12.4c3.3-3.3,7.4-4.9,12.3-4.9c3.5,0,6.7,0.8,9.4,2.5
				c2.8,1.7,4.8,4.1,6.1,7.2h-5.4c-2-3.8-5.4-5.7-10.2-5.7c-3.7,0-6.7,1.2-9.1,3.7c-2.4,2.4-3.6,5.7-3.6,9.7s1.2,7.3,3.6,9.7
				c2.4,2.5,5.5,3.7,9.1,3.7c2.3,0,4.3-0.5,6-1.5c1.8-1,3.1-2.4,4.1-4.3h5.4c-1.3,3.1-3.3,5.5-6.1,7.2c-2.8,1.7-5.9,2.5-9.4,2.5
				C399.4,350,395.3,348.4,391.9,345.1z"/>
		</g>
		<g enable-background="new    ">
			<path fill="#202D47" d="M513.9,315.7h4.5v34h-4.5l-18-27v27h-4.5v-34h4.5l18,27V315.7z"/>
		</g>
		<g enable-background="new    ">
			<path fill="#202D47" d="M553.5,315.7v3.5H540v11.6h12.1v3.5H540v11.9h13.5v3.5h-18v-34H553.5z"/>
		</g>
		<g enable-background="new    ">
			<path fill="#202D47" d="M592.6,315.7l-10.5,17l10.4,17h-4.9l-8.3-13.4l-7.8,13.4h-5l10.5-17l-10.5-17h5l8.3,13.4l7.8-13.4H592.6z
				"/>
		</g>
	</g>
</g>
</svg>
