<?xml version="1.0" encoding="utf-8"?>
<!-- Generator: Adobe Illustrator 21.1.0, SVG Export Plug-In . SVG Version: 6.00 Build 0)  -->
<svg version="1.1" id="Layer_1" xmlns="http://www.w3.org/2000/svg" xmlns:xlink="http://www.w3.org/1999/xlink" x="0px" y="0px"
	 width="850px" height="605px" viewBox="0 0 850 605" enable-background="new 0 0 850 605" xml:space="preserve">
<g>
	<g>
		<g opacity="5.000000e-02">
			<path d="M806,504.7c-25.8,13.7-48.9,27.4-111.8,37.3c-30,4.8-72.6,8.2-117.5,9.5c-45.4,1.4-93.2,0.7-144.3-1.1
				c-51-1.7-101.8-4.4-150.5-8.1c-48.3-3.7-94.5-8.3-127.6-12.8C85.1,520.3,59,512.9,39,506.3c-14.4-6.7-28.5-13.8,29.7-23
				c55.5-9.2,201.9-18,369.8-22.8c167.3-5.7,312.7-4.8,362,5.7C852.4,476.4,825.6,491.1,806,504.7z"/>
		</g>
		<g>
			<path fill="#404751" d="M742.5,468h-597c-0.8,0-1.5-0.7-1.5-1.5s0.7-1.5,1.5-1.5h597c0.8,0,1.5,0.7,1.5,1.5S743.3,468,742.5,468z
				"/>
		</g>
		<g>
			<path fill="#404751" d="M132.5,468h-34c-0.8,0-1.5-0.7-1.5-1.5s0.7-1.5,1.5-1.5h34c0.8,0,1.5,0.7,1.5,1.5S133.3,468,132.5,468z"
				/>
		</g>
		<g>
			<path fill="#404751" d="M84.5,468h-17c-0.8,0-1.5-0.7-1.5-1.5s0.7-1.5,1.5-1.5h17c0.8,0,1.5,0.7,1.5,1.5S85.3,468,84.5,468z"/>
		</g>
		<g>
			<path fill="#404751" d="M806.5,468h-46c-0.8,0-1.5-0.7-1.5-1.5s0.7-1.5,1.5-1.5h46c0.8,0,1.5,0.7,1.5,1.5S807.3,468,806.5,468z"
				/>
		</g>
	</g>
	<g>
		<path fill="#404751" d="M104.5,467c-0.8,0-1.5-0.7-1.5-1.5v-76c0-0.8,0.7-1.5,1.5-1.5s1.5,0.7,1.5,1.5v76
			C106,466.3,105.3,467,104.5,467z"/>
	</g>
	<g>
		<path fill="#404751" d="M646.5,391.5h-563c-1.1,0-2-0.9-2-2s0.9-2,2-2h563c1.1,0,2,0.9,2,2S647.6,391.5,646.5,391.5z"/>
	</g>
	<g>
		<path fill="#404751" d="M627.5,467c-0.8,0-1.5-0.7-1.5-1.5v-76c0-0.8,0.7-1.5,1.5-1.5s1.5,0.7,1.5,1.5v76
			C629,466.3,628.3,467,627.5,467z"/>
	</g>
	<g>
		<g>
			<path fill="#404751" d="M145.7,221.3c-0.2,0-0.5-0.1-0.7-0.2c-0.7-0.4-1-1.3-0.6-2c0.3-0.6,0.7-1.2,1-1.8c0.4-0.7,1.3-1,2-0.6
				c0.7,0.4,1,1.3,0.6,2c-0.3,0.6-0.6,1.2-1,1.7C146.8,221,146.3,221.3,145.7,221.3z M150.7,212.6c-0.3,0-0.5-0.1-0.8-0.2
				c-0.7-0.4-0.9-1.3-0.5-2.1l1-1.7c0.4-0.7,1.3-0.9,2.1-0.5c0.7,0.4,0.9,1.3,0.5,2.1l-1,1.7C151.7,212.4,151.2,212.6,150.7,212.6z
				 M156,204.1c-0.3,0-0.6-0.1-0.8-0.2c-0.7-0.4-0.9-1.4-0.5-2.1c0.4-0.6,0.7-1.1,1.1-1.7c0.5-0.7,1.4-0.9,2.1-0.4
				c0.7,0.5,0.9,1.4,0.4,2.1c-0.4,0.6-0.7,1.1-1.1,1.7C157,203.9,156.5,204.1,156,204.1z M161.5,195.8c-0.3,0-0.6-0.1-0.8-0.3
				c-0.7-0.5-0.9-1.4-0.4-2.1c0.4-0.6,0.8-1.1,1.1-1.7c0.5-0.7,1.4-0.8,2.1-0.4c0.7,0.5,0.8,1.4,0.4,2.1c-0.4,0.5-0.8,1.1-1.1,1.6
				C162.5,195.5,162,195.8,161.5,195.8z M167.3,187.6c-0.3,0-0.6-0.1-0.9-0.3c-0.7-0.5-0.8-1.4-0.3-2.1c0.4-0.5,0.8-1.1,1.2-1.6
				c0.5-0.7,1.4-0.8,2.1-0.3c0.7,0.5,0.8,1.4,0.3,2.1c-0.4,0.5-0.8,1.1-1.2,1.6C168.2,187.4,167.8,187.6,167.3,187.6z M173.3,179.6
				c-0.3,0-0.7-0.1-0.9-0.3c-0.7-0.5-0.8-1.5-0.3-2.1c0.4-0.5,0.8-1.1,1.2-1.6c0.5-0.6,1.5-0.8,2.1-0.2c0.6,0.5,0.8,1.5,0.2,2.1
				c-0.4,0.5-0.8,1-1.2,1.6C174.2,179.4,173.8,179.6,173.3,179.6z M179.6,171.9c-0.3,0-0.7-0.1-1-0.4c-0.6-0.5-0.7-1.5-0.2-2.1
				c0.4-0.5,0.9-1,1.3-1.5c0.5-0.6,1.5-0.7,2.1-0.2c0.6,0.5,0.7,1.5,0.2,2.1c-0.4,0.5-0.9,1-1.3,1.5
				C180.5,171.7,180.1,171.9,179.6,171.9z M721.4,168.4c-0.4,0-0.9-0.2-1.2-0.6c-0.4-0.5-0.8-1-1.3-1.5c-0.5-0.6-0.4-1.6,0.2-2.1
				c0.6-0.5,1.6-0.4,2.1,0.2c0.4,0.5,0.8,1,1.3,1.6c0.5,0.6,0.4,1.6-0.2,2.1C722,168.3,721.7,168.4,721.4,168.4z M186.2,164.3
				c-0.4,0-0.7-0.1-1-0.4c-0.6-0.6-0.7-1.5-0.1-2.1c0.4-0.5,0.9-1,1.3-1.5c0.6-0.6,1.5-0.7,2.1-0.1c0.6,0.6,0.7,1.5,0.1,2.1
				c-0.4,0.5-0.9,1-1.3,1.5C187,164.2,186.6,164.3,186.2,164.3z M714.9,160.7c-0.4,0-0.8-0.2-1.1-0.5c-0.4-0.5-0.9-1-1.3-1.5
				c-0.6-0.6-0.5-1.6,0.1-2.1c0.6-0.6,1.6-0.5,2.1,0.1c0.4,0.5,0.9,1,1.3,1.5c0.5,0.6,0.5,1.6-0.1,2.1
				C715.7,160.6,715.3,160.7,714.9,160.7z M193,157c-0.4,0-0.7-0.1-1-0.4c-0.6-0.6-0.6-1.5,0-2.1c0.5-0.5,0.9-1,1.4-1.4
				c0.6-0.6,1.5-0.6,2.1,0c0.6,0.6,0.6,1.5,0,2.1c-0.5,0.5-0.9,1-1.4,1.4C193.8,156.8,193.4,157,193,157z M708.2,153.3
				c-0.4,0-0.8-0.2-1.1-0.5c-0.5-0.5-0.9-1-1.4-1.4c-0.6-0.6-0.6-1.5,0-2.1c0.6-0.6,1.5-0.6,2.1,0c0.5,0.5,0.9,1,1.4,1.5
				c0.6,0.6,0.5,1.5-0.1,2.1C708.9,153.2,708.6,153.3,708.2,153.3z M200,149.9c-0.4,0-0.8-0.1-1.1-0.4c-0.6-0.6-0.6-1.5,0-2.1
				c0.5-0.5,1-0.9,1.4-1.4c0.6-0.6,1.5-0.6,2.1,0c0.6,0.6,0.6,1.5,0,2.1c-0.5,0.5-0.9,0.9-1.4,1.4
				C200.7,149.7,200.4,149.9,200,149.9z M701.2,146.2c-0.4,0-0.8-0.1-1-0.4c-0.5-0.5-0.9-0.9-1.4-1.4c-0.6-0.6-0.6-1.5,0-2.1
				c0.6-0.6,1.5-0.6,2.1,0c0.5,0.5,1,0.9,1.4,1.4c0.6,0.6,0.6,1.5,0,2.1C702,146.1,701.6,146.2,701.2,146.2z M207.2,143
				c-0.4,0-0.8-0.2-1.1-0.5c-0.6-0.6-0.5-1.6,0.1-2.1c0.5-0.5,1-0.9,1.5-1.4c0.6-0.6,1.6-0.5,2.1,0.1c0.6,0.6,0.5,1.6-0.1,2.1
				c-0.5,0.4-1,0.9-1.5,1.3C207.9,142.9,207.6,143,207.2,143z M693.9,139.4c-0.4,0-0.7-0.1-1-0.4c-0.5-0.4-1-0.9-1.5-1.3
				c-0.6-0.6-0.7-1.5-0.1-2.1c0.6-0.6,1.5-0.7,2.1-0.1c0.5,0.4,1,0.9,1.5,1.3c0.6,0.6,0.7,1.5,0.1,2.1
				C694.7,139.2,694.3,139.4,693.9,139.4z M214.6,136.4c-0.4,0-0.8-0.2-1.1-0.5c-0.5-0.6-0.5-1.6,0.2-2.1c0.5-0.4,1-0.9,1.5-1.3
				c0.6-0.5,1.6-0.5,2.1,0.2c0.5,0.6,0.5,1.6-0.2,2.1c-0.5,0.4-1,0.9-1.5,1.3C215.3,136.2,215,136.4,214.6,136.4z M686.4,132.8
				c-0.3,0-0.7-0.1-1-0.4c-0.5-0.4-1-0.9-1.5-1.3c-0.6-0.5-0.7-1.5-0.2-2.1c0.5-0.6,1.5-0.7,2.1-0.2c0.5,0.4,1,0.9,1.5,1.3
				c0.6,0.5,0.7,1.5,0.2,2.1C687.2,132.6,686.8,132.8,686.4,132.8z M222.3,130c-0.4,0-0.9-0.2-1.2-0.6c-0.5-0.6-0.4-1.6,0.2-2.1
				c0.5-0.4,1-0.8,1.6-1.3c0.6-0.5,1.6-0.4,2.1,0.2c0.5,0.6,0.4,1.6-0.2,2.1c-0.5,0.4-1,0.8-1.5,1.2
				C222.9,129.8,222.6,130,222.3,130z M678.6,126.4c-0.3,0-0.7-0.1-0.9-0.3c-0.5-0.4-1-0.8-1.6-1.2c-0.7-0.5-0.8-1.5-0.3-2.1
				s1.5-0.8,2.1-0.3c0.5,0.4,1.1,0.8,1.6,1.2c0.6,0.5,0.8,1.5,0.2,2.1C679.5,126.3,679.1,126.4,678.6,126.4z M230.1,123.8
				c-0.5,0-0.9-0.2-1.2-0.6c-0.5-0.7-0.4-1.6,0.3-2.1c0.5-0.4,1.1-0.8,1.6-1.2c0.7-0.5,1.6-0.4,2.1,0.3c0.5,0.7,0.4,1.6-0.3,2.1
				c-0.5,0.4-1.1,0.8-1.6,1.2C230.7,123.7,230.4,123.8,230.1,123.8z M670.7,120.4c-0.3,0-0.6-0.1-0.9-0.3c-0.5-0.4-1.1-0.8-1.6-1.2
				c-0.7-0.5-0.8-1.4-0.3-2.1c0.5-0.7,1.4-0.8,2.1-0.3c0.5,0.4,1.1,0.8,1.6,1.2c0.7,0.5,0.8,1.4,0.3,2.1
				C671.6,120.2,671.1,120.4,670.7,120.4z M238.1,117.8c-0.5,0-0.9-0.2-1.2-0.6c-0.5-0.7-0.3-1.6,0.3-2.1c0.5-0.4,1.1-0.8,1.6-1.2
				c0.7-0.5,1.6-0.3,2.1,0.4c0.5,0.7,0.3,1.6-0.4,2.1c-0.5,0.4-1.1,0.8-1.6,1.2C238.7,117.8,238.4,117.8,238.1,117.8z M662.5,114.5
				c-0.3,0-0.6-0.1-0.9-0.3c-0.5-0.4-1.1-0.8-1.6-1.1c-0.7-0.5-0.9-1.4-0.4-2.1c0.5-0.7,1.4-0.9,2.1-0.4c0.6,0.4,1.1,0.8,1.7,1.1
				c0.7,0.5,0.8,1.4,0.4,2.1C663.5,114.3,663,114.5,662.5,114.5z M246.4,112.1c-0.5,0-1-0.2-1.2-0.7c-0.5-0.7-0.3-1.6,0.4-2.1
				c0.6-0.4,1.1-0.7,1.7-1.1c0.7-0.5,1.6-0.3,2.1,0.4c0.5,0.7,0.3,1.6-0.4,2.1c-0.6,0.4-1.1,0.7-1.7,1.1
				C246.9,112.1,246.6,112.1,246.4,112.1z M654.2,109c-0.3,0-0.6-0.1-0.8-0.2c-0.6-0.4-1.1-0.7-1.7-1.1c-0.7-0.4-0.9-1.4-0.5-2.1
				c0.5-0.7,1.4-0.9,2.1-0.4c0.6,0.4,1.1,0.7,1.7,1.1c0.7,0.5,0.9,1.4,0.4,2.1C655.2,108.7,654.7,109,654.2,109z M254.7,106.7
				c-0.5,0-1-0.2-1.3-0.7c-0.4-0.7-0.2-1.6,0.5-2.1c0.6-0.4,1.1-0.7,1.7-1.1c0.7-0.4,1.6-0.2,2.1,0.5c0.4,0.7,0.2,1.6-0.5,2.1
				c-0.6,0.4-1.1,0.7-1.7,1.1C255.3,106.6,255,106.7,254.7,106.7z M645.8,103.6c-0.3,0-0.5-0.1-0.8-0.2c-0.6-0.3-1.1-0.7-1.7-1
				c-0.7-0.4-0.9-1.4-0.5-2.1c0.4-0.7,1.4-0.9,2.1-0.5c0.6,0.3,1.2,0.7,1.7,1c0.7,0.4,0.9,1.4,0.5,2.1
				C646.8,103.4,646.3,103.6,645.8,103.6z M263.3,101.5c-0.5,0-1-0.3-1.3-0.7c-0.4-0.7-0.2-1.6,0.5-2.1c0.6-0.3,1.2-0.7,1.7-1
				c0.7-0.4,1.6-0.2,2.1,0.5c0.4,0.7,0.2,1.6-0.5,2.1c-0.6,0.3-1.1,0.7-1.7,1C263.8,101.4,263.5,101.5,263.3,101.5z M637.1,98.5
				c-0.3,0-0.5-0.1-0.7-0.2l-1.7-1c-0.7-0.4-1-1.3-0.6-2c0.4-0.7,1.3-1,2-0.6l1.8,1c0.7,0.4,1,1.3,0.6,2
				C638.2,98.2,637.7,98.5,637.1,98.5z M272,96.5c-0.5,0-1-0.3-1.3-0.8c-0.4-0.7-0.1-1.6,0.6-2c0.6-0.3,1.2-0.6,1.8-1
				c0.7-0.4,1.6-0.1,2,0.6c0.4,0.7,0.1,1.6-0.6,2c-0.6,0.3-1.2,0.6-1.7,1C272.5,96.5,272.2,96.5,272,96.5z M628.4,93.6
				c-0.2,0-0.5-0.1-0.7-0.2c-0.6-0.3-1.2-0.6-1.8-0.9c-0.7-0.4-1-1.3-0.6-2c0.4-0.7,1.3-1,2-0.6c0.6,0.3,1.2,0.6,1.8,1
				c0.7,0.4,1,1.3,0.6,2C629.4,93.3,628.9,93.6,628.4,93.6z M280.8,91.9c-0.5,0-1.1-0.3-1.3-0.8c-0.4-0.7-0.1-1.6,0.6-2
				c0.6-0.3,1.2-0.6,1.8-0.9c0.7-0.4,1.6-0.1,2,0.7c0.4,0.7,0.1,1.6-0.7,2c-0.6,0.3-1.2,0.6-1.8,0.9C281.3,91.8,281,91.9,280.8,91.9
				z M619.5,89c-0.2,0-0.5-0.1-0.7-0.2l-1.8-0.9c-0.7-0.4-1-1.3-0.7-2c0.4-0.7,1.3-1,2-0.7l1.8,0.9c0.7,0.4,1,1.3,0.7,2
				C620.6,88.7,620,89,619.5,89z M289.8,87.4c-0.6,0-1.1-0.3-1.4-0.9c-0.4-0.7,0-1.6,0.7-2c0.6-0.3,1.2-0.6,1.8-0.9
				c0.7-0.4,1.6,0,2,0.7c0.4,0.7,0,1.6-0.7,2c-0.6,0.3-1.2,0.6-1.8,0.9C290.2,87.4,290,87.4,289.8,87.4z M610.5,84.6
				c-0.2,0-0.4,0-0.6-0.1c-0.6-0.3-1.2-0.6-1.8-0.8c-0.8-0.3-1.1-1.2-0.7-2c0.3-0.8,1.2-1.1,2-0.7c0.6,0.3,1.2,0.6,1.8,0.9
				c0.7,0.4,1.1,1.2,0.7,2C611.6,84.3,611.1,84.6,610.5,84.6z M298.8,83.2c-0.6,0-1.1-0.3-1.4-0.9c-0.3-0.8,0-1.6,0.8-2
				c0.6-0.3,1.2-0.5,1.8-0.8c0.8-0.3,1.6,0,2,0.8c0.3,0.8,0,1.6-0.8,2c-0.6,0.3-1.2,0.5-1.8,0.8C299.2,83.2,299,83.2,298.8,83.2z
				 M601.4,80.4c-0.2,0-0.4,0-0.6-0.1c-0.6-0.3-1.2-0.5-1.8-0.8c-0.8-0.3-1.1-1.2-0.8-2c0.3-0.8,1.2-1.1,2-0.8
				c0.6,0.3,1.2,0.5,1.8,0.8c0.8,0.3,1.1,1.2,0.8,2C602.5,80.1,602,80.4,601.4,80.4z M308,79.3c-0.6,0-1.1-0.3-1.4-0.9
				c-0.3-0.8,0-1.6,0.8-2c0.6-0.3,1.2-0.5,1.9-0.8c0.8-0.3,1.6,0.1,2,0.8c0.3,0.8-0.1,1.6-0.8,2c-0.6,0.3-1.2,0.5-1.8,0.8
				C308.4,79.2,308.2,79.3,308,79.3z M592.2,76.5c-0.2,0-0.4,0-0.6-0.1c-0.6-0.3-1.2-0.5-1.8-0.8c-0.8-0.3-1.1-1.2-0.8-2
				c0.3-0.8,1.2-1.1,2-0.8c0.6,0.3,1.2,0.5,1.9,0.8c0.8,0.3,1.1,1.2,0.8,2C593.3,76.2,592.8,76.5,592.2,76.5z M317.3,75.6
				c-0.6,0-1.2-0.4-1.4-1c-0.3-0.8,0.1-1.6,0.9-1.9l1.9-0.7c0.8-0.3,1.6,0.1,1.9,0.9c0.3,0.8-0.1,1.6-0.9,1.9l-1.9,0.7
				C317.7,75.5,317.5,75.6,317.3,75.6z M582.9,72.8c-0.2,0-0.4,0-0.5-0.1l-1.9-0.7c-0.8-0.3-1.2-1.2-0.9-1.9
				c0.3-0.8,1.2-1.2,1.9-0.9l1.9,0.7c0.8,0.3,1.2,1.2,0.9,1.9C584.1,72.4,583.5,72.8,582.9,72.8z M326.7,72.1c-0.6,0-1.2-0.4-1.4-1
				c-0.3-0.8,0.1-1.6,0.9-1.9c0.6-0.2,1.3-0.4,1.9-0.7c0.8-0.3,1.6,0.1,1.9,0.9c0.3,0.8-0.1,1.6-0.9,1.9c-0.6,0.2-1.3,0.4-1.9,0.7
				C327,72.1,326.9,72.1,326.7,72.1z M573.5,69.4c-0.2,0-0.3,0-0.5-0.1l-1.9-0.7c-0.8-0.3-1.2-1.1-0.9-1.9c0.3-0.8,1.1-1.2,1.9-0.9
				l1.9,0.7c0.8,0.3,1.2,1.1,0.9,1.9C574.7,69,574.1,69.4,573.5,69.4z M336.2,68.9c-0.6,0-1.2-0.4-1.4-1c-0.3-0.8,0.2-1.6,1-1.9
				l1.9-0.6c0.8-0.3,1.6,0.2,1.9,1c0.3,0.8-0.2,1.6-1,1.9l-1.9,0.6C336.5,68.9,336.3,68.9,336.2,68.9z M564.1,66.2
				c-0.2,0-0.3,0-0.5-0.1l-1.9-0.6c-0.8-0.3-1.2-1.1-1-1.9c0.3-0.8,1.1-1.2,1.9-1l1.9,0.6c0.8,0.3,1.2,1.1,1,1.9
				C565.3,65.8,564.7,66.2,564.1,66.2z M345.7,66c-0.6,0-1.2-0.4-1.4-1.1c-0.2-0.8,0.2-1.6,1-1.9c0.6-0.2,1.3-0.4,1.9-0.6
				c0.8-0.2,1.6,0.2,1.9,1s-0.2,1.6-1,1.9c-0.6,0.2-1.3,0.4-1.9,0.6C346,65.9,345.9,66,345.7,66z M355.3,63.2
				c-0.7,0-1.3-0.4-1.4-1.1c-0.2-0.8,0.3-1.6,1.1-1.8l1.9-0.5c0.8-0.2,1.6,0.3,1.8,1.1c0.2,0.8-0.3,1.6-1.1,1.8l-1.9,0.5
				C355.6,63.2,355.5,63.2,355.3,63.2z M554.5,63.2c-0.1,0-0.3,0-0.4-0.1c-0.6-0.2-1.3-0.4-1.9-0.6c-0.8-0.2-1.3-1.1-1-1.9
				c0.2-0.8,1.1-1.3,1.9-1c0.6,0.2,1.3,0.4,1.9,0.6c0.8,0.2,1.2,1.1,1,1.9C555.8,62.8,555.2,63.2,554.5,63.2z M365,60.8
				c-0.7,0-1.3-0.5-1.5-1.1c-0.2-0.8,0.3-1.6,1.1-1.8l2-0.5c0.8-0.2,1.6,0.3,1.8,1.1c0.2,0.8-0.3,1.6-1.1,1.8l-1.9,0.5
				C365.3,60.7,365.1,60.8,365,60.8z M544.9,60.5c-0.1,0-0.3,0-0.4-0.1c-0.6-0.2-1.3-0.3-1.9-0.5c-0.8-0.2-1.3-1-1.1-1.8
				c0.2-0.8,1-1.3,1.8-1.1c0.6,0.2,1.3,0.3,1.9,0.5c0.8,0.2,1.3,1,1.1,1.8C546.2,60,545.6,60.5,544.9,60.5z M374.8,58.5
				c-0.7,0-1.3-0.5-1.5-1.2c-0.2-0.8,0.3-1.6,1.1-1.8c0.7-0.1,1.3-0.3,2-0.4c0.8-0.2,1.6,0.3,1.8,1.2c0.2,0.8-0.3,1.6-1.2,1.8
				c-0.7,0.1-1.3,0.3-1.9,0.4C375,58.5,374.9,58.5,374.8,58.5z M535.3,58c-0.1,0-0.2,0-0.4,0l-1.9-0.5c-0.8-0.2-1.3-1-1.1-1.8
				c0.2-0.8,1-1.3,1.8-1.1c0.7,0.2,1.3,0.3,2,0.5c0.8,0.2,1.3,1,1.1,1.8C536.6,57.5,535.9,58,535.3,58z M384.6,56.5
				c-0.7,0-1.3-0.5-1.5-1.2c-0.2-0.8,0.4-1.6,1.2-1.8c0.7-0.1,1.3-0.3,2-0.4c0.8-0.2,1.6,0.4,1.8,1.2c0.2,0.8-0.4,1.6-1.2,1.8
				c-0.7,0.1-1.3,0.2-2,0.4C384.7,56.5,384.6,56.5,384.6,56.5z M525.5,55.8c-0.1,0-0.2,0-0.3,0c-0.6-0.1-1.3-0.3-1.9-0.4
				c-0.8-0.2-1.3-1-1.2-1.8c0.2-0.8,1-1.3,1.8-1.2c0.7,0.1,1.3,0.3,2,0.4c0.8,0.2,1.3,1,1.2,1.8C526.8,55.3,526.2,55.8,525.5,55.8z
				 M394.4,54.7c-0.7,0-1.4-0.5-1.5-1.2c-0.1-0.8,0.4-1.6,1.2-1.7c0.7-0.1,1.3-0.2,2-0.3c0.8-0.1,1.6,0.4,1.7,1.2
				c0.1,0.8-0.4,1.6-1.2,1.7c-0.7,0.1-1.3,0.2-2,0.3C394.6,54.7,394.5,54.7,394.4,54.7z M515.7,53.8c-0.1,0-0.2,0-0.3,0
				c-0.7-0.1-1.3-0.2-2-0.4c-0.8-0.1-1.4-0.9-1.2-1.7c0.1-0.8,0.9-1.4,1.7-1.2c0.7,0.1,1.3,0.2,2,0.4c0.8,0.1,1.4,0.9,1.2,1.7
				C517,53.3,516.4,53.8,515.7,53.8z M404.3,53.1c-0.7,0-1.4-0.5-1.5-1.3c-0.1-0.8,0.4-1.6,1.3-1.7l2-0.3c0.8-0.1,1.6,0.5,1.7,1.3
				c0.1,0.8-0.5,1.6-1.3,1.7l-2,0.3C404.4,53.1,404.3,53.1,404.3,53.1z M505.8,52.2c-0.1,0-0.2,0-0.2,0c-0.7-0.1-1.3-0.2-2-0.3
				c-0.8-0.1-1.4-0.9-1.3-1.7c0.1-0.8,0.9-1.4,1.7-1.3c0.7,0.1,1.3,0.2,2,0.3c0.8,0.1,1.4,0.9,1.3,1.7
				C507.2,51.7,506.6,52.2,505.8,52.2z M414.2,51.8c-0.7,0-1.4-0.6-1.5-1.3c-0.1-0.8,0.5-1.6,1.3-1.7l2-0.2c0.8-0.1,1.6,0.5,1.7,1.3
				c0.1,0.8-0.5,1.6-1.3,1.7l-2,0.2C414.3,51.8,414.2,51.8,414.2,51.8z M495.9,50.8c-0.1,0-0.1,0-0.2,0c-0.7-0.1-1.3-0.2-2-0.2
				c-0.8-0.1-1.4-0.8-1.3-1.7c0.1-0.8,0.9-1.4,1.7-1.3c0.7,0.1,1.3,0.2,2,0.2c0.8,0.1,1.4,0.8,1.3,1.7
				C497.3,50.3,496.7,50.8,495.9,50.8z M424.1,50.6c-0.8,0-1.4-0.6-1.5-1.3c-0.1-0.8,0.5-1.6,1.3-1.6l2-0.2c0.8-0.1,1.6,0.5,1.6,1.3
				c0.1,0.8-0.5,1.6-1.3,1.6l-2,0.2C424.2,50.6,424.2,50.6,424.1,50.6z M486,49.7c0,0-0.1,0-0.1,0c-0.7-0.1-1.3-0.1-2-0.2
				c-0.8-0.1-1.4-0.8-1.4-1.6c0.1-0.8,0.8-1.4,1.6-1.4c0.7,0.1,1.3,0.1,2,0.2c0.8,0.1,1.4,0.8,1.4,1.6
				C487.4,49.2,486.8,49.7,486,49.7z M434.1,49.7c-0.8,0-1.4-0.6-1.5-1.4c-0.1-0.8,0.5-1.6,1.4-1.6l2-0.2c0.8-0.1,1.5,0.6,1.6,1.4
				c0.1,0.8-0.6,1.5-1.4,1.6l-2,0.2C434.1,49.7,434.1,49.7,434.1,49.7z M476,49C476,49,476,49,476,49c-0.8,0-1.4-0.1-2.1-0.1
				c-0.8,0-1.5-0.7-1.4-1.6c0-0.8,0.7-1.5,1.6-1.4c0.7,0,1.3,0.1,2,0.1c0.8,0,1.5,0.8,1.4,1.6C477.5,48.4,476.8,49,476,49z M444,49
				c-0.8,0-1.4-0.6-1.5-1.4c-0.1-0.8,0.6-1.5,1.4-1.6c0.7,0,1.3-0.1,2-0.1c0.9,0,1.5,0.6,1.6,1.4c0,0.8-0.6,1.5-1.4,1.6
				C445.4,48.9,444.8,48.9,444,49C444.1,49,444.1,49,444,49z M466,48.6C466,48.6,466,48.6,466,48.6c-0.7,0-1.4,0-2,0
				c-0.8,0-1.5-0.7-1.5-1.5c0-0.8,0.7-1.5,1.5-1.5c0,0,0,0,0,0c0.7,0,1.3,0,2,0c0.8,0,1.5,0.7,1.5,1.5
				C467.5,47.9,466.8,48.6,466,48.6z M454,48.6c-0.8,0-1.5-0.7-1.5-1.5c0-0.8,0.6-1.5,1.5-1.5c0.7,0,1.3,0,2,0c0,0,0,0,0,0
				c0.8,0,1.5,0.7,1.5,1.5c0,0.8-0.7,1.5-1.5,1.5C455.4,48.5,454.7,48.5,454,48.6C454,48.6,454,48.6,454,48.6z"/>
		</g>
		<g>
			<g>
				
					<ellipse transform="matrix(0.4697 -0.8828 0.8828 0.4697 -116.1825 245.2179)" fill="#404751" cx="146" cy="219.3" rx="11.3" ry="11.3"/>
			</g>
		</g>
		<g>
			<g>
				
					<ellipse transform="matrix(0.8092 -0.5876 0.5876 0.8092 37.6307 458.6144)" fill="#404751" cx="724.9" cy="171.4" rx="11.3" ry="11.3"/>
			</g>
		</g>
	</g>
	<g>
		<g>
			
				<ellipse transform="matrix(1 -1.264730e-03 1.264730e-03 1 -0.1373 0.3065)" fill="#FFFFFF" cx="242.3" cy="108.8" rx="70.3" ry="70.3"/>
			<path fill="#41ACE1" d="M242.2,180.5c-19.1,0-37.1-7.4-50.7-21C178,146,170.5,128,170.5,108.8c0-39.6,32.1-71.8,71.7-71.8
				c0,0,0.1,0,0.1,0c19.1,0,37.1,7.4,50.7,21c13.6,13.5,21.1,31.5,21.1,50.7C314,148.2,281.9,180.4,242.2,180.5
				C242.3,180.5,242.3,180.5,242.2,180.5z M242.3,40C242.2,40,242.2,40,242.3,40c-38,0-68.8,30.9-68.8,68.8
				c0,18.4,7.2,35.6,20.2,48.6c13,12.9,30.2,20.1,48.5,20.1c0,0,0.1,0,0.1,0c37.9,0,68.7-30.9,68.7-68.8c0-18.4-7.2-35.6-20.2-48.6
				C277.8,47.1,260.6,40,242.3,40z"/>
		</g>
		<g>
			<path fill="#E6BC45" d="M242.2,165.3c-15.1,0-29.2-5.9-39.9-16.5c-10.7-10.7-16.6-24.8-16.6-39.9c0-31.2,25.3-56.5,56.4-56.6
				c0,0,0,0,0.1,0c15.1,0,29.2,5.9,39.9,16.5c10.7,10.7,16.6,24.8,16.6,39.9C298.8,139.8,273.5,165.2,242.2,165.3
				C242.3,165.3,242.3,165.3,242.2,165.3z M242.3,55.3C242.2,55.3,242.2,55.3,242.3,55.3c-29.6,0-53.5,24.1-53.5,53.6
				c0,14.3,5.6,27.7,15.7,37.8c10.1,10.1,23.5,15.6,37.8,15.6c0,0,0,0,0.1,0c29.5,0,53.5-24.1,53.4-53.6c0-14.3-5.6-27.7-15.7-37.8
				C269.9,60.8,256.5,55.3,242.3,55.3z"/>
		</g>
		<path fill="#D75352" d="M207.8,90.6c-0.4-1.1,0.5-1.9,2.2-2.6c10.2-4.3,20.4-8.7,30.7-13c0.9-0.4,2.3-0.5,3.2-0.1
			c10.5,4.3,20.9,8.8,31.3,13.3c0.7,0.3,1.7,1.4,1.7,2.1c-1.2,14.3-3.8,28.2-11.9,40.4c-4.8,7.2-11.2,12-20.2,12.7
			c-10.6,0.8-18.5-3.7-24.3-12.2c-6.4-9.3-9.3-19.9-11.2-30.8C208.6,97.4,208.3,94.4,207.8,90.6z"/>
		<path fill="#F2F2F2" d="M236.9,125.3c-3.5-3.9-7.5-8.4-11.6-12.9c1.7-1.5,3.3-2.9,5-4.5c2.4,1.7,4.9,3.5,7.4,5.3
			c5.9-4.8,11.8-9.7,17.8-14.6c1.4,1.8,2.6,3.4,4,5.3C252,111,244.5,118.1,236.9,125.3z"/>
	</g>
	<g>
		<g>
			<g>
				<path fill="#3FA9F5" d="M706.1,251c-0.3,0-0.6-0.1-0.9-0.3c-0.3-0.2-7.1-5.6-7.1-16.4c0-10.3,6.7-16.7,7-17
					c0.6-0.6,1.6-0.5,2.1,0.1c0.6,0.6,0.5,1.6-0.1,2.1c-0.1,0.1-6.1,5.9-6.1,14.8c0,9.2,5.7,13.8,6,14c0.6,0.5,0.8,1.5,0.3,2.1
					C707,250.8,706.6,251,706.1,251z"/>
			</g>
			<g>
				<path fill="#3FA9F5" d="M692.2,259.8c-0.3,0-0.6-0.1-0.9-0.3c-0.4-0.3-10.7-8.5-10.7-24.7c0-15.5,10.1-25.2,10.6-25.6
					c0.6-0.6,1.6-0.5,2.1,0.1c0.6,0.6,0.5,1.6-0.1,2.1c-0.1,0.1-9.6,9.3-9.6,23.4c0,14.7,9.4,22.2,9.5,22.3c0.7,0.5,0.8,1.5,0.3,2.1
					C693.1,259.6,692.6,259.8,692.2,259.8z"/>
			</g>
			<g>
				<path fill="#3FA9F5" d="M678.6,268.3c-0.3,0-0.6-0.1-0.9-0.3c-0.6-0.5-14.4-11.4-14.4-33.4c0-21,13.7-34.2,14.3-34.7
					c0.6-0.6,1.6-0.5,2.1,0.1c0.6,0.6,0.5,1.6-0.1,2.1c-0.1,0.1-13.4,12.8-13.4,32.5c0,20.5,13.1,30.9,13.3,31
					c0.7,0.5,0.8,1.5,0.3,2.1C679.5,268.1,679,268.3,678.6,268.3z"/>
			</g>
		</g>
		<g>
			<g>
				<path fill="#3FA9F5" d="M759.6,251c-0.4,0-0.8-0.2-1.1-0.5c-0.6-0.6-0.5-1.6,0.1-2.1l0,0c0.1-0.1,6.1-5.9,6.1-14.8
					c0-9.2-5.7-13.8-6-14c-0.6-0.5-0.8-1.5-0.3-2.1c0.5-0.6,1.4-0.8,2.1-0.3c0.3,0.2,7.1,5.6,7.1,16.4c0,10.3-6.7,16.7-7,17
					C760.4,250.8,760,251,759.6,251z"/>
			</g>
			<g>
				<path fill="#3FA9F5" d="M773.6,259.1c-0.4,0-0.8-0.2-1.1-0.5c-0.6-0.6-0.5-1.6,0.1-2.1l0,0c0.1-0.1,9.6-9.3,9.6-23.4
					c0-14.8-9.4-22.2-9.5-22.3c-0.7-0.5-0.8-1.5-0.3-2.1c0.5-0.7,1.5-0.8,2.1-0.3c0.4,0.3,10.7,8.5,10.7,24.7
					c0,15.5-10.1,25.2-10.6,25.6C774.3,259,774,259.1,773.6,259.1z"/>
			</g>
			<g>
				<path fill="#3FA9F5" d="M787.2,268.3c-0.4,0-0.8-0.2-1.1-0.5c-0.6-0.6-0.5-1.6,0.1-2.1c0.1-0.1,13.4-12.8,13.4-32.5
					c0-20.5-13.1-30.9-13.3-31c-0.7-0.5-0.8-1.5-0.3-2.1c0.5-0.7,1.5-0.8,2.1-0.3c0.6,0.5,14.4,11.4,14.4,33.4
					c0,21-13.7,34.2-14.3,34.7C787.9,268.2,787.5,268.3,787.2,268.3z"/>
			</g>
		</g>
		<g>
			<path fill="#404751" d="M782.7,468c-0.7,0-1.3-0.5-1.5-1.1l-47.8-195.5l-39.6,195.4c-0.2,0.8-1,1.3-1.8,1.2
				c-0.8-0.2-1.3-1-1.2-1.8l41-202c0.1-0.7,0.7-1.2,1.4-1.2c0,0,0,0,0,0c0.7,0,1.3,0.5,1.5,1.1l49.4,202c0.2,0.8-0.3,1.6-1.1,1.8
				C782.9,468,782.8,468,782.7,468z"/>
		</g>
		<g>
			<path fill="#404751" d="M733.2,290.1c-0.8,0-1.5-0.7-1.5-1.5v-48c0-0.8,0.7-1.5,1.5-1.5s1.5,0.7,1.5,1.5v48
				C734.7,289.4,734,290.1,733.2,290.1z"/>
		</g>
		<g>
			<circle fill="#404751" cx="733.2" cy="237.7" r="7.1"/>
		</g>
		<g>
			<circle fill="#41ACE1" cx="733.2" cy="281.5" r="18.4"/>
			<path fill="#404751" d="M733.2,301.4c-11,0-19.9-8.9-19.9-19.9c0-11,8.9-19.9,19.9-19.9s19.9,8.9,19.9,19.9
				C753.1,292.5,744.2,301.4,733.2,301.4z M733.2,264.6c-9.3,0-16.9,7.6-16.9,16.9c0,9.3,7.6,16.9,16.9,16.9s16.9-7.6,16.9-16.9
				C750.1,272.2,742.5,264.6,733.2,264.6z"/>
		</g>
		<g>
			<path fill="#404751" d="M757.2,366.3c-0.4,0-0.7-0.1-1-0.4l-36.7-35.3c-0.6-0.6-0.6-1.5,0-2.1c0.6-0.6,1.5-0.6,2.1,0l36.7,35.3
				c0.6,0.6,0.6,1.5,0,2.1C758,366.2,757.6,366.3,757.2,366.3z"/>
		</g>
		<g>
			<path fill="#404751" d="M712,379.1c-0.3,0-0.6-0.1-0.9-0.3c-0.7-0.5-0.8-1.4-0.3-2.1l36.7-48c0.5-0.7,1.4-0.8,2.1-0.3
				c0.7,0.5,0.8,1.4,0.3,2.1l-36.7,48C712.9,378.9,712.5,379.1,712,379.1z"/>
		</g>
	</g>
	<g>
		<g>
			<g>
				<path fill="#404751" d="M178.4,387.3c-0.8,0-1.5-0.7-1.5-1.5v-17.4c0-0.8,0.7-1.5,1.5-1.5s1.5,0.7,1.5,1.5v17.4
					C179.9,386.7,179.2,387.3,178.4,387.3z"/>
			</g>
			<g>
				<path fill="#404751" d="M198,389.5h-39.2c-0.8,0-1.5-0.7-1.5-1.5s0.7-1.5,1.5-1.5H198c0.8,0,1.5,0.7,1.5,1.5
					S198.8,389.5,198,389.5z"/>
			</g>
			<g>
				<path fill="#FFFFFF" d="M259.8,374.4H97.1c-2.2,0-4-1.8-4-4V269.6c0-2.2,1.8-4,4-4h162.7c2.2,0,4,1.8,4,4v100.8
					C263.8,372.6,262,374.4,259.8,374.4z"/>
				<path fill="#404751" d="M259.8,375.9H97.1c-3,0-5.5-2.5-5.5-5.5V269.6c0-3,2.5-5.5,5.5-5.5h162.7c3,0,5.5,2.5,5.5,5.5v100.8
					C265.3,373.4,262.8,375.9,259.8,375.9z M97.1,267.1c-1.4,0-2.5,1.1-2.5,2.5v100.8c0,1.4,1.1,2.5,2.5,2.5h162.7
					c1.4,0,2.5-1.1,2.5-2.5V269.6c0-1.4-1.1-2.5-2.5-2.5H97.1z"/>
			</g>
		</g>
		<g>
			<circle fill="#41ACE1" cx="118.6" cy="297.1" r="14.1"/>
			<path fill="#404751" d="M118.6,312.8c-8.6,0-15.6-7-15.6-15.6c0-8.6,7-15.6,15.6-15.6c8.6,0,15.6,7,15.6,15.6
				C134.2,305.8,127.2,312.8,118.6,312.8z M118.6,284.5c-7,0-12.6,5.7-12.6,12.6s5.7,12.6,12.6,12.6s12.6-5.7,12.6-12.6
				S125.5,284.5,118.6,284.5z"/>
		</g>
		<g>
			<circle fill="#D75352" cx="206.7" cy="342.8" r="14.1"/>
			<path fill="#404751" d="M206.7,358.5c-8.6,0-15.6-7-15.6-15.6s7-15.6,15.6-15.6c8.6,0,15.6,7,15.6,15.6S215.3,358.5,206.7,358.5z
				 M206.7,330.2c-7,0-12.6,5.7-12.6,12.6s5.7,12.6,12.6,12.6s12.6-5.7,12.6-12.6S213.7,330.2,206.7,330.2z"/>
		</g>
		<g>
			<path fill="#404751" d="M192.6,338.9c-0.2,0-0.5-0.1-0.7-0.2l-62-31.6c-0.7-0.4-1-1.3-0.7-2c0.4-0.7,1.3-1,2-0.7l62,31.6
				c0.7,0.4,1,1.3,0.7,2C193.6,338.6,193.1,338.9,192.6,338.9z"/>
		</g>
		<g>
			<path fill="#404751" d="M220.8,341.1c-0.5,0-1.1-0.3-1.3-0.8c-0.4-0.7-0.1-1.6,0.6-2l42.6-22.7c0.7-0.4,1.6-0.1,2,0.6
				c0.4,0.7,0.1,1.6-0.6,2l-42.6,22.7C221.3,341,221.1,341.1,220.8,341.1z"/>
		</g>
	</g>
	<g>
		<g>
			<g>
				<path fill="#404751" d="M361.5,387.3c-0.8,0-1.5-0.7-1.5-1.5v-17.4c0-0.8,0.7-1.5,1.5-1.5s1.5,0.7,1.5,1.5v17.4
					C363,386.7,362.3,387.3,361.5,387.3z"/>
			</g>
			<g>
				<path fill="#404751" d="M381.1,389.5h-39.2c-0.8,0-1.5-0.7-1.5-1.5s0.7-1.5,1.5-1.5h39.2c0.8,0,1.5,0.7,1.5,1.5
					S381.9,389.5,381.1,389.5z"/>
			</g>
			<g>
				<path fill="#FFFFFF" d="M442.8,374.4H280.1c-2.2,0-4-1.8-4-4V269.6c0-2.2,1.8-4,4-4h162.7c2.2,0,4,1.8,4,4v100.8
					C446.8,372.6,445,374.4,442.8,374.4z"/>
				<path fill="#404751" d="M442.8,375.9H280.1c-3,0-5.5-2.5-5.5-5.5V269.6c0-3,2.5-5.5,5.5-5.5h162.7c3,0,5.5,2.5,5.5,5.5v100.8
					C448.3,373.4,445.9,375.9,442.8,375.9z M280.1,267.1c-1.4,0-2.5,1.1-2.5,2.5v100.8c0,1.4,1.1,2.5,2.5,2.5h162.7
					c1.4,0,2.5-1.1,2.5-2.5V269.6c0-1.4-1.1-2.5-2.5-2.5H280.1z"/>
			</g>
		</g>
		<g>
			<circle fill="#41ACE1" cx="384.3" cy="321.1" r="14.1"/>
			<path fill="#404751" d="M384.3,336.7c-8.6,0-15.6-7-15.6-15.6s7-15.6,15.6-15.6c8.6,0,15.6,7,15.6,15.6S392.9,336.7,384.3,336.7z
				 M384.3,308.4c-7,0-12.6,5.7-12.6,12.6s5.7,12.6,12.6,12.6s12.6-5.7,12.6-12.6S391.3,308.4,384.3,308.4z"/>
		</g>
		<g>
			<circle fill="#E6BC45" cx="313.6" cy="295" r="14.1"/>
			<path fill="#404751" d="M313.6,310.6c-8.6,0-15.6-7-15.6-15.6s7-15.6,15.6-15.6c8.6,0,15.6,7,15.6,15.6S322.2,310.6,313.6,310.6z
				 M313.6,282.3c-7,0-12.6,5.7-12.6,12.6s5.7,12.6,12.6,12.6s12.6-5.7,12.6-12.6S320.6,282.3,313.6,282.3z"/>
		</g>
		<g>
			<path fill="#404751" d="M276.6,309.2c-0.5,0-1.1-0.3-1.3-0.8c-0.4-0.7-0.1-1.6,0.6-2l21.8-11.6c0.7-0.4,1.6-0.1,2,0.6
				c0.4,0.7,0.1,1.6-0.6,2L277.3,309C277.1,309.1,276.8,309.2,276.6,309.2z"/>
		</g>
		<g>
			<path fill="#404751" d="M370.2,318.2c-0.2,0-0.4,0-0.6-0.1l-42.4-17.4c-0.8-0.3-1.1-1.2-0.8-2c0.3-0.8,1.2-1.1,2-0.8l42.4,17.4
				c0.8,0.3,1.1,1.2,0.8,2C371.3,317.9,370.8,318.2,370.2,318.2z"/>
		</g>
		<g>
			<path fill="#404751" d="M398.5,324.8c-0.7,0-1.3-0.5-1.5-1.2c-0.2-0.8,0.3-1.6,1.1-1.8l48-10.5c0.8-0.2,1.6,0.3,1.8,1.1
				s-0.3,1.6-1.1,1.8l-48,10.5C398.7,324.7,398.6,324.8,398.5,324.8z"/>
		</g>
	</g>
	<g>
		<g>
			<g>
				<path fill="#404751" d="M547.6,387.3c-0.8,0-1.5-0.7-1.5-1.5v-17.4c0-0.8,0.7-1.5,1.5-1.5s1.5,0.7,1.5,1.5v17.4
					C549.1,386.7,548.5,387.3,547.6,387.3z"/>
			</g>
			<g>
				<path fill="#404751" d="M567.2,389.5h-39.2c-0.8,0-1.5-0.7-1.5-1.5s0.7-1.5,1.5-1.5h39.2c0.8,0,1.5,0.7,1.5,1.5
					S568.1,389.5,567.2,389.5z"/>
			</g>
			<g>
				<path fill="#FFFFFF" d="M629,374.4H466.3c-2.2,0-4-1.8-4-4V269.6c0-2.2,1.8-4,4-4H629c2.2,0,4,1.8,4,4v100.8
					C633,372.6,631.2,374.4,629,374.4z"/>
				<path fill="#404751" d="M629,375.9H466.3c-3,0-5.5-2.5-5.5-5.5V269.6c0-3,2.5-5.5,5.5-5.5H629c3,0,5.5,2.5,5.5,5.5v100.8
					C634.5,373.4,632,375.9,629,375.9z M466.3,267.1c-1.4,0-2.5,1.1-2.5,2.5v100.8c0,1.4,1.1,2.5,2.5,2.5H629c1.4,0,2.5-1.1,2.5-2.5
					V269.6c0-1.4-1.1-2.5-2.5-2.5H466.3z"/>
			</g>
		</g>
		<g>
			<circle fill="#D75352" cx="507.4" cy="296.1" r="14.1"/>
			<path fill="#404751" d="M507.4,311.7c-8.6,0-15.6-7-15.6-15.6s7-15.6,15.6-15.6c8.6,0,15.6,7,15.6,15.6S516,311.7,507.4,311.7z
				 M507.4,283.4c-7,0-12.6,5.7-12.6,12.6s5.7,12.6,12.6,12.6S520,303,520,296.1S514.4,283.4,507.4,283.4z"/>
		</g>
		<g>
			<circle fill="#E6BC45" cx="569.4" cy="348.3" r="14.1"/>
			<path fill="#404751" d="M569.4,363.9c-8.6,0-15.6-7-15.6-15.6s7-15.6,15.6-15.6c8.6,0,15.6,7,15.6,15.6S578,363.9,569.4,363.9z
				 M569.4,335.6c-7,0-12.6,5.7-12.6,12.6s5.7,12.6,12.6,12.6s12.6-5.7,12.6-12.6S576.4,335.6,569.4,335.6z"/>
		</g>
		<g>
			<path fill="#404751" d="M462.6,310.8c-0.7,0-1.3-0.4-1.4-1.1c-0.2-0.8,0.2-1.6,1-1.9l30.7-8.9c0.8-0.2,1.6,0.2,1.9,1
				c0.2,0.8-0.2,1.6-1,1.9l-30.7,8.9C462.9,310.8,462.7,310.8,462.6,310.8z"/>
		</g>
		<g>
			<path fill="#404751" d="M558.5,338.9c-0.4,0-0.7-0.1-1-0.4l-38.1-33.7c-0.6-0.5-0.7-1.5-0.1-2.1c0.5-0.6,1.5-0.7,2.1-0.1
				l38.1,33.7c0.6,0.5,0.7,1.5,0.1,2.1C559.3,338.7,558.9,338.9,558.5,338.9z"/>
		</g>
	</g>
	<g>
		<g>
			<path fill="#404751" d="M421.6,176.5c-9.3-2.5-14.8-12-12.4-21.3c2.5-9.3,12-14.8,21.3-12.4c9.3,2.5,14.8,12,12.4,21.3
				C440.5,173.4,430.9,178.9,421.6,176.5z M429.4,147.2c-6.9-1.8-13.9,2.3-15.7,9.1c-1.8,6.9,2.3,13.9,9.1,15.7
				c6.9,1.8,13.9-2.3,15.7-9.1C440.3,156.1,436.2,149,429.4,147.2z"/>
			<path fill="#404751" d="M423.6,208.3l-19.5-5.2c-1.2-0.3-1.9-1.6-1.6-2.8l3.2-12.2c-3.1-2.2-5.8-4.9-8.1-8l-12.2,3.3
				c-1.2,0.3-2.5-0.4-2.8-1.6l-5.3-19.5c-0.3-1.2,0.4-2.5,1.6-2.8l12.2-3.3c0.2-1.9,0.5-3.8,1-5.6c0.5-1.8,1.1-3.6,1.9-5.4l-8.9-8.9
				c-0.9-0.9-0.9-2.3,0-3.2l14.2-14.3c0.4-0.4,1-0.7,1.6-0.7c0.6,0,1.2,0.2,1.6,0.7l8.9,8.9c3.5-1.6,7.2-2.6,11-3l3.2-12.2
				c0.3-1.2,1.6-1.9,2.8-1.6l19.5,5.2c1.2,0.3,1.9,1.6,1.6,2.8l-3.2,12.2c3.1,2.2,5.8,4.9,8.1,8l12.2-3.3c0.6-0.2,1.2-0.1,1.7,0.2
				s0.9,0.8,1.1,1.4l5.3,19.5c0.3,1.2-0.4,2.5-1.6,2.8L461,163c-0.2,1.9-0.5,3.8-1,5.6c-0.5,1.8-1.1,3.6-1.9,5.4l8.9,8.9
				c0.9,0.9,0.9,2.3,0,3.2l-14.2,14.3c-0.9,0.9-2.3,0.9-3.2,0l-8.9-8.9c-3.5,1.6-7.2,2.6-11,3l-3.2,12.2
				C426.1,207.9,424.8,208.6,423.6,208.3z M407.5,199.3l15.1,4l3.1-11.5c0.3-1,1.1-1.6,2.1-1.7c4.3-0.2,8.5-1.4,12.3-3.3
				c0.9-0.5,1.9-0.3,2.6,0.4l8.5,8.4l11-11.1l-8.5-8.4c-0.7-0.7-0.9-1.8-0.4-2.6c1-1.9,1.7-4,2.3-6c0.5-2.1,0.9-4.2,1-6.4
				c0.1-1,0.7-1.8,1.7-2.1l11.5-3.1l-4.1-15.1l-11.5,3.1c-1,0.3-2-0.1-2.5-1c-2.4-3.6-5.4-6.7-9-9c-0.8-0.5-1.2-1.5-1-2.5l3.1-11.5
				l-15.1-4l-3.1,11.5c-0.3,1-1.1,1.6-2.1,1.7c-4.3,0.2-8.5,1.4-12.3,3.3c-0.9,0.5-1.9,0.3-2.6-0.4l-8.5-8.4l-11,11.1l8.5,8.4
				c0.7,0.7,0.9,1.8,0.4,2.6c-1,1.9-1.7,4-2.3,6c-0.5,2.1-0.9,4.2-1,6.4c0,1-0.7,1.8-1.7,2.1l-11.5,3.1l4.1,15.1l11.5-3.1
				c1-0.3,2,0.1,2.5,1c2.4,3.6,5.4,6.7,9.1,9c0.8,0.5,1.2,1.5,1,2.5L407.5,199.3L407.5,199.3z"/>
		</g>
		<path fill="#404751" d="M507.2,175.4c-1.7-0.5-3.3-1.4-4.6-2.6c-4-4-4-10.5,0-14.4c2.6-2.6,6.3-3.6,9.9-2.7
			c1.7,0.5,3.3,1.4,4.6,2.6c1.9,1.9,3,4.5,3,7.2c0,2.7-1,5.3-3,7.2C514.5,175.4,510.8,176.4,507.2,175.4z M511.5,159.4
			c-2.2-0.6-4.6,0.1-6.2,1.7c-2.5,2.5-2.5,6.6,0,9.1c0.8,0.8,1.8,1.4,2.9,1.7c2.2,0.6,4.6-0.1,6.2-1.7c1.2-1.2,1.9-2.8,1.9-4.6
			c0-1.7-0.7-3.3-1.9-4.5C513.6,160.2,512.6,159.6,511.5,159.4z"/>
		<path fill="#404751" d="M495.1,194.9c-1-0.3-1.6-1.3-1.3-2.3l2.1-7.9c-1-0.7-1.9-1.5-2.7-2.3c-0.9-0.8-1.6-1.8-2.4-2.7l-7.9,2.1
			c-1,0.3-2-0.3-2.3-1.3l-3.5-13c-0.1-0.5-0.1-1,0.2-1.4c0.2-0.4,0.7-0.8,1.1-0.9l7.9-2.1c0.3-2.4,0.9-4.7,1.8-7l-5.8-5.7
			c-0.4-0.4-0.6-0.8-0.6-1.3c0-0.5,0.2-1,0.6-1.3l9.5-9.5c0.7-0.7,1.9-0.7,2.7,0l5.8,5.7c2.2-1,4.5-1.6,7-1.9l2.1-7.9
			c0.1-0.5,0.4-0.9,0.9-1.2c0.4-0.3,0.9-0.3,1.4-0.2l0,0l13,3.4c1,0.3,1.6,1.3,1.3,2.3l-2.1,7.9c1,0.7,1.9,1.5,2.7,2.3
			c0.8,0.8,1.6,1.8,2.4,2.7l7.9-2.1c1-0.3,2,0.3,2.3,1.3l3.5,13c0.3,1-0.3,2-1.3,2.3l-7.9,2.1c-0.3,2.4-0.9,4.7-1.8,7l5.8,5.7
			c0.4,0.4,0.6,0.8,0.6,1.3c0,0.5-0.2,1-0.5,1.3l-9.5,9.5c-0.7,0.7-1.9,0.7-2.7,0l-5.8-5.7c-2.2,1-4.5,1.6-7,1.9l-2.1,7.9
			c-0.3,1-1.3,1.6-2.3,1.3L495.1,194.9z M492,175.7c0.4,0.1,0.8,0.4,1.1,0.8c0.8,1.2,1.7,2.3,2.7,3.3c1,1,2.1,1.9,3.3,2.6
			c0.7,0.4,1,1.3,0.8,2.1l-1.9,7.3l9.3,2.5l1.9-7.3c0.2-0.8,0.9-1.4,1.7-1.4c2.8-0.2,5.6-0.9,8.1-2.2c0.7-0.4,1.6-0.2,2.2,0.3
			l5.4,5.3l6.8-6.9l-5.4-5.3c-0.6-0.6-0.7-1.5-0.4-2.2c1.3-2.5,2-5.2,2.1-8.1c0-0.8,0.6-1.5,1.4-1.7l7.3-2l-2.5-9.3l-7.3,2
			c-0.8,0.2-1.6-0.1-2.1-0.8c-0.8-1.2-1.7-2.3-2.7-3.3c-1-1-2.1-1.9-3.3-2.6c-0.7-0.4-1-1.3-0.8-2.1l1.9-7.3l-9.3-2.5l-1.9,7.3
			c-0.2,0.8-0.9,1.4-1.7,1.4c-2.8,0.2-5.5,0.9-8.1,2.2c-0.7,0.4-1.6,0.2-2.2-0.3l-5.4-5.3l-6.8,6.9l5.4,5.3c0.6,0.6,0.7,1.5,0.4,2.2
			c-1.3,2.5-2,5.2-2.1,8.1c0,0.8-0.6,1.5-1.4,1.7l-7.3,2l2.5,9.3l7.3-2C491.4,175.6,491.7,175.6,492,175.7z"/>
	</g>
</g>
</svg>
