<?xml version="1.0" encoding="utf-8"?>
<!-- Generator: Adobe Illustrator 21.1.0, SVG Export Plug-In . SVG Version: 6.00 Build 0)  -->
<svg version="1.1" id="Layer_1" xmlns="http://www.w3.org/2000/svg" xmlns:xlink="http://www.w3.org/1999/xlink" x="0px" y="0px"
	 width="900px" height="724.8px" viewBox="0 0 900 724.8" style="enable-background:new 0 0 900 724.8;" xml:space="preserve">
<style type="text/css">
	.st0{opacity:5.000000e-02;}
	.st1{opacity:0.6;}
	.st2{fill:#FFFFFF;}
	.st3{fill:#404751;}
	.st4{fill:#41ACE1;}
	.st5{fill:#E6BC45;}
	.st6{fill:#D75352;}
</style>
<g>
	<g class="st0">
		<path d="M786,546.3c-2.3,13-9,20.5-60.9,30.6c-49.4,10.7-144,27.4-263.8,26.2c-119.7-0.2-216.9,1.6-272.3-11.1
			c-57.4-13.2-72.9-33.7-75-45.7c2-12.6,17.6-18.1,75-28.3c55.4-10.1,152.6-30.8,272.3-28.5c119.8,2.4,214.4,4.9,263.8,15.3
			C777,516.4,783.7,533.8,786,546.3z"/>
	</g>
	<g class="st1">
		<g>
			<path class="st2" d="M387.8,516.9H160.5c-6.6,0-12-5.4-12-12V301.3c0-6.6,5.4-12,12-12h227.3c6.6,0,12,5.4,12,12v203.6
				C399.8,511.5,394.4,516.9,387.8,516.9z"/>
		</g>
		<g>
			<path class="st3" d="M382,518.4c-0.8,0-1.5-0.7-1.5-1.5s0.7-1.5,1.5-1.5h5.9c0.8,0,1.5,0.7,1.5,1.5c0,0.8-0.6,1.5-1.5,1.5v-1.5
				l0,1.5L382,518.4z M372.2,518.4h-5.9c-0.8,0-1.5-0.7-1.5-1.5s0.7-1.5,1.5-1.5h5.9c0.8,0,1.5,0.7,1.5,1.5S373.1,518.4,372.2,518.4
				z M356.6,518.4h-5.9c-0.8,0-1.5-0.7-1.5-1.5s0.7-1.5,1.5-1.5h5.9c0.8,0,1.5,0.7,1.5,1.5S357.4,518.4,356.6,518.4z M341,518.4
				h-5.9c-0.8,0-1.5-0.7-1.5-1.5s0.7-1.5,1.5-1.5h5.9c0.8,0,1.5,0.7,1.5,1.5S341.8,518.4,341,518.4z M325.4,518.4h-5.9
				c-0.8,0-1.5-0.7-1.5-1.5s0.7-1.5,1.5-1.5h5.9c0.8,0,1.5,0.7,1.5,1.5S326.2,518.4,325.4,518.4z M309.7,518.4h-5.9
				c-0.8,0-1.5-0.7-1.5-1.5s0.7-1.5,1.5-1.5h5.9c0.8,0,1.5,0.7,1.5,1.5S310.6,518.4,309.7,518.4z M294.1,518.4h-5.9
				c-0.8,0-1.5-0.7-1.5-1.5s0.7-1.5,1.5-1.5h5.9c0.8,0,1.5,0.7,1.5,1.5S295,518.4,294.1,518.4z M278.5,518.4h-5.9
				c-0.8,0-1.5-0.7-1.5-1.5s0.7-1.5,1.5-1.5h5.9c0.8,0,1.5,0.7,1.5,1.5S279.3,518.4,278.5,518.4z M262.9,518.4H257
				c-0.8,0-1.5-0.7-1.5-1.5s0.7-1.5,1.5-1.5h5.9c0.8,0,1.5,0.7,1.5,1.5S263.7,518.4,262.9,518.4z M247.3,518.4h-5.9
				c-0.8,0-1.5-0.7-1.5-1.5s0.7-1.5,1.5-1.5h5.9c0.8,0,1.5,0.7,1.5,1.5S248.1,518.4,247.3,518.4z M231.6,518.4h-5.9
				c-0.8,0-1.5-0.7-1.5-1.5s0.7-1.5,1.5-1.5h5.9c0.8,0,1.5,0.7,1.5,1.5S232.5,518.4,231.6,518.4z M216,518.4h-5.9
				c-0.8,0-1.5-0.7-1.5-1.5s0.7-1.5,1.5-1.5h5.9c0.8,0,1.5,0.7,1.5,1.5S216.9,518.4,216,518.4z M200.4,518.4h-5.9
				c-0.8,0-1.5-0.7-1.5-1.5s0.7-1.5,1.5-1.5h5.9c0.8,0,1.5,0.7,1.5,1.5S201.2,518.4,200.4,518.4z M184.8,518.4h-5.9
				c-0.8,0-1.5-0.7-1.5-1.5s0.7-1.5,1.5-1.5h5.9c0.8,0,1.5,0.7,1.5,1.5S185.6,518.4,184.8,518.4z M169.2,518.4h-5.9
				c-0.8,0-1.5-0.7-1.5-1.5s0.7-1.5,1.5-1.5h5.9c0.8,0,1.5,0.7,1.5,1.5S170,518.4,169.2,518.4z M153.9,516.4c-0.3,0-0.6-0.1-0.8-0.2
				c-1.8-1.2-3.4-2.9-4.4-4.8c-0.4-0.7-0.1-1.6,0.6-2c0.7-0.4,1.6-0.1,2,0.6c0.8,1.5,2,2.8,3.5,3.7c0.7,0.5,0.9,1.4,0.4,2.1
				C154.9,516.1,154.4,516.4,153.9,516.4z M396.6,514.6c-0.4,0-0.7-0.1-1-0.4c-0.6-0.6-0.6-1.5-0.1-2.1c1.2-1.3,2-2.8,2.5-4.4
				c0.2-0.8,1-1.3,1.8-1.1c0.8,0.2,1.3,1,1.1,1.8c-0.6,2.1-1.7,4.1-3.2,5.7C397.4,514.4,397,514.6,396.6,514.6z M148.5,502.6
				c-0.8,0-1.5-0.7-1.5-1.5v-5.9c0-0.8,0.7-1.5,1.5-1.5s1.5,0.7,1.5,1.5v5.9C150,501.9,149.3,502.6,148.5,502.6z M399.8,499.8
				c-0.8,0-1.5-0.7-1.5-1.5v-5.9c0-0.8,0.7-1.5,1.5-1.5s1.5,0.7,1.5,1.5v5.9C401.3,499.1,400.7,499.8,399.8,499.8z M148.5,487
				c-0.8,0-1.5-0.7-1.5-1.5v-5.9c0-0.8,0.7-1.5,1.5-1.5s1.5,0.7,1.5,1.5v5.9C150,486.3,149.3,487,148.5,487z M399.8,484.2
				c-0.8,0-1.5-0.7-1.5-1.5v-5.9c0-0.8,0.7-1.5,1.5-1.5s1.5,0.7,1.5,1.5v5.9C401.3,483.5,400.7,484.2,399.8,484.2z M148.5,471.4
				c-0.8,0-1.5-0.7-1.5-1.5V464c0-0.8,0.7-1.5,1.5-1.5s1.5,0.7,1.5,1.5v5.9C150,470.7,149.3,471.4,148.5,471.4z M399.8,468.5
				c-0.8,0-1.5-0.7-1.5-1.5v-5.9c0-0.8,0.7-1.5,1.5-1.5s1.5,0.7,1.5,1.5v5.9C401.3,467.9,400.7,468.5,399.8,468.5z M148.5,455.8
				c-0.8,0-1.5-0.7-1.5-1.5v-5.9c0-0.8,0.7-1.5,1.5-1.5s1.5,0.7,1.5,1.5v5.9C150,455.1,149.3,455.8,148.5,455.8z M399.8,452.9
				c-0.8,0-1.5-0.7-1.5-1.5v-5.9c0-0.8,0.7-1.5,1.5-1.5s1.5,0.7,1.5,1.5v5.9C401.3,452.2,400.7,452.9,399.8,452.9z M148.5,440.1
				c-0.8,0-1.5-0.7-1.5-1.5v-5.9c0-0.8,0.7-1.5,1.5-1.5s1.5,0.7,1.5,1.5v5.9C150,439.5,149.3,440.1,148.5,440.1z M399.8,437.3
				c-0.8,0-1.5-0.7-1.5-1.5v-5.9c0-0.8,0.7-1.5,1.5-1.5s1.5,0.7,1.5,1.5v5.9C401.3,436.6,400.7,437.3,399.8,437.3z M148.5,424.5
				c-0.8,0-1.5-0.7-1.5-1.5v-5.9c0-0.8,0.7-1.5,1.5-1.5s1.5,0.7,1.5,1.5v5.9C150,423.8,149.3,424.5,148.5,424.5z M399.8,421.7
				c-0.8,0-1.5-0.7-1.5-1.5v-5.9c0-0.8,0.7-1.5,1.5-1.5s1.5,0.7,1.5,1.5v5.9C401.3,421,400.7,421.7,399.8,421.7z M148.5,408.9
				c-0.8,0-1.5-0.7-1.5-1.5v-5.9c0-0.8,0.7-1.5,1.5-1.5s1.5,0.7,1.5,1.5v5.9C150,408.2,149.3,408.9,148.5,408.9z M399.8,406.1
				c-0.8,0-1.5-0.7-1.5-1.5v-5.9c0-0.8,0.7-1.5,1.5-1.5s1.5,0.7,1.5,1.5v5.9C401.3,405.4,400.7,406.1,399.8,406.1z M148.5,393.3
				c-0.8,0-1.5-0.7-1.5-1.5v-5.9c0-0.8,0.7-1.5,1.5-1.5s1.5,0.7,1.5,1.5v5.9C150,392.6,149.3,393.3,148.5,393.3z M399.8,390.4
				c-0.8,0-1.5-0.7-1.5-1.5v-5.9c0-0.8,0.7-1.5,1.5-1.5s1.5,0.7,1.5,1.5v5.9C401.3,389.8,400.7,390.4,399.8,390.4z M148.5,377.7
				c-0.8,0-1.5-0.7-1.5-1.5v-5.9c0-0.8,0.7-1.5,1.5-1.5s1.5,0.7,1.5,1.5v5.9C150,377,149.3,377.7,148.5,377.7z M399.8,374.8
				c-0.8,0-1.5-0.7-1.5-1.5v-5.9c0-0.8,0.7-1.5,1.5-1.5s1.5,0.7,1.5,1.5v5.9C401.3,374.1,400.7,374.8,399.8,374.8z M148.5,362
				c-0.8,0-1.5-0.7-1.5-1.5v-5.9c0-0.8,0.7-1.5,1.5-1.5s1.5,0.7,1.5,1.5v5.9C150,361.4,149.3,362,148.5,362z M399.8,359.2
				c-0.8,0-1.5-0.7-1.5-1.5v-5.9c0-0.8,0.7-1.5,1.5-1.5s1.5,0.7,1.5,1.5v5.9C401.3,358.5,400.7,359.2,399.8,359.2z M148.5,346.4
				c-0.8,0-1.5-0.7-1.5-1.5v-5.9c0-0.8,0.7-1.5,1.5-1.5s1.5,0.7,1.5,1.5v5.9C150,345.7,149.3,346.4,148.5,346.4z M399.8,343.6
				c-0.8,0-1.5-0.7-1.5-1.5v-5.9c0-0.8,0.7-1.5,1.5-1.5s1.5,0.7,1.5,1.5v5.9C401.3,342.9,400.7,343.6,399.8,343.6z M148.5,330.8
				c-0.8,0-1.5-0.7-1.5-1.5v-5.9c0-0.8,0.7-1.5,1.5-1.5s1.5,0.7,1.5,1.5v5.9C150,330.1,149.3,330.8,148.5,330.8z M399.8,328
				c-0.8,0-1.5-0.7-1.5-1.5v-5.9c0-0.8,0.7-1.5,1.5-1.5s1.5,0.7,1.5,1.5v5.9C401.3,327.3,400.7,328,399.8,328z M148.5,315.2
				c-0.8,0-1.5-0.7-1.5-1.5v-5.9c0-0.8,0.7-1.5,1.5-1.5s1.5,0.7,1.5,1.5v5.9C150,314.5,149.3,315.2,148.5,315.2z M399.8,312.3
				c-0.8,0-1.5-0.7-1.5-1.5V305c0-0.8,0.7-1.5,1.5-1.5s1.5,0.7,1.5,1.5v5.9C401.3,311.7,400.7,312.3,399.8,312.3z M148.9,299.6
				c-0.1,0-0.3,0-0.4-0.1c-0.8-0.2-1.3-1-1-1.8c0.6-2.1,1.7-4.1,3.2-5.7c0.6-0.6,1.5-0.6,2.1-0.1c0.6,0.6,0.6,1.5,0.1,2.1
				c-1.2,1.3-2,2.8-2.5,4.4C150.2,299.2,149.6,299.6,148.9,299.6z M398.3,297c-0.5,0-1-0.3-1.3-0.8c-0.8-1.5-2-2.8-3.5-3.7
				c-0.7-0.5-0.9-1.4-0.4-2.1c0.5-0.7,1.4-0.9,2.1-0.4c1.8,1.2,3.4,2.9,4.4,4.8c0.4,0.7,0.1,1.6-0.6,2
				C398.8,296.9,398.6,297,398.3,297z M385,290.8h-5.9c-0.8,0-1.5-0.7-1.5-1.5s0.7-1.5,1.5-1.5h5.9c0.8,0,1.5,0.7,1.5,1.5
				S385.9,290.8,385,290.8z M369.4,290.8h-5.9c-0.8,0-1.5-0.7-1.5-1.5s0.7-1.5,1.5-1.5h5.9c0.8,0,1.5,0.7,1.5,1.5
				S370.2,290.8,369.4,290.8z M353.8,290.8h-5.9c-0.8,0-1.5-0.7-1.5-1.5s0.7-1.5,1.5-1.5h5.9c0.8,0,1.5,0.7,1.5,1.5
				S354.6,290.8,353.8,290.8z M338.2,290.8h-5.9c-0.8,0-1.5-0.7-1.5-1.5s0.7-1.5,1.5-1.5h5.9c0.8,0,1.5,0.7,1.5,1.5
				S339,290.8,338.2,290.8z M322.5,290.8h-5.9c-0.8,0-1.5-0.7-1.5-1.5s0.7-1.5,1.5-1.5h5.9c0.8,0,1.5,0.7,1.5,1.5
				S323.4,290.8,322.5,290.8z M306.9,290.8h-5.9c-0.8,0-1.5-0.7-1.5-1.5s0.7-1.5,1.5-1.5h5.9c0.8,0,1.5,0.7,1.5,1.5
				S307.8,290.8,306.9,290.8z M291.3,290.8h-5.9c-0.8,0-1.5-0.7-1.5-1.5s0.7-1.5,1.5-1.5h5.9c0.8,0,1.5,0.7,1.5,1.5
				S292.1,290.8,291.3,290.8z M275.7,290.8h-5.9c-0.8,0-1.5-0.7-1.5-1.5s0.7-1.5,1.5-1.5h5.9c0.8,0,1.5,0.7,1.5,1.5
				S276.5,290.8,275.7,290.8z M260.1,290.8h-5.9c-0.8,0-1.5-0.7-1.5-1.5s0.7-1.5,1.5-1.5h5.9c0.8,0,1.5,0.7,1.5,1.5
				S260.9,290.8,260.1,290.8z M244.4,290.8h-5.9c-0.8,0-1.5-0.7-1.5-1.5s0.7-1.5,1.5-1.5h5.9c0.8,0,1.5,0.7,1.5,1.5
				S245.3,290.8,244.4,290.8z M228.8,290.8H223c-0.8,0-1.5-0.7-1.5-1.5s0.7-1.5,1.5-1.5h5.9c0.8,0,1.5,0.7,1.5,1.5
				S229.7,290.8,228.8,290.8z M213.2,290.8h-5.9c-0.8,0-1.5-0.7-1.5-1.5s0.7-1.5,1.5-1.5h5.9c0.8,0,1.5,0.7,1.5,1.5
				S214,290.8,213.2,290.8z M197.6,290.8h-5.9c-0.8,0-1.5-0.7-1.5-1.5s0.7-1.5,1.5-1.5h5.9c0.8,0,1.5,0.7,1.5,1.5
				S198.4,290.8,197.6,290.8z M182,290.8h-5.9c-0.8,0-1.5-0.7-1.5-1.5s0.7-1.5,1.5-1.5h5.9c0.8,0,1.5,0.7,1.5,1.5
				S182.8,290.8,182,290.8z M166.4,290.8h-5.8c-0.8,0-1.5-0.7-1.5-1.5c0-0.8,0.7-1.5,1.5-1.5v1.5l0-1.5l5.9,0c0.8,0,1.5,0.7,1.5,1.5
				S167.2,290.8,166.4,290.8z"/>
		</g>
	</g>
	<g>
		<path class="st4" d="M237.6,389.6h-44.4c-5.3,0-9.6-4.3-9.6-9.6v-44.4c0-5.3,4.3-9.6,9.6-9.6h44.4c5.3,0,9.6,4.3,9.6,9.6V380
			C247.2,385.2,242.9,389.6,237.6,389.6z"/>
		<path class="st3" d="M237.6,391.1h-44.4c-6.1,0-11.1-5-11.1-11.1v-44.4c0-6.1,5-11.1,11.1-11.1h44.4c6.1,0,11.1,5,11.1,11.1V380
			C248.7,386.1,243.7,391.1,237.6,391.1z M193.2,327.4c-4.5,0-8.1,3.6-8.1,8.1V380c0,4.5,3.6,8.1,8.1,8.1h44.4
			c4.5,0,8.1-3.6,8.1-8.1v-44.4c0-4.5-3.6-8.1-8.1-8.1H193.2z"/>
	</g>
	<g>
		<path class="st5" d="M217.9,487.2h-5c-17.3,0-31.5-14.2-31.5-31.5v-5c0-17.3,14.2-31.5,31.5-31.5h5c17.3,0,31.5,14.2,31.5,31.5v5
			C249.4,473,235.2,487.2,217.9,487.2z"/>
		<path class="st3" d="M217.9,488.7h-5c-18.2,0-33-14.8-33-33v-5c0-18.2,14.8-33,33-33h5c18.2,0,33,14.8,33,33v5
			C250.9,473.9,236.1,488.7,217.9,488.7z M212.9,420.7c-16.5,0-30,13.5-30,30v5c0,16.5,13.5,30,30,30h5c16.5,0,30-13.5,30-30v-5
			c0-16.5-13.5-30-30-30H212.9z"/>
	</g>
	<g class="st1">
		<g>
			<path class="st2" d="M737.3,253.2H160.5c-6.6,0-12-5.4-12-12V135.2c0-6.6,5.4-12,12-12h576.8c6.6,0,12,5.4,12,12v106.1
				C749.3,247.8,743.9,253.2,737.3,253.2z"/>
		</g>
		<g>
			<path class="st3" d="M737.4,254.7h-6.1c-0.8,0-1.5-0.7-1.5-1.5s0.7-1.5,1.5-1.5h6c0.8,0,1.5,0.7,1.5,1.5S738.2,254.7,737.4,254.7
				z M721.3,254.7h-6c-0.8,0-1.5-0.7-1.5-1.5s0.7-1.5,1.5-1.5h6c0.8,0,1.5,0.7,1.5,1.5S722.1,254.7,721.3,254.7z M705.3,254.7h-6
				c-0.8,0-1.5-0.7-1.5-1.5s0.7-1.5,1.5-1.5h6c0.8,0,1.5,0.7,1.5,1.5S706.1,254.7,705.3,254.7z M689.3,254.7h-6
				c-0.8,0-1.5-0.7-1.5-1.5s0.7-1.5,1.5-1.5h6c0.8,0,1.5,0.7,1.5,1.5S690.1,254.7,689.3,254.7z M673.3,254.7h-6
				c-0.8,0-1.5-0.7-1.5-1.5s0.7-1.5,1.5-1.5h6c0.8,0,1.5,0.7,1.5,1.5S674.1,254.7,673.3,254.7z M657.3,254.7h-6
				c-0.8,0-1.5-0.7-1.5-1.5s0.7-1.5,1.5-1.5h6c0.8,0,1.5,0.7,1.5,1.5S658.1,254.7,657.3,254.7z M641.3,254.7h-6
				c-0.8,0-1.5-0.7-1.5-1.5s0.7-1.5,1.5-1.5h6c0.8,0,1.5,0.7,1.5,1.5S642.1,254.7,641.3,254.7z M625.2,254.7h-6
				c-0.8,0-1.5-0.7-1.5-1.5s0.7-1.5,1.5-1.5h6c0.8,0,1.5,0.7,1.5,1.5S626.1,254.7,625.2,254.7z M609.2,254.7h-6
				c-0.8,0-1.5-0.7-1.5-1.5s0.7-1.5,1.5-1.5h6c0.8,0,1.5,0.7,1.5,1.5S610.1,254.7,609.2,254.7z M593.2,254.7h-6
				c-0.8,0-1.5-0.7-1.5-1.5s0.7-1.5,1.5-1.5h6c0.8,0,1.5,0.7,1.5,1.5S594,254.7,593.2,254.7z M577.2,254.7h-6
				c-0.8,0-1.5-0.7-1.5-1.5s0.7-1.5,1.5-1.5h6c0.8,0,1.5,0.7,1.5,1.5S578,254.7,577.2,254.7z M561.2,254.7h-6
				c-0.8,0-1.5-0.7-1.5-1.5s0.7-1.5,1.5-1.5h6c0.8,0,1.5,0.7,1.5,1.5S562,254.7,561.2,254.7z M545.2,254.7h-6
				c-0.8,0-1.5-0.7-1.5-1.5s0.7-1.5,1.5-1.5h6c0.8,0,1.5,0.7,1.5,1.5S546,254.7,545.2,254.7z M529.2,254.7h-6
				c-0.8,0-1.5-0.7-1.5-1.5s0.7-1.5,1.5-1.5h6c0.8,0,1.5,0.7,1.5,1.5S530,254.7,529.2,254.7z M513.2,254.7h-6
				c-0.8,0-1.5-0.7-1.5-1.5s0.7-1.5,1.5-1.5h6c0.8,0,1.5,0.7,1.5,1.5S514,254.7,513.2,254.7z M497.1,254.7h-6
				c-0.8,0-1.5-0.7-1.5-1.5s0.7-1.5,1.5-1.5h6c0.8,0,1.5,0.7,1.5,1.5S498,254.7,497.1,254.7z M481.1,254.7h-6
				c-0.8,0-1.5-0.7-1.5-1.5s0.7-1.5,1.5-1.5h6c0.8,0,1.5,0.7,1.5,1.5S482,254.7,481.1,254.7z M465.1,254.7h-6
				c-0.8,0-1.5-0.7-1.5-1.5s0.7-1.5,1.5-1.5h6c0.8,0,1.5,0.7,1.5,1.5S465.9,254.7,465.1,254.7z M449.1,254.7h-6
				c-0.8,0-1.5-0.7-1.5-1.5s0.7-1.5,1.5-1.5h6c0.8,0,1.5,0.7,1.5,1.5S449.9,254.7,449.1,254.7z M433.1,254.7h-6
				c-0.8,0-1.5-0.7-1.5-1.5s0.7-1.5,1.5-1.5h6c0.8,0,1.5,0.7,1.5,1.5S433.9,254.7,433.1,254.7z M417.1,254.7h-6
				c-0.8,0-1.5-0.7-1.5-1.5s0.7-1.5,1.5-1.5h6c0.8,0,1.5,0.7,1.5,1.5S417.9,254.7,417.1,254.7z M401.1,254.7h-6
				c-0.8,0-1.5-0.7-1.5-1.5s0.7-1.5,1.5-1.5h6c0.8,0,1.5,0.7,1.5,1.5S401.9,254.7,401.1,254.7z M385.1,254.7h-6
				c-0.8,0-1.5-0.7-1.5-1.5s0.7-1.5,1.5-1.5h6c0.8,0,1.5,0.7,1.5,1.5S385.9,254.7,385.1,254.7z M369,254.7h-6
				c-0.8,0-1.5-0.7-1.5-1.5s0.7-1.5,1.5-1.5h6c0.8,0,1.5,0.7,1.5,1.5S369.9,254.7,369,254.7z M353,254.7h-6c-0.8,0-1.5-0.7-1.5-1.5
				s0.7-1.5,1.5-1.5h6c0.8,0,1.5,0.7,1.5,1.5S353.9,254.7,353,254.7z M337,254.7h-6c-0.8,0-1.5-0.7-1.5-1.5s0.7-1.5,1.5-1.5h6
				c0.8,0,1.5,0.7,1.5,1.5S337.8,254.7,337,254.7z M321,254.7h-6c-0.8,0-1.5-0.7-1.5-1.5s0.7-1.5,1.5-1.5h6c0.8,0,1.5,0.7,1.5,1.5
				S321.8,254.7,321,254.7z M305,254.7h-6c-0.8,0-1.5-0.7-1.5-1.5s0.7-1.5,1.5-1.5h6c0.8,0,1.5,0.7,1.5,1.5S305.8,254.7,305,254.7z
				 M289,254.7h-6c-0.8,0-1.5-0.7-1.5-1.5s0.7-1.5,1.5-1.5h6c0.8,0,1.5,0.7,1.5,1.5S289.8,254.7,289,254.7z M273,254.7h-6
				c-0.8,0-1.5-0.7-1.5-1.5s0.7-1.5,1.5-1.5h6c0.8,0,1.5,0.7,1.5,1.5S273.8,254.7,273,254.7z M257,254.7h-6c-0.8,0-1.5-0.7-1.5-1.5
				s0.7-1.5,1.5-1.5h6c0.8,0,1.5,0.7,1.5,1.5S257.8,254.7,257,254.7z M240.9,254.7h-6c-0.8,0-1.5-0.7-1.5-1.5s0.7-1.5,1.5-1.5h6
				c0.8,0,1.5,0.7,1.5,1.5S241.8,254.7,240.9,254.7z M224.9,254.7h-6c-0.8,0-1.5-0.7-1.5-1.5s0.7-1.5,1.5-1.5h6
				c0.8,0,1.5,0.7,1.5,1.5S225.8,254.7,224.9,254.7z M208.9,254.7h-6c-0.8,0-1.5-0.7-1.5-1.5s0.7-1.5,1.5-1.5h6
				c0.8,0,1.5,0.7,1.5,1.5S209.7,254.7,208.9,254.7z M192.9,254.7h-6c-0.8,0-1.5-0.7-1.5-1.5s0.7-1.5,1.5-1.5h6
				c0.8,0,1.5,0.7,1.5,1.5S193.7,254.7,192.9,254.7z M176.9,254.7h-6c-0.8,0-1.5-0.7-1.5-1.5s0.7-1.5,1.5-1.5h6
				c0.8,0,1.5,0.7,1.5,1.5S177.7,254.7,176.9,254.7z M160.9,254.7h-0.4c-2.1,0-4.2-0.5-6.1-1.5c-0.7-0.4-1-1.3-0.7-2
				c0.4-0.7,1.3-1,2-0.7c1.5,0.8,3.1,1.1,4.8,1.1h0.4c0.8,0,1.5,0.7,1.5,1.5S161.7,254.7,160.9,254.7z M746.2,250.8
				c-0.4,0-0.7-0.1-1-0.4c-0.6-0.6-0.7-1.5-0.1-2.1c1.2-1.3,2-2.9,2.4-4.6c0.2-0.8,1-1.3,1.8-1.1c0.8,0.2,1.3,1,1.1,1.8
				c-0.5,2.2-1.6,4.2-3.1,5.9C747.1,250.6,746.6,250.8,746.2,250.8z M148.9,245.9c-0.7,0-1.3-0.4-1.4-1.1c-0.3-1.2-0.5-2.3-0.5-3.5
				v-2.8c0-0.8,0.7-1.5,1.5-1.5s1.5,0.7,1.5,1.5v2.8c0,0.9,0.1,1.9,0.4,2.8c0.2,0.8-0.3,1.6-1.1,1.8
				C149.2,245.9,149.1,245.9,148.9,245.9z M749.3,235.5c-0.8,0-1.5-0.7-1.5-1.5v-6c0-0.8,0.7-1.5,1.5-1.5s1.5,0.7,1.5,1.5v6
				C750.8,234.8,750.2,235.5,749.3,235.5z M148.5,229.9c-0.8,0-1.5-0.7-1.5-1.5v-6c0-0.8,0.7-1.5,1.5-1.5s1.5,0.7,1.5,1.5v6
				C150,229.2,149.3,229.9,148.5,229.9z M749.3,219.5c-0.8,0-1.5-0.7-1.5-1.5v-6c0-0.8,0.7-1.5,1.5-1.5s1.5,0.7,1.5,1.5v6
				C750.8,218.8,750.2,219.5,749.3,219.5z M148.5,213.9c-0.8,0-1.5-0.7-1.5-1.5v-6c0-0.8,0.7-1.5,1.5-1.5s1.5,0.7,1.5,1.5v6
				C150,213.2,149.3,213.9,148.5,213.9z M749.3,203.5c-0.8,0-1.5-0.7-1.5-1.5v-6c0-0.8,0.7-1.5,1.5-1.5s1.5,0.7,1.5,1.5v6
				C750.8,202.8,750.2,203.5,749.3,203.5z M148.5,197.9c-0.8,0-1.5-0.7-1.5-1.5v-6c0-0.8,0.7-1.5,1.5-1.5s1.5,0.7,1.5,1.5v6
				C150,197.2,149.3,197.9,148.5,197.9z M749.3,187.5c-0.8,0-1.5-0.7-1.5-1.5v-6c0-0.8,0.7-1.5,1.5-1.5s1.5,0.7,1.5,1.5v6
				C750.8,186.8,750.2,187.5,749.3,187.5z M148.5,181.9c-0.8,0-1.5-0.7-1.5-1.5v-6c0-0.8,0.7-1.5,1.5-1.5s1.5,0.7,1.5,1.5v6
				C150,181.2,149.3,181.9,148.5,181.9z M749.3,171.5c-0.8,0-1.5-0.7-1.5-1.5v-6c0-0.8,0.7-1.5,1.5-1.5s1.5,0.7,1.5,1.5v6
				C750.8,170.8,750.2,171.5,749.3,171.5z M148.5,165.9c-0.8,0-1.5-0.7-1.5-1.5v-6c0-0.8,0.7-1.5,1.5-1.5s1.5,0.7,1.5,1.5v6
				C150,165.2,149.3,165.9,148.5,165.9z M749.3,155.5c-0.8,0-1.5-0.7-1.5-1.5v-6c0-0.8,0.7-1.5,1.5-1.5s1.5,0.7,1.5,1.5v6
				C750.8,154.8,750.2,155.5,749.3,155.5z M148.5,149.9c-0.8,0-1.5-0.7-1.5-1.5v-6c0-0.8,0.7-1.5,1.5-1.5s1.5,0.7,1.5,1.5v6
				C150,149.2,149.3,149.9,148.5,149.9z M749.3,139.4c-0.8,0-1.5-0.7-1.5-1.5v-2.8c0-0.9-0.1-1.9-0.4-2.8c-0.2-0.8,0.2-1.6,1-1.8
				c0.8-0.2,1.6,0.2,1.8,1c0.3,1.2,0.5,2.4,0.5,3.6v2.8C750.8,138.8,750.2,139.4,749.3,139.4z M148.8,133.9c-0.1,0-0.2,0-0.4,0
				c-0.8-0.2-1.3-1-1.1-1.8c0.5-2.2,1.6-4.2,3.1-5.9c0.6-0.6,1.5-0.7,2.1-0.1c0.6,0.6,0.7,1.5,0.1,2.1c-1.2,1.3-2,2.9-2.4,4.6
				C150.1,133.4,149.5,133.9,148.8,133.9z M742.7,126c-0.2,0-0.5-0.1-0.7-0.2c-1.5-0.8-3.1-1.1-4.7-1.1h-0.4c-0.8,0-1.5-0.7-1.5-1.5
				s0.7-1.5,1.5-1.5h0.4c2.1,0,4.2,0.5,6.1,1.5c0.7,0.4,1,1.3,0.7,2C743.8,125.7,743.3,126,742.7,126z M726.9,124.6h-6
				c-0.8,0-1.5-0.7-1.5-1.5s0.7-1.5,1.5-1.5h6c0.8,0,1.5,0.7,1.5,1.5S727.8,124.6,726.9,124.6z M710.9,124.6h-6
				c-0.8,0-1.5-0.7-1.5-1.5s0.7-1.5,1.5-1.5h6c0.8,0,1.5,0.7,1.5,1.5S711.8,124.6,710.9,124.6z M694.9,124.6h-6
				c-0.8,0-1.5-0.7-1.5-1.5s0.7-1.5,1.5-1.5h6c0.8,0,1.5,0.7,1.5,1.5S695.7,124.6,694.9,124.6z M678.9,124.6h-6
				c-0.8,0-1.5-0.7-1.5-1.5s0.7-1.5,1.5-1.5h6c0.8,0,1.5,0.7,1.5,1.5S679.7,124.6,678.9,124.6z M662.9,124.6h-6
				c-0.8,0-1.5-0.7-1.5-1.5s0.7-1.5,1.5-1.5h6c0.8,0,1.5,0.7,1.5,1.5S663.7,124.6,662.9,124.6z M646.9,124.6h-6
				c-0.8,0-1.5-0.7-1.5-1.5s0.7-1.5,1.5-1.5h6c0.8,0,1.5,0.7,1.5,1.5S647.7,124.6,646.9,124.6z M630.9,124.6h-6
				c-0.8,0-1.5-0.7-1.5-1.5s0.7-1.5,1.5-1.5h6c0.8,0,1.5,0.7,1.5,1.5S631.7,124.6,630.9,124.6z M614.8,124.6h-6
				c-0.8,0-1.5-0.7-1.5-1.5s0.7-1.5,1.5-1.5h6c0.8,0,1.5,0.7,1.5,1.5S615.7,124.6,614.8,124.6z M598.8,124.6h-6
				c-0.8,0-1.5-0.7-1.5-1.5s0.7-1.5,1.5-1.5h6c0.8,0,1.5,0.7,1.5,1.5S599.7,124.6,598.8,124.6z M582.8,124.6h-6
				c-0.8,0-1.5-0.7-1.5-1.5s0.7-1.5,1.5-1.5h6c0.8,0,1.5,0.7,1.5,1.5S583.7,124.6,582.8,124.6z M566.8,124.6h-6
				c-0.8,0-1.5-0.7-1.5-1.5s0.7-1.5,1.5-1.5h6c0.8,0,1.5,0.7,1.5,1.5S567.6,124.6,566.8,124.6z M550.8,124.6h-6
				c-0.8,0-1.5-0.7-1.5-1.5s0.7-1.5,1.5-1.5h6c0.8,0,1.5,0.7,1.5,1.5S551.6,124.6,550.8,124.6z M534.8,124.6h-6
				c-0.8,0-1.5-0.7-1.5-1.5s0.7-1.5,1.5-1.5h6c0.8,0,1.5,0.7,1.5,1.5S535.6,124.6,534.8,124.6z M518.8,124.6h-6
				c-0.8,0-1.5-0.7-1.5-1.5s0.7-1.5,1.5-1.5h6c0.8,0,1.5,0.7,1.5,1.5S519.6,124.6,518.8,124.6z M502.8,124.6h-6
				c-0.8,0-1.5-0.7-1.5-1.5s0.7-1.5,1.5-1.5h6c0.8,0,1.5,0.7,1.5,1.5S503.6,124.6,502.8,124.6z M486.7,124.6h-6
				c-0.8,0-1.5-0.7-1.5-1.5s0.7-1.5,1.5-1.5h6c0.8,0,1.5,0.7,1.5,1.5S487.6,124.6,486.7,124.6z M470.7,124.6h-6
				c-0.8,0-1.5-0.7-1.5-1.5s0.7-1.5,1.5-1.5h6c0.8,0,1.5,0.7,1.5,1.5S471.6,124.6,470.7,124.6z M454.7,124.6h-6
				c-0.8,0-1.5-0.7-1.5-1.5s0.7-1.5,1.5-1.5h6c0.8,0,1.5,0.7,1.5,1.5S455.6,124.6,454.7,124.6z M438.7,124.6h-6
				c-0.8,0-1.5-0.7-1.5-1.5s0.7-1.5,1.5-1.5h6c0.8,0,1.5,0.7,1.5,1.5S439.5,124.6,438.7,124.6z M422.7,124.6h-6
				c-0.8,0-1.5-0.7-1.5-1.5s0.7-1.5,1.5-1.5h6c0.8,0,1.5,0.7,1.5,1.5S423.5,124.6,422.7,124.6z M406.7,124.6h-6
				c-0.8,0-1.5-0.7-1.5-1.5s0.7-1.5,1.5-1.5h6c0.8,0,1.5,0.7,1.5,1.5S407.5,124.6,406.7,124.6z M390.7,124.6h-6
				c-0.8,0-1.5-0.7-1.5-1.5s0.7-1.5,1.5-1.5h6c0.8,0,1.5,0.7,1.5,1.5S391.5,124.6,390.7,124.6z M374.7,124.6h-6
				c-0.8,0-1.5-0.7-1.5-1.5s0.7-1.5,1.5-1.5h6c0.8,0,1.5,0.7,1.5,1.5S375.5,124.6,374.7,124.6z M358.6,124.6h-6
				c-0.8,0-1.5-0.7-1.5-1.5s0.7-1.5,1.5-1.5h6c0.8,0,1.5,0.7,1.5,1.5S359.5,124.6,358.6,124.6z M342.6,124.6h-6
				c-0.8,0-1.5-0.7-1.5-1.5s0.7-1.5,1.5-1.5h6c0.8,0,1.5,0.7,1.5,1.5S343.5,124.6,342.6,124.6z M326.6,124.6h-6
				c-0.8,0-1.5-0.7-1.5-1.5s0.7-1.5,1.5-1.5h6c0.8,0,1.5,0.7,1.5,1.5S327.5,124.6,326.6,124.6z M310.6,124.6h-6
				c-0.8,0-1.5-0.7-1.5-1.5s0.7-1.5,1.5-1.5h6c0.8,0,1.5,0.7,1.5,1.5S311.4,124.6,310.6,124.6z M294.6,124.6h-6
				c-0.8,0-1.5-0.7-1.5-1.5s0.7-1.5,1.5-1.5h6c0.8,0,1.5,0.7,1.5,1.5S295.4,124.6,294.6,124.6z M278.6,124.6h-6
				c-0.8,0-1.5-0.7-1.5-1.5s0.7-1.5,1.5-1.5h6c0.8,0,1.5,0.7,1.5,1.5S279.4,124.6,278.6,124.6z M262.6,124.6h-6
				c-0.8,0-1.5-0.7-1.5-1.5s0.7-1.5,1.5-1.5h6c0.8,0,1.5,0.7,1.5,1.5S263.4,124.6,262.6,124.6z M246.6,124.6h-6
				c-0.8,0-1.5-0.7-1.5-1.5s0.7-1.5,1.5-1.5h6c0.8,0,1.5,0.7,1.5,1.5S247.4,124.6,246.6,124.6z M230.5,124.6h-6
				c-0.8,0-1.5-0.7-1.5-1.5s0.7-1.5,1.5-1.5h6c0.8,0,1.5,0.7,1.5,1.5S231.4,124.6,230.5,124.6z M214.5,124.6h-6
				c-0.8,0-1.5-0.7-1.5-1.5s0.7-1.5,1.5-1.5h6c0.8,0,1.5,0.7,1.5,1.5S215.4,124.6,214.5,124.6z M198.5,124.6h-6
				c-0.8,0-1.5-0.7-1.5-1.5s0.7-1.5,1.5-1.5h6c0.8,0,1.5,0.7,1.5,1.5S199.4,124.6,198.5,124.6z M182.5,124.6h-6
				c-0.8,0-1.5-0.7-1.5-1.5s0.7-1.5,1.5-1.5h6c0.8,0,1.5,0.7,1.5,1.5S183.3,124.6,182.5,124.6z M166.5,124.6h-6
				c-0.8,0-1.5-0.7-1.5-1.5s0.7-1.5,1.5-1.5h6c0.8,0,1.5,0.7,1.5,1.5S167.3,124.6,166.5,124.6z"/>
		</g>
	</g>
	<g>
		<path class="st3" d="M441.7,206.4c-8.4,15.4-35.2,23.4-50.4,15.1c-14.7-9.3-22.5-35.9-14.9-50.3c8.5-13.9,35-21.8,50.1-15
			C441,163.8,449.1,190.5,441.7,206.4z"/>
	</g>
	<g>
		<path class="st3" d="M517.4,217.9c-14.6,9-41.2,2.9-50.1-11.5c-8-15-1.8-41.4,11.6-49.9c13.9-7.7,40.3-1.7,49.8,11.4
			C537.3,181.4,531.4,208,517.4,217.9z"/>
	</g>
	<g>
		<path class="st3" d="M720.9,208.4c-10.1,13.3-36.7,17.1-49.8,7c-12.6-10.9-16.2-37.2-6.9-49.7c10.1-11.9,36.2-15.7,49.5-7.1
			C726.3,168.1,730.2,194.4,720.9,208.4z"/>
	</g>
	<g>
		<path class="st3" d="M624,208.9c-10.4,13.7-37.5,17.5-51,7.2c-12.9-11.1-16.6-38.1-7.1-50.9c10.3-12.2,37.1-16,50.7-7.2
			C629.5,167.6,633.5,194.6,624,208.9z"/>
	</g>
	<g>
		<g>
			<g>
				<path class="st2" d="M410,177.6c-0.8,0-1.2,0.4-1.3,1c0,0.7,0.4,1,1.2,1.1c0.7,0,1.4,0.1,2.1,0.2c5,1.1,8.5,5.4,8.7,10.6
					c0,0.7,0.4,1.1,1,1.1c0.6,0,1.1-0.5,1-1.2c0-0.7-0.1-1.4-0.2-2.1C421.6,182.4,416.1,177.7,410,177.6
					C410,177.6,410,177.6,410,177.6z"/>
			</g>
			<g>
				<path class="st2" d="M410,177.6L410,177.6C410.1,177.6,410.1,177.6,410,177.6z"/>
			</g>
			<g>
				<path class="st2" d="M427,183.5c-2.7-6.7-9.4-11.4-16.6-11.5c-0.2,0-0.3,0-0.5,0c-0.6,0-1.1,0.5-1.1,1c0,0.6,0.5,1,1.1,1
					c0.5,0,1,0,1.4,0.1c4.6,0.4,8.4,2.5,11.3,6.1c2.4,2.9,3.6,6.3,3.7,10.1c0,0.3,0.1,0.5,0.2,0.7c0.2,0.4,0.7,0.5,1.2,0.4
					c0.5-0.1,0.7-0.5,0.7-1.1C428.3,188,427.9,185.7,427,183.5z"/>
			</g>
			<g>
				<path class="st2" d="M408.8,184.3c0,0.7,0.4,1,1.2,1.1c2.8,0.2,4.8,2.2,4.9,5c0,0.8,0.4,1.2,1.1,1.2c0.6,0,1-0.5,1-1.3
					c-0.1-3.7-3.2-6.9-6.9-7C409.3,183.3,408.8,183.7,408.8,184.3z"/>
			</g>
			<g>
				<path class="st2" d="M424.5,195.7c-1.5-1.4-3.5-1.7-5.3-0.7c-2,1.1-4.1,1.5-6.3,1.2c-7.9-1.2-11.3-9.6-7.9-15.4
					c1-1.8,0.7-3.8-0.7-5.3c-0.5-0.6-1.1-1.1-1.6-1.6c-2-2-5.3-1.6-6.8,0.8c-0.6,0.9-1.1,1.9-1.4,3c-1.4,4.1-1.1,8.1,0.7,11.9
					c3.1,6.6,8,11.5,14.5,14.9c2.6,1.4,5.3,2,7.8,2c3.1-0.1,5.6-0.8,7.8-2.2c2.6-1.6,3-4.9,0.9-7C425.5,196.7,425,196.2,424.5,195.7
					z"/>
			</g>
		</g>
		<g>
			<path class="st4" d="M410.4,172c7.1,0.1,13.9,4.8,16.6,11.5c0.9,2.2,1.4,4.5,1.4,6.9c0,0.5-0.3,0.9-0.7,1.1
				c-0.4,0.1-0.9,0-1.2-0.4c-0.1-0.2-0.2-0.5-0.2-0.7c-0.1-3.8-1.3-7.2-3.7-10.1c-2.9-3.6-6.7-5.6-11.3-6.1c-0.5,0-1-0.1-1.4-0.1
				c-0.6,0-1.1-0.5-1.1-1c0-0.6,0.5-1,1.1-1C410.1,172,410.2,172,410.4,172z"/>
		</g>
		<g>
			<path class="st6" d="M410,177.6c6.1,0.1,11.6,4.8,12.5,10.7c0.1,0.7,0.2,1.4,0.2,2.1c0,0.7-0.4,1.2-1,1.2c-0.6,0-1-0.4-1-1.1
				c-0.1-5.2-3.6-9.5-8.7-10.6c-0.7-0.1-1.4-0.2-2.1-0.2c-0.8,0-1.3-0.4-1.2-1.1C408.7,178,409.2,177.6,410,177.6
				C410,177.6,410.1,177.6,410,177.6z"/>
		</g>
		<g>
			<path class="st5" d="M410.1,183.3c3.7,0.1,6.8,3.2,6.9,7c0,0.8-0.4,1.2-1,1.3c-0.6,0-1-0.4-1.1-1.2c-0.1-2.8-2.2-4.8-4.9-5
				c-0.8,0-1.2-0.4-1.2-1.1C408.8,183.7,409.3,183.3,410.1,183.3z"/>
		</g>
	</g>
	<g>
		<path class="st4" d="M519.7,179.8l-8.9,4.4c-0.2-4.9-4.2-8.9-9.2-8.9h-11.5c-5,0-9.2,4.1-9.2,9.2v6.9c0,5,4.1,9.2,9.2,9.2h11.5
			c5,0,9.2-4.1,9.2-9.2v-0.6l8.9,4.4V179.8z"/>
	</g>
	<g>
		<circle class="st2" cx="595" cy="198.8" r="2.7"/>
	</g>
	<g>
		<path class="st2" d="M601.1,193.5c-0.3,0-0.5-0.1-0.7-0.3c0,0-2.2-2.2-5.5-2.2c-3.4,0-5.1,2.1-5.1,2.2c-0.3,0.4-1,0.5-1.4,0.2
			c-0.4-0.3-0.5-1-0.2-1.4c0.1-0.1,2.3-2.9,6.7-2.9c4.2,0,6.8,2.7,6.9,2.9c0.4,0.4,0.4,1,0,1.4C601.6,193.4,601.3,193.5,601.1,193.5
			z"/>
	</g>
	<g>
		<path class="st2" d="M585.6,188c-0.2,0-0.4-0.1-0.6-0.2c-0.4-0.3-0.5-1-0.2-1.4c0.1-0.2,3.4-4.3,9.9-4.3c6.2,0,10.1,4.1,10.3,4.2
			c0.4,0.4,0.4,1,0,1.4c-0.4,0.4-1,0.4-1.4,0c-0.1-0.1-3.5-3.6-8.8-3.6c-5.5,0-8.3,3.5-8.4,3.5C586.2,187.9,585.9,188,585.6,188z"/>
	</g>
	<g>
		<path class="st2" d="M582.2,182.7c-0.2,0-0.4-0.1-0.6-0.2c-0.4-0.3-0.5-1-0.2-1.4c0.2-0.2,4.6-5.8,13.3-5.8
			c8.4,0,13.6,5.5,13.8,5.7c0.4,0.4,0.4,1,0,1.4c-0.4,0.4-1,0.4-1.4,0c0-0.1-4.9-5.1-12.4-5.1c-7.8,0-11.7,5-11.8,5
			C582.8,182.6,582.5,182.7,582.2,182.7z"/>
	</g>
	<g>
		<path class="st6" d="M706.4,203.3h-27.7c-2.6,0-4.6-2.1-4.6-4.6v-23.2c0-2.6,2.1-4.6,4.6-4.6h27.7c2.6,0,4.6,2.1,4.6,4.6v23.2
			C711,201.2,708.9,203.3,706.4,203.3z"/>
	</g>
	<g>
		<path class="st2" d="M680.3,195.2c-0.2,0-0.4-0.1-0.6-0.2c-0.5-0.3-0.6-0.9-0.3-1.4c0.1-0.2,3.5-5.2,7-7c2-1,4.5-0.1,7.2,2.7
			c0.6,0.7,1.6,0.8,2.4,0.4c1.8-0.9,3.4-1.3,4.7-1c3.2,0.6,5,3.6,5.1,3.8c0.3,0.5,0.1,1.1-0.3,1.4c-0.5,0.3-1.1,0.1-1.4-0.3
			c0,0-1.5-2.4-3.7-2.8c-1.1-0.2-2.5,0.3-3.4,0.8c-1.6,0.8-3.5,0.5-4.8-0.8c-0.9-1-3.3-3.1-4.9-2.3c-3,1.5-6.2,6.2-6.2,6.3
			C680.9,195.1,680.6,195.2,680.3,195.2z"/>
	</g>
	<g>
		<circle class="st2" cx="696.4" cy="180.5" r="3"/>
	</g>
	<g>
		<path class="st3" d="M351.1,197.7c-4.3,17.3-28.5,32.1-45.6,27.9c-16.9-5.3-31.5-29.4-27.7-45.5c4.8-15.9,28.7-30.6,45.3-27.8
			C339.3,156.1,354.3,180.2,351.1,197.7z"/>
	</g>
	<g>
		<circle class="st2" cx="301" cy="176.5" r="3.2"/>
	</g>
	<g>
		<path class="st2" d="M331.5,178h-19c-0.8,0-1.5-0.7-1.5-1.5s0.7-1.5,1.5-1.5h19c0.8,0,1.5,0.7,1.5,1.5S332.3,178,331.5,178z"/>
	</g>
	<g>
		<path class="st2" d="M331.5,190.7h-19c-0.8,0-1.5-0.7-1.5-1.5s0.7-1.5,1.5-1.5h19c0.8,0,1.5,0.7,1.5,1.5S332.3,190.7,331.5,190.7z
			"/>
	</g>
	<g>
		<path class="st2" d="M331.5,203.4h-19c-0.8,0-1.5-0.7-1.5-1.5s0.7-1.5,1.5-1.5h19c0.8,0,1.5,0.7,1.5,1.5S332.3,203.4,331.5,203.4z
			"/>
	</g>
	<g>
		<rect x="298.1" y="186.4" class="st2" width="5.7" height="5.7"/>
	</g>
	<g>
		<polygon class="st2" points="300.7,199.2 302.4,202.1 304.1,205.1 300.7,205.1 297.3,205.1 299,202.1 		"/>
	</g>
	<g>
		<path class="st3" d="M248.7,197.4c-4.1,16.7-27.6,31.1-44.1,27c-16.3-5.1-30.5-28.5-26.8-44c4.6-15.3,27.8-29.6,43.8-26.9
			C237.3,157.2,251.8,180.4,248.7,197.4z"/>
	</g>
	<g>
		<path class="st5" d="M225.9,176.6H201c-1.6,0-3,1.3-3,3v15.2c0,1.6,1.3,3,3,3h5.3l2.9,4.1l2.6-4.1h14c1.6,0,3-1.3,3-3v-15.2
			C228.8,177.9,227.5,176.6,225.9,176.6z"/>
	</g>
	<g>
		<circle class="st3" cx="206.6" cy="187" r="2.1"/>
	</g>
	<g>
		<circle class="st3" cx="213.7" cy="187" r="2.1"/>
	</g>
	<g>
		<circle class="st3" cx="220.9" cy="187" r="2.1"/>
	</g>
	<g>
		<g>
			<path class="st3" d="M202.9,348h-3c-1.6,0-2.8-1.3-2.8-2.8v-3c0-1.6,1.3-2.8,2.8-2.8h3c1.6,0,2.8,1.3,2.8,2.8v3
				C205.7,346.8,204.4,348,202.9,348z"/>
		</g>
		<g>
			<path class="st3" d="M216.9,348h-3c-1.6,0-2.8-1.3-2.8-2.8v-3c0-1.6,1.3-2.8,2.8-2.8h3c1.6,0,2.8,1.3,2.8,2.8v3
				C219.7,346.8,218.4,348,216.9,348z"/>
		</g>
		<g>
			<path class="st3" d="M230.9,348h-3c-1.6,0-2.8-1.3-2.8-2.8v-3c0-1.6,1.3-2.8,2.8-2.8h3c1.6,0,2.8,1.3,2.8,2.8v3
				C233.7,346.8,232.5,348,230.9,348z"/>
		</g>
		<g>
			<path class="st3" d="M202.9,362.1h-3c-1.6,0-2.8-1.3-2.8-2.8v-3c0-1.6,1.3-2.8,2.8-2.8h3c1.6,0,2.8,1.3,2.8,2.8v3
				C205.7,360.8,204.4,362.1,202.9,362.1z"/>
		</g>
		<g>
			<path class="st3" d="M216.9,362.1h-3c-1.6,0-2.8-1.3-2.8-2.8v-3c0-1.6,1.3-2.8,2.8-2.8h3c1.6,0,2.8,1.3,2.8,2.8v3
				C219.7,360.8,218.4,362.1,216.9,362.1z"/>
		</g>
		<g>
			<path class="st3" d="M230.9,362.1h-3c-1.6,0-2.8-1.3-2.8-2.8v-3c0-1.6,1.3-2.8,2.8-2.8h3c1.6,0,2.8,1.3,2.8,2.8v3
				C233.7,360.8,232.5,362.1,230.9,362.1z"/>
		</g>
		<g>
			<path class="st3" d="M202.9,376.1h-3c-1.6,0-2.8-1.3-2.8-2.8v-3c0-1.6,1.3-2.8,2.8-2.8h3c1.6,0,2.8,1.3,2.8,2.8v3
				C205.7,374.8,204.4,376.1,202.9,376.1z"/>
		</g>
		<g>
			<path class="st3" d="M216.9,376.1h-3c-1.6,0-2.8-1.3-2.8-2.8v-3c0-1.6,1.3-2.8,2.8-2.8h3c1.6,0,2.8,1.3,2.8,2.8v3
				C219.7,374.8,218.4,376.1,216.9,376.1z"/>
		</g>
		<g>
			<path class="st3" d="M230.9,376.1h-3c-1.6,0-2.8-1.3-2.8-2.8v-3c0-1.6,1.3-2.8,2.8-2.8h3c1.6,0,2.8,1.3,2.8,2.8v3
				C233.7,374.8,232.5,376.1,230.9,376.1z"/>
		</g>
	</g>
	<g>
		<path class="st3" d="M207.5,453.6h-12.9c-0.8,0-1.5-0.7-1.5-1.5s0.7-1.5,1.5-1.5h12.9c0.8,0,1.5,0.7,1.5,1.5
			S208.3,453.6,207.5,453.6z"/>
	</g>
	<g>
		<path class="st3" d="M203.3,460.1c-0.3,0-0.7-0.1-0.9-0.3c-0.6-0.5-0.8-1.5-0.2-2.1l4.4-5.6l-4.1-5.5c-0.5-0.7-0.4-1.6,0.3-2.1
			c0.7-0.5,1.6-0.4,2.1,0.3l4.8,6.4c0.4,0.5,0.4,1.3,0,1.8l-5.1,6.5C204.2,459.9,203.8,460.1,203.3,460.1z"/>
	</g>
	<g>
		<path class="st3" d="M236.6,453.6h-12.9c-0.8,0-1.5-0.7-1.5-1.5s0.7-1.5,1.5-1.5h12.9c0.8,0,1.5,0.7,1.5,1.5
			S237.4,453.6,236.6,453.6z"/>
	</g>
	<g>
		<path class="st3" d="M227.8,460.1c-0.5,0-0.9-0.2-1.2-0.6l-4.8-6.4c-0.4-0.5-0.4-1.3,0-1.8l5.1-6.5c0.5-0.6,1.5-0.8,2.1-0.2
			c0.6,0.5,0.8,1.5,0.2,2.1l-4.4,5.6l4.1,5.5c0.5,0.7,0.4,1.6-0.3,2.1C228.4,460,228.1,460.1,227.8,460.1z"/>
	</g>
	<g>
		<path class="st3" d="M215.7,445.6c-0.8,0-1.5-0.7-1.5-1.5v-12.9c0-0.8,0.7-1.5,1.5-1.5s1.5,0.7,1.5,1.5v12.9
			C217.2,444.9,216.5,445.6,215.7,445.6z"/>
	</g>
	<g>
		<path class="st3" d="M215.8,447.5c-0.3,0-0.7-0.1-0.9-0.3l-6.5-5.1c-0.6-0.5-0.8-1.5-0.2-2.1c0.5-0.6,1.5-0.8,2.1-0.2l5.6,4.4
			l5.5-4.1c0.7-0.5,1.6-0.4,2.1,0.3c0.5,0.7,0.4,1.6-0.3,2.1l-6.4,4.8C216.4,447.4,216.1,447.5,215.8,447.5z"/>
	</g>
	<g>
		<path class="st3" d="M215.7,474.7c-0.8,0-1.5-0.7-1.5-1.5v-12.9c0-0.8,0.7-1.5,1.5-1.5s1.5,0.7,1.5,1.5v12.9
			C217.2,474,216.5,474.7,215.7,474.7z"/>
	</g>
	<g>
		<path class="st3" d="M222.2,466c-0.3,0-0.7-0.1-0.9-0.3l-5.6-4.4l-5.5,4.1c-0.7,0.5-1.6,0.4-2.1-0.3c-0.5-0.7-0.4-1.6,0.3-2.1
			l6.4-4.8c0.5-0.4,1.3-0.4,1.8,0l6.5,5.1c0.6,0.5,0.8,1.5,0.2,2.1C223,465.8,222.6,466,222.2,466z"/>
	</g>
	<g>
		<path class="st5" d="M347.2,354.2h-43c-2.6,0-4.8-2.1-4.8-4.8v-15.4c0-2.6,2.1-4.8,4.8-4.8h43c2.6,0,4.8,2.1,4.8,4.8v15.4
			C351.9,352.1,349.8,354.2,347.2,354.2z"/>
		<path class="st3" d="M347.2,355.7h-43c-3.5,0-6.3-2.8-6.3-6.3v-15.4c0-3.5,2.8-6.3,6.3-6.3h43c3.5,0,6.3,2.8,6.3,6.3v15.4
			C353.4,352.9,350.6,355.7,347.2,355.7z M304.1,330.8c-1.8,0-3.3,1.5-3.3,3.3v15.4c0,1.8,1.5,3.3,3.3,3.3h43c1.8,0,3.3-1.5,3.3-3.3
			v-15.4c0-1.8-1.5-3.3-3.3-3.3H304.1z"/>
	</g>
	<g>
		<path class="st2" d="M354.1,342.3h-37.6v-5c0-1.1-0.9-2-2-2h-17.2c-1.1,0-2,0.9-2,2v5h-0.1v33.8c0,2.6,2.1,4.8,4.8,4.8h54.1
			c2.6,0,4.8-2.1,4.8-4.8V347C358.9,344.4,356.7,342.3,354.1,342.3z"/>
		<path class="st3" d="M354.1,382.3H300c-3.5,0-6.3-2.8-6.3-6.3v-33.8c0-0.1,0-0.3,0.1-0.4v-4.6c0-1.9,1.6-3.5,3.5-3.5h17.2
			c1.9,0,3.5,1.6,3.5,3.5v3.5h36.1c3.5,0,6.3,2.8,6.3,6.3v29.1C360.4,379.5,357.5,382.3,354.1,382.3z M296.7,342.7v33.4
			c0,1.8,1.5,3.3,3.3,3.3h54.1c1.8,0,3.3-1.5,3.3-3.3V347c0-1.8-1.5-3.3-3.3-3.3h-37.6c-0.8,0-1.5-0.7-1.5-1.5v-5
			c0-0.3-0.2-0.5-0.5-0.5h-17.2c-0.3,0-0.5,0.2-0.5,0.5v5C296.8,342.4,296.8,342.6,296.7,342.7z"/>
	</g>
	<g>
		<ellipse class="st6" cx="331.4" cy="428.7" rx="27.4" ry="8.9"/>
		<path class="st3" d="M331.4,439.2c-14,0-28.9-3.7-28.9-10.4s14.9-10.4,28.9-10.4c14,0,28.9,3.7,28.9,10.4S345.5,439.2,331.4,439.2
			z M331.4,421.3c-16,0-25.9,4.3-25.9,7.4s9.9,7.4,25.9,7.4s25.9-4.3,25.9-7.4S347.5,421.3,331.4,421.3z"/>
	</g>
	<g>
		<path class="st3" d="M331.4,449.3c-14,0-28.9-3.7-28.9-10.4c0-0.8,0.7-1.5,1.5-1.5s1.5,0.7,1.5,1.5c0,3.1,9.9,7.4,25.9,7.4
			s25.9-4.3,25.9-7.4c0-0.8,0.7-1.5,1.5-1.5s1.5,0.7,1.5,1.5C360.4,445.6,345.5,449.3,331.4,449.3z"/>
	</g>
	<g>
		<path class="st3" d="M331.4,459.4c-14,0-28.9-3.7-28.9-10.4c0-0.8,0.7-1.5,1.5-1.5s1.5,0.7,1.5,1.5c0,3.1,9.9,7.4,25.9,7.4
			s25.9-4.3,25.9-7.4c0-0.8,0.7-1.5,1.5-1.5s1.5,0.7,1.5,1.5C360.4,455.8,345.5,459.4,331.4,459.4z"/>
	</g>
	<g>
		<path class="st3" d="M331.4,469.5c-14,0-28.9-3.7-28.9-10.4c0-0.8,0.7-1.5,1.5-1.5s1.5,0.7,1.5,1.5c0,3.1,9.9,7.4,25.9,7.4
			s25.9-4.3,25.9-7.4c0-0.8,0.7-1.5,1.5-1.5s1.5,0.7,1.5,1.5C360.4,465.9,345.5,469.5,331.4,469.5z"/>
	</g>
	<g>
		<path class="st3" d="M331.4,478.5c-14,0-28.9-3.7-28.9-10.4v-39.3c0-6.8,14.9-10.4,28.9-10.4c14,0,28.9,3.7,28.9,10.4V468
			C360.4,474.8,345.5,478.5,331.4,478.5z M331.4,421.3c-16,0-25.9,4.3-25.9,7.4V468c0,3.1,9.9,7.4,25.9,7.4s25.9-4.3,25.9-7.4v-39.3
			C357.4,425.6,347.5,421.3,331.4,421.3z"/>
	</g>
	<g>
		<path class="st3" d="M331.4,490.7c-0.8,0-1.5-0.7-1.5-1.5v-11.9c0-0.8,0.7-1.5,1.5-1.5s1.5,0.7,1.5,1.5v11.9
			C332.9,490,332.3,490.7,331.4,490.7z"/>
	</g>
	<g>
		<path class="st3" d="M345.7,490.7h-28.6c-0.8,0-1.5-0.7-1.5-1.5s0.7-1.5,1.5-1.5h28.6c0.8,0,1.5,0.7,1.5,1.5
			S346.6,490.7,345.7,490.7z"/>
	</g>
	<g>
		<path class="st3" d="M311.8,490.7h-4.2c-0.8,0-1.5-0.7-1.5-1.5s0.7-1.5,1.5-1.5h4.2c0.8,0,1.5,0.7,1.5,1.5
			S312.6,490.7,311.8,490.7z"/>
	</g>
	<g>
		<path class="st3" d="M355.9,490.7h-4.2c-0.8,0-1.5-0.7-1.5-1.5s0.7-1.5,1.5-1.5h4.2c0.8,0,1.5,0.7,1.5,1.5
			S356.7,490.7,355.9,490.7z"/>
	</g>
	<g class="st1">
		<g>
			<path class="st2" d="M736.5,516H442.3c-6.6,0-12-5.4-12-12V300.5c0-6.6,5.4-12,12-12h294.2c6.6,0,12,5.4,12,12V504
				C748.5,510.6,743.1,516,736.5,516z"/>
		</g>
		<g>
			<path class="st3" d="M736.5,517.5h-6.1c-0.8,0-1.5-0.7-1.5-1.5s0.7-1.5,1.5-1.5h6.1c0.8,0,1.5,0.7,1.5,1.5
				S737.4,517.5,736.5,517.5z M720.3,517.5h-6.1c-0.8,0-1.5-0.7-1.5-1.5s0.7-1.5,1.5-1.5h6.1c0.8,0,1.5,0.7,1.5,1.5
				S721.1,517.5,720.3,517.5z M704,517.5h-6.1c-0.8,0-1.5-0.7-1.5-1.5s0.7-1.5,1.5-1.5h6.1c0.8,0,1.5,0.7,1.5,1.5
				S704.9,517.5,704,517.5z M687.8,517.5h-6.1c-0.8,0-1.5-0.7-1.5-1.5s0.7-1.5,1.5-1.5h6.1c0.8,0,1.5,0.7,1.5,1.5
				S688.6,517.5,687.8,517.5z M671.6,517.5h-6.1c-0.8,0-1.5-0.7-1.5-1.5s0.7-1.5,1.5-1.5h6.1c0.8,0,1.5,0.7,1.5,1.5
				S672.4,517.5,671.6,517.5z M655.4,517.5h-6.1c-0.8,0-1.5-0.7-1.5-1.5s0.7-1.5,1.5-1.5h6.1c0.8,0,1.5,0.7,1.5,1.5
				S656.2,517.5,655.4,517.5z M639.1,517.5H633c-0.8,0-1.5-0.7-1.5-1.5s0.7-1.5,1.5-1.5h6.1c0.8,0,1.5,0.7,1.5,1.5
				S640,517.5,639.1,517.5z M622.9,517.5h-6.1c-0.8,0-1.5-0.7-1.5-1.5s0.7-1.5,1.5-1.5h6.1c0.8,0,1.5,0.7,1.5,1.5
				S623.7,517.5,622.9,517.5z M606.7,517.5h-6.1c-0.8,0-1.5-0.7-1.5-1.5s0.7-1.5,1.5-1.5h6.1c0.8,0,1.5,0.7,1.5,1.5
				S607.5,517.5,606.7,517.5z M590.4,517.5h-6.1c-0.8,0-1.5-0.7-1.5-1.5s0.7-1.5,1.5-1.5h6.1c0.8,0,1.5,0.7,1.5,1.5
				S591.3,517.5,590.4,517.5z M574.2,517.5h-6.1c-0.8,0-1.5-0.7-1.5-1.5s0.7-1.5,1.5-1.5h6.1c0.8,0,1.5,0.7,1.5,1.5
				S575,517.5,574.2,517.5z M558,517.5h-6.1c-0.8,0-1.5-0.7-1.5-1.5s0.7-1.5,1.5-1.5h6.1c0.8,0,1.5,0.7,1.5,1.5
				S558.8,517.5,558,517.5z M541.8,517.5h-6.1c-0.8,0-1.5-0.7-1.5-1.5s0.7-1.5,1.5-1.5h6.1c0.8,0,1.5,0.7,1.5,1.5
				S542.6,517.5,541.8,517.5z M525.5,517.5h-6.1c-0.8,0-1.5-0.7-1.5-1.5s0.7-1.5,1.5-1.5h6.1c0.8,0,1.5,0.7,1.5,1.5
				S526.4,517.5,525.5,517.5z M509.3,517.5h-6.1c-0.8,0-1.5-0.7-1.5-1.5s0.7-1.5,1.5-1.5h6.1c0.8,0,1.5,0.7,1.5,1.5
				S510.1,517.5,509.3,517.5z M493.1,517.5H487c-0.8,0-1.5-0.7-1.5-1.5s0.7-1.5,1.5-1.5h6.1c0.8,0,1.5,0.7,1.5,1.5
				S493.9,517.5,493.1,517.5z M476.9,517.5h-6.1c-0.8,0-1.5-0.7-1.5-1.5s0.7-1.5,1.5-1.5h6.1c0.8,0,1.5,0.7,1.5,1.5
				S477.7,517.5,476.9,517.5z M460.6,517.5h-6.1c-0.8,0-1.5-0.7-1.5-1.5s0.7-1.5,1.5-1.5h6.1c0.8,0,1.5,0.7,1.5,1.5
				S461.5,517.5,460.6,517.5z M444.4,517.5h-2.1c-1.5,0-3-0.2-4.4-0.7c-0.8-0.3-1.2-1.1-0.9-1.9c0.3-0.8,1.1-1.2,1.9-0.9
				c1.1,0.4,2.2,0.6,3.4,0.6h2.1c0.8,0,1.5,0.7,1.5,1.5S445.2,517.5,444.4,517.5z M745.5,513.5c-0.4,0-0.7-0.1-1-0.4
				c-0.6-0.5-0.7-1.5-0.1-2.1c1.2-1.3,2-3,2.4-4.7c0.2-0.8,1-1.3,1.8-1.1c0.8,0.2,1.3,1,1.1,1.8c-0.5,2.2-1.5,4.3-3.1,6
				C746.3,513.3,745.9,513.5,745.5,513.5z M431.2,510.2c-0.6,0-1.1-0.3-1.4-0.9c-0.7-1.7-1-3.4-1-5.2v-1.3c0-0.8,0.7-1.5,1.5-1.5
				s1.5,0.7,1.5,1.5v1.3c0,1.4,0.3,2.8,0.8,4c0.3,0.8,0,1.6-0.8,2C431.6,510.1,431.4,510.2,431.2,510.2z M748.5,498
				c-0.8,0-1.5-0.7-1.5-1.5v-6.1c0-0.8,0.7-1.5,1.5-1.5s1.5,0.7,1.5,1.5v6.1C750,497.3,749.3,498,748.5,498z M430.3,494.1
				c-0.8,0-1.5-0.7-1.5-1.5v-6.1c0-0.8,0.7-1.5,1.5-1.5s1.5,0.7,1.5,1.5v6.1C431.8,493.4,431.1,494.1,430.3,494.1z M748.5,481.8
				c-0.8,0-1.5-0.7-1.5-1.5v-6.1c0-0.8,0.7-1.5,1.5-1.5s1.5,0.7,1.5,1.5v6.1C750,481.1,749.3,481.8,748.5,481.8z M430.3,477.8
				c-0.8,0-1.5-0.7-1.5-1.5v-6.1c0-0.8,0.7-1.5,1.5-1.5s1.5,0.7,1.5,1.5v6.1C431.8,477.2,431.1,477.8,430.3,477.8z M748.5,465.5
				c-0.8,0-1.5-0.7-1.5-1.5v-6.1c0-0.8,0.7-1.5,1.5-1.5s1.5,0.7,1.5,1.5v6.1C750,464.9,749.3,465.5,748.5,465.5z M430.3,461.6
				c-0.8,0-1.5-0.7-1.5-1.5V454c0-0.8,0.7-1.5,1.5-1.5s1.5,0.7,1.5,1.5v6.1C431.8,460.9,431.1,461.6,430.3,461.6z M748.5,449.3
				c-0.8,0-1.5-0.7-1.5-1.5v-6.1c0-0.8,0.7-1.5,1.5-1.5s1.5,0.7,1.5,1.5v6.1C750,448.6,749.3,449.3,748.5,449.3z M430.3,445.4
				c-0.8,0-1.5-0.7-1.5-1.5v-6.1c0-0.8,0.7-1.5,1.5-1.5s1.5,0.7,1.5,1.5v6.1C431.8,444.7,431.1,445.4,430.3,445.4z M748.5,433.1
				c-0.8,0-1.5-0.7-1.5-1.5v-6.1c0-0.8,0.7-1.5,1.5-1.5s1.5,0.7,1.5,1.5v6.1C750,432.4,749.3,433.1,748.5,433.1z M430.3,429.2
				c-0.8,0-1.5-0.7-1.5-1.5v-6.1c0-0.8,0.7-1.5,1.5-1.5s1.5,0.7,1.5,1.5v6.1C431.8,428.5,431.1,429.2,430.3,429.2z M748.5,416.8
				c-0.8,0-1.5-0.7-1.5-1.5v-6.1c0-0.8,0.7-1.5,1.5-1.5s1.5,0.7,1.5,1.5v6.1C750,416.2,749.3,416.8,748.5,416.8z M430.3,412.9
				c-0.8,0-1.5-0.7-1.5-1.5v-6.1c0-0.8,0.7-1.5,1.5-1.5s1.5,0.7,1.5,1.5v6.1C431.8,412.3,431.1,412.9,430.3,412.9z M748.5,400.6
				c-0.8,0-1.5-0.7-1.5-1.5V393c0-0.8,0.7-1.5,1.5-1.5s1.5,0.7,1.5,1.5v6.1C750,399.9,749.3,400.6,748.5,400.6z M430.3,396.7
				c-0.8,0-1.5-0.7-1.5-1.5v-6.1c0-0.8,0.7-1.5,1.5-1.5s1.5,0.7,1.5,1.5v6.1C431.8,396,431.1,396.7,430.3,396.7z M748.5,384.4
				c-0.8,0-1.5-0.7-1.5-1.5v-6.1c0-0.8,0.7-1.5,1.5-1.5s1.5,0.7,1.5,1.5v6.1C750,383.7,749.3,384.4,748.5,384.4z M430.3,380.5
				c-0.8,0-1.5-0.7-1.5-1.5v-6.1c0-0.8,0.7-1.5,1.5-1.5s1.5,0.7,1.5,1.5v6.1C431.8,379.8,431.1,380.5,430.3,380.5z M748.5,368.2
				c-0.8,0-1.5-0.7-1.5-1.5v-6.1c0-0.8,0.7-1.5,1.5-1.5s1.5,0.7,1.5,1.5v6.1C750,367.5,749.3,368.2,748.5,368.2z M430.3,364.3
				c-0.8,0-1.5-0.7-1.5-1.5v-6.1c0-0.8,0.7-1.5,1.5-1.5s1.5,0.7,1.5,1.5v6.1C431.8,363.6,431.1,364.3,430.3,364.3z M748.5,351.9
				c-0.8,0-1.5-0.7-1.5-1.5v-6.1c0-0.8,0.7-1.5,1.5-1.5s1.5,0.7,1.5,1.5v6.1C750,351.3,749.3,351.9,748.5,351.9z M430.3,348
				c-0.8,0-1.5-0.7-1.5-1.5v-6.1c0-0.8,0.7-1.5,1.5-1.5s1.5,0.7,1.5,1.5v6.1C431.8,347.4,431.1,348,430.3,348z M748.5,335.7
				c-0.8,0-1.5-0.7-1.5-1.5v-6.1c0-0.8,0.7-1.5,1.5-1.5s1.5,0.7,1.5,1.5v6.1C750,335,749.3,335.7,748.5,335.7z M430.3,331.8
				c-0.8,0-1.5-0.7-1.5-1.5v-6.1c0-0.8,0.7-1.5,1.5-1.5s1.5,0.7,1.5,1.5v6.1C431.8,331.1,431.1,331.8,430.3,331.8z M748.5,319.5
				c-0.8,0-1.5-0.7-1.5-1.5v-6.1c0-0.8,0.7-1.5,1.5-1.5s1.5,0.7,1.5,1.5v6.1C750,318.8,749.3,319.5,748.5,319.5z M430.3,315.6
				c-0.8,0-1.5-0.7-1.5-1.5V308c0-0.8,0.7-1.5,1.5-1.5s1.5,0.7,1.5,1.5v6.1C431.8,314.9,431.1,315.6,430.3,315.6z M748.5,303.3
				c-0.8,0-1.5-0.7-1.5-1.5v-1.3c0-1.4-0.3-2.8-0.8-4.1c-0.3-0.8,0-1.6,0.8-2c0.8-0.3,1.6,0,2,0.8c0.7,1.7,1.1,3.4,1.1,5.2v1.3
				C750,302.6,749.3,303.3,748.5,303.3z M430.6,299.4c-0.1,0-0.2,0-0.3,0c-0.8-0.2-1.3-1-1.1-1.8c0.5-2.2,1.6-4.3,3.1-6
				c0.5-0.6,1.5-0.7,2.1-0.1c0.6,0.5,0.7,1.5,0.1,2.1c-1.2,1.3-2,3-2.4,4.7C431.9,298.9,431.2,299.4,430.6,299.4z M740.3,290.6
				c-0.2,0-0.3,0-0.5-0.1c-1.1-0.4-2.2-0.6-3.4-0.6h-2.2c-0.8,0-1.5-0.7-1.5-1.5s0.7-1.5,1.5-1.5h2.2c1.5,0,2.9,0.2,4.3,0.7
				c0.8,0.3,1.2,1.1,0.9,1.9C741.5,290.2,741,290.6,740.3,290.6z M724.2,290h-6.1c-0.8,0-1.5-0.7-1.5-1.5s0.7-1.5,1.5-1.5h6.1
				c0.8,0,1.5,0.7,1.5,1.5S725,290,724.2,290z M708,290h-6.1c-0.8,0-1.5-0.7-1.5-1.5s0.7-1.5,1.5-1.5h6.1c0.8,0,1.5,0.7,1.5,1.5
				S708.8,290,708,290z M691.7,290h-6.1c-0.8,0-1.5-0.7-1.5-1.5s0.7-1.5,1.5-1.5h6.1c0.8,0,1.5,0.7,1.5,1.5S692.6,290,691.7,290z
				 M675.5,290h-6.1c-0.8,0-1.5-0.7-1.5-1.5s0.7-1.5,1.5-1.5h6.1c0.8,0,1.5,0.7,1.5,1.5S676.3,290,675.5,290z M659.3,290h-6.1
				c-0.8,0-1.5-0.7-1.5-1.5s0.7-1.5,1.5-1.5h6.1c0.8,0,1.5,0.7,1.5,1.5S660.1,290,659.3,290z M643.1,290H637c-0.8,0-1.5-0.7-1.5-1.5
				s0.7-1.5,1.5-1.5h6.1c0.8,0,1.5,0.7,1.5,1.5S643.9,290,643.1,290z M626.8,290h-6.1c-0.8,0-1.5-0.7-1.5-1.5s0.7-1.5,1.5-1.5h6.1
				c0.8,0,1.5,0.7,1.5,1.5S627.7,290,626.8,290z M610.6,290h-6.1c-0.8,0-1.5-0.7-1.5-1.5s0.7-1.5,1.5-1.5h6.1c0.8,0,1.5,0.7,1.5,1.5
				S611.4,290,610.6,290z M594.4,290h-6.1c-0.8,0-1.5-0.7-1.5-1.5s0.7-1.5,1.5-1.5h6.1c0.8,0,1.5,0.7,1.5,1.5S595.2,290,594.4,290z
				 M578.1,290h-6.1c-0.8,0-1.5-0.7-1.5-1.5s0.7-1.5,1.5-1.5h6.1c0.8,0,1.5,0.7,1.5,1.5S579,290,578.1,290z M561.9,290h-6.1
				c-0.8,0-1.5-0.7-1.5-1.5s0.7-1.5,1.5-1.5h6.1c0.8,0,1.5,0.7,1.5,1.5S562.8,290,561.9,290z M545.7,290h-6.1
				c-0.8,0-1.5-0.7-1.5-1.5s0.7-1.5,1.5-1.5h6.1c0.8,0,1.5,0.7,1.5,1.5S546.5,290,545.7,290z M529.5,290h-6.1
				c-0.8,0-1.5-0.7-1.5-1.5s0.7-1.5,1.5-1.5h6.1c0.8,0,1.5,0.7,1.5,1.5S530.3,290,529.5,290z M513.2,290h-6.1
				c-0.8,0-1.5-0.7-1.5-1.5s0.7-1.5,1.5-1.5h6.1c0.8,0,1.5,0.7,1.5,1.5S514.1,290,513.2,290z M497,290h-6.1c-0.8,0-1.5-0.7-1.5-1.5
				s0.7-1.5,1.5-1.5h6.1c0.8,0,1.5,0.7,1.5,1.5S497.8,290,497,290z M480.8,290h-6.1c-0.8,0-1.5-0.7-1.5-1.5s0.7-1.5,1.5-1.5h6.1
				c0.8,0,1.5,0.7,1.5,1.5S481.6,290,480.8,290z M464.6,290h-6.1c-0.8,0-1.5-0.7-1.5-1.5s0.7-1.5,1.5-1.5h6.1c0.8,0,1.5,0.7,1.5,1.5
				S465.4,290,464.6,290z M448.3,290h-6.1c-0.8,0-1.5-0.7-1.5-1.5s0.7-1.5,1.5-1.5h6.1c0.8,0,1.5,0.7,1.5,1.5S449.2,290,448.3,290z"
				/>
		</g>
	</g>
	<g>
		<path class="st2" d="M626.7,432.2H516.2c-1.9,0-3.5-1.6-3.5-3.5v-74.2c0-1.9,1.6-3.5,3.5-3.5h110.6c1.9,0,3.5,1.6,3.5,3.5v74.2
			C630.2,430.7,628.7,432.2,626.7,432.2z"/>
		<path class="st3" d="M626.7,433.7H516.2c-2.8,0-5-2.2-5-5v-74.2c0-2.8,2.2-5,5-5h110.6c2.8,0,5,2.2,5,5v74.2
			C631.7,431.5,629.5,433.7,626.7,433.7z M516.2,352.5c-1.1,0-2,0.9-2,2v74.2c0,1.1,0.9,2,2,2h110.6c1.1,0,2-0.9,2-2v-74.2
			c0-1.1-0.9-2-2-2H516.2z"/>
	</g>
	<g>
		<polygon class="st2" points="591.1,451.9 551.8,451.9 562.6,432.7 580.3,432.7 		"/>
		<path class="st3" d="M591.1,453.4h-39.4c-0.5,0-1-0.3-1.3-0.7c-0.3-0.5-0.3-1,0-1.5l10.8-19.2c0.3-0.5,0.8-0.8,1.3-0.8h17.7
			c0.5,0,1,0.3,1.3,0.8l10.8,19.2c0.3,0.5,0.3,1,0,1.5C592.2,453.1,591.7,453.4,591.1,453.4z M554.3,450.4h34.2l-9.1-16.2h-16
			L554.3,450.4z"/>
	</g>
	<g>
		<path class="st3" d="M630.5,417.5H512.4c-0.8,0-1.5-0.7-1.5-1.5s0.7-1.5,1.5-1.5h118.1c0.8,0,1.5,0.7,1.5,1.5
			S631.3,417.5,630.5,417.5z"/>
	</g>
	<g>
		<path class="st2" d="M518,451.3h-37.7c-2.6,0-4.7-2.1-4.7-4.7v-58.6c0-2.6,2.1-4.7,4.7-4.7H518c2.6,0,4.7,2.1,4.7,4.7v58.6
			C522.7,449.2,520.6,451.3,518,451.3z"/>
		<path class="st3" d="M518,452.8h-37.7c-3.4,0-6.2-2.8-6.2-6.2v-58.6c0-3.4,2.8-6.2,6.2-6.2H518c3.4,0,6.2,2.8,6.2,6.2v58.6
			C524.2,450.1,521.4,452.8,518,452.8z M480.3,384.9c-1.8,0-3.2,1.4-3.2,3.2v58.6c0,1.8,1.4,3.2,3.2,3.2H518c1.8,0,3.2-1.4,3.2-3.2
			v-58.6c0-1.8-1.4-3.2-3.2-3.2H480.3z"/>
	</g>
	<g>
		<path class="st3" d="M703.1,456h-98.2c-1.4,0-2.5-1.1-2.5-2.5s1.1-2.5,2.5-2.5h98.2c1.4,0,2.5,1.1,2.5,2.5S704.5,456,703.1,456z"
			/>
	</g>
	<g>
		<path class="st2" d="M527.1,452.7h-20.5c-2.6,0-4.7-2.1-4.7-4.7v-37.3c0-2.6,2.1-4.7,4.7-4.7h20.5c2.6,0,4.7,2.1,4.7,4.7v37.3
			C531.7,450.6,529.6,452.7,527.1,452.7z"/>
		<path class="st3" d="M527.1,454.2h-20.5c-3.4,0-6.2-2.8-6.2-6.2v-37.3c0-3.4,2.8-6.2,6.2-6.2h20.5c3.4,0,6.2,2.8,6.2,6.2v37.3
			C533.2,451.5,530.5,454.2,527.1,454.2z M506.6,407.5c-1.8,0-3.2,1.4-3.2,3.2v37.3c0,1.8,1.4,3.2,3.2,3.2h20.5
			c1.8,0,3.2-1.4,3.2-3.2v-37.3c0-1.8-1.4-3.2-3.2-3.2H506.6z"/>
	</g>
	<g>
		<circle class="st3" cx="517.7" cy="442.7" r="2.7"/>
	</g>
	<g>
		<circle class="st3" cx="498.3" cy="442.7" r="2.7"/>
	</g>
	<g>
		<rect x="532.5" y="372.7" class="st4" width="20.5" height="20.5"/>
		<path class="st3" d="M553,394.7h-20.5c-0.8,0-1.5-0.7-1.5-1.5v-20.5c0-0.8,0.7-1.5,1.5-1.5H553c0.8,0,1.5,0.7,1.5,1.5v20.5
			C554.5,394,553.8,394.7,553,394.7z M534,391.7h17.5v-17.5H534V391.7z"/>
	</g>
	<g>
		<rect x="565.1" y="372.7" class="st5" width="20.5" height="20.5"/>
		<path class="st3" d="M585.6,394.7h-20.5c-0.8,0-1.5-0.7-1.5-1.5v-20.5c0-0.8,0.7-1.5,1.5-1.5h20.5c0.8,0,1.5,0.7,1.5,1.5v20.5
			C587.1,394,586.5,394.7,585.6,394.7z M566.6,391.7h17.5v-17.5h-17.5V391.7z"/>
	</g>
	<g>
		<rect x="597.8" y="372.7" class="st6" width="20.5" height="20.5"/>
		<path class="st3" d="M618.3,394.7h-20.5c-0.8,0-1.5-0.7-1.5-1.5v-20.5c0-0.8,0.7-1.5,1.5-1.5h20.5c0.8,0,1.5,0.7,1.5,1.5v20.5
			C619.8,394,619.1,394.7,618.3,394.7z M599.3,391.7h17.5v-17.5h-17.5V391.7z"/>
	</g>
	<g>
		<path class="st2" d="M696.8,446.3h-85.6c-1.9,0-3.5-1.6-3.5-3.5v-57c0-1.9,1.6-3.5,3.5-3.5h85.6c1.9,0,3.5,1.6,3.5,3.5v57
			C700.3,444.7,698.8,446.3,696.8,446.3z"/>
		<path class="st3" d="M696.8,447.8h-85.6c-2.8,0-5-2.2-5-5v-57c0-2.8,2.2-5,5-5h85.6c2.8,0,5,2.2,5,5v57
			C701.8,445.5,699.6,447.8,696.8,447.8z M611.2,383.8c-1.1,0-2,0.9-2,2v57c0,1.1,0.9,2,2,2h85.6c1.1,0,2-0.9,2-2v-57
			c0-1.1-0.9-2-2-2H611.2z"/>
	</g>
</g>
</svg>
