<?xml version="1.0" encoding="utf-8"?>
<!-- Generator: Adobe Illustrator 21.1.0, SVG Export Plug-In . SVG Version: 6.00 Build 0)  -->
<svg version="1.1" id="Layer_1" xmlns="http://www.w3.org/2000/svg" xmlns:xlink="http://www.w3.org/1999/xlink" x="0px" y="0px"
	 width="900px" height="724.8px" viewBox="0 0 900 724.8" style="enable-background:new 0 0 900 724.8;" xml:space="preserve">
<style type="text/css">
	.st0{opacity:5.000000e-02;}
	.st1{fill:#404751;}
	.st2{fill:#FFFFFF;}
	.st3{fill:#41ACE1;}
	.st4{fill:#D75352;}
	.st5{fill:#E6BC45;}
</style>
<g>
	<g class="st0">
		<path d="M833.5,502.9c-6.8,13.9-20.8,21.9-84.8,32.9c-63.3,11.7-171.7,29.9-289.8,27c-121.4-1.7-216.2-3.2-284.1-16.7
			c-71.2-14-103.5-32.3-108.4-43c-1.3-11.2,16.6-16.1,82.8-26.7c64.6-10.1,178.8-34,310.9-33.7c133.7,0.7,241,3.9,301.4,15.3
			C825.6,471,835.6,489.6,833.5,502.9z"/>
	</g>
	<g>
		<path class="st1" d="M715.1,488.6h-532c-0.8,0-1.5-0.7-1.5-1.5s0.7-1.5,1.5-1.5h532c0.8,0,1.5,0.7,1.5,1.5S716,488.6,715.1,488.6z
			"/>
	</g>
	<g>
		<path class="st1" d="M778.8,488.6h-35.6c-0.8,0-1.5-0.7-1.5-1.5s0.7-1.5,1.5-1.5h35.6c0.8,0,1.5,0.7,1.5,1.5
			S779.6,488.6,778.8,488.6z"/>
	</g>
	<g>
		<path class="st1" d="M166.9,488.6h-17.6c-0.8,0-1.5-0.7-1.5-1.5s0.7-1.5,1.5-1.5h17.6c0.8,0,1.5,0.7,1.5,1.5
			S167.8,488.6,166.9,488.6z"/>
	</g>
	<g>
		<rect x="235.6" y="331.6" class="st2" width="414.2" height="155.8"/>
		<path class="st1" d="M649.9,489H235.6c-0.8,0-1.5-0.7-1.5-1.5V331.6c0-0.8,0.7-1.5,1.5-1.5h414.2c0.8,0,1.5,0.7,1.5,1.5v155.8
			C651.4,488.3,650.7,489,649.9,489z M237.1,486h411.2V333.1H237.1V486z"/>
	</g>
	<g>
		<rect x="260.6" y="398.3" class="st2" width="21.7" height="21.7"/>
		<path class="st1" d="M282.3,421.5h-21.7c-0.8,0-1.5-0.7-1.5-1.5v-21.7c0-0.8,0.7-1.5,1.5-1.5h21.7c0.8,0,1.5,0.7,1.5,1.5V420
			C283.8,420.8,283.1,421.5,282.3,421.5z M262.1,418.5h18.7v-18.7h-18.7V418.5z"/>
	</g>
	<g>
		<rect x="426.3" y="398.3" class="st2" width="21.7" height="21.7"/>
		<path class="st1" d="M448,421.5h-21.7c-0.8,0-1.5-0.7-1.5-1.5v-21.7c0-0.8,0.7-1.5,1.5-1.5H448c0.8,0,1.5,0.7,1.5,1.5V420
			C449.5,420.8,448.8,421.5,448,421.5z M427.8,418.5h18.7v-18.7h-18.7V418.5z"/>
	</g>
	<g>
		<path class="st1" d="M571.3,449.1H468.7c-0.8,0-1.5-0.7-1.5-1.5v-75c0-0.8,0.7-1.5,1.5-1.5h102.6c0.8,0,1.5,0.7,1.5,1.5v75
			C572.8,448.4,572.1,449.1,571.3,449.1z M470.2,446.1h99.6v-72h-99.6V446.1z"/>
	</g>
	<g>
		<path class="st1" d="M405.6,449.1H303c-0.8,0-1.5-0.7-1.5-1.5v-75c0-0.8,0.7-1.5,1.5-1.5h102.6c0.8,0,1.5,0.7,1.5,1.5v75
			C407.1,448.4,406.4,449.1,405.6,449.1z M304.5,446.1h99.6v-72h-99.6V446.1z"/>
	</g>
	<g>
		<rect x="592" y="398.7" class="st2" width="21.7" height="21.7"/>
		<path class="st1" d="M613.7,421.9H592c-0.8,0-1.5-0.7-1.5-1.5v-21.7c0-0.8,0.7-1.5,1.5-1.5h21.7c0.8,0,1.5,0.7,1.5,1.5v21.7
			C615.2,421.2,614.5,421.9,613.7,421.9z M593.5,418.9h18.7v-18.7h-18.7V418.9z"/>
	</g>
	<g>
		<path class="st1" d="M402.6,411.6H304c-0.8,0-1.5-0.7-1.5-1.5s0.7-1.5,1.5-1.5h98.6c0.8,0,1.5,0.7,1.5,1.5
			S403.5,411.6,402.6,411.6z"/>
	</g>
	<g>
		<path class="st1" d="M570.3,411.6h-98.6c-0.8,0-1.5-0.7-1.5-1.5s0.7-1.5,1.5-1.5h98.6c0.8,0,1.5,0.7,1.5,1.5
			S571.1,411.6,570.3,411.6z"/>
	</g>
	<g>
		<rect x="234.6" y="236.7" class="st2" width="416.2" height="75.7"/>
		<path class="st1" d="M650.8,314H234.6c-0.8,0-1.5-0.7-1.5-1.5v-75.7c0-0.8,0.7-1.5,1.5-1.5h416.2c0.8,0,1.5,0.7,1.5,1.5v75.7
			C652.3,313.3,651.7,314,650.8,314z M236.1,311h413.2v-72.7H236.1V311z"/>
	</g>
	<g>
		<g>
			<rect x="234.6" y="190.2" class="st3" width="83.2" height="26.7"/>
			<path class="st1" d="M317.9,218.4h-83.2c-0.8,0-1.5-0.7-1.5-1.5v-26.7c0-0.8,0.7-1.5,1.5-1.5h83.2c0.8,0,1.5,0.7,1.5,1.5v26.7
				C319.4,217.8,318.7,218.4,317.9,218.4z M236.1,215.4h80.2v-23.7h-80.2V215.4z"/>
		</g>
		<g>
			<rect x="234.6" y="163.1" class="st4" width="83.2" height="26.7"/>
			<path class="st1" d="M317.9,191.4h-83.2c-0.8,0-1.5-0.7-1.5-1.5v-26.7c0-0.8,0.7-1.5,1.5-1.5h83.2c0.8,0,1.5,0.7,1.5,1.5v26.7
				C319.4,190.7,318.7,191.4,317.9,191.4z M236.1,188.4h80.2v-23.7h-80.2V188.4z"/>
		</g>
	</g>
	<g>
		<g>
			<rect x="345.2" y="190.2" class="st3" width="83.2" height="26.7"/>
			<path class="st1" d="M428.4,218.4h-83.2c-0.8,0-1.5-0.7-1.5-1.5v-26.7c0-0.8,0.7-1.5,1.5-1.5h83.2c0.8,0,1.5,0.7,1.5,1.5v26.7
				C429.9,217.8,429.2,218.4,428.4,218.4z M346.7,215.4h80.2v-23.7h-80.2V215.4z"/>
		</g>
		<g>
			<rect x="345.2" y="163.1" class="st4" width="83.2" height="26.7"/>
			<path class="st1" d="M428.4,191.4h-83.2c-0.8,0-1.5-0.7-1.5-1.5v-26.7c0-0.8,0.7-1.5,1.5-1.5h83.2c0.8,0,1.5,0.7,1.5,1.5v26.7
				C429.9,190.7,429.2,191.4,428.4,191.4z M346.7,188.4h80.2v-23.7h-80.2V188.4z"/>
		</g>
	</g>
	<g>
		<g>
			<rect x="455.7" y="190.2" class="st3" width="83.2" height="26.7"/>
			<path class="st1" d="M538.9,218.4h-83.2c-0.8,0-1.5-0.7-1.5-1.5v-26.7c0-0.8,0.7-1.5,1.5-1.5h83.2c0.8,0,1.5,0.7,1.5,1.5v26.7
				C540.4,217.8,539.8,218.4,538.9,218.4z M457.2,215.4h80.2v-23.7h-80.2V215.4z"/>
		</g>
		<g>
			<rect x="455.7" y="163.1" class="st4" width="83.2" height="26.7"/>
			<path class="st1" d="M538.9,191.4h-83.2c-0.8,0-1.5-0.7-1.5-1.5v-26.7c0-0.8,0.7-1.5,1.5-1.5h83.2c0.8,0,1.5,0.7,1.5,1.5v26.7
				C540.4,190.7,539.8,191.4,538.9,191.4z M457.2,188.4h80.2v-23.7h-80.2V188.4z"/>
		</g>
	</g>
	<g>
		<g>
			<rect x="566.3" y="190.2" class="st3" width="83.2" height="26.7"/>
			<path class="st1" d="M649.5,218.4h-83.2c-0.8,0-1.5-0.7-1.5-1.5v-26.7c0-0.8,0.7-1.5,1.5-1.5h83.2c0.8,0,1.5,0.7,1.5,1.5v26.7
				C651,217.8,650.3,218.4,649.5,218.4z M567.8,215.4H648v-23.7h-80.2V215.4z"/>
		</g>
		<g>
			<rect x="566.3" y="163.1" class="st4" width="83.2" height="26.7"/>
			<path class="st1" d="M649.5,191.4h-83.2c-0.8,0-1.5-0.7-1.5-1.5v-26.7c0-0.8,0.7-1.5,1.5-1.5h83.2c0.8,0,1.5,0.7,1.5,1.5v26.7
				C651,190.7,650.3,191.4,649.5,191.4z M567.8,188.4H648v-23.7h-80.2V188.4z"/>
		</g>
	</g>
	<g>
		<path class="st5" d="M593.6,282.1c0,0-15.3,72,46.2,90.1c0,0,50.6-10.8,45-88.9l-45-18L593.6,282.1z"/>
		<path class="st1" d="M639.8,373.8c-0.1,0-0.3,0-0.4-0.1c-32.5-9.6-43.6-34.1-47.2-53c-3.9-20.3-0.2-38.1,0-38.9
			c0.1-0.5,0.5-0.9,1-1.1l46.2-16.8c0.3-0.1,0.7-0.1,1.1,0l45,18c0.5,0.2,0.9,0.7,0.9,1.3c2.9,40.9-9.7,63.3-20.8,74.9
			c-12.1,12.7-24.8,15.5-25.4,15.6C640,373.8,639.9,373.8,639.8,373.8z M594.9,283.3c-0.7,3.7-3.1,19.6,0.2,37
			c5,26.1,20.1,43.1,44.7,50.5c2.1-0.5,13.2-3.9,23.6-14.8c15.1-15.8,22-40.6,19.9-71.5L639.8,267L594.9,283.3z"/>
	</g>
	<g>
		<polyline class="st5" points="618.8,315.5 626.6,328.3 658.4,306.8 		"/>
		<path class="st1" d="M626.6,330.3c-0.1,0-0.3,0-0.4,0c-0.5-0.1-1-0.4-1.3-0.9l-7.8-12.7c-0.6-0.9-0.3-2.2,0.7-2.8
			c0.9-0.6,2.2-0.3,2.8,0.7l6.7,11l30.1-20.3c0.9-0.6,2.2-0.4,2.8,0.5c0.6,0.9,0.4,2.2-0.5,2.8l-31.8,21.5
			C627.4,330.2,627,330.3,626.6,330.3z"/>
	</g>
</g>
</svg>
