<?xml version="1.0" encoding="utf-8"?>
<!-- Generator: Adobe Illustrator 21.1.0, SVG Export Plug-In . SVG Version: 6.00 Build 0)  -->
<svg version="1.1" id="Layer_1" xmlns="http://www.w3.org/2000/svg" xmlns:xlink="http://www.w3.org/1999/xlink" x="0px" y="0px"
	 width="900px" height="724.8px" viewBox="0 0 900 724.8" style="enable-background:new 0 0 900 724.8;" xml:space="preserve">
<style type="text/css">
	.st0{fill:#404751;}
	.st1{opacity:5.000000e-02;}
	.st2{fill:#FFFFFF;}
	.st3{fill:#41ACE1;}
	.st4{fill:#D75352;}
</style>
<g>
	<g>
		<path class="st0" d="M692.3,524.8H139.9c-0.8,0-1.5-0.7-1.5-1.5s0.7-1.5,1.5-1.5h552.3c0.8,0,1.5,0.7,1.5,1.5
			S693.1,524.8,692.3,524.8z"/>
	</g>
	<g>
		<path class="st0" d="M731.2,524.8h-21.6c-0.8,0-1.5-0.7-1.5-1.5s0.7-1.5,1.5-1.5h21.6c0.8,0,1.5,0.7,1.5,1.5
			S732,524.8,731.2,524.8z"/>
	</g>
	<g class="st1">
		<path d="M112,535.8c6,10.9,18.3,17.3,74.7,25.9c55.7,9.2,151.4,23.6,255.5,21.3c107-1.3,190.6-2.5,250.4-13.1
			c62.7-11,91.2-25.4,95.5-33.8c1.1-8.8-14.6-12.7-73-21c-57-7.9-157.6-26.8-274-26.5c-117.8,0.6-212.4,3.1-265.6,12.1
			C119,510.6,110.2,525.2,112,535.8z"/>
	</g>
	<g>
		<g>
			<rect x="184.3" y="440.4" class="st2" width="221" height="83.2"/>
			<path class="st0" d="M405.3,525.1h-221c-0.8,0-1.5-0.7-1.5-1.5v-83.2c0-0.8,0.7-1.5,1.5-1.5h221c0.8,0,1.5,0.7,1.5,1.5v83.2
				C406.8,524.4,406.1,525.1,405.3,525.1z M185.8,522.1h218v-80.2h-218V522.1z"/>
		</g>
		<g>
			<rect x="197.6" y="476" class="st2" width="11.6" height="11.6"/>
			<path class="st0" d="M209.2,489.1h-11.6c-0.8,0-1.5-0.7-1.5-1.5V476c0-0.8,0.7-1.5,1.5-1.5h11.6c0.8,0,1.5,0.7,1.5,1.5v11.6
				C210.7,488.4,210,489.1,209.2,489.1z M199.1,486.1h8.6v-8.6h-8.6V486.1z"/>
		</g>
		<g>
			<rect x="286" y="476" class="st2" width="11.6" height="11.6"/>
			<path class="st0" d="M297.6,489.1H286c-0.8,0-1.5-0.7-1.5-1.5V476c0-0.8,0.7-1.5,1.5-1.5h11.6c0.8,0,1.5,0.7,1.5,1.5v11.6
				C299.1,488.4,298.4,489.1,297.6,489.1z M287.5,486.1h8.6v-8.6h-8.6V486.1z"/>
		</g>
		<g>
			<path class="st0" d="M363.4,503.8h-54.7c-0.8,0-1.5-0.7-1.5-1.5v-40c0-0.8,0.7-1.5,1.5-1.5h54.7c0.8,0,1.5,0.7,1.5,1.5v40
				C364.9,503.2,364.2,503.8,363.4,503.8z M310.2,500.8h51.7v-37h-51.7V500.8z"/>
		</g>
		<g>
			<path class="st0" d="M275,503.8h-54.7c-0.8,0-1.5-0.7-1.5-1.5v-40c0-0.8,0.7-1.5,1.5-1.5H275c0.8,0,1.5,0.7,1.5,1.5v40
				C276.5,503.2,275.8,503.8,275,503.8z M221.7,500.8h51.7v-37h-51.7V500.8z"/>
		</g>
		<g>
			<rect x="374.4" y="476.2" class="st2" width="11.6" height="11.6"/>
			<path class="st0" d="M386,489.3h-11.6c-0.8,0-1.5-0.7-1.5-1.5v-11.6c0-0.8,0.7-1.5,1.5-1.5H386c0.8,0,1.5,0.7,1.5,1.5v11.6
				C387.5,488.6,386.8,489.3,386,489.3z M375.9,486.3h8.6v-8.6h-8.6V486.3z"/>
		</g>
		<g>
			<path class="st0" d="M273.4,483.8h-52.6c-0.8,0-1.5-0.7-1.5-1.5s0.7-1.5,1.5-1.5h52.6c0.8,0,1.5,0.7,1.5,1.5
				S274.2,483.8,273.4,483.8z"/>
		</g>
		<g>
			<path class="st0" d="M362.9,483.8h-52.6c-0.8,0-1.5-0.7-1.5-1.5s0.7-1.5,1.5-1.5h52.6c0.8,0,1.5,0.7,1.5,1.5
				S363.7,483.8,362.9,483.8z"/>
		</g>
	</g>
	<g>
		<rect x="183.7" y="389.8" class="st3" width="222.1" height="40.4"/>
		<path class="st0" d="M405.8,431.7H183.7c-0.8,0-1.5-0.7-1.5-1.5v-40.4c0-0.8,0.7-1.5,1.5-1.5h222.1c0.8,0,1.5,0.7,1.5,1.5v40.4
			C407.3,431,406.7,431.7,405.8,431.7z M185.2,428.7h219.1v-37.4H185.2V428.7z"/>
	</g>
	<g>
		<rect x="183.7" y="352.3" class="st4" width="222.1" height="28.4"/>
		<path class="st0" d="M405.8,382.2H183.7c-0.8,0-1.5-0.7-1.5-1.5v-28.4c0-0.8,0.7-1.5,1.5-1.5h222.1c0.8,0,1.5,0.7,1.5,1.5v28.4
			C407.3,381.5,406.7,382.2,405.8,382.2z M185.2,379.2h219.1v-25.4H185.2V379.2z"/>
	</g>
	<g>
		<g>
			<rect x="443.5" y="440.4" class="st2" width="221" height="83.2"/>
			<path class="st0" d="M664.5,525.1h-221c-0.8,0-1.5-0.7-1.5-1.5v-83.2c0-0.8,0.7-1.5,1.5-1.5h221c0.8,0,1.5,0.7,1.5,1.5v83.2
				C666,524.4,665.4,525.1,664.5,525.1z M445,522.1h218v-80.2H445V522.1z"/>
		</g>
		<g>
			<rect x="457.2" y="476" class="st2" width="11.6" height="11.6"/>
			<path class="st0" d="M468.8,489.1h-11.6c-0.8,0-1.5-0.7-1.5-1.5V476c0-0.8,0.7-1.5,1.5-1.5h11.6c0.8,0,1.5,0.7,1.5,1.5v11.6
				C470.3,488.4,469.6,489.1,468.8,489.1z M458.7,486.1h8.6v-8.6h-8.6V486.1z"/>
		</g>
		<g>
			<rect x="545.6" y="476" class="st2" width="11.6" height="11.6"/>
			<path class="st0" d="M557.2,489.1h-11.6c-0.8,0-1.5-0.7-1.5-1.5V476c0-0.8,0.7-1.5,1.5-1.5h11.6c0.8,0,1.5,0.7,1.5,1.5v11.6
				C558.7,488.4,558,489.1,557.2,489.1z M547.1,486.1h8.6v-8.6h-8.6V486.1z"/>
		</g>
		<g>
			<path class="st0" d="M623,503.8h-54.7c-0.8,0-1.5-0.7-1.5-1.5v-40c0-0.8,0.7-1.5,1.5-1.5H623c0.8,0,1.5,0.7,1.5,1.5v40
				C624.5,503.2,623.8,503.8,623,503.8z M569.7,500.8h51.7v-37h-51.7V500.8z"/>
		</g>
		<g>
			<path class="st0" d="M534.6,503.8h-54.7c-0.8,0-1.5-0.7-1.5-1.5v-40c0-0.8,0.7-1.5,1.5-1.5h54.7c0.8,0,1.5,0.7,1.5,1.5v40
				C536.1,503.2,535.4,503.8,534.6,503.8z M481.3,500.8h51.7v-37h-51.7V500.8z"/>
		</g>
		<g>
			<rect x="634" y="476.2" class="st2" width="11.6" height="11.6"/>
			<path class="st0" d="M645.6,489.3H634c-0.8,0-1.5-0.7-1.5-1.5v-11.6c0-0.8,0.7-1.5,1.5-1.5h11.6c0.8,0,1.5,0.7,1.5,1.5v11.6
				C647.1,488.6,646.4,489.3,645.6,489.3z M635.5,486.3h8.6v-8.6h-8.6V486.3z"/>
		</g>
		<g>
			<path class="st0" d="M533,483.8h-52.6c-0.8,0-1.5-0.7-1.5-1.5s0.7-1.5,1.5-1.5H533c0.8,0,1.5,0.7,1.5,1.5S533.8,483.8,533,483.8z
				"/>
		</g>
		<g>
			<path class="st0" d="M622.4,483.8h-52.6c-0.8,0-1.5-0.7-1.5-1.5s0.7-1.5,1.5-1.5h52.6c0.8,0,1.5,0.7,1.5,1.5
				S623.3,483.8,622.4,483.8z"/>
		</g>
	</g>
	<g>
		<rect x="443.5" y="389.8" class="st3" width="222.1" height="40.4"/>
		<path class="st0" d="M665.6,431.7H443.5c-0.8,0-1.5-0.7-1.5-1.5v-40.4c0-0.8,0.7-1.5,1.5-1.5h222.1c0.8,0,1.5,0.7,1.5,1.5v40.4
			C667.1,431,666.4,431.7,665.6,431.7z M445,428.7h219.1v-37.4H445V428.7z"/>
	</g>
	<g>
		<rect x="443.5" y="352.3" class="st4" width="222.1" height="28.4"/>
		<path class="st0" d="M665.6,382.2H443.5c-0.8,0-1.5-0.7-1.5-1.5v-28.4c0-0.8,0.7-1.5,1.5-1.5h222.1c0.8,0,1.5,0.7,1.5,1.5v28.4
			C667.1,381.5,666.4,382.2,665.6,382.2z M445,379.2h219.1v-25.4H445V379.2z"/>
	</g>
	<g>
		<g>
			<rect x="184.3" y="231.3" class="st2" width="221" height="83.2"/>
			<path class="st0" d="M405.3,316h-221c-0.8,0-1.5-0.7-1.5-1.5v-83.2c0-0.8,0.7-1.5,1.5-1.5h221c0.8,0,1.5,0.7,1.5,1.5v83.2
				C406.8,315.3,406.1,316,405.3,316z M185.8,313h218v-80.2h-218V313z"/>
		</g>
		<g>
			<rect x="197.6" y="266.9" class="st2" width="11.6" height="11.6"/>
			<path class="st0" d="M209.2,280h-11.6c-0.8,0-1.5-0.7-1.5-1.5v-11.6c0-0.8,0.7-1.5,1.5-1.5h11.6c0.8,0,1.5,0.7,1.5,1.5v11.6
				C210.7,279.3,210,280,209.2,280z M199.1,277h8.6v-8.6h-8.6V277z"/>
		</g>
		<g>
			<rect x="286" y="266.9" class="st2" width="11.6" height="11.6"/>
			<path class="st0" d="M297.6,280H286c-0.8,0-1.5-0.7-1.5-1.5v-11.6c0-0.8,0.7-1.5,1.5-1.5h11.6c0.8,0,1.5,0.7,1.5,1.5v11.6
				C299.1,279.3,298.4,280,297.6,280z M287.5,277h8.6v-8.6h-8.6V277z"/>
		</g>
		<g>
			<path class="st0" d="M363.4,294.7h-54.7c-0.8,0-1.5-0.7-1.5-1.5v-40c0-0.8,0.7-1.5,1.5-1.5h54.7c0.8,0,1.5,0.7,1.5,1.5v40
				C364.9,294,364.2,294.7,363.4,294.7z M310.2,291.7h51.7v-37h-51.7V291.7z"/>
		</g>
		<g>
			<path class="st0" d="M275,294.7h-54.7c-0.8,0-1.5-0.7-1.5-1.5v-40c0-0.8,0.7-1.5,1.5-1.5H275c0.8,0,1.5,0.7,1.5,1.5v40
				C276.5,294,275.8,294.7,275,294.7z M221.7,291.7h51.7v-37h-51.7V291.7z"/>
		</g>
		<g>
			<rect x="374.4" y="267.1" class="st2" width="11.6" height="11.6"/>
			<path class="st0" d="M386,280.2h-11.6c-0.8,0-1.5-0.7-1.5-1.5v-11.6c0-0.8,0.7-1.5,1.5-1.5H386c0.8,0,1.5,0.7,1.5,1.5v11.6
				C387.5,279.5,386.8,280.2,386,280.2z M375.9,277.2h8.6v-8.6h-8.6V277.2z"/>
		</g>
		<g>
			<path class="st0" d="M273.4,274.7h-52.6c-0.8,0-1.5-0.7-1.5-1.5s0.7-1.5,1.5-1.5h52.6c0.8,0,1.5,0.7,1.5,1.5
				S274.2,274.7,273.4,274.7z"/>
		</g>
		<g>
			<path class="st0" d="M362.9,274.7h-52.6c-0.8,0-1.5-0.7-1.5-1.5s0.7-1.5,1.5-1.5h52.6c0.8,0,1.5,0.7,1.5,1.5
				S363.7,274.7,362.9,274.7z"/>
		</g>
	</g>
	<g>
		<rect x="183.7" y="180.7" class="st3" width="222.1" height="40.4"/>
		<path class="st0" d="M405.8,222.6H183.7c-0.8,0-1.5-0.7-1.5-1.5v-40.4c0-0.8,0.7-1.5,1.5-1.5h222.1c0.8,0,1.5,0.7,1.5,1.5v40.4
			C407.3,221.9,406.7,222.6,405.8,222.6z M185.2,219.6h219.1v-37.4H185.2V219.6z"/>
	</g>
	<g>
		<rect x="183.7" y="143.1" class="st4" width="222.1" height="28.4"/>
		<path class="st0" d="M405.8,173.1H183.7c-0.8,0-1.5-0.7-1.5-1.5v-28.4c0-0.8,0.7-1.5,1.5-1.5h222.1c0.8,0,1.5,0.7,1.5,1.5v28.4
			C407.3,172.4,406.7,173.1,405.8,173.1z M185.2,170.1h219.1v-25.4H185.2V170.1z"/>
	</g>
	<g>
		<g>
			<rect x="443.5" y="231.3" class="st2" width="221" height="83.2"/>
			<path class="st0" d="M664.5,316h-221c-0.8,0-1.5-0.7-1.5-1.5v-83.2c0-0.8,0.7-1.5,1.5-1.5h221c0.8,0,1.5,0.7,1.5,1.5v83.2
				C666,315.3,665.4,316,664.5,316z M445,313h218v-80.2H445V313z"/>
		</g>
		<g>
			<rect x="457.2" y="266.9" class="st2" width="11.6" height="11.6"/>
			<path class="st0" d="M468.8,280h-11.6c-0.8,0-1.5-0.7-1.5-1.5v-11.6c0-0.8,0.7-1.5,1.5-1.5h11.6c0.8,0,1.5,0.7,1.5,1.5v11.6
				C470.3,279.3,469.6,280,468.8,280z M458.7,277h8.6v-8.6h-8.6V277z"/>
		</g>
		<g>
			<rect x="545.6" y="266.9" class="st2" width="11.6" height="11.6"/>
			<path class="st0" d="M557.2,280h-11.6c-0.8,0-1.5-0.7-1.5-1.5v-11.6c0-0.8,0.7-1.5,1.5-1.5h11.6c0.8,0,1.5,0.7,1.5,1.5v11.6
				C558.7,279.3,558,280,557.2,280z M547.1,277h8.6v-8.6h-8.6V277z"/>
		</g>
		<g>
			<path class="st0" d="M623,294.7h-54.7c-0.8,0-1.5-0.7-1.5-1.5v-40c0-0.8,0.7-1.5,1.5-1.5H623c0.8,0,1.5,0.7,1.5,1.5v40
				C624.5,294,623.8,294.7,623,294.7z M569.7,291.7h51.7v-37h-51.7V291.7z"/>
		</g>
		<g>
			<path class="st0" d="M534.6,294.7h-54.7c-0.8,0-1.5-0.7-1.5-1.5v-40c0-0.8,0.7-1.5,1.5-1.5h54.7c0.8,0,1.5,0.7,1.5,1.5v40
				C536.1,294,535.4,294.7,534.6,294.7z M481.3,291.7h51.7v-37h-51.7V291.7z"/>
		</g>
		<g>
			<rect x="634" y="267.1" class="st2" width="11.6" height="11.6"/>
			<path class="st0" d="M645.6,280.2H634c-0.8,0-1.5-0.7-1.5-1.5v-11.6c0-0.8,0.7-1.5,1.5-1.5h11.6c0.8,0,1.5,0.7,1.5,1.5v11.6
				C647.1,279.5,646.4,280.2,645.6,280.2z M635.5,277.2h8.6v-8.6h-8.6V277.2z"/>
		</g>
		<g>
			<path class="st0" d="M533,274.7h-52.6c-0.8,0-1.5-0.7-1.5-1.5s0.7-1.5,1.5-1.5H533c0.8,0,1.5,0.7,1.5,1.5S533.8,274.7,533,274.7z
				"/>
		</g>
		<g>
			<path class="st0" d="M622.4,274.7h-52.6c-0.8,0-1.5-0.7-1.5-1.5s0.7-1.5,1.5-1.5h52.6c0.8,0,1.5,0.7,1.5,1.5
				S623.3,274.7,622.4,274.7z"/>
		</g>
	</g>
	<g>
		<rect x="443.5" y="180.7" class="st3" width="222.1" height="40.4"/>
		<path class="st0" d="M665.6,222.6H443.5c-0.8,0-1.5-0.7-1.5-1.5v-40.4c0-0.8,0.7-1.5,1.5-1.5h222.1c0.8,0,1.5,0.7,1.5,1.5v40.4
			C667.1,221.9,666.4,222.6,665.6,222.6z M445,219.6h219.1v-37.4H445V219.6z"/>
	</g>
	<g>
		<rect x="443.5" y="143.1" class="st4" width="222.1" height="28.4"/>
		<path class="st0" d="M665.6,173.1H443.5c-0.8,0-1.5-0.7-1.5-1.5v-28.4c0-0.8,0.7-1.5,1.5-1.5h222.1c0.8,0,1.5,0.7,1.5,1.5v28.4
			C667.1,172.4,666.4,173.1,665.6,173.1z M445,170.1h219.1v-25.4H445V170.1z"/>
	</g>
</g>
</svg>
