<?xml version="1.0" encoding="utf-8"?>
<!-- Generator: Adobe Illustrator 21.1.0, SVG Export Plug-In . SVG Version: 6.00 Build 0)  -->
<svg version="1.1" id="Layer_1" xmlns="http://www.w3.org/2000/svg" xmlns:xlink="http://www.w3.org/1999/xlink" x="0px" y="0px"
	 width="850px" height="605px" viewBox="0 0 850 605" enable-background="new 0 0 850 605" xml:space="preserve">
<g>
	<g>
		<g>
			<ellipse fill="#4EC68D" cx="286.7" cy="399.6" rx="28.7" ry="51.6"/>
		</g>
		<g>
			<path fill="#404751" d="M286.5,473.9c-0.6,0-1-0.4-1-1v-56.2c0-0.6,0.4-1,1-1s1,0.4,1,1v56.2C287.5,473.4,287,473.9,286.5,473.9z
				"/>
		</g>
		<g>
			<path fill="#404751" d="M286.5,438.5c-0.2,0-0.4-0.1-0.6-0.2l-11.9-9c-0.4-0.3-0.5-1-0.2-1.4c0.3-0.4,1-0.5,1.4-0.2l11.9,9
				c0.4,0.3,0.5,1,0.2,1.4C287.1,438.3,286.8,438.5,286.5,438.5z"/>
		</g>
		<g>
			<path fill="#404751" d="M286.7,446.3c-0.3,0-0.5-0.1-0.7-0.3c-0.4-0.4-0.3-1,0.1-1.4l7.4-6.6c0.4-0.4,1-0.3,1.4,0.1
				c0.4,0.4,0.3,1-0.1,1.4l-7.4,6.6C287.2,446.2,286.9,446.3,286.7,446.3z"/>
		</g>
		<g>
			<path fill="#404751" d="M287.9,429.5c-0.2,0-0.5-0.1-0.6-0.2c-0.4-0.4-0.5-1-0.1-1.4l9.8-11.8c0.4-0.4,1-0.5,1.4-0.1
				c0.4,0.4,0.5,1,0.1,1.4l-9.8,11.8C288.5,429.4,288.2,429.5,287.9,429.5z"/>
		</g>
	</g>
	<g>
		<g>
			<path fill="#3FA9F5" d="M164.7,325.5c-2.9,0-5.3-2.4-5.3-5.3s2.4-5.3,5.3-5.3s5.3,2.4,5.3,5.3S167.6,325.5,164.7,325.5z
				 M164.7,317.8c-1.3,0-2.3,1-2.3,2.3s1,2.3,2.3,2.3s2.3-1,2.3-2.3S166,317.8,164.7,317.8z"/>
		</g>
		<g>
			<path fill="#3FA9F5" d="M156,312.6c-0.3,0-0.6-0.1-0.9-0.3c-0.7-0.5-0.8-1.4-0.3-2.1c0.1-0.2,3.4-4.2,9.7-4.2c6,0,9.8,4,10,4.1
				c0.6,0.6,0.5,1.6-0.1,2.1c-0.6,0.6-1.5,0.5-2.1-0.1c0,0-3.1-3.2-7.8-3.2c-4.9,0-7.3,3-7.3,3.1C156.9,312.4,156.5,312.6,156,312.6
				z"/>
		</g>
		<g>
			<path fill="#3FA9F5" d="M151.1,304.8c-0.3,0-0.6-0.1-0.9-0.3c-0.7-0.5-0.8-1.5-0.3-2.1c0.2-0.3,4.9-6.2,14.3-6.2
				c9,0,14.6,5.9,14.8,6.1c0.6,0.6,0.5,1.6-0.1,2.1c-0.6,0.6-1.5,0.5-2.1-0.1l0,0c0-0.1-5-5.2-12.6-5.2c-7.9,0-11.9,5-11.9,5.1
				C152,304.6,151.5,304.8,151.1,304.8z"/>
		</g>
		<g>
			<path fill="#3FA9F5" d="M146.3,297.2c-0.3,0-0.6-0.1-0.9-0.3c-0.7-0.5-0.8-1.5-0.3-2.1c0.3-0.3,6.6-8.3,19.2-8.3
				c12,0,19.6,7.9,19.9,8.2c0.6,0.6,0.5,1.6-0.1,2.1c-0.6,0.6-1.6,0.5-2.1-0.1c-0.1-0.1-7-7.3-17.7-7.3c-11.1,0-16.8,7.1-16.8,7.2
				C147.2,297,146.8,297.2,146.3,297.2z"/>
		</g>
	</g>
	<g>
		<g>
			<path fill="#3FA9F5" d="M788.7,325.5c-2.9,0-5.3-2.4-5.3-5.3s2.4-5.3,5.3-5.3s5.3,2.4,5.3,5.3S791.6,325.5,788.7,325.5z
				 M788.7,317.8c-1.3,0-2.3,1-2.3,2.3s1,2.3,2.3,2.3s2.3-1,2.3-2.3S790,317.8,788.7,317.8z"/>
		</g>
		<g>
			<path fill="#3FA9F5" d="M780,312.6c-0.3,0-0.6-0.1-0.9-0.3c-0.7-0.5-0.8-1.4-0.3-2.1c0.1-0.2,3.4-4.2,9.7-4.2c6,0,9.8,4,10,4.1
				c0.6,0.6,0.5,1.6-0.1,2.1c-0.6,0.6-1.5,0.5-2.1-0.1c0,0-3.1-3.2-7.8-3.2c-4.9,0-7.3,3-7.3,3.1C780.9,312.4,780.5,312.6,780,312.6
				z"/>
		</g>
		<g>
			<path fill="#3FA9F5" d="M775.1,304.8c-0.3,0-0.6-0.1-0.9-0.3c-0.7-0.5-0.8-1.5-0.3-2.1c0.2-0.3,4.9-6.2,14.3-6.2
				c9,0,14.6,5.9,14.8,6.1c0.6,0.6,0.5,1.6-0.1,2.1c-0.6,0.6-1.6,0.5-2.1-0.1l0,0c0-0.1-5-5.2-12.6-5.2c-7.9,0-11.9,5-11.9,5.1
				C776,304.6,775.5,304.8,775.1,304.8z"/>
		</g>
		<g>
			<path fill="#3FA9F5" d="M770.3,297.2c-0.3,0-0.6-0.1-0.9-0.3c-0.7-0.5-0.8-1.5-0.3-2.1c0.3-0.3,6.6-8.3,19.2-8.3
				c12,0,19.6,7.9,19.9,8.2c0.6,0.6,0.5,1.6-0.1,2.1c-0.6,0.6-1.6,0.5-2.1-0.1c-0.1-0.1-7-7.3-17.7-7.3c-11.1,0-16.8,7.1-16.8,7.2
				C771.2,297,770.8,297.2,770.3,297.2z"/>
		</g>
	</g>
	<g>
		<polygon fill="#FFFFFF" points="427,473.5 339.5,473.5 339.5,304.5 427,276.2 		"/>
		<path fill="#404751" d="M427,475h-87.5c-0.8,0-1.5-0.7-1.5-1.5v-169c0-0.7,0.4-1.2,1-1.4l87.5-28.3c0.5-0.1,1-0.1,1.3,0.2
			c0.4,0.3,0.6,0.7,0.6,1.2v197.3C428.5,474.3,427.8,475,427,475z M341,472h84.5V278.3L341,305.6V472z"/>
	</g>
	<g>
		<rect x="528.5" y="171.5" fill="#FFFFFF" width="151" height="302"/>
		<path fill="#404751" d="M679.5,475h-151c-0.8,0-1.5-0.7-1.5-1.5v-302c0-0.8,0.7-1.5,1.5-1.5h151c0.8,0,1.5,0.7,1.5,1.5v302
			C681,474.3,680.3,475,679.5,475z M530,472h148V173H530V472z"/>
	</g>
	<g>
		<path fill="#404751" d="M373.8,334.3h-18.9c-0.8,0-1.5-0.7-1.5-1.5v-11.2c0-0.8,0.7-1.5,1.5-1.5h18.9c0.8,0,1.5,0.7,1.5,1.5v11.2
			C375.3,333.6,374.6,334.3,373.8,334.3z M356.4,331.3h15.9v-8.2h-15.9V331.3z"/>
	</g>
	<g>
		<rect x="388.4" y="321.7" fill="#D75352" width="18.9" height="11.2"/>
		<path fill="#404751" d="M407.3,334.3h-18.9c-0.8,0-1.5-0.7-1.5-1.5v-11.2c0-0.8,0.7-1.5,1.5-1.5h18.9c0.8,0,1.5,0.7,1.5,1.5v11.2
			C408.8,333.6,408.1,334.3,407.3,334.3z M389.9,331.3h15.9v-8.2h-15.9V331.3z"/>
	</g>
	<g>
		<path fill="#404751" d="M373.8,359.2h-18.9c-0.8,0-1.5-0.7-1.5-1.5v-11.2c0-0.8,0.7-1.5,1.5-1.5h18.9c0.8,0,1.5,0.7,1.5,1.5v11.2
			C375.3,358.5,374.6,359.2,373.8,359.2z M356.4,356.2h15.9V348h-15.9V356.2z"/>
	</g>
	<g>
		<path fill="#404751" d="M407.3,359.2h-18.9c-0.8,0-1.5-0.7-1.5-1.5v-11.2c0-0.8,0.7-1.5,1.5-1.5h18.9c0.8,0,1.5,0.7,1.5,1.5v11.2
			C408.8,358.5,408.1,359.2,407.3,359.2z M389.9,356.2h15.9V348h-15.9V356.2z"/>
	</g>
	<g>
		<rect x="354.9" y="371.4" fill="#41ACE1" width="18.9" height="11.2"/>
		<path fill="#404751" d="M373.8,384.1h-18.9c-0.8,0-1.5-0.7-1.5-1.5v-11.2c0-0.8,0.7-1.5,1.5-1.5h18.9c0.8,0,1.5,0.7,1.5,1.5v11.2
			C375.3,383.4,374.6,384.1,373.8,384.1z M356.4,381.1h15.9v-8.2h-15.9V381.1z"/>
	</g>
	<g>
		<path fill="#404751" d="M407.3,384.1h-18.9c-0.8,0-1.5-0.7-1.5-1.5v-11.2c0-0.8,0.7-1.5,1.5-1.5h18.9c0.8,0,1.5,0.7,1.5,1.5v11.2
			C408.8,383.4,408.1,384.1,407.3,384.1z M389.9,381.1h15.9v-8.2h-15.9V381.1z"/>
	</g>
	<g>
		<path fill="#404751" d="M373.8,408.9h-18.9c-0.8,0-1.5-0.7-1.5-1.5v-11.2c0-0.8,0.7-1.5,1.5-1.5h18.9c0.8,0,1.5,0.7,1.5,1.5v11.2
			C375.3,408.3,374.6,408.9,373.8,408.9z M356.4,405.9h15.9v-8.2h-15.9V405.9z"/>
	</g>
	<g>
		<rect x="388.4" y="396.3" fill="#E6BC45" width="18.9" height="11.2"/>
		<path fill="#404751" d="M407.3,408.9h-18.9c-0.8,0-1.5-0.7-1.5-1.5v-11.2c0-0.8,0.7-1.5,1.5-1.5h18.9c0.8,0,1.5,0.7,1.5,1.5v11.2
			C408.8,408.3,408.1,408.9,407.3,408.9z M389.9,405.9h15.9v-8.2h-15.9V405.9z"/>
	</g>
	<g>
		<g opacity="5.000000e-02">
			<g>
				<path d="M800,511.7c-25.8,13.7-48.9,27.4-111.8,37.3c-30,4.8-72.6,8.2-117.5,9.5c-45.4,1.4-93.2,0.7-144.3-1.1
					c-51-1.7-101.8-4.4-150.5-8.1c-48.3-3.7-94.5-8.3-127.6-12.8C79.1,527.3,53,519.9,33,513.3c-14.4-6.7-28.5-13.8,29.7-23
					c55.5-9.2,201.9-18,369.8-22.8c167.3-5.7,312.7-4.8,362,5.7C846.4,483.4,819.6,498.1,800,511.7z"/>
			</g>
		</g>
		<g>
			<path fill="#404751" d="M736.5,475h-597c-0.8,0-1.5-0.7-1.5-1.5s0.7-1.5,1.5-1.5h597c0.8,0,1.5,0.7,1.5,1.5S737.3,475,736.5,475z
				"/>
		</g>
		<g>
			<path fill="#404751" d="M126.5,475h-34c-0.8,0-1.5-0.7-1.5-1.5s0.7-1.5,1.5-1.5h34c0.8,0,1.5,0.7,1.5,1.5S127.3,475,126.5,475z"
				/>
		</g>
		<g>
			<path fill="#404751" d="M78.5,475h-17c-0.8,0-1.5-0.7-1.5-1.5s0.7-1.5,1.5-1.5h17c0.8,0,1.5,0.7,1.5,1.5S79.3,475,78.5,475z"/>
		</g>
		<g>
			<path fill="#404751" d="M800.5,475h-46c-0.8,0-1.5-0.7-1.5-1.5s0.7-1.5,1.5-1.5h46c0.8,0,1.5,0.7,1.5,1.5S801.3,475,800.5,475z"
				/>
		</g>
	</g>
	<g>
		<path fill="#404751" d="M392.7,474.1h-24c-0.8,0-1.5-0.7-1.5-1.5v-36c0-0.8,0.7-1.5,1.5-1.5h24c0.8,0,1.5,0.7,1.5,1.5v36
			C394.2,473.5,393.5,474.1,392.7,474.1z M370.2,471.1h21v-33h-21V471.1z"/>
	</g>
	<g>
		<rect x="551.5" y="202.5" fill="#D75352" width="106" height="12"/>
		<path fill="#404751" d="M657.5,216h-106c-0.8,0-1.5-0.7-1.5-1.5v-12c0-0.8,0.7-1.5,1.5-1.5h106c0.8,0,1.5,0.7,1.5,1.5v12
			C659,215.3,658.3,216,657.5,216z M553,213h103v-9H553V213z"/>
	</g>
	<g>
		<rect x="551.5" y="237.5" fill="#41ACE1" width="106" height="12"/>
		<path fill="#404751" d="M657.5,251h-106c-0.8,0-1.5-0.7-1.5-1.5v-12c0-0.8,0.7-1.5,1.5-1.5h106c0.8,0,1.5,0.7,1.5,1.5v12
			C659,250.3,658.3,251,657.5,251z M553,248h103v-9H553V248z"/>
	</g>
	<g>
		<rect x="551.5" y="272.5" fill="#FFFFFF" width="106" height="12"/>
		<path fill="#404751" d="M657.5,286h-106c-0.8,0-1.5-0.7-1.5-1.5v-12c0-0.8,0.7-1.5,1.5-1.5h106c0.8,0,1.5,0.7,1.5,1.5v12
			C659,285.3,658.3,286,657.5,286z M553,283h103v-9H553V283z"/>
	</g>
	<g>
		<rect x="551.5" y="307.5" fill="#E6BC45" width="106" height="12"/>
		<path fill="#404751" d="M657.5,321h-106c-0.8,0-1.5-0.7-1.5-1.5v-12c0-0.8,0.7-1.5,1.5-1.5h106c0.8,0,1.5,0.7,1.5,1.5v12
			C659,320.3,658.3,321,657.5,321z M553,318h103v-9H553V318z"/>
	</g>
	<g>
		<rect x="551.5" y="342.5" fill="#D75352" width="106" height="12"/>
		<path fill="#404751" d="M657.5,356h-106c-0.8,0-1.5-0.7-1.5-1.5v-12c0-0.8,0.7-1.5,1.5-1.5h106c0.8,0,1.5,0.7,1.5,1.5v12
			C659,355.3,658.3,356,657.5,356z M553,353h103v-9H553V353z"/>
	</g>
	<g>
		<rect x="551.5" y="377.5" fill="#41ACE1" width="106" height="12"/>
		<path fill="#404751" d="M657.5,391h-106c-0.8,0-1.5-0.7-1.5-1.5v-12c0-0.8,0.7-1.5,1.5-1.5h106c0.8,0,1.5,0.7,1.5,1.5v12
			C659,390.3,658.3,391,657.5,391z M553,388h103v-9H553V388z"/>
	</g>
	<g>
		<path fill="#404751" d="M816,475c-0.7,0-1.3-0.5-1.5-1.1l-26-106.3L767,473.8c-0.2,0.8-1,1.3-1.8,1.2c-0.8-0.2-1.3-1-1.2-1.8
			l22.9-112.8c0.1-0.7,0.7-1.2,1.4-1.2c0,0,0,0,0,0c0.7,0,1.3,0.5,1.5,1.1l27.6,112.8c0.2,0.8-0.3,1.6-1.1,1.8
			C816.2,475,816.1,475,816,475z"/>
	</g>
	<g>
		<path fill="#404751" d="M788.4,375.6c-0.8,0-1.5-0.7-1.5-1.5v-26.8c0-0.8,0.7-1.5,1.5-1.5s1.5,0.7,1.5,1.5v26.8
			C789.9,374.9,789.2,375.6,788.4,375.6z"/>
	</g>
	<g>
		<circle fill="#41ACE1" cx="788.4" cy="345.7" r="3.9"/>
		<path fill="#404751" d="M788.4,351.1c-3,0-5.4-2.4-5.4-5.4s2.4-5.4,5.4-5.4s5.4,2.4,5.4,5.4S791.4,351.1,788.4,351.1z
			 M788.4,343.2c-1.3,0-2.4,1.1-2.4,2.4s1.1,2.4,2.4,2.4s2.4-1.1,2.4-2.4S789.7,343.2,788.4,343.2z"/>
	</g>
	<g>
		<circle fill="#41ACE1" cx="788.4" cy="370.1" r="10.3"/>
		<path fill="#404751" d="M788.4,381.9c-6.5,0-11.8-5.3-11.8-11.8s5.3-11.8,11.8-11.8s11.8,5.3,11.8,11.8S794.9,381.9,788.4,381.9z
			 M788.4,361.4c-4.8,0-8.8,3.9-8.8,8.8s3.9,8.8,8.8,8.8s8.8-3.9,8.8-8.8S793.2,361.4,788.4,361.4z"/>
	</g>
	<g>
		<path fill="#404751" d="M801.8,418.2c-0.4,0-0.7-0.1-1-0.4L780.2,398c-0.6-0.6-0.6-1.5,0-2.1c0.6-0.6,1.5-0.6,2.1,0l20.5,19.7
			c0.6,0.6,0.6,1.5,0,2.1C802.6,418,802.2,418.2,801.8,418.2z"/>
	</g>
	<g>
		<path fill="#404751" d="M776.5,425.3c-0.3,0-0.6-0.1-0.9-0.3c-0.7-0.5-0.8-1.4-0.3-2.1l20.5-26.8c0.5-0.7,1.4-0.8,2.1-0.3
			c0.7,0.5,0.8,1.4,0.3,2.1l-20.5,26.8C777.4,425.1,777,425.3,776.5,425.3z"/>
	</g>
	<g>
		<path fill="#404751" d="M190,475c-0.7,0-1.3-0.5-1.5-1.1l-26-106.3L141,473.8c-0.2,0.8-1,1.3-1.8,1.2c-0.8-0.2-1.3-1-1.2-1.8
			l22.9-112.8c0.1-0.7,0.7-1.2,1.4-1.2c0,0,0,0,0,0c0.7,0,1.3,0.5,1.5,1.1l27.6,112.8c0.2,0.8-0.3,1.6-1.1,1.8
			C190.2,475,190.1,475,190,475z"/>
	</g>
	<g>
		<path fill="#404751" d="M162.4,375.6c-0.8,0-1.5-0.7-1.5-1.5v-26.8c0-0.8,0.7-1.5,1.5-1.5s1.5,0.7,1.5,1.5v26.8
			C163.9,374.9,163.2,375.6,162.4,375.6z"/>
	</g>
	<g>
		<circle fill="#41ACE1" cx="162.4" cy="345.7" r="3.9"/>
		<path fill="#404751" d="M162.4,351.1c-3,0-5.4-2.4-5.4-5.4s2.4-5.4,5.4-5.4s5.4,2.4,5.4,5.4S165.4,351.1,162.4,351.1z
			 M162.4,343.2c-1.3,0-2.4,1.1-2.4,2.4s1.1,2.4,2.4,2.4s2.4-1.1,2.4-2.4S163.7,343.2,162.4,343.2z"/>
	</g>
	<g>
		<circle fill="#41ACE1" cx="162.4" cy="370.1" r="10.3"/>
		<path fill="#404751" d="M162.4,381.9c-6.5,0-11.8-5.3-11.8-11.8s5.3-11.8,11.8-11.8s11.8,5.3,11.8,11.8S168.9,381.9,162.4,381.9z
			 M162.4,361.4c-4.8,0-8.8,3.9-8.8,8.8s3.9,8.8,8.8,8.8s8.8-3.9,8.8-8.8S167.2,361.4,162.4,361.4z"/>
	</g>
	<g>
		<path fill="#404751" d="M175.8,418.2c-0.4,0-0.7-0.1-1-0.4L154.2,398c-0.6-0.6-0.6-1.5,0-2.1c0.6-0.6,1.5-0.6,2.1,0l20.5,19.7
			c0.6,0.6,0.6,1.5,0,2.1C176.6,418,176.2,418.2,175.8,418.2z"/>
	</g>
	<g>
		<path fill="#404751" d="M150.5,425.3c-0.3,0-0.6-0.1-0.9-0.3c-0.7-0.5-0.8-1.4-0.3-2.1l20.5-26.8c0.5-0.7,1.4-0.8,2.1-0.3
			c0.7,0.5,0.8,1.4,0.3,2.1l-20.5,26.8C151.4,425.1,151,425.3,150.5,425.3z"/>
	</g>
	<g opacity="0.6">
		<path fill="#404751" d="M794.5,265c-0.6,0-1.1-0.3-1.4-0.9l1.3-0.7l1.4-0.6l-1.4,0.6l1.4-0.6c0.4,0.7,0,1.6-0.7,2
			C794.9,265,794.7,265,794.5,265z M165.5,265c-0.2,0-0.4,0-0.6-0.1c-0.8-0.3-1.1-1.2-0.8-2c0,0,0.3-0.7,0.8-1.9
			c0.3-0.8,1.2-1.1,2-0.8c0.8,0.3,1.1,1.2,0.8,2c-0.5,1.2-0.8,1.8-0.8,1.8C166.7,264.6,166.1,265,165.5,265z M791,257.7
			c-0.5,0-1.1-0.3-1.3-0.8c-0.3-0.6-0.6-1.2-0.9-1.8c-0.4-0.7-0.1-1.6,0.7-2c0.7-0.4,1.6-0.1,2,0.7c0.3,0.6,0.6,1.2,0.9,1.8
			c0.4,0.7,0.1,1.6-0.7,2C791.4,257.7,791.2,257.7,791,257.7z M169.7,255.9c-0.2,0-0.5-0.1-0.7-0.2c-0.7-0.4-1-1.3-0.7-2
			c0.3-0.6,0.6-1.2,0.9-1.8c0.4-0.7,1.3-1,2-0.7c0.7,0.4,1,1.3,0.7,2c-0.3,0.6-0.6,1.2-0.9,1.8C170.8,255.6,170.3,255.9,169.7,255.9
			z M786.3,248.9c-0.5,0-1-0.3-1.3-0.8c-0.3-0.6-0.6-1.2-1-1.7c-0.4-0.7-0.1-1.6,0.6-2c0.7-0.4,1.6-0.1,2,0.6c0.3,0.6,0.6,1.2,1,1.8
			c0.4,0.7,0.1,1.6-0.6,2C786.8,248.8,786.6,248.9,786.3,248.9z M174.4,247c-0.2,0-0.5-0.1-0.7-0.2c-0.7-0.4-1-1.3-0.6-2
			c0.3-0.6,0.6-1.2,1-1.8c0.4-0.7,1.3-1,2-0.6c0.7,0.4,1,1.3,0.6,2c-0.3,0.6-0.7,1.2-1,1.7C175.4,246.7,174.9,247,174.4,247z
			 M781.4,240.2c-0.5,0-1-0.3-1.3-0.7c-0.3-0.6-0.7-1.1-1-1.7c-0.4-0.7-0.2-1.6,0.5-2.1c0.7-0.4,1.6-0.2,2.1,0.5
			c0.3,0.6,0.7,1.1,1,1.7c0.4,0.7,0.2,1.6-0.5,2.1C781.9,240.2,781.7,240.2,781.4,240.2z M179.4,238.3c-0.3,0-0.5-0.1-0.8-0.2
			c-0.7-0.4-0.9-1.3-0.5-2.1c0.3-0.6,0.7-1.1,1-1.7c0.4-0.7,1.4-0.9,2.1-0.5c0.7,0.4,0.9,1.4,0.5,2.1c-0.3,0.6-0.7,1.1-1,1.7
			C180.4,238,179.9,238.3,179.4,238.3z M776.2,231.7c-0.5,0-1-0.2-1.3-0.7c-0.4-0.6-0.7-1.1-1.1-1.7c-0.5-0.7-0.3-1.6,0.4-2.1
			c0.7-0.5,1.6-0.3,2.1,0.4c0.4,0.6,0.7,1.1,1.1,1.7c0.4,0.7,0.2,1.6-0.5,2.1C776.8,231.7,776.5,231.7,776.2,231.7z M184.7,229.8
			c-0.3,0-0.6-0.1-0.8-0.2c-0.7-0.4-0.9-1.4-0.5-2.1l1.1-1.7c0.5-0.7,1.4-0.9,2.1-0.4c0.7,0.5,0.9,1.4,0.4,2.1l-1.1,1.7
			C185.6,229.5,185.1,229.8,184.7,229.8z M770.7,223.4c-0.5,0-0.9-0.2-1.2-0.7c-0.4-0.5-0.8-1.1-1.1-1.6c-0.5-0.7-0.3-1.6,0.4-2.1
			c0.7-0.5,1.6-0.3,2.1,0.4c0.4,0.5,0.8,1.1,1.1,1.6c0.5,0.7,0.3,1.6-0.4,2.1C771.3,223.3,771,223.4,770.7,223.4z M190.2,221.4
			c-0.3,0-0.6-0.1-0.8-0.3c-0.7-0.5-0.9-1.4-0.4-2.1c0.4-0.5,0.8-1.1,1.1-1.7c0.5-0.7,1.4-0.8,2.1-0.4c0.7,0.5,0.8,1.4,0.4,2.1
			c-0.4,0.5-0.8,1.1-1.1,1.6C191.1,221.2,190.7,221.4,190.2,221.4z M764.9,215.3c-0.5,0-0.9-0.2-1.2-0.6c-0.4-0.5-0.8-1.1-1.2-1.6
			c-0.5-0.7-0.4-1.6,0.3-2.1c0.7-0.5,1.6-0.4,2.1,0.3c0.4,0.5,0.8,1.1,1.2,1.6c0.5,0.7,0.3,1.6-0.3,2.1
			C765.5,215.2,765.2,215.3,764.9,215.3z M196,213.2c-0.3,0-0.6-0.1-0.9-0.3c-0.7-0.5-0.8-1.4-0.3-2.1c0.4-0.5,0.8-1.1,1.2-1.6
			c0.5-0.7,1.4-0.8,2.1-0.3c0.7,0.5,0.8,1.4,0.3,2.1c-0.4,0.5-0.8,1.1-1.2,1.6C196.9,213,196.4,213.2,196,213.2z M758.8,207.3
			c-0.4,0-0.9-0.2-1.2-0.6c-0.4-0.5-0.8-1-1.2-1.6c-0.5-0.6-0.4-1.6,0.2-2.1c0.6-0.5,1.6-0.4,2.1,0.2c0.4,0.5,0.8,1,1.3,1.6
			c0.5,0.6,0.4,1.6-0.2,2.1C759.5,207.2,759.2,207.3,758.8,207.3z M202,205.3c-0.3,0-0.6-0.1-0.9-0.3c-0.7-0.5-0.8-1.5-0.3-2.1
			l1.2-1.6c0.5-0.7,1.5-0.8,2.1-0.3c0.7,0.5,0.8,1.5,0.3,2.1l-1.2,1.6C202.9,205.1,202.4,205.3,202,205.3z M752.5,199.6
			c-0.4,0-0.8-0.2-1.1-0.5c-0.4-0.5-0.9-1-1.3-1.5c-0.5-0.6-0.5-1.6,0.2-2.1c0.6-0.5,1.6-0.5,2.1,0.2c0.4,0.5,0.9,1,1.3,1.5
			c0.5,0.6,0.5,1.6-0.2,2.1C753.2,199.5,752.8,199.6,752.5,199.6z M208.3,197.4c-0.3,0-0.7-0.1-1-0.3c-0.6-0.5-0.7-1.5-0.2-2.1
			c0.4-0.5,0.9-1,1.3-1.5c0.5-0.6,1.5-0.7,2.1-0.2c0.6,0.5,0.7,1.5,0.2,2.1c-0.4,0.5-0.9,1-1.3,1.5
			C209.1,197.3,208.7,197.4,208.3,197.4z M745.9,192.1c-0.4,0-0.8-0.2-1.1-0.5c-0.4-0.5-0.9-1-1.3-1.5c-0.6-0.6-0.5-1.6,0.1-2.1
			c0.6-0.6,1.6-0.5,2.1,0.1c0.5,0.5,0.9,1,1.4,1.5c0.6,0.6,0.5,1.6-0.1,2.1C746.6,192,746.2,192.1,745.9,192.1z M214.7,189.8
			c-0.4,0-0.7-0.1-1-0.4c-0.6-0.5-0.7-1.5-0.1-2.1c0.4-0.5,0.9-1,1.3-1.5c0.5-0.6,1.5-0.7,2.1-0.1c0.6,0.6,0.7,1.5,0.1,2.1
			c-0.4,0.5-0.9,1-1.3,1.5C215.6,189.7,215.2,189.8,214.7,189.8z M739,184.8c-0.4,0-0.8-0.2-1.1-0.5c-0.5-0.5-0.9-0.9-1.4-1.4
			c-0.6-0.6-0.6-1.5,0-2.1c0.6-0.6,1.5-0.6,2.1,0c0.5,0.5,0.9,1,1.4,1.4c0.6,0.6,0.6,1.5,0,2.1C739.8,184.7,739.4,184.8,739,184.8z
			 M221.5,182.4c-0.4,0-0.7-0.1-1-0.4c-0.6-0.6-0.6-1.5-0.1-2.1l1.4-1.5c0.6-0.6,1.5-0.6,2.1-0.1c0.6,0.6,0.6,1.5,0.1,2.1l-1.4,1.5
			C222.3,182.3,221.9,182.4,221.5,182.4z M731.9,177.8c-0.4,0-0.7-0.1-1-0.4c-0.5-0.5-1-0.9-1.4-1.4c-0.6-0.6-0.6-1.5-0.1-2.1
			c0.6-0.6,1.5-0.6,2.1-0.1c0.5,0.5,1,0.9,1.5,1.4c0.6,0.6,0.6,1.5,0,2.1C732.7,177.6,732.3,177.8,731.9,177.8z M228.4,175.2
			c-0.4,0-0.8-0.1-1.1-0.4c-0.6-0.6-0.6-1.5,0-2.1c0.5-0.5,0.9-0.9,1.4-1.4c0.6-0.6,1.5-0.6,2.1,0c0.6,0.6,0.6,1.5,0,2.1
			c-0.5,0.5-0.9,0.9-1.4,1.4C229.2,175.1,228.8,175.2,228.4,175.2z M724.5,171c-0.4,0-0.7-0.1-1-0.4c-0.5-0.4-1-0.9-1.5-1.3
			c-0.6-0.5-0.7-1.5-0.1-2.1c0.5-0.6,1.5-0.7,2.1-0.1c0.5,0.4,1,0.9,1.5,1.3c0.6,0.6,0.7,1.5,0.1,2.1
			C725.4,170.8,724.9,171,724.5,171z M235.6,168.2c-0.4,0-0.8-0.2-1.1-0.5c-0.6-0.6-0.5-1.6,0.1-2.1c0.5-0.5,1-0.9,1.5-1.4
			c0.6-0.6,1.6-0.5,2.1,0.1c0.6,0.6,0.5,1.6-0.1,2.1c-0.5,0.5-1,0.9-1.4,1.4C236.3,168.1,235.9,168.2,235.6,168.2z M716.9,164.4
			c-0.3,0-0.7-0.1-1-0.3l-1.5-1.3c-0.6-0.5-0.7-1.5-0.2-2.1c0.5-0.6,1.5-0.7,2.1-0.2l1.6,1.3c0.6,0.5,0.7,1.5,0.2,2.1
			C717.8,164.2,717.4,164.4,716.9,164.4z M242.9,161.5c-0.4,0-0.8-0.2-1.1-0.5c-0.6-0.6-0.5-1.6,0.1-2.1l1.5-1.3
			c0.6-0.5,1.6-0.5,2.1,0.1c0.5,0.6,0.5,1.6-0.1,2.1l-1.5,1.3C243.6,161.3,243.3,161.5,242.9,161.5z M709.2,158.1
			c-0.3,0-0.6-0.1-0.9-0.3c-0.5-0.4-1-0.8-1.6-1.2c-0.7-0.5-0.8-1.4-0.3-2.1c0.5-0.7,1.4-0.8,2.1-0.3c0.5,0.4,1.1,0.8,1.6,1.2
			c0.7,0.5,0.8,1.5,0.3,2.1C710,157.9,709.6,158.1,709.2,158.1z M250.5,154.9c-0.4,0-0.9-0.2-1.2-0.5c-0.5-0.6-0.4-1.6,0.2-2.1
			c0.5-0.4,1-0.9,1.5-1.3c0.6-0.5,1.6-0.4,2.1,0.2c0.5,0.6,0.4,1.6-0.2,2.1c-0.5,0.4-1,0.8-1.5,1.3
			C251.2,154.8,250.8,154.9,250.5,154.9z M701.2,152.1c-0.3,0-0.6-0.1-0.9-0.3c-0.5-0.4-1.1-0.8-1.6-1.2c-0.7-0.5-0.8-1.4-0.3-2.1
			c0.5-0.7,1.4-0.8,2.1-0.3c0.5,0.4,1.1,0.8,1.6,1.2c0.7,0.5,0.8,1.4,0.3,2.1C702.1,151.9,701.6,152.1,701.2,152.1z M258.3,148.7
			c-0.4,0-0.9-0.2-1.2-0.6c-0.5-0.7-0.4-1.6,0.3-2.1c0.5-0.4,1.1-0.8,1.6-1.2c0.7-0.5,1.6-0.4,2.1,0.3c0.5,0.7,0.4,1.6-0.3,2.1
			c-0.5,0.4-1.1,0.8-1.6,1.2C258.9,148.6,258.6,148.7,258.3,148.7z M693,146.3c-0.3,0-0.6-0.1-0.8-0.3c-0.5-0.4-1.1-0.7-1.6-1.1
			c-0.7-0.5-0.9-1.4-0.4-2.1c0.5-0.7,1.4-0.9,2.1-0.4c0.6,0.4,1.1,0.8,1.7,1.1c0.7,0.5,0.9,1.4,0.4,2.1
			C694,146.1,693.5,146.3,693,146.3z M266.3,142.6c-0.5,0-0.9-0.2-1.2-0.6c-0.5-0.7-0.3-1.6,0.3-2.1c0.5-0.4,1.1-0.8,1.6-1.2
			c0.7-0.5,1.6-0.3,2.1,0.3c0.5,0.7,0.3,1.6-0.3,2.1c-0.5,0.4-1.1,0.8-1.6,1.2C266.9,142.5,266.6,142.6,266.3,142.6z M684.7,140.8
			c-0.3,0-0.6-0.1-0.8-0.2c-0.6-0.4-1.1-0.7-1.7-1.1c-0.7-0.4-0.9-1.4-0.5-2.1c0.4-0.7,1.4-0.9,2.1-0.5c0.6,0.4,1.1,0.7,1.7,1.1
			c0.7,0.4,0.9,1.4,0.5,2.1C685.6,140.6,685.2,140.8,684.7,140.8z M274.4,136.9c-0.5,0-0.9-0.2-1.2-0.7c-0.5-0.7-0.3-1.6,0.4-2.1
			c0.6-0.4,1.1-0.8,1.7-1.1c0.7-0.5,1.6-0.3,2.1,0.4c0.5,0.7,0.3,1.6-0.4,2.1c-0.6,0.4-1.1,0.7-1.6,1.1
			C275,136.8,274.7,136.9,274.4,136.9z M676.2,135.6c-0.3,0-0.5-0.1-0.8-0.2c-0.6-0.3-1.1-0.7-1.7-1c-0.7-0.4-1-1.3-0.5-2.1
			c0.4-0.7,1.3-1,2.1-0.5c0.6,0.3,1.2,0.7,1.7,1c0.7,0.4,0.9,1.3,0.5,2.1C677.2,135.3,676.7,135.6,676.2,135.6z M282.8,131.3
			c-0.5,0-1-0.2-1.3-0.7c-0.4-0.7-0.2-1.6,0.5-2.1c0.6-0.4,1.1-0.7,1.7-1.1c0.7-0.4,1.6-0.2,2.1,0.5c0.4,0.7,0.2,1.6-0.5,2.1
			c-0.6,0.4-1.1,0.7-1.7,1.1C283.3,131.3,283,131.3,282.8,131.3z M667.5,130.6c-0.2,0-0.5-0.1-0.7-0.2c-0.6-0.3-1.2-0.6-1.7-1
			c-0.7-0.4-1-1.3-0.6-2c0.4-0.7,1.3-1,2-0.6c0.6,0.3,1.2,0.6,1.8,1c0.7,0.4,1,1.3,0.6,2C668.5,130.3,668,130.6,667.5,130.6z
			 M291.3,126.1c-0.5,0-1-0.3-1.3-0.7c-0.4-0.7-0.2-1.6,0.5-2.1c0.6-0.3,1.2-0.7,1.7-1c0.7-0.4,1.6-0.2,2.1,0.5s0.2,1.6-0.5,2.1
			c-0.6,0.3-1.1,0.7-1.7,1C291.8,126,291.6,126.1,291.3,126.1z M658.7,125.9c-0.2,0-0.5-0.1-0.7-0.2c-0.6-0.3-1.2-0.6-1.8-0.9
			c-0.7-0.4-1-1.3-0.7-2s1.3-1,2-0.7c0.6,0.3,1.2,0.6,1.8,0.9c0.7,0.4,1,1.3,0.6,2C659.7,125.6,659.2,125.9,658.7,125.9z
			 M649.7,121.4c-0.2,0-0.4,0-0.6-0.1c-0.6-0.3-1.2-0.6-1.8-0.9c-0.7-0.4-1.1-1.2-0.7-2c0.4-0.7,1.3-1.1,2-0.7
			c0.6,0.3,1.2,0.6,1.8,0.9c0.7,0.4,1.1,1.3,0.7,2C650.8,121.1,650.3,121.4,649.7,121.4z M300,121.2c-0.5,0-1-0.3-1.3-0.8
			c-0.4-0.7-0.1-1.6,0.6-2c0.6-0.3,1.2-0.6,1.8-1c0.7-0.4,1.6-0.1,2,0.6c0.4,0.7,0.1,1.6-0.6,2c-0.6,0.3-1.2,0.6-1.7,1
			C300.5,121.1,300.2,121.2,300,121.2z M640.6,117.2c-0.2,0-0.4,0-0.6-0.1c-0.6-0.3-1.2-0.5-1.8-0.8c-0.8-0.3-1.1-1.2-0.8-2
			c0.3-0.8,1.2-1.1,2-0.8c0.6,0.3,1.2,0.5,1.8,0.8c0.8,0.3,1.1,1.2,0.8,2C641.8,116.9,641.2,117.2,640.6,117.2z M308.8,116.5
			c-0.5,0-1.1-0.3-1.3-0.8c-0.4-0.7-0.1-1.6,0.7-2c0.6-0.3,1.2-0.6,1.8-0.9c0.7-0.4,1.6-0.1,2,0.7c0.4,0.7,0.1,1.6-0.7,2
			c-0.6,0.3-1.2,0.6-1.8,0.9C309.3,116.5,309.1,116.5,308.8,116.5z M631.5,113.3c-0.2,0-0.4,0-0.6-0.1c-0.6-0.3-1.2-0.5-1.8-0.8
			c-0.8-0.3-1.1-1.2-0.8-2c0.3-0.8,1.2-1.1,2-0.8c0.6,0.3,1.2,0.5,1.9,0.8c0.8,0.3,1.1,1.2,0.8,2C632.6,113,632,113.3,631.5,113.3z
			 M317.8,112.1c-0.6,0-1.1-0.3-1.4-0.9c-0.3-0.8,0-1.6,0.7-2c0.6-0.3,1.2-0.6,1.8-0.8c0.8-0.3,1.6,0,2,0.7c0.3,0.8,0,1.6-0.7,2
			c-0.6,0.3-1.2,0.6-1.8,0.8C318.2,112.1,318,112.1,317.8,112.1z M622.2,109.6c-0.2,0-0.4,0-0.5-0.1c-0.6-0.2-1.2-0.5-1.9-0.7
			c-0.8-0.3-1.2-1.2-0.9-1.9c0.3-0.8,1.2-1.2,1.9-0.9c0.6,0.2,1.3,0.5,1.9,0.7c0.8,0.3,1.2,1.2,0.9,1.9
			C623.3,109.3,622.8,109.6,622.2,109.6z M326.9,108.1c-0.6,0-1.1-0.3-1.4-0.9c-0.3-0.8,0-1.6,0.8-2c0.6-0.3,1.2-0.5,1.8-0.8
			c0.8-0.3,1.6,0,2,0.8c0.3,0.8,0,1.6-0.8,2c-0.6,0.3-1.2,0.5-1.8,0.8C327.3,108,327.1,108.1,326.9,108.1z M612.8,106.2
			c-0.2,0-0.3,0-0.5-0.1c-0.6-0.2-1.3-0.4-1.9-0.7c-0.8-0.3-1.2-1.1-0.9-1.9c0.3-0.8,1.1-1.2,1.9-0.9c0.6,0.2,1.3,0.4,1.9,0.7
			c0.8,0.3,1.2,1.1,0.9,1.9C614,105.8,613.4,106.2,612.8,106.2z M336.2,104.3c-0.6,0-1.2-0.4-1.4-1c-0.3-0.8,0.1-1.6,0.9-1.9
			c0.6-0.2,1.2-0.5,1.9-0.7c0.8-0.3,1.6,0.1,1.9,0.9c0.3,0.8-0.1,1.6-0.9,1.9c-0.6,0.2-1.2,0.5-1.9,0.7
			C336.6,104.3,336.4,104.3,336.2,104.3z M603.3,103c-0.2,0-0.3,0-0.5-0.1c-0.6-0.2-1.3-0.4-1.9-0.6c-0.8-0.2-1.2-1.1-1-1.9
			s1.1-1.2,1.9-1c0.6,0.2,1.3,0.4,1.9,0.6c0.8,0.3,1.2,1.1,1,1.9C604.5,102.6,603.9,103,603.3,103z M345.6,100.8
			c-0.6,0-1.2-0.4-1.4-1c-0.3-0.8,0.1-1.6,0.9-1.9c0.6-0.2,1.3-0.4,1.9-0.7c0.8-0.3,1.6,0.1,1.9,0.9c0.3,0.8-0.1,1.6-0.9,1.9
			c-0.6,0.2-1.3,0.4-1.9,0.7C345.9,100.8,345.7,100.8,345.6,100.8z M593.7,100.1c-0.1,0-0.3,0-0.4-0.1c-0.6-0.2-1.3-0.4-1.9-0.6
			c-0.8-0.2-1.3-1.1-1-1.9c0.2-0.8,1.1-1.3,1.9-1c0.6,0.2,1.3,0.4,1.9,0.6c0.8,0.2,1.3,1.1,1,1.9C595,99.6,594.4,100.1,593.7,100.1z
			 M355,97.6c-0.6,0-1.2-0.4-1.4-1c-0.3-0.8,0.2-1.6,1-1.9c0.6-0.2,1.3-0.4,1.9-0.6c0.8-0.2,1.6,0.2,1.9,1c0.2,0.8-0.2,1.6-1,1.9
			c-0.6,0.2-1.3,0.4-1.9,0.6C355.4,97.6,355.2,97.6,355,97.6z M584.1,97.4c-0.1,0-0.3,0-0.4-0.1c-0.6-0.2-1.3-0.3-1.9-0.5
			c-0.8-0.2-1.3-1-1.1-1.8c0.2-0.8,1-1.3,1.8-1.1c0.6,0.2,1.3,0.3,1.9,0.5c0.8,0.2,1.3,1,1.1,1.8C585.4,96.9,584.8,97.4,584.1,97.4z
			 M574.4,94.9c-0.1,0-0.2,0-0.4,0l-1.9-0.5c-0.8-0.2-1.3-1-1.1-1.8c0.2-0.8,1-1.3,1.8-1.1l2,0.5c0.8,0.2,1.3,1,1.1,1.8
			C575.7,94.4,575.1,94.9,574.4,94.9z M364.6,94.8c-0.7,0-1.3-0.4-1.4-1.1c-0.2-0.8,0.2-1.6,1-1.9c0.6-0.2,1.3-0.4,1.9-0.5
			c0.8-0.2,1.6,0.2,1.8,1c0.2,0.8-0.2,1.6-1,1.8c-0.6,0.2-1.3,0.4-1.9,0.5C364.9,94.8,364.8,94.8,364.6,94.8z M564.7,92.7
			c-0.1,0-0.2,0-0.3,0l-1.9-0.4c-0.8-0.2-1.3-1-1.2-1.8c0.2-0.8,1-1.3,1.8-1.2l2,0.4c0.8,0.2,1.3,1,1.1,1.8
			C566,92.2,565.4,92.7,564.7,92.7z M374.3,92.2c-0.7,0-1.3-0.5-1.5-1.1c-0.2-0.8,0.3-1.6,1.1-1.8c0.6-0.2,1.3-0.3,2-0.5
			c0.8-0.2,1.6,0.3,1.8,1.1c0.2,0.8-0.3,1.6-1.1,1.8c-0.6,0.2-1.3,0.3-1.9,0.5C374.5,92.2,374.4,92.2,374.3,92.2z M554.9,90.7
			c-0.1,0-0.2,0-0.3,0l-2-0.4c-0.8-0.2-1.3-0.9-1.2-1.8c0.2-0.8,0.9-1.3,1.8-1.2l2,0.4c0.8,0.2,1.3,0.9,1.2,1.8
			C556.2,90.2,555.6,90.7,554.9,90.7z M384,89.9c-0.7,0-1.3-0.5-1.5-1.2c-0.2-0.8,0.3-1.6,1.1-1.8c0.7-0.1,1.3-0.3,2-0.4
			c0.8-0.2,1.6,0.3,1.8,1.2c0.2,0.8-0.3,1.6-1.2,1.8c-0.7,0.1-1.3,0.3-1.9,0.4C384.2,89.9,384.1,89.9,384,89.9z M545,88.9
			c-0.1,0-0.2,0-0.3,0l-2-0.3c-0.8-0.1-1.4-0.9-1.2-1.7c0.1-0.8,0.9-1.4,1.7-1.2l2,0.3c0.8,0.1,1.4,0.9,1.2,1.7
			C546.4,88.4,545.8,88.9,545,88.9z M393.8,88c-0.7,0-1.3-0.5-1.5-1.2c-0.2-0.8,0.4-1.6,1.2-1.7c0.7-0.1,1.3-0.2,2-0.4
			c0.8-0.1,1.6,0.4,1.7,1.2s-0.4,1.6-1.2,1.7c-0.7,0.1-1.3,0.2-2,0.4C394,88,393.9,88,393.8,88z M535.2,87.3c-0.1,0-0.1,0-0.2,0
			l-2-0.3c-0.8-0.1-1.4-0.9-1.3-1.7c0.1-0.8,0.9-1.4,1.7-1.3l2,0.3c0.8,0.1,1.4,0.9,1.3,1.7C536.5,86.8,535.9,87.3,535.2,87.3z
			 M403.7,86.3c-0.7,0-1.4-0.5-1.5-1.3c-0.1-0.8,0.4-1.6,1.3-1.7c0.7-0.1,1.3-0.2,2-0.3c0.8-0.1,1.6,0.4,1.7,1.3
			c0.1,0.8-0.4,1.6-1.3,1.7c-0.7,0.1-1.3,0.2-2,0.3C403.8,86.3,403.7,86.3,403.7,86.3z M525.3,86c-0.1,0-0.1,0-0.2,0l-2-0.2
			c-0.8-0.1-1.4-0.8-1.3-1.7c0.1-0.8,0.8-1.4,1.7-1.3l2,0.2c0.8,0.1,1.4,0.9,1.3,1.7C526.7,85.4,526,86,525.3,86z M413.6,84.9
			c-0.7,0-1.4-0.6-1.5-1.3c-0.1-0.8,0.5-1.6,1.3-1.7c0.7-0.1,1.3-0.2,2-0.2c0.8-0.1,1.6,0.5,1.7,1.3c0.1,0.8-0.5,1.6-1.3,1.7
			c-0.7,0.1-1.3,0.2-2,0.2C413.7,84.9,413.6,84.9,413.6,84.9z M515.3,84.8c-0.1,0-0.1,0-0.2,0l-2-0.2c-0.8-0.1-1.4-0.8-1.3-1.6
			c0.1-0.8,0.8-1.4,1.6-1.3l2,0.2c0.8,0.1,1.4,0.8,1.3,1.6C516.7,84.2,516.1,84.8,515.3,84.8z M505.4,83.9c0,0-0.1,0-0.1,0l-2-0.2
			c-0.8-0.1-1.4-0.8-1.4-1.6c0.1-0.8,0.8-1.4,1.6-1.4l2,0.2c0.8,0.1,1.4,0.8,1.4,1.6C506.8,83.3,506.1,83.9,505.4,83.9z M423.5,83.8
			c-0.8,0-1.4-0.6-1.5-1.4c-0.1-0.8,0.5-1.6,1.3-1.6l2-0.2c0.8-0.1,1.6,0.5,1.6,1.4s-0.5,1.6-1.4,1.6l-2,0.2
			C423.6,83.8,423.5,83.8,423.5,83.8z M495.4,83.1C495.4,83.1,495.3,83.1,495.4,83.1l-2.1-0.1c-0.8-0.1-1.5-0.8-1.4-1.6
			c0-0.8,0.8-1.5,1.6-1.4l2,0.1c0.8,0.1,1.5,0.8,1.4,1.6C496.8,82.5,496.2,83.1,495.4,83.1z M433.5,82.9c-0.8,0-1.4-0.6-1.5-1.4
			c-0.1-0.8,0.6-1.5,1.4-1.6c0.7,0,1.3-0.1,2-0.1c0.8-0.1,1.5,0.6,1.6,1.4c0.1,0.8-0.6,1.5-1.4,1.6c-0.7,0-1.3,0.1-2,0.1
			C433.5,82.9,433.5,82.9,433.5,82.9z M485.4,82.6C485.4,82.6,485.4,82.6,485.4,82.6l-2.1-0.1c-0.8,0-1.5-0.7-1.4-1.6
			c0-0.8,0.8-1.5,1.6-1.4l2,0.1c0.8,0,1.5,0.7,1.4,1.6C486.9,81.9,486.2,82.6,485.4,82.6z M443.4,82.4c-0.8,0-1.5-0.6-1.5-1.4
			c0-0.8,0.6-1.5,1.4-1.6c0.7,0,1.3-0.1,2-0.1c0,0,0,0,0.1,0c0.8,0,1.5,0.6,1.5,1.4c0,0.8-0.6,1.5-1.4,1.6
			C444.8,82.3,444.2,82.3,443.4,82.4C443.5,82.4,443.5,82.4,443.4,82.4z M475.4,82.2C475.4,82.2,475.4,82.2,475.4,82.2l-2-0.1
			c-0.8,0-1.5-0.7-1.5-1.5c0-0.8,0.7-1.5,1.5-1.5l2,0.1c0.8,0,1.5,0.7,1.5,1.5C476.9,81.6,476.2,82.2,475.4,82.2z M453.4,82.1
			c-0.8,0-1.5-0.7-1.5-1.5c0-0.8,0.6-1.5,1.5-1.5l2,0c0.8,0,1.5,0.7,1.5,1.5s-0.7,1.5-1.5,1.5L453.4,82.1
			C453.4,82.1,453.4,82.1,453.4,82.1z M465.4,82C465.4,82,465.4,82,465.4,82l-2,0c-0.8,0-1.5-0.7-1.5-1.5c0-0.8,0.7-1.5,1.5-1.5
			c0,0,0,0,0,0l2,0c0.8,0,1.5,0.7,1.5,1.5C466.9,81.4,466.3,82,465.4,82z"/>
	</g>
	<circle fill="#7A828C" cx="165.5" cy="263.5" r="6.5"/>
	<circle fill="#7A828C" cx="794.5" cy="263.5" r="6.5"/>
	<g>
		<rect x="426.5" y="237.5" fill="#FFFFFF" width="102" height="235"/>
		<path fill="#404751" d="M528.5,474h-102c-0.8,0-1.5-0.7-1.5-1.5v-235c0-0.8,0.7-1.5,1.5-1.5h102c0.8,0,1.5,0.7,1.5,1.5v235
			C530,473.3,529.3,474,528.5,474z M428,471h99V239h-99V471z"/>
	</g>
	<g>
		<rect x="442.5" y="257.5" fill="#D75352" width="12" height="30.5"/>
		<path fill="#404751" d="M454.5,289.5h-12c-0.8,0-1.5-0.7-1.5-1.5v-30.5c0-0.8,0.7-1.5,1.5-1.5h12c0.8,0,1.5,0.7,1.5,1.5V288
			C456,288.8,455.3,289.5,454.5,289.5z M444,286.5h9V259h-9V286.5z"/>
	</g>
	<g>
		<path fill="#404751" d="M484.5,289.5h-12c-0.8,0-1.5-0.7-1.5-1.5v-30.5c0-0.8,0.7-1.5,1.5-1.5h12c0.8,0,1.5,0.7,1.5,1.5V288
			C486,288.8,485.3,289.5,484.5,289.5z M474,286.5h9V259h-9V286.5z"/>
	</g>
	<g>
		<path fill="#404751" d="M514.5,289.5h-12c-0.8,0-1.5-0.7-1.5-1.5v-30.5c0-0.8,0.7-1.5,1.5-1.5h12c0.8,0,1.5,0.7,1.5,1.5V288
			C516,288.8,515.3,289.5,514.5,289.5z M504,286.5h9V259h-9V286.5z"/>
	</g>
	<g>
		<rect x="442.5" y="311.5" fill="#FFFFFF" width="12" height="30.5"/>
		<path fill="#404751" d="M454.5,343.5h-12c-0.8,0-1.5-0.7-1.5-1.5v-30.5c0-0.8,0.7-1.5,1.5-1.5h12c0.8,0,1.5,0.7,1.5,1.5V342
			C456,342.8,455.3,343.5,454.5,343.5z M444,340.5h9V313h-9V340.5z"/>
	</g>
	<g>
		<path fill="#404751" d="M484.5,343.5h-12c-0.8,0-1.5-0.7-1.5-1.5v-30.5c0-0.8,0.7-1.5,1.5-1.5h12c0.8,0,1.5,0.7,1.5,1.5V342
			C486,342.8,485.3,343.5,484.5,343.5z M474,340.5h9V313h-9V340.5z"/>
	</g>
	<g>
		<rect x="502.5" y="311.5" fill="#E6BC45" width="12" height="30.5"/>
		<path fill="#404751" d="M514.5,343.5h-12c-0.8,0-1.5-0.7-1.5-1.5v-30.5c0-0.8,0.7-1.5,1.5-1.5h12c0.8,0,1.5,0.7,1.5,1.5V342
			C516,342.8,515.3,343.5,514.5,343.5z M504,340.5h9V313h-9V340.5z"/>
	</g>
	<g>
		<rect x="442.5" y="365.5" fill="#41ACE1" width="12" height="30.5"/>
		<path fill="#404751" d="M454.5,397.5h-12c-0.8,0-1.5-0.7-1.5-1.5v-30.5c0-0.8,0.7-1.5,1.5-1.5h12c0.8,0,1.5,0.7,1.5,1.5V396
			C456,396.8,455.3,397.5,454.5,397.5z M444,394.5h9V367h-9V394.5z"/>
	</g>
	<g>
		<path fill="#404751" d="M484.5,397.5h-12c-0.8,0-1.5-0.7-1.5-1.5v-30.5c0-0.8,0.7-1.5,1.5-1.5h12c0.8,0,1.5,0.7,1.5,1.5V396
			C486,396.8,485.3,397.5,484.5,397.5z M474,394.5h9V367h-9V394.5z"/>
	</g>
	<g>
		<path fill="#404751" d="M514.5,397.5h-12c-0.8,0-1.5-0.7-1.5-1.5v-30.5c0-0.8,0.7-1.5,1.5-1.5h12c0.8,0,1.5,0.7,1.5,1.5V396
			C516,396.8,515.3,397.5,514.5,397.5z M504,394.5h9V367h-9V394.5z"/>
	</g>
	<g>
		<g>
			
				<ellipse transform="matrix(1 -1.264730e-03 1.264730e-03 1 -0.1322 0.4291)" fill="#FFFFFF" cx="339.3" cy="104.8" rx="70.3" ry="70.3"/>
			<path fill="#41ACE1" d="M339.2,176.5c-19.1,0-37.1-7.4-50.7-21C275,142,267.5,124,267.5,104.8c0-39.6,32.1-71.8,71.7-71.8
				c0,0,0.1,0,0.1,0c19.1,0,37.1,7.4,50.7,21c13.6,13.5,21.1,31.5,21.1,50.7C411,144.2,378.9,176.4,339.2,176.5
				C339.3,176.5,339.3,176.5,339.2,176.5z M339.3,36C339.2,36,339.2,36,339.3,36c-38,0-68.8,30.9-68.8,68.8
				c0,18.4,7.2,35.6,20.2,48.6c13,12.9,30.2,20.1,48.5,20.1c0,0,0.1,0,0.1,0c37.9,0,68.7-30.9,68.7-68.8c0-18.4-7.2-35.6-20.2-48.6
				C374.8,43.1,357.6,36,339.3,36z"/>
		</g>
		<g>
			<path fill="#E6BC45" d="M339.2,161.3c-15.1,0-29.2-5.9-39.9-16.5c-10.7-10.7-16.6-24.8-16.6-39.9c0-31.2,25.3-56.5,56.4-56.6
				c0,0,0,0,0.1,0c15.1,0,29.2,5.9,39.9,16.5c10.7,10.7,16.6,24.8,16.6,39.9C395.8,135.8,370.5,161.2,339.2,161.3
				C339.3,161.3,339.3,161.3,339.2,161.3z M339.3,51.3C339.2,51.3,339.2,51.3,339.3,51.3c-29.6,0-53.5,24.1-53.5,53.6
				c0,14.3,5.6,27.7,15.7,37.8c10.1,10.1,23.5,15.6,37.8,15.6c0,0,0,0,0.1,0c29.5,0,53.5-24.1,53.4-53.6c0-14.3-5.6-27.7-15.7-37.8
				C366.9,56.8,353.5,51.3,339.3,51.3z"/>
		</g>
		<g>
			<path fill="#D75352" d="M304.8,86.6c-0.4-1.1,0.5-1.9,2.2-2.6c10.2-4.3,20.4-8.7,30.7-13c0.9-0.4,2.3-0.5,3.2-0.1
				c10.5,4.3,20.9,8.8,31.3,13.3c0.7,0.3,1.7,1.4,1.7,2.1c-1.2,14.3-3.8,28.2-11.9,40.4c-4.8,7.2-11.2,12-20.2,12.7
				c-10.6,0.8-18.5-3.7-24.3-12.2c-6.4-9.3-9.3-19.9-11.2-30.8C305.6,93.4,305.3,90.4,304.8,86.6z"/>
		</g>
		<g>
			<path fill="#F2F2F2" d="M333.9,121.3c-3.5-3.9-7.5-8.4-11.6-12.9c1.7-1.5,3.3-2.9,5-4.5c2.4,1.7,4.9,3.5,7.4,5.3
				c5.9-4.8,11.8-9.7,17.8-14.6c1.4,1.8,2.6,3.4,4,5.3C349,107,341.5,114.1,333.9,121.3z"/>
		</g>
	</g>
</g>
</svg>
