<?xml version="1.0" encoding="utf-8"?>
<!-- Generator: Adobe Illustrator 21.1.0, SVG Export Plug-In . SVG Version: 6.00 Build 0)  -->
<svg version="1.1" id="Layer_1" xmlns="http://www.w3.org/2000/svg" xmlns:xlink="http://www.w3.org/1999/xlink" x="0px" y="0px"
	 width="900px" height="724.8px" viewBox="0 0 900 724.8" style="enable-background:new 0 0 900 724.8;" xml:space="preserve">
<style type="text/css">
	.st0{opacity:5.000000e-02;}
	.st1{fill:#FFFFFF;}
	.st2{fill:#404751;}
	.st3{fill:#E6BC45;}
	.st4{fill:#41ACE1;}
	.st5{fill:#D75352;}
	.st6{fill:#8E96A3;}
	.st7{opacity:0.8;}
	.st8{fill:#4EC68D;}
	.st9{fill:#3FA9F5;}
</style>
<g class="st0">
	<g>
		<path d="M725,581.6c-2.3,12-8.9,19-59.8,28.4c-48.5,10-141.4,25.4-259.1,24.3c-117.6-0.2-213.1,1.5-267.5-10.3
			C82.3,611.7,67,592.7,65,581.6c2-11.6,17.3-16.8,73.6-26.2c54.4-9.4,149.9-28.6,267.5-26.4c117.7,2.2,210.6,4.5,259.1,14.2
			C716.1,553.8,722.7,570,725,581.6z"/>
	</g>
</g>
<g>
	<rect x="352.8" y="256.8" class="st1" width="194" height="304"/>
	<path class="st2" d="M546.8,562.3h-194c-0.8,0-1.5-0.7-1.5-1.5v-304c0-0.8,0.7-1.5,1.5-1.5h194c0.8,0,1.5,0.7,1.5,1.5v304
		C548.3,561.6,547.6,562.3,546.8,562.3z M354.3,559.3h191v-301h-191V559.3z"/>
</g>
<g>
	<path class="st2" d="M352.5,244.3c-0.8,0-1.5-0.7-1.5-1.5v-16c0-0.8,0.7-1.5,1.5-1.5s1.5,0.7,1.5,1.5v16
		C354,243.6,353.3,244.3,352.5,244.3z"/>
</g>
<g>
	<path class="st2" d="M546.5,244.3c-0.8,0-1.5-0.7-1.5-1.5v-16c0-0.8,0.7-1.5,1.5-1.5s1.5,0.7,1.5,1.5v16
		C548,243.6,547.3,244.3,546.5,244.3z"/>
</g>
<g>
	<rect x="345.8" y="242.8" class="st3" width="208" height="14"/>
	<path class="st2" d="M553.8,258.3h-208c-0.8,0-1.5-0.7-1.5-1.5v-14c0-0.8,0.7-1.5,1.5-1.5h208c0.8,0,1.5,0.7,1.5,1.5v14
		C555.3,257.6,554.6,258.3,553.8,258.3z M347.3,255.3h205v-11h-205V255.3z"/>
</g>
<g>
	<path class="st2" d="M486.5,561.3h-72c-0.8,0-1.5-0.7-1.5-1.5v-98c0-0.8,0.7-1.5,1.5-1.5h72c0.8,0,1.5,0.7,1.5,1.5v98
		C488,560.6,487.3,561.3,486.5,561.3z M416,558.3h69v-95h-69V558.3z"/>
</g>
<g>
	<path class="st2" d="M492.5,463.3h-85c-0.8,0-1.5-0.7-1.5-1.5s0.7-1.5,1.5-1.5h85c0.8,0,1.5,0.7,1.5,1.5S493.3,463.3,492.5,463.3z"
		/>
</g>
<g>
	<path class="st2" d="M486.5,520.3h-72c-0.8,0-1.5-0.7-1.5-1.5s0.7-1.5,1.5-1.5h72c0.8,0,1.5,0.7,1.5,1.5S487.3,520.3,486.5,520.3z"
		/>
</g>
<g>
	<path class="st2" d="M486.5,530.3h-72c-0.8,0-1.5-0.7-1.5-1.5s0.7-1.5,1.5-1.5h72c0.8,0,1.5,0.7,1.5,1.5S487.3,530.3,486.5,530.3z"
		/>
</g>
<g>
	<path class="st2" d="M486.5,540.3h-72c-0.8,0-1.5-0.7-1.5-1.5s0.7-1.5,1.5-1.5h72c0.8,0,1.5,0.7,1.5,1.5S487.3,540.3,486.5,540.3z"
		/>
</g>
<g>
	<path class="st2" d="M486.5,550.3h-72c-0.8,0-1.5-0.7-1.5-1.5s0.7-1.5,1.5-1.5h72c0.8,0,1.5,0.7,1.5,1.5S487.3,550.3,486.5,550.3z"
		/>
</g>
<g>
	<path class="st2" d="M497.5,561.3h-11c-0.8,0-1.5-0.7-1.5-1.5v-41c0-0.8,0.7-1.5,1.5-1.5h11c0.8,0,1.5,0.7,1.5,1.5v41
		C499,560.6,498.3,561.3,497.5,561.3z M488,558.3h8v-38h-8V558.3z"/>
</g>
<g>
	<path class="st2" d="M414.5,561.3h-11c-0.8,0-1.5-0.7-1.5-1.5v-41c0-0.8,0.7-1.5,1.5-1.5h11c0.8,0,1.5,0.7,1.5,1.5v41
		C416,560.6,415.3,561.3,414.5,561.3z M405,558.3h8v-38h-8V558.3z"/>
</g>
<g>
	<path class="st2" d="M449.5,518.3c-0.8,0-1.5-0.7-1.5-1.5v-54c0-0.8,0.7-1.5,1.5-1.5s1.5,0.7,1.5,1.5v54
		C451,517.6,450.3,518.3,449.5,518.3z"/>
</g>
<g>
	<rect x="500.5" y="461.8" class="st4" width="9" height="9"/>
	<path class="st2" d="M509.5,471.8h-9c-0.6,0-1-0.4-1-1v-9c0-0.6,0.4-1,1-1h9c0.6,0,1,0.4,1,1v9
		C510.5,471.3,510.1,471.8,509.5,471.8z M501.5,469.8h7v-7h-7V469.8z"/>
</g>
<g>
	<path class="st2" d="M546.5,234.3h-194c-0.8,0-1.5-0.7-1.5-1.5s0.7-1.5,1.5-1.5h194c0.8,0,1.5,0.7,1.5,1.5S547.3,234.3,546.5,234.3
		z"/>
</g>
<g>
	<rect x="250.5" y="363.8" class="st1" width="102" height="197"/>
	<path class="st2" d="M352.5,562.3h-102c-0.8,0-1.5-0.7-1.5-1.5v-197c0-0.8,0.7-1.5,1.5-1.5h102c0.8,0,1.5,0.7,1.5,1.5v197
		C354,561.6,353.3,562.3,352.5,562.3z M252,559.3h99v-194h-99V559.3z"/>
</g>
<g>
	<path class="st2" d="M290.5,398.3h-22c-0.8,0-1.5-0.7-1.5-1.5v-13c0-0.8,0.7-1.5,1.5-1.5h22c0.8,0,1.5,0.7,1.5,1.5v13
		C292,397.6,291.3,398.3,290.5,398.3z M270,395.3h19v-10h-19V395.3z"/>
</g>
<g>
	<rect x="307.5" y="383.8" class="st5" width="22" height="13"/>
	<path class="st2" d="M329.5,398.3h-22c-0.8,0-1.5-0.7-1.5-1.5v-13c0-0.8,0.7-1.5,1.5-1.5h22c0.8,0,1.5,0.7,1.5,1.5v13
		C331,397.6,330.3,398.3,329.5,398.3z M309,395.3h19v-10h-19V395.3z"/>
</g>
<g>
	<path class="st2" d="M290.5,427.3h-22c-0.8,0-1.5-0.7-1.5-1.5v-13c0-0.8,0.7-1.5,1.5-1.5h22c0.8,0,1.5,0.7,1.5,1.5v13
		C292,426.6,291.3,427.3,290.5,427.3z M270,424.3h19v-10h-19V424.3z"/>
</g>
<g>
	<path class="st2" d="M329.5,427.3h-22c-0.8,0-1.5-0.7-1.5-1.5v-13c0-0.8,0.7-1.5,1.5-1.5h22c0.8,0,1.5,0.7,1.5,1.5v13
		C331,426.6,330.3,427.3,329.5,427.3z M309,424.3h19v-10h-19V424.3z"/>
</g>
<g>
	<rect x="268.5" y="441.8" class="st4" width="22" height="13"/>
	<path class="st2" d="M290.5,456.3h-22c-0.8,0-1.5-0.7-1.5-1.5v-13c0-0.8,0.7-1.5,1.5-1.5h22c0.8,0,1.5,0.7,1.5,1.5v13
		C292,455.6,291.3,456.3,290.5,456.3z M270,453.3h19v-10h-19V453.3z"/>
</g>
<g>
	<path class="st2" d="M329.5,456.3h-22c-0.8,0-1.5-0.7-1.5-1.5v-13c0-0.8,0.7-1.5,1.5-1.5h22c0.8,0,1.5,0.7,1.5,1.5v13
		C331,455.6,330.3,456.3,329.5,456.3z M309,453.3h19v-10h-19V453.3z"/>
</g>
<g>
	<path class="st2" d="M290.5,485.3h-22c-0.8,0-1.5-0.7-1.5-1.5v-13c0-0.8,0.7-1.5,1.5-1.5h22c0.8,0,1.5,0.7,1.5,1.5v13
		C292,484.6,291.3,485.3,290.5,485.3z M270,482.3h19v-10h-19V482.3z"/>
</g>
<g>
	<rect x="307.5" y="470.8" class="st3" width="22" height="13"/>
	<path class="st2" d="M329.5,485.3h-22c-0.8,0-1.5-0.7-1.5-1.5v-13c0-0.8,0.7-1.5,1.5-1.5h22c0.8,0,1.5,0.7,1.5,1.5v13
		C331,484.6,330.3,485.3,329.5,485.3z M309,482.3h19v-10h-19V482.3z"/>
</g>
<g>
	<path class="st2" d="M586.5,562.3h-405c-0.8,0-1.5-0.7-1.5-1.5s0.7-1.5,1.5-1.5h405c0.8,0,1.5,0.7,1.5,1.5S587.3,562.3,586.5,562.3
		z"/>
</g>
<g>
	<path class="st2" d="M613.5,562.3h-15c-0.8,0-1.5-0.7-1.5-1.5s0.7-1.5,1.5-1.5h15c0.8,0,1.5,0.7,1.5,1.5S614.3,562.3,613.5,562.3z"
		/>
</g>
<g>
	<path class="st2" d="M636.5,562.3h-9c-0.8,0-1.5-0.7-1.5-1.5s0.7-1.5,1.5-1.5h9c0.8,0,1.5,0.7,1.5,1.5S637.3,562.3,636.5,562.3z"/>
</g>
<g>
	<path class="st2" d="M312.5,561.3h-28c-0.8,0-1.5-0.7-1.5-1.5v-45.4c0-0.8,0.7-1.5,1.5-1.5h28c0.8,0,1.5,0.7,1.5,1.5v45.4
		C314,560.6,313.3,561.3,312.5,561.3z M286,558.3h25v-42.4h-25V558.3z"/>
</g>
<g>
	<path class="st6" d="M183.6,154.1h-58.1c-2.7,0-5.2-0.5-7.7-1.5c-9.6-2.2-16.5-10.8-16.5-20.7c0-8.5,5.1-16.2,12.9-19.5
		c0.6-7.6,7-13.6,14.8-13.6c2,0,4,0.4,5.9,1.2c4.8-9.8,14.6-16,25.7-16c15.8,0,28.6,12.8,28.6,28.6c0,0.6,0,1.1-0.1,1.7
		c8.7,2.4,14.8,10.3,14.8,19.5C203.8,145.1,194.7,154.1,183.6,154.1z M118.1,113.7c0,0,0,0.1,0,0.1c0,0.9-0.5,1.6-1.3,1.9
		c-6.9,2.4-11.5,8.9-11.5,16.2c0,8,5.7,15.1,13.5,16.8c0.1,0,0.2,0.1,0.4,0.1c2,0.9,4.1,1.3,6.3,1.3h58.1c8.9,0,16.2-7.3,16.2-16.2
		c0-7.8-5.6-14.5-13.3-15.9c-1-0.2-1.8-1.2-1.6-2.2c0.1-1.1,0.2-2,0.2-3c0-13.6-11-24.6-24.6-24.6c-10.1,0-19.1,6.1-22.9,15.5
		c-0.2,0.6-0.7,1-1.2,1.2c-0.6,0.2-1.2,0.1-1.7-0.2c-1.7-1.1-3.7-1.7-5.7-1.7C123,102.9,118.1,107.8,118.1,113.7
		C118.1,113.7,118.1,113.7,118.1,113.7z"/>
</g>
<g>
	<path class="st6" d="M152.5,329.6H94.4c-2.7,0-5.2-0.5-7.7-1.5c-9.6-2.2-16.5-10.8-16.5-20.7c0-8.5,5.1-16.2,12.9-19.5
		c0.6-7.6,7-13.6,14.8-13.6c2,0,4,0.4,5.9,1.2c4.8-9.8,14.6-16,25.7-16c15.8,0,28.6,12.8,28.6,28.6c0,0.6,0,1.1-0.1,1.7
		c8.7,2.4,14.8,10.3,14.8,19.5C172.8,320.6,163.7,329.6,152.5,329.6z M87.1,289.2c0,0,0,0.1,0,0.1c0,0.9-0.5,1.6-1.3,1.9
		c-6.9,2.4-11.5,8.9-11.5,16.2c0,8,5.7,15.1,13.5,16.8c0.1,0,0.2,0.1,0.4,0.1c2,0.9,4.1,1.3,6.3,1.3h58.1c8.9,0,16.2-7.3,16.2-16.2
		c0-7.8-5.6-14.5-13.3-15.9c-1-0.2-1.8-1.2-1.6-2.2c0.1-1.1,0.2-2,0.2-3c0-13.6-11-24.6-24.6-24.6c-10.1,0-19.1,6.1-22.8,15.5
		c-0.2,0.6-0.7,1-1.2,1.2c-0.6,0.2-1.2,0.1-1.7-0.2c-1.7-1.1-3.7-1.7-5.7-1.7C91.9,278.4,87.1,283.3,87.1,289.2
		C87.1,289.2,87.1,289.2,87.1,289.2z"/>
</g>
<g>
	<path class="st6" d="M343,308.2C343,308.2,343,308.2,343,308.2l-2,0c-0.6,0-1-0.5-1-1c0-0.6,0.4-1,1-1c0,0,0,0,0,0l2,0
		c0.6,0,1,0.5,1,1C344,307.8,343.5,308.2,343,308.2z M335,308.2C335,308.2,335,308.2,335,308.2l-2,0c-0.6,0-1-0.5-1-1
		c0-0.6,0.4-1,1-1c0,0,0,0,0,0l2,0c0.6,0,1,0.5,1,1C336,307.8,335.5,308.2,335,308.2z M327,308.2C327,308.2,327,308.2,327,308.2
		l-2,0c-0.6,0-1-0.5-1-1c0-0.6,0.4-1,1-1c0,0,0,0,0,0l2,0c0.6,0,1,0.5,1,1C328,307.8,327.6,308.2,327,308.2z M319,308.2
		C319,308.2,319,308.2,319,308.2l-2,0c-0.6,0-1-0.5-1-1c0-0.6,0.4-1,1-1c0,0,0,0,0,0l2,0c0.6,0,1,0.5,1,1
		C320,307.7,319.6,308.2,319,308.2z M311,308.2C311,308.2,311,308.2,311,308.2l-2,0c-0.6,0-1-0.5-1-1c0-0.6,0.4-1,1-1c0,0,0,0,0,0
		l2,0c0.6,0,1,0.5,1,1C312,307.7,311.6,308.2,311,308.2z M303,308.1C303,308.1,303,308.1,303,308.1l-2,0c-0.6,0-1-0.5-1-1
		c0-0.6,0.4-1,1-1c0,0,0,0,0,0l2,0c0.6,0,1,0.5,1,1C304,307.7,303.6,308.1,303,308.1z M295,308.1C295,308.1,295,308.1,295,308.1
		l-2,0c-0.6,0-1-0.5-1-1c0-0.6,0.5-1,1-1l2,0c0.6,0,1,0.5,1,1C296,307.7,295.6,308.1,295,308.1z M287,308.1
		C287,308.1,287,308.1,287,308.1l-2,0c-0.6,0-1-0.5-1-1c0-0.6,0.5-1,1-1l2,0c0.6,0,1,0.5,1,1C288,307.6,287.6,308.1,287,308.1z
		 M279,308.1C279,308.1,279,308.1,279,308.1l-2,0c-0.6,0-1-0.5-1-1c0-0.6,0.4-1,1-1c0,0,0,0,0,0l2,0c0.6,0,1,0.5,1,1
		C280,307.6,279.6,308.1,279,308.1z M271,308C271,308,271,308,271,308l-2,0c-0.6,0-1-0.5-1-1c0-0.6,0.4-1,1-1c0,0,0,0,0,0l2,0
		c0.6,0,1,0.5,1,1C272,307.6,271.6,308,271,308z M263,308C263,308,263,308,263,308l-2,0c-0.6,0-1-0.5-1-1c0-0.6,0.4-1,1-1
		c0,0,0,0,0,0l2,0c0.6,0,1,0.5,1,1C264,307.6,263.6,308,263,308z M255,308C255,308,255,308,255,308l-2,0c-0.6,0-1-0.5-1-1
		c0-0.6,0.4-1,1-1c0,0,0,0,0,0l2,0c0.6,0,1,0.5,1,1C256,307.5,255.6,308,255,308z M247,308C247,308,247,308,247,308l-2,0
		c-0.6,0-1-0.5-1-1c0-0.6,0.4-1,1-1c0,0,0,0,0,0l2,0c0.6,0,1,0.5,1,1C248,307.5,247.6,308,247,308z M239,307.9
		C239,307.9,239,307.9,239,307.9l-2,0c-0.6,0-1-0.5-1-1c0-0.6,0.4-1,1-1c0,0,0,0,0,0l2,0c0.6,0,1,0.5,1,1
		C240,307.5,239.6,307.9,239,307.9z M231,307.9C231,307.9,231,307.9,231,307.9l-2,0c-0.6,0-1-0.5-1-1c0-0.6,0.4-1,1-1c0,0,0,0,0,0
		l2,0c0.6,0,1,0.5,1,1C232,307.5,231.6,307.9,231,307.9z M223,307.9C223,307.9,223,307.9,223,307.9l-2,0c-0.6,0-1-0.5-1-1
		c0-0.6,0.4-1,1-1c0,0,0,0,0,0l2,0c0.6,0,1,0.5,1,1C224,307.5,223.6,307.9,223,307.9z M215,307.9C215,307.9,215,307.9,215,307.9
		l-2,0c-0.6,0-1-0.5-1-1c0-0.6,0.4-1,1-1c0,0,0,0,0,0l2,0c0.6,0,1,0.5,1,1C216,307.4,215.6,307.9,215,307.9z M207,307.9
		C207,307.9,207,307.9,207,307.9l-2,0c-0.6,0-1-0.5-1-1c0-0.6,0.4-1,1-1c0,0,0,0,0,0l2,0c0.6,0,1,0.5,1,1
		C208,307.4,207.6,307.9,207,307.9z M199,307.8C199,307.8,199,307.8,199,307.8l-2,0c-0.6,0-1-0.5-1-1c0-0.6,0.5-1,1-1l2,0
		c0.6,0,1,0.5,1,1C200,307.4,199.6,307.8,199,307.8z M191,307.8C191,307.8,191,307.8,191,307.8l-2,0c-0.6,0-1-0.5-1-1
		c0-0.6,0.5-1,1-1l2,0c0.6,0,1,0.5,1,1C192,307.4,191.6,307.8,191,307.8z M183,307.8C183,307.8,183,307.8,183,307.8l-2,0
		c-0.6,0-1-0.5-1-1c0-0.6,0.5-1,1-1l2,0c0.6,0,1,0.5,1,1C184,307.3,183.6,307.8,183,307.8z M175,307.8
		C175,307.8,175,307.8,175,307.8l-2,0c-0.6,0-1-0.5-1-1c0-0.6,0.4-1,1-1c0,0,0,0,0,0l2,0c0.6,0,1,0.5,1,1
		C176,307.3,175.6,307.8,175,307.8z"/>
</g>
<g>
	<path class="st6" d="M154.6,136.7c-2.4,0-4.4-2-4.4-4.4s2-4.4,4.4-4.4s4.4,2,4.4,4.4S157.1,136.7,154.6,136.7z M154.6,130.9
		c-0.8,0-1.4,0.6-1.4,1.4s0.6,1.4,1.4,1.4s1.4-0.6,1.4-1.4S155.4,130.9,154.6,130.9z"/>
</g>
<g>
	<path class="st6" d="M161.2,126.9c-0.4,0-0.8-0.2-1.1-0.5c0,0-2.3-2.3-5.6-2.3c-3.5,0-5.2,2.1-5.3,2.2c-0.5,0.6-1.5,0.8-2.1,0.2
		c-0.6-0.5-0.8-1.4-0.3-2.1c0.1-0.1,2.7-3.3,7.6-3.3c4.7,0,7.7,3.1,7.8,3.2c0.6,0.6,0.5,1.6-0.1,2.1
		C161.9,126.8,161.6,126.9,161.2,126.9z"/>
</g>
<g>
	<path class="st6" d="M144.3,121c-0.3,0-0.6-0.1-0.9-0.3c-0.7-0.5-0.8-1.4-0.3-2.1c0.2-0.2,3.8-4.9,11.1-4.9
		c6.9,0,11.3,4.6,11.5,4.7c0.6,0.6,0.5,1.6-0.1,2.1c-0.6,0.6-1.6,0.5-2.1-0.1c-0.1-0.1-3.7-3.8-9.3-3.8c-5.8,0-8.7,3.7-8.8,3.7
		C145.2,120.8,144.8,121,144.3,121z"/>
</g>
<g class="st7">
	<path class="st6" d="M553.5,307.8c-0.5,0-1-0.4-1-1c0-0.6,0.4-1,1-1c0,0,0.7,0,2-0.1c0.6,0,1,0.4,1.1,0.9c0,0.6-0.4,1-0.9,1.1
		C554.3,307.7,553.5,307.8,553.5,307.8C553.5,307.8,553.5,307.8,553.5,307.8z M561.5,307c-0.5,0-0.9-0.4-1-0.9
		c-0.1-0.5,0.3-1,0.9-1.1c0.6-0.1,1.3-0.2,2-0.3c0.5-0.1,1.1,0.3,1.1,0.9c0.1,0.5-0.3,1.1-0.9,1.1c-0.7,0.1-1.4,0.2-2,0.3
		C561.6,307,561.5,307,561.5,307z M569.4,305.8c-0.5,0-0.9-0.3-1-0.8c-0.1-0.5,0.3-1.1,0.8-1.2c0.6-0.1,1.3-0.2,2-0.4
		c0.5-0.1,1.1,0.2,1.2,0.8c0.1,0.5-0.2,1.1-0.8,1.2c-0.7,0.1-1.3,0.3-2,0.4C569.5,305.8,569.5,305.8,569.4,305.8z M577.3,304.2
		c-0.5,0-0.9-0.3-1-0.8c-0.1-0.5,0.2-1.1,0.7-1.2c0.6-0.1,1.3-0.3,1.9-0.5c0.5-0.1,1.1,0.2,1.2,0.7c0.1,0.5-0.2,1.1-0.7,1.2
		c-0.7,0.2-1.3,0.3-2,0.5C577.4,304.2,577.3,304.2,577.3,304.2z M585,302.2c-0.4,0-0.8-0.3-1-0.7c-0.2-0.5,0.2-1.1,0.7-1.2
		c0.6-0.2,1.3-0.4,1.9-0.6c0.5-0.2,1.1,0.1,1.2,0.7c0.2,0.5-0.1,1.1-0.7,1.2c-0.6,0.2-1.3,0.4-1.9,0.6
		C585.2,302.2,585.1,302.2,585,302.2z M592.7,299.8c-0.4,0-0.8-0.3-0.9-0.7c-0.2-0.5,0.1-1.1,0.6-1.3c0.6-0.2,1.2-0.4,1.9-0.7
		c0.5-0.2,1.1,0.1,1.3,0.6c0.2,0.5-0.1,1.1-0.6,1.3c-0.6,0.2-1.3,0.4-1.9,0.7C592.9,299.8,592.8,299.8,592.7,299.8z M600.2,297
		c-0.4,0-0.8-0.2-0.9-0.6c-0.2-0.5,0-1.1,0.6-1.3c0.6-0.2,1.2-0.5,1.8-0.8c0.5-0.2,1.1,0,1.3,0.5c0.2,0.5,0,1.1-0.5,1.3
		c-0.6,0.3-1.2,0.5-1.9,0.8C600.4,297,600.3,297,600.2,297z M607.5,293.8c-0.4,0-0.7-0.2-0.9-0.6c-0.2-0.5,0-1.1,0.5-1.3
		c0.6-0.3,1.2-0.6,1.8-0.9c0.5-0.2,1.1,0,1.3,0.5c0.2,0.5,0,1.1-0.5,1.3c-0.6,0.3-1.2,0.6-1.8,0.9
		C607.8,293.8,607.7,293.8,607.5,293.8z M614.7,290.2c-0.4,0-0.7-0.2-0.9-0.5c-0.3-0.5-0.1-1.1,0.4-1.4c0.6-0.3,1.2-0.6,1.7-1
		c0.5-0.3,1.1-0.1,1.4,0.4c0.3,0.5,0.1,1.1-0.4,1.4c-0.6,0.3-1.2,0.7-1.8,1C615,290.2,614.8,290.2,614.7,290.2z M621.5,286.1
		c-0.3,0-0.7-0.2-0.8-0.5c-0.3-0.5-0.2-1.1,0.3-1.4c0.6-0.4,1.1-0.7,1.7-1.1c0.5-0.3,1.1-0.2,1.4,0.3c0.3,0.5,0.2,1.1-0.3,1.4
		c-0.6,0.4-1.1,0.7-1.7,1.1C621.9,286.1,621.7,286.1,621.5,286.1z M628.1,281.6c-0.3,0-0.6-0.1-0.8-0.4c-0.3-0.4-0.2-1.1,0.2-1.4
		c0.5-0.4,1.1-0.8,1.6-1.2c0.4-0.3,1.1-0.3,1.4,0.2c0.3,0.4,0.3,1.1-0.2,1.4c-0.5,0.4-1.1,0.8-1.6,1.2
		C628.6,281.5,628.4,281.6,628.1,281.6z M634.4,276.6c-0.3,0-0.6-0.1-0.8-0.3c-0.4-0.4-0.3-1,0.1-1.4c0.5-0.4,1-0.9,1.5-1.3
		c0.4-0.4,1-0.3,1.4,0.1c0.4,0.4,0.3,1-0.1,1.4c-0.5,0.4-1,0.9-1.5,1.3C634.9,276.5,634.6,276.6,634.4,276.6z M640.2,271.2
		c-0.3,0-0.5-0.1-0.7-0.3c-0.4-0.4-0.4-1,0-1.4c0.5-0.5,0.9-0.9,1.4-1.4c0.4-0.4,1-0.4,1.4,0c0.4,0.4,0.4,1,0,1.4
		c-0.5,0.5-0.9,1-1.4,1.4C640.8,271.1,640.5,271.2,640.2,271.2z M645.6,265.3c-0.2,0-0.5-0.1-0.6-0.2c-0.4-0.4-0.5-1-0.1-1.4
		c0.4-0.5,0.8-1,1.3-1.5c0.3-0.4,1-0.5,1.4-0.2s0.5,1,0.2,1.4c-0.4,0.5-0.9,1-1.3,1.6C646.2,265.1,645.9,265.3,645.6,265.3z
		 M650.5,258.9c-0.2,0-0.4-0.1-0.6-0.2c-0.5-0.3-0.6-0.9-0.2-1.4c0.4-0.5,0.8-1.1,1.1-1.6c0.3-0.5,0.9-0.6,1.4-0.3
		c0.5,0.3,0.6,0.9,0.3,1.4c-0.4,0.6-0.8,1.1-1.2,1.7C651.1,258.8,650.8,258.9,650.5,258.9z"/>
</g>
<g>
	<path class="st5" d="M673.5,252.8c-42.3,0-76.6-34.4-76.6-76.6c0-42.3,34.4-76.6,76.6-76.6c42.3,0,76.6,34.4,76.6,76.6
		C750.1,218.4,715.7,252.8,673.5,252.8z M673.5,105.5c-39,0-70.6,31.7-70.6,70.6s31.7,70.6,70.6,70.6s70.6-31.7,70.6-70.6
		S712.4,105.5,673.5,105.5z"/>
</g>
<g>
	<path class="st5" d="M804.8,316.3c-0.8,0-1.5-0.3-2.1-0.9l-80-80c-1.2-1.2-1.2-3.1,0-4.2c1.2-1.2,3.1-1.2,4.2,0l80,80
		c1.2,1.2,1.2,3.1,0,4.2C806.4,316,805.6,316.3,804.8,316.3z"/>
</g>
<g>
	<path class="st5" d="M695.5,200.5h-53.7c-2.5,0-4.9-0.5-7.2-1.4c-8.9-2-15.3-10.1-15.3-19.2c0-7.9,4.7-15,11.9-18.1
		c0.6-7,6.6-12.6,13.8-12.6c1.8,0,3.6,0.4,5.3,1.1c4.5-9,13.6-14.7,23.8-14.7c14.6,0,26.6,11.9,26.6,26.6c0,0.5,0,1,0,1.5
		c8,2.3,13.7,9.6,13.7,18.1C714.3,192,705.9,200.5,695.5,200.5z M635.2,163c0,0,0,0.1,0,0.1c0,0.9-0.5,1.6-1.3,1.9
		c-6.3,2.2-10.5,8.2-10.5,14.8c0,7.3,5.2,13.8,12.4,15.4c0.1,0,0.2,0.1,0.4,0.1c1.8,0.8,3.8,1.2,5.8,1.2h53.7
		c8.2,0,14.8-6.7,14.8-14.8c0-7.2-5.1-13.3-12.2-14.6c-1-0.2-1.8-1.2-1.6-2.2c0.1-1,0.2-1.9,0.2-2.8c0-12.4-10.1-22.6-22.6-22.6
		c-9.3,0-17.5,5.6-21,14.2c-0.2,0.6-0.7,1-1.2,1.2c-0.6,0.2-1.2,0.1-1.7-0.2c-1.6-1-3.4-1.5-5.2-1.5
		C639.6,153.2,635.2,157.6,635.2,163C635.2,163,635.2,163,635.2,163z"/>
</g>
<g>
	<path class="st5" d="M666.9,183.5c-2.5,0-4.5-2-4.5-4.5s2-4.5,4.5-4.5s4.5,2,4.5,4.5S669.4,183.5,666.9,183.5z M666.9,177.6
		c-0.8,0-1.5,0.7-1.5,1.5s0.7,1.5,1.5,1.5s1.5-0.7,1.5-1.5S667.8,177.6,666.9,177.6z"/>
</g>
<g>
	<path class="st5" d="M673.7,173.5c-0.4,0-0.8-0.2-1.1-0.5c0-0.1-2.3-2.4-5.8-2.4c-3.6,0-5.4,2.2-5.4,2.3c-0.5,0.6-1.5,0.8-2.1,0.2
		c-0.6-0.5-0.8-1.4-0.3-2.1c0.1-0.1,2.7-3.4,7.8-3.4c4.8,0,7.9,3.2,8,3.3c0.6,0.6,0.5,1.6-0.1,2.1
		C674.4,173.4,674.1,173.5,673.7,173.5z"/>
</g>
<g>
	<path class="st5" d="M656.3,167.4c-0.3,0-0.6-0.1-0.9-0.3c-0.7-0.5-0.8-1.5-0.3-2.1c0.2-0.2,3.9-5,11.4-5c7.1,0,11.6,4.7,11.8,4.9
		c0.6,0.6,0.5,1.6-0.1,2.1c-0.6,0.6-1.5,0.5-2.1-0.1c0-0.1-3.8-3.9-9.6-3.9c-6,0-9,3.8-9,3.8C657.2,167.2,656.8,167.4,656.3,167.4z"
		/>
</g>
<g>
	<g>
		<path class="st2" d="M378.9,306c-0.8,0-1.5-0.7-1.5-1.5v-30.8c0-0.8,0.7-1.5,1.5-1.5s1.5,0.7,1.5,1.5v30.8
			C380.4,305.4,379.7,306,378.9,306z"/>
	</g>
	<g>
		<path class="st2" d="M402.7,306c-0.8,0-1.5-0.7-1.5-1.5v-30.8c0-0.8,0.7-1.5,1.5-1.5s1.5,0.7,1.5,1.5v30.8
			C404.2,305.4,403.6,306,402.7,306z"/>
	</g>
	<g>
		<path class="st2" d="M407.1,275.3h-32.5c-0.8,0-1.5-0.7-1.5-1.5s0.7-1.5,1.5-1.5h32.5c0.8,0,1.5,0.7,1.5,1.5
			S407.9,275.3,407.1,275.3z"/>
	</g>
	<g>
		<path class="st2" d="M407.1,306.5h-32.5c-0.8,0-1.5-0.7-1.5-1.5s0.7-1.5,1.5-1.5h32.5c0.8,0,1.5,0.7,1.5,1.5
			S407.9,306.5,407.1,306.5z"/>
	</g>
	<g>
		<rect x="380" y="283.3" class="st5" width="22" height="11"/>
		<path class="st2" d="M402,295.8h-22c-0.8,0-1.5-0.7-1.5-1.5v-11c0-0.8,0.7-1.5,1.5-1.5h22c0.8,0,1.5,0.7,1.5,1.5v11
			C403.5,295.1,402.8,295.8,402,295.8z M381.5,292.8h19v-8h-19V292.8z"/>
	</g>
</g>
<g>
	<g>
		<path class="st2" d="M437.9,306c-0.8,0-1.5-0.7-1.5-1.5v-30.8c0-0.8,0.7-1.5,1.5-1.5s1.5,0.7,1.5,1.5v30.8
			C439.4,305.4,438.7,306,437.9,306z"/>
	</g>
	<g>
		<path class="st2" d="M461.7,306c-0.8,0-1.5-0.7-1.5-1.5v-30.8c0-0.8,0.7-1.5,1.5-1.5s1.5,0.7,1.5,1.5v30.8
			C463.2,305.4,462.6,306,461.7,306z"/>
	</g>
	<g>
		<path class="st2" d="M466.1,275.3h-32.5c-0.8,0-1.5-0.7-1.5-1.5s0.7-1.5,1.5-1.5h32.5c0.8,0,1.5,0.7,1.5,1.5
			S466.9,275.3,466.1,275.3z"/>
	</g>
	<g>
		<path class="st2" d="M466.1,306.5h-32.5c-0.8,0-1.5-0.7-1.5-1.5s0.7-1.5,1.5-1.5h32.5c0.8,0,1.5,0.7,1.5,1.5
			S466.9,306.5,466.1,306.5z"/>
	</g>
	<g>
		<rect x="439" y="283.3" class="st3" width="22" height="11"/>
		<path class="st2" d="M461,295.8h-22c-0.8,0-1.5-0.7-1.5-1.5v-11c0-0.8,0.7-1.5,1.5-1.5h22c0.8,0,1.5,0.7,1.5,1.5v11
			C462.5,295.1,461.8,295.8,461,295.8z M440.5,292.8h19v-8h-19V292.8z"/>
	</g>
</g>
<g>
	<g>
		<path class="st2" d="M496.9,306c-0.8,0-1.5-0.7-1.5-1.5v-30.8c0-0.8,0.7-1.5,1.5-1.5s1.5,0.7,1.5,1.5v30.8
			C498.4,305.4,497.7,306,496.9,306z"/>
	</g>
	<g>
		<path class="st2" d="M520.7,306c-0.8,0-1.5-0.7-1.5-1.5v-30.8c0-0.8,0.7-1.5,1.5-1.5s1.5,0.7,1.5,1.5v30.8
			C522.2,305.4,521.6,306,520.7,306z"/>
	</g>
	<g>
		<path class="st2" d="M525.1,275.3h-32.5c-0.8,0-1.5-0.7-1.5-1.5s0.7-1.5,1.5-1.5h32.5c0.8,0,1.5,0.7,1.5,1.5
			S525.9,275.3,525.1,275.3z"/>
	</g>
	<g>
		<path class="st2" d="M525.1,306.5h-32.5c-0.8,0-1.5-0.7-1.5-1.5s0.7-1.5,1.5-1.5h32.5c0.8,0,1.5,0.7,1.5,1.5
			S525.9,306.5,525.1,306.5z"/>
	</g>
	<g>
		<rect x="498" y="283.3" class="st5" width="22" height="11"/>
		<path class="st2" d="M520,295.8h-22c-0.8,0-1.5-0.7-1.5-1.5v-11c0-0.8,0.7-1.5,1.5-1.5h22c0.8,0,1.5,0.7,1.5,1.5v11
			C521.5,295.1,520.8,295.8,520,295.8z M499.5,292.8h19v-8h-19V292.8z"/>
	</g>
</g>
<g>
	<path class="st2" d="M378.9,366c-0.8,0-1.5-0.7-1.5-1.5v-30.8c0-0.8,0.7-1.5,1.5-1.5s1.5,0.7,1.5,1.5v30.8
		C380.4,365.4,379.7,366,378.9,366z"/>
</g>
<g>
	<path class="st2" d="M402.7,366c-0.8,0-1.5-0.7-1.5-1.5v-30.8c0-0.8,0.7-1.5,1.5-1.5s1.5,0.7,1.5,1.5v30.8
		C404.2,365.4,403.6,366,402.7,366z"/>
</g>
<g>
	<path class="st2" d="M407.1,335.3h-32.5c-0.8,0-1.5-0.7-1.5-1.5s0.7-1.5,1.5-1.5h32.5c0.8,0,1.5,0.7,1.5,1.5
		S407.9,335.3,407.1,335.3z"/>
</g>
<g>
	<path class="st2" d="M407.1,366.5h-32.5c-0.8,0-1.5-0.7-1.5-1.5s0.7-1.5,1.5-1.5h32.5c0.8,0,1.5,0.7,1.5,1.5
		S407.9,366.5,407.1,366.5z"/>
</g>
<g>
	<rect x="380" y="343.3" class="st4" width="22" height="11"/>
	<path class="st2" d="M402,355.8h-22c-0.8,0-1.5-0.7-1.5-1.5v-11c0-0.8,0.7-1.5,1.5-1.5h22c0.8,0,1.5,0.7,1.5,1.5v11
		C403.5,355.1,402.8,355.8,402,355.8z M381.5,352.8h19v-8h-19V352.8z"/>
</g>
<g>
	<path class="st2" d="M437.9,366c-0.8,0-1.5-0.7-1.5-1.5v-30.8c0-0.8,0.7-1.5,1.5-1.5s1.5,0.7,1.5,1.5v30.8
		C439.4,365.4,438.7,366,437.9,366z"/>
</g>
<g>
	<path class="st2" d="M461.7,366c-0.8,0-1.5-0.7-1.5-1.5v-30.8c0-0.8,0.7-1.5,1.5-1.5s1.5,0.7,1.5,1.5v30.8
		C463.2,365.4,462.6,366,461.7,366z"/>
</g>
<g>
	<path class="st2" d="M466.1,335.3h-32.5c-0.8,0-1.5-0.7-1.5-1.5s0.7-1.5,1.5-1.5h32.5c0.8,0,1.5,0.7,1.5,1.5
		S466.9,335.3,466.1,335.3z"/>
</g>
<g>
	<path class="st2" d="M466.1,366.5h-32.5c-0.8,0-1.5-0.7-1.5-1.5s0.7-1.5,1.5-1.5h32.5c0.8,0,1.5,0.7,1.5,1.5
		S466.9,366.5,466.1,366.5z"/>
</g>
<g>
	<rect x="439" y="343.3" class="st5" width="22" height="11"/>
	<path class="st2" d="M461,355.8h-22c-0.8,0-1.5-0.7-1.5-1.5v-11c0-0.8,0.7-1.5,1.5-1.5h22c0.8,0,1.5,0.7,1.5,1.5v11
		C462.5,355.1,461.8,355.8,461,355.8z M440.5,352.8h19v-8h-19V352.8z"/>
</g>
<g>
	<path class="st2" d="M496.9,366c-0.8,0-1.5-0.7-1.5-1.5v-30.8c0-0.8,0.7-1.5,1.5-1.5s1.5,0.7,1.5,1.5v30.8
		C498.4,365.4,497.7,366,496.9,366z"/>
</g>
<g>
	<path class="st2" d="M520.7,366c-0.8,0-1.5-0.7-1.5-1.5v-30.8c0-0.8,0.7-1.5,1.5-1.5s1.5,0.7,1.5,1.5v30.8
		C522.2,365.4,521.6,366,520.7,366z"/>
</g>
<g>
	<path class="st2" d="M525.1,335.3h-32.5c-0.8,0-1.5-0.7-1.5-1.5s0.7-1.5,1.5-1.5h32.5c0.8,0,1.5,0.7,1.5,1.5
		S525.9,335.3,525.1,335.3z"/>
</g>
<g>
	<path class="st2" d="M525.1,366.5h-32.5c-0.8,0-1.5-0.7-1.5-1.5s0.7-1.5,1.5-1.5h32.5c0.8,0,1.5,0.7,1.5,1.5
		S525.9,366.5,525.1,366.5z"/>
</g>
<g>
	<rect x="498" y="343.3" class="st4" width="22" height="11"/>
	<path class="st2" d="M520,355.8h-22c-0.8,0-1.5-0.7-1.5-1.5v-11c0-0.8,0.7-1.5,1.5-1.5h22c0.8,0,1.5,0.7,1.5,1.5v11
		C521.5,355.1,520.8,355.8,520,355.8z M499.5,352.8h19v-8h-19V352.8z"/>
</g>
<g>
	<g>
		<path class="st2" d="M378.9,426c-0.8,0-1.5-0.7-1.5-1.5v-30.8c0-0.8,0.7-1.5,1.5-1.5s1.5,0.7,1.5,1.5v30.8
			C380.4,425.4,379.7,426,378.9,426z"/>
	</g>
	<g>
		<path class="st2" d="M402.7,426c-0.8,0-1.5-0.7-1.5-1.5v-30.8c0-0.8,0.7-1.5,1.5-1.5s1.5,0.7,1.5,1.5v30.8
			C404.2,425.4,403.6,426,402.7,426z"/>
	</g>
	<g>
		<path class="st2" d="M407.1,395.3h-32.5c-0.8,0-1.5-0.7-1.5-1.5s0.7-1.5,1.5-1.5h32.5c0.8,0,1.5,0.7,1.5,1.5
			S407.9,395.3,407.1,395.3z"/>
	</g>
	<g>
		<path class="st2" d="M407.1,426.5h-32.5c-0.8,0-1.5-0.7-1.5-1.5s0.7-1.5,1.5-1.5h32.5c0.8,0,1.5,0.7,1.5,1.5
			S407.9,426.5,407.1,426.5z"/>
	</g>
	<g>
		<rect x="380" y="403.3" class="st3" width="22" height="11"/>
		<path class="st2" d="M402,415.8h-22c-0.8,0-1.5-0.7-1.5-1.5v-11c0-0.8,0.7-1.5,1.5-1.5h22c0.8,0,1.5,0.7,1.5,1.5v11
			C403.5,415.1,402.8,415.8,402,415.8z M381.5,412.8h19v-8h-19V412.8z"/>
	</g>
</g>
<g>
	<g>
		<path class="st2" d="M437.9,426c-0.8,0-1.5-0.7-1.5-1.5v-30.8c0-0.8,0.7-1.5,1.5-1.5s1.5,0.7,1.5,1.5v30.8
			C439.4,425.4,438.7,426,437.9,426z"/>
	</g>
	<g>
		<path class="st2" d="M461.7,426c-0.8,0-1.5-0.7-1.5-1.5v-30.8c0-0.8,0.7-1.5,1.5-1.5s1.5,0.7,1.5,1.5v30.8
			C463.2,425.4,462.6,426,461.7,426z"/>
	</g>
	<g>
		<path class="st2" d="M466.1,395.3h-32.5c-0.8,0-1.5-0.7-1.5-1.5s0.7-1.5,1.5-1.5h32.5c0.8,0,1.5,0.7,1.5,1.5
			S466.9,395.3,466.1,395.3z"/>
	</g>
	<g>
		<path class="st2" d="M466.1,426.5h-32.5c-0.8,0-1.5-0.7-1.5-1.5s0.7-1.5,1.5-1.5h32.5c0.8,0,1.5,0.7,1.5,1.5
			S466.9,426.5,466.1,426.5z"/>
	</g>
	<g>
		<rect x="439" y="403.3" class="st5" width="22" height="11"/>
		<path class="st2" d="M461,415.8h-22c-0.8,0-1.5-0.7-1.5-1.5v-11c0-0.8,0.7-1.5,1.5-1.5h22c0.8,0,1.5,0.7,1.5,1.5v11
			C462.5,415.1,461.8,415.8,461,415.8z M440.5,412.8h19v-8h-19V412.8z"/>
	</g>
</g>
<g>
	<path class="st2" d="M496.9,426c-0.8,0-1.5-0.7-1.5-1.5v-30.8c0-0.8,0.7-1.5,1.5-1.5s1.5,0.7,1.5,1.5v30.8
		C498.4,425.4,497.7,426,496.9,426z"/>
</g>
<g>
	<path class="st2" d="M520.7,426c-0.8,0-1.5-0.7-1.5-1.5v-30.8c0-0.8,0.7-1.5,1.5-1.5s1.5,0.7,1.5,1.5v30.8
		C522.2,425.4,521.6,426,520.7,426z"/>
</g>
<g>
	<path class="st2" d="M525.1,395.3h-32.5c-0.8,0-1.5-0.7-1.5-1.5s0.7-1.5,1.5-1.5h32.5c0.8,0,1.5,0.7,1.5,1.5
		S525.9,395.3,525.1,395.3z"/>
</g>
<g>
	<path class="st2" d="M525.1,426.5h-32.5c-0.8,0-1.5-0.7-1.5-1.5s0.7-1.5,1.5-1.5h32.5c0.8,0,1.5,0.7,1.5,1.5
		S525.9,426.5,525.1,426.5z"/>
</g>
<g>
	<rect x="498" y="403.3" class="st3" width="22" height="11"/>
	<path class="st2" d="M520,415.8h-22c-0.8,0-1.5-0.7-1.5-1.5v-11c0-0.8,0.7-1.5,1.5-1.5h22c0.8,0,1.5,0.7,1.5,1.5v11
		C521.5,415.1,520.8,415.8,520,415.8z M499.5,412.8h19v-8h-19V412.8z"/>
</g>
<g>
	<circle class="st6" cx="192.4" cy="149.5" r="23.7"/>
</g>
<g>
	<g>
		<path class="st1" d="M196.9,142.1c0-2.4-2-4.4-4.5-4.4c-2.5,0-4.4,2-4.5,4.4H196.9z"/>
	</g>
	<g>
		<path class="st1" d="M204,150.7h-3.2c0.3-3.1,0-5.7,0-5.9l1.8-1.7c0.3-0.3,0.3-0.9,0-1.2c-0.3-0.3-0.9-0.3-1.2,0l-2.3,2.2h-13.3
			l-2.3-2.2c-0.3-0.3-0.9-0.3-1.2,0c-0.3,0.3-0.3,0.9,0,1.2l1.7,1.7l0,0c0,0.2-0.4,2.8-0.1,5.9h-3.1c-0.5,0-0.8,0.4-0.8,0.8
			s0.4,0.8,0.8,0.8h3.3c0.3,1.5,0.7,3.1,1.4,4.5l-3.3,3.1c-0.3,0.3-0.3,0.9,0,1.2c0.2,0.2,0.4,0.3,0.6,0.3c0.2,0,0.4-0.1,0.6-0.2
			l3.1-2.9c0.1,0.1,0.1,0.2,0.2,0.3c1,1.2,2.3,1.9,3.8,2.2v-11.6h3.7v11.6c1.4-0.3,2.6-1,3.6-2.2c0.1-0.1,0.2-0.3,0.3-0.4l3.1,3
			c0.2,0.2,0.4,0.2,0.6,0.2c0.2,0,0.4-0.1,0.6-0.3c0.3-0.3,0.3-0.9,0-1.2l-3.4-3.2c0.7-1.3,1.1-2.9,1.4-4.4h3.5
			c0.5,0,0.8-0.4,0.8-0.8S204.4,150.7,204,150.7z"/>
	</g>
</g>
<g>
	<path class="st6" d="M430.6,133.1h-58.1c-2.7,0-5.2-0.5-7.7-1.5c-9.6-2.2-16.5-10.8-16.5-20.7c0-8.5,5.1-16.2,12.9-19.5
		c0.6-7.6,7-13.6,14.8-13.6c2,0,4,0.4,5.9,1.2c4.8-9.8,14.6-16,25.7-16c15.8,0,28.6,12.8,28.6,28.6c0,0.6,0,1.1-0.1,1.7
		c8.7,2.4,14.8,10.3,14.8,19.5C450.8,124.1,441.7,133.1,430.6,133.1z M365.1,92.7c0,0,0,0.1,0,0.1c0,0.9-0.5,1.6-1.3,1.9
		c-6.9,2.4-11.5,8.9-11.5,16.2c0,8,5.7,15.1,13.5,16.8c0.1,0,0.2,0.1,0.4,0.1c2,0.9,4.1,1.3,6.3,1.3h58.1c8.9,0,16.2-7.3,16.2-16.2
		c0-7.8-5.6-14.5-13.3-15.9c-1-0.2-1.8-1.2-1.6-2.2c0.1-1.1,0.2-2,0.2-3c0-13.6-11-24.6-24.6-24.6c-10.1,0-19.1,6.1-22.9,15.5
		c-0.2,0.6-0.7,1-1.2,1.2c-0.6,0.2-1.2,0.1-1.7-0.2c-1.7-1.1-3.7-1.7-5.7-1.7C370,81.9,365.1,86.8,365.1,92.7
		C365.1,92.7,365.1,92.7,365.1,92.7z"/>
</g>
<g>
	<path class="st6" d="M401.6,115.7c-2.4,0-4.4-2-4.4-4.4s2-4.4,4.4-4.4s4.4,2,4.4,4.4S404.1,115.7,401.6,115.7z M401.6,109.9
		c-0.8,0-1.4,0.6-1.4,1.4s0.6,1.4,1.4,1.4s1.4-0.6,1.4-1.4S402.4,109.9,401.6,109.9z"/>
</g>
<g>
	<path class="st6" d="M408.2,105.9c-0.4,0-0.8-0.2-1.1-0.5c0,0-2.3-2.3-5.6-2.3c-3.5,0-5.2,2.1-5.3,2.2c-0.5,0.6-1.5,0.8-2.1,0.2
		c-0.6-0.5-0.8-1.4-0.3-2.1c0.1-0.1,2.7-3.3,7.6-3.3c4.7,0,7.7,3.1,7.8,3.2c0.6,0.6,0.5,1.6-0.1,2.1
		C408.9,105.8,408.6,105.9,408.2,105.9z"/>
</g>
<g>
	<path class="st6" d="M391.3,100c-0.3,0-0.6-0.1-0.9-0.3c-0.7-0.5-0.8-1.4-0.3-2.1c0.2-0.2,3.8-4.9,11.1-4.9
		c6.9,0,11.3,4.6,11.5,4.7c0.6,0.6,0.5,1.6-0.1,2.1c-0.6,0.6-1.6,0.5-2.1-0.1c-0.1-0.1-3.7-3.8-9.3-3.8c-5.8,0-8.7,3.7-8.8,3.7
		C392.2,99.8,391.8,100,391.3,100z"/>
</g>
<g>
	<circle class="st6" cx="439.4" cy="128.5" r="23.7"/>
</g>
<g>
	<g>
		<path class="st1" d="M443.9,121.1c0-2.4-2-4.4-4.5-4.4s-4.4,2-4.5,4.4H443.9z"/>
	</g>
	<g>
		<path class="st1" d="M451,129.7h-3.2c0.3-3.1,0-5.7,0-5.9l1.8-1.7c0.3-0.3,0.3-0.9,0-1.2c-0.3-0.3-0.9-0.3-1.2,0l-2.3,2.2h-13.3
			l-2.3-2.2c-0.3-0.3-0.9-0.3-1.2,0c-0.3,0.3-0.3,0.9,0,1.2l1.7,1.7l0,0c0,0.2-0.4,2.8-0.1,5.9h-3.1c-0.5,0-0.8,0.4-0.8,0.8
			s0.4,0.8,0.8,0.8h3.3c0.3,1.5,0.7,3.1,1.4,4.5l-3.3,3.1c-0.3,0.3-0.3,0.9,0,1.2c0.2,0.2,0.4,0.3,0.6,0.3c0.2,0,0.4-0.1,0.6-0.2
			l3.1-2.9c0.1,0.1,0.1,0.2,0.2,0.3c1,1.2,2.3,1.9,3.8,2.2v-11.6h3.7v11.6c1.4-0.3,2.6-1,3.6-2.2c0.1-0.1,0.2-0.3,0.3-0.4l3.1,3
			c0.2,0.2,0.4,0.2,0.6,0.2c0.2,0,0.4-0.1,0.6-0.3c0.3-0.3,0.3-0.9,0-1.2l-3.4-3.2c0.7-1.3,1.1-2.9,1.4-4.4h3.5
			c0.5,0,0.8-0.4,0.8-0.8S451.4,129.7,451,129.7z"/>
	</g>
</g>
<g>
	<circle class="st5" cx="702.6" cy="198" r="24.4"/>
</g>
<g>
	<g>
		<path class="st1" d="M707.2,190.4c0-2.5-2.1-4.5-4.6-4.5c-2.5,0-4.6,2-4.6,4.5H707.2z"/>
	</g>
	<g>
		<path class="st1" d="M714.5,199.2h-3.3c0.3-3.2,0-5.8,0-6.1l1.8-1.7c0.3-0.3,0.4-0.9,0-1.2c-0.3-0.3-0.9-0.4-1.2,0l-2.3,2.2h-13.7
			l-2.3-2.2c-0.3-0.3-0.9-0.3-1.2,0c-0.3,0.3-0.3,0.9,0,1.2l1.8,1.7l0,0c0,0.2-0.4,2.9-0.1,6.1h-3.2c-0.5,0-0.9,0.4-0.9,0.9
			c0,0.5,0.4,0.9,0.9,0.9h3.4c0.3,1.6,0.7,3.2,1.5,4.6l-3.4,3.2c-0.3,0.3-0.4,0.9,0,1.2c0.2,0.2,0.4,0.3,0.6,0.3
			c0.2,0,0.4-0.1,0.6-0.2l3.1-3c0.1,0.1,0.2,0.2,0.2,0.3c1,1.2,2.3,2,3.9,2.3v-11.9h3.8v11.9c1.4-0.3,2.7-1.1,3.7-2.2
			c0.1-0.1,0.2-0.3,0.3-0.4l3.2,3.1c0.2,0.2,0.4,0.2,0.6,0.2c0.2,0,0.5-0.1,0.6-0.3c0.3-0.3,0.3-0.9,0-1.2l-3.5-3.3
			c0.7-1.4,1.2-3,1.4-4.5h3.6c0.5,0,0.9-0.4,0.9-0.9C715.3,199.6,714.9,199.2,714.5,199.2z"/>
	</g>
</g>
<g>
	<g>
		<ellipse class="st8" cx="201.8" cy="475.3" rx="32.8" ry="59"/>
	</g>
	<g>
		<path class="st2" d="M201.6,560.1c-0.6,0-1-0.4-1-1v-64.2c0-0.6,0.4-1,1-1s1,0.4,1,1v64.2C202.6,559.7,202.1,560.1,201.6,560.1z"
			/>
	</g>
	<g>
		<path class="st2" d="M201.6,519.6c-0.2,0-0.4-0.1-0.6-0.2l-13.6-10.2c-0.4-0.3-0.5-1-0.2-1.4c0.3-0.4,1-0.5,1.4-0.2l13.6,10.2
			c0.4,0.3,0.5,1,0.2,1.4C202.2,519.5,201.9,519.6,201.6,519.6z"/>
	</g>
	<g>
		<path class="st2" d="M201.8,528.6c-0.3,0-0.5-0.1-0.7-0.3c-0.4-0.4-0.3-1,0.1-1.4l8.4-7.5c0.4-0.4,1-0.3,1.4,0.1
			c0.4,0.4,0.3,1-0.1,1.4l-8.4,7.5C202.3,528.5,202.1,528.6,201.8,528.6z"/>
	</g>
	<g>
		<path class="st2" d="M203.2,509.4c-0.2,0-0.5-0.1-0.6-0.2c-0.4-0.4-0.5-1-0.1-1.4l11.2-13.5c0.4-0.4,1-0.5,1.4-0.1
			c0.4,0.4,0.5,1,0.1,1.4L204,509C203.8,509.3,203.5,509.4,203.2,509.4z"/>
	</g>
</g>
<g>
	<g>
		<path class="st9" d="M122.7,314.2c-2.2,0-4.1-1.7-4.1-3.8s1.8-3.8,4.1-3.8s4.1,1.7,4.1,3.8S124.9,314.2,122.7,314.2z M122.7,309.6
			c-0.6,0-1.1,0.4-1.1,0.8s0.5,0.8,1.1,0.8s1.1-0.4,1.1-0.8S123.2,309.6,122.7,309.6z"/>
	</g>
	<g>
		<path class="st9" d="M128.5,304.5c-0.4,0-0.7-0.1-1-0.4c0,0-2-1.8-4.9-1.8c-3,0-4.5,1.6-4.6,1.7c-0.6,0.6-1.5,0.7-2.1,0.1
			c-0.6-0.5-0.7-1.5-0.1-2.1c0.1-0.1,2.4-2.7,6.8-2.7c4.2,0,6.9,2.5,7,2.6c0.6,0.6,0.6,1.5,0.1,2.1
			C129.3,304.3,128.9,304.5,128.5,304.5z"/>
	</g>
	<g>
		<path class="st9" d="M113.5,297.9c-0.4,0-0.7-0.1-1-0.4c-0.6-0.5-0.7-1.5-0.1-2.1c0.1-0.2,3.5-3.9,9.9-3.9
			c6.2,0,10.1,3.6,10.2,3.8c0.6,0.6,0.6,1.5,0.1,2.1c-0.6,0.6-1.5,0.6-2.1,0.1l0,0c0,0-3.2-3-8.2-3c-5.1,0-7.7,2.8-7.7,2.8
			C114.4,297.7,113.9,297.9,113.5,297.9z"/>
	</g>
	<g>
		<path class="st9" d="M135,291.4c-0.4,0-0.7-0.1-1-0.4l0,0c0,0-4.6-4.2-11.6-4.2c-7.2,0-10.8,3.9-11,4.1c-0.6,0.6-1.5,0.7-2.1,0.1
			c-0.6-0.5-0.7-1.5-0.1-2.1c0.2-0.2,4.6-5.1,13.2-5.1c8.2,0,13.4,4.8,13.6,5c0.6,0.6,0.6,1.5,0.1,2.1
			C135.8,291.2,135.4,291.4,135,291.4z"/>
	</g>
</g>
<g>
	<path class="st6" d="M346.1,269.1C346.1,269.1,346.1,269.1,346.1,269.1c-0.7,0-1.4-0.1-2-0.1c-0.6,0-1-0.5-0.9-1c0-0.6,0.5-1,1-0.9
		c0.7,0,1.3,0.1,2,0.1c0.6,0,1,0.5,1,1C347.1,268.7,346.6,269.1,346.1,269.1z M338.1,268.6C338.1,268.6,338.1,268.6,338.1,268.6
		c-0.7,0-1.4-0.1-2.1-0.2c-0.6,0-1-0.5-0.9-1.1s0.5-1,1.1-0.9c0.7,0.1,1.3,0.1,2,0.1c0.6,0,1,0.5,0.9,1.1
		C339.1,268.2,338.7,268.6,338.1,268.6z M330.2,268C330.1,268,330.1,268,330.2,268c-0.8-0.1-1.4-0.1-2.1-0.2
		c-0.5-0.1-0.9-0.5-0.9-1.1c0.1-0.5,0.5-1,1.1-0.9c0.7,0.1,1.3,0.1,2,0.2c0.5,0.1,1,0.5,0.9,1.1C331.1,267.6,330.7,268,330.2,268z
		 M322.2,267.1c0,0-0.1,0-0.1,0c-0.7-0.1-1.3-0.2-2-0.3c-0.5-0.1-0.9-0.6-0.9-1.1c0.1-0.5,0.6-0.9,1.1-0.9c0.7,0.1,1.3,0.2,2,0.3
		c0.5,0.1,0.9,0.6,0.9,1.1C323.1,266.7,322.7,267.1,322.2,267.1z M314.3,266c-0.1,0-0.1,0-0.2,0c-0.7-0.1-1.3-0.2-2-0.3
		c-0.5-0.1-0.9-0.6-0.8-1.1c0.1-0.5,0.6-0.9,1.1-0.8c0.7,0.1,1.3,0.2,2,0.3c0.5,0.1,0.9,0.6,0.8,1.1
		C315.2,265.6,314.8,266,314.3,266z M306.4,264.6c-0.1,0-0.1,0-0.2,0c-0.7-0.1-1.3-0.2-2-0.4c-0.5-0.1-0.9-0.6-0.8-1.2
		c0.1-0.5,0.6-0.9,1.2-0.8c0.6,0.1,1.3,0.2,2,0.4c0.5,0.1,0.9,0.6,0.8,1.2C307.3,264.3,306.9,264.6,306.4,264.6z M298.6,263.1
		c-0.1,0-0.1,0-0.2,0c-0.7-0.1-1.3-0.3-2-0.4c-0.5-0.1-0.9-0.7-0.8-1.2c0.1-0.5,0.7-0.9,1.2-0.8c0.6,0.1,1.3,0.3,1.9,0.4
		c0.5,0.1,0.9,0.6,0.8,1.2C299.4,262.8,299,263.1,298.6,263.1z M290.8,261.3c-0.1,0-0.2,0-0.2,0c-0.7-0.2-1.3-0.3-1.9-0.5
		c-0.5-0.1-0.9-0.7-0.7-1.2c0.1-0.5,0.7-0.9,1.2-0.7c0.6,0.2,1.3,0.3,1.9,0.5c0.5,0.1,0.9,0.7,0.7,1.2
		C291.6,261,291.2,261.3,290.8,261.3z M283.1,259.2c-0.1,0-0.2,0-0.3,0c-0.6-0.2-1.3-0.4-1.9-0.6c-0.5-0.2-0.8-0.7-0.7-1.2
		s0.7-0.8,1.2-0.7c0.6,0.2,1.3,0.4,1.9,0.6c0.5,0.2,0.8,0.7,0.7,1.2C283.9,258.9,283.5,259.2,283.1,259.2z M275.4,256.9
		c-0.1,0-0.2,0-0.3,0c-0.6-0.2-1.3-0.4-1.9-0.6c-0.5-0.2-0.8-0.7-0.6-1.3c0.2-0.5,0.7-0.8,1.3-0.6c0.6,0.2,1.3,0.4,1.9,0.6
		c0.5,0.2,0.8,0.7,0.6,1.3C276.2,256.6,275.8,256.9,275.4,256.9z M267.8,254.3c-0.1,0-0.2,0-0.3-0.1c-0.6-0.2-1.3-0.5-1.9-0.7
		c-0.5-0.2-0.8-0.8-0.6-1.3c0.2-0.5,0.8-0.8,1.3-0.6c0.6,0.2,1.2,0.5,1.9,0.7c0.5,0.2,0.8,0.8,0.6,1.3
		C268.6,254.1,268.2,254.3,267.8,254.3z M260.4,251.5c-0.1,0-0.2,0-0.4-0.1c-0.6-0.2-1.2-0.5-1.9-0.8c-0.5-0.2-0.8-0.8-0.5-1.3
		c0.2-0.5,0.8-0.8,1.3-0.5c0.6,0.3,1.2,0.5,1.8,0.7c0.5,0.2,0.8,0.8,0.6,1.3C261.1,251.3,260.8,251.5,260.4,251.5z M253,248.4
		c-0.1,0-0.3,0-0.4-0.1c-0.6-0.3-1.2-0.5-1.8-0.8c-0.5-0.2-0.7-0.8-0.5-1.3c0.2-0.5,0.8-0.7,1.3-0.5c0.6,0.3,1.2,0.5,1.8,0.8
		c0.5,0.2,0.7,0.8,0.5,1.3C253.7,248.2,253.4,248.4,253,248.4z M245.7,245c-0.1,0-0.3,0-0.4-0.1c-0.6-0.3-1.2-0.6-1.8-0.9
		c-0.5-0.2-0.7-0.8-0.5-1.3s0.8-0.7,1.3-0.5c0.6,0.3,1.2,0.6,1.8,0.9c0.5,0.2,0.7,0.8,0.5,1.3C246.4,244.8,246.1,245,245.7,245z
		 M238.6,241.4c-0.2,0-0.3,0-0.5-0.1c-0.6-0.3-1.2-0.6-1.8-1c-0.5-0.3-0.7-0.9-0.4-1.4c0.3-0.5,0.9-0.7,1.4-0.4
		c0.6,0.3,1.2,0.6,1.8,0.9c0.5,0.3,0.7,0.9,0.4,1.4C239.3,241.2,239,241.4,238.6,241.4z M231.6,237.5c-0.2,0-0.3,0-0.5-0.1
		c-0.6-0.3-1.2-0.7-1.7-1c-0.5-0.3-0.6-0.9-0.3-1.4c0.3-0.5,0.9-0.6,1.4-0.3c0.6,0.3,1.1,0.7,1.7,1c0.5,0.3,0.6,0.9,0.4,1.4
		C232.3,237.3,232,237.5,231.6,237.5z M224.8,233.4c-0.2,0-0.4-0.1-0.5-0.2c-0.6-0.4-1.1-0.7-1.7-1.1c-0.5-0.3-0.6-0.9-0.3-1.4
		c0.3-0.5,0.9-0.6,1.4-0.3c0.6,0.4,1.1,0.7,1.7,1.1c0.5,0.3,0.6,0.9,0.3,1.4C225.4,233.2,225.1,233.4,224.8,233.4z M218.1,229
		c-0.2,0-0.4-0.1-0.6-0.2c-0.6-0.4-1.1-0.8-1.6-1.1c-0.5-0.3-0.6-0.9-0.2-1.4s0.9-0.6,1.4-0.2c0.5,0.4,1.1,0.8,1.6,1.1
		c0.5,0.3,0.6,0.9,0.3,1.4C218.7,228.8,218.4,229,218.1,229z M211.6,224.3c-0.2,0-0.4-0.1-0.6-0.2c-0.5-0.4-1.1-0.8-1.6-1.2
		c-0.4-0.3-0.5-1-0.2-1.4s1-0.5,1.4-0.2c0.5,0.4,1.1,0.8,1.6,1.2c0.4,0.3,0.5,1,0.2,1.4C212.2,224.1,211.9,224.3,211.6,224.3z
		 M205.3,219.4c-0.2,0-0.4-0.1-0.6-0.2c-0.5-0.4-1-0.8-1.6-1.3c-0.4-0.4-0.5-1-0.1-1.4c0.4-0.4,1-0.5,1.4-0.1c0.5,0.4,1,0.8,1.5,1.3
		c0.4,0.3,0.5,1,0.1,1.4C205.9,219.2,205.6,219.4,205.3,219.4z M199.2,214.2c-0.2,0-0.5-0.1-0.7-0.2c-0.5-0.4-1-0.9-1.5-1.3
		c-0.4-0.4-0.4-1-0.1-1.4c0.4-0.4,1-0.4,1.4-0.1c0.5,0.4,1,0.9,1.5,1.3c0.4,0.4,0.5,1,0.1,1.4C199.7,214.1,199.5,214.2,199.2,214.2z
		 M193.3,208.8c-0.2,0-0.5-0.1-0.7-0.3c-0.5-0.5-1-0.9-1.4-1.4c-0.4-0.4-0.4-1,0-1.4c0.4-0.4,1-0.4,1.4,0c0.5,0.5,0.9,0.9,1.4,1.4
		c0.4,0.4,0.4,1,0,1.4C193.8,208.7,193.6,208.8,193.3,208.8z M187.6,203.2c-0.3,0-0.5-0.1-0.7-0.3c-0.5-0.5-0.9-1-1.4-1.5
		c-0.4-0.4-0.4-1,0-1.4s1-0.4,1.4,0c0.5,0.5,0.9,1,1.4,1.4c0.4,0.4,0.4,1,0,1.4C188.1,203.1,187.9,203.2,187.6,203.2z M182.2,197.3
		c-0.3,0-0.5-0.1-0.7-0.3c-0.4-0.5-0.9-1-1.3-1.5c-0.4-0.4-0.3-1,0.1-1.4c0.4-0.4,1-0.3,1.4,0.1c0.4,0.5,0.9,1,1.3,1.5
		c0.4,0.4,0.3,1-0.1,1.4C182.6,197.2,182.4,197.3,182.2,197.3z M177,191.2c-0.3,0-0.6-0.1-0.8-0.4c-0.4-0.5-0.9-1-1.3-1.6
		c-0.3-0.4-0.3-1.1,0.2-1.4c0.4-0.3,1.1-0.3,1.4,0.2c0.4,0.5,0.8,1,1.3,1.5c0.4,0.4,0.3,1.1-0.1,1.4
		C177.4,191.1,177.2,191.2,177,191.2z M172,184.9c-0.3,0-0.6-0.1-0.8-0.4c-0.4-0.5-0.8-1.1-1.2-1.6c-0.3-0.4-0.2-1.1,0.2-1.4
		c0.4-0.3,1.1-0.2,1.4,0.2c0.4,0.5,0.8,1.1,1.2,1.6c0.3,0.4,0.2,1.1-0.2,1.4C172.5,184.8,172.2,184.9,172,184.9z M167.4,178.4
		c-0.3,0-0.6-0.2-0.8-0.4c-0.4-0.6-0.8-1.1-1.1-1.7c-0.3-0.5-0.2-1.1,0.3-1.4c0.5-0.3,1.1-0.2,1.4,0.3c0.4,0.5,0.7,1.1,1.1,1.6
		c0.3,0.5,0.2,1.1-0.3,1.4C167.8,178.3,167.6,178.4,167.4,178.4z M163,171.7c-0.3,0-0.7-0.2-0.9-0.5c-0.4-0.6-0.7-1.2-1-1.7
		c-0.3-0.5-0.1-1.1,0.3-1.4c0.5-0.3,1.1-0.1,1.4,0.3c0.3,0.6,0.7,1.1,1,1.7c0.3,0.5,0.1,1.1-0.3,1.4
		C163.3,171.6,163.2,171.7,163,171.7z M158.9,164.8c-0.4,0-0.7-0.2-0.9-0.5c-0.3-0.6-0.7-1.2-1-1.8c-0.3-0.5-0.1-1.1,0.4-1.4
		c0.5-0.3,1.1-0.1,1.4,0.4c0.3,0.6,0.6,1.1,0.9,1.8c0.3,0.5,0.1,1.1-0.4,1.4C159.3,164.7,159.1,164.8,158.9,164.8z M155.3,157.6
		c-0.4,0-0.7-0.2-0.9-0.6c-0.6-1.2-0.8-1.9-0.8-1.9c-0.2-0.5,0-1.1,0.6-1.3s1.1,0,1.3,0.6c0,0,0.3,0.6,0.8,1.8
		c0.2,0.5,0,1.1-0.5,1.3C155.6,157.6,155.5,157.6,155.3,157.6z"/>
</g>
<g>
	<path class="st6" d="M391,226.4C391,226.4,391,226.4,391,226.4c-0.6,0-1-0.5-1-1l0-2c0-0.6,0.4-1,1-1c0.6,0,1,0.5,1,1l0,2
		C392,225.9,391.6,226.4,391,226.4z M391.1,218.3C391.1,218.3,391.1,218.3,391.1,218.3c-0.6,0-1-0.5-1-1l0-2c0-0.6,0.5-1,1-1
		c0.6,0,1,0.5,1,1l0,2C392.1,217.9,391.7,218.3,391.1,218.3z M391.4,210.3C391.3,210.3,391.3,210.3,391.4,210.3c-0.6,0-1-0.5-1-1
		l0.1-2c0-0.6,0.5-1,1-1c0.6,0,1,0.5,1,1l-0.1,2C392.3,209.9,391.9,210.3,391.4,210.3z M391.6,202.3
		C391.6,202.3,391.6,202.3,391.6,202.3c-0.6,0-1-0.5-1-1l0.1-2c0-0.6,0.5-1,1-1c0.6,0,1,0.5,1,1l-0.1,2
		C392.6,201.9,392.2,202.3,391.6,202.3z M392,194.3C391.9,194.3,391.9,194.3,392,194.3c-0.6,0-1-0.5-1-1l0.1-2c0-0.6,0.5-1,1-1
		c0.6,0,1,0.5,1,1l-0.1,2C392.9,193.9,392.5,194.3,392,194.3z M392.3,186.3C392.3,186.3,392.3,186.3,392.3,186.3c-0.6,0-1-0.5-1-1
		l0.1-2c0-0.6,0.5-1,1-1c0.6,0,1,0.5,1,1l-0.1,2C393.3,185.9,392.8,186.3,392.3,186.3z M392.7,178.3
		C392.7,178.3,392.7,178.3,392.7,178.3c-0.6,0-1-0.5-1-1l0.1-2c0-0.6,0.5-1,1-0.9c0.6,0,1,0.5,0.9,1l-0.1,2
		C393.7,177.9,393.2,178.3,392.7,178.3z M393.1,170.3C393.1,170.3,393.1,170.3,393.1,170.3c-0.6,0-1-0.5-1-1.1l0.1-2
		c0-0.6,0.5-1,1.1-0.9c0.6,0,1,0.5,0.9,1.1l-0.1,2C394.1,169.9,393.6,170.3,393.1,170.3z M393.5,162.3
		C393.5,162.3,393.5,162.3,393.5,162.3c-0.6,0-1-0.5-1-1.1l0.1-1.9c0-0.6,0.5-1,1.1-1c0.6,0,1,0.5,0.9,1l-0.1,2
		C394.5,161.9,394,162.3,393.5,162.3z M394,154.3C393.9,154.3,393.9,154.3,394,154.3c-0.6,0-1-0.5-1-1.1l0.1-2c0-0.6,0.5-1,1.1-0.9
		c0.6,0,1,0.5,0.9,1.1l-0.1,2C394.9,153.9,394.5,154.3,394,154.3z M394.4,146.3C394.4,146.3,394.4,146.3,394.4,146.3
		c-0.6,0-1-0.5-1-1.1l0.1-2c0-0.6,0.5-1,1.1-0.9c0.6,0,1,0.5,0.9,1.1l-0.1,2C395.4,145.9,394.9,146.3,394.4,146.3z M394.9,138.3
		C394.9,138.3,394.8,138.3,394.9,138.3c-0.6,0-1-0.5-1-1.1l0.1-2c0-0.6,0.5-1,1.1-0.9c0.6,0,1,0.5,0.9,1.1l-0.1,2
		C395.8,137.9,395.4,138.3,394.9,138.3z"/>
</g>
</svg>
