<?xml version="1.0" encoding="utf-8"?>
<!-- Generator: Adobe Illustrator 21.1.0, SVG Export Plug-In . SVG Version: 6.00 Build 0)  -->
<svg version="1.1" id="Layer_1" xmlns="http://www.w3.org/2000/svg" xmlns:xlink="http://www.w3.org/1999/xlink" x="0px" y="0px"
	 width="474.3px" height="759.9px" viewBox="0 0 474.3 759.9" style="enable-background:new 0 0 474.3 759.9;" xml:space="preserve"
	>
<style type="text/css">
	.st0{clip-path:url(#SVGID_2_);}
	.st1{fill:#C1C1C1;}
	.st2{font-family:'MyriadPro-Regular';}
	.st3{font-size:24.1204px;}
	.st4{fill:#494F51;}
	.st5{opacity:0.4;fill:#D75352;}
	.st6{opacity:0.1;}
	
		.st7{fill:none;stroke:#404751;stroke-width:3;stroke-linecap:round;stroke-linejoin:round;stroke-miterlimit:10;stroke-dasharray:12;}
	.st8{fill:none;stroke:#404751;stroke-width:3;stroke-linecap:round;stroke-linejoin:round;stroke-miterlimit:10;}
	.st9{opacity:0.4;fill:#41ACE1;}
	.st10{opacity:0.4;fill:#E6BC45;}
	.st11{fill:none;stroke:#404751;stroke-width:3;stroke-linecap:round;stroke-linejoin:round;stroke-dasharray:11.8914,11.8914;}
	.st12{fill:none;stroke:#404751;stroke-width:3;stroke-linecap:round;stroke-linejoin:round;}
	.st13{fill:none;stroke:#404751;stroke-width:3;stroke-linecap:round;stroke-linejoin:round;stroke-dasharray:12.2614,12.2614;}
	.st14{fill:none;stroke:#D75352;stroke-width:12;stroke-linejoin:round;stroke-miterlimit:10;}
	.st15{fill:none;stroke:#D75352;stroke-width:12;stroke-linecap:round;stroke-linejoin:round;stroke-miterlimit:10;}
	.st16{opacity:0.1;fill:#D75352;}
	.st17{opacity:0.2;fill:url(#SVGID_5_);}
	.st18{opacity:0.5;fill:#E7E6E6;}
	.st19{fill:#404751;}
</style>
<g>
	<g>
		<defs>
			<circle id="SVGID_1_" cx="170.2" cy="566.6" r="92.3"/>
		</defs>
		<clipPath id="SVGID_2_">
			<use xlink:href="#SVGID_1_"  style="overflow:visible;"/>
		</clipPath>
		<g class="st0">
			<text transform="matrix(1 0 0 1 199.2799 -81.924)"><tspan x="0" y="0" class="st1 st2 st3">0</tspan><tspan x="0" y="28.9" class="st1 st2 st3">1</tspan><tspan x="0" y="57.9" class="st1 st2 st3">0</tspan><tspan x="0" y="86.8" class="st1 st2 st3">1</tspan><tspan x="0" y="115.8" class="st1 st2 st3">0</tspan><tspan x="0" y="144.7" class="st1 st2 st3">1</tspan><tspan x="0" y="173.7" class="st1 st2 st3">0</tspan><tspan x="0" y="202.6" class="st1 st2 st3">1</tspan><tspan x="0" y="231.6" class="st1 st2 st3">0</tspan><tspan x="0" y="260.5" class="st1 st2 st3">1</tspan><tspan x="0" y="289.4" class="st1 st2 st3">0</tspan><tspan x="0" y="318.4" class="st1 st2 st3">1</tspan><tspan x="0" y="347.3" class="st1 st2 st3">0</tspan><tspan x="0" y="376.3" class="st1 st2 st3">1</tspan><tspan x="0" y="405.2" class="st1 st2 st3">0</tspan><tspan x="0" y="434.2" class="st1 st2 st3">1</tspan><tspan x="0" y="463.1" class="st1 st2 st3">0</tspan><tspan x="0" y="492.1" class="st1 st2 st3">1</tspan><tspan x="0" y="521" class="st1 st2 st3">0</tspan><tspan x="0" y="549.9" class="st1 st2 st3">1</tspan><tspan x="0" y="578.9" class="st1 st2 st3">0</tspan><tspan x="0" y="607.8" class="st1 st2 st3">1</tspan><tspan x="0" y="636.8" class="st1 st2 st3">0</tspan><tspan x="0" y="665.7" class="st1 st2 st3">1</tspan><tspan x="0" y="694.7" class="st1 st2 st3">0</tspan><tspan x="0" y="723.6" class="st1 st2 st3">1</tspan><tspan x="0" y="752.6" class="st1 st2 st3">0</tspan><tspan x="0" y="781.5" class="st1 st2 st3">1</tspan><tspan x="0" y="810.4" class="st1 st2 st3">0</tspan><tspan x="0" y="839.4" class="st1 st2 st3">1</tspan><tspan x="0" y="868.3" class="st1 st2 st3">0</tspan><tspan x="0" y="897.3" class="st1 st2 st3">1</tspan></text>
			<text transform="matrix(1 0 0 1 239.3414 -95.5451)"><tspan x="0" y="0" class="st1 st2 st3">0</tspan><tspan x="0" y="28.9" class="st1 st2 st3">1</tspan><tspan x="0" y="57.9" class="st1 st2 st3">0</tspan><tspan x="0" y="86.8" class="st1 st2 st3">1</tspan><tspan x="0" y="115.8" class="st1 st2 st3">0</tspan><tspan x="0" y="144.7" class="st1 st2 st3">1</tspan><tspan x="0" y="173.7" class="st1 st2 st3">0</tspan><tspan x="0" y="202.6" class="st1 st2 st3">1</tspan><tspan x="0" y="231.6" class="st1 st2 st3">0</tspan><tspan x="0" y="260.5" class="st1 st2 st3">1</tspan><tspan x="0" y="289.4" class="st1 st2 st3">0</tspan><tspan x="0" y="318.4" class="st1 st2 st3">1</tspan><tspan x="0" y="347.3" class="st1 st2 st3">0</tspan><tspan x="0" y="376.3" class="st1 st2 st3">1</tspan><tspan x="0" y="405.2" class="st1 st2 st3">0</tspan><tspan x="0" y="434.2" class="st1 st2 st3">1</tspan><tspan x="0" y="463.1" class="st1 st2 st3">0</tspan><tspan x="0" y="492.1" class="st1 st2 st3">1</tspan><tspan x="0" y="521" class="st1 st2 st3">0</tspan><tspan x="0" y="549.9" class="st1 st2 st3">1</tspan><tspan x="0" y="578.9" class="st1 st2 st3">0</tspan><tspan x="0" y="607.8" class="st1 st2 st3">1</tspan><tspan x="0" y="636.8" class="st1 st2 st3">0</tspan><tspan x="0" y="665.7" class="st1 st2 st3">1</tspan><tspan x="0" y="694.7" class="st1 st2 st3">0</tspan><tspan x="0" y="723.6" class="st1 st2 st3">1</tspan><tspan x="0" y="752.6" class="st1 st2 st3">0</tspan><tspan x="0" y="781.5" class="st1 st2 st3">1</tspan><tspan x="0" y="810.4" class="st1 st2 st3">0</tspan><tspan x="0" y="839.4" class="st1 st2 st3">1</tspan><tspan x="0" y="868.3" class="st1 st2 st3">0</tspan><tspan x="0" y="897.3" class="st1 st2 st3">1</tspan></text>
			<text transform="matrix(1 0 0 1 317.9439 -75.5558)"><tspan x="0" y="0" class="st1 st2 st3">0</tspan><tspan x="0" y="28.9" class="st1 st2 st3">1</tspan><tspan x="0" y="57.9" class="st1 st2 st3">0</tspan><tspan x="0" y="86.8" class="st1 st2 st3">1</tspan><tspan x="0" y="115.8" class="st1 st2 st3">0</tspan><tspan x="0" y="144.7" class="st1 st2 st3">1</tspan><tspan x="0" y="173.7" class="st1 st2 st3">0</tspan><tspan x="0" y="202.6" class="st1 st2 st3">1</tspan><tspan x="0" y="231.6" class="st1 st2 st3">0</tspan><tspan x="0" y="260.5" class="st1 st2 st3">1</tspan><tspan x="0" y="289.4" class="st1 st2 st3">0</tspan><tspan x="0" y="318.4" class="st1 st2 st3">1</tspan><tspan x="0" y="347.3" class="st1 st2 st3">0</tspan><tspan x="0" y="376.3" class="st1 st2 st3">1</tspan><tspan x="0" y="405.2" class="st1 st2 st3">0</tspan><tspan x="0" y="434.2" class="st1 st2 st3">1</tspan><tspan x="0" y="463.1" class="st1 st2 st3">0</tspan><tspan x="0" y="492.1" class="st1 st2 st3">1</tspan><tspan x="0" y="521" class="st1 st2 st3">0</tspan><tspan x="0" y="549.9" class="st1 st2 st3">1</tspan><tspan x="0" y="578.9" class="st1 st2 st3">0</tspan><tspan x="0" y="607.8" class="st1 st2 st3">1</tspan><tspan x="0" y="636.8" class="st1 st2 st3">0</tspan><tspan x="0" y="665.7" class="st1 st2 st3">1</tspan><tspan x="0" y="694.7" class="st1 st2 st3">0</tspan><tspan x="0" y="723.6" class="st1 st2 st3">1</tspan><tspan x="0" y="752.6" class="st1 st2 st3">0</tspan><tspan x="0" y="781.5" class="st1 st2 st3">1</tspan><tspan x="0" y="810.4" class="st1 st2 st3">0</tspan><tspan x="0" y="839.4" class="st1 st2 st3">1</tspan><tspan x="0" y="868.3" class="st1 st2 st3">0</tspan><tspan x="0" y="897.3" class="st1 st2 st3">1</tspan></text>
			<text transform="matrix(1 0 0 1 280.5011 -91.9816)"><tspan x="0" y="0" class="st1 st2 st3">0</tspan><tspan x="0" y="28.9" class="st1 st2 st3">1</tspan><tspan x="0" y="57.9" class="st1 st2 st3">0</tspan><tspan x="0" y="86.8" class="st1 st2 st3">1</tspan><tspan x="0" y="115.8" class="st1 st2 st3">0</tspan><tspan x="0" y="144.7" class="st1 st2 st3">1</tspan><tspan x="0" y="173.7" class="st1 st2 st3">0</tspan><tspan x="0" y="202.6" class="st1 st2 st3">1</tspan><tspan x="0" y="231.6" class="st1 st2 st3">0</tspan><tspan x="0" y="260.5" class="st1 st2 st3">1</tspan><tspan x="0" y="289.4" class="st1 st2 st3">0</tspan><tspan x="0" y="318.4" class="st1 st2 st3">1</tspan><tspan x="0" y="347.3" class="st1 st2 st3">0</tspan><tspan x="0" y="376.3" class="st1 st2 st3">1</tspan><tspan x="0" y="405.2" class="st1 st2 st3">0</tspan><tspan x="0" y="434.2" class="st1 st2 st3">1</tspan><tspan x="0" y="463.1" class="st1 st2 st3">0</tspan><tspan x="0" y="492.1" class="st1 st2 st3">1</tspan><tspan x="0" y="521" class="st1 st2 st3">0</tspan><tspan x="0" y="549.9" class="st1 st2 st3">1</tspan><tspan x="0" y="578.9" class="st1 st2 st3">0</tspan><tspan x="0" y="607.8" class="st1 st2 st3">1</tspan><tspan x="0" y="636.8" class="st1 st2 st3">0</tspan><tspan x="0" y="665.7" class="st1 st2 st3">1</tspan><tspan x="0" y="694.7" class="st1 st2 st3">0</tspan><tspan x="0" y="723.6" class="st1 st2 st3">1</tspan><tspan x="0" y="752.6" class="st1 st2 st3">0</tspan><tspan x="0" y="781.5" class="st1 st2 st3">1</tspan><tspan x="0" y="810.4" class="st1 st2 st3">0</tspan><tspan x="0" y="839.4" class="st1 st2 st3">1</tspan><tspan x="0" y="868.3" class="st1 st2 st3">0</tspan><tspan x="0" y="897.3" class="st1 st2 st3">1</tspan></text>
			<text transform="matrix(1 0 0 1 222.4312 -84.9464)"><tspan x="0" y="0" class="st4 st2 st3">1</tspan><tspan x="0" y="28.9" class="st4 st2 st3">0</tspan><tspan x="0" y="57.9" class="st4 st2 st3">1</tspan><tspan x="0" y="86.8" class="st4 st2 st3">0</tspan><tspan x="0" y="115.8" class="st4 st2 st3">1</tspan><tspan x="0" y="144.7" class="st4 st2 st3">0</tspan><tspan x="0" y="173.7" class="st4 st2 st3">1</tspan><tspan x="0" y="202.6" class="st4 st2 st3">0</tspan><tspan x="0" y="231.6" class="st4 st2 st3">1</tspan><tspan x="0" y="260.5" class="st4 st2 st3">0</tspan><tspan x="0" y="289.4" class="st4 st2 st3">1</tspan><tspan x="0" y="318.4" class="st4 st2 st3">0</tspan><tspan x="0" y="347.3" class="st4 st2 st3">1</tspan><tspan x="0" y="376.3" class="st4 st2 st3">0</tspan><tspan x="0" y="405.2" class="st4 st2 st3">1</tspan><tspan x="0" y="434.2" class="st4 st2 st3">0</tspan><tspan x="0" y="463.1" class="st4 st2 st3">1</tspan><tspan x="0" y="492.1" class="st4 st2 st3">0</tspan><tspan x="0" y="521" class="st4 st2 st3">1</tspan><tspan x="0" y="549.9" class="st4 st2 st3">0</tspan><tspan x="0" y="578.9" class="st4 st2 st3">1</tspan><tspan x="0" y="607.8" class="st4 st2 st3">0</tspan><tspan x="0" y="636.8" class="st4 st2 st3">1</tspan><tspan x="0" y="665.7" class="st4 st2 st3">0</tspan><tspan x="0" y="694.7" class="st4 st2 st3">1</tspan><tspan x="0" y="723.6" class="st4 st2 st3">0</tspan><tspan x="0" y="752.6" class="st4 st2 st3">1</tspan><tspan x="0" y="781.5" class="st4 st2 st3">0</tspan><tspan x="0" y="810.4" class="st4 st2 st3">1</tspan><tspan x="0" y="839.4" class="st4 st2 st3">0</tspan><tspan x="0" y="868.3" class="st4 st2 st3">1</tspan><tspan x="0" y="897.3" class="st4 st2 st3">0</tspan><tspan x="0" y="926.2" class="st4 st2 st3">1</tspan></text>
			<text transform="matrix(1 0 0 1 300.5372 -84.9464)"><tspan x="0" y="0" class="st4 st2 st3">1</tspan><tspan x="0" y="28.9" class="st4 st2 st3">0</tspan><tspan x="0" y="57.9" class="st4 st2 st3">1</tspan><tspan x="0" y="86.8" class="st4 st2 st3">0</tspan><tspan x="0" y="115.8" class="st4 st2 st3">1</tspan><tspan x="0" y="144.7" class="st4 st2 st3">0</tspan><tspan x="0" y="173.7" class="st4 st2 st3">1</tspan><tspan x="0" y="202.6" class="st4 st2 st3">0</tspan><tspan x="0" y="231.6" class="st4 st2 st3">1</tspan><tspan x="0" y="260.5" class="st4 st2 st3">0</tspan><tspan x="0" y="289.4" class="st4 st2 st3">1</tspan><tspan x="0" y="318.4" class="st4 st2 st3">0</tspan><tspan x="0" y="347.3" class="st4 st2 st3">1</tspan><tspan x="0" y="376.3" class="st4 st2 st3">0</tspan><tspan x="0" y="405.2" class="st4 st2 st3">1</tspan><tspan x="0" y="434.2" class="st4 st2 st3">0</tspan><tspan x="0" y="463.1" class="st4 st2 st3">1</tspan><tspan x="0" y="492.1" class="st4 st2 st3">0</tspan><tspan x="0" y="521" class="st4 st2 st3">1</tspan><tspan x="0" y="549.9" class="st4 st2 st3">0</tspan><tspan x="0" y="578.9" class="st4 st2 st3">1</tspan><tspan x="0" y="607.8" class="st4 st2 st3">0</tspan><tspan x="0" y="636.8" class="st4 st2 st3">1</tspan><tspan x="0" y="665.7" class="st4 st2 st3">0</tspan><tspan x="0" y="694.7" class="st4 st2 st3">1</tspan><tspan x="0" y="723.6" class="st4 st2 st3">0</tspan><tspan x="0" y="752.6" class="st4 st2 st3">1</tspan><tspan x="0" y="781.5" class="st4 st2 st3">0</tspan><tspan x="0" y="810.4" class="st4 st2 st3">1</tspan><tspan x="0" y="839.4" class="st4 st2 st3">0</tspan><tspan x="0" y="868.3" class="st4 st2 st3">1</tspan><tspan x="0" y="897.3" class="st4 st2 st3">0</tspan><tspan x="0" y="926.2" class="st4 st2 st3">1</tspan><tspan x="-1.5" y="1042" class="st4 st2 st3">   </tspan></text>
			<text transform="matrix(1 0 0 1 261.485 -108.2882)"><tspan x="0" y="0" class="st4 st2 st3">0</tspan><tspan x="0" y="28.9" class="st4 st2 st3">1</tspan><tspan x="0" y="57.9" class="st4 st2 st3">0</tspan><tspan x="0" y="86.8" class="st4 st2 st3">1</tspan><tspan x="0" y="115.8" class="st4 st2 st3">0</tspan><tspan x="0" y="144.7" class="st4 st2 st3">1</tspan><tspan x="0" y="173.7" class="st4 st2 st3">0</tspan><tspan x="0" y="202.6" class="st4 st2 st3">1</tspan><tspan x="0" y="231.6" class="st4 st2 st3">0</tspan><tspan x="0" y="260.5" class="st4 st2 st3">1</tspan><tspan x="0" y="289.4" class="st4 st2 st3">0</tspan><tspan x="0" y="318.4" class="st4 st2 st3">1</tspan><tspan x="0" y="347.3" class="st4 st2 st3">0</tspan><tspan x="0" y="376.3" class="st4 st2 st3">1</tspan><tspan x="0" y="405.2" class="st4 st2 st3">0</tspan><tspan x="0" y="434.2" class="st4 st2 st3">1</tspan><tspan x="0" y="463.1" class="st4 st2 st3">0</tspan><tspan x="0" y="492.1" class="st4 st2 st3">1</tspan><tspan x="0" y="521" class="st4 st2 st3">0</tspan><tspan x="0" y="549.9" class="st4 st2 st3">1</tspan><tspan x="0" y="578.9" class="st4 st2 st3">0</tspan><tspan x="0" y="607.8" class="st4 st2 st3">1</tspan><tspan x="0" y="636.8" class="st4 st2 st3">0</tspan><tspan x="-2.6" y="665.7" class="st4 st2 st3"> 0</tspan><tspan x="0" y="694.7" class="st4 st2 st3">1</tspan><tspan x="0" y="723.6" class="st4 st2 st3">0</tspan><tspan x="0" y="752.6" class="st4 st2 st3">1</tspan><tspan x="0" y="781.5" class="st4 st2 st3">0</tspan><tspan x="0" y="810.4" class="st4 st2 st3">1</tspan><tspan x="0" y="839.4" class="st4 st2 st3">0</tspan><tspan x="0" y="868.3" class="st4 st2 st3">1</tspan><tspan x="0" y="897.3" class="st4 st2 st3">0</tspan><tspan x="0" y="926.2" class="st4 st2 st3">1</tspan><tspan x="0" y="955.2" class="st4 st2 st3">0</tspan><tspan x="-16.8" y="1099.9" class="st4 st2 st3">         </tspan></text>
			<text transform="matrix(1 0 0 1 332.9942 -64.8712)"><tspan x="0" y="0" class="st4 st2 st3">0</tspan><tspan x="0" y="28.9" class="st4 st2 st3">1</tspan><tspan x="0" y="57.9" class="st4 st2 st3">0</tspan><tspan x="0" y="86.8" class="st4 st2 st3">1</tspan><tspan x="0" y="115.8" class="st4 st2 st3">0</tspan><tspan x="0" y="144.7" class="st4 st2 st3">1</tspan><tspan x="0" y="173.7" class="st4 st2 st3">0</tspan><tspan x="0" y="202.6" class="st4 st2 st3">1</tspan><tspan x="0" y="231.6" class="st4 st2 st3">0</tspan><tspan x="0" y="260.5" class="st4 st2 st3">1</tspan><tspan x="0" y="289.4" class="st4 st2 st3">0</tspan><tspan x="0" y="318.4" class="st4 st2 st3">1</tspan><tspan x="0" y="347.3" class="st4 st2 st3">0</tspan><tspan x="0" y="376.3" class="st4 st2 st3">1</tspan><tspan x="0" y="405.2" class="st4 st2 st3">0</tspan><tspan x="0" y="434.2" class="st4 st2 st3">1</tspan><tspan x="0" y="463.1" class="st4 st2 st3">0</tspan><tspan x="0" y="492.1" class="st4 st2 st3">1</tspan><tspan x="0" y="521" class="st4 st2 st3">0</tspan><tspan x="0" y="549.9" class="st4 st2 st3">1</tspan><tspan x="0" y="578.9" class="st4 st2 st3">0</tspan><tspan x="0" y="607.8" class="st4 st2 st3">0</tspan><tspan x="0" y="636.8" class="st4 st2 st3">1</tspan><tspan x="0" y="665.7" class="st4 st2 st3">0</tspan><tspan x="0" y="694.7" class="st4 st2 st3">1</tspan><tspan x="0" y="723.6" class="st4 st2 st3">0</tspan><tspan x="0" y="752.6" class="st4 st2 st3">1</tspan><tspan x="0" y="781.5" class="st4 st2 st3">0</tspan><tspan x="0" y="810.4" class="st4 st2 st3">1</tspan><tspan x="0" y="839.4" class="st4 st2 st3">0</tspan><tspan x="0" y="868.3" class="st4 st2 st3">1</tspan><tspan x="0" y="1013.1" class="st4 st2 st3">     </tspan></text>
			<text transform="matrix(1 0 0 1 176.7804 -64.8712)"><tspan x="0" y="0" class="st4 st2 st3">0</tspan><tspan x="0" y="28.9" class="st4 st2 st3">1</tspan><tspan x="0" y="57.9" class="st4 st2 st3">0</tspan><tspan x="0" y="86.8" class="st4 st2 st3">1</tspan><tspan x="0" y="115.8" class="st4 st2 st3">0</tspan><tspan x="0" y="144.7" class="st4 st2 st3">1</tspan><tspan x="0" y="173.7" class="st4 st2 st3">0</tspan><tspan x="0" y="202.6" class="st4 st2 st3">1</tspan><tspan x="0" y="231.6" class="st4 st2 st3">0</tspan><tspan x="0" y="260.5" class="st4 st2 st3">1</tspan><tspan x="0" y="289.4" class="st4 st2 st3">0</tspan><tspan x="0" y="318.4" class="st4 st2 st3">1</tspan><tspan x="0" y="347.3" class="st4 st2 st3">0</tspan><tspan x="0" y="376.3" class="st4 st2 st3">1</tspan><tspan x="0" y="405.2" class="st4 st2 st3">0</tspan><tspan x="0" y="434.2" class="st4 st2 st3">1</tspan><tspan x="0" y="463.1" class="st4 st2 st3">0</tspan><tspan x="0" y="492.1" class="st4 st2 st3">1</tspan><tspan x="0" y="521" class="st4 st2 st3">0</tspan><tspan x="0" y="549.9" class="st4 st2 st3">1</tspan><tspan x="0" y="578.9" class="st4 st2 st3">0</tspan><tspan x="0" y="607.8" class="st4 st2 st3">0</tspan><tspan x="0" y="636.8" class="st4 st2 st3">1</tspan><tspan x="0" y="665.7" class="st4 st2 st3">0</tspan><tspan x="0" y="694.7" class="st4 st2 st3">1</tspan><tspan x="0" y="723.6" class="st4 st2 st3">0</tspan><tspan x="0" y="752.6" class="st4 st2 st3">1</tspan><tspan x="0" y="781.5" class="st4 st2 st3">0</tspan><tspan x="0" y="810.4" class="st4 st2 st3">1</tspan><tspan x="0" y="839.4" class="st4 st2 st3">0</tspan><tspan x="0" y="868.3" class="st4 st2 st3">1</tspan><tspan x="0" y="1013.1" class="st4 st2 st3">     </tspan></text>
		</g>
	</g>
	<g>
		<g>
			<path class="st1" d="M208.6,42.7c0,4-1.5,6.2-4.1,6.2c-2.3,0-3.8-2.1-3.9-6c0-3.9,1.7-6.1,4.1-6.1
				C207.2,36.7,208.6,38.9,208.6,42.7z M202.3,42.8c0,3,0.9,4.8,2.4,4.8c1.6,0,2.4-1.9,2.4-4.9c0-2.9-0.7-4.8-2.4-4.8
				C203.3,38,202.3,39.7,202.3,42.8z"/>
			<path class="st1" d="M204.3,60L204.3,60l-2.1,1.1l-0.3-1.2l2.6-1.4h1.4v11.7h-1.5V60z"/>
			<path class="st1" d="M208.6,85.9c0,4-1.5,6.2-4.1,6.2c-2.3,0-3.8-2.1-3.9-6c0-3.9,1.7-6.1,4.1-6.1
				C207.2,80,208.6,82.2,208.6,85.9z M202.3,86.1c0,3,0.9,4.8,2.4,4.8c1.6,0,2.4-1.9,2.4-4.9c0-2.9-0.7-4.8-2.4-4.8
				C203.3,81.2,202.3,82.9,202.3,86.1z"/>
			<path class="st1" d="M204.3,103.3L204.3,103.3l-2.1,1.1l-0.3-1.2l2.6-1.4h1.4v11.7h-1.5V103.3z"/>
			<path class="st1" d="M208.6,129.2c0,4-1.5,6.2-4.1,6.2c-2.3,0-3.8-2.1-3.9-6c0-3.9,1.7-6.1,4.1-6.1
				C207.2,123.2,208.6,125.4,208.6,129.2z M202.3,129.4c0,3,0.9,4.8,2.4,4.8c1.6,0,2.4-1.9,2.4-4.9c0-2.9-0.7-4.8-2.4-4.8
				C203.3,124.5,202.3,126.2,202.3,129.4z"/>
			<path class="st1" d="M204.3,146.6L204.3,146.6l-2.1,1.1l-0.3-1.2l2.6-1.4h1.4v11.7h-1.5V146.6z"/>
			<path class="st1" d="M208.6,172.4c0,4-1.5,6.2-4.1,6.2c-2.3,0-3.8-2.1-3.9-6c0-3.9,1.7-6.1,4.1-6.1
				C207.2,166.5,208.6,168.7,208.6,172.4z M202.3,172.6c0,3,0.9,4.8,2.4,4.8c1.6,0,2.4-1.9,2.4-4.9c0-2.9-0.7-4.8-2.4-4.8
				C203.3,167.7,202.3,169.4,202.3,172.6z"/>
			<path class="st1" d="M204.3,189.8L204.3,189.8l-2.1,1.1l-0.3-1.2l2.6-1.4h1.4V200h-1.5V189.8z"/>
			<path class="st1" d="M208.6,215.7c0,4-1.5,6.2-4.1,6.2c-2.3,0-3.8-2.1-3.9-6c0-3.9,1.7-6.1,4.1-6.1
				C207.2,209.8,208.6,212,208.6,215.7z M202.3,215.9c0,3,0.9,4.8,2.4,4.8c1.6,0,2.4-1.9,2.4-4.9c0-2.9-0.7-4.8-2.4-4.8
				C203.3,211,202.3,212.7,202.3,215.9z"/>
			<path class="st1" d="M204.3,233.1L204.3,233.1l-2.1,1.1l-0.3-1.2l2.6-1.4h1.4v11.7h-1.5V233.1z"/>
			<path class="st1" d="M208.6,258.9c0,4-1.5,6.2-4.1,6.2c-2.3,0-3.8-2.1-3.9-6c0-3.9,1.7-6.1,4.1-6.1
				C207.2,253,208.6,255.2,208.6,258.9z M202.3,259.1c0,3,0.9,4.8,2.4,4.8c1.6,0,2.4-1.9,2.4-4.9c0-2.9-0.7-4.8-2.4-4.8
				C203.3,254.2,202.3,255.9,202.3,259.1z"/>
			<path class="st1" d="M204.3,276.3L204.3,276.3l-2.1,1.1l-0.3-1.2l2.6-1.4h1.4v11.7h-1.5V276.3z"/>
			<path class="st1" d="M208.6,302.2c0,4-1.5,6.2-4.1,6.2c-2.3,0-3.8-2.1-3.9-6c0-3.9,1.7-6.1,4.1-6.1
				C207.2,296.3,208.6,298.5,208.6,302.2z M202.3,302.4c0,3,0.9,4.8,2.4,4.8c1.6,0,2.4-1.9,2.4-4.9c0-2.9-0.7-4.8-2.4-4.8
				C203.3,297.5,202.3,299.2,202.3,302.4z"/>
			<path class="st1" d="M204.3,319.6L204.3,319.6l-2.1,1.1l-0.3-1.2l2.6-1.4h1.4v11.7h-1.5V319.6z"/>
			<path class="st1" d="M208.6,345.4c0,4-1.5,6.2-4.1,6.2c-2.3,0-3.8-2.1-3.9-6c0-3.9,1.7-6.1,4.1-6.1
				C207.2,339.5,208.6,341.7,208.6,345.4z M202.3,345.6c0,3,0.9,4.8,2.4,4.8c1.6,0,2.4-1.9,2.4-4.9c0-2.9-0.7-4.8-2.4-4.8
				C203.3,340.7,202.3,342.4,202.3,345.6z"/>
			<path class="st1" d="M204.3,362.8L204.3,362.8l-2.1,1.1l-0.3-1.2l2.6-1.4h1.4v11.7h-1.5V362.8z"/>
			<path class="st1" d="M208.6,388.7c0,4-1.5,6.2-4.1,6.2c-2.3,0-3.8-2.1-3.9-6c0-3.9,1.7-6.1,4.1-6.1
				C207.2,382.8,208.6,385,208.6,388.7z M202.3,388.9c0,3,0.9,4.8,2.4,4.8c1.6,0,2.4-1.9,2.4-4.9c0-2.9-0.7-4.8-2.4-4.8
				C203.3,384,202.3,385.7,202.3,388.9z"/>
			<path class="st1" d="M204.3,406.1L204.3,406.1l-2.1,1.1l-0.3-1.2l2.6-1.4h1.4v11.7h-1.5V406.1z"/>
			<path class="st1" d="M208.6,432c0,4-1.5,6.2-4.1,6.2c-2.3,0-3.8-2.1-3.9-6c0-3.9,1.7-6.1,4.1-6.1
				C207.2,426,208.6,428.2,208.6,432z M202.3,432.1c0,3,0.9,4.8,2.4,4.8c1.6,0,2.4-1.9,2.4-4.9c0-2.9-0.7-4.8-2.4-4.8
				C203.3,427.3,202.3,428.9,202.3,432.1z"/>
			<path class="st1" d="M204.3,449.3L204.3,449.3l-2.1,1.1l-0.3-1.2l2.6-1.4h1.4v11.7h-1.5V449.3z"/>
			<path class="st1" d="M202.5,477.6c-0.1-0.6-0.2-1.4-0.2-2.2c0-3.2,1-4.9,2.4-4.9c1.6,0,2.4,1.9,2.4,4.8c0,1.7-0.3,3.1-0.8,3.9
				c0.4,0.2,0.9,0.4,1.3,0.6c0.7-1,1.1-2.6,1.1-4.6c0-3.7-1.4-5.9-3.9-5.9c-2.4,0-4.1,2.2-4.1,6.1c0,0.6,0.1,1.1,0.1,1.7
				C201.4,477.2,201.9,477.4,202.5,477.6z"/>
			<path class="st1" d="M206.9,650.3c-0.3,1.8-1,2.9-2.3,2.9c-0.5,0-1-0.2-1.4-0.7c-0.4,0.2-0.8,0.5-1.2,0.7
				c0.7,0.8,1.5,1.2,2.5,1.2c2.3,0,3.8-1.8,4-5.1C208,649.7,207.4,650,206.9,650.3z"/>
			<path class="st1" d="M204.3,665.6L204.3,665.6l-2.1,1.1l-0.3-1.2l2.6-1.4h1.4v11.7h-1.5V665.6z"/>
			<path class="st1" d="M208.6,691.5c0,4-1.5,6.2-4.1,6.2c-2.3,0-3.8-2.1-3.9-6c0-3.9,1.7-6.1,4.1-6.1
				C207.2,685.6,208.6,687.8,208.6,691.5z M202.3,691.7c0,3,0.9,4.8,2.4,4.8c1.6,0,2.4-1.9,2.4-4.9c0-2.9-0.7-4.8-2.4-4.8
				C203.3,686.8,202.3,688.5,202.3,691.7z"/>
			<path class="st1" d="M204.3,708.9L204.3,708.9l-2.1,1.1l-0.3-1.2l2.6-1.4h1.4v11.7h-1.5V708.9z"/>
		</g>
		<g>
			<path class="st1" d="M238.5,32.5c0,4-1.5,6.2-4.1,6.2c-2.3,0-3.8-2.1-3.9-6c0-3.9,1.7-6.1,4.1-6.1
				C237.1,26.6,238.5,28.8,238.5,32.5z M232.2,32.7c0,3,0.9,4.8,2.4,4.8c1.6,0,2.4-1.9,2.4-4.9c0-2.9-0.7-4.8-2.4-4.8
				C233.2,27.8,232.2,29.5,232.2,32.7z"/>
			<path class="st1" d="M234.2,49.9L234.2,49.9l-2.1,1.1l-0.3-1.2l2.6-1.4h1.4v11.7h-1.5V49.9z"/>
			<path class="st1" d="M238.5,75.7c0,4-1.5,6.2-4.1,6.2c-2.3,0-3.8-2.1-3.9-6c0-3.9,1.7-6.1,4.1-6.1
				C237.1,69.8,238.5,72,238.5,75.7z M232.2,75.9c0,3,0.9,4.8,2.4,4.8c1.6,0,2.4-1.9,2.4-4.9c0-2.9-0.7-4.8-2.4-4.8
				C233.2,71,232.2,72.7,232.2,75.9z"/>
			<path class="st1" d="M234.2,93.1L234.2,93.1l-2.1,1.1l-0.3-1.2l2.6-1.4h1.4v11.7h-1.5V93.1z"/>
			<path class="st1" d="M238.5,119c0,4-1.5,6.2-4.1,6.2c-2.3,0-3.8-2.1-3.9-6c0-3.9,1.7-6.1,4.1-6.1
				C237.1,113.1,238.5,115.3,238.5,119z M232.2,119.2c0,3,0.9,4.8,2.4,4.8c1.6,0,2.4-1.9,2.4-4.9c0-2.9-0.7-4.8-2.4-4.8
				C233.2,114.3,232.2,116,232.2,119.2z"/>
			<path class="st1" d="M234.2,136.4L234.2,136.4l-2.1,1.1l-0.3-1.2l2.6-1.4h1.4v11.7h-1.5V136.4z"/>
			<path class="st1" d="M238.5,162.3c0,4-1.5,6.2-4.1,6.2c-2.3,0-3.8-2.1-3.9-6c0-3.9,1.7-6.1,4.1-6.1
				C237.1,156.3,238.5,158.5,238.5,162.3z M232.2,162.4c0,3,0.9,4.8,2.4,4.8c1.6,0,2.4-1.9,2.4-4.9c0-2.9-0.7-4.8-2.4-4.8
				C233.2,157.6,232.2,159.2,232.2,162.4z"/>
			<path class="st1" d="M234.2,179.6L234.2,179.6l-2.1,1.1l-0.3-1.2l2.6-1.4h1.4v11.7h-1.5V179.6z"/>
			<path class="st1" d="M238.5,205.5c0,4-1.5,6.2-4.1,6.2c-2.3,0-3.8-2.1-3.9-6c0-3.9,1.7-6.1,4.1-6.1
				C237.1,199.6,238.5,201.8,238.5,205.5z M232.2,205.7c0,3,0.9,4.8,2.4,4.8c1.6,0,2.4-1.9,2.4-4.9c0-2.9-0.7-4.8-2.4-4.8
				C233.2,200.8,232.2,202.5,232.2,205.7z"/>
			<path class="st1" d="M234.2,222.9L234.2,222.9l-2.1,1.1l-0.3-1.2l2.6-1.4h1.4v11.7h-1.5V222.9z"/>
			<path class="st1" d="M238.5,248.8c0,4-1.5,6.2-4.1,6.2c-2.3,0-3.8-2.1-3.9-6c0-3.9,1.7-6.1,4.1-6.1
				C237.1,242.8,238.5,245,238.5,248.8z M232.2,248.9c0,3,0.9,4.8,2.4,4.8c1.6,0,2.4-1.9,2.4-4.9c0-2.9-0.7-4.8-2.4-4.8
				C233.2,244.1,232.2,245.8,232.2,248.9z"/>
			<path class="st1" d="M234.2,266.1L234.2,266.1l-2.1,1.1l-0.3-1.2l2.6-1.4h1.4v11.7h-1.5V266.1z"/>
			<path class="st1" d="M238.5,292c0,4-1.5,6.2-4.1,6.2c-2.3,0-3.8-2.1-3.9-6c0-3.9,1.7-6.1,4.1-6.1
				C237.1,286.1,238.5,288.3,238.5,292z M232.2,292.2c0,3,0.9,4.8,2.4,4.8c1.6,0,2.4-1.9,2.4-4.9c0-2.9-0.7-4.8-2.4-4.8
				C233.2,287.3,232.2,289,232.2,292.2z"/>
			<path class="st1" d="M234.2,309.4L234.2,309.4l-2.1,1.1l-0.3-1.2l2.6-1.4h1.4v11.7h-1.5V309.4z"/>
			<path class="st1" d="M238.5,335.3c0,4-1.5,6.2-4.1,6.2c-2.3,0-3.8-2.1-3.9-6c0-3.9,1.7-6.1,4.1-6.1
				C237.1,329.3,238.5,331.5,238.5,335.3z M232.2,335.5c0,3,0.9,4.8,2.4,4.8c1.6,0,2.4-1.9,2.4-4.9c0-2.9-0.7-4.8-2.4-4.8
				C233.2,330.6,232.2,332.3,232.2,335.5z"/>
			<path class="st1" d="M234.2,352.6L234.2,352.6l-2.1,1.1l-0.3-1.2l2.6-1.4h1.4v11.7h-1.5V352.6z"/>
			<path class="st1" d="M238.5,378.5c0,4-1.5,6.2-4.1,6.2c-2.3,0-3.8-2.1-3.9-6c0-3.9,1.7-6.1,4.1-6.1
				C237.1,372.6,238.5,374.8,238.5,378.5z M232.2,378.7c0,3,0.9,4.8,2.4,4.8c1.6,0,2.4-1.9,2.4-4.9c0-2.9-0.7-4.8-2.4-4.8
				C233.2,373.8,232.2,375.5,232.2,378.7z"/>
			<path class="st1" d="M234.2,395.9L234.2,395.9l-2.1,1.1l-0.3-1.2l2.6-1.4h1.4v11.7h-1.5V395.9z"/>
			<path class="st1" d="M238.5,421.8c0,4-1.5,6.2-4.1,6.2c-2.3,0-3.8-2.1-3.9-6c0-3.9,1.7-6.1,4.1-6.1
				C237.1,415.9,238.5,418,238.5,421.8z M232.2,422c0,3,0.9,4.8,2.4,4.8c1.6,0,2.4-1.9,2.4-4.9c0-2.9-0.7-4.8-2.4-4.8
				C233.2,417.1,232.2,418.8,232.2,422z"/>
			<path class="st1" d="M234.2,439.2L234.2,439.2l-2.1,1.1l-0.3-1.2l2.6-1.4h1.4v11.7h-1.5V439.2z"/>
			<path class="st1" d="M238.5,465c0,4-1.5,6.2-4.1,6.2c-2.3,0-3.8-2.1-3.9-6c0-3.9,1.7-6.1,4.1-6.1
				C237.1,459.1,238.5,461.3,238.5,465z M232.2,465.2c0,3,0.9,4.8,2.4,4.8c1.6,0,2.4-1.9,2.4-4.9c0-2.9-0.7-4.8-2.4-4.8
				C233.2,460.3,232.2,462,232.2,465.2z"/>
			<path class="st1" d="M234.2,482.4L234.2,482.4l-2.1,1.1l-0.3-1.2l2.6-1.4h1.4v11.7h-1.5V482.4z"/>
			<path class="st1" d="M234.7,632.1c-0.3,0-0.6,0-0.8,0.1c-0.8,0.7-1.6,1.3-2.4,2c-0.5,1-0.9,2.3-0.9,4c0,3.9,1.6,6,3.9,6
				c2.6,0,4.1-2.2,4.1-6.2C238.5,634.3,237.1,632.1,234.7,632.1z M234.6,643c-1.4,0-2.4-1.7-2.4-4.8c0-3.2,1-4.9,2.4-4.9
				c1.6,0,2.4,1.9,2.4,4.8C237,641.1,236.2,643,234.6,643z"/>
			<path class="st1" d="M234.2,655.4L234.2,655.4l-2.1,1.1l-0.3-1.2l2.6-1.4h1.4v11.7h-1.5V655.4z"/>
			<path class="st1" d="M238.5,681.3c0,4-1.5,6.2-4.1,6.2c-2.3,0-3.8-2.1-3.9-6c0-3.9,1.7-6.1,4.1-6.1
				C237.1,675.4,238.5,677.6,238.5,681.3z M232.2,681.5c0,3,0.9,4.8,2.4,4.8c1.6,0,2.4-1.9,2.4-4.9c0-2.9-0.7-4.8-2.4-4.8
				C233.2,676.6,232.2,678.3,232.2,681.5z"/>
			<path class="st1" d="M234.2,698.7L234.2,698.7l-2.1,1.1l-0.3-1.2l2.6-1.4h1.4v11.7h-1.5V698.7z"/>
		</g>
		<g>
			<path class="st1" d="M297.3,47.4c0,4-1.5,6.2-4.1,6.2c-2.3,0-3.8-2.1-3.9-6c0-3.9,1.7-6.1,4.1-6.1
				C295.9,41.5,297.3,43.7,297.3,47.4z M290.9,47.6c0,3,0.9,4.8,2.4,4.8c1.6,0,2.4-1.9,2.4-4.9c0-2.9-0.7-4.8-2.4-4.8
				C291.9,42.7,290.9,44.4,290.9,47.6z"/>
			<path class="st1" d="M292.9,64.8L292.9,64.8l-2.1,1.1l-0.3-1.2l2.6-1.4h1.4V75h-1.5V64.8z"/>
			<path class="st1" d="M297.3,90.7c0,4-1.5,6.2-4.1,6.2c-2.3,0-3.8-2.1-3.9-6c0-3.9,1.7-6.1,4.1-6.1
				C295.9,84.8,297.3,87,297.3,90.7z M290.9,90.9c0,3,0.9,4.8,2.4,4.8c1.6,0,2.4-1.9,2.4-4.9c0-2.9-0.7-4.8-2.4-4.8
				C291.9,86,290.9,87.7,290.9,90.9z"/>
			<path class="st1" d="M292.9,108.1L292.9,108.1l-2.1,1.1l-0.3-1.2l2.6-1.4h1.4v11.7h-1.5V108.1z"/>
			<path class="st1" d="M297.3,133.9c0,4-1.5,6.2-4.1,6.2c-2.3,0-3.8-2.1-3.9-6c0-3.9,1.7-6.1,4.1-6.1
				C295.9,128,297.3,130.2,297.3,133.9z M290.9,134.1c0,3,0.9,4.8,2.4,4.8c1.6,0,2.4-1.9,2.4-4.9c0-2.9-0.7-4.8-2.4-4.8
				C291.9,129.2,290.9,130.9,290.9,134.1z"/>
			<path class="st1" d="M292.9,151.3L292.9,151.3l-2.1,1.1l-0.3-1.2l2.6-1.4h1.4v11.7h-1.5V151.3z"/>
			<path class="st1" d="M297.3,177.2c0,4-1.5,6.2-4.1,6.2c-2.3,0-3.8-2.1-3.9-6c0-3.9,1.7-6.1,4.1-6.1
				C295.9,171.3,297.3,173.5,297.3,177.2z M290.9,177.4c0,3,0.9,4.8,2.4,4.8c1.6,0,2.4-1.9,2.4-4.9c0-2.9-0.7-4.8-2.4-4.8
				C291.9,172.5,290.9,174.2,290.9,177.4z"/>
			<path class="st1" d="M292.9,194.6L292.9,194.6l-2.1,1.1l-0.3-1.2l2.6-1.4h1.4v11.7h-1.5V194.6z"/>
			<path class="st1" d="M297.3,220.4c0,4-1.5,6.2-4.1,6.2c-2.3,0-3.8-2.1-3.9-6c0-3.9,1.7-6.1,4.1-6.1
				C295.9,214.5,297.3,216.7,297.3,220.4z M290.9,220.6c0,3,0.9,4.8,2.4,4.8c1.6,0,2.4-1.9,2.4-4.9c0-2.9-0.7-4.8-2.4-4.8
				C291.9,215.7,290.9,217.4,290.9,220.6z"/>
			<path class="st1" d="M292.9,237.8L292.9,237.8l-2.1,1.1l-0.3-1.2l2.6-1.4h1.4v11.7h-1.5V237.8z"/>
			<path class="st1" d="M297.3,263.7c0,4-1.5,6.2-4.1,6.2c-2.3,0-3.8-2.1-3.9-6c0-3.9,1.7-6.1,4.1-6.1
				C295.9,257.8,297.3,260,297.3,263.7z M290.9,263.9c0,3,0.9,4.8,2.4,4.8c1.6,0,2.4-1.9,2.4-4.9c0-2.9-0.7-4.8-2.4-4.8
				C291.9,259,290.9,260.7,290.9,263.9z"/>
			<path class="st1" d="M292.9,281.1L292.9,281.1l-2.1,1.1l-0.3-1.2l2.6-1.4h1.4v11.7h-1.5V281.1z"/>
			<path class="st1" d="M297.3,307c0,4-1.5,6.2-4.1,6.2c-2.3,0-3.8-2.1-3.9-6c0-3.9,1.7-6.1,4.1-6.1
				C295.9,301,297.3,303.2,297.3,307z M290.9,307.1c0,3,0.9,4.8,2.4,4.8c1.6,0,2.4-1.9,2.4-4.9c0-2.9-0.7-4.8-2.4-4.8
				C291.9,302.2,290.9,303.9,290.9,307.1z"/>
			<path class="st1" d="M292.9,324.3L292.9,324.3l-2.1,1.1l-0.3-1.2l2.6-1.4h1.4v11.7h-1.5V324.3z"/>
			<path class="st1" d="M297.3,350.2c0,4-1.5,6.2-4.1,6.2c-2.3,0-3.8-2.1-3.9-6c0-3.9,1.7-6.1,4.1-6.1
				C295.9,344.3,297.3,346.5,297.3,350.2z M290.9,350.4c0,3,0.9,4.8,2.4,4.8c1.6,0,2.4-1.9,2.4-4.9c0-2.9-0.7-4.8-2.4-4.8
				C291.9,345.5,290.9,347.2,290.9,350.4z"/>
			<path class="st1" d="M292.9,367.6L292.9,367.6l-2.1,1.1l-0.3-1.2l2.6-1.4h1.4v11.7h-1.5V367.6z"/>
			<path class="st1" d="M297.3,393.5c0,4-1.5,6.2-4.1,6.2c-2.3,0-3.8-2.1-3.9-6c0-3.9,1.7-6.1,4.1-6.1
				C295.9,387.5,297.3,389.7,297.3,393.5z M290.9,393.6c0,3,0.9,4.8,2.4,4.8c1.6,0,2.4-1.9,2.4-4.9c0-2.9-0.7-4.8-2.4-4.8
				C291.9,388.8,290.9,390.5,290.9,393.6z"/>
			<path class="st1" d="M292.9,410.8L292.9,410.8l-2.1,1.1l-0.3-1.2l2.6-1.4h1.4v11.7h-1.5V410.8z"/>
			<path class="st1" d="M297.3,436.7c0,4-1.5,6.2-4.1,6.2c-2.3,0-3.8-2.1-3.9-6c0-3.9,1.7-6.1,4.1-6.1
				C295.9,430.8,297.3,433,297.3,436.7z M290.9,436.9c0,3,0.9,4.8,2.4,4.8c1.6,0,2.4-1.9,2.4-4.9c0-2.9-0.7-4.8-2.4-4.8
				C291.9,432,290.9,433.7,290.9,436.9z"/>
			<path class="st1" d="M292.9,454.1L292.9,454.1l-2.1,1.1l-0.3-1.2l2.6-1.4h1.4v11.7h-1.5V454.1z"/>
			<path class="st1" d="M297.3,480c0,4-1.5,6.2-4.1,6.2c-2.3,0-3.8-2.1-3.9-6c0-3.9,1.7-6.1,4.1-6.1
				C295.9,474,297.3,476.2,297.3,480z M290.9,480.2c0,3,0.9,4.8,2.4,4.8c1.6,0,2.4-1.9,2.4-4.9c0-2.9-0.7-4.8-2.4-4.8
				C291.9,475.3,290.9,477,290.9,480.2z"/>
			<path class="st1" d="M292.9,497.3L292.9,497.3l-2.1,1.1l-0.3-1.2l2.6-1.4h1.4v11.7h-1.5V497.3z"/>
			<path class="st1" d="M297.3,523.2c0,4-1.5,6.2-4.1,6.2c-2.3,0-3.8-2.1-3.9-6c0-3.9,1.7-6.1,4.1-6.1
				C295.9,517.3,297.3,519.5,297.3,523.2z M290.9,523.4c0,3,0.9,4.8,2.4,4.8c1.6,0,2.4-1.9,2.4-4.9c0-2.9-0.7-4.8-2.4-4.8
				C291.9,518.5,290.9,520.2,290.9,523.4z"/>
			<path class="st1" d="M292.9,540.6L292.9,540.6l-2.1,1.1l-0.3-1.2l2.6-1.4h1.4v11.7h-1.5V540.6z"/>
			<path class="st1" d="M297.3,566.5c0,4-1.5,6.2-4.1,6.2c-2.3,0-3.8-2.1-3.9-6c0-3.9,1.7-6.1,4.1-6.1
				C295.9,560.5,297.3,562.7,297.3,566.5z M290.9,566.7c0,3,0.9,4.8,2.4,4.8c1.6,0,2.4-1.9,2.4-4.9c0-2.9-0.7-4.8-2.4-4.8
				C291.9,561.8,290.9,563.5,290.9,566.7z"/>
			<path class="st1" d="M292.9,583.9L292.9,583.9l-2.1,1.1l-0.3-1.2l2.6-1.4h1.4v11.7h-1.5V583.9z"/>
			<path class="st1" d="M297.3,609.7c0,4-1.5,6.2-4.1,6.2c-2.3,0-3.8-2.1-3.9-6c0-3.9,1.7-6.1,4.1-6.1
				C295.9,603.8,297.3,606,297.3,609.7z M290.9,609.9c0,3,0.9,4.8,2.4,4.8c1.6,0,2.4-1.9,2.4-4.9c0-2.9-0.7-4.8-2.4-4.8
				C291.9,605,290.9,606.7,290.9,609.9z"/>
			<path class="st1" d="M292.9,627.1L292.9,627.1l-2.1,1.1l-0.3-1.2l2.6-1.4h1.4v11.7h-1.5V627.1z"/>
			<path class="st1" d="M297.3,653c0,4-1.5,6.2-4.1,6.2c-2.3,0-3.8-2.1-3.9-6c0-3.9,1.7-6.1,4.1-6.1
				C295.9,647.1,297.3,649.3,297.3,653z M290.9,653.2c0,3,0.9,4.8,2.4,4.8c1.6,0,2.4-1.9,2.4-4.9c0-2.9-0.7-4.8-2.4-4.8
				C291.9,648.3,290.9,650,290.9,653.2z"/>
			<path class="st1" d="M292.9,670.4L292.9,670.4l-2.1,1.1l-0.3-1.2l2.6-1.4h1.4v11.7h-1.5V670.4z"/>
			<path class="st1" d="M297.3,696.2c0,4-1.5,6.2-4.1,6.2c-2.3,0-3.8-2.1-3.9-6c0-3.9,1.7-6.1,4.1-6.1
				C295.9,690.3,297.3,692.5,297.3,696.2z M290.9,696.4c0,3,0.9,4.8,2.4,4.8c1.6,0,2.4-1.9,2.4-4.9c0-2.9-0.7-4.8-2.4-4.8
				C291.9,691.5,290.9,693.2,290.9,696.4z"/>
			<path class="st1" d="M292.9,713.6L292.9,713.6l-2.1,1.1l-0.3-1.2l2.6-1.4h1.4v11.7h-1.5V713.6z"/>
		</g>
		<g>
			<path class="st1" d="M269.3,35.2c0,4-1.5,6.2-4.1,6.2c-2.3,0-3.8-2.1-3.9-6c0-3.9,1.7-6.1,4.1-6.1
				C267.9,29.2,269.3,31.4,269.3,35.2z M262.9,35.3c0,3,0.9,4.8,2.4,4.8c1.6,0,2.4-1.9,2.4-4.9c0-2.9-0.7-4.8-2.4-4.8
				C263.9,30.5,262.9,32.1,262.9,35.3z"/>
			<path class="st1" d="M265,52.5L265,52.5l-2.1,1.1l-0.3-1.2l2.6-1.4h1.4v11.7H265V52.5z"/>
			<path class="st1" d="M269.3,78.4c0,4-1.5,6.2-4.1,6.2c-2.3,0-3.8-2.1-3.9-6c0-3.9,1.7-6.1,4.1-6.1
				C267.9,72.5,269.3,74.7,269.3,78.4z M262.9,78.6c0,3,0.9,4.8,2.4,4.8c1.6,0,2.4-1.9,2.4-4.9c0-2.9-0.7-4.8-2.4-4.8
				C263.9,73.7,262.9,75.4,262.9,78.6z"/>
			<path class="st1" d="M265,95.8L265,95.8l-2.1,1.1l-0.3-1.2l2.6-1.4h1.4V106H265V95.8z"/>
			<path class="st1" d="M269.3,121.7c0,4-1.5,6.2-4.1,6.2c-2.3,0-3.8-2.1-3.9-6c0-3.9,1.7-6.1,4.1-6.1
				C267.9,115.7,269.3,117.9,269.3,121.7z M262.9,121.8c0,3,0.9,4.8,2.4,4.8c1.6,0,2.4-1.9,2.4-4.9c0-2.9-0.7-4.8-2.4-4.8
				C263.9,117,262.9,118.7,262.9,121.8z"/>
			<path class="st1" d="M265,139L265,139l-2.1,1.1l-0.3-1.2l2.6-1.4h1.4v11.7H265V139z"/>
			<path class="st1" d="M269.3,164.9c0,4-1.5,6.2-4.1,6.2c-2.3,0-3.8-2.1-3.9-6c0-3.9,1.7-6.1,4.1-6.1
				C267.9,159,269.3,161.2,269.3,164.9z M262.9,165.1c0,3,0.9,4.8,2.4,4.8c1.6,0,2.4-1.9,2.4-4.9c0-2.9-0.7-4.8-2.4-4.8
				C263.9,160.2,262.9,161.9,262.9,165.1z"/>
			<path class="st1" d="M265,182.3L265,182.3l-2.1,1.1l-0.3-1.2l2.6-1.4h1.4v11.7H265V182.3z"/>
			<path class="st1" d="M269.3,208.2c0,4-1.5,6.2-4.1,6.2c-2.3,0-3.8-2.1-3.9-6c0-3.9,1.7-6.1,4.1-6.1
				C267.9,202.2,269.3,204.4,269.3,208.2z M262.9,208.4c0,3,0.9,4.8,2.4,4.8c1.6,0,2.4-1.9,2.4-4.9c0-2.9-0.7-4.8-2.4-4.8
				C263.9,203.5,262.9,205.2,262.9,208.4z"/>
			<path class="st1" d="M265,225.5L265,225.5l-2.1,1.1l-0.3-1.2l2.6-1.4h1.4v11.7H265V225.5z"/>
			<path class="st1" d="M269.3,251.4c0,4-1.5,6.2-4.1,6.2c-2.3,0-3.8-2.1-3.9-6c0-3.9,1.7-6.1,4.1-6.1
				C267.9,245.5,269.3,247.7,269.3,251.4z M262.9,251.6c0,3,0.9,4.8,2.4,4.8c1.6,0,2.4-1.9,2.4-4.9c0-2.9-0.7-4.8-2.4-4.8
				C263.9,246.7,262.9,248.4,262.9,251.6z"/>
			<path class="st1" d="M265,268.8L265,268.8l-2.1,1.1l-0.3-1.2l2.6-1.4h1.4V279H265V268.8z"/>
			<path class="st1" d="M269.3,294.7c0,4-1.5,6.2-4.1,6.2c-2.3,0-3.8-2.1-3.9-6c0-3.9,1.7-6.1,4.1-6.1
				C267.9,288.8,269.3,291,269.3,294.7z M262.9,294.9c0,3,0.9,4.8,2.4,4.8c1.6,0,2.4-1.9,2.4-4.9c0-2.9-0.7-4.8-2.4-4.8
				C263.9,290,262.9,291.7,262.9,294.9z"/>
			<path class="st1" d="M265,312.1L265,312.1l-2.1,1.1l-0.3-1.2l2.6-1.4h1.4v11.7H265V312.1z"/>
			<path class="st1" d="M269.3,337.9c0,4-1.5,6.2-4.1,6.2c-2.3,0-3.8-2.1-3.9-6c0-3.9,1.7-6.1,4.1-6.1
				C267.9,332,269.3,334.2,269.3,337.9z M262.9,338.1c0,3,0.9,4.8,2.4,4.8c1.6,0,2.4-1.9,2.4-4.9c0-2.9-0.7-4.8-2.4-4.8
				C263.9,333.2,262.9,334.9,262.9,338.1z"/>
			<path class="st1" d="M265,355.3L265,355.3l-2.1,1.1l-0.3-1.2l2.6-1.4h1.4v11.7H265V355.3z"/>
			<path class="st1" d="M269.3,381.2c0,4-1.5,6.2-4.1,6.2c-2.3,0-3.8-2.1-3.9-6c0-3.9,1.7-6.1,4.1-6.1
				C267.9,375.3,269.3,377.5,269.3,381.2z M262.9,381.4c0,3,0.9,4.8,2.4,4.8c1.6,0,2.4-1.9,2.4-4.9c0-2.9-0.7-4.8-2.4-4.8
				C263.9,376.5,262.9,378.2,262.9,381.4z"/>
			<path class="st1" d="M265,398.6L265,398.6l-2.1,1.1l-0.3-1.2l2.6-1.4h1.4v11.7H265V398.6z"/>
			<path class="st1" d="M269.3,424.4c0,4-1.5,6.2-4.1,6.2c-2.3,0-3.8-2.1-3.9-6c0-3.9,1.7-6.1,4.1-6.1
				C267.9,418.5,269.3,420.7,269.3,424.4z M262.9,424.6c0,3,0.9,4.8,2.4,4.8c1.6,0,2.4-1.9,2.4-4.9c0-2.9-0.7-4.8-2.4-4.8
				C263.9,419.7,262.9,421.4,262.9,424.6z"/>
			<path class="st1" d="M265,441.8L265,441.8l-2.1,1.1l-0.3-1.2l2.6-1.4h1.4v11.7H265V441.8z"/>
			<path class="st1" d="M269.3,467.7c0,4-1.5,6.2-4.1,6.2c-2.3,0-3.8-2.1-3.9-6c0-3.9,1.7-6.1,4.1-6.1
				C267.9,461.8,269.3,464,269.3,467.7z M262.9,467.9c0,3,0.9,4.8,2.4,4.8c1.6,0,2.4-1.9,2.4-4.9c0-2.9-0.7-4.8-2.4-4.8
				C263.9,463,262.9,464.7,262.9,467.9z"/>
			<path class="st1" d="M265,485.1L265,485.1l-2.1,1.1l-0.3-1.2l2.6-1.4h1.4v11.7H265V485.1z"/>
			<path class="st1" d="M269.3,511c0,4-1.5,6.2-4.1,6.2c-2.3,0-3.8-2.1-3.9-6c0-3.9,1.7-6.1,4.1-6.1
				C267.9,505,269.3,507.2,269.3,511z M262.9,511.1c0,3,0.9,4.8,2.4,4.8c1.6,0,2.4-1.9,2.4-4.9c0-2.9-0.7-4.8-2.4-4.8
				C263.9,506.2,262.9,507.9,262.9,511.1z"/>
			<path class="st1" d="M265,528.3L265,528.3l-2.1,1.1l-0.3-1.2l2.6-1.4h1.4v11.7H265V528.3z"/>
			<path class="st1" d="M265.4,548.3c-2,0-3.5,1.5-3.9,4.3c0.2,1.8,0.4,3.6,0.5,5.4c0.7,1.6,1.8,2.4,3.2,2.4c2.6,0,4.1-2.2,4.1-6.2
				C269.3,550.5,267.9,548.3,265.4,548.3z M265.3,559.2c-1.4,0-2.4-1.7-2.4-4.8c0-3.2,1-4.9,2.4-4.9c1.6,0,2.4,1.9,2.4,4.8
				C267.7,557.3,266.9,559.2,265.3,559.2z"/>
			<path class="st1" d="M265,571.6L265,571.6l-2.1,1.1l-0.3-1.2l2.6-1.4h1.4v11.7H265V571.6z"/>
			<path class="st1" d="M269.3,597.5c0,4-1.5,6.2-4.1,6.2c-2.3,0-3.8-2.1-3.9-6c0-3.9,1.7-6.1,4.1-6.1
				C267.9,591.5,269.3,593.7,269.3,597.5z M262.9,597.6c0,3,0.9,4.8,2.4,4.8c1.6,0,2.4-1.9,2.4-4.9c0-2.9-0.7-4.8-2.4-4.8
				C263.9,592.8,262.9,594.5,262.9,597.6z"/>
			<path class="st1" d="M265,614.8L265,614.8l-2.1,1.1l-0.3-1.2l2.6-1.4h1.4v11.7H265V614.8z"/>
			<path class="st1" d="M269.3,640.7c0,4-1.5,6.2-4.1,6.2c-2.3,0-3.8-2.1-3.9-6c0-3.9,1.7-6.1,4.1-6.1
				C267.9,634.8,269.3,637,269.3,640.7z M262.9,640.9c0,3,0.9,4.8,2.4,4.8c1.6,0,2.4-1.9,2.4-4.9c0-2.9-0.7-4.8-2.4-4.8
				C263.9,636,262.9,637.7,262.9,640.9z"/>
			<path class="st1" d="M265,658.1L265,658.1l-2.1,1.1l-0.3-1.2l2.6-1.4h1.4v11.7H265V658.1z"/>
			<path class="st1" d="M269.3,684c0,4-1.5,6.2-4.1,6.2c-2.3,0-3.8-2.1-3.9-6c0-3.9,1.7-6.1,4.1-6.1
				C267.9,678,269.3,680.2,269.3,684z M262.9,684.1c0,3,0.9,4.8,2.4,4.8c1.6,0,2.4-1.9,2.4-4.9c0-2.9-0.7-4.8-2.4-4.8
				C263.9,679.3,262.9,681,262.9,684.1z"/>
			<path class="st1" d="M265,701.3L265,701.3l-2.1,1.1l-0.3-1.2l2.6-1.4h1.4v11.7H265V701.3z"/>
		</g>
		<g>
			<path class="st4" d="M221.6,36.2L221.6,36.2l-2.1,1.1l-0.3-1.2l2.6-1.4h1.4v11.7h-1.5V36.2z"/>
			<path class="st4" d="M225.9,62c0,4-1.5,6.2-4.1,6.2c-2.3,0-3.8-2.1-3.9-6c0-3.9,1.7-6.1,4.1-6.1C224.5,56.1,225.9,58.3,225.9,62z
				 M219.5,62.2c0,3,0.9,4.8,2.4,4.8c1.6,0,2.4-1.9,2.4-4.9c0-2.9-0.7-4.8-2.4-4.8C220.6,57.3,219.5,59,219.5,62.2z"/>
			<path class="st4" d="M221.6,79.4L221.6,79.4l-2.1,1.1l-0.3-1.2l2.6-1.4h1.4v11.7h-1.5V79.4z"/>
			<path class="st4" d="M225.9,105.3c0,4-1.5,6.2-4.1,6.2c-2.3,0-3.8-2.1-3.9-6c0-3.9,1.7-6.1,4.1-6.1
				C224.5,99.4,225.9,101.6,225.9,105.3z M219.5,105.5c0,3,0.9,4.8,2.4,4.8c1.6,0,2.4-1.9,2.4-4.9c0-2.9-0.7-4.8-2.4-4.8
				C220.6,100.6,219.5,102.3,219.5,105.5z"/>
			<path class="st4" d="M221.6,122.7L221.6,122.7l-2.1,1.1l-0.3-1.2l2.6-1.4h1.4v11.7h-1.5V122.7z"/>
			<path class="st4" d="M225.9,148.5c0,4-1.5,6.2-4.1,6.2c-2.3,0-3.8-2.1-3.9-6c0-3.9,1.7-6.1,4.1-6.1
				C224.5,142.6,225.9,144.8,225.9,148.5z M219.5,148.7c0,3,0.9,4.8,2.4,4.8c1.6,0,2.4-1.9,2.4-4.9c0-2.9-0.7-4.8-2.4-4.8
				C220.6,143.8,219.5,145.5,219.5,148.7z"/>
			<path class="st4" d="M221.6,165.9L221.6,165.9l-2.1,1.1l-0.3-1.2l2.6-1.4h1.4v11.7h-1.5V165.9z"/>
			<path class="st4" d="M225.9,191.8c0,4-1.5,6.2-4.1,6.2c-2.3,0-3.8-2.1-3.9-6c0-3.9,1.7-6.1,4.1-6.1
				C224.5,185.9,225.9,188.1,225.9,191.8z M219.5,192c0,3,0.9,4.8,2.4,4.8c1.6,0,2.4-1.9,2.4-4.9c0-2.9-0.7-4.8-2.4-4.8
				C220.6,187.1,219.5,188.8,219.5,192z"/>
			<path class="st4" d="M221.6,209.2L221.6,209.2l-2.1,1.1l-0.3-1.2l2.6-1.4h1.4v11.7h-1.5V209.2z"/>
			<path class="st4" d="M225.9,235.1c0,4-1.5,6.2-4.1,6.2c-2.3,0-3.8-2.1-3.9-6c0-3.9,1.7-6.1,4.1-6.1
				C224.5,229.1,225.9,231.3,225.9,235.1z M219.5,235.2c0,3,0.9,4.8,2.4,4.8c1.6,0,2.4-1.9,2.4-4.9c0-2.9-0.7-4.8-2.4-4.8
				C220.6,230.4,219.5,232,219.5,235.2z"/>
			<path class="st4" d="M221.6,252.4L221.6,252.4l-2.1,1.1l-0.3-1.2l2.6-1.4h1.4v11.7h-1.5V252.4z"/>
			<path class="st4" d="M225.9,278.3c0,4-1.5,6.2-4.1,6.2c-2.3,0-3.8-2.1-3.9-6c0-3.9,1.7-6.1,4.1-6.1
				C224.5,272.4,225.9,274.6,225.9,278.3z M219.5,278.5c0,3,0.9,4.8,2.4,4.8c1.6,0,2.4-1.9,2.4-4.9c0-2.9-0.7-4.8-2.4-4.8
				C220.6,273.6,219.5,275.3,219.5,278.5z"/>
			<path class="st4" d="M221.6,295.7L221.6,295.7l-2.1,1.1l-0.3-1.2l2.6-1.4h1.4v11.7h-1.5V295.7z"/>
			<path class="st4" d="M225.9,321.6c0,4-1.5,6.2-4.1,6.2c-2.3,0-3.8-2.1-3.9-6c0-3.9,1.7-6.1,4.1-6.1
				C224.5,315.6,225.9,317.8,225.9,321.6z M219.5,321.7c0,3,0.9,4.8,2.4,4.8c1.6,0,2.4-1.9,2.4-4.9c0-2.9-0.7-4.8-2.4-4.8
				C220.6,316.9,219.5,318.6,219.5,321.7z"/>
			<path class="st4" d="M221.6,338.9L221.6,338.9l-2.1,1.1l-0.3-1.2l2.6-1.4h1.4v11.7h-1.5V338.9z"/>
			<path class="st4" d="M225.9,364.8c0,4-1.5,6.2-4.1,6.2c-2.3,0-3.8-2.1-3.9-6c0-3.9,1.7-6.1,4.1-6.1
				C224.5,358.9,225.9,361.1,225.9,364.8z M219.5,365c0,3,0.9,4.8,2.4,4.8c1.6,0,2.4-1.9,2.4-4.9c0-2.9-0.7-4.8-2.4-4.8
				C220.6,360.1,219.5,361.8,219.5,365z"/>
			<path class="st4" d="M221.6,382.2L221.6,382.2l-2.1,1.1l-0.3-1.2l2.6-1.4h1.4v11.7h-1.5V382.2z"/>
			<path class="st4" d="M225.9,408.1c0,4-1.5,6.2-4.1,6.2c-2.3,0-3.8-2.1-3.9-6c0-3.9,1.7-6.1,4.1-6.1
				C224.5,402.1,225.9,404.3,225.9,408.1z M219.5,408.3c0,3,0.9,4.8,2.4,4.8c1.6,0,2.4-1.9,2.4-4.9c0-2.9-0.7-4.8-2.4-4.8
				C220.6,403.4,219.5,405.1,219.5,408.3z"/>
			<path class="st4" d="M221.6,425.4L221.6,425.4l-2.1,1.1l-0.3-1.2l2.6-1.4h1.4v11.7h-1.5V425.4z"/>
			<path class="st4" d="M225.9,451.3c0,4-1.5,6.2-4.1,6.2c-2.3,0-3.8-2.1-3.9-6c0-3.9,1.7-6.1,4.1-6.1
				C224.5,445.4,225.9,447.6,225.9,451.3z M219.5,451.5c0,3,0.9,4.8,2.4,4.8c1.6,0,2.4-1.9,2.4-4.9c0-2.9-0.7-4.8-2.4-4.8
				C220.6,446.6,219.5,448.3,219.5,451.5z"/>
			<path class="st4" d="M221.6,468.7L221.6,468.7l-2.1,1.1l-0.3-1.2l2.6-1.4h1.4v11.7h-1.5V468.7z"/>
			<path class="st4" d="M219.5,642.7l0,0.1l2-1.1h0V652h1.5v-11.7C221.9,641.1,220.7,641.9,219.5,642.7z"/>
			<path class="st4" d="M225.9,667.6c0,4-1.5,6.2-4.1,6.2c-2.3,0-3.8-2.1-3.9-6c0-3.9,1.7-6.1,4.1-6.1
				C224.5,661.7,225.9,663.9,225.9,667.6z M219.5,667.8c0,3,0.9,4.8,2.4,4.8c1.6,0,2.4-1.9,2.4-4.9c0-2.9-0.7-4.8-2.4-4.8
				C220.6,662.9,219.5,664.6,219.5,667.8z"/>
			<path class="st4" d="M221.6,685L221.6,685l-2.1,1.1l-0.3-1.2l2.6-1.4h1.4v11.7h-1.5V685z"/>
			<path class="st4" d="M225.9,710.9c0,4-1.5,6.2-4.1,6.2c-2.3,0-3.8-2.1-3.9-6c0-3.9,1.7-6.1,4.1-6.1
				C224.5,704.9,225.9,707.1,225.9,710.9z M219.5,711c0,3,0.9,4.8,2.4,4.8c1.6,0,2.4-1.9,2.4-4.9c0-2.9-0.7-4.8-2.4-4.8
				C220.6,706.1,219.5,707.8,219.5,711z"/>
			<path class="st4" d="M221.6,728.2L221.6,728.2l-2.1,1.1l-0.3-1.2l2.6-1.4h1.4v11.7h-1.5V728.2z"/>
		</g>
		<g>
			<path class="st4" d="M279.9,36.2L279.9,36.2l-2.1,1.1l-0.3-1.2l2.6-1.4h1.4v11.7h-1.5V36.2z"/>
			<path class="st4" d="M284.3,62c0,4-1.5,6.2-4.1,6.2c-2.3,0-3.8-2.1-3.9-6c0-3.9,1.7-6.1,4.1-6.1C282.9,56.1,284.3,58.3,284.3,62z
				 M277.9,62.2c0,3,0.9,4.8,2.4,4.8c1.6,0,2.4-1.9,2.4-4.9c0-2.9-0.7-4.8-2.4-4.8C278.9,57.3,277.9,59,277.9,62.2z"/>
			<path class="st4" d="M279.9,79.4L279.9,79.4l-2.1,1.1l-0.3-1.2l2.6-1.4h1.4v11.7h-1.5V79.4z"/>
			<path class="st4" d="M284.3,105.3c0,4-1.5,6.2-4.1,6.2c-2.3,0-3.8-2.1-3.9-6c0-3.9,1.7-6.1,4.1-6.1
				C282.9,99.4,284.3,101.6,284.3,105.3z M277.9,105.5c0,3,0.9,4.8,2.4,4.8c1.6,0,2.4-1.9,2.4-4.9c0-2.9-0.7-4.8-2.4-4.8
				C278.9,100.6,277.9,102.3,277.9,105.5z"/>
			<path class="st4" d="M279.9,122.7L279.9,122.7l-2.1,1.1l-0.3-1.2l2.6-1.4h1.4v11.7h-1.5V122.7z"/>
			<path class="st4" d="M284.3,148.5c0,4-1.5,6.2-4.1,6.2c-2.3,0-3.8-2.1-3.9-6c0-3.9,1.7-6.1,4.1-6.1
				C282.9,142.6,284.3,144.8,284.3,148.5z M277.9,148.7c0,3,0.9,4.8,2.4,4.8c1.6,0,2.4-1.9,2.4-4.9c0-2.9-0.7-4.8-2.4-4.8
				C278.9,143.8,277.9,145.5,277.9,148.7z"/>
			<path class="st4" d="M279.9,165.9L279.9,165.9l-2.1,1.1l-0.3-1.2l2.6-1.4h1.4v11.7h-1.5V165.9z"/>
			<path class="st4" d="M284.3,191.8c0,4-1.5,6.2-4.1,6.2c-2.3,0-3.8-2.1-3.9-6c0-3.9,1.7-6.1,4.1-6.1
				C282.9,185.9,284.3,188.1,284.3,191.8z M277.9,192c0,3,0.9,4.8,2.4,4.8c1.6,0,2.4-1.9,2.4-4.9c0-2.9-0.7-4.8-2.4-4.8
				C278.9,187.1,277.9,188.8,277.9,192z"/>
			<path class="st4" d="M279.9,209.2L279.9,209.2l-2.1,1.1l-0.3-1.2l2.6-1.4h1.4v11.7h-1.5V209.2z"/>
			<path class="st4" d="M284.3,235.1c0,4-1.5,6.2-4.1,6.2c-2.3,0-3.8-2.1-3.9-6c0-3.9,1.7-6.1,4.1-6.1
				C282.9,229.1,284.3,231.3,284.3,235.1z M277.9,235.2c0,3,0.9,4.8,2.4,4.8c1.6,0,2.4-1.9,2.4-4.9c0-2.9-0.7-4.8-2.4-4.8
				C278.9,230.4,277.9,232,277.9,235.2z"/>
			<path class="st4" d="M279.9,252.4L279.9,252.4l-2.1,1.1l-0.3-1.2l2.6-1.4h1.4v11.7h-1.5V252.4z"/>
			<path class="st4" d="M284.3,278.3c0,4-1.5,6.2-4.1,6.2c-2.3,0-3.8-2.1-3.9-6c0-3.9,1.7-6.1,4.1-6.1
				C282.9,272.4,284.3,274.6,284.3,278.3z M277.9,278.5c0,3,0.9,4.8,2.4,4.8c1.6,0,2.4-1.9,2.4-4.9c0-2.9-0.7-4.8-2.4-4.8
				C278.9,273.6,277.9,275.3,277.9,278.5z"/>
			<path class="st4" d="M279.9,295.7L279.9,295.7l-2.1,1.1l-0.3-1.2l2.6-1.4h1.4v11.7h-1.5V295.7z"/>
			<path class="st4" d="M284.3,321.6c0,4-1.5,6.2-4.1,6.2c-2.3,0-3.8-2.1-3.9-6c0-3.9,1.7-6.1,4.1-6.1
				C282.9,315.6,284.3,317.8,284.3,321.6z M277.9,321.7c0,3,0.9,4.8,2.4,4.8c1.6,0,2.4-1.9,2.4-4.9c0-2.9-0.7-4.8-2.4-4.8
				C278.9,316.9,277.9,318.6,277.9,321.7z"/>
			<path class="st4" d="M279.9,338.9L279.9,338.9l-2.1,1.1l-0.3-1.2l2.6-1.4h1.4v11.7h-1.5V338.9z"/>
			<path class="st4" d="M284.3,364.8c0,4-1.5,6.2-4.1,6.2c-2.3,0-3.8-2.1-3.9-6c0-3.9,1.7-6.1,4.1-6.1
				C282.9,358.9,284.3,361.1,284.3,364.8z M277.9,365c0,3,0.9,4.8,2.4,4.8c1.6,0,2.4-1.9,2.4-4.9c0-2.9-0.7-4.8-2.4-4.8
				C278.9,360.1,277.9,361.8,277.9,365z"/>
			<path class="st4" d="M279.9,382.2L279.9,382.2l-2.1,1.1l-0.3-1.2l2.6-1.4h1.4v11.7h-1.5V382.2z"/>
			<path class="st4" d="M284.3,408.1c0,4-1.5,6.2-4.1,6.2c-2.3,0-3.8-2.1-3.9-6c0-3.9,1.7-6.1,4.1-6.1
				C282.9,402.1,284.3,404.3,284.3,408.1z M277.9,408.3c0,3,0.9,4.8,2.4,4.8c1.6,0,2.4-1.9,2.4-4.9c0-2.9-0.7-4.8-2.4-4.8
				C278.9,403.4,277.9,405.1,277.9,408.3z"/>
			<path class="st4" d="M279.9,425.4L279.9,425.4l-2.1,1.1l-0.3-1.2l2.6-1.4h1.4v11.7h-1.5V425.4z"/>
			<path class="st4" d="M284.3,451.3c0,4-1.5,6.2-4.1,6.2c-2.3,0-3.8-2.1-3.9-6c0-3.9,1.7-6.1,4.1-6.1
				C282.9,445.4,284.3,447.6,284.3,451.3z M277.9,451.5c0,3,0.9,4.8,2.4,4.8c1.6,0,2.4-1.9,2.4-4.9c0-2.9-0.7-4.8-2.4-4.8
				C278.9,446.6,277.9,448.3,277.9,451.5z"/>
			<path class="st4" d="M279.9,468.7L279.9,468.7l-2.1,1.1l-0.3-1.2l2.6-1.4h1.4v11.7h-1.5V468.7z"/>
			<path class="st4" d="M284.3,494.6c0,4-1.5,6.2-4.1,6.2c-2.3,0-3.8-2.1-3.9-6c0-3.9,1.7-6.1,4.1-6.1
				C282.9,488.7,284.3,490.9,284.3,494.6z M277.9,494.8c0,3,0.9,4.8,2.4,4.8c1.6,0,2.4-1.9,2.4-4.9c0-2.9-0.7-4.8-2.4-4.8
				C278.9,489.9,277.9,491.6,277.9,494.8z"/>
			<path class="st4" d="M279.9,512L279.9,512l-2.1,1.1l-0.3-1.2l2.6-1.4h1.4v11.7h-1.5V512z"/>
			<path class="st4" d="M284.3,537.8c0,4-1.5,6.2-4.1,6.2c-2.3,0-3.8-2.1-3.9-6c0-3.9,1.7-6.1,4.1-6.1
				C282.9,531.9,284.3,534.1,284.3,537.8z M277.9,538c0,3,0.9,4.8,2.4,4.8c1.6,0,2.4-1.9,2.4-4.9c0-2.9-0.7-4.8-2.4-4.8
				C278.9,533.1,277.9,534.8,277.9,538z"/>
			<path class="st4" d="M279.9,555.2L279.9,555.2l-2.1,1.1l-0.3-1.2l2.6-1.4h1.4v11.7h-1.5V555.2z"/>
			<path class="st4" d="M284.3,581.1c0,4-1.5,6.2-4.1,6.2c-2.3,0-3.8-2.1-3.9-6c0-3.9,1.7-6.1,4.1-6.1
				C282.9,575.2,284.3,577.4,284.3,581.1z M277.9,581.3c0,3,0.9,4.8,2.4,4.8c1.6,0,2.4-1.9,2.4-4.9c0-2.9-0.7-4.8-2.4-4.8
				C278.9,576.4,277.9,578.1,277.9,581.3z"/>
			<path class="st4" d="M279.9,598.5L279.9,598.5l-2.1,1.1l-0.3-1.2l2.6-1.4h1.4v11.7h-1.5V598.5z"/>
			<path class="st4" d="M284.3,624.3c0,4-1.5,6.2-4.1,6.2c-2.3,0-3.8-2.1-3.9-6c0-3.9,1.7-6.1,4.1-6.1
				C282.9,618.4,284.3,620.6,284.3,624.3z M277.9,624.5c0,3,0.9,4.8,2.4,4.8c1.6,0,2.4-1.9,2.4-4.9c0-2.9-0.7-4.8-2.4-4.8
				C278.9,619.6,277.9,621.3,277.9,624.5z"/>
			<path class="st4" d="M279.9,641.7L279.9,641.7l-2.1,1.1l-0.3-1.2l2.6-1.4h1.4V652h-1.5V641.7z"/>
			<path class="st4" d="M284.3,667.6c0,4-1.5,6.2-4.1,6.2c-2.3,0-3.8-2.1-3.9-6c0-3.9,1.7-6.1,4.1-6.1
				C282.9,661.7,284.3,663.9,284.3,667.6z M277.9,667.8c0,3,0.9,4.8,2.4,4.8c1.6,0,2.4-1.9,2.4-4.9c0-2.9-0.7-4.8-2.4-4.8
				C278.9,662.9,277.9,664.6,277.9,667.8z"/>
			<path class="st4" d="M279.9,685L279.9,685l-2.1,1.1l-0.3-1.2l2.6-1.4h1.4v11.7h-1.5V685z"/>
			<path class="st4" d="M284.3,710.9c0,4-1.5,6.2-4.1,6.2c-2.3,0-3.8-2.1-3.9-6c0-3.9,1.7-6.1,4.1-6.1
				C282.9,704.9,284.3,707.1,284.3,710.9z M277.9,711c0,3,0.9,4.8,2.4,4.8c1.6,0,2.4-1.9,2.4-4.9c0-2.9-0.7-4.8-2.4-4.8
				C278.9,706.1,277.9,707.8,277.9,711z"/>
			<path class="st4" d="M279.9,728.2L279.9,728.2l-2.1,1.1l-0.3-1.2l2.6-1.4h1.4v11.7h-1.5V728.2z"/>
		</g>
		<g>
			<path class="st4" d="M255.1,23c0,4-1.5,6.2-4.1,6.2c-2.3,0-3.8-2.1-3.9-6c0-3.9,1.7-6.1,4.1-6.1C253.7,17,255.1,19.2,255.1,23z
				 M248.7,23.1c0,3,0.9,4.8,2.4,4.8c1.6,0,2.4-1.9,2.4-4.9c0-2.9-0.7-4.8-2.4-4.8C249.7,18.3,248.7,20,248.7,23.1z"/>
			<path class="st4" d="M250.7,40.3L250.7,40.3l-2.1,1.1l-0.3-1.2l2.6-1.4h1.4v11.7h-1.5V40.3z"/>
			<path class="st4" d="M255.1,66.2c0,4-1.5,6.2-4.1,6.2c-2.3,0-3.8-2.1-3.9-6c0-3.9,1.7-6.1,4.1-6.1
				C253.7,60.3,255.1,62.5,255.1,66.2z M248.7,66.4c0,3,0.9,4.8,2.4,4.8c1.6,0,2.4-1.9,2.4-4.9c0-2.9-0.7-4.8-2.4-4.8
				C249.7,61.5,248.7,63.2,248.7,66.4z"/>
			<path class="st4" d="M250.7,83.6L250.7,83.6l-2.1,1.1l-0.3-1.2l2.6-1.4h1.4v11.7h-1.5V83.6z"/>
			<path class="st4" d="M255.1,109.5c0,4-1.5,6.2-4.1,6.2c-2.3,0-3.8-2.1-3.9-6c0-3.9,1.7-6.1,4.1-6.1
				C253.7,103.5,255.1,105.7,255.1,109.5z M248.7,109.7c0,3,0.9,4.8,2.4,4.8c1.6,0,2.4-1.9,2.4-4.9c0-2.9-0.7-4.8-2.4-4.8
				C249.7,104.8,248.7,106.5,248.7,109.7z"/>
			<path class="st4" d="M250.7,126.9L250.7,126.9l-2.1,1.1l-0.3-1.2l2.6-1.4h1.4v11.7h-1.5V126.9z"/>
			<path class="st4" d="M255.1,152.7c0,4-1.5,6.2-4.1,6.2c-2.3,0-3.8-2.1-3.9-6c0-3.9,1.7-6.1,4.1-6.1
				C253.7,146.8,255.1,149,255.1,152.7z M248.7,152.9c0,3,0.9,4.8,2.4,4.8c1.6,0,2.4-1.9,2.4-4.9c0-2.9-0.7-4.8-2.4-4.8
				C249.7,148,248.7,149.7,248.7,152.9z"/>
			<path class="st4" d="M250.7,170.1L250.7,170.1l-2.1,1.1l-0.3-1.2l2.6-1.4h1.4v11.7h-1.5V170.1z"/>
			<path class="st4" d="M255.1,196c0,4-1.5,6.2-4.1,6.2c-2.3,0-3.8-2.1-3.9-6c0-3.9,1.7-6.1,4.1-6.1
				C253.7,190.1,255.1,192.3,255.1,196z M248.7,196.2c0,3,0.9,4.8,2.4,4.8c1.6,0,2.4-1.9,2.4-4.9c0-2.9-0.7-4.8-2.4-4.8
				C249.7,191.3,248.7,193,248.7,196.2z"/>
			<path class="st4" d="M250.7,213.4L250.7,213.4l-2.1,1.1l-0.3-1.2l2.6-1.4h1.4v11.7h-1.5V213.4z"/>
			<path class="st4" d="M255.1,239.2c0,4-1.5,6.2-4.1,6.2c-2.3,0-3.8-2.1-3.9-6c0-3.9,1.7-6.1,4.1-6.1
				C253.7,233.3,255.1,235.5,255.1,239.2z M248.7,239.4c0,3,0.9,4.8,2.4,4.8c1.6,0,2.4-1.9,2.4-4.9c0-2.9-0.7-4.8-2.4-4.8
				C249.7,234.5,248.7,236.2,248.7,239.4z"/>
			<path class="st4" d="M250.7,256.6L250.7,256.6l-2.1,1.1l-0.3-1.2l2.6-1.4h1.4v11.7h-1.5V256.6z"/>
			<path class="st4" d="M255.1,282.5c0,4-1.5,6.2-4.1,6.2c-2.3,0-3.8-2.1-3.9-6c0-3.9,1.7-6.1,4.1-6.1
				C253.7,276.6,255.1,278.8,255.1,282.5z M248.7,282.7c0,3,0.9,4.8,2.4,4.8c1.6,0,2.4-1.9,2.4-4.9c0-2.9-0.7-4.8-2.4-4.8
				C249.7,277.8,248.7,279.5,248.7,282.7z"/>
			<path class="st4" d="M250.7,299.9L250.7,299.9l-2.1,1.1l-0.3-1.2l2.6-1.4h1.4v11.7h-1.5V299.9z"/>
			<path class="st4" d="M255.1,325.7c0,4-1.5,6.2-4.1,6.2c-2.3,0-3.8-2.1-3.9-6c0-3.9,1.7-6.1,4.1-6.1
				C253.7,319.8,255.1,322,255.1,325.7z M248.7,325.9c0,3,0.9,4.8,2.4,4.8c1.6,0,2.4-1.9,2.4-4.9c0-2.9-0.7-4.8-2.4-4.8
				C249.7,321,248.7,322.7,248.7,325.9z"/>
			<path class="st4" d="M250.7,343.1L250.7,343.1l-2.1,1.1l-0.3-1.2l2.6-1.4h1.4v11.7h-1.5V343.1z"/>
			<path class="st4" d="M255.1,369c0,4-1.5,6.2-4.1,6.2c-2.3,0-3.8-2.1-3.9-6c0-3.9,1.7-6.1,4.1-6.1
				C253.7,363.1,255.1,365.3,255.1,369z M248.7,369.2c0,3,0.9,4.8,2.4,4.8c1.6,0,2.4-1.9,2.4-4.9c0-2.9-0.7-4.8-2.4-4.8
				C249.7,364.3,248.7,366,248.7,369.2z"/>
			<path class="st4" d="M250.7,386.4L250.7,386.4l-2.1,1.1l-0.3-1.2l2.6-1.4h1.4v11.7h-1.5V386.4z"/>
			<path class="st4" d="M255.1,412.3c0,4-1.5,6.2-4.1,6.2c-2.3,0-3.8-2.1-3.9-6c0-3.9,1.7-6.1,4.1-6.1
				C253.7,406.3,255.1,408.5,255.1,412.3z M248.7,412.4c0,3,0.9,4.8,2.4,4.8c1.6,0,2.4-1.9,2.4-4.9c0-2.9-0.7-4.8-2.4-4.8
				C249.7,407.6,248.7,409.2,248.7,412.4z"/>
			<path class="st4" d="M250.7,429.6L250.7,429.6l-2.1,1.1l-0.3-1.2l2.6-1.4h1.4v11.7h-1.5V429.6z"/>
			<path class="st4" d="M255.1,455.5c0,4-1.5,6.2-4.1,6.2c-2.3,0-3.8-2.1-3.9-6c0-3.9,1.7-6.1,4.1-6.1
				C253.7,449.6,255.1,451.8,255.1,455.5z M248.7,455.7c0,3,0.9,4.8,2.4,4.8c1.6,0,2.4-1.9,2.4-4.9c0-2.9-0.7-4.8-2.4-4.8
				C249.7,450.8,248.7,452.5,248.7,455.7z"/>
			<path class="st4" d="M250.7,472.9L250.7,472.9l-2.1,1.1l-0.3-1.2l2.6-1.4h1.4v11.7h-1.5V472.9z"/>
			<path class="st4" d="M255.1,498.8c0,4-1.5,6.2-4.1,6.2c-2.3,0-3.8-2.1-3.9-6c0-3.9,1.7-6.1,4.1-6.1
				C253.7,492.8,255.1,495,255.1,498.8z M248.7,498.9c0,3,0.9,4.8,2.4,4.8c1.6,0,2.4-1.9,2.4-4.9c0-2.9-0.7-4.8-2.4-4.8
				C249.7,494.1,248.7,495.8,248.7,498.9z"/>
			<path class="st4" d="M250.8,518.6c0.3-1.9,1.2-2.9,2.2-2.9c1.6,0,2.4,1.9,2.4,4.8c0,2.2-0.4,3.9-1.3,4.5c0.2,0.4,0.4,0.8,0.5,1.2
				c1.5-0.8,2.4-2.8,2.4-5.8c0-3.7-1.4-5.9-3.9-5.9c-1.5,0-2.7,0.8-3.4,2.4C250.1,517.4,250.5,518,250.8,518.6z"/>
			<path class="st4" d="M253.5,606.4c0,0.2,0,0.4,0,0.5c0,3-0.8,4.9-2.4,4.9c-0.2,0-0.3,0-0.4-0.1c-0.2,0.4-0.4,0.7-0.7,1.1
				c0.3,0.1,0.6,0.2,1,0.2c2.6,0,4.1-2.2,4.1-6.2c0-1.2-0.2-2.2-0.4-3C254.3,604.7,253.9,605.6,253.5,606.4z"/>
			<path class="st4" d="M250.7,624.3L250.7,624.3l-2.1,1.1l-0.3-1.2l2.6-1.4h1.4v11.7h-1.5V624.3z"/>
			<path class="st4" d="M255.1,650.2c0,4-1.5,6.2-4.1,6.2c-2.3,0-3.8-2.1-3.9-6c0-3.9,1.7-6.1,4.1-6.1
				C253.7,644.2,255.1,646.4,255.1,650.2z M248.7,650.3c0,3,0.9,4.8,2.4,4.8c1.6,0,2.4-1.9,2.4-4.9c0-2.9-0.7-4.8-2.4-4.8
				C249.7,645.5,248.7,647.1,248.7,650.3z"/>
			<path class="st4" d="M250.7,667.5L250.7,667.5l-2.1,1.1l-0.3-1.2l2.6-1.4h1.4v11.7h-1.5V667.5z"/>
			<path class="st4" d="M255.1,693.4c0,4-1.5,6.2-4.1,6.2c-2.3,0-3.8-2.1-3.9-6c0-3.9,1.7-6.1,4.1-6.1
				C253.7,687.5,255.1,689.7,255.1,693.4z M248.7,693.6c0,3,0.9,4.8,2.4,4.8c1.6,0,2.4-1.9,2.4-4.9c0-2.9-0.7-4.8-2.4-4.8
				C249.7,688.7,248.7,690.4,248.7,693.6z"/>
			<path class="st4" d="M250.7,710.8L250.7,710.8l-2.1,1.1l-0.3-1.2l2.6-1.4h1.4V721h-1.5V710.8z"/>
			<path class="st4" d="M255.1,736.7c0,4-1.5,6.2-4.1,6.2c-2.3,0-3.8-2.1-3.9-6c0-3.9,1.7-6.1,4.1-6.1
				C253.7,730.7,255.1,732.9,255.1,736.7z M248.7,736.8c0,3,0.9,4.8,2.4,4.8c1.6,0,2.4-1.9,2.4-4.9c0-2.9-0.7-4.8-2.4-4.8
				C249.7,732,248.7,733.7,248.7,736.8z"/>
		</g>
		<g>
			<path class="st4" d="M308.5,55.4c0,4-1.5,6.2-4.1,6.2c-2.3,0-3.8-2.1-3.9-6c0-3.9,1.7-6.1,4.1-6.1
				C307.1,49.5,308.5,51.7,308.5,55.4z M302.2,55.6c0,3,0.9,4.8,2.4,4.8c1.6,0,2.4-1.9,2.4-4.9c0-2.9-0.7-4.8-2.4-4.8
				C303.2,50.7,302.2,52.4,302.2,55.6z"/>
			<path class="st4" d="M304.2,72.8L304.2,72.8l-2.1,1.1l-0.3-1.2l2.6-1.4h1.4V83h-1.5V72.8z"/>
			<path class="st4" d="M308.5,98.7c0,4-1.5,6.2-4.1,6.2c-2.3,0-3.8-2.1-3.9-6c0-3.9,1.7-6.1,4.1-6.1
				C307.1,92.7,308.5,94.9,308.5,98.7z M302.2,98.8c0,3,0.9,4.8,2.4,4.8c1.6,0,2.4-1.9,2.4-4.9c0-2.9-0.7-4.8-2.4-4.8
				C303.2,94,302.2,95.7,302.2,98.8z"/>
			<path class="st4" d="M304.2,116L304.2,116l-2.1,1.1l-0.3-1.2l2.6-1.4h1.4v11.7h-1.5V116z"/>
			<path class="st4" d="M308.5,141.9c0,4-1.5,6.2-4.1,6.2c-2.3,0-3.8-2.1-3.9-6c0-3.9,1.7-6.1,4.1-6.1
				C307.1,136,308.5,138.2,308.5,141.9z M302.2,142.1c0,3,0.9,4.8,2.4,4.8c1.6,0,2.4-1.9,2.4-4.9c0-2.9-0.7-4.8-2.4-4.8
				C303.2,137.2,302.2,138.9,302.2,142.1z"/>
			<path class="st4" d="M304.2,159.3L304.2,159.3l-2.1,1.1l-0.3-1.2l2.6-1.4h1.4v11.7h-1.5V159.3z"/>
			<path class="st4" d="M308.5,185.2c0,4-1.5,6.2-4.1,6.2c-2.3,0-3.8-2.1-3.9-6c0-3.9,1.7-6.1,4.1-6.1
				C307.1,179.2,308.5,181.4,308.5,185.2z M302.2,185.4c0,3,0.9,4.8,2.4,4.8c1.6,0,2.4-1.9,2.4-4.9c0-2.9-0.7-4.8-2.4-4.8
				C303.2,180.5,302.2,182.2,302.2,185.4z"/>
			<path class="st4" d="M304.2,202.5L304.2,202.5l-2.1,1.1l-0.3-1.2l2.6-1.4h1.4v11.7h-1.5V202.5z"/>
			<path class="st4" d="M308.5,228.4c0,4-1.5,6.2-4.1,6.2c-2.3,0-3.8-2.1-3.9-6c0-3.9,1.7-6.1,4.1-6.1
				C307.1,222.5,308.5,224.7,308.5,228.4z M302.2,228.6c0,3,0.9,4.8,2.4,4.8c1.6,0,2.4-1.9,2.4-4.9c0-2.9-0.7-4.8-2.4-4.8
				C303.2,223.7,302.2,225.4,302.2,228.6z"/>
			<path class="st4" d="M304.2,245.8L304.2,245.8l-2.1,1.1l-0.3-1.2l2.6-1.4h1.4V256h-1.5V245.8z"/>
			<path class="st4" d="M308.5,271.7c0,4-1.5,6.2-4.1,6.2c-2.3,0-3.8-2.1-3.9-6c0-3.9,1.7-6.1,4.1-6.1
				C307.1,265.8,308.5,268,308.5,271.7z M302.2,271.9c0,3,0.9,4.8,2.4,4.8c1.6,0,2.4-1.9,2.4-4.9c0-2.9-0.7-4.8-2.4-4.8
				C303.2,267,302.2,268.7,302.2,271.9z"/>
			<path class="st4" d="M304.2,289.1L304.2,289.1l-2.1,1.1l-0.3-1.2l2.6-1.4h1.4v11.7h-1.5V289.1z"/>
			<path class="st4" d="M308.5,314.9c0,4-1.5,6.2-4.1,6.2c-2.3,0-3.8-2.1-3.9-6c0-3.9,1.7-6.1,4.1-6.1
				C307.1,309,308.5,311.2,308.5,314.9z M302.2,315.1c0,3,0.9,4.8,2.4,4.8c1.6,0,2.4-1.9,2.4-4.9c0-2.9-0.7-4.8-2.4-4.8
				C303.2,310.2,302.2,311.9,302.2,315.1z"/>
			<path class="st4" d="M304.2,332.3L304.2,332.3l-2.1,1.1l-0.3-1.2l2.6-1.4h1.4v11.7h-1.5V332.3z"/>
			<path class="st4" d="M308.5,358.2c0,4-1.5,6.2-4.1,6.2c-2.3,0-3.8-2.1-3.9-6c0-3.9,1.7-6.1,4.1-6.1
				C307.1,352.3,308.5,354.5,308.5,358.2z M302.2,358.4c0,3,0.9,4.8,2.4,4.8c1.6,0,2.4-1.9,2.4-4.9c0-2.9-0.7-4.8-2.4-4.8
				C303.2,353.5,302.2,355.2,302.2,358.4z"/>
			<path class="st4" d="M304.2,375.6L304.2,375.6l-2.1,1.1l-0.3-1.2l2.6-1.4h1.4v11.7h-1.5V375.6z"/>
			<path class="st4" d="M308.5,401.4c0,4-1.5,6.2-4.1,6.2c-2.3,0-3.8-2.1-3.9-6c0-3.9,1.7-6.1,4.1-6.1
				C307.1,395.5,308.5,397.7,308.5,401.4z M302.2,401.6c0,3,0.9,4.8,2.4,4.8c1.6,0,2.4-1.9,2.4-4.9c0-2.9-0.7-4.8-2.4-4.8
				C303.2,396.7,302.2,398.4,302.2,401.6z"/>
			<path class="st4" d="M304.2,418.8L304.2,418.8l-2.1,1.1l-0.3-1.2l2.6-1.4h1.4v11.7h-1.5V418.8z"/>
			<path class="st4" d="M308.5,444.7c0,4-1.5,6.2-4.1,6.2c-2.3,0-3.8-2.1-3.9-6c0-3.9,1.7-6.1,4.1-6.1
				C307.1,438.8,308.5,441,308.5,444.7z M302.2,444.9c0,3,0.9,4.8,2.4,4.8c1.6,0,2.4-1.9,2.4-4.9c0-2.9-0.7-4.8-2.4-4.8
				C303.2,440,302.2,441.7,302.2,444.9z"/>
			<path class="st4" d="M304.2,462.1L304.2,462.1l-2.1,1.1l-0.3-1.2l2.6-1.4h1.4v11.7h-1.5V462.1z"/>
			<path class="st4" d="M308.5,488c0,4-1.5,6.2-4.1,6.2c-2.3,0-3.8-2.1-3.9-6c0-3.9,1.7-6.1,4.1-6.1
				C307.1,482,308.5,484.2,308.5,488z M302.2,488.1c0,3,0.9,4.8,2.4,4.8c1.6,0,2.4-1.9,2.4-4.9c0-2.9-0.7-4.8-2.4-4.8
				C303.2,483.2,302.2,484.9,302.2,488.1z"/>
			<path class="st4" d="M308.5,509.6c0,4-1.5,6.2-4.1,6.2c-2.3,0-3.8-2.1-3.9-6c0-3.9,1.7-6.1,4.1-6.1
				C307.1,503.7,308.5,505.9,308.5,509.6z M302.2,509.8c0,3,0.9,4.8,2.4,4.8c1.6,0,2.4-1.9,2.4-4.9c0-2.9-0.7-4.8-2.4-4.8
				C303.2,504.9,302.2,506.6,302.2,509.8z"/>
			<path class="st4" d="M304.2,527L304.2,527l-2.1,1.1l-0.3-1.2l2.6-1.4h1.4v11.7h-1.5V527z"/>
			<path class="st4" d="M308.5,552.8c0,4-1.5,6.2-4.1,6.2c-2.3,0-3.8-2.1-3.9-6c0-3.9,1.7-6.1,4.1-6.1
				C307.1,546.9,308.5,549.1,308.5,552.8z M302.2,553c0,3,0.9,4.8,2.4,4.8c1.6,0,2.4-1.9,2.4-4.9c0-2.9-0.7-4.8-2.4-4.8
				C303.2,548.1,302.2,549.8,302.2,553z"/>
			<path class="st4" d="M304.2,570.2L304.2,570.2l-2.1,1.1l-0.3-1.2l2.6-1.4h1.4v11.7h-1.5V570.2z"/>
			<path class="st4" d="M308.5,596.1c0,4-1.5,6.2-4.1,6.2c-2.3,0-3.8-2.1-3.9-6c0-3.9,1.7-6.1,4.1-6.1
				C307.1,590.2,308.5,592.4,308.5,596.1z M302.2,596.3c0,3,0.9,4.8,2.4,4.8c1.6,0,2.4-1.9,2.4-4.9c0-2.9-0.7-4.8-2.4-4.8
				C303.2,591.4,302.2,593.1,302.2,596.3z"/>
			<path class="st4" d="M304.2,613.5L304.2,613.5l-2.1,1.1l-0.3-1.2l2.6-1.4h1.4v11.7h-1.5V613.5z"/>
			<path class="st4" d="M308.5,639.3c0,4-1.5,6.2-4.1,6.2c-2.3,0-3.8-2.1-3.9-6c0-3.9,1.7-6.1,4.1-6.1
				C307.1,633.4,308.5,635.6,308.5,639.3z M302.2,639.5c0,3,0.9,4.8,2.4,4.8c1.6,0,2.4-1.9,2.4-4.9c0-2.9-0.7-4.8-2.4-4.8
				C303.2,634.6,302.2,636.3,302.2,639.5z"/>
			<path class="st4" d="M304.2,656.7L304.2,656.7l-2.1,1.1l-0.3-1.2l2.6-1.4h1.4V667h-1.5V656.7z"/>
			<path class="st4" d="M308.5,682.6c0,4-1.5,6.2-4.1,6.2c-2.3,0-3.8-2.1-3.9-6c0-3.9,1.7-6.1,4.1-6.1
				C307.1,676.7,308.5,678.9,308.5,682.6z M302.2,682.8c0,3,0.9,4.8,2.4,4.8c1.6,0,2.4-1.9,2.4-4.9c0-2.9-0.7-4.8-2.4-4.8
				C303.2,677.9,302.2,679.6,302.2,682.8z"/>
			<path class="st4" d="M304.2,700L304.2,700l-2.1,1.1l-0.3-1.2l2.6-1.4h1.4v11.7h-1.5V700z"/>
		</g>
		<g>
			<path class="st4" d="M191.8,55.4c0,4-1.5,6.2-4.1,6.2c-2.3,0-3.8-2.1-3.9-6c0-3.9,1.7-6.1,4.1-6.1
				C190.4,49.5,191.8,51.7,191.8,55.4z M185.4,55.6c0,3,0.9,4.8,2.4,4.8c1.6,0,2.4-1.9,2.4-4.9c0-2.9-0.7-4.8-2.4-4.8
				C186.4,50.7,185.4,52.4,185.4,55.6z"/>
			<path class="st4" d="M187.5,72.8L187.5,72.8l-2.1,1.1l-0.3-1.2l2.6-1.4h1.4V83h-1.5V72.8z"/>
			<path class="st4" d="M191.8,98.7c0,4-1.5,6.2-4.1,6.2c-2.3,0-3.8-2.1-3.9-6c0-3.9,1.7-6.1,4.1-6.1
				C190.4,92.7,191.8,94.9,191.8,98.7z M185.4,98.8c0,3,0.9,4.8,2.4,4.8c1.6,0,2.4-1.9,2.4-4.9c0-2.9-0.7-4.8-2.4-4.8
				C186.4,94,185.4,95.7,185.4,98.8z"/>
			<path class="st4" d="M187.5,116L187.5,116l-2.1,1.1l-0.3-1.2l2.6-1.4h1.4v11.7h-1.5V116z"/>
			<path class="st4" d="M191.8,141.9c0,4-1.5,6.2-4.1,6.2c-2.3,0-3.8-2.1-3.9-6c0-3.9,1.7-6.1,4.1-6.1
				C190.4,136,191.8,138.2,191.8,141.9z M185.4,142.1c0,3,0.9,4.8,2.4,4.8c1.6,0,2.4-1.9,2.4-4.9c0-2.9-0.7-4.8-2.4-4.8
				C186.4,137.2,185.4,138.9,185.4,142.1z"/>
			<path class="st4" d="M187.5,159.3L187.5,159.3l-2.1,1.1l-0.3-1.2l2.6-1.4h1.4v11.7h-1.5V159.3z"/>
			<path class="st4" d="M191.8,185.2c0,4-1.5,6.2-4.1,6.2c-2.3,0-3.8-2.1-3.9-6c0-3.9,1.7-6.1,4.1-6.1
				C190.4,179.2,191.8,181.4,191.8,185.2z M185.4,185.4c0,3,0.9,4.8,2.4,4.8c1.6,0,2.4-1.9,2.4-4.9c0-2.9-0.7-4.8-2.4-4.8
				C186.4,180.5,185.4,182.2,185.4,185.4z"/>
			<path class="st4" d="M187.5,202.5L187.5,202.5l-2.1,1.1l-0.3-1.2l2.6-1.4h1.4v11.7h-1.5V202.5z"/>
			<path class="st4" d="M191.8,228.4c0,4-1.5,6.2-4.1,6.2c-2.3,0-3.8-2.1-3.9-6c0-3.9,1.7-6.1,4.1-6.1
				C190.4,222.5,191.8,224.7,191.8,228.4z M185.4,228.6c0,3,0.9,4.8,2.4,4.8c1.6,0,2.4-1.9,2.4-4.9c0-2.9-0.7-4.8-2.4-4.8
				C186.4,223.7,185.4,225.4,185.4,228.6z"/>
			<path class="st4" d="M187.5,245.8L187.5,245.8l-2.1,1.1l-0.3-1.2l2.6-1.4h1.4V256h-1.5V245.8z"/>
			<path class="st4" d="M191.8,271.7c0,4-1.5,6.2-4.1,6.2c-2.3,0-3.8-2.1-3.9-6c0-3.9,1.7-6.1,4.1-6.1
				C190.4,265.8,191.8,268,191.8,271.7z M185.4,271.9c0,3,0.9,4.8,2.4,4.8c1.6,0,2.4-1.9,2.4-4.9c0-2.9-0.7-4.8-2.4-4.8
				C186.4,267,185.4,268.7,185.4,271.9z"/>
			<path class="st4" d="M187.5,289.1L187.5,289.1l-2.1,1.1l-0.3-1.2l2.6-1.4h1.4v11.7h-1.5V289.1z"/>
			<path class="st4" d="M191.8,314.9c0,4-1.5,6.2-4.1,6.2c-2.3,0-3.8-2.1-3.9-6c0-3.9,1.7-6.1,4.1-6.1
				C190.4,309,191.8,311.2,191.8,314.9z M185.4,315.1c0,3,0.9,4.8,2.4,4.8c1.6,0,2.4-1.9,2.4-4.9c0-2.9-0.7-4.8-2.4-4.8
				C186.4,310.2,185.4,311.9,185.4,315.1z"/>
			<path class="st4" d="M187.5,332.3L187.5,332.3l-2.1,1.1l-0.3-1.2l2.6-1.4h1.4v11.7h-1.5V332.3z"/>
			<path class="st4" d="M191.8,358.2c0,4-1.5,6.2-4.1,6.2c-2.3,0-3.8-2.1-3.9-6c0-3.9,1.7-6.1,4.1-6.1
				C190.4,352.3,191.8,354.5,191.8,358.2z M185.4,358.4c0,3,0.9,4.8,2.4,4.8c1.6,0,2.4-1.9,2.4-4.9c0-2.9-0.7-4.8-2.4-4.8
				C186.4,353.5,185.4,355.2,185.4,358.4z"/>
			<path class="st4" d="M187.5,375.6L187.5,375.6l-2.1,1.1l-0.3-1.2l2.6-1.4h1.4v11.7h-1.5V375.6z"/>
			<path class="st4" d="M191.8,401.4c0,4-1.5,6.2-4.1,6.2c-2.3,0-3.8-2.1-3.9-6c0-3.9,1.7-6.1,4.1-6.1
				C190.4,395.5,191.8,397.7,191.8,401.4z M185.4,401.6c0,3,0.9,4.8,2.4,4.8c1.6,0,2.4-1.9,2.4-4.9c0-2.9-0.7-4.8-2.4-4.8
				C186.4,396.7,185.4,398.4,185.4,401.6z"/>
			<path class="st4" d="M187.5,418.8L187.5,418.8l-2.1,1.1l-0.3-1.2l2.6-1.4h1.4v11.7h-1.5V418.8z"/>
			<path class="st4" d="M191.8,444.7c0,4-1.5,6.2-4.1,6.2c-2.3,0-3.8-2.1-3.9-6c0-3.9,1.7-6.1,4.1-6.1
				C190.4,438.8,191.8,441,191.8,444.7z M185.4,444.9c0,3,0.9,4.8,2.4,4.8c1.6,0,2.4-1.9,2.4-4.9c0-2.9-0.7-4.8-2.4-4.8
				C186.4,440,185.4,441.7,185.4,444.9z"/>
			<path class="st4" d="M187.5,462.1L187.5,462.1l-2.1,1.1l-0.3-1.2l2.6-1.4h1.4v11.7h-1.5V462.1z"/>
			<path class="st4" d="M187.5,658.9v8h1.5v-8.1C188.5,658.9,188,658.9,187.5,658.9z"/>
			<path class="st4" d="M191.8,682.6c0,4-1.5,6.2-4.1,6.2c-2.3,0-3.8-2.1-3.9-6c0-3.9,1.7-6.1,4.1-6.1
				C190.4,676.7,191.8,678.9,191.8,682.6z M185.4,682.8c0,3,0.9,4.8,2.4,4.8c1.6,0,2.4-1.9,2.4-4.9c0-2.9-0.7-4.8-2.4-4.8
				C186.4,677.9,185.4,679.6,185.4,682.8z"/>
			<path class="st4" d="M187.5,700L187.5,700l-2.1,1.1l-0.3-1.2l2.6-1.4h1.4v11.7h-1.5V700z"/>
		</g>
	</g>
	<g>
		<path class="st5" d="M363.1,120.7c-5.9-7.9-74.3-10.7-120.1-10.7c-45.1,0-109.7,1.9-118.8,10.4v529.4c0,0,26.3,9.3,116.7,8.4
			c64.4-0.7,122.1-8.4,122.1-8.4V120.7z"/>
		<ellipse class="st6" cx="243.3" cy="120.3" rx="119.6" ry="10.3"/>
		<ellipse class="st7" cx="243.3" cy="120.3" rx="119.6" ry="10.3"/>
		<line class="st8" x1="123.7" y1="120.3" x2="123.7" y2="647.8"/>
		<path class="st7" d="M362.9,648.3c0,5.7-53.6,10.3-119.6,10.3s-119.6-4.6-119.6-10.3"/>
		<line class="st8" x1="363.3" y1="118" x2="363.3" y2="650.3"/>
	</g>
	<path class="st8" d="M430.2,525.8"/>
	<g>
		<path class="st9" d="M407.2,170.5c-44.6-6.7-102.2-10.8-165.1-10.8c-62,0-118.9,3.9-163.2,10.5v420.4c0,0,15.9,17,160.4,12.7
			c157-4.7,167.8-13.1,167.8-13.1V170.5z"/>
		<ellipse class="st6" cx="243.5" cy="173.3" rx="165.6" ry="13.5"/>
		<line class="st8" x1="77.9" y1="173.3" x2="77.9" y2="588.4"/>
		<ellipse class="st7" cx="243.5" cy="173.3" rx="165.6" ry="13.5"/>
		<path class="st7" d="M408.5,589.4c-169.4,29.5-330.6,7.4-330.6,0.2"/>
		<path class="st7" d="M409,589.5"/>
		<line class="st8" x1="408.8" y1="175.3" x2="408.8" y2="588.3"/>
	</g>
	<g>
		<path class="st10" d="M449.9,239.6c-55.6-15.9-127.8-13.7-206.5-13.7c-77.6,0-148.3-1.6-204.2,11.4v289.4
			c0,0,28.6,17.4,215.6,18.1c182.6,0.7,195-18.1,195-18.1V239.6z"/>
		<g>
			<ellipse class="st11" cx="242.8" cy="240.2" rx="205.8" ry="16.7"/>
		</g>
		<line class="st8" x1="37" y1="240.2" x2="37" y2="525.8"/>
		<ellipse class="st6" cx="242.8" cy="240.2" rx="205.8" ry="16.7"/>
		<g>
			<g>
				<path class="st12" d="M448.6,525.5c0,1.2-1.6,2.3-4.6,3.5"/>
				<path class="st13" d="M432.2,532.1c-6.4,1.4-14.6,2.8-24.1,4.3c-44.4,7.1-113.3,7.6-158.4,8.4c-86.9,1.4-172.9-6.4-202.2-14.1"
					/>
				<path class="st12" d="M41.7,528.9c-3-1.2-4.6-2.3-4.6-3.4"/>
			</g>
		</g>
		<line class="st8" x1="448.3" y1="241.2" x2="448.3" y2="525.7"/>
		<path class="st8" d="M448.6,425.5"/>
	</g>
	<g>
		<defs>
			<circle id="SVGID_3_" cx="174.9" cy="559.3" r="94.6"/>
		</defs>
		<clipPath id="SVGID_4_">
			<use xlink:href="#SVGID_3_"  style="overflow:visible;"/>
		</clipPath>
	</g>
	<g>
		<circle class="st14" cx="169.7" cy="566.9" r="92.7"/>
		<g>
			<line class="st15" x1="105.1" y1="638.8" x2="24.4" y2="719.5"/>
		</g>
		<circle class="st16" cx="169.7" cy="566.9" r="92.7"/>
		
			<radialGradient id="SVGID_5_" cx="154.9754" cy="567.2653" r="89.1492" gradientTransform="matrix(-1 0 0 1 324.6886 0)" gradientUnits="userSpaceOnUse">
			<stop  offset="0" style="stop-color:#FFFFFF"/>
			<stop  offset="0.8351" style="stop-color:#E7E6E6"/>
			<stop  offset="1" style="stop-color:#000000"/>
		</radialGradient>
		<circle class="st17" cx="169.7" cy="567.3" r="89.1"/>
		<path class="st18" d="M102.4,554.3c0,0,0-33.4,25.9-48.9c0,0,22.8-15.7,47.2-10c0,0-19.6,0.1-42.6,19.3
			C107,536.3,102.4,554.3,102.4,554.3z"/>
	</g>
	<g>
		<path class="st19" d="M344.1,522.1l3-0.7v0l-3-0.7l-13.4-4.7v-2.3l19.9,7.4v1l-19.9,7.6v-2.5L344.1,522.1z"/>
		<path class="st19" d="M330.7,510.8v-2.3h19.6v2.3H330.7z"/>
		<path class="st19" d="M345.3,494.3c-0.8,0-1.4,0.2-1.9,0.7c-0.5,0.5-0.9,1.1-1.3,1.8c-0.4,0.7-0.7,1.5-1.1,2.3
			c-0.3,0.8-0.7,1.6-1.2,2.3s-1.1,1.3-1.8,1.8s-1.6,0.7-2.7,0.7c-1.5,0-2.7-0.5-3.6-1.6s-1.3-2.6-1.3-4.5c0-1.1,0.1-2.2,0.3-3.1
			s0.4-1.7,0.6-2.2l2.1,0.7c-0.2,0.4-0.4,1.1-0.6,1.9c-0.2,0.8-0.3,1.8-0.3,2.8c0,1.2,0.3,2.2,0.8,2.8s1.2,0.9,1.9,0.9
			c0.7,0,1.3-0.2,1.8-0.7c0.5-0.5,0.9-1,1.3-1.8c0.4-0.7,0.8-1.5,1.1-2.3c0.4-0.8,0.8-1.6,1.3-2.3c0.5-0.7,1.1-1.3,1.8-1.8
			s1.6-0.7,2.6-0.7c0.8,0,1.6,0.1,2.3,0.4c0.7,0.3,1.3,0.7,1.7,1.3c0.5,0.6,0.9,1.3,1.1,2.1s0.4,1.8,0.4,2.8c0,1.4-0.1,2.6-0.3,3.5
			c-0.2,0.9-0.5,1.6-0.7,2.1l-2.1-0.8c0.2-0.4,0.5-1.1,0.7-1.9c0.2-0.8,0.3-1.8,0.3-2.8c0-0.6-0.1-1.2-0.2-1.7
			c-0.1-0.5-0.3-1-0.6-1.4c-0.3-0.4-0.6-0.7-1-0.9C346.3,494.4,345.8,494.3,345.3,494.3z"/>
		<path class="st19" d="M330.7,487.7v-2.3h19.6v2.3H330.7z"/>
		<path class="st19" d="M335.1,468.3c0.5,0,0.9,0.1,1.4,0.2c0.5,0.2,0.9,0.4,1.4,0.7c0.4,0.3,0.8,0.7,1.1,1.1c0.3,0.5,0.6,1,0.7,1.7
			h0.1c0.1-0.6,0.3-1.1,0.5-1.6c0.2-0.5,0.5-1,0.9-1.4c0.4-0.4,0.9-0.7,1.4-1c0.6-0.2,1.2-0.4,2-0.4c1,0,1.9,0.2,2.6,0.6
			c0.7,0.4,1.3,1,1.8,1.7c0.5,0.7,0.8,1.5,1,2.3c0.2,0.9,0.3,1.8,0.3,2.7c0,0.3,0,0.7,0,1.1s0,0.9,0,1.3s-0.1,0.9-0.1,1.4
			s-0.1,0.9-0.2,1.2h-19.3c-0.1-0.7-0.2-1.5-0.3-2.4c-0.1-0.9-0.1-1.9-0.1-3c0-0.7,0.1-1.5,0.2-2.2c0.1-0.8,0.4-1.4,0.7-2.1
			c0.3-0.6,0.8-1.1,1.4-1.5C333.4,468.5,334.2,468.3,335.1,468.3z M339.3,476.3c0-0.3,0-0.7,0-1.1c0-0.4,0-0.8-0.1-1.1
			c-0.1-0.4-0.3-0.9-0.5-1.3c-0.2-0.4-0.5-0.7-0.8-1.1c-0.3-0.3-0.6-0.6-1-0.7c-0.4-0.2-0.8-0.3-1.2-0.3c-0.6,0-1.1,0.1-1.5,0.3
			c-0.4,0.2-0.7,0.5-1,0.9c-0.2,0.4-0.4,0.8-0.5,1.3c-0.1,0.5-0.2,1-0.2,1.5c0,0.6,0,1.2,0,1.7c0,0.5,0.1,0.9,0.1,1.2h6.7V476.3z
			 M348.5,474.8c0-0.6-0.1-1.2-0.2-1.7c-0.1-0.6-0.4-1.1-0.7-1.5s-0.7-0.8-1.1-1s-1-0.4-1.6-0.4c-0.8,0-1.4,0.2-1.8,0.5
			c-0.5,0.3-0.8,0.7-1.1,1.2c-0.3,0.5-0.4,1.1-0.5,1.7c-0.1,0.6-0.1,1.2-0.1,1.8v2.4h7c0-0.1,0.1-0.3,0.1-0.6c0-0.2,0-0.5,0.1-0.8
			c0-0.3,0-0.6,0-0.9C348.5,475.3,348.5,475,348.5,474.8z"/>
		<path class="st19" d="M350.3,452.2v11.6h-19.6v-2.3h17.5v-9.3H350.3z"/>
		<path class="st19" d="M330.7,449.3v-10.7h2.1v8.3h6.4v-7.6h2.1v7.6h7v-8.5h2.1v10.8H330.7z"/>
	</g>
	<g>
		<path class="st19" d="M376.1,524.6c-0.2-0.7-0.3-1.5-0.3-2.3c-0.1-0.8-0.1-1.6-0.1-2.4c0-0.9,0.1-1.7,0.3-2.6
			c0.2-0.9,0.5-1.7,0.9-2.4c0.4-0.7,1.1-1.3,1.8-1.8c0.8-0.5,1.8-0.7,3-0.7c1.2,0,2.2,0.2,3,0.6c0.8,0.4,1.5,1,2,1.7
			s0.9,1.5,1.1,2.4c0.2,0.9,0.3,1.9,0.3,2.8c0,0.1,0,0.2,0,0.5s0,0.4,0,0.7c0,0.2,0,0.5,0,0.7c0,0.2,0,0.4-0.1,0.5h7.5v2.3H376.1z
			 M377.7,519.8c0,0.5,0,1,0,1.4s0.1,0.8,0.1,1.1h8.1c0-0.1,0.1-0.2,0.1-0.4c0-0.2,0-0.4,0-0.6c0-0.2,0-0.4,0-0.6c0-0.2,0-0.4,0-0.4
			c0-0.6-0.1-1.3-0.2-1.9s-0.3-1.2-0.7-1.7c-0.3-0.5-0.8-0.9-1.3-1.2c-0.6-0.3-1.3-0.5-2.2-0.5c-0.8,0-1.4,0.1-1.9,0.4
			c-0.5,0.3-0.9,0.7-1.2,1.1c-0.3,0.5-0.5,1-0.7,1.6C377.7,518.6,377.7,519.2,377.7,519.8z"/>
		<path class="st19" d="M385.7,510.2c-3.3,0-5.8-0.7-7.5-2.1c-1.7-1.4-2.6-3.4-2.6-5.9c0-1.4,0.2-2.6,0.7-3.6c0.5-1,1.2-1.8,2.1-2.5
			s2-1.2,3.2-1.5c1.2-0.3,2.6-0.5,4.2-0.5c3.3,0,5.8,0.7,7.5,2.1c1.7,1.4,2.6,3.4,2.6,6c0,1.4-0.2,2.5-0.7,3.5s-1.2,1.8-2.1,2.5
			c-0.9,0.7-2,1.2-3.2,1.5C388.6,510.1,387.2,510.2,385.7,510.2z M385.7,507.8c1.1,0,2.1-0.1,3.1-0.3s1.8-0.5,2.6-1
			c0.7-0.4,1.3-1,1.8-1.7c0.4-0.7,0.7-1.5,0.7-2.5c0-1.7-0.7-3.1-2-4.1c-1.3-1-3.3-1.5-6.1-1.5c-1.1,0-2.1,0.1-3.1,0.3
			c-1,0.2-1.8,0.6-2.6,1c-0.7,0.5-1.3,1-1.8,1.7c-0.4,0.7-0.7,1.5-0.7,2.5c0,1.7,0.7,3.1,2,4S382.9,507.8,385.7,507.8z"/>
		<path class="st19" d="M395.5,478.7v11.6h-19.6v-2.3h17.5v-9.3H395.5z"/>
		<path class="st19" d="M375.9,475.2v-2.3h19.6v2.3H375.9z"/>
		<path class="st19" d="M394.7,455.1c0.4,0.6,0.7,1.3,0.9,2.1c0.2,0.9,0.3,1.8,0.3,2.7c0,1.2-0.2,2.3-0.6,3.3c-0.4,1-1,1.9-1.8,2.7
			c-0.8,0.8-1.9,1.4-3.2,1.8s-2.8,0.7-4.6,0.7c-1.8,0-3.4-0.2-4.7-0.7c-1.3-0.5-2.3-1.1-3.1-2c-0.8-0.8-1.4-1.7-1.8-2.7
			c-0.4-1-0.6-2-0.6-3.1c0-1.1,0.1-2,0.2-2.7c0.1-0.7,0.3-1.3,0.5-1.8l2.1,0.6c-0.4,0.9-0.7,2.2-0.7,3.8c0,0.8,0.1,1.5,0.4,2.3
			c0.3,0.7,0.7,1.4,1.4,2c0.6,0.6,1.5,1.1,2.5,1.4c1,0.4,2.3,0.5,3.8,0.5c1.3,0,2.5-0.2,3.5-0.5c1-0.3,1.8-0.8,2.5-1.4
			c0.7-0.6,1.2-1.3,1.5-2.1c0.3-0.8,0.5-1.7,0.5-2.6c0-0.8-0.1-1.6-0.3-2.2c-0.2-0.6-0.4-1.2-0.6-1.6L394.7,455.1z"/>
		<path class="st19" d="M387.7,448.3l-11.8,6.5V452l8.6-4.6l1.7-0.5v0l-1.8-0.5l-8.5-4.4v-2.5l11.8,6.4h7.8v2.3H387.7z"/>
	</g>
	<g>
		<path class="st19" d="M418.2,518.1v-2.3h19.6v2.3H418.2z"/>
		<path class="st19" d="M425,507l-2.8,1.5v0.1l2.8-0.3h12.8v2.2h-19.9v-1.2l13.1-9.4l2.7-1.5v-0.1l-2.7,0.3h-12.8v-2.2h19.9v1.2
			L425,507z"/>
		<path class="st19" d="M420.3,479v6.1h17.5v2.3h-17.5v6.1h-2.1V479H420.3z"/>
		<path class="st19" d="M418.2,476.1v-10.7h2.1v8.3h6.4v-7.6h2.1v7.6h7v-8.5h2.1v10.8H418.2z"/>
		<path class="st19" d="M437.8,449.5v11.6h-19.6v-2.3h17.5v-9.3H437.8z"/>
		<path class="st19" d="M437.8,435v11.6h-19.6v-2.3h17.5V435H437.8z"/>
		<path class="st19" d="M418.2,431.6v-2.3h19.6v2.3H418.2z"/>
		<path class="st19" d="M428,417.4v-6.6h8.6c0.2,0.3,0.4,0.7,0.6,1.1c0.2,0.4,0.3,0.9,0.5,1.3c0.1,0.5,0.2,1,0.3,1.5
			c0.1,0.5,0.1,1,0.1,1.5c0,1.3-0.2,2.4-0.6,3.4s-1,2-1.8,2.7c-0.8,0.8-1.9,1.4-3.2,1.8s-2.8,0.6-4.5,0.6c-1.8,0-3.4-0.3-4.6-0.8
			s-2.3-1.2-3.2-2c-0.8-0.8-1.4-1.8-1.8-2.8s-0.6-2.1-0.6-3.1c0-1.1,0.1-2,0.2-2.8s0.3-1.3,0.5-1.8l2.1,0.6
			c-0.4,0.9-0.7,2.2-0.7,3.8c0,0.8,0.1,1.6,0.4,2.3c0.3,0.8,0.7,1.5,1.4,2.1s1.5,1.1,2.5,1.5c1,0.4,2.3,0.6,3.8,0.6
			c1.4,0,2.6-0.2,3.6-0.5c1-0.3,1.8-0.8,2.5-1.3c0.7-0.6,1.2-1.3,1.5-2.1c0.3-0.8,0.5-1.7,0.5-2.6c0-1.2-0.2-2.2-0.7-3h-5.5
			l-0.6,4.6H428z"/>
		<path class="st19" d="M418.2,406.9v-10.7h2.1v8.3h6.4v-7.6h2.1v7.6h7V396h2.1v10.8H418.2z"/>
		<path class="st19" d="M425,388.3l-2.8,1.5v0.1l2.8-0.3h12.8v2.2h-19.9v-1.2l13.1-9.4l2.7-1.5v-0.1l-2.7,0.3h-12.8v-2.2h19.9v1.2
			L425,388.3z"/>
		<path class="st19" d="M437,360.4c0.4,0.6,0.7,1.3,0.9,2.1c0.2,0.9,0.3,1.8,0.3,2.7c0,1.2-0.2,2.3-0.6,3.3c-0.4,1-1,1.9-1.8,2.7
			s-1.9,1.4-3.2,1.8c-1.3,0.4-2.8,0.7-4.6,0.7c-1.8,0-3.4-0.2-4.7-0.7c-1.3-0.5-2.3-1.1-3.1-2c-0.8-0.8-1.4-1.7-1.8-2.7
			c-0.4-1-0.6-2-0.6-3.1c0-1.1,0.1-2,0.2-2.7c0.1-0.7,0.3-1.3,0.5-1.8l2.1,0.6c-0.4,0.9-0.7,2.2-0.7,3.8c0,0.8,0.1,1.5,0.4,2.3
			c0.3,0.7,0.7,1.4,1.4,2c0.6,0.6,1.5,1.1,2.5,1.4s2.3,0.5,3.8,0.5c1.3,0,2.5-0.2,3.5-0.5c1-0.3,1.8-0.8,2.5-1.4
			c0.7-0.6,1.2-1.3,1.5-2.1c0.3-0.8,0.5-1.7,0.5-2.6c0-0.8-0.1-1.6-0.3-2.2c-0.2-0.6-0.4-1.2-0.6-1.6L437,360.4z"/>
		<path class="st19" d="M418.2,357v-10.7h2.1v8.3h6.4V347h2.1v7.6h7v-8.5h2.1V357H418.2z"/>
	</g>
</g>
</svg>
