<?xml version="1.0" encoding="utf-8"?>
<!-- Generator: Adobe Illustrator 21.1.0, SVG Export Plug-In . SVG Version: 6.00 Build 0)  -->
<svg version="1.1" id="Layer_1" xmlns="http://www.w3.org/2000/svg" xmlns:xlink="http://www.w3.org/1999/xlink" x="0px" y="0px"
	 width="900px" height="724.8px" viewBox="0 0 900 724.8" style="enable-background:new 0 0 900 724.8;" xml:space="preserve">
<style type="text/css">
	.st0{fill:#4EC68D;}
	.st1{fill:#404751;}
	.st2{fill:#3FA9F5;}
	.st3{opacity:5.000000e-02;}
	.st4{fill:#FFFFFF;}
	.st5{fill:#D75352;}
	.st6{fill:#41ACE1;}
	.st7{fill:#E6BC45;}
	.st8{opacity:0.6;}
	.st9{fill:#7A828C;}
	.st10{fill:#C0C5C9;}
	.st11{fill:#9AA1A8;}
</style>
<g>
	<g>
		<ellipse class="st0" cx="297.3" cy="500.8" rx="28.7" ry="51.6"/>
	</g>
	<g>
		<path class="st1" d="M297,575c-0.6,0-1-0.4-1-1v-56.2c0-0.6,0.4-1,1-1s1,0.4,1,1V574C298,574.6,297.6,575,297,575z"/>
	</g>
	<g>
		<path class="st1" d="M297,539.6c-0.2,0-0.4-0.1-0.6-0.2l-11.9-9c-0.4-0.3-0.5-1-0.2-1.4c0.3-0.4,1-0.5,1.4-0.2l11.9,9
			c0.4,0.3,0.5,1,0.2,1.4C297.6,539.5,297.3,539.6,297,539.6z"/>
	</g>
	<g>
		<path class="st1" d="M297.3,547.4c-0.3,0-0.5-0.1-0.7-0.3c-0.4-0.4-0.3-1,0.1-1.4l7.4-6.6c0.4-0.4,1-0.3,1.4,0.1s0.3,1-0.1,1.4
			l-7.4,6.6C297.8,547.3,297.5,547.4,297.3,547.4z"/>
	</g>
	<g>
		<path class="st1" d="M298.5,530.7c-0.2,0-0.5-0.1-0.6-0.2c-0.4-0.4-0.5-1-0.1-1.4l9.8-11.8c0.4-0.4,1-0.5,1.4-0.1
			c0.4,0.4,0.5,1,0.1,1.4l-9.8,11.8C299.1,530.5,298.8,530.7,298.5,530.7z"/>
	</g>
</g>
<g>
	<g>
		<path class="st2" d="M175.3,426.6c-2.9,0-5.3-2.4-5.3-5.3s2.4-5.3,5.3-5.3s5.3,2.4,5.3,5.3S178.2,426.6,175.3,426.6z M175.3,419
			c-1.3,0-2.3,1-2.3,2.3s1,2.3,2.3,2.3s2.3-1,2.3-2.3S176.6,419,175.3,419z"/>
	</g>
	<g>
		<path class="st2" d="M184,413.8c-0.4,0-0.8-0.2-1.1-0.5c0,0-3.1-3.2-7.8-3.2c-4.8,0-7.2,3-7.3,3.1c-0.5,0.6-1.5,0.8-2.1,0.2
			c-0.6-0.5-0.8-1.4-0.3-2.1c0.1-0.2,3.4-4.2,9.7-4.2c6,0,9.8,4,10,4.1c0.6,0.6,0.5,1.6-0.1,2.1C184.7,413.6,184.3,413.8,184,413.8z
			"/>
	</g>
	<g>
		<path class="st2" d="M188.5,406c-0.4,0-0.8-0.2-1.1-0.5l0,0c0-0.1-5-5.2-12.6-5.2c-7.9,0-11.8,4.9-11.9,5.1
			c-0.5,0.6-1.5,0.8-2.1,0.3s-0.8-1.4-0.3-2.1c0.2-0.3,4.9-6.2,14.3-6.2c9,0,14.6,5.9,14.8,6.1c0.6,0.6,0.5,1.6-0.1,2.1
			C189.2,405.8,188.9,406,188.5,406z"/>
	</g>
	<g>
		<path class="st2" d="M156.9,398.4c-0.3,0-0.6-0.1-0.9-0.3c-0.7-0.5-0.8-1.5-0.3-2.1c0.3-0.3,6.6-8.3,19.2-8.3
			c12,0,19.6,7.9,19.9,8.2c0.6,0.6,0.5,1.6-0.1,2.1c-0.6,0.6-1.6,0.5-2.1-0.1l0,0c-0.1-0.1-7-7.3-17.7-7.3
			c-11.1,0-16.8,7.1-16.8,7.2C157.8,398.2,157.3,398.4,156.9,398.4z"/>
	</g>
</g>
<g>
	<g>
		<path class="st2" d="M799.3,426.6c-2.9,0-5.3-2.4-5.3-5.3s2.4-5.3,5.3-5.3s5.3,2.4,5.3,5.3S802.2,426.6,799.3,426.6z M799.3,419
			c-1.3,0-2.3,1-2.3,2.3s1,2.3,2.3,2.3s2.3-1,2.3-2.3S800.6,419,799.3,419z"/>
	</g>
	<g>
		<path class="st2" d="M808,413.8c-0.4,0-0.8-0.2-1.1-0.5c0,0-3.1-3.2-7.8-3.2c-4.8,0-7.2,3-7.3,3.1c-0.5,0.6-1.5,0.8-2.1,0.2
			c-0.6-0.5-0.8-1.4-0.3-2.1c0.1-0.2,3.4-4.2,9.7-4.2c6,0,9.8,4,10,4.1c0.6,0.6,0.5,1.6-0.1,2.1C808.7,413.6,808.3,413.8,808,413.8z
			"/>
	</g>
	<g>
		<path class="st2" d="M812.5,406c-0.4,0-0.8-0.2-1.1-0.5l0,0c0-0.1-5-5.2-12.6-5.2c-7.9,0-11.8,4.9-11.9,5.1
			c-0.5,0.6-1.5,0.8-2.1,0.3c-0.7-0.5-0.8-1.4-0.3-2.1c0.2-0.3,4.9-6.2,14.3-6.2c9,0,14.6,5.9,14.8,6.1c0.6,0.6,0.5,1.6-0.1,2.1
			C813.2,405.8,812.9,406,812.5,406z"/>
	</g>
	<g>
		<path class="st2" d="M780.9,398.4c-0.3,0-0.6-0.1-0.9-0.3c-0.7-0.5-0.8-1.5-0.3-2.1c0.3-0.3,6.6-8.3,19.2-8.3
			c12,0,19.6,7.9,19.9,8.2c0.6,0.6,0.5,1.6-0.1,2.1c-0.6,0.6-1.6,0.5-2.1-0.1l0,0c-0.1-0.1-7-7.3-17.7-7.3
			c-11.1,0-16.8,7.1-16.8,7.2C781.8,398.2,781.3,398.4,780.9,398.4z"/>
	</g>
</g>
<g class="st3">
	<g>
		<path d="M810.6,612.9c-25.8,13.7-48.9,27.4-111.8,37.3c-30,4.8-72.6,8.2-117.5,9.5c-45.4,1.4-93.2,0.7-144.3-1.1
			c-51-1.7-101.8-4.4-150.5-8.1c-48.3-3.7-94.5-8.3-127.6-12.8c-69.2-9.2-95.3-16.6-115.3-23.2c-14.4-6.7-28.5-13.8,29.7-23
			c55.5-9.2,201.9-18,369.8-22.8c167.3-5.7,312.7-4.8,362,5.7C857,584.6,830.2,599.3,810.6,612.9z"/>
	</g>
</g>
<g>
	<polygon class="st4" points="437.6,574.6 350.1,574.6 350.1,405.7 437.6,377.3 	"/>
	<path class="st1" d="M437.6,576.1h-87.5c-0.8,0-1.5-0.7-1.5-1.5v-169c0-0.7,0.4-1.2,1-1.4l87.5-28.3c0.5-0.1,1-0.1,1.3,0.2
		c0.4,0.3,0.6,0.7,0.6,1.2v197.3C439.1,575.5,438.4,576.1,437.6,576.1z M351.6,573.1h84.5V379.4l-84.5,27.3V573.1z"/>
</g>
<g>
	<rect x="539.1" y="272.6" class="st4" width="151" height="302"/>
	<path class="st1" d="M690.1,576.1h-151c-0.8,0-1.5-0.7-1.5-1.5v-302c0-0.8,0.7-1.5,1.5-1.5h151c0.8,0,1.5,0.7,1.5,1.5v302
		C691.6,575.5,690.9,576.1,690.1,576.1z M540.6,573.1h148v-299h-148V573.1z"/>
</g>
<g>
	<path class="st1" d="M384.4,435.5h-18.9c-0.8,0-1.5-0.7-1.5-1.5v-11.2c0-0.8,0.7-1.5,1.5-1.5h18.9c0.8,0,1.5,0.7,1.5,1.5V434
		C385.9,434.8,385.2,435.5,384.4,435.5z M367,432.5h15.9v-8.2H367V432.5z"/>
</g>
<g>
	<rect x="399" y="422.8" class="st5" width="18.9" height="11.2"/>
	<path class="st1" d="M417.9,435.5H399c-0.8,0-1.5-0.7-1.5-1.5v-11.2c0-0.8,0.7-1.5,1.5-1.5h18.9c0.8,0,1.5,0.7,1.5,1.5V434
		C419.4,434.8,418.7,435.5,417.9,435.5z M400.5,432.5h15.9v-8.2h-15.9V432.5z"/>
</g>
<g>
	<path class="st1" d="M384.4,460.3h-18.9c-0.8,0-1.5-0.7-1.5-1.5v-11.2c0-0.8,0.7-1.5,1.5-1.5h18.9c0.8,0,1.5,0.7,1.5,1.5v11.2
		C385.9,459.7,385.2,460.3,384.4,460.3z M367,457.3h15.9v-8.2H367V457.3z"/>
</g>
<g>
	<path class="st1" d="M417.9,460.3H399c-0.8,0-1.5-0.7-1.5-1.5v-11.2c0-0.8,0.7-1.5,1.5-1.5h18.9c0.8,0,1.5,0.7,1.5,1.5v11.2
		C419.4,459.7,418.7,460.3,417.9,460.3z M400.5,457.3h15.9v-8.2h-15.9V457.3z"/>
</g>
<g>
	<rect x="365.5" y="472.6" class="st6" width="18.9" height="11.2"/>
	<path class="st1" d="M384.4,485.2h-18.9c-0.8,0-1.5-0.7-1.5-1.5v-11.2c0-0.8,0.7-1.5,1.5-1.5h18.9c0.8,0,1.5,0.7,1.5,1.5v11.2
		C385.9,484.5,385.2,485.2,384.4,485.2z M367,482.2h15.9v-8.2H367V482.2z"/>
</g>
<g>
	<path class="st1" d="M417.9,485.2H399c-0.8,0-1.5-0.7-1.5-1.5v-11.2c0-0.8,0.7-1.5,1.5-1.5h18.9c0.8,0,1.5,0.7,1.5,1.5v11.2
		C419.4,484.5,418.7,485.2,417.9,485.2z M400.5,482.2h15.9v-8.2h-15.9V482.2z"/>
</g>
<g>
	<path class="st1" d="M384.4,510.1h-18.9c-0.8,0-1.5-0.7-1.5-1.5v-11.2c0-0.8,0.7-1.5,1.5-1.5h18.9c0.8,0,1.5,0.7,1.5,1.5v11.2
		C385.9,509.4,385.2,510.1,384.4,510.1z M367,507.1h15.9v-8.2H367V507.1z"/>
</g>
<g>
	<rect x="399" y="497.4" class="st7" width="18.9" height="11.2"/>
	<path class="st1" d="M417.9,510.1H399c-0.8,0-1.5-0.7-1.5-1.5v-11.2c0-0.8,0.7-1.5,1.5-1.5h18.9c0.8,0,1.5,0.7,1.5,1.5v11.2
		C419.4,509.4,418.7,510.1,417.9,510.1z M400.5,507.1h15.9v-8.2h-15.9V507.1z"/>
</g>
<g>
	<path class="st1" d="M747.1,576.1h-597c-0.8,0-1.5-0.7-1.5-1.5s0.7-1.5,1.5-1.5h597c0.8,0,1.5,0.7,1.5,1.5S747.9,576.1,747.1,576.1
		z"/>
</g>
<g>
	<path class="st1" d="M137.1,576.1h-34c-0.8,0-1.5-0.7-1.5-1.5s0.7-1.5,1.5-1.5h34c0.8,0,1.5,0.7,1.5,1.5S137.9,576.1,137.1,576.1z"
		/>
</g>
<g>
	<path class="st1" d="M89.1,576.1h-17c-0.8,0-1.5-0.7-1.5-1.5s0.7-1.5,1.5-1.5h17c0.8,0,1.5,0.7,1.5,1.5S89.9,576.1,89.1,576.1z"/>
</g>
<g>
	<path class="st1" d="M811.1,576.1h-46c-0.8,0-1.5-0.7-1.5-1.5s0.7-1.5,1.5-1.5h46c0.8,0,1.5,0.7,1.5,1.5S811.9,576.1,811.1,576.1z"
		/>
</g>
<g>
	<path class="st1" d="M403.3,575.3h-24c-0.8,0-1.5-0.7-1.5-1.5v-36c0-0.8,0.7-1.5,1.5-1.5h24c0.8,0,1.5,0.7,1.5,1.5v36
		C404.8,574.6,404.1,575.3,403.3,575.3z M380.7,572.3h21v-33h-21V572.3z"/>
</g>
<g>
	<rect x="562.1" y="303.6" class="st5" width="106" height="12"/>
	<path class="st1" d="M668.1,317.1h-106c-0.8,0-1.5-0.7-1.5-1.5v-12c0-0.8,0.7-1.5,1.5-1.5h106c0.8,0,1.5,0.7,1.5,1.5v12
		C669.6,316.5,668.9,317.1,668.1,317.1z M563.6,314.1h103v-9h-103V314.1z"/>
</g>
<g>
	<rect x="562.1" y="338.6" class="st6" width="106" height="12"/>
	<path class="st1" d="M668.1,352.1h-106c-0.8,0-1.5-0.7-1.5-1.5v-12c0-0.8,0.7-1.5,1.5-1.5h106c0.8,0,1.5,0.7,1.5,1.5v12
		C669.6,351.5,668.9,352.1,668.1,352.1z M563.6,349.1h103v-9h-103V349.1z"/>
</g>
<g>
	<rect x="562.1" y="373.6" class="st4" width="106" height="12"/>
	<path class="st1" d="M668.1,387.1h-106c-0.8,0-1.5-0.7-1.5-1.5v-12c0-0.8,0.7-1.5,1.5-1.5h106c0.8,0,1.5,0.7,1.5,1.5v12
		C669.6,386.5,668.9,387.1,668.1,387.1z M563.6,384.1h103v-9h-103V384.1z"/>
</g>
<g>
	<rect x="562.1" y="408.6" class="st7" width="106" height="12"/>
	<path class="st1" d="M668.1,422.1h-106c-0.8,0-1.5-0.7-1.5-1.5v-12c0-0.8,0.7-1.5,1.5-1.5h106c0.8,0,1.5,0.7,1.5,1.5v12
		C669.6,421.5,668.9,422.1,668.1,422.1z M563.6,419.1h103v-9h-103V419.1z"/>
</g>
<g>
	<rect x="562.1" y="443.6" class="st5" width="106" height="12"/>
	<path class="st1" d="M668.1,457.1h-106c-0.8,0-1.5-0.7-1.5-1.5v-12c0-0.8,0.7-1.5,1.5-1.5h106c0.8,0,1.5,0.7,1.5,1.5v12
		C669.6,456.5,668.9,457.1,668.1,457.1z M563.6,454.1h103v-9h-103V454.1z"/>
</g>
<g>
	<rect x="562.1" y="478.6" class="st6" width="106" height="12"/>
	<path class="st1" d="M668.1,492.1h-106c-0.8,0-1.5-0.7-1.5-1.5v-12c0-0.8,0.7-1.5,1.5-1.5h106c0.8,0,1.5,0.7,1.5,1.5v12
		C669.6,491.5,668.9,492.1,668.1,492.1z M563.6,489.1h103v-9h-103V489.1z"/>
</g>
<g>
	<path class="st1" d="M826.6,576.1c-0.7,0-1.3-0.5-1.5-1.1l-26-106.3l-21.6,106.3c-0.2,0.8-1,1.3-1.8,1.2c-0.8-0.2-1.3-1-1.2-1.8
		l22.9-112.8c0.1-0.7,0.7-1.2,1.4-1.2c0,0,0,0,0,0c0.7,0,1.3,0.5,1.5,1.1L828,574.3c0.2,0.8-0.3,1.6-1.1,1.8
		C826.8,576.1,826.7,576.1,826.6,576.1z"/>
</g>
<g>
	<path class="st1" d="M799,476.7c-0.8,0-1.5-0.7-1.5-1.5v-26.8c0-0.8,0.7-1.5,1.5-1.5s1.5,0.7,1.5,1.5v26.8
		C800.5,476.1,799.8,476.7,799,476.7z"/>
</g>
<g>
	<circle class="st6" cx="799" cy="446.8" r="3.9"/>
	<path class="st1" d="M799,452.3c-3,0-5.4-2.4-5.4-5.4s2.4-5.4,5.4-5.4s5.4,2.4,5.4,5.4S802,452.3,799,452.3z M799,444.4
		c-1.3,0-2.4,1.1-2.4,2.4s1.1,2.4,2.4,2.4s2.4-1.1,2.4-2.4S800.3,444.4,799,444.4z"/>
</g>
<g>
	<circle class="st6" cx="799" cy="471.3" r="10.3"/>
	<path class="st1" d="M799,483c-6.5,0-11.8-5.3-11.8-11.8s5.3-11.8,11.8-11.8s11.8,5.3,11.8,11.8S805.4,483,799,483z M799,462.5
		c-4.8,0-8.8,3.9-8.8,8.8s3.9,8.8,8.8,8.8s8.8-3.9,8.8-8.8S803.8,462.5,799,462.5z"/>
</g>
<g>
	<path class="st1" d="M812.4,519.3c-0.4,0-0.7-0.1-1-0.4l-20.5-19.7c-0.6-0.6-0.6-1.5,0-2.1c0.6-0.6,1.5-0.6,2.1,0l20.5,19.7
		c0.6,0.6,0.6,1.5,0,2.1C813.2,519.2,812.8,519.3,812.4,519.3z"/>
</g>
<g>
	<path class="st1" d="M787.1,526.4c-0.3,0-0.6-0.1-0.9-0.3c-0.7-0.5-0.8-1.4-0.3-2.1l20.5-26.8c0.5-0.7,1.4-0.8,2.1-0.3
		c0.7,0.5,0.8,1.4,0.3,2.1l-20.5,26.8C788,526.2,787.6,526.4,787.1,526.4z"/>
</g>
<g>
	<path class="st1" d="M200.6,576.1c-0.7,0-1.3-0.5-1.5-1.1l-26-106.3l-21.6,106.3c-0.2,0.8-1,1.3-1.8,1.2c-0.8-0.2-1.3-1-1.2-1.8
		l22.9-112.8c0.1-0.7,0.7-1.2,1.4-1.2c0,0,0,0,0,0c0.7,0,1.3,0.5,1.5,1.1L202,574.3c0.2,0.8-0.3,1.6-1.1,1.8
		C200.8,576.1,200.7,576.1,200.6,576.1z"/>
</g>
<g>
	<path class="st1" d="M173,476.7c-0.8,0-1.5-0.7-1.5-1.5v-26.8c0-0.8,0.7-1.5,1.5-1.5s1.5,0.7,1.5,1.5v26.8
		C174.5,476.1,173.8,476.7,173,476.7z"/>
</g>
<g>
	<circle class="st6" cx="173" cy="446.8" r="3.9"/>
	<path class="st1" d="M173,452.3c-3,0-5.4-2.4-5.4-5.4s2.4-5.4,5.4-5.4s5.4,2.4,5.4,5.4S176,452.3,173,452.3z M173,444.4
		c-1.3,0-2.4,1.1-2.4,2.4s1.1,2.4,2.4,2.4s2.4-1.1,2.4-2.4S174.3,444.4,173,444.4z"/>
</g>
<g>
	<circle class="st6" cx="173" cy="471.3" r="10.3"/>
	<path class="st1" d="M173,483c-6.5,0-11.8-5.3-11.8-11.8s5.3-11.8,11.8-11.8s11.8,5.3,11.8,11.8S179.4,483,173,483z M173,462.5
		c-4.8,0-8.8,3.9-8.8,8.8s3.9,8.8,8.8,8.8s8.8-3.9,8.8-8.8S177.8,462.5,173,462.5z"/>
</g>
<g>
	<path class="st1" d="M186.4,519.3c-0.4,0-0.7-0.1-1-0.4l-20.5-19.7c-0.6-0.6-0.6-1.5,0-2.1c0.6-0.6,1.5-0.6,2.1,0l20.5,19.7
		c0.6,0.6,0.6,1.5,0,2.1C187.2,519.2,186.8,519.3,186.4,519.3z"/>
</g>
<g>
	<path class="st1" d="M161.1,526.4c-0.3,0-0.6-0.1-0.9-0.3c-0.7-0.5-0.8-1.4-0.3-2.1l20.5-26.8c0.5-0.7,1.4-0.8,2.1-0.3
		c0.7,0.5,0.8,1.4,0.3,2.1l-20.5,26.8C162,526.2,161.6,526.4,161.1,526.4z"/>
</g>
<g class="st8">
	<path class="st1" d="M805.1,366.1c-0.6,0-1.1-0.3-1.4-0.9c-0.3-0.8,0-1.7,0.7-2c0.8-0.3,1.6-0.1,2,0.7c0,0,0,0.1,0,0.1
		c0.3,0.8,0,1.6-0.7,2C805.5,366.1,805.3,366.1,805.1,366.1z M176.1,366.1c-0.2,0-0.4,0-0.6-0.1c-0.8-0.3-1.1-1.2-0.8-2
		c0,0,0.3-0.7,0.8-1.9c0.3-0.8,1.2-1.1,2-0.8c0.8,0.3,1.1,1.2,0.8,2c-0.5,1.2-0.8,1.8-0.8,1.8C177.2,365.8,176.7,366.1,176.1,366.1z
		 M801.6,358.9c-0.5,0-1.1-0.3-1.3-0.8c-0.3-0.6-0.6-1.2-0.9-1.8c-0.4-0.7-0.1-1.6,0.7-2c0.7-0.4,1.6-0.1,2,0.7
		c0.3,0.6,0.6,1.2,0.9,1.8c0.4,0.7,0.1,1.6-0.7,2C802,358.8,801.8,358.9,801.6,358.9z M180.3,357c-0.2,0-0.5-0.1-0.7-0.2
		c-0.7-0.4-1-1.3-0.7-2c0.3-0.6,0.6-1.2,0.9-1.8c0.4-0.7,1.3-1,2-0.7c0.7,0.4,1,1.3,0.7,2c-0.3,0.6-0.6,1.2-0.9,1.8
		C181.4,356.7,180.9,357,180.3,357z M796.9,350.1c-0.5,0-1-0.3-1.3-0.8c-0.3-0.6-0.6-1.2-1-1.7c-0.4-0.7-0.1-1.6,0.6-2
		c0.7-0.4,1.6-0.1,2,0.6c0.3,0.6,0.6,1.2,1,1.8c0.4,0.7,0.1,1.6-0.6,2C797.4,350,797.2,350.1,796.9,350.1z M185,348.1
		c-0.2,0-0.5-0.1-0.7-0.2c-0.7-0.4-1-1.3-0.6-2c0.3-0.6,0.6-1.2,1-1.8c0.4-0.7,1.3-1,2-0.6c0.7,0.4,1,1.3,0.6,2
		c-0.3,0.6-0.7,1.2-1,1.7C186,347.8,185.5,348.1,185,348.1z M792,341.4c-0.5,0-1-0.3-1.3-0.7c-0.3-0.6-0.7-1.1-1-1.7
		c-0.4-0.7-0.2-1.6,0.5-2.1c0.7-0.4,1.6-0.2,2.1,0.5c0.3,0.6,0.7,1.1,1,1.7c0.4,0.7,0.2,1.6-0.5,2.1
		C792.5,341.3,792.3,341.4,792,341.4z M190,339.4c-0.3,0-0.5-0.1-0.8-0.2c-0.7-0.4-0.9-1.3-0.5-2.1c0.3-0.6,0.7-1.1,1-1.7
		c0.4-0.7,1.4-0.9,2.1-0.5c0.7,0.4,0.9,1.4,0.5,2.1c-0.3,0.6-0.7,1.1-1,1.7C191,339.2,190.5,339.4,190,339.4z M786.8,332.9
		c-0.5,0-1-0.2-1.3-0.7c-0.4-0.6-0.7-1.1-1.1-1.7c-0.5-0.7-0.3-1.6,0.4-2.1c0.7-0.4,1.6-0.3,2.1,0.4c0.4,0.6,0.7,1.1,1.1,1.7
		c0.4,0.7,0.2,1.6-0.5,2.1C787.3,332.8,787.1,332.9,786.8,332.9z M195.2,330.9c-0.3,0-0.6-0.1-0.8-0.2c-0.7-0.4-0.9-1.4-0.5-2.1
		l1.1-1.7c0.5-0.7,1.4-0.9,2.1-0.4c0.7,0.5,0.9,1.4,0.4,2.1l-1.1,1.7C196.2,330.7,195.7,330.9,195.2,330.9z M781.3,324.6
		c-0.5,0-0.9-0.2-1.2-0.7c-0.4-0.5-0.8-1.1-1.1-1.6c-0.5-0.7-0.3-1.6,0.4-2.1c0.7-0.5,1.6-0.3,2.1,0.4c0.4,0.5,0.8,1.1,1.1,1.6
		c0.5,0.7,0.3,1.6-0.4,2.1C781.9,324.5,781.6,324.6,781.3,324.6z M200.8,322.6c-0.3,0-0.6-0.1-0.8-0.3c-0.7-0.5-0.9-1.4-0.4-2.1
		c0.4-0.5,0.8-1.1,1.1-1.7c0.5-0.7,1.4-0.8,2.1-0.4c0.7,0.5,0.8,1.4,0.4,2.1c-0.4,0.5-0.8,1.1-1.1,1.6
		C201.7,322.3,201.2,322.6,200.8,322.6z M775.5,316.4c-0.5,0-0.9-0.2-1.2-0.6c-0.4-0.5-0.8-1.1-1.2-1.6c-0.5-0.7-0.4-1.6,0.3-2.1
		c0.7-0.5,1.6-0.4,2.1,0.3c0.4,0.5,0.8,1.1,1.2,1.6c0.5,0.7,0.3,1.6-0.3,2.1C776.1,316.3,775.8,316.4,775.5,316.4z M206.5,314.4
		c-0.3,0-0.6-0.1-0.9-0.3c-0.7-0.5-0.8-1.4-0.3-2.1c0.4-0.5,0.8-1.1,1.2-1.6c0.5-0.7,1.4-0.8,2.1-0.3c0.7,0.5,0.8,1.4,0.3,2.1
		c-0.4,0.5-0.8,1.1-1.2,1.6C207.5,314.2,207,314.4,206.5,314.4z M769.4,308.5c-0.4,0-0.9-0.2-1.2-0.6c-0.4-0.5-0.8-1-1.2-1.6
		c-0.5-0.6-0.4-1.6,0.2-2.1c0.6-0.5,1.6-0.4,2.1,0.2c0.4,0.5,0.8,1,1.3,1.6c0.5,0.6,0.4,1.6-0.2,2.1
		C770.1,308.4,769.7,308.5,769.4,308.5z M212.6,306.4c-0.3,0-0.6-0.1-0.9-0.3c-0.7-0.5-0.8-1.5-0.3-2.1l1.2-1.6
		c0.5-0.7,1.5-0.8,2.1-0.3c0.7,0.5,0.8,1.5,0.3,2.1l-1.2,1.6C213.5,306.2,213,306.4,212.6,306.4z M763.1,300.8
		c-0.4,0-0.8-0.2-1.1-0.5c-0.4-0.5-0.9-1-1.3-1.5c-0.5-0.6-0.5-1.6,0.2-2.1c0.6-0.5,1.6-0.5,2.1,0.2c0.4,0.5,0.9,1,1.3,1.5
		c0.5,0.6,0.5,1.6-0.2,2.1C763.8,300.7,763.4,300.8,763.1,300.8z M218.8,298.6c-0.3,0-0.7-0.1-1-0.3c-0.6-0.5-0.7-1.5-0.2-2.1
		c0.4-0.5,0.9-1,1.3-1.5c0.5-0.6,1.5-0.7,2.1-0.2c0.6,0.5,0.7,1.5,0.2,2.1c-0.4,0.5-0.9,1-1.3,1.5
		C219.7,298.4,219.3,298.6,218.8,298.6z M756.5,293.3c-0.4,0-0.8-0.2-1.1-0.5c-0.4-0.5-0.9-1-1.3-1.5c-0.6-0.6-0.5-1.6,0.1-2.1
		c0.6-0.6,1.6-0.5,2.1,0.1c0.5,0.5,0.9,1,1.4,1.5c0.6,0.6,0.5,1.6-0.1,2.1C757.2,293.1,756.8,293.3,756.5,293.3z M225.3,291
		c-0.4,0-0.7-0.1-1-0.4c-0.6-0.5-0.7-1.5-0.1-2.1c0.4-0.5,0.9-1,1.3-1.5c0.5-0.6,1.5-0.7,2.1-0.1c0.6,0.6,0.7,1.5,0.1,2.1
		c-0.4,0.5-0.9,1-1.3,1.5C226.2,290.8,225.7,291,225.3,291z M749.6,286c-0.4,0-0.8-0.2-1.1-0.5c-0.5-0.5-0.9-0.9-1.4-1.4
		c-0.6-0.6-0.6-1.5,0-2.1c0.6-0.6,1.5-0.6,2.1,0c0.5,0.5,0.9,1,1.4,1.4c0.6,0.6,0.6,1.5,0,2.1C750.3,285.8,750,286,749.6,286z
		 M232,283.6c-0.4,0-0.7-0.1-1-0.4c-0.6-0.6-0.6-1.5-0.1-2.1l1.4-1.5c0.6-0.6,1.5-0.6,2.1-0.1c0.6,0.6,0.6,1.5,0.1,2.1l-1.4,1.5
		C232.8,283.4,232.4,283.6,232,283.6z M742.5,278.9c-0.4,0-0.7-0.1-1-0.4c-0.5-0.5-1-0.9-1.4-1.4c-0.6-0.6-0.6-1.5-0.1-2.1
		c0.6-0.6,1.5-0.6,2.1-0.1c0.5,0.5,1,0.9,1.5,1.4c0.6,0.6,0.6,1.5,0,2.1C743.3,278.8,742.9,278.9,742.5,278.9z M239,276.4
		c-0.4,0-0.8-0.1-1.1-0.4c-0.6-0.6-0.6-1.5,0-2.1c0.5-0.5,0.9-0.9,1.4-1.4c0.6-0.6,1.5-0.6,2.1,0c0.6,0.6,0.6,1.5,0,2.1
		c-0.5,0.5-0.9,0.9-1.4,1.4C239.8,276.2,239.4,276.4,239,276.4z M735.1,272.1c-0.4,0-0.7-0.1-1-0.4c-0.5-0.4-1-0.9-1.5-1.3
		c-0.6-0.5-0.7-1.5-0.1-2.1c0.5-0.6,1.5-0.7,2.1-0.1c0.5,0.4,1,0.9,1.5,1.3c0.6,0.6,0.7,1.5,0.1,2.1
		C735.9,272,735.5,272.1,735.1,272.1z M246.1,269.4c-0.4,0-0.8-0.2-1.1-0.5c-0.6-0.6-0.5-1.6,0.1-2.1c0.5-0.5,1-0.9,1.5-1.4
		c0.6-0.6,1.6-0.5,2.1,0.1c0.6,0.6,0.5,1.6-0.1,2.1c-0.5,0.5-1,0.9-1.4,1.4C246.9,269.2,246.5,269.4,246.1,269.4z M727.5,265.6
		c-0.3,0-0.7-0.1-1-0.3l-1.5-1.3c-0.6-0.5-0.7-1.5-0.2-2.1c0.5-0.6,1.5-0.7,2.1-0.2l1.6,1.3c0.6,0.5,0.7,1.5,0.2,2.1
		C728.4,265.4,728,265.6,727.5,265.6z M253.5,262.6c-0.4,0-0.8-0.2-1.1-0.5c-0.6-0.6-0.5-1.6,0.1-2.1l1.5-1.3
		c0.6-0.5,1.6-0.5,2.1,0.1c0.5,0.6,0.5,1.6-0.1,2.1l-1.5,1.3C254.2,262.5,253.9,262.6,253.5,262.6z M719.7,259.3
		c-0.3,0-0.6-0.1-0.9-0.3c-0.5-0.4-1-0.8-1.6-1.2c-0.7-0.5-0.8-1.4-0.3-2.1c0.5-0.7,1.4-0.8,2.1-0.3c0.5,0.4,1.1,0.8,1.6,1.2
		c0.7,0.5,0.8,1.5,0.3,2.1C720.6,259.1,720.2,259.3,719.7,259.3z M261.1,256.1c-0.4,0-0.9-0.2-1.2-0.5c-0.5-0.6-0.4-1.6,0.2-2.1
		c0.5-0.4,1-0.9,1.5-1.3c0.6-0.5,1.6-0.4,2.1,0.2c0.5,0.6,0.4,1.6-0.2,2.1c-0.5,0.4-1,0.8-1.5,1.3
		C261.8,256,261.4,256.1,261.1,256.1z M711.8,253.3c-0.3,0-0.6-0.1-0.9-0.3c-0.5-0.4-1.1-0.8-1.6-1.2c-0.7-0.5-0.8-1.4-0.3-2.1
		c0.5-0.7,1.4-0.8,2.1-0.3c0.5,0.4,1.1,0.8,1.6,1.2c0.7,0.5,0.8,1.4,0.3,2.1C712.7,253,712.2,253.3,711.8,253.3z M268.9,249.8
		c-0.4,0-0.9-0.2-1.2-0.6c-0.5-0.7-0.4-1.6,0.3-2.1c0.5-0.4,1.1-0.8,1.6-1.2c0.7-0.5,1.6-0.4,2.1,0.3c0.5,0.7,0.4,1.6-0.3,2.1
		c-0.5,0.4-1.1,0.8-1.6,1.2C269.5,249.7,269.2,249.8,268.9,249.8z M703.6,247.5c-0.3,0-0.6-0.1-0.8-0.3c-0.5-0.4-1.1-0.7-1.6-1.1
		c-0.7-0.5-0.9-1.4-0.4-2.1c0.5-0.7,1.4-0.9,2.1-0.4c0.6,0.4,1.1,0.8,1.7,1.1c0.7,0.5,0.9,1.4,0.4,2.1
		C704.5,247.3,704.1,247.5,703.6,247.5z M276.8,243.8c-0.5,0-0.9-0.2-1.2-0.6c-0.5-0.7-0.3-1.6,0.3-2.1c0.5-0.4,1.1-0.8,1.6-1.2
		c0.7-0.5,1.6-0.3,2.1,0.3c0.5,0.7,0.3,1.6-0.3,2.1c-0.5,0.4-1.1,0.8-1.6,1.2C277.5,243.7,277.2,243.8,276.8,243.8z M695.3,242
		c-0.3,0-0.6-0.1-0.8-0.2c-0.6-0.4-1.1-0.7-1.7-1.1c-0.7-0.4-0.9-1.4-0.5-2.1c0.4-0.7,1.4-0.9,2.1-0.5c0.6,0.4,1.1,0.7,1.7,1.1
		c0.7,0.4,0.9,1.4,0.5,2.1C696.2,241.7,695.7,242,695.3,242z M285,238c-0.5,0-0.9-0.2-1.2-0.7c-0.5-0.7-0.3-1.6,0.4-2.1
		c0.6-0.4,1.1-0.8,1.7-1.1c0.7-0.5,1.6-0.3,2.1,0.4c0.5,0.7,0.3,1.6-0.4,2.1c-0.6,0.4-1.1,0.7-1.6,1.1
		C285.6,237.9,285.3,238,285,238z M686.7,236.7c-0.3,0-0.5-0.1-0.8-0.2c-0.6-0.3-1.1-0.7-1.7-1c-0.7-0.4-1-1.3-0.5-2.1
		c0.4-0.7,1.3-1,2.1-0.5c0.6,0.3,1.2,0.7,1.7,1c0.7,0.4,0.9,1.3,0.5,2.1C687.7,236.5,687.2,236.7,686.7,236.7z M293.4,232.5
		c-0.5,0-1-0.2-1.3-0.7c-0.4-0.7-0.2-1.6,0.5-2.1c0.6-0.4,1.1-0.7,1.7-1.1c0.7-0.4,1.6-0.2,2.1,0.5c0.4,0.7,0.2,1.6-0.5,2.1
		c-0.6,0.4-1.1,0.7-1.7,1.1C293.9,232.4,293.6,232.5,293.4,232.5z M678.1,231.8c-0.2,0-0.5-0.1-0.7-0.2c-0.6-0.3-1.2-0.6-1.7-1
		c-0.7-0.4-1-1.3-0.6-2s1.3-1,2-0.6c0.6,0.3,1.2,0.6,1.8,1c0.7,0.4,1,1.3,0.6,2C679.1,231.5,678.6,231.8,678.1,231.8z M301.9,227.3
		c-0.5,0-1-0.3-1.3-0.7c-0.4-0.7-0.2-1.6,0.5-2.1c0.6-0.3,1.2-0.7,1.7-1c0.7-0.4,1.6-0.2,2.1,0.5c0.4,0.7,0.2,1.6-0.5,2.1
		c-0.6,0.3-1.1,0.7-1.7,1C302.4,227.2,302.1,227.3,301.9,227.3z M669.3,227c-0.2,0-0.5-0.1-0.7-0.2c-0.6-0.3-1.2-0.6-1.8-0.9
		c-0.7-0.4-1-1.3-0.7-2c0.4-0.7,1.3-1,2-0.7c0.6,0.3,1.2,0.6,1.8,0.9c0.7,0.4,1,1.3,0.6,2C670.3,226.8,669.8,227,669.3,227z
		 M660.3,222.6c-0.2,0-0.4,0-0.6-0.1c-0.6-0.3-1.2-0.6-1.8-0.9c-0.7-0.4-1.1-1.2-0.7-2c0.4-0.7,1.3-1.1,2-0.7
		c0.6,0.3,1.2,0.6,1.8,0.9c0.7,0.4,1.1,1.3,0.7,2C661.4,222.3,660.9,222.6,660.3,222.6z M310.6,222.3c-0.5,0-1-0.3-1.3-0.8
		c-0.4-0.7-0.1-1.6,0.6-2c0.6-0.3,1.2-0.6,1.8-1c0.7-0.4,1.6-0.1,2,0.6c0.4,0.7,0.1,1.6-0.6,2c-0.6,0.3-1.2,0.6-1.7,1
		C311.1,222.3,310.8,222.3,310.6,222.3z M651.2,218.4c-0.2,0-0.4,0-0.6-0.1c-0.6-0.3-1.2-0.5-1.8-0.8c-0.8-0.3-1.1-1.2-0.8-2
		c0.3-0.8,1.2-1.1,2-0.8c0.6,0.3,1.2,0.5,1.8,0.8c0.8,0.3,1.1,1.2,0.8,2C652.4,218.1,651.8,218.4,651.2,218.4z M319.4,217.7
		c-0.5,0-1.1-0.3-1.3-0.8c-0.4-0.7-0.1-1.6,0.7-2c0.6-0.3,1.2-0.6,1.8-0.9c0.7-0.4,1.6-0.1,2,0.7c0.4,0.7,0.1,1.6-0.7,2
		c-0.6,0.3-1.2,0.6-1.8,0.9C319.9,217.6,319.6,217.7,319.4,217.7z M642,214.5c-0.2,0-0.4,0-0.6-0.1c-0.6-0.3-1.2-0.5-1.8-0.8
		c-0.8-0.3-1.1-1.2-0.8-2c0.3-0.8,1.2-1.1,2-0.8c0.6,0.3,1.2,0.5,1.9,0.8c0.8,0.3,1.1,1.2,0.8,2C643.2,214.1,642.6,214.5,642,214.5z
		 M328.4,213.3c-0.6,0-1.1-0.3-1.4-0.9c-0.3-0.8,0-1.6,0.7-2c0.6-0.3,1.2-0.6,1.8-0.8c0.8-0.3,1.6,0,2,0.7c0.3,0.8,0,1.6-0.7,2
		c-0.6,0.3-1.2,0.6-1.8,0.8C328.8,213.2,328.6,213.3,328.4,213.3z M632.7,210.8c-0.2,0-0.4,0-0.5-0.1c-0.6-0.2-1.2-0.5-1.9-0.7
		c-0.8-0.3-1.2-1.2-0.9-1.9c0.3-0.8,1.2-1.2,1.9-0.9c0.6,0.2,1.3,0.5,1.9,0.7c0.8,0.3,1.2,1.2,0.9,1.9
		C633.9,210.4,633.3,210.8,632.7,210.8z M337.5,209.2c-0.6,0-1.1-0.3-1.4-0.9c-0.3-0.8,0-1.6,0.8-2c0.6-0.3,1.2-0.5,1.8-0.8
		c0.8-0.3,1.6,0,2,0.8c0.3,0.8,0,1.6-0.8,2c-0.6,0.3-1.2,0.5-1.8,0.8C337.9,209.2,337.7,209.2,337.5,209.2z M623.4,207.3
		c-0.2,0-0.3,0-0.5-0.1c-0.6-0.2-1.3-0.4-1.9-0.7c-0.8-0.3-1.2-1.1-0.9-1.9c0.3-0.8,1.1-1.2,1.9-0.9c0.6,0.2,1.3,0.4,1.9,0.7
		c0.8,0.3,1.2,1.1,0.9,1.9C624.6,207,624,207.3,623.4,207.3z M346.8,205.4c-0.6,0-1.2-0.4-1.4-1c-0.3-0.8,0.1-1.6,0.9-1.9
		c0.6-0.2,1.2-0.5,1.9-0.7c0.8-0.3,1.6,0.1,1.9,0.9c0.3,0.8-0.1,1.6-0.9,1.9c-0.6,0.2-1.2,0.5-1.9,0.7
		C347.1,205.4,347,205.4,346.8,205.4z M613.9,204.2c-0.2,0-0.3,0-0.5-0.1c-0.6-0.2-1.3-0.4-1.9-0.6c-0.8-0.2-1.2-1.1-1-1.9
		c0.3-0.8,1.1-1.2,1.9-1c0.6,0.2,1.3,0.4,1.9,0.6c0.8,0.3,1.2,1.1,1,1.9C615.1,203.7,614.5,204.2,613.9,204.2z M356.2,202
		c-0.6,0-1.2-0.4-1.4-1c-0.3-0.8,0.1-1.6,0.9-1.9c0.6-0.2,1.3-0.4,1.9-0.7c0.8-0.3,1.6,0.1,1.9,0.9c0.3,0.8-0.1,1.6-0.9,1.9
		c-0.6,0.2-1.3,0.4-1.9,0.7C356.5,201.9,356.3,202,356.2,202z M604.3,201.2c-0.1,0-0.3,0-0.4-0.1c-0.6-0.2-1.3-0.4-1.9-0.6
		c-0.8-0.2-1.3-1.1-1-1.9c0.2-0.8,1.1-1.3,1.9-1c0.6,0.2,1.3,0.4,1.9,0.6c0.8,0.2,1.3,1.1,1,1.9C605.6,200.8,605,201.2,604.3,201.2z
		 M365.6,198.8c-0.6,0-1.2-0.4-1.4-1c-0.3-0.8,0.2-1.6,1-1.9c0.6-0.2,1.3-0.4,1.9-0.6c0.8-0.2,1.6,0.2,1.9,1c0.2,0.8-0.2,1.6-1,1.9
		c-0.6,0.2-1.3,0.4-1.9,0.6C365.9,198.8,365.8,198.8,365.6,198.8z M594.7,198.5c-0.1,0-0.3,0-0.4-0.1c-0.6-0.2-1.3-0.3-1.9-0.5
		c-0.8-0.2-1.3-1-1.1-1.8s1-1.3,1.8-1.1c0.6,0.2,1.3,0.3,1.9,0.5c0.8,0.2,1.3,1,1.1,1.8C596,198.1,595.4,198.5,594.7,198.5z
		 M585,196c-0.1,0-0.2,0-0.4,0l-1.9-0.5c-0.8-0.2-1.3-1-1.1-1.8c0.2-0.8,1-1.3,1.8-1.1l2,0.5c0.8,0.2,1.3,1,1.1,1.8
		C586.3,195.6,585.7,196,585,196z M375.2,195.9c-0.7,0-1.3-0.4-1.4-1.1c-0.2-0.8,0.2-1.6,1-1.9c0.6-0.2,1.3-0.4,1.9-0.5
		c0.8-0.2,1.6,0.2,1.8,1c0.2,0.8-0.2,1.6-1,1.8c-0.6,0.2-1.3,0.4-1.9,0.5C375.5,195.9,375.3,195.9,375.2,195.9z M575.3,193.8
		c-0.1,0-0.2,0-0.3,0l-1.9-0.4c-0.8-0.2-1.3-1-1.2-1.8c0.2-0.8,1-1.3,1.8-1.2l2,0.4c0.8,0.2,1.3,1,1.1,1.8
		C576.6,193.3,576,193.8,575.3,193.8z M384.9,193.4c-0.7,0-1.3-0.5-1.5-1.1c-0.2-0.8,0.3-1.6,1.1-1.8c0.6-0.2,1.3-0.3,2-0.5
		c0.8-0.2,1.6,0.3,1.8,1.1c0.2,0.8-0.3,1.6-1.1,1.8c-0.6,0.2-1.3,0.3-1.9,0.5C385.1,193.3,385,193.4,384.9,193.4z M565.5,191.8
		c-0.1,0-0.2,0-0.3,0l-2-0.4c-0.8-0.2-1.3-0.9-1.2-1.8c0.2-0.8,0.9-1.3,1.8-1.2l2,0.4c0.8,0.2,1.3,0.9,1.2,1.8
		C566.8,191.3,566.2,191.8,565.5,191.8z M394.6,191.1c-0.7,0-1.3-0.5-1.5-1.2c-0.2-0.8,0.3-1.6,1.1-1.8c0.7-0.1,1.3-0.3,2-0.4
		c0.8-0.2,1.6,0.3,1.8,1.2c0.2,0.8-0.3,1.6-1.2,1.8c-0.7,0.1-1.3,0.3-1.9,0.4C394.8,191.1,394.7,191.1,394.6,191.1z M555.6,190
		c-0.1,0-0.2,0-0.3,0l-2-0.3c-0.8-0.1-1.4-0.9-1.2-1.7c0.1-0.8,0.9-1.4,1.7-1.2l2,0.3c0.8,0.1,1.4,0.9,1.2,1.7
		C557,189.5,556.3,190,555.6,190z M404.4,189.1c-0.7,0-1.3-0.5-1.5-1.2c-0.2-0.8,0.4-1.6,1.2-1.7c0.7-0.1,1.3-0.2,2-0.4
		c0.8-0.1,1.6,0.4,1.7,1.2c0.1,0.8-0.4,1.6-1.2,1.7c-0.7,0.1-1.3,0.2-2,0.4C404.6,189.1,404.5,189.1,404.4,189.1z M545.8,188.5
		c-0.1,0-0.1,0-0.2,0l-2-0.3c-0.8-0.1-1.4-0.9-1.3-1.7c0.1-0.8,0.9-1.4,1.7-1.3l2,0.3c0.8,0.1,1.4,0.9,1.3,1.7
		C547.1,187.9,546.5,188.5,545.8,188.5z M414.2,187.4c-0.7,0-1.4-0.5-1.5-1.3c-0.1-0.8,0.4-1.6,1.3-1.7c0.7-0.1,1.3-0.2,2-0.3
		c0.8-0.1,1.6,0.4,1.7,1.3s-0.4,1.6-1.3,1.7c-0.7,0.1-1.3,0.2-2,0.3C414.4,187.4,414.3,187.4,414.2,187.4z M535.8,187.1
		c-0.1,0-0.1,0-0.2,0l-2-0.2c-0.8-0.1-1.4-0.8-1.3-1.7c0.1-0.8,0.8-1.4,1.7-1.3l2,0.2c0.8,0.1,1.4,0.9,1.3,1.7
		C537.2,186.5,536.6,187.1,535.8,187.1z M424.1,186c-0.7,0-1.4-0.6-1.5-1.3c-0.1-0.8,0.5-1.6,1.3-1.7c0.7-0.1,1.3-0.2,2-0.2
		c0.8-0.1,1.6,0.5,1.7,1.3c0.1,0.8-0.5,1.6-1.3,1.7c-0.7,0.1-1.3,0.2-2,0.2C424.3,186,424.2,186,424.1,186z M525.9,186
		c-0.1,0-0.1,0-0.2,0l-2-0.2c-0.8-0.1-1.4-0.8-1.3-1.6c0.1-0.8,0.8-1.4,1.6-1.3l2,0.2c0.8,0.1,1.4,0.8,1.3,1.6
		C527.3,185.4,526.7,186,525.9,186z M516,185c0,0-0.1,0-0.1,0l-2-0.2c-0.8-0.1-1.4-0.8-1.4-1.6c0.1-0.8,0.8-1.4,1.6-1.4l2,0.2
		c0.8,0.1,1.4,0.8,1.4,1.6C517.4,184.4,516.7,185,516,185z M434.1,184.9c-0.8,0-1.4-0.6-1.5-1.4c-0.1-0.8,0.5-1.6,1.3-1.6l2-0.2
		c0.8-0.1,1.6,0.5,1.6,1.4s-0.5,1.6-1.4,1.6l-2,0.2C434.2,184.9,434.1,184.9,434.1,184.9z M506,184.3
		C506,184.3,505.9,184.3,506,184.3l-2.1-0.1c-0.8-0.1-1.5-0.8-1.4-1.6c0-0.8,0.8-1.5,1.6-1.4l2,0.1c0.8,0.1,1.5,0.8,1.4,1.6
		C507.4,183.7,506.8,184.3,506,184.3z M444,184.1c-0.8,0-1.4-0.6-1.5-1.4c-0.1-0.8,0.6-1.5,1.4-1.6c0.7,0,1.3-0.1,2-0.1
		c0.8-0.1,1.5,0.6,1.6,1.4c0.1,0.8-0.6,1.5-1.4,1.6c-0.7,0-1.3,0.1-2,0.1C444.1,184.1,444.1,184.1,444,184.1z M496,183.7
		C496,183.7,496,183.7,496,183.7l-2.1-0.1c-0.8,0-1.5-0.7-1.4-1.6c0-0.8,0.7-1.5,1.6-1.4l2,0.1c0.8,0,1.5,0.7,1.4,1.6
		C497.5,183.1,496.8,183.7,496,183.7z M454,183.5c-0.8,0-1.5-0.6-1.5-1.4c0-0.8,0.6-1.5,1.4-1.6c0.7,0,1.3-0.1,2-0.1c0,0,0,0,0.1,0
		c0.8,0,1.5,0.6,1.5,1.4c0,0.8-0.6,1.5-1.4,1.6C455.4,183.5,454.7,183.5,454,183.5C454.1,183.5,454,183.5,454,183.5z M486,183.3
		C486,183.3,486,183.3,486,183.3l-2-0.1c-0.8,0-1.5-0.7-1.5-1.5c0-0.8,0.7-1.5,1.5-1.5l2,0.1c0.8,0,1.5,0.7,1.5,1.5
		C487.5,182.7,486.8,183.3,486,183.3z M464,183.2c-0.8,0-1.5-0.7-1.5-1.5c0-0.8,0.6-1.5,1.5-1.5l2,0c0,0,0,0,0,0
		c0.8,0,1.5,0.7,1.5,1.5c0,0.8-0.7,1.5-1.5,1.5L464,183.2C464,183.2,464,183.2,464,183.2z M476,183.2L476,183.2l-2,0
		c-0.8,0-1.5-0.7-1.5-1.5c0-0.8,0.7-1.5,1.5-1.5h0l2,0c0.8,0,1.5,0.7,1.5,1.5C477.5,182.5,476.8,183.2,476,183.2z"/>
</g>
<g>
	<circle class="st9" cx="176.1" cy="364.6" r="6.5"/>
</g>
<g>
	<circle class="st9" cx="805.1" cy="364.6" r="6.5"/>
</g>
<g>
	<circle class="st10" cx="439.3" cy="181.4" r="70.3"/>
</g>
<g>
	<circle class="st11" cx="439.3" cy="181.4" r="55"/>
</g>
<g>
	<g>
		<path class="st9" d="M404.9,163.2c-0.4-1.1,0.5-1.9,2.2-2.6c10.2-4.3,20.4-8.7,30.7-12.9c0.9-0.4,2.3-0.5,3.2-0.1
			c10.5,4.4,20.9,8.8,31.3,13.3c0.7,0.3,1.7,1.5,1.7,2.1c-1.3,14.3-3.8,28.2-12,40.4c-4.8,7.2-11.2,12-20.2,12.7
			c-10.6,0.8-18.5-3.8-24.3-12.2c-6.4-9.3-9.3-19.9-11.2-30.8C405.7,170.1,405.4,167,404.9,163.2z"/>
	</g>
	<g>
		<path class="st4" d="M433.9,197.9c-3.5-3.9-7.5-8.4-11.6-12.9c1.7-1.5,3.3-2.9,5-4.5c2.4,1.7,4.8,3.5,7.4,5.3
			c5.9-4.8,11.8-9.7,17.8-14.6c1.4,1.8,2.6,3.4,4,5.3C449,183.6,441.5,190.7,433.9,197.9z"/>
	</g>
</g>
<g>
	<rect x="437.1" y="338.6" class="st4" width="102" height="235"/>
	<path class="st1" d="M539.1,575.1h-102c-0.8,0-1.5-0.7-1.5-1.5v-235c0-0.8,0.7-1.5,1.5-1.5h102c0.8,0,1.5,0.7,1.5,1.5v235
		C540.6,574.5,539.9,575.1,539.1,575.1z M438.6,572.1h99v-232h-99V572.1z"/>
</g>
<g>
	<rect x="453.1" y="358.6" class="st5" width="12" height="30.5"/>
	<path class="st1" d="M465.1,390.6h-12c-0.8,0-1.5-0.7-1.5-1.5v-30.5c0-0.8,0.7-1.5,1.5-1.5h12c0.8,0,1.5,0.7,1.5,1.5v30.5
		C466.6,390,465.9,390.6,465.1,390.6z M454.6,387.6h9v-27.5h-9V387.6z"/>
</g>
<g>
	<path class="st1" d="M495.1,390.6h-12c-0.8,0-1.5-0.7-1.5-1.5v-30.5c0-0.8,0.7-1.5,1.5-1.5h12c0.8,0,1.5,0.7,1.5,1.5v30.5
		C496.6,390,495.9,390.6,495.1,390.6z M484.6,387.6h9v-27.5h-9V387.6z"/>
</g>
<g>
	<path class="st1" d="M525.1,390.6h-12c-0.8,0-1.5-0.7-1.5-1.5v-30.5c0-0.8,0.7-1.5,1.5-1.5h12c0.8,0,1.5,0.7,1.5,1.5v30.5
		C526.6,390,525.9,390.6,525.1,390.6z M514.6,387.6h9v-27.5h-9V387.6z"/>
</g>
<g>
	<rect x="453.1" y="412.6" class="st4" width="12" height="30.5"/>
	<path class="st1" d="M465.1,444.6h-12c-0.8,0-1.5-0.7-1.5-1.5v-30.5c0-0.8,0.7-1.5,1.5-1.5h12c0.8,0,1.5,0.7,1.5,1.5v30.5
		C466.6,444,465.9,444.6,465.1,444.6z M454.6,441.6h9v-27.5h-9V441.6z"/>
</g>
<g>
	<path class="st1" d="M495.1,444.6h-12c-0.8,0-1.5-0.7-1.5-1.5v-30.5c0-0.8,0.7-1.5,1.5-1.5h12c0.8,0,1.5,0.7,1.5,1.5v30.5
		C496.6,444,495.9,444.6,495.1,444.6z M484.6,441.6h9v-27.5h-9V441.6z"/>
</g>
<g>
	<rect x="513.1" y="412.6" class="st7" width="12" height="30.5"/>
	<path class="st1" d="M525.1,444.6h-12c-0.8,0-1.5-0.7-1.5-1.5v-30.5c0-0.8,0.7-1.5,1.5-1.5h12c0.8,0,1.5,0.7,1.5,1.5v30.5
		C526.6,444,525.9,444.6,525.1,444.6z M514.6,441.6h9v-27.5h-9V441.6z"/>
</g>
<g>
	<rect x="453.1" y="466.6" class="st6" width="12" height="30.5"/>
	<path class="st1" d="M465.1,498.6h-12c-0.8,0-1.5-0.7-1.5-1.5v-30.5c0-0.8,0.7-1.5,1.5-1.5h12c0.8,0,1.5,0.7,1.5,1.5v30.5
		C466.6,498,465.9,498.6,465.1,498.6z M454.6,495.6h9v-27.5h-9V495.6z"/>
</g>
<g>
	<path class="st1" d="M495.1,498.6h-12c-0.8,0-1.5-0.7-1.5-1.5v-30.5c0-0.8,0.7-1.5,1.5-1.5h12c0.8,0,1.5,0.7,1.5,1.5v30.5
		C496.6,498,495.9,498.6,495.1,498.6z M484.6,495.6h9v-27.5h-9V495.6z"/>
</g>
<g>
	<path class="st1" d="M525.1,498.6h-12c-0.8,0-1.5-0.7-1.5-1.5v-30.5c0-0.8,0.7-1.5,1.5-1.5h12c0.8,0,1.5,0.7,1.5,1.5v30.5
		C526.6,498,525.9,498.6,525.1,498.6z M514.6,495.6h9v-27.5h-9V495.6z"/>
</g>
</svg>
