<?xml version="1.0" encoding="utf-8"?>
<!-- Generator: Adobe Illustrator 21.1.0, SVG Export Plug-In . SVG Version: 6.00 Build 0)  -->
<svg version="1.1" xmlns="http://www.w3.org/2000/svg" xmlns:xlink="http://www.w3.org/1999/xlink" x="0px" y="0px" width="1400px"
	 height="1020px" viewBox="0 0 1400 1020" enable-background="new 0 0 1400 1020" xml:space="preserve">
<g id="Layer_1">
	<g id="phone_user">
		<g>
			<g>
				<path fill="#FFFFFF" d="M44.4,67h-21c-1.9,0-3.5-1.6-3.5-3.5V18.6c0-1.9,1.6-3.5,3.5-3.5h21c1.9,0,3.5,1.6,3.5,3.5v44.9
					C47.9,65.4,46.3,67,44.4,67z"/>
				<path fill="#4C5561" d="M44.4,67.5h-21c-2.2,0-4-1.8-4-4V18.6c0-2.2,1.8-4,4-4h21c2.2,0,4,1.8,4,4v44.9
					C48.4,65.7,46.6,67.5,44.4,67.5z M23.4,15.6c-1.6,0-3,1.4-3,3v44.9c0,1.6,1.4,3,3,3h21c1.6,0,3-1.4,3-3V18.6c0-1.6-1.4-3-3-3
					H23.4z"/>
			</g>
			<g>
				<path fill="#4C5561" d="M44.4,55.6H23.2c-0.3,0-0.5-0.2-0.5-0.5v-5.5c0-0.3,0.2-0.5,0.5-0.5s0.5,0.2,0.5,0.5v5h20.2V21.9H23.7
					v13.9c0,0.3-0.2,0.5-0.5,0.5s-0.5-0.2-0.5-0.5V21.4c0-0.3,0.2-0.5,0.5-0.5h21.2c0.3,0,0.5,0.2,0.5,0.5v33.7
					C44.9,55.4,44.7,55.6,44.4,55.6z"/>
			</g>
			<g>
				<path fill="#4C5561" d="M23.3,47.3c-0.3,0-0.5-0.2-0.5-0.5v-7.4c0-0.3,0.2-0.5,0.5-0.5s0.5,0.2,0.5,0.5v7.4
					C23.8,47.1,23.6,47.3,23.3,47.3z"/>
			</g>
			<g>
				<path fill="#4C5561" d="M35.2,19.2h-2.7c-0.3,0-0.5-0.2-0.5-0.5s0.2-0.5,0.5-0.5h2.7c0.3,0,0.5,0.2,0.5,0.5S35.5,19.2,35.2,19.2
					z"/>
			</g>
			<g>
				<circle fill="#E6BC45" cx="33.9" cy="60.8" r="2.4"/>
				<path fill="#404751" d="M33.9,63.7c-1.6,0-2.9-1.3-2.9-2.9s1.3-2.9,2.9-2.9s2.9,1.3,2.9,2.9S35.5,63.7,33.9,63.7z M33.9,58.9
					c-1,0-1.9,0.9-1.9,1.9s0.9,1.9,1.9,1.9s1.9-0.9,1.9-1.9S34.9,58.9,33.9,58.9z"/>
			</g>
			<g>
				<g>
					<path fill="#41ACE1" d="M29.2,41.6c-0.4,0-0.9-0.2-1.2-0.6c-0.3-0.3-0.4-0.7-0.4-1.2c0-0.4,0.2-0.8,0.5-1.1l8.5-7.5
						c0.3-0.2,0.7-0.4,1-0.4c0.4,0,0.8,0.2,1.1,0.4l4.2,4l12.7-11h-2.9c-0.9,0-1.6-0.7-1.6-1.6s0.7-1.6,1.6-1.6h6.8
						c0.9,0,1.6,0.7,1.6,1.6v7c0,0.9-0.7,1.6-1.6,1.6s-1.6-0.7-1.6-1.6v-3.1l-14,12.2c-0.3,0.2-0.7,0.4-1,0.4
						c-0.4,0-0.8-0.2-1.1-0.4l-4.2-4l-7.4,6.5C30,41.4,29.6,41.6,29.2,41.6z"/>
				</g>
				<g>
					<path fill="#4C5561" d="M59.6,21.5c0.7,0,1.2,0.5,1.2,1.2v6.9c0,0.7-0.5,1.2-1.2,1.2s-1.2-0.5-1.2-1.2v-4L43.7,38.4
						c-0.2,0.2-0.5,0.3-0.8,0.3s-0.6-0.1-0.8-0.3l-4.5-4.3L30,40.9c-0.2,0.2-0.5,0.3-0.8,0.3s-0.7-0.1-0.9-0.4
						c-0.4-0.5-0.4-1.2,0.1-1.7l8.5-7.5c0.2-0.2,0.5-0.3,0.8-0.3s0.6,0.1,0.8,0.3l4.5,4.3L56.7,24h-3.9c-0.7,0-1.2-0.5-1.2-1.2
						s0.5-1.2,1.2-1.2L59.6,21.5 M59.6,20.7h-6.8c-1.1,0-2,0.9-2,2s0.9,2,2,2h1.8L43,34.8l-4-3.7c-0.4-0.4-0.9-0.6-1.4-0.6
						s-1,0.2-1.3,0.5l-8.5,7.5c-0.4,0.4-0.6,0.8-0.7,1.4c0,0.5,0.2,1,0.5,1.4c0.4,0.4,0.9,0.7,1.5,0.7c0.5,0,1-0.2,1.3-0.5l7.1-6.2
						l4,3.7c0.4,0.4,0.9,0.6,1.4,0.6s1-0.2,1.3-0.5l13.3-11.6v2.2c0,1.1,0.9,2,2,2s2-0.9,2-2v-6.9C61.6,21.7,60.7,20.7,59.6,20.7
						L59.6,20.7z"/>
				</g>
			</g>
			<g>
				<circle fill="#FFFFFF" cx="53.6" cy="58.5" r="14.6"/>
				<path fill="#4C5561" d="M53.6,73.6c-8.3,0-15.1-6.8-15.1-15.1s6.8-15.1,15.1-15.1s15.1,6.8,15.1,15.1S61.9,73.6,53.6,73.6z
					 M53.6,44.4c-7.8,0-14.1,6.3-14.1,14.1s6.3,14.1,14.1,14.1s14.1-6.3,14.1-14.1S61.4,44.4,53.6,44.4z"/>
			</g>
			<g>
				<g>
					<ellipse fill="#D75352" cx="53.6" cy="51.7" rx="2.7" ry="2.9"/>
					<path fill="#404751" d="M53.6,55.1c-1.8,0-3.2-1.5-3.2-3.4s1.4-3.4,3.2-3.4s3.2,1.5,3.2,3.4S55.4,55.1,53.6,55.1z M53.6,49.3
						c-1.2,0-2.2,1.1-2.2,2.4s1,2.4,2.2,2.4s2.2-1.1,2.2-2.4S54.8,49.3,53.6,49.3z"/>
				</g>
				<g>
					<path fill="#D75352" d="M55.5,67.6h-3.7c-2.7,0-4.8-2.2-4.8-4.8V62c0-2.7,2.2-4.8,4.8-4.8h3.7c2.7,0,4.8,2.2,4.8,4.8v0.8
						C60.3,65.4,58.1,67.6,55.5,67.6z"/>
					<path fill="#404751" d="M55.5,68.1h-3.7c-2.9,0-5.3-2.4-5.3-5.3V62c0-2.9,2.4-5.3,5.3-5.3h3.7c2.9,0,5.3,2.4,5.3,5.3v0.8
						C60.8,65.7,58.4,68.1,55.5,68.1z M51.8,57.7c-2.4,0-4.3,1.9-4.3,4.3v0.8c0,2.4,1.9,4.3,4.3,4.3h3.7c2.3,0,4.3-2,4.3-4.3V62
						c0-2.4-1.9-4.3-4.3-4.3H51.8z"/>
				</g>
			</g>
		</g>
	</g>
</g>
<g id="Email"><g id="email">
	<g>
		<g>
			<path fill="#4C5561" d="M51.4,242.6H21.5c-2.1,0-3.9-1.8-3.9-3.9v-19.3c0-2.1,1.8-3.9,3.9-3.9h29.8c2.1,0,3.9,1.8,3.9,3.9v19.3
				c0.1,1-0.3,2-1,2.7C53.5,242.2,52.5,242.6,51.4,242.6z M21.5,216.5c-1.6,0-2.9,1.3-2.9,2.9v19.3c0,1.6,1.3,2.9,2.9,2.9h29.9
				c0.8,0,1.5-0.3,2.1-0.9c0.5-0.5,0.8-1.2,0.7-2l0-19.3c0-1.6-1.3-2.9-2.9-2.9H21.5z"/>
		</g>
		<g>
			<path fill="#41ACE1" d="M36.5,230.7c-0.6,0-1.3-0.2-1.8-0.6l-12.1-8.5c-0.2-0.2-0.3-0.5-0.1-0.7c0.2-0.2,0.5-0.3,0.7-0.1
				l12.1,8.5c0.7,0.6,1.7,0.6,2.4,0l12.2-8.5c0.2-0.2,0.5-0.1,0.7,0.1s0.1,0.5-0.1,0.7l-12.2,8.5C37.8,230.5,37.1,230.7,36.5,230.7z
				"/>
		</g>
		<g>
			<path fill="#E6BC45" d="M24.5,238c-0.1,0-0.3-0.1-0.4-0.2c-0.2-0.2-0.1-0.5,0.1-0.7l4.7-3.9c0.2-0.2,0.5-0.1,0.7,0.1
				c0.2,0.2,0.1,0.5-0.1,0.7l-4.7,3.9C24.7,238,24.6,238,24.5,238z"/>
		</g>
		<g>
			<path fill="#D75352" d="M49.6,238c-0.1,0-0.2,0-0.3-0.1l-4.7-3.9c-0.2-0.2-0.2-0.5-0.1-0.7c0.2-0.2,0.5-0.2,0.7-0.1l4.7,3.9
				c0.2,0.2,0.2,0.5,0.1,0.7C49.9,237.9,49.7,238,49.6,238z"/>
		</g>
	</g>
</g>
</g>
<g id="Mobile_Video">
	 
		<g>
			<g>
				<path fill="#41ACE1" d="M85.6,54.6c-0.3,0-0.6-0.1-0.8-0.4c-0.3-0.4-0.3-1.1,0.1-1.4l47.3-38.5c0.4-0.3,1.1-0.3,1.4,0.1
					c0.3,0.4,0.3,1.1-0.1,1.4L86.2,54.4C86,54.5,85.8,54.6,85.6,54.6z"/>
			</g>
			<g>
				<path fill="#D75352" d="M87.4,64.3c-0.3,0-0.6-0.1-0.8-0.4c-0.3-0.4-0.3-1.1,0.1-1.4L134,24c0.4-0.3,1.1-0.3,1.4,0.1
					c0.3,0.4,0.3,1.1-0.1,1.4L88,64.1C87.8,64.2,87.6,64.3,87.4,64.3z"/>
			</g>
			<g>
				<path fill="#E6BC45" d="M87.4,74c-0.3,0-0.6-0.1-0.8-0.4c-0.3-0.4-0.3-1.1,0.1-1.4L134,33.6c0.4-0.4,1.1-0.3,1.4,0.1
					c0.3,0.4,0.3,1.1-0.1,1.4L88,73.8C87.8,73.9,87.6,74,87.4,74z"/>
			</g>
			<g>
				<path fill="#FFFFFF" d="M122.1,73.1H99.2c-1.5,0-2.8-1.2-2.8-2.8v-47c0-1.5,1.2-2.8,2.8-2.8h22.9c1.5,0,2.8,1.2,2.8,2.8v47.1
					C124.8,71.9,123.6,73.1,122.1,73.1z"/>
				<path fill="#4C5561" d="M122.1,73.6H99.2c-1.8,0-3.3-1.5-3.3-3.3v-47c0-1.8,1.5-3.3,3.3-3.3h22.9c1.8,0,3.3,1.5,3.3,3.3v47.1
					C125.3,72.2,123.8,73.6,122.1,73.6z M99.2,21c-1.3,0-2.3,1-2.3,2.3v47c0,1.3,1,2.3,2.3,2.3h22.9c1.2,0,2.2-1,2.3-2.2V23.3
					c0-1.3-1-2.3-2.3-2.3H99.2L99.2,21z"/>
			</g>
			<g>
				<path fill="#4C5561" d="M121.3,61.6H99.8c-0.3,0-0.5-0.2-0.5-0.5v-5.6c0-0.3,0.2-0.5,0.5-0.5s0.5,0.2,0.5,0.5v5.1h20.5V27.4
					h-20.5v14.1c0,0.3-0.2,0.5-0.5,0.5s-0.5-0.2-0.5-0.5V26.9c0-0.3,0.2-0.5,0.5-0.5h21.5c0.3,0,0.5,0.2,0.5,0.5v34.2
					C121.8,61.4,121.6,61.6,121.3,61.6z"/>
			</g>
			<g>
				<path fill="#4C5561" d="M99.9,53.1c-0.3,0-0.5-0.2-0.5-0.5v-7.5c0-0.3,0.2-0.5,0.5-0.5s0.5,0.2,0.5,0.5v7.5
					C100.4,52.9,100.2,53.1,99.9,53.1z"/>
			</g>
			<g>
				<path fill="#4C5561" d="M112,24.7h-2.7c-0.3,0-0.5-0.2-0.5-0.5s0.2-0.5,0.5-0.5h2.7c0.3,0,0.5,0.2,0.5,0.5S112.3,24.7,112,24.7z
					"/>
			</g>
			<g>
				<circle fill="#E6BC45" cx="110.6" cy="66.8" r="2.5"/>
				<path fill="#404751" d="M110.6,69.8c-1.7,0-3-1.3-3-3s1.3-3,3-3s3,1.3,3,3S112.3,69.8,110.6,69.8z M110.6,64.8c-1.1,0-2,0.9-2,2
					s0.9,2,2,2s2-0.9,2-2S111.7,64.8,110.6,64.8z"/>
			</g>
			<g>
				<polygon fill="#D75352" points="107.5,38.4 107.5,49.5 116.4,43.6 				"/>
				<path fill="#404751" d="M107.5,50c-0.1,0-0.2,0-0.2-0.1c-0.2-0.1-0.3-0.3-0.3-0.4V38.4c0-0.2,0.1-0.3,0.3-0.4
					c0.2-0.1,0.3-0.1,0.5,0l8.9,5.2c0.1,0.1,0.2,0.2,0.2,0.4s-0.1,0.3-0.2,0.4l-8.9,5.9C107.7,50,107.6,50,107.5,50z M108,39.3v9.3
					l7.5-4.9L108,39.3z"/>
			</g>
		</g>
 
</g>
<g id="phone">
	<g>
		<g>
			<path fill="#41ACE1" d="M88.4,239.5c-3.5,0-6.3-2.8-6.3-6.3s2.8-6.3,6.3-6.3s6.3,2.8,6.3,6.3C94.7,236.7,91.9,239.5,88.4,239.5z
				 M88.4,227.9c-3,0-5.3,2.3-5.3,5.3c0,3,2.3,5.3,5.3,5.3c2.9,0,5.3-2.4,5.3-5.3C93.7,230.2,91.4,227.9,88.4,227.9z"/>
		</g>
		<g>
			<path fill="#4C5561" d="M103.3,244.7c-5-0.1-10-0.1-14.9-0.1H73.6c-1.2,0-1.7-0.5-1.7-1.7c0-0.4,0-0.8,0-1.2c0-0.8,0-1.6,0-2.5
				c0.1-0.9,0.2-1.6,0.6-2.3c0.6-1.3,1.2-2.5,1.9-3.7c0.4-0.7,0.8-1.5,1.2-2.3c0.2-0.3,0.3-0.6,0.5-1c0.3-0.5,0.5-1,0.8-1.5
				c0.4-0.8,1-1.2,1.9-1.2c1.8-0.1,3-1.3,3.2-3.1c0.1-1.7,0.9-2.4,2.6-2.4h8c1.7,0,2.4,0.6,2.5,2.3c0.2,1.8,1.5,3,3.3,3.1
				c0,0,0,0,0,0c1.2,0,1.7,1,1.9,1.6c0.7,1.3,1.4,2.7,2,4c0.7,1.3,1.3,2.6,2,4c0.4,0.9,0.6,2,0.7,2.6c0.1,0.8,0,1.7,0,2.5
				c0,0.4,0,0.8,0,1.2C105,244.2,104.5,244.7,103.3,244.7z M84.5,222.8c-1.2,0-1.5,0.3-1.6,1.4c-0.2,2.3-1.9,4-4.2,4.1
				c-0.5,0-0.7,0.2-1,0.6c-0.2,0.5-0.5,1.1-0.8,1.6c-0.2,0.3-0.3,0.6-0.5,0.9c-0.4,0.8-0.8,1.5-1.2,2.3c-0.7,1.2-1.3,2.4-1.9,3.7
				c-0.3,0.5-0.4,1.2-0.5,2c-0.1,0.8,0,1.6,0,2.3c0,0.4,0,0.8,0,1.2c0,0.6,0.1,0.7,0.7,0.7h14.8c4.9,0,9.9,0,14.9,0.1
				c0.6,0,0.7-0.1,0.7-0.7c0-0.4,0-0.8,0-1.2c0-0.8,0-1.6,0-2.3c-0.1-0.8-0.3-1.7-0.6-2.2c-0.7-1.3-1.4-2.6-2-4
				c-0.7-1.3-1.4-2.7-2.1-4c-0.3-0.8-0.5-1-1.1-1c-2.4-0.1-4.1-1.7-4.3-4.1c-0.1-1.1-0.3-1.3-1.5-1.3H84.5z"/>
		</g>
		<g>
			<path fill="#4C5561" d="M77.8,225.3h-5.7c-0.7,0-1.4-0.3-1.7-0.8c-0.4-0.5-0.5-1.3-0.2-2c1.3-4.5,5.4-8,10.1-8.5
				c1.1-0.2,2.1-0.1,3.1-0.1c0.3,0,0.7,0,1,0c1.3-0.2,2.6-0.2,4-0.2H95c5.2,0,9.9,3.4,11.6,8.4c0.4,1.1,0.1,1.9-0.2,2.3
				c-0.3,0.4-0.9,0.9-2.1,0.9h-5.1c-1.7,0-2.6-0.8-2.6-2.5c0-0.5,0-1.1-0.1-1.5c-0.3-1.1-1.3-1.7-2.2-1.7h-12c-1.3,0-2.3,1-2.4,2.4
				l0,1.2C79.9,224.3,79,225.3,77.8,225.3z M82.3,214.8c-0.7,0-1.3,0-2,0.1c-4.3,0.5-8.1,3.7-9.3,7.8c-0.2,0.5-0.1,0.9,0.1,1.1
				c0.2,0.3,0.5,0.4,0.9,0.4h5.7c0.6,0,1.1-0.5,1.1-1.2v-1.2c0.1-2,1.6-3.4,3.4-3.4h12c1.5,0,2.9,1,3.2,2.5c0.1,0.6,0.1,1.2,0.1,1.7
				c0,1.1,0.4,1.5,1.6,1.5h5.1c0.4,0,1-0.1,1.3-0.5c0.3-0.4,0.2-1,0-1.4c-1.5-4.6-5.8-7.8-10.6-7.8h-6.6c-1.4,0-2.7,0-3.9,0.2
				c-0.4,0-0.8,0-1.1,0C83,214.8,82.7,214.8,82.3,214.8z"/>
		</g>
		<g>
			<path fill="#E6BC45" d="M90.9,233.2c0,1.5-1.2,2.6-2.6,2.6s-2.5-1.2-2.5-2.6c0-1.5,1.1-2.5,2.5-2.6
				C89.8,230.6,90.9,231.8,90.9,233.2z"/>
			<path fill="#4C5561" d="M88.3,236.3c-1.7,0-3-1.4-3-3.1c0-1.7,1.2-3,3-3.1c0,0,0,0,0,0c1.8,0,3.1,1.4,3.1,3.1
				C91.4,234.9,90,236.3,88.3,236.3z M88.3,231.1c-1.2,0.1-2,0.9-2,2.1c0,1.2,0.9,2.1,2,2.1c1.2,0,2.1-0.9,2.1-2.1
				C90.4,232,89.5,231.1,88.3,231.1z"/>
		</g>
	</g>
</g>
<g id="_x34_g_video">
	<g>
		<g>
			<path fill="#FFFFFF" d="M146.8,43.7v-7.9c0-2.1,1.7-3.8,3.8-3.8H197c2.1,0,3.8,1.7,3.8,3.8v31.5c0,2.1-1.7,3.8-3.8,3.8h-46.4
				c-2.1,0-3.8-1.7-3.8-3.8v-6.7"/>
			<path fill="#4C5561" d="M197,71.6h-46.4c-2.4,0-4.3-1.9-4.3-4.3v-6.7c0-0.3,0.2-0.5,0.5-0.5s0.5,0.2,0.5,0.5v6.7
				c0,1.8,1.5,3.3,3.3,3.3H197c1.8,0,3.3-1.5,3.3-3.3V35.8c0-1.8-1.5-3.3-3.3-3.3h-46.4c-1.8,0-3.3,1.5-3.3,3.3v7.9
				c0,0.3-0.2,0.5-0.5,0.5s-0.5-0.2-0.5-0.5v-7.9c0-2.4,1.9-4.3,4.3-4.3H197c2.4,0,4.3,1.9,4.3,4.3v31.5
				C201.3,69.7,199.4,71.6,197,71.6z"/>
		</g>
		<g>
			<path fill="#E6BC45" d="M170.6,45v7.6c0,1.1,1.2,1.7,2.1,1.1l6-4c0.8-0.5,0.8-1.8-0.1-2.3l-6-3.5C171.7,43.4,170.6,44,170.6,45z"
				/>
			<path fill="#404751" d="M171.9,54.4c-0.3,0-0.6-0.1-0.9-0.2c-0.6-0.3-1-0.9-1-1.6V45c0-0.6,0.3-1.2,0.9-1.5
				c0.6-0.3,1.3-0.3,1.9,0l6,3.5c0.6,0.3,0.9,0.9,0.9,1.6c0,0.6-0.3,1.3-0.8,1.6l-6,4C172.7,54.3,172.3,54.4,171.9,54.4z
				 M171.9,44.2c-0.2,0-0.3,0-0.4,0.1c-0.2,0.1-0.4,0.4-0.4,0.7v7.6c0,0.3,0.2,0.6,0.4,0.7c0.3,0.2,0.6,0.1,0.9-0.1l6-4
				c0.2-0.2,0.4-0.4,0.4-0.7c0-0.1-0.1-0.5-0.4-0.7l-6-3.5C172.2,44.3,172.1,44.2,171.9,44.2z"/>
		</g>
		<g>
			<path fill="#4C5561" d="M195,66.2h-44.1c-0.3,0-0.5-0.2-0.5-0.5s0.2-0.5,0.5-0.5H195c0.3,0,0.5,0.2,0.5,0.5S195.3,66.2,195,66.2z
				"/>
		</g>
		<g>
			<path fill="#41ACE1" d="M155.9,68.6c-0.6,0-1-0.4-1-1v-4.1c0-0.6,0.4-1,1-1s1,0.4,1,1v4.1C156.9,68.2,156.5,68.6,155.9,68.6z"/>
		</g>
		<g>
			<circle fill="#FFFFFF" cx="192.2" cy="30.2" r="13"/>
			<path fill="#4C5561" d="M192.2,43.7c-7.4,0-13.5-6.1-13.5-13.5s6.1-13.5,13.5-13.5s13.5,6.1,13.5,13.5S199.6,43.7,192.2,43.7z
				 M192.2,17.7c-6.9,0-12.5,5.6-12.5,12.5s5.6,12.5,12.5,12.5s12.5-5.6,12.5-12.5S199.1,17.7,192.2,17.7z"/>
		</g>
		<g enable-background="new    ">
			<path fill="#D75352" d="M188,33.5v-1.4h-3.5v-1.4l3.3-4.7h2v4.6h0.9v1.5h-0.9v1.4H188z M188.1,30.6V28l-1.6,2.6H188.1z"/>
			<path fill="#D75352" d="M192.5,32.5c-0.7-0.7-1.1-1.6-1.1-2.7s0.4-2,1.1-2.7c0.7-0.7,1.6-1.1,2.7-1.1c0.8,0,1.5,0.2,2.2,0.6
				c0.6,0.4,1.1,1,1.3,1.8h-2.1c-0.3-0.5-0.7-0.8-1.3-0.8c-0.6,0-1.1,0.2-1.4,0.6s-0.5,0.9-0.5,1.5s0.2,1.1,0.5,1.5s0.8,0.6,1.4,0.6
				c0.4,0,0.8-0.1,1-0.3s0.4-0.5,0.5-0.8h-2.1v-1.4h4v1.4c-0.1,0.7-0.5,1.3-1.1,1.9c-0.3,0.3-0.6,0.5-1.1,0.7
				c-0.4,0.2-0.9,0.3-1.3,0.3C194.1,33.6,193.2,33.2,192.5,32.5z"/>
		</g>
		<g>
			<path fill="#4C5561" d="M146.8,58.4c-0.3,0-0.5-0.2-0.5-0.5v-6.3c0-0.3,0.2-0.5,0.5-0.5s0.5,0.2,0.5,0.5v6.3
				C147.3,58.2,147.1,58.4,146.8,58.4z"/>
		</g>
		<g>
			<path fill="#4C5561" d="M146.8,49.3c-0.3,0-0.5-0.2-0.5-0.5v-2.5c0-0.3,0.2-0.5,0.5-0.5s0.5,0.2,0.5,0.5v2.5
				C147.3,49.1,147.1,49.3,146.8,49.3z"/>
		</g>
	</g>
</g>
<g id="iot">
	<g>
		<g>
			<path fill="#FFFFFF" d="M254.4,41.2c0.3,1.1,0.4,2.2,0.4,3.3c0,7-5.7,12.7-12.7,12.7c-1.3,0-2.5-0.2-3.7-0.5"/>
			<path fill="#4C5561" d="M242.1,57.7c-1.2,0-2.4-0.2-3.8-0.5c-0.3-0.1-0.4-0.3-0.4-0.6c0.1-0.3,0.3-0.4,0.6-0.4
				c1.3,0.3,2.5,0.5,3.6,0.5c6.7,0,12.2-5.5,12.2-12.2c0-1.2-0.1-2.2-0.4-3.2c-0.1-0.3,0.1-0.5,0.4-0.6c0.3-0.1,0.5,0.1,0.6,0.4
				c0.3,1,0.4,2.2,0.4,3.4C255.3,51.8,249.4,57.7,242.1,57.7z"/>
		</g>
		<g>
			<path fill="#FFFFFF" d="M229.8,47.8c-0.3-1-0.4-2.1-0.4-3.2c0-7,5.7-12.7,12.7-12.7c1.7,0,3.3,0.3,4.7,0.9"/>
			<path fill="#4C5561" d="M229.8,48.3c-0.2,0-0.4-0.1-0.5-0.4c-0.3-0.9-0.4-2-0.4-3.3c0-7.3,5.9-13.2,13.2-13.2
				c1.8,0,3.4,0.3,4.9,0.9c0.3,0.1,0.4,0.4,0.3,0.7c-0.1,0.3-0.4,0.4-0.7,0.3c-1.3-0.6-2.8-0.9-4.5-0.9c-6.7,0-12.2,5.5-12.2,12.2
				c0,1.2,0.1,2.2,0.4,3.1c0.1,0.3-0.1,0.5-0.3,0.6C229.9,48.3,229.8,48.3,229.8,48.3z"/>
		</g>
		<g>
			<path fill="#FFFFFF" d="M234.8,47.9c-0.5-1-0.7-2.2-0.7-3.4c0-4.5,3.6-8.1,8.1-8.1c0.6,0,1.1,0.1,1.6,0.2"/>
			<path fill="#4C5561" d="M234.8,48.4c-0.2,0-0.4-0.1-0.4-0.3c-0.5-1-0.8-2.2-0.8-3.6c0-4.7,3.9-8.6,8.6-8.6c0.6,0,1.2,0.1,1.7,0.2
				c0.3,0.1,0.4,0.3,0.4,0.6s-0.3,0.4-0.6,0.4c-0.5-0.1-1-0.2-1.5-0.2c-4.2,0-7.6,3.4-7.6,7.6c0,1.2,0.2,2.3,0.6,3.2
				c0.1,0.2,0,0.5-0.2,0.7C235,48.4,234.9,48.4,234.8,48.4z"/>
		</g>
		<g>
			<path fill="#FFFFFF" d="M250,42.7c0.1,0.6,0.2,1.2,0.2,1.9c0,4.5-3.6,8.1-8.1,8.1c-0.4,0-0.8,0-1.2-0.1"/>
			<path fill="#4C5561" d="M242.1,53.2c-0.4,0-0.9,0-1.3-0.1c-0.3-0.1-0.4-0.3-0.4-0.6c0.1-0.3,0.3-0.4,0.6-0.4
				c0.3,0.1,0.7,0.1,1.1,0.1c4.2,0,7.6-3.4,7.6-7.6c0-0.7-0.1-1.2-0.2-1.8c0-0.3,0.1-0.5,0.4-0.6c0.3,0,0.5,0.1,0.6,0.4
				c0.1,0.6,0.2,1.2,0.2,2C250.7,49.3,246.8,53.2,242.1,53.2z"/>
		</g>
		<g>
			<path fill="#E6BC45" d="M232.8,23.2c0,1.9-1.5,3.4-3.4,3.4c-0.3,0-0.7-0.1-1-0.1c-1.1-0.3-2-1.2-2.3-2.4
				c-0.1-0.3-0.1-0.6-0.1-0.9c0-1.9,1.5-3.4,3.4-3.4c0.4,0,0.9,0.1,1.3,0.2c1,0.4,1.7,1.2,2,2.3C232.7,22.6,232.8,22.9,232.8,23.2z"
				/>
			<path fill="#4C5561" d="M229.4,27.1c-0.2,0-0.4,0-0.6-0.1c-0.2,0-0.4,0-0.6-0.1c-1.3-0.4-2.3-1.4-2.7-2.8c-0.1-0.3-0.1-0.7-0.1-1
				c0-2.2,1.7-3.9,3.9-3.9c0.4,0,0.9,0.1,1.4,0.2c1.2,0.5,2,1.4,2.4,2.7c0,0,0,0.1,0,0.1c0,0.1,0,0.2,0,0.4c0,0.2,0.1,0.4,0.1,0.5
				C233.3,25.4,231.6,27.1,229.4,27.1z M228.5,26c0.2,0,0.3,0,0.5,0.1c0.1,0,0.3,0,0.4,0c1.6,0,2.9-1.3,2.9-2.9c0-0.1,0-0.2,0-0.4
				c0-0.2,0-0.3-0.1-0.5c-0.3-0.9-0.8-1.6-1.7-1.9c-0.4-0.1-0.8-0.2-1.1-0.2c-1.6,0-2.9,1.3-2.9,2.9c0,0.3,0,0.5,0.1,0.7
				C226.8,25,227.6,25.7,228.5,26z"/>
		</g>
		<g>
			<path fill="#41ACE1" d="M220.7,44.2c0,1.9-1.5,3.4-3.4,3.4c-0.3,0-0.7-0.1-1-0.1c-1.1-0.3-2-1.2-2.3-2.4
				c-0.1-0.3-0.1-0.6-0.1-0.9c0-1.9,1.5-3.4,3.4-3.4c0.4,0,0.9,0.1,1.3,0.2c1,0.4,1.7,1.2,2,2.3C220.6,43.6,220.7,43.9,220.7,44.2z"
				/>
			<path fill="#4C5561" d="M217.3,48.1c-0.2,0-0.4,0-0.6-0.1c-0.2,0-0.4,0-0.6-0.1c-1.3-0.4-2.3-1.4-2.7-2.8c-0.1-0.3-0.1-0.7-0.1-1
				c0-2.2,1.7-3.9,3.9-3.9c0.4,0,0.9,0.1,1.4,0.2c1.2,0.5,2,1.4,2.4,2.7c0,0,0,0.1,0,0.1c0,0.1,0,0.2,0,0.4c0,0.2,0.1,0.4,0.1,0.5
				C221.2,46.4,219.5,48.1,217.3,48.1z M216.4,47c0.2,0,0.3,0,0.5,0.1c0.1,0,0.3,0,0.4,0c1.6,0,2.9-1.3,2.9-2.9c0-0.1,0-0.2,0-0.4
				c0-0.2,0-0.3-0.1-0.5c-0.3-0.9-0.8-1.6-1.7-1.9c-0.4-0.1-0.8-0.2-1.1-0.2c-1.6,0-2.9,1.3-2.9,2.9c0,0.3,0,0.5,0.1,0.7
				C214.7,46,215.5,46.7,216.4,47z"/>
		</g>
		<g>
			<path fill="#D75352" d="M232.8,65.8c0,1.9-1.5,3.4-3.4,3.4c-0.3,0-0.7-0.1-1-0.1c-1.1-0.3-2-1.2-2.3-2.4
				c-0.1-0.3-0.1-0.6-0.1-0.9c0-1.9,1.5-3.4,3.4-3.4c0.4,0,0.9,0.1,1.3,0.2c1,0.4,1.7,1.2,2,2.3C232.7,65.2,232.8,65.5,232.8,65.8z"
				/>
			<path fill="#4C5561" d="M229.4,69.7c-0.2,0-0.4,0-0.6-0.1c-0.2,0-0.4,0-0.6-0.1c-1.3-0.4-2.3-1.4-2.7-2.8c-0.1-0.3-0.1-0.7-0.1-1
				c0-2.2,1.7-3.9,3.9-3.9c0.4,0,0.9,0.1,1.4,0.2c1.2,0.5,2,1.4,2.4,2.7c0,0,0,0.1,0,0.1c0,0.1,0,0.2,0,0.4c0,0.2,0.1,0.4,0.1,0.5
				C233.3,68,231.6,69.7,229.4,69.7z M228.5,68.6c0.2,0,0.3,0,0.5,0.1c0.1,0,0.3,0,0.4,0c1.6,0,2.9-1.3,2.9-2.9c0-0.1,0-0.2,0-0.4
				c0-0.2,0-0.3-0.1-0.5c-0.3-0.9-0.8-1.6-1.7-1.9c-0.4-0.1-0.8-0.2-1.1-0.2c-1.6,0-2.9,1.3-2.9,2.9c0,0.3,0,0.5,0.1,0.7
				C226.8,67.6,227.6,68.3,228.5,68.6z"/>
		</g>
		<g>
			<path fill="#41ACE1" d="M257.7,65.8c0,1.9-1.5,3.4-3.4,3.4c-0.3,0-0.7-0.1-1-0.1c-1.1-0.3-2-1.2-2.3-2.4
				c-0.1-0.3-0.1-0.6-0.1-0.9c0-1.9,1.5-3.4,3.4-3.4c0.4,0,0.9,0.1,1.3,0.2c1,0.4,1.7,1.2,2,2.3C257.7,65.2,257.7,65.5,257.7,65.8z"
				/>
			<path fill="#4C5561" d="M254.3,69.7c-0.2,0-0.4,0-0.6-0.1c-0.2,0-0.4,0-0.6-0.1c-1.3-0.4-2.3-1.4-2.7-2.8c-0.1-0.3-0.1-0.7-0.1-1
				c0-2.2,1.7-3.9,3.9-3.9c0.4,0,0.9,0.1,1.4,0.2c1.2,0.5,2,1.4,2.4,2.7c0.1,0.4,0.1,0.7,0.1,1C258.2,68,256.5,69.7,254.3,69.7z
				 M253.4,68.6c0.2,0,0.3,0,0.5,0.1c0.1,0,0.3,0,0.4,0c1.6,0,2.9-1.3,2.9-2.9c0-0.3,0-0.5-0.1-0.7c-0.3-1-0.9-1.7-1.7-2
				c-0.4-0.1-0.8-0.2-1.1-0.2c-1.6,0-2.9,1.3-2.9,2.9c0,0.3,0,0.5,0.1,0.7C251.7,67.6,252.5,68.3,253.4,68.6z"/>
		</g>
		<g>
			<path fill="#E6BC45" d="M270,44.5c0,1.9-1.5,3.4-3.4,3.4c-0.3,0-0.7-0.1-1-0.1c-1.1-0.3-2-1.2-2.3-2.4c-0.1-0.3-0.1-0.6-0.1-0.9
				c0-1.9,1.5-3.4,3.4-3.4c0.4,0,0.9,0.1,1.3,0.2c1,0.4,1.7,1.2,2,2.3C270,43.9,270,44.2,270,44.5z"/>
			<path fill="#4C5561" d="M266.6,48.4c-0.2,0-0.4,0-0.6-0.1c-0.2,0-0.4,0-0.6-0.1c-1.3-0.4-2.3-1.4-2.7-2.8c-0.1-0.3-0.1-0.7-0.1-1
				c0-2.2,1.7-3.9,3.9-3.9c0.4,0,0.8,0.1,1.4,0.2c1.2,0.5,2,1.4,2.4,2.7c0.1,0.4,0.1,0.7,0.1,1C270.5,46.7,268.8,48.4,266.6,48.4z
				 M265.7,47.3c0.2,0,0.3,0,0.5,0.1c0.2,0,0.3,0,0.4,0c1.6,0,2.9-1.3,2.9-2.9c0-0.3,0-0.5-0.1-0.7c-0.3-1-0.9-1.7-1.7-2
				c-0.4-0.1-0.8-0.2-1.1-0.2c-1.6,0-2.9,1.3-2.9,2.9c0,0.3,0,0.5,0.1,0.7C264,46.3,264.8,47,265.7,47.3z"/>
		</g>
		<g>
			<path fill="#D75352" d="M257.7,22.5c0,1.9-1.5,3.4-3.4,3.4c-0.3,0-0.7-0.1-1-0.1c-1.1-0.3-2-1.2-2.3-2.4
				c-0.1-0.3-0.1-0.6-0.1-0.9c0-1.9,1.5-3.4,3.4-3.4c0.4,0,0.9,0.1,1.3,0.2c1,0.4,1.7,1.2,2,2.3C257.7,21.9,257.7,22.2,257.7,22.5z"
				/>
			<path fill="#4C5561" d="M254.3,26.4c-0.2,0-0.4,0-0.6-0.1c-0.2,0-0.4,0-0.6-0.1c-1.3-0.4-2.3-1.4-2.7-2.8c-0.1-0.3-0.1-0.7-0.1-1
				c0-2.2,1.7-3.9,3.9-3.9c0.4,0,0.8,0.1,1.4,0.2c1.2,0.5,2,1.4,2.4,2.7c0.1,0.4,0.1,0.7,0.1,1C258.2,24.7,256.5,26.4,254.3,26.4z
				 M253.4,25.3c0.2,0,0.3,0,0.5,0.1c0.1,0,0.3,0,0.4,0c1.6,0,2.9-1.3,2.9-2.9c0-0.3,0-0.5-0.1-0.7c-0.3-1-0.9-1.7-1.7-2
				c-0.4-0.1-0.8-0.2-1.1-0.2c-1.6,0-2.9,1.3-2.9,2.9c0,0.3,0,0.5,0.1,0.7C251.7,24.3,252.5,25,253.4,25.3z"/>
		</g>
		<g>
			<path fill="#4C5561" d="M219.2,41.3c-0.1,0-0.2,0-0.3-0.1c-0.2-0.1-0.3-0.5-0.2-0.7l6.4-10c0.1-0.2,0.5-0.3,0.7-0.2
				c0.2,0.1,0.3,0.5,0.2,0.7l-6.4,10C219.5,41.2,219.4,41.3,219.2,41.3z"/>
		</g>
		<g>
			<path fill="#4C5561" d="M246.6,23.7h-13.8c-0.3,0-0.5-0.2-0.5-0.5s0.2-0.5,0.5-0.5h13.8c0.3,0,0.5,0.2,0.5,0.5
				S246.9,23.7,246.6,23.7z"/>
		</g>
		<g>
			<path fill="#4C5561" d="M251,66.6h-13.3c-0.3,0-0.5-0.2-0.5-0.5s0.2-0.5,0.5-0.5H251c0.3,0,0.5,0.2,0.5,0.5S251.3,66.6,251,66.6z
				"/>
		</g>
		<g>
			<path fill="#4C5561" d="M258.4,60c-0.1,0-0.2,0-0.2-0.1c-0.2-0.1-0.3-0.4-0.2-0.7l6.7-11.6c0.1-0.2,0.4-0.3,0.7-0.2
				c0.2,0.1,0.3,0.4,0.2,0.7l-6.7,11.6C258.7,59.9,258.6,60,258.4,60z"/>
		</g>
		<g>
			<path fill="#4C5561" d="M262.8,38.4c-0.2,0-0.3-0.1-0.4-0.3l-6.9-12c-0.1-0.2-0.1-0.5,0.2-0.7c0.2-0.1,0.5-0.1,0.7,0.2l6.9,12
				c0.1,0.2,0.1,0.5-0.2,0.7C263,38.4,262.9,38.4,262.8,38.4z"/>
		</g>
		<g>
			<path fill="#4C5561" d="M227.7,63.3c-0.2,0-0.3-0.1-0.4-0.2L220.8,52c-0.1-0.2-0.1-0.5,0.2-0.7c0.2-0.1,0.5-0.1,0.7,0.2l6.5,11.1
				c0.1,0.2,0.1,0.5-0.2,0.7C227.9,63.3,227.8,63.3,227.7,63.3z"/>
		</g>
		<g>
			<circle fill="#4C5561" cx="242.1" cy="44.5" r="3.7"/>
		</g>
	</g>
</g>
<g id="flexible">
	<g>
		<circle fill="#41ACE1" cx="307.5" cy="44.1" r="3.6"/>
		<path fill="#4C5561" d="M307.5,41.5c1.4,0,2.6,1.2,2.6,2.6s-1.2,2.6-2.6,2.6s-2.6-1.2-2.6-2.6S306,41.5,307.5,41.5 M307.5,39.5
			c-2.6,0-4.6,2.1-4.6,4.6s2.1,4.6,4.6,4.6s4.6-2.1,4.6-4.6S310,39.5,307.5,39.5L307.5,39.5z"/>
	</g>
	
		<line fill="none" stroke="#4C5561" stroke-linecap="round" stroke-linejoin="round" stroke-miterlimit="10" x1="307.5" y1="27.4" x2="307.5" y2="15.3"/>
	<polyline fill="none" stroke="#4C5561" stroke-linecap="round" stroke-linejoin="round" stroke-miterlimit="10" points="
		303.9,18.4 307.4,15.1 311.1,18.6 	"/>
	<path fill="#4C5561" d="M307.6,32.3h-0.2c-0.5,0-0.9-0.4-0.9-0.9v-0.2c0-0.5,0.4-0.9,0.9-0.9h0.2c0.5,0,0.9,0.4,0.9,0.9v0.2
		C308.5,31.9,308.1,32.3,307.6,32.3z"/>
	<path fill="#4C5561" d="M307.6,36.6h-0.2c-0.5,0-0.9-0.4-0.9-0.9v-0.2c0-0.5,0.4-0.9,0.9-0.9h0.2c0.5,0,0.9,0.4,0.9,0.9v0.2
		C308.5,36.2,308.1,36.6,307.6,36.6z"/>
	
		<line fill="none" stroke="#4C5561" stroke-linecap="round" stroke-linejoin="round" stroke-miterlimit="10" x1="307.5" y1="60.8" x2="307.5" y2="72.9"/>
	<polyline fill="none" stroke="#4C5561" stroke-linecap="round" stroke-linejoin="round" stroke-miterlimit="10" points="
		303.9,69.8 307.4,73.1 311.1,69.5 	"/>
	<path fill="#4C5561" d="M307.6,55.9h-0.2c-0.5,0-0.9,0.4-0.9,0.9V57c0,0.5,0.4,0.9,0.9,0.9h0.2c0.5,0,0.9-0.4,0.9-0.9v-0.2
		C308.5,56.3,308.1,55.9,307.6,55.9z"/>
	<path fill="#4C5561" d="M307.6,51.6h-0.2c-0.5,0-0.9,0.4-0.9,0.9v0.2c0,0.5,0.4,0.9,0.9,0.9h0.2c0.5,0,0.9-0.4,0.9-0.9v-0.2
		C308.5,52,308.1,51.6,307.6,51.6z"/>
	
		<line fill="none" stroke="#4C5561" stroke-linecap="round" stroke-linejoin="round" stroke-miterlimit="10" x1="324.3" y1="44.1" x2="336.5" y2="44.1"/>
	<polyline fill="none" stroke="#4C5561" stroke-linecap="round" stroke-linejoin="round" stroke-miterlimit="10" points="
		333.3,40.5 336.7,44.1 333.1,47.7 	"/>
	<path fill="#4C5561" d="M319.5,44.2V44c0-0.5,0.4-0.9,0.9-0.9h0.2c0.5,0,0.9,0.4,0.9,0.9v0.2c0,0.5-0.4,0.9-0.9,0.9h-0.2
		C319.9,45.1,319.5,44.7,319.5,44.2z"/>
	<path fill="#4C5561" d="M315.2,44.2V44c0-0.5,0.4-0.9,0.9-0.9h0.2c0.5,0,0.9,0.4,0.9,0.9v0.2c0,0.5-0.4,0.9-0.9,0.9h-0.2
		C315.6,45.1,315.2,44.7,315.2,44.2z"/>
	
		<line fill="none" stroke="#4C5561" stroke-linecap="round" stroke-linejoin="round" stroke-miterlimit="10" x1="291.3" y1="44.1" x2="279.2" y2="44.1"/>
	<polyline fill="none" stroke="#4C5561" stroke-linecap="round" stroke-linejoin="round" stroke-miterlimit="10" points="
		282.3,40.5 279,44.1 282.5,47.7 	"/>
	<path fill="#4C5561" d="M296.2,44.2V44c0-0.5-0.4-0.9-0.9-0.9h-0.1c-0.5,0-0.9,0.4-0.9,0.9v0.1c0,0.5,0.4,0.9,0.9,0.9h0.1
		C295.7,45.1,296.2,44.7,296.2,44.2z"/>
	<path fill="#4C5561" d="M300.5,44.2V44c0-0.5-0.4-0.9-0.9-0.9h-0.2c-0.5,0-0.9,0.4-0.9,0.9v0.2c0,0.5,0.4,0.9,0.9,0.9h0.2
		C300.1,45.1,300.5,44.7,300.5,44.2z"/>
</g>
<g id="go_to_top">
	<path fill="#FFFFFF" d="M31.2,282.4l-6.2-5.1c-0.4-0.3-0.9-0.3-1.3,0l-6.3,5.1c-0.4,0.3-0.5,1-0.1,1.4c0.3,0.4,1,0.5,1.4,0.1
		l4.7-3.8v15.9c0,0.6,0.4,1,1,1s1-0.4,1-1v-15.9L30,284c0.2,0.2,0.4,0.2,0.6,0.2c0.3,0,0.6-0.1,0.8-0.4
		C31.7,283.4,31.7,282.8,31.2,282.4z"/>
</g>
<g id="reliable">
	<g>
		<g>
			<path fill="#FFFFFF" d="M376.7,64.9l14.6-14.5c1.3-1.4,0.4-3.7-0.4-4.1l6.7-6.6l-14-14.1l-5.4,5.4c-1.2-1.2-3.1-1.2-4.2,0
				l-11.6,11.5c-1.2,1.2-1.2,3.1,0,4.2c1.2,1.2,3.1,1.2,4.2,0l3.3-3.3l0,0L357.2,56c-0.9,0.9-0.9,2.4,0,3.4c0.9,0.9,2.4,0.9,3.4,0
				l-1.9,1.9c-0.9,0.9-0.9,2.4,0,3.4c0.9,0.9,2.4,0.9,3.4,0l1.9-1.9c-0.9,0.9-0.9,2.4,0,3.4c0.9,0.9,2.4,0.9,3.4,0l5.6-5.5
				c-0.9,0.9-0.9,2.4,0,3.4C373.8,65,376.1,65.3,376.7,64.9z M376.6,50.2L376.6,50.2L376.6,50.2L376.6,50.2z M373.3,46.8L373.3,46.8
				L373.3,46.8L373.3,46.8z"/>
			<path fill="#4C5561" d="M365.7,67.4c-0.7,0-1.5-0.3-2-0.8c-0.5-0.5-0.8-1.2-0.8-1.9l-0.4,0.4c-1.2,1.1-3,1.1-4.1,0
				c-1.1-1.2-1.1-3,0-4.1l0.4-0.4c-0.7,0-1.4-0.3-1.9-0.8c-1.1-1.2-1.1-3,0-4.1l7.6-7.5c-0.9,0-1.8-0.4-2.4-1c-0.6-0.6-1-1.4-1-2.3
				c0-0.9,0.4-1.9,1-2.6l11.6-11.5c0.6-0.6,1.4-1,2.3-1c0.8,0,1.6,0.2,2.2,0.7l5.1-5.1c0.1-0.1,0.2-0.1,0.4-0.1
				c0.1,0,0.3,0.1,0.4,0.1l14,14.1c0.1,0.1,0.1,0.2,0.1,0.4c0,0.1-0.1,0.3-0.1,0.4l-6.3,6.2c0.4,0.4,0.6,1,0.8,1.7
				c0.2,1.1-0.1,2.1-0.7,2.8l-14.6,14.5c0,0,0,0-0.1,0.1c-0.9,0.6-3.4,0.2-4.4-0.9c-0.5-0.5-0.8-1.2-0.8-1.9l-4.1,4
				C367.1,67.1,366.4,67.4,365.7,67.4z M364,62.3c0.1,0,0.3,0,0.4,0.1c0.2,0.2,0.2,0.5,0,0.7c-0.7,0.7-0.7,1.9,0,2.7
				c0.7,0.7,1.9,0.7,2.7,0l5.6-5.5c0.2-0.2,0.5-0.2,0.7,0c0.2,0.2,0.2,0.5,0,0.7c-0.7,0.7-0.7,1.9,0,2.7c0.6,0.7,2.6,0.9,3,0.7
				L390.9,50c0.6-0.6,0.5-1.5,0.5-1.9c-0.1-0.7-0.5-1.3-0.7-1.4c-0.1-0.1-0.2-0.2-0.3-0.4c0-0.2,0-0.3,0.1-0.4l6.3-6.2l-13.3-13.4
				l-5,5c-0.2,0.2-0.5,0.2-0.7,0c-0.5-0.5-1.2-0.8-1.8-0.8c-0.6,0-1.2,0.3-1.6,0.7l-11.6,11.5c-0.5,0.5-0.8,1.2-0.8,1.8
				c0,0.6,0.3,1.2,0.7,1.6c0.5,0.5,1.2,0.8,1.9,0.8c0.5,0,0.9-0.2,1.3-0.5l3.6-3.6c0.2-0.2,0.5-0.2,0.7,0c0.2,0.2,0.2,0.5,0,0.7
				l-3.3,3.3c-0.1,0.1-0.3,0.3-0.4,0.4l-9,8.9c-0.7,0.7-0.7,1.9,0,2.7c0.7,0.7,1.9,0.7,2.7,0c0.2-0.2,0.5-0.2,0.7,0
				c0.2,0.2,0.2,0.5,0,0.7l-1.9,1.9c-0.7,0.7-0.7,1.9,0,2.7c0.7,0.7,1.9,0.7,2.7,0l1.9-1.9l0,0l0,0C363.7,62.3,363.9,62.3,364,62.3z
				 M376.7,64.9L376.7,64.9L376.7,64.9z M376.6,50.7c-0.3,0-0.5-0.2-0.5-0.5s0.2-0.5,0.5-0.5h0c0.3,0,0.5,0.2,0.5,0.5
				S376.9,50.7,376.6,50.7z M373.3,47.3c-0.3,0-0.5-0.2-0.5-0.5s0.2-0.5,0.5-0.5h0c0.3,0,0.5,0.2,0.5,0.5S373.6,47.3,373.3,47.3z"/>
		</g>
		<g>
			<path fill="#4C5561" d="M360.6,59.9c-0.1,0-0.3-0.1-0.4-0.2c-0.2-0.2-0.2-0.5,0-0.7l8-7.8c0.2-0.2,0.5-0.2,0.7,0s0.2,0.5,0,0.7
				l-8,7.8C360.9,59.9,360.7,59.9,360.6,59.9z"/>
		</g>
		<g>
			<path fill="#4C5561" d="M363.9,63.4c-0.1,0-0.3,0-0.4-0.1c-0.2-0.2-0.2-0.5,0-0.7l8-7.9c0.2-0.2,0.5-0.2,0.7,0
				c0.2,0.2,0.2,0.5,0,0.7l-8,7.9C364.2,63.4,364,63.4,363.9,63.4z"/>
		</g>
		<g>
			<path fill="#FFFFFF" d="M373.1,32c-1.2-1.2-3.1-1.2-4.2,0l-5.4-5.4l-14,14.1l6.7,6.6c-0.9,0.9-0.8,2.4,0.1,3.3l14.6,14.5
				c0.9,0.9,2.5,0.9,3.4,0s0.9-2.5,0-3.4l5.6,5.5c0.9,0.9,2.5,0.9,3.4,0s0.9-2.5,0-3.4l1.9,1.9c0.9,0.9,2.5,0.9,3.4,0s0.9-2.5,0-3.4
				l-1.9-1.9c0.9,0.9,2.5,0.9,3.4,0s0.9-2.5,0-3.4l-12.7-12.6l0,0l3.3,3.3"/>
			<path fill="#4C5561" d="M381.6,68.4c-0.8,0-1.5-0.3-2.1-0.8l-4.1-4c0,0.7-0.3,1.4-0.8,1.9c-1.1,1.1-3,1.1-4.1,0L355.9,51
				c-1-1-1.2-2.5-0.4-3.6l-6.4-6.3c-0.1-0.1-0.1-0.2-0.1-0.4c0-0.1,0.1-0.3,0.1-0.4l14-14.1c0.1-0.1,0.2-0.1,0.4-0.1
				c0.1,0,0.3,0.1,0.4,0.1l5.1,5.1c0.6-0.4,1.2-0.7,2-0.7c0.9,0,1.9,0.4,2.6,1c0.2,0.2,0.2,0.5,0,0.7s-0.5,0.2-0.7,0
				c-0.5-0.5-1.2-0.8-1.8-0.8c-0.6,0-1.2,0.3-1.6,0.7c-0.1,0.1-0.2,0.2-0.4,0.2c-0.1,0-0.3,0-0.4-0.1l-5-5l-13.3,13.4l6.3,6.2
				c0.1,0.1,0.1,0.2,0.1,0.4s-0.1,0.3-0.1,0.4c-0.7,0.7-0.6,1.9,0.1,2.6l14.6,14.5c0.7,0.7,2,0.7,2.7,0c0.3-0.3,0.5-0.8,0.5-1.3
				c0-0.5-0.2-1-0.5-1.3c-0.2-0.2-0.2-0.5,0-0.7c0.2-0.2,0.5-0.2,0.7,0l5.6,5.5c0.7,0.7,2,0.7,2.7,0c0.7-0.7,0.7-2,0-2.7
				c-0.1-0.1-0.1-0.2-0.1-0.4s0-0.3,0.1-0.4c0.2-0.2,0.5-0.2,0.7,0l1.9,1.9c0.7,0.7,2,0.7,2.7,0c0.7-0.7,0.7-2,0-2.7l-1.9-1.9
				c-0.1-0.1-0.1-0.2-0.1-0.4s0-0.3,0.1-0.4c0.2-0.2,0.5-0.2,0.7,0c0.7,0.7,2,0.7,2.7,0c0.7-0.7,0.7-2,0-2.7l-9.3-9.2
				c0,0-0.1,0-0.1-0.1l-3.3-3.3c-0.2-0.2-0.2-0.5,0-0.7c0.2-0.2,0.5-0.2,0.7,0l0,0l12.7,12.6c1.1,1.1,1.1,3,0,4.1
				c-0.5,0.5-1.2,0.8-1.9,0.8l0.4,0.4c1.1,1.1,1.1,3,0,4.1c-1.1,1.1-3,1.1-4.1,0l-0.4-0.4c0,0.7-0.3,1.4-0.8,1.9
				C383.1,68.1,382.4,68.4,381.6,68.4z"/>
		</g>
		<g>
			<path fill="#4C5561" d="M374.2,62.3c-0.1,0-0.3-0.1-0.4-0.2l-5.5-5.9c-0.2-0.2-0.2-0.5,0-0.7c0.2-0.2,0.5-0.2,0.7,0l5.5,5.9
				c0.2,0.2,0.2,0.5,0,0.7C374.4,62.3,374.3,62.3,374.2,62.3z"/>
		</g>
		<g>
			<path fill="#4C5561" d="M383,64.2c-0.1,0-0.3-0.1-0.4-0.2l-11.1-11.6c-0.2-0.2-0.2-0.5,0-0.7c0.2-0.2,0.5-0.2,0.7,0l11.1,11.6
				c0.2,0.2,0.2,0.5,0,0.7C383.2,64.2,383.1,64.2,383,64.2z"/>
		</g>
		<g>
			<path fill="#4C5561" d="M386.5,60.9c-0.1,0-0.3-0.1-0.4-0.2L375,49.1c-0.2-0.2-0.2-0.5,0-0.7c0.2-0.2,0.5-0.2,0.7,0l11.1,11.6
				c0.2,0.2,0.2,0.5,0,0.7C386.7,60.9,386.6,60.9,386.5,60.9z"/>
		</g>
		<g>
			<path fill="#FFFFFF" d="M376.5,35.1l-5.9,5.9c-0.9,0.9-2.5,0.9-3.4,0l0,0c-0.9-0.9-0.9-2.5,0-3.4l7-7c0.9-0.9,2.5-0.9,3.4,0l0,0"
				/>
			<path fill="#4C5561" d="M368.9,42.2c-0.8,0-1.5-0.3-2.1-0.8c-0.5-0.5-0.8-1.3-0.8-2.1c0-0.8,0.3-1.5,0.8-2.1l7-7
				c1.1-1.1,3-1.1,4.1,0c0.2,0.2,0.2,0.5,0,0.7s-0.5,0.2-0.7,0c-0.7-0.7-2-0.7-2.7,0l-7,7c-0.3,0.3-0.5,0.8-0.5,1.3
				c0,0.5,0.2,1,0.5,1.3c0.7,0.7,2,0.7,2.7,0l5.9-5.9c0.2-0.2,0.5-0.2,0.7,0s0.2,0.5,0,0.7l-5.9,5.9
				C370.4,41.9,369.7,42.2,368.9,42.2z"/>
		</g>
		<g>
			<path fill="#D75352" d="M398.7,35.3l-10.8-10.8c-0.9-0.9-0.9-2.5,0-3.4l0.3-0.3c0.9-0.9,2.5-0.9,3.4,0l10.8,10.8
				c0.9,0.9,0.9,2.5,0,3.4l-0.3,0.3C401.2,36.2,399.6,36.2,398.7,35.3z"/>
			<path fill="#404751" d="M400.4,36.5c-0.8,0-1.5-0.3-2.1-0.8l-10.8-10.8c-1.1-1.1-1.1-3,0-4.1l0.3-0.3c1.1-1.1,3-1.1,4.1,0
				l10.8,10.8c1.1,1.1,1.1,3,0,4.1l-0.3,0.3C401.9,36.2,401.2,36.5,400.4,36.5z M389.9,20.6c-0.5,0-1,0.2-1.3,0.5l-0.3,0.3
				c-0.7,0.7-0.7,2,0,2.7l10.8,10.8l0,0c0.7,0.7,2,0.7,2.7,0l0.3-0.3c0.7-0.7,0.7-2,0-2.7l-10.8-10.8
				C390.9,20.8,390.4,20.6,389.9,20.6z"/>
		</g>
		<g>
			<path fill="#41ACE1" d="M349.3,36.3l10.8-10.8c0.9-0.9,0.9-2.5,0-3.4l-0.3-0.3c-0.9-0.9-2.5-0.9-3.4,0l-10.8,10.8
				c-0.9,0.9-0.9,2.5,0,3.4l0.3,0.3C346.8,37.3,348.4,37.3,349.3,36.3z"/>
			<path fill="#4C5561" d="M347.6,37.5c-0.8,0-1.5-0.3-2.1-0.9l-0.3-0.3c-1.1-1.1-1.1-3,0-4.1L356,21.4c1.1-1.1,3-1.1,4.1,0l0.3,0.3
				c1.1,1.1,1.1,3,0,4.1l-10.8,10.8C349.1,37.2,348.4,37.5,347.6,37.5z M358.1,21.6c-0.5,0-1,0.2-1.3,0.5L346,33
				c-0.7,0.7-0.7,2,0,2.7l0.3,0.3c0.7,0.8,2,0.8,2.7,0c0,0,0,0,0,0l10.8-10.8c0.7-0.7,0.7-2,0-2.7l-0.3-0.3
				C359.1,21.8,358.6,21.6,358.1,21.6z"/>
		</g>
	</g>
</g>
<g id="secure">
	<g>
		<path fill="#FFFFFF" d="M455.5,41L455.5,41c0-3.8-3-6.8-6.7-6.8c-1,0-1.9,0.2-2.8,0.6c-1.7-2.9-4.8-4.9-8.5-4.9
			c-5.4,0-9.7,4.3-9.7,9.7c0,0.5,0,0.9,0.1,1.4h-0.8c-3.8,0-7,3.1-7,7v0.9c0,3.8,3.1,7,7,7h27.5c3.8,0,7-3.1,7-7V48
			C461.6,44.4,458.9,41.4,455.5,41z"/>
		<path fill="#4C5561" d="M454.6,56.4h-27.5c-4.1,0-7.5-3.4-7.5-7.5V48c0-4.1,3.4-7.5,7.5-7.5h0.2c0-0.3,0-0.6,0-0.9
			c0-5.7,4.5-10.2,10.2-10.2c3.6,0,6.8,1.8,8.7,4.8c0.8-0.3,1.7-0.5,2.6-0.5c3.8,0,7,3,7.2,6.9c3.5,0.6,6.1,3.7,6.1,7.4v0.9
			C462.1,53,458.7,56.4,454.6,56.4z M427.1,41.5c-3.6,0-6.5,2.9-6.5,6.5v0.9c0,3.6,2.9,6.5,6.5,6.5h27.5c3.6,0,6.5-2.9,6.5-6.5V48
			c0-3.3-2.5-6.1-5.7-6.5c-0.3,0-0.4-0.2-0.4-0.5c0-3.5-2.8-6.3-6.2-6.3c-0.9,0-1.7,0.2-2.6,0.6c-0.2,0.1-0.5,0-0.6-0.2
			c-1.7-2.9-4.7-4.7-8.1-4.7c-5.2,0-9.2,4-9.2,9.2c0,0.5,0,0.9,0.1,1.3c0,0.1,0,0.3-0.1,0.4c-0.1,0.1-0.2,0.2-0.4,0.2H427.1z
			 M456,41L456,41L456,41z"/>
	</g>
	<g>
		<path fill="#E6BC45" d="M436.1,49.8c0,0-2.3,10.9,7,13.7c0,0,7.7-1.6,6.8-13.5l-6.8-2.7L436.1,49.8z"/>
		<path fill="#404751" d="M443.1,64c0,0-0.1,0-0.1,0c-9.6-2.9-7.4-14.2-7.3-14.3c0-0.2,0.2-0.3,0.3-0.4l7-2.5c0.1,0,0.2,0,0.4,0
			l6.8,2.7c0.2,0.1,0.3,0.2,0.3,0.4c0.9,12.2-7.1,14-7.2,14C443.2,64,443.1,64,443.1,64z M436.5,50.2c-0.3,1.7-1.3,10.3,6.6,12.8
			c1-0.3,7-2.3,6.3-12.6l-6.3-2.5L436.5,50.2z"/>
	</g>
	<g>
		<polyline fill="#E6BC45" points="439.9,54.9 441.1,56.8 445.9,53.6 		"/>
		<path fill="#404751" d="M441.1,57.3c0,0-0.1,0-0.1,0c-0.1,0-0.2-0.1-0.3-0.2l-1.2-1.9c-0.1-0.2-0.1-0.5,0.2-0.7
			c0.2-0.1,0.5-0.1,0.7,0.2l0.9,1.5l4.4-2.9c0.2-0.2,0.5-0.1,0.7,0.1c0.2,0.2,0.1,0.5-0.1,0.7l-4.8,3.2
			C441.3,57.3,441.2,57.3,441.1,57.3z"/>
	</g>
	<g>
		<path fill="#4C5561" d="M420.2,49.9h-7.1c-0.3,0-0.5-0.2-0.5-0.5s0.2-0.5,0.5-0.5h7.1c0.3,0,0.5,0.2,0.5,0.5
			S420.5,49.9,420.2,49.9z"/>
	</g>
	<g>
		<g>
			<path fill="#41ACE1" d="M412.6,51.8c-0.2,0-0.5,0-0.7-0.1c-0.8-0.2-1.4-0.9-1.6-1.7c-0.1-0.2-0.1-0.4-0.1-0.6
				c0-1.3,1.1-2.4,2.4-2.4c0.3,0,0.6,0.1,0.9,0.2c0.7,0.3,1.2,0.9,1.4,1.6c0.1,0.2,0.1,0.4,0.1,0.6C415,50.8,413.9,51.8,412.6,51.8z
				"/>
		</g>
		<g>
			<path fill="#4C5561" d="M412.6,47.5c0.3,0,0.5,0,0.7,0.1c0.6,0.2,1,0.7,1.1,1.3c0,0.2,0.1,0.3,0.1,0.5c0,1.1-0.9,1.9-1.9,1.9
				c-0.2,0-0.4,0-0.6-0.1c-0.6-0.2-1.1-0.7-1.3-1.3c0-0.2-0.1-0.3-0.1-0.5C410.7,48.4,411.6,47.5,412.6,47.5 M412.6,46.5
				c-1.6,0-2.9,1.3-2.9,2.9c0,0.3,0,0.5,0.1,0.7c0.3,1,1,1.8,2,2c0.3,0.1,0.6,0.1,0.8,0.1c1.6,0,2.9-1.3,2.9-2.9
				c0-0.3,0-0.5-0.1-0.8c-0.2-0.9-0.9-1.6-1.7-1.9C413.3,46.6,413,46.5,412.6,46.5L412.6,46.5z"/>
		</g>
	</g>
	<g>
		<path fill="#4C5561" d="M422.8,42.8c-0.3,0-0.5-0.2-0.5-0.5v-4.4c0-0.3,0.2-0.5,0.5-0.5s0.5,0.2,0.5,0.5v4.4
			C423.3,42.6,423.1,42.8,422.8,42.8z"/>
	</g>
	<g>
		<path fill="#D75352" d="M422.8,39.3c-1.1,0-1.9-0.9-1.9-1.9c0-0.2,0-0.4,0.1-0.6c0.2-0.6,0.7-1.1,1.3-1.3c0.2,0,0.3-0.1,0.5-0.1
			c1.1,0,1.9,0.9,1.9,1.9c0,0.3,0,0.5-0.1,0.7c-0.2,0.6-0.7,1-1.3,1.1C423.1,39.3,423,39.3,422.8,39.3z"/>
		<path fill="#404751" d="M422.8,39.8c-1.3,0-2.4-1.1-2.4-2.4c0-0.2,0-0.5,0.2-0.8c0.2-0.7,0.8-1.3,1.6-1.6c0.1,0,0.1,0,0.2,0
			c0.2-0.1,0.3-0.1,0.5-0.1c1.3,0,2.4,1.1,2.4,2.4c0,0.3,0,0.6-0.2,0.9c-0.2,0.7-0.8,1.2-1.5,1.3C423.3,39.8,423.1,39.8,422.8,39.8z
			 M422.4,36c-0.4,0.2-0.8,0.5-0.9,1c-0.1,0.2-0.1,0.3-0.1,0.4c0,0.7,0.5,1.4,1.4,1.4c0,0,0.1,0,0.1,0c0.1-0.1,0.2-0.2,0.3-0.2
			c0.4-0.1,0.8-0.4,0.9-0.8c0.1-0.2,0.1-0.3,0.1-0.5c0-0.7-0.5-1.4-1.4-1.4C422.7,35.9,422.5,36,422.4,36z"/>
	</g>
	<g>
		<path fill="#4C5561" d="M452,35.5c-0.3,0-0.5-0.2-0.5-0.5v-7.1c0-0.3,0.2-0.5,0.5-0.5s0.5,0.2,0.5,0.5V35
			C452.5,35.3,452.3,35.5,452,35.5z"/>
	</g>
	<g>
		<g>
			<path fill="#41ACE1" d="M452,29.8c-0.2,0-0.4,0-0.6-0.1c-0.7-0.2-1.3-0.7-1.6-1.4c-0.1-0.3-0.2-0.6-0.2-0.9
				c0-1.3,1.1-2.4,2.4-2.4c0.2,0,0.4,0,0.6,0.1c0.8,0.2,1.5,0.8,1.7,1.6c0.1,0.2,0.1,0.5,0.1,0.7C454.4,28.7,453.3,29.8,452,29.8z"
				/>
		</g>
		<g>
			<path fill="#4C5561" d="M452,25.5c0.2,0,0.3,0,0.5,0.1c0.6,0.2,1.1,0.7,1.3,1.3c0.1,0.2,0.1,0.4,0.1,0.6c0,1.1-0.9,1.9-1.9,1.9
				c-0.2,0-0.3,0-0.5-0.1c-0.6-0.2-1.1-0.6-1.3-1.1c-0.1-0.2-0.1-0.5-0.1-0.7C450.1,26.4,450.9,25.5,452,25.5 M452,24.5
				c-1.6,0-2.9,1.3-2.9,2.9c0,0.4,0.1,0.7,0.2,1.1c0.3,0.8,1.1,1.5,1.9,1.7c0.2,0.1,0.5,0.1,0.8,0.1c1.6,0,2.9-1.3,2.9-2.9
				c0-0.3,0-0.6-0.1-0.8c-0.3-1-1.1-1.7-2-2C452.5,24.5,452.2,24.5,452,24.5L452,24.5z"/>
		</g>
	</g>
	<g>
		<path fill="#4C5561" d="M466.5,50.3h-5c-0.3,0-0.5-0.2-0.5-0.5s0.2-0.5,0.5-0.5h5c0.3,0,0.5,0.2,0.5,0.5S466.8,50.3,466.5,50.3z"
			/>
	</g>
	<g>
		<path fill="#D75352" d="M465.1,49.8c0,1.1,0.9,1.9,1.9,1.9c0.2,0,0.4,0,0.6-0.1c0.6-0.2,1.1-0.7,1.3-1.3c0-0.2,0.1-0.3,0.1-0.5
			c0-1.1-0.9-1.9-1.9-1.9c-0.3,0-0.5,0-0.7,0.1c-0.6,0.2-1,0.7-1.1,1.3C465.2,49.4,465.1,49.6,465.1,49.8z"/>
		<path fill="#404751" d="M467,52.2c-1.3,0-2.4-1.1-2.4-2.4c0-0.2,0.1-0.5,0.2-0.7c0.2-0.7,0.7-1.3,1.4-1.6c0.2-0.1,0.5-0.1,0.9-0.1
			c1.3,0,2.4,1.1,2.4,2.4c0,0.2,0,0.3-0.1,0.4c0,0.1,0,0.2,0,0.2c-0.2,0.7-0.9,1.4-1.6,1.6C467.5,52.2,467.2,52.2,467,52.2z
			 M467.1,48.4c-0.3,0-0.4,0-0.5,0c-0.5,0.2-0.8,0.5-0.8,0.9c0,0.1-0.1,0.2-0.1,0.3c0,0-0.1,0.1-0.1,0.1c0,0.9,0.7,1.4,1.4,1.4
			c0.2,0,0.3,0,0.4,0c0.5-0.2,0.9-0.5,1-1c0-0.1,0-0.2,0.1-0.3C468.5,48.9,467.8,48.4,467.1,48.4z"/>
	</g>
</g>
<g id="scalable">
	<g>
		<g>
			<g>
				<rect x="490.3" y="22" fill="#FFFFFF" width="38.2" height="38.2"/>
			</g>
			<g>
				<g>
					<path fill="#4C5561" d="M528.4,60.7h-5.5c-0.3,0-0.5-0.2-0.5-0.5s0.2-0.5,0.5-0.5h5v-5c0-0.3,0.2-0.5,0.5-0.5s0.5,0.2,0.5,0.5
						v5.5C528.9,60.5,528.6,60.7,528.4,60.7z"/>
				</g>
				<g>
					<path fill="#4C5561" d="M518.3,60.7H511c-0.3,0-0.5-0.2-0.5-0.5s0.2-0.5,0.5-0.5h7.4c0.3,0,0.5,0.2,0.5,0.5
						S518.6,60.7,518.3,60.7z M506,60.7h-7.4c-0.3,0-0.5-0.2-0.5-0.5s0.2-0.5,0.5-0.5h7.4c0.3,0,0.5,0.2,0.5,0.5
						S506.3,60.7,506,60.7z"/>
				</g>
				<g>
					<path fill="#4C5561" d="M495.8,60.7h-5.5c-0.3,0-0.5-0.2-0.5-0.5v-5.5c0-0.3,0.2-0.5,0.5-0.5s0.5,0.2,0.5,0.5v5h5
						c0.3,0,0.5,0.2,0.5,0.5S496,60.7,495.8,60.7z"/>
				</g>
				<g>
					<path fill="#4C5561" d="M490.3,50.7c-0.3,0-0.5-0.2-0.5-0.5v-7.4c0-0.3,0.2-0.5,0.5-0.5s0.5,0.2,0.5,0.5v7.4
						C490.8,50.5,490.5,50.7,490.3,50.7z M490.3,38.4c-0.3,0-0.5-0.2-0.5-0.5v-7.4c0-0.3,0.2-0.5,0.5-0.5s0.5,0.2,0.5,0.5v7.4
						C490.8,38.2,490.5,38.4,490.3,38.4z"/>
				</g>
				<g>
					<path fill="#4C5561" d="M490.3,28c-0.3,0-0.5-0.2-0.5-0.5V22c0-0.3,0.2-0.5,0.5-0.5h5.5c0.3,0,0.5,0.2,0.5,0.5
						s-0.2,0.5-0.5,0.5h-5v5C490.8,27.8,490.5,28,490.3,28z"/>
				</g>
				<g>
					<path fill="#4C5561" d="M520,22.5h-7.4c-0.3,0-0.5-0.2-0.5-0.5s0.2-0.5,0.5-0.5h7.4c0.3,0,0.5,0.2,0.5,0.5S520.3,22.5,520,22.5
						z M507.7,22.5h-7.4c-0.3,0-0.5-0.2-0.5-0.5s0.2-0.5,0.5-0.5h7.4c0.3,0,0.5,0.2,0.5,0.5S507.9,22.5,507.7,22.5z"/>
				</g>
				<g>
					<path fill="#4C5561" d="M528.4,28c-0.3,0-0.5-0.2-0.5-0.5v-5h-5c-0.3,0-0.5-0.2-0.5-0.5s0.2-0.5,0.5-0.5h5.5
						c0.3,0,0.5,0.2,0.5,0.5v5.5C528.9,27.8,528.6,28,528.4,28z"/>
				</g>
				<g>
					<path fill="#4C5561" d="M528.4,52.3c-0.3,0-0.5-0.2-0.5-0.5v-7.4c0-0.3,0.2-0.5,0.5-0.5s0.5,0.2,0.5,0.5v7.4
						C528.9,52.1,528.6,52.3,528.4,52.3z M528.4,40c-0.3,0-0.5-0.2-0.5-0.5v-7.4c0-0.3,0.2-0.5,0.5-0.5s0.5,0.2,0.5,0.5v7.4
						C528.9,39.8,528.6,40,528.4,40z"/>
				</g>
			</g>
		</g>
		<g>
			<g>
				<path fill="#4C5561" d="M503.1,49.5c-0.3,0-0.5-0.1-0.7-0.3c-0.4-0.4-0.4-1,0-1.4l14-14c0.4-0.4,1-0.4,1.4,0
					c0.4,0.4,0.4,1,0,1.4l-14,14C503.6,49.4,503.4,49.5,503.1,49.5z"/>
			</g>
			<g>
				<path fill="#4C5561" d="M517.4,43.5c-0.5,0-1-0.4-1-1l-0.2-7.4l-7-0.2c-0.6,0-1-0.5-1-1s0.4-1,1-1l8,0.3c0.5,0,1,0.4,1,1
					l0.2,8.4C518.4,43,518,43.5,517.4,43.5C517.4,43.5,517.4,43.5,517.4,43.5z"/>
			</g>
		</g>
		<g>
			<rect x="483.6" y="46.3" fill="#41ACE1" width="21.7" height="21.7"/>
			<path fill="#4C5561" d="M505.2,68.4h-21.7c-0.3,0-0.5-0.2-0.5-0.5V46.3c0-0.3,0.2-0.5,0.5-0.5h21.7c0.3,0,0.5,0.2,0.5,0.5v21.7
				C505.7,68.2,505.5,68.4,505.2,68.4z M484.1,67.4h20.7V46.8h-20.7V67.4z"/>
		</g>
		<g>
			<rect x="483.6" y="53.5" fill="#E6BC45" width="14.5" height="14.5"/>
			<path fill="#4C5561" d="M498.1,68.5h-14.5c-0.3,0-0.5-0.2-0.5-0.5V53.5c0-0.3,0.2-0.5,0.5-0.5h14.5c0.3,0,0.5,0.2,0.5,0.5V68
				C498.6,68.3,498.3,68.5,498.1,68.5z M484.1,67.5h13.5V54h-13.5V67.5z"/>
		</g>
		<g>
			<rect x="483.6" y="61.3" fill="#D75352" width="6.6" height="6.6"/>
			<path fill="#4C5561" d="M490.2,68.4h-6.6c-0.3,0-0.5-0.2-0.5-0.5v-6.6c0-0.3,0.2-0.5,0.5-0.5h6.6c0.3,0,0.5,0.2,0.5,0.5v6.6
				C490.7,68.2,490.4,68.4,490.2,68.4z M484.1,67.4h5.6v-5.6h-5.6V67.4z"/>
		</g>
	</g>
</g>
<g id="indication">
	<g>
		<g>
			<path fill="#D75352" d="M549.7,26.2c-0.3,0-0.5-0.2-0.5-0.5v-8.4c0-0.3,0.2-0.5,0.5-0.5s0.5,0.2,0.5,0.5v8.4
				C550.2,26,550,26.2,549.7,26.2z"/>
		</g>
		<g>
			<path fill="#D75352" d="M553.9,22h-8.4c-0.3,0-0.5-0.2-0.5-0.5s0.2-0.5,0.5-0.5h8.4c0.3,0,0.5,0.2,0.5,0.5S554.2,22,553.9,22z"/>
		</g>
		<g>
			<circle fill="#FFFFFF" cx="549.7" cy="21.4" r="2.8"/>
			<path fill="#D75352" d="M549.7,24.7c-1.8,0-3.3-1.5-3.3-3.3c0-1.8,1.5-3.3,3.3-3.3c1.8,0,3.3,1.5,3.3,3.3
				C553,23.2,551.5,24.7,549.7,24.7z M549.7,19.1c-1.3,0-2.3,1-2.3,2.3c0,1.3,1,2.3,2.3,2.3c1.3,0,2.3-1,2.3-2.3
				C552,20.1,551,19.1,549.7,19.1z"/>
		</g>
		<g>
			<circle fill="#D75352" cx="549.7" cy="21.4" r="1.3"/>
		</g>
	</g>
	<g>
		<g>
			<path fill="#D75352" d="M589.3,68.9c-0.3,0-0.5-0.2-0.5-0.5V60c0-0.3,0.2-0.5,0.5-0.5s0.5,0.2,0.5,0.5v8.4
				C589.8,68.7,589.6,68.9,589.3,68.9z"/>
		</g>
		<g>
			<path fill="#D75352" d="M593.6,64.7h-8.4c-0.3,0-0.5-0.2-0.5-0.5s0.2-0.5,0.5-0.5h8.4c0.3,0,0.5,0.2,0.5,0.5
				S593.9,64.7,593.6,64.7z"/>
		</g>
		<g>
			<circle fill="#FFFFFF" cx="589.3" cy="64.1" r="2.8"/>
			<path fill="#D75352" d="M589.3,67.4c-1.8,0-3.3-1.5-3.3-3.3c0-1.8,1.5-3.3,3.3-3.3c1.8,0,3.3,1.5,3.3,3.3
				C592.6,65.9,591.1,67.4,589.3,67.4z M589.3,61.8c-1.3,0-2.3,1-2.3,2.3c0,1.3,1,2.3,2.3,2.3c1.3,0,2.3-1,2.3-2.3
				C591.6,62.8,590.6,61.8,589.3,61.8z"/>
		</g>
		<g>
			<circle fill="#D75352" cx="589.3" cy="64.1" r="1.3"/>
		</g>
	</g>
	<g>
		<g>
			<path fill="#D75352" d="M595.5,38.9c-0.3,0-0.5-0.2-0.5-0.5v-7.1c0-0.3,0.2-0.5,0.5-0.5s0.5,0.2,0.5,0.5v7.1
				C596,38.7,595.8,38.9,595.5,38.9z"/>
		</g>
		<g>
			<path fill="#D75352" d="M599.1,35.3h-7.2c-0.3,0-0.5-0.2-0.5-0.5s0.2-0.5,0.5-0.5h7.2c0.3,0,0.5,0.2,0.5,0.5
				S599.4,35.3,599.1,35.3z"/>
		</g>
		<g>
			<circle fill="#FFFFFF" cx="595.5" cy="34.8" r="2.4"/>
			<path fill="#D75352" d="M595.5,37.7c-1.6,0-2.9-1.3-2.9-2.9s1.3-2.9,2.9-2.9s2.9,1.3,2.9,2.9S597.1,37.7,595.5,37.7z M595.5,32.9
				c-1,0-1.9,0.9-1.9,1.9s0.9,1.9,1.9,1.9s1.9-0.9,1.9-1.9S596.5,32.9,595.5,32.9z"/>
		</g>
		<g>
			<circle fill="#D75352" cx="595.5" cy="34.8" r="1.1"/>
		</g>
	</g>
	<g>
		<g>
			<path fill="#4C5561" d="M554.2,71.1C554.2,71.1,554.1,71.1,554.2,71.1c-0.4-0.1-0.5-0.3-0.5-0.6l5.6-28.8
				c0.1-0.3,0.3-0.5,0.6-0.4c0.3,0.1,0.4,0.3,0.4,0.6l-5.6,28.8C554.6,70.9,554.4,71.1,554.2,71.1z"/>
		</g>
		<g>
			<path fill="#4C5561" d="M567.6,71.1c-0.2,0-0.4-0.2-0.5-0.4l-5.6-28.8c-0.1-0.3,0.1-0.5,0.4-0.6c0.3-0.1,0.5,0.1,0.6,0.4
				l5.6,28.8C568.1,70.8,568,71,567.6,71.1C567.7,71.1,567.6,71.1,567.6,71.1z"/>
		</g>
		<g>
			<circle fill="#E6BC45" cx="560.8" cy="39.4" r="2.7"/>
			<path fill="#4C5561" d="M560.8,42.6c-1.8,0-3.2-1.4-3.2-3.2c0-1.8,1.4-3.2,3.2-3.2c1.8,0,3.2,1.4,3.2,3.2
				C564,41.2,562.6,42.6,560.8,42.6z M560.8,37.2c-1.2,0-2.2,1-2.2,2.2c0,1.2,1,2.2,2.2,2.2c1.2,0,2.2-1,2.2-2.2
				C563,38.2,562,37.2,560.8,37.2z"/>
		</g>
		<g>
			<circle fill="#E6BC45" cx="560.8" cy="32.2" r="1.3"/>
			<path fill="#4C5561" d="M560.8,34c-1,0-1.8-0.8-1.8-1.8c0-1,0.8-1.8,1.8-1.8c1,0,1.8,0.8,1.8,1.8C562.6,33.2,561.8,34,560.8,34z
				 M560.8,31.4c-0.4,0-0.8,0.4-0.8,0.8c0,0.4,0.4,0.8,0.8,0.8c0.4,0,0.8-0.4,0.8-0.8C561.6,31.8,561.2,31.4,560.8,31.4z"/>
		</g>
		<g>
			<path fill="#4C5561" d="M560.8,36.9c-0.3,0-0.5-0.2-0.5-0.5v-2.5c0-0.3,0.2-0.5,0.5-0.5s0.5,0.2,0.5,0.5v2.5
				C561.3,36.7,561.1,36.9,560.8,36.9z"/>
		</g>
		<g>
			<path fill="#4C5561" d="M564.8,57.3c-0.1,0-0.3-0.1-0.4-0.2l-6.3-6.7c-0.2-0.2-0.2-0.5,0-0.7c0.2-0.2,0.5-0.2,0.7,0l6.3,6.7
				c0.2,0.2,0.2,0.5,0,0.7C565,57.3,564.9,57.3,564.8,57.3z"/>
		</g>
		<g>
			<path fill="#4C5561" d="M556.6,58.7c-0.1,0-0.2,0-0.3-0.1c-0.2-0.2-0.2-0.5-0.1-0.7l6.7-8.1c0.2-0.2,0.5-0.2,0.7-0.1
				c0.2,0.2,0.2,0.5,0.1,0.7l-6.7,8.1C556.9,58.6,556.7,58.7,556.6,58.7z"/>
		</g>
	</g>
	<g>
		<path fill="#4C5561" d="M577.1,71.6h-27.5c-0.3,0-0.5-0.2-0.5-0.5s0.2-0.5,0.5-0.5h27.5c0.3,0,0.5,0.2,0.5,0.5
			S577.4,71.6,577.1,71.6z"/>
	</g>
	<g>
		<path fill="#4C5561" d="M579.9,71.6h-1c-0.3,0-0.5-0.2-0.5-0.5s0.2-0.5,0.5-0.5h1c0.3,0,0.5,0.2,0.5,0.5S580.2,71.6,579.9,71.6z"
			/>
	</g>
	<g>
		<g>
			<path fill="#3FA9F5" d="M557.4,33.6c-0.1,0-0.2,0-0.3-0.1c-0.1-0.1-0.7-0.6-0.7-1.6c0-0.9,0.6-1.5,0.6-1.6c0.2-0.2,0.5-0.2,0.7,0
				c0.2,0.2,0.2,0.5,0,0.7c0,0-0.4,0.4-0.4,0.8c0,0.5,0.3,0.8,0.3,0.8c0.2,0.2,0.3,0.5,0.1,0.7C557.7,33.5,557.5,33.6,557.4,33.6z"
				/>
		</g>
		<g>
			<path fill="#3FA9F5" d="M555.6,34.3c-0.1,0-0.2,0-0.3-0.1c0,0-1-0.8-1-2.2c0-1.4,0.9-2.2,1-2.3c0.2-0.2,0.5-0.2,0.7,0
				c0.2,0.2,0.2,0.5,0,0.7c0,0-0.6,0.6-0.6,1.5c0,0.9,0.6,1.4,0.6,1.4c0.2,0.2,0.3,0.5,0.1,0.7C555.9,34.2,555.8,34.3,555.6,34.3z"
				/>
		</g>
		<g>
			<path fill="#3FA9F5" d="M553.8,34.9c-0.1,0-0.2,0-0.3-0.1c-0.1,0-1.3-1-1.3-2.9c0-1.8,1.2-2.9,1.3-3c0.2-0.2,0.5-0.2,0.7,0
				s0.2,0.5,0,0.7l0,0c0,0-0.9,0.9-0.9,2.2c0,1.4,0.9,2.1,0.9,2.1c0.2,0.2,0.3,0.5,0.1,0.7C554.1,34.8,554,34.9,553.8,34.9z"/>
		</g>
	</g>
	<g>
		<g>
			<path fill="#3FA9F5" d="M564.3,33.6c-0.1,0-0.3-0.1-0.4-0.2c-0.2-0.2-0.1-0.5,0.1-0.7c0,0,0.3-0.3,0.3-0.8c0-0.5-0.4-0.8-0.4-0.8
				c-0.2-0.2-0.2-0.5,0-0.7c0.2-0.2,0.5-0.2,0.7,0c0.1,0.1,0.6,0.7,0.6,1.6c0,1-0.6,1.5-0.7,1.6C564.5,33.6,564.4,33.6,564.3,33.6z"
				/>
		</g>
		<g>
			<path fill="#3FA9F5" d="M566.1,34.3c-0.2,0-0.3-0.1-0.4-0.2c-0.2-0.2-0.1-0.5,0.1-0.7c0,0,0.6-0.5,0.6-1.4c0-0.9-0.6-1.5-0.6-1.5
				c-0.2-0.2-0.2-0.5,0-0.7c0.2-0.2,0.5-0.2,0.7,0c0,0,1,0.9,1,2.3c0,1.4-1,2.2-1,2.2C566.3,34.3,566.2,34.3,566.1,34.3z"/>
		</g>
		<g>
			<path fill="#3FA9F5" d="M567.9,34.9c-0.2,0-0.3-0.1-0.4-0.2c-0.2-0.2-0.1-0.5,0.1-0.7c0,0,0.9-0.7,0.9-2.1c0-1.4-0.9-2.2-0.9-2.2
				c-0.2-0.2-0.2-0.5,0-0.7c0.2-0.2,0.5-0.2,0.7,0c0.1,0,1.3,1.2,1.3,3c0,1.9-1.3,2.9-1.3,2.9C568.1,34.9,568,34.9,567.9,34.9z"/>
		</g>
	</g>
	<g>
		<g>
			<path fill="#3FA9F5" d="M580.5,25.5c-0.1,0-0.2,0-0.3-0.1c-0.1-0.1-0.7-0.6-0.7-1.6c0-0.9,0.6-1.5,0.6-1.6c0.2-0.2,0.5-0.2,0.7,0
				c0.2,0.2,0.2,0.5,0,0.7c0,0-0.4,0.4-0.4,0.8c0,0.5,0.3,0.8,0.3,0.8c0.2,0.2,0.2,0.5,0.1,0.7C580.8,25.5,580.6,25.5,580.5,25.5z"
				/>
		</g>
		<g>
			<path fill="#3FA9F5" d="M578.7,26.2c-0.1,0-0.2,0-0.3-0.1c0,0-1-0.8-1-2.2c0-1.4,0.9-2.2,1-2.3c0.2-0.2,0.5-0.2,0.7,0
				c0.2,0.2,0.2,0.5,0,0.7c0,0-0.6,0.6-0.6,1.5c0,0.9,0.6,1.4,0.6,1.4c0.2,0.2,0.3,0.5,0.1,0.7C579,26.2,578.9,26.2,578.7,26.2z"/>
		</g>
		<g>
			<path fill="#3FA9F5" d="M576.9,26.8c-0.1,0-0.2,0-0.3-0.1c-0.1,0-1.3-1-1.3-2.9c0-1.8,1.2-2.9,1.3-3c0.2-0.2,0.5-0.2,0.7,0
				c0.2,0.2,0.2,0.5,0,0.7l0,0c0,0-0.9,0.9-0.9,2.2c0,1.4,0.9,2.1,0.9,2.1c0.2,0.2,0.3,0.5,0.1,0.7
				C577.2,26.8,577.1,26.8,576.9,26.8z"/>
		</g>
	</g>
	<g>
		<g>
			<path fill="#3FA9F5" d="M587.3,25.5c-0.1,0-0.3-0.1-0.4-0.2c-0.2-0.2-0.1-0.5,0.1-0.7c0,0,0.3-0.3,0.3-0.8c0-0.5-0.4-0.8-0.4-0.8
				c-0.2-0.2-0.2-0.5,0-0.7s0.5-0.2,0.7,0c0.1,0.1,0.6,0.7,0.6,1.6c0,1-0.6,1.5-0.7,1.6C587.5,25.5,587.4,25.5,587.3,25.5z"/>
		</g>
		<g>
			<path fill="#3FA9F5" d="M589.1,26.2c-0.2,0-0.3-0.1-0.4-0.2c-0.2-0.2-0.1-0.5,0.1-0.7c0,0,0.6-0.5,0.6-1.4c0-0.9-0.6-1.5-0.6-1.5
				c-0.2-0.2-0.2-0.5,0-0.7c0.2-0.2,0.5-0.2,0.7,0c0,0,1,0.9,1,2.3c0,1.4-1,2.2-1,2.2C589.3,26.2,589.2,26.2,589.1,26.2z"/>
		</g>
		<g>
			<path fill="#3FA9F5" d="M590.9,26.8c-0.2,0-0.3-0.1-0.4-0.2c-0.2-0.2-0.1-0.5,0.1-0.7l0,0c0,0,0.9-0.7,0.9-2.1
				c0-1.4-0.9-2.2-0.9-2.2c-0.2-0.2-0.2-0.5,0-0.7c0.2-0.2,0.5-0.2,0.7,0c0.1,0,1.3,1.2,1.3,3c0,1.9-1.3,2.9-1.3,2.9
				C591.1,26.8,591,26.8,590.9,26.8z"/>
		</g>
	</g>
	<g>
		<g>
			<path fill="#4C5561" d="M579,52.7C579,52.7,578.9,52.7,579,52.7c-0.4-0.1-0.5-0.3-0.5-0.6l4.1-21.3c0.1-0.3,0.3-0.4,0.6-0.4
				c0.3,0.1,0.4,0.3,0.4,0.6l-4.1,21.3C579.4,52.5,579.2,52.7,579,52.7z"/>
		</g>
		<g>
			<path fill="#4C5561" d="M588.8,52.7c-0.2,0-0.4-0.2-0.5-0.4L584.2,31c-0.1-0.3,0.1-0.5,0.4-0.6c0.3-0.1,0.5,0.1,0.6,0.4l4.1,21.3
				C589.3,52.4,589.2,52.6,588.8,52.7C588.9,52.7,588.8,52.7,588.8,52.7z"/>
		</g>
		<g>
			<circle fill="#E6BC45" cx="583.8" cy="29.1" r="2"/>
			<path fill="#4C5561" d="M583.8,31.6c-1.4,0-2.5-1.1-2.5-2.5s1.1-2.5,2.5-2.5s2.5,1.1,2.5,2.5S585.2,31.6,583.8,31.6z M583.8,27.6
				c-0.8,0-1.5,0.7-1.5,1.5s0.7,1.5,1.5,1.5s1.5-0.7,1.5-1.5S584.6,27.6,583.8,27.6z"/>
		</g>
		<g>
			<circle fill="#E6BC45" cx="583.8" cy="23.8" r="0.9"/>
			<path fill="#4C5561" d="M583.8,25.2c-0.8,0-1.4-0.6-1.4-1.4s0.6-1.4,1.4-1.4s1.4,0.6,1.4,1.4S584.6,25.2,583.8,25.2z M583.8,23.4
				c-0.2,0-0.4,0.2-0.4,0.4s0.2,0.4,0.4,0.4s0.4-0.2,0.4-0.4S584,23.4,583.8,23.4z"/>
		</g>
		<g>
			<path fill="#4C5561" d="M583.8,27.4c-0.3,0-0.5-0.2-0.5-0.5V25c0-0.3,0.2-0.5,0.5-0.5s0.5,0.2,0.5,0.5v1.9
				C584.3,27.2,584.1,27.4,583.8,27.4z"/>
		</g>
		<g>
			<path fill="#4C5561" d="M586.8,42.4c-0.1,0-0.3-0.1-0.4-0.2l-4.7-4.9c-0.2-0.2-0.2-0.5,0-0.7s0.5-0.2,0.7,0l4.7,4.9
				c0.2,0.2,0.2,0.5,0,0.7C587,42.4,586.9,42.4,586.8,42.4z"/>
		</g>
		<g>
			<path fill="#4C5561" d="M580.8,43.4c-0.1,0-0.2,0-0.3-0.1c-0.2-0.2-0.2-0.5-0.1-0.7l4.9-5.9c0.2-0.2,0.5-0.2,0.7-0.1
				c0.2,0.2,0.2,0.5,0.1,0.7l-4.9,5.9C581.1,43.3,580.9,43.4,580.8,43.4z"/>
		</g>
	</g>
	<g>
		<path fill="#4C5561" d="M592.4,52.9h-18c-0.3,0-0.5-0.2-0.5-0.5s0.2-0.5,0.5-0.5h18c0.3,0,0.5,0.2,0.5,0.5S592.7,52.9,592.4,52.9z
			"/>
	</g>
</g>
<g id="manage">
	<g>
		<path fill="#4C5561" d="M658,72.5h-41.6c-1.4,0-2.5-1.1-2.5-2.5V22.6c0-1.4,1.1-2.5,2.5-2.5h0.7c0.3,0,0.5,0.2,0.5,0.5
			s-0.2,0.5-0.5,0.5h-0.7c-0.8,0-1.5,0.7-1.5,1.5V70c0,0.8,0.7,1.5,1.5,1.5H658c0.8,0,1.5-0.7,1.5-1.5v-0.8c0-0.3,0.2-0.5,0.5-0.5
			s0.5,0.2,0.5,0.5V70C660.5,71.4,659.4,72.5,658,72.5z"/>
	</g>
	<g>
		<g>
			<path fill="#4C5561" d="M660.3,69.6h-41.1c-1.4,0-2.5-1.1-2.5-2.5V18c0-1.4,1.1-2.5,2.5-2.5h41.1c1.4,0,2.5,1.1,2.5,2.5v34.7
				c0,0.3-0.2,0.5-0.5,0.5s-0.5-0.2-0.5-0.5V18c0-0.8-0.7-1.5-1.5-1.5h-41.1c-0.8,0-1.5,0.7-1.5,1.5v49.1c0,0.8,0.7,1.5,1.5,1.5
				h41.1c0.8,0,1.5-0.7,1.5-1.5v-4.9c0-0.3,0.2-0.5,0.5-0.5s0.5,0.2,0.5,0.5v4.9C662.8,68.5,661.7,69.6,660.3,69.6z"/>
		</g>
		<g>
			<path fill="#4C5561" d="M662.2,60.1c-0.3,0-0.5-0.2-0.5-0.5v-3.8c0-0.3,0.2-0.5,0.5-0.5s0.5,0.2,0.5,0.5v3.8
				C662.7,59.9,662.5,60.1,662.2,60.1z"/>
		</g>
	</g>
	<g>
		<path fill="#4C5561" d="M625.9,31.5c-2.2,0-4-1.8-4-4s1.8-4,4-4s4,1.8,4,4S628.1,31.5,625.9,31.5z M625.9,24.5c-1.7,0-3,1.3-3,3
			s1.3,3,3,3s3-1.3,3-3S627.6,24.5,625.9,24.5z"/>
	</g>
	<g>
		<circle fill="#D75352" cx="625.9" cy="27.5" r="1.6"/>
	</g>
	<g>
		<path fill="#E6BC45" d="M656.7,25.7h-22.6c-0.3,0-0.5-0.2-0.5-0.5s0.2-0.5,0.5-0.5h22.6c0.3,0,0.5,0.2,0.5,0.5
			S657,25.7,656.7,25.7z"/>
	</g>
	<g>
		<path fill="#E6BC45" d="M653.3,29.7h-19.2c-0.3,0-0.5-0.2-0.5-0.5s0.2-0.5,0.5-0.5h19.2c0.3,0,0.5,0.2,0.5,0.5
			S653.6,29.7,653.3,29.7z"/>
	</g>
	<g>
		<g>
			<path fill="#4C5561" d="M625.9,46.5c-2.2,0-4-1.8-4-4s1.8-4,4-4s4,1.8,4,4S628.1,46.5,625.9,46.5z M625.9,39.5c-1.7,0-3,1.3-3,3
				s1.3,3,3,3s3-1.3,3-3S627.6,39.5,625.9,39.5z"/>
		</g>
	</g>
	<g>
		<path fill="#41ACE1" d="M656.7,40.7h-22.6c-0.3,0-0.5-0.2-0.5-0.5s0.2-0.5,0.5-0.5h22.6c0.3,0,0.5,0.2,0.5,0.5
			S657,40.7,656.7,40.7z"/>
	</g>
	<g>
		<path fill="#41ACE1" d="M653.3,44.7h-19.2c-0.3,0-0.5-0.2-0.5-0.5s0.2-0.5,0.5-0.5h19.2c0.3,0,0.5,0.2,0.5,0.5
			S653.6,44.7,653.3,44.7z"/>
	</g>
	<g>
		<path fill="#4C5561" d="M625.9,61.5c-2.2,0-4-1.8-4-4s1.8-4,4-4s4,1.8,4,4S628.1,61.5,625.9,61.5z M625.9,54.5c-1.7,0-3,1.3-3,3
			s1.3,3,3,3s3-1.3,3-3S627.6,54.5,625.9,54.5z"/>
	</g>
	<g>
		<circle fill="#D75352" cx="625.9" cy="57.5" r="1.6"/>
	</g>
	<g>
		<path fill="#E6BC45" d="M656.7,55.7h-22.6c-0.3,0-0.5-0.2-0.5-0.5s0.2-0.5,0.5-0.5h22.6c0.3,0,0.5,0.2,0.5,0.5
			S657,55.7,656.7,55.7z"/>
	</g>
	<g>
		<path fill="#E6BC45" d="M653.3,59.7h-19.2c-0.3,0-0.5-0.2-0.5-0.5s0.2-0.5,0.5-0.5h19.2c0.3,0,0.5,0.2,0.5,0.5
			S653.6,59.7,653.3,59.7z"/>
	</g>
	<g>
		<circle fill="#D75352" cx="625.9" cy="42.5" r="1.6"/>
	</g>
</g>
<g id="assess">
	<g>
		<g>
			<path fill="#4C5561" d="M725.9,69.8h-41.1c-1.4,0-2.5-1.1-2.5-2.5V18.2c0-1.4,1.1-2.5,2.5-2.5h41.1c1.4,0,2.5,1.1,2.5,2.5v34.7
				c0,0.3-0.2,0.5-0.5,0.5s-0.5-0.2-0.5-0.5V18.2c0-0.8-0.7-1.5-1.5-1.5h-41.1c-0.8,0-1.5,0.7-1.5,1.5v49.1c0,0.8,0.7,1.5,1.5,1.5
				h41.1c0.8,0,1.5-0.7,1.5-1.5v-4.9c0-0.3,0.2-0.5,0.5-0.5s0.5,0.2,0.5,0.5v4.9C728.4,68.7,727.3,69.8,725.9,69.8z"/>
		</g>
		<g>
			<path fill="#4C5561" d="M727.9,60.2c-0.3,0-0.5-0.2-0.5-0.5v-3.8c0-0.3,0.2-0.5,0.5-0.5s0.5,0.2,0.5,0.5v3.8
				C728.4,60,728.2,60.2,727.9,60.2z"/>
		</g>
	</g>
	<g>
		<path fill="#41ACE1" d="M710.9,28.3h-10.5c-0.3,0-0.5-0.2-0.5-0.5s0.2-0.5,0.5-0.5h10.5c0.3,0,0.5,0.2,0.5,0.5
			S711.2,28.3,710.9,28.3z"/>
	</g>
	<g>
		<path fill="#4C5561" d="M692.6,31.6c-2.2,0-4-1.8-4-4s1.8-4,4-4s4,1.8,4,4S694.8,31.6,692.6,31.6z M692.6,24.6c-1.7,0-3,1.3-3,3
			s1.3,3,3,3s3-1.3,3-3S694.3,24.6,692.6,24.6z"/>
	</g>
	<g>
		<circle fill="#E6BC45" cx="692.6" cy="27.6" r="1.6"/>
		<path fill="#4C5561" d="M692.6,29.7c-1.2,0-2.1-0.9-2.1-2.1s0.9-2.1,2.1-2.1s2.1,0.9,2.1,2.1S693.8,29.7,692.6,29.7z M692.6,26.5
			c-0.6,0-1.1,0.5-1.1,1.1s0.5,1.1,1.1,1.1s1.1-0.5,1.1-1.1S693.2,26.5,692.6,26.5z"/>
	</g>
	<g>
		<path fill="#4C5561" d="M692.6,46.7c-2.2,0-4-1.8-4-4s1.8-4,4-4s4,1.8,4,4S694.8,46.7,692.6,46.7z M692.6,39.7c-1.7,0-3,1.3-3,3
			s1.3,3,3,3s3-1.3,3-3S694.3,39.7,692.6,39.7z"/>
	</g>
	<g>
		<circle fill="#E6BC45" cx="692.6" cy="42.7" r="1.6"/>
		<path fill="#4C5561" d="M692.6,44.8c-1.2,0-2.1-0.9-2.1-2.1c0-1.2,0.9-2.1,2.1-2.1s2.1,0.9,2.1,2.1
			C694.7,43.9,693.8,44.8,692.6,44.8z M692.6,41.6c-0.6,0-1.1,0.5-1.1,1.1s0.5,1.1,1.1,1.1s1.1-0.5,1.1-1.1S693.2,41.6,692.6,41.6z"
			/>
	</g>
	<g>
		<path fill="#4C5561" d="M692.6,61.7c-2.2,0-4-1.8-4-4s1.8-4,4-4s4,1.8,4,4S694.8,61.7,692.6,61.7z M692.6,54.7c-1.7,0-3,1.3-3,3
			s1.3,3,3,3s3-1.3,3-3S694.3,54.7,692.6,54.7z"/>
	</g>
	<g>
		<circle fill="#E6BC45" cx="692.6" cy="57.7" r="1.6"/>
		<path fill="#4C5561" d="M692.6,59.8c-1.2,0-2.1-0.9-2.1-2.1c0-1.2,0.9-2.1,2.1-2.1s2.1,0.9,2.1,2.1
			C694.7,58.9,693.8,59.8,692.6,59.8z M692.6,56.6c-0.6,0-1.1,0.5-1.1,1.1s0.5,1.1,1.1,1.1s1.1-0.5,1.1-1.1S693.2,56.6,692.6,56.6z"
			/>
	</g>
	<g>
		<path fill="#41ACE1" d="M716.6,29.7C716.6,29.7,716.5,29.7,716.6,29.7c-0.2,0-0.3-0.1-0.4-0.2l-1.5-2.3c-0.2-0.2-0.1-0.5,0.1-0.7
			c0.2-0.1,0.5-0.1,0.7,0.1l1.2,1.9l5.4-3.6c0.2-0.2,0.5-0.1,0.7,0.1c0.2,0.2,0.1,0.5-0.1,0.7l-5.8,3.9
			C716.8,29.7,716.7,29.7,716.6,29.7z"/>
	</g>
	<g>
		<path fill="#41ACE1" d="M710.9,43.4h-10.5c-0.3,0-0.5-0.2-0.5-0.5s0.2-0.5,0.5-0.5h10.5c0.3,0,0.5,0.2,0.5,0.5
			S711.2,43.4,710.9,43.4z"/>
	</g>
	<g>
		<path fill="#D75352" d="M710.9,58.2h-10.5c-0.3,0-0.5-0.2-0.5-0.5s0.2-0.5,0.5-0.5h10.5c0.3,0,0.5,0.2,0.5,0.5
			S711.2,58.2,710.9,58.2z"/>
	</g>
	<g>
		<path fill="#41ACE1" d="M716.6,44.8C716.6,44.8,716.5,44.8,716.6,44.8c-0.2,0-0.3-0.1-0.4-0.2l-1.5-2.3c-0.2-0.2-0.1-0.5,0.1-0.7
			c0.2-0.1,0.5-0.1,0.7,0.1l1.2,1.9l5.4-3.6c0.2-0.2,0.5-0.1,0.7,0.1c0.2,0.2,0.1,0.5-0.1,0.7l-5.8,3.9
			C716.8,44.8,716.7,44.8,716.6,44.8z"/>
	</g>
	<g>
		<g>
			<path fill="#D75352" d="M716.5,60.4c-0.1,0-0.3-0.1-0.4-0.2c-0.2-0.2-0.2-0.5,0-0.7l4.8-4.7c0.2-0.2,0.5-0.2,0.7,0
				c0.2,0.2,0.2,0.5,0,0.7l-4.8,4.7C716.8,60.4,716.6,60.4,716.5,60.4z"/>
		</g>
		<g>
			<path fill="#D75352" d="M721.3,60.4c-0.1,0-0.3,0-0.3-0.1l-4.8-4.7c-0.2-0.2-0.2-0.5,0-0.7c0.2-0.2,0.5-0.2,0.7,0l4.8,4.7
				c0.2,0.2,0.2,0.5,0,0.7C721.6,60.3,721.4,60.4,721.3,60.4z"/>
		</g>
	</g>
	<g>
		<path fill="#4C5561" d="M723.5,72.7h-41.6c-1.4,0-2.5-1.1-2.5-2.5V22.8c0-1.4,1.1-2.5,2.5-2.5h0.7c0.3,0,0.5,0.2,0.5,0.5
			s-0.2,0.5-0.5,0.5h-0.7c-0.8,0-1.5,0.7-1.5,1.5v47.4c0,0.8,0.7,1.5,1.5,1.5h41.6c0.8,0,1.5-0.7,1.5-1.5v-0.8
			c0-0.3,0.2-0.5,0.5-0.5s0.5,0.2,0.5,0.5v0.8C726,71.6,724.9,72.7,723.5,72.7z"/>
	</g>
</g>
<g id="report">
	<g>
		<path fill="#D75352" d="M776.4,62h-10.5c-0.8,0-1.5-0.7-1.5-1.5s0.7-1.5,1.5-1.5h10.5c0.8,0,1.5,0.7,1.5,1.5S777.2,62,776.4,62z"
			/>
	</g>
	<g>
		<path fill="#41ACE1" d="M784.5,41.1h-27.4c-0.3,0-0.5-0.2-0.5-0.5s0.2-0.5,0.5-0.5h27.4c0.3,0,0.5,0.2,0.5,0.5
			S784.8,41.1,784.5,41.1z"/>
	</g>
	<g>
		<g>
			<path fill="#E6BC45" d="M750.4,70.6h-1c-1.1,0-2-0.9-2-2V19.5c0-1.1,0.9-2,2-2h1V70.6z"/>
			<path fill="#4C5561" d="M750.4,71.1h-1c-1.4,0-2.5-1.1-2.5-2.5V19.5c0-1.4,1.1-2.5,2.5-2.5h1c0.3,0,0.5,0.2,0.5,0.5v53.1
				C750.9,70.9,750.7,71.1,750.4,71.1z M749.4,18c-0.8,0-1.5,0.7-1.5,1.5v49.1c0,0.8,0.7,1.5,1.5,1.5h0.5V18H749.4z"/>
		</g>
	</g>
	<g>
		<path fill="#41ACE1" d="M784.5,47.4h-27.4c-0.3,0-0.5-0.2-0.5-0.5s0.2-0.5,0.5-0.5h27.4c0.3,0,0.5,0.2,0.5,0.5
			S784.8,47.4,784.5,47.4z"/>
	</g>
	<g>
		<path fill="#41ACE1" d="M782.2,53.7h-22.4c-0.3,0-0.5-0.2-0.5-0.5s0.2-0.5,0.5-0.5h22.4c0.3,0,0.5,0.2,0.5,0.5
			S782.5,53.7,782.2,53.7z"/>
	</g>
	<g>
		<g>
			<path fill="#4C5561" d="M790.6,71.1h-41.1c-1.4,0-2.5-1.1-2.5-2.5V19.5c0-1.4,1.1-2.5,2.5-2.5h41.1c1.4,0,2.5,1.1,2.5,2.5v34.7
				c0,0.3-0.2,0.5-0.5,0.5s-0.5-0.2-0.5-0.5V19.5c0-0.8-0.7-1.5-1.5-1.5h-41.1c-0.8,0-1.5,0.7-1.5,1.5v49.1c0,0.8,0.7,1.5,1.5,1.5
				h41.1c0.8,0,1.5-0.7,1.5-1.5v-4.9c0-0.3,0.2-0.5,0.5-0.5s0.5,0.2,0.5,0.5v4.9C793.1,70,792,71.1,790.6,71.1z"/>
		</g>
		<g>
			<path fill="#4C5561" d="M792.5,61.5c-0.3,0-0.5-0.2-0.5-0.5v-3.8c0-0.3,0.2-0.5,0.5-0.5s0.5,0.2,0.5,0.5V61
				C793,61.3,792.8,61.5,792.5,61.5z"/>
		</g>
	</g>
	<g>
		<path fill="#D75352" d="M771.9,34.3c-1.8,0-3.6,0-5.4,0c-1,0-1.5-0.8-1-1.8c0.4-0.7,0.8-1.4,1.2-2.2c1.3-2.3,2.6-4.5,3.9-6.8
			c0.2-0.3,0.4-0.6,0.6-0.8c0.4-0.4,1-0.4,1.4,0c0.2,0.2,0.4,0.4,0.5,0.7c1.7,2.9,3.4,5.9,5.1,8.8c0.1,0.2,0.2,0.4,0.2,0.6
			c0.2,0.8-0.2,1.4-1,1.4c-0.7,0-1.5,0-2.2,0C774.1,34.3,773,34.3,771.9,34.3C771.9,34.3,771.9,34.3,771.9,34.3z"/>
		<path fill="#404751" d="M773.9,34.8c-0.3,0-0.7,0-1,0l-1,0c0,0-0.1,0-0.1,0l-1.5,0c-1.3,0-2.5,0-3.8,0c-0.7,0-1.2-0.3-1.5-0.8
			c-0.3-0.5-0.3-1.1,0-1.7c0.3-0.6,0.6-1.1,0.9-1.6l0.5-0.8c1.2-2.2,2.5-4.3,3.7-6.5c0.2-0.4,0.4-0.7,0.7-0.9c0.6-0.6,1.5-0.6,2.1,0
			c0.2,0.2,0.4,0.5,0.6,0.8c1.7,2.9,3.4,5.9,5.1,8.8c0.1,0.2,0.2,0.5,0.3,0.7c0.1,0.5,0.1,1-0.2,1.4c-0.3,0.4-0.7,0.6-1.3,0.6
			c-0.6,0-1.2,0-1.8,0l-0.5,0C774.7,34.8,774.3,34.8,773.9,34.8z M772,33.8l0.9,0c0.8,0,1.5,0,2.3,0l0.5,0c0.6,0,1.1,0,1.7,0
			c0.2,0,0.4-0.1,0.5-0.2c0.1-0.1,0.1-0.3,0.1-0.6c0-0.1-0.1-0.3-0.2-0.5c-1.7-2.9-3.4-5.9-5.1-8.8c-0.1-0.2-0.3-0.4-0.4-0.5
			c-0.2-0.2-0.5-0.2-0.7,0c-0.2,0.2-0.3,0.4-0.5,0.7c-1.3,2.2-2.5,4.3-3.7,6.5l-0.5,0.8c-0.3,0.5-0.6,1.1-0.9,1.6
			c-0.2,0.3-0.2,0.6-0.1,0.8c0.1,0.2,0.3,0.3,0.6,0.3c1.3,0,2.5,0,3.8,0l1.6,0C771.9,33.8,772,33.8,772,33.8z"/>
	</g>
	<g>
		<g>
			<path fill="#FFFFFF" d="M771.9,29.8C771.9,29.8,771.9,29.8,771.9,29.8c0.3,0,0.3,0,0.4-0.2c0-0.4,0.1-0.8,0.2-1.2
				c0-0.3,0.1-0.7,0.1-1c0-0.3-0.2-0.5-0.5-0.6c-0.3-0.1-0.6,0.1-0.7,0.3c-0.1,0.2-0.1,0.4-0.1,0.5c0.1,0.7,0.2,1.3,0.3,2
				c0,0.1,0.1,0.2,0.2,0.1C771.8,29.8,771.8,29.8,771.9,29.8z"/>
		</g>
		<g>
			<path fill="#FFFFFF" d="M771.9,30.7c-0.4,0-0.7,0.3-0.7,0.6c0,0.4,0.3,0.7,0.6,0.7c0.4,0,0.7-0.3,0.7-0.6
				C772.5,31,772.3,30.7,771.9,30.7z"/>
		</g>
	</g>
</g>
</svg>
