<?xml version="1.0" encoding="utf-8"?>
<!-- Generator: Adobe Illustrator 21.1.0, SVG Export Plug-In . SVG Version: 6.00 Build 0)  -->
<svg version="1.1" id="Layer_1" xmlns="http://www.w3.org/2000/svg" xmlns:xlink="http://www.w3.org/1999/xlink" x="0px" y="0px"
	 viewBox="0 0 799 768.2" style="enable-background:new 0 0 799 768.2;" xml:space="preserve">
<style type="text/css">
	.st0{opacity:0.7;fill:#41ACE1;enable-background:new    ;}
	.st1{opacity:0.6;}
	.st2{fill:#404751;}
	.st3{fill:#FFFFFF;}
	.st4{opacity:5.000000e-02;}
	.st5{fill:#4C5561;}
	.st6{fill:#D75352;}
	.st7{fill:#E6BC45;}
	.st8{fill:#41ACE1;}
</style>
<path class="st0" d="M627.1,157H474.6c-8.6,0-15.6-7-15.6-15.6V29.8c0-8.6,7-15.6,15.6-15.6h152.4c8.6,0,15.6,7,15.6,15.6v111.6
	C642.6,150,635.6,157,627.1,157z"/>
<g class="st1">
	<path class="st2" d="M422.3,443.2c-0.1,0-0.3,0-0.3,0c-1-0.1-1.8-1.2-1.7-2.2c0,0,0.1-0.9,0.4-2.6c0.1-1,1.2-1.8,2.2-1.6
		c1,0.1,1.8,1.2,1.6,2.2c-0.3,1.7-0.4,2.6-0.4,2.6C424.1,442.6,423.2,443.2,422.3,443.2z M424.7,430.4c-0.1,0-0.3,0-0.4,0
		c-1-0.3-1.7-1.2-1.6-2.3c0.1-0.8,0.3-1.7,0.5-2.6c0.3-1,1.2-1.7,2.3-1.6c1,0.3,1.7,1.2,1.6,2.3c-0.1,0.9-0.4,1.7-0.5,2.6
		C426.3,429.7,425.6,430.4,424.7,430.4z M427.1,417.7c-0.1,0-0.3,0-0.4,0c-1-0.3-1.7-1.3-1.6-2.3l0.5-2.6c0.3-1,1.3-1.7,2.3-1.6
		c1,0.3,1.7,1.3,1.6,2.3l-0.5,2.6C428.9,417,428,417.7,427.1,417.7z M430,404.9c-0.1,0-0.3,0-0.4,0c-1-0.3-1.7-1.3-1.4-2.3l0.6-2.6
		c0.3-1,1.3-1.7,2.3-1.4c1,0.3,1.7,1.3,1.4,2.3l-0.5,2.5C431.7,404.3,430.9,404.9,430,404.9z M433,392.2c-0.1,0-0.3,0-0.5,0
		c-1-0.3-1.7-1.3-1.4-2.3l0.6-2.5c0.3-1,1.3-1.7,2.3-1.4c1,0.3,1.7,1.3,1.4,2.3l-0.6,2.5C434.7,391.7,433.9,392.2,433,392.2z
		 M436.2,379.6c-0.1,0-0.4,0-0.5,0c-1-0.3-1.7-1.3-1.4-2.3l0.6-2.5c0.3-1,1.3-1.7,2.3-1.4s1.7,1.3,1.4,2.3l-0.6,2.5
		C437.8,379.1,437,379.6,436.2,379.6z M439.6,367.2c-0.1,0-0.4,0-0.5-0.1c-1-0.3-1.7-1.3-1.3-2.3l0.6-2.5c0.3-1,1.4-1.7,2.5-1.3
		c1,0.3,1.7,1.4,1.3,2.5l-0.6,2.5C441.1,366.5,440.4,367.2,439.6,367.2z M443.1,354.7c-0.1,0-0.4,0-0.5-0.1c-1-0.3-1.6-1.4-1.3-2.5
		l0.8-2.5c0.3-1,1.4-1.6,2.5-1.3c1,0.3,1.6,1.4,1.3,2.5l-0.8,2.5C444.8,354.1,444,354.7,443.1,354.7z M447,342.2
		c-0.1,0-0.4,0-0.5-0.1c-1-0.3-1.6-1.4-1.3-2.5l0.8-2.5c0.3-1,1.4-1.6,2.5-1.3c1,0.3,1.6,1.4,1.3,2.5l-0.8,2.5
		C448.5,341.7,447.8,342.2,447,342.2z M450.9,329.8c-0.3,0-0.4,0-0.6-0.1c-1-0.4-1.6-1.4-1.3-2.5l0.8-2.5c0.4-1,1.4-1.6,2.5-1.2
		c1,0.4,1.6,1.4,1.2,2.5l-0.8,2.5C452.4,329.3,451.8,329.8,450.9,329.8z M455.2,317.6c-0.3,0-0.4,0-0.6-0.1c-1-0.4-1.6-1.4-1.2-2.5
		l0.9-2.5c0.4-1,1.4-1.6,2.5-1.2c1,0.4,1.6,1.4,1.2,2.5l-0.9,2.5C456.7,317.1,455.9,317.6,455.2,317.6z M459.5,305.4
		c-0.3,0-0.4,0-0.6-0.1c-1-0.4-1.6-1.4-1.2-2.5l0.9-2.5c0.4-1,1.6-1.6,2.5-1.2c1,0.4,1.6,1.6,1.2,2.5l-0.9,2.5
		C461,304.9,460.2,305.4,459.5,305.4z M464.1,293.2c-0.3,0-0.5,0-0.6-0.1c-1-0.4-1.6-1.6-1.2-2.5l0.9-2.5c0.4-1,1.6-1.4,2.5-1
		c1,0.4,1.4,1.6,1,2.5l-0.9,2.5C465.7,292.6,464.9,293.2,464.1,293.2z M468.9,281.1c-0.3,0-0.5,0-0.8-0.1c-1-0.4-1.4-1.6-1-2.6
		l1-2.5c0.4-1,1.6-1.4,2.6-1c1,0.4,1.4,1.6,1,2.6l-1,2.3C470.5,280.7,469.7,281.1,468.9,281.1z M474,269.2c-0.3,0-0.5,0-0.8-0.1
		c-1-0.4-1.4-1.6-1-2.6c0.4-0.8,0.6-1.6,1-2.3c0.4-1,1.6-1.4,2.6-1c1,0.4,1.4,1.6,1,2.6c-0.4,0.8-0.6,1.6-1,2.3
		C475.6,268.8,474.8,269.2,474,269.2z M479.3,257.3c-0.3,0-0.5,0-0.8-0.1c-1-0.4-1.4-1.6-0.9-2.6l1-2.3c0.5-1,1.6-1.4,2.6-0.9
		c1,0.5,1.4,1.6,0.9,2.6l-1,2.3C480.9,256.9,480.1,257.3,479.3,257.3z M485,245.7c-0.3,0-0.5,0-0.9-0.3c-0.9-0.5-1.3-1.7-0.9-2.6
		l1.2-2.3c0.5-0.9,1.7-1.3,2.6-0.9c0.9,0.5,1.3,1.7,0.9,2.6l-1.2,2.3C486.3,245.1,485.7,245.7,485,245.7z M490.9,234
		c-0.3,0-0.6-0.1-0.9-0.3c-0.9-0.5-1.3-1.7-0.8-2.6l1.2-2.3c0.5-0.9,1.7-1.3,2.6-0.8c0.9,0.5,1.3,1.7,0.8,2.6l-1.2,2.3
		C492.2,233.7,491.5,234,490.9,234z M497,222.5c-0.3,0-0.6-0.1-0.9-0.3c-0.9-0.5-1.3-1.7-0.8-2.6c0.4-0.8,0.9-1.6,1.3-2.3
		c0.5-0.9,1.7-1.3,2.6-0.8s1.3,1.7,0.8,2.6c-0.4,0.8-0.8,1.6-1.3,2.2C498.3,222.3,497.6,222.5,497,222.5z M503.5,211.4
		c-0.4,0-0.6-0.1-1-0.3c-0.9-0.5-1.2-1.7-0.6-2.7c0.4-0.8,0.9-1.6,1.3-2.2c0.5-0.9,1.7-1.2,2.7-0.6c0.9,0.5,1.2,1.7,0.6,2.7
		c-0.4,0.8-0.9,1.4-1.3,2.2C504.8,211,504.1,211.4,503.5,211.4z M510.2,200.2c-0.4,0-0.8-0.1-1-0.3c-0.9-0.5-1.2-1.8-0.6-2.7
		c0.5-0.8,0.9-1.4,1.4-2.2c0.5-0.9,1.8-1.2,2.7-0.6c0.9,0.5,1.2,1.8,0.6,2.7c-0.5,0.8-0.9,1.4-1.4,2.2
		C511.5,200,510.9,200.2,510.2,200.2z M517.4,189.3c-0.4,0-0.8-0.1-1-0.4c-0.9-0.6-1.2-1.8-0.5-2.7c0.5-0.8,1-1.4,1.4-2.2
		c0.6-0.9,1.8-1.2,2.7-0.5s1.2,1.8,0.5,2.7c-0.5,0.6-1,1.4-1.4,2.2C518.5,189,518,189.3,517.4,189.3z M524.9,178.7
		c-0.4,0-0.8-0.1-1.2-0.4c-0.9-0.6-1-1.8-0.4-2.7c0.5-0.6,1-1.4,1.6-2.1c0.6-0.9,1.8-1,2.7-0.4s1,1.8,0.4,2.7
		c-0.5,0.6-1,1.4-1.6,2.1C526.1,178.4,525.4,178.7,524.9,178.7z M532.7,168.4c-0.4,0-0.9-0.1-1.2-0.4c-0.9-0.6-1-1.9-0.3-2.7
		c0.5-0.6,1-1.4,1.7-2.1c0.6-0.8,1.9-0.9,2.7-0.3s0.9,1.9,0.3,2.7c-0.5,0.6-1,1.3-1.6,2.1C533.8,168.1,533.3,168.4,532.7,168.4z"/>
</g>
<g>
	<path class="st3" d="M325,137.5H192.5c-8.6,0-15.6-7-15.6-15.6V25.9c0-8.6,7-15.6,15.6-15.6H325c8.6,0,15.6,7,15.6,15.6v96.1
		C340.5,130.5,333.5,137.5,325,137.5z"/>
	<path class="st2" d="M325,139.5H192.5c-9.6,0-17.5-7.9-17.5-17.5V25.9c0-9.6,7.9-17.5,17.5-17.5H325c9.6,0,17.5,7.9,17.5,17.5v96.1
		C342.5,131.5,334.6,139.5,325,139.5z M192.5,12.2c-7.5,0-13.6,6.1-13.6,13.6v96.1c0,7.5,6.1,13.6,13.6,13.6H325
		c7.5,0,13.6-6.1,13.6-13.6V25.9c0-7.5-6.1-13.6-13.6-13.6H192.5z"/>
</g>
<g>
	<path class="st3" d="M169.2,340H36.7c-8.6,0-15.6-7-15.6-15.6v-96.1c0-8.6,7-15.6,15.6-15.6h132.4c8.6,0,15.6,7,15.6,15.6v96.1
		C184.7,333,177.7,340,169.2,340z"/>
	<path class="st2" d="M169.2,342H36.7c-9.6,0-17.5-7.9-17.5-17.5v-96.1c0-9.6,7.9-17.5,17.5-17.5h132.4c9.6,0,17.5,7.9,17.5,17.5
		v96.1C186.7,334.1,178.8,342,169.2,342z M36.7,214.8c-7.5,0-13.6,6.1-13.6,13.6v96.1c0,7.5,6.1,13.6,13.6,13.6h132.4
		c7.5,0,13.6-6.1,13.6-13.6v-96.1c0-7.5-6.1-13.6-13.6-13.6H36.7z"/>
</g>
<g>
	<path class="st3" d="M769.5,377.7H637.1c-8.6,0-15.6-7-15.6-15.6V266c0-8.6,7-15.6,15.6-15.6h132.4c8.6,0,15.6,7,15.6,15.6v96.1
		C785.1,370.7,778,377.7,769.5,377.7z"/>
	<path class="st2" d="M769.5,379.6H637.1c-9.6,0-17.5-7.9-17.5-17.5V266c0-9.6,7.9-17.5,17.5-17.5h132.4c9.6,0,17.5,7.9,17.5,17.5
		v96.1C787,371.7,779.1,379.6,769.5,379.6z M637.1,252.4c-7.5,0-13.6,6.1-13.6,13.6v96.1c0,7.5,6.1,13.6,13.6,13.6h132.4
		c7.5,0,13.6-6.1,13.6-13.6V266c0-7.5-6.1-13.6-13.6-13.6H637.1z"/>
</g>
<g class="st4">
	<path d="M760.3,654.7c-24.9,26.1-47.3,52.4-108,71.3c-29,9.2-70.1,15.6-113.6,18c-43.9,2.6-90.1,1.3-139.4-2.1
		c-96.2-6-202.4-22.3-268.6-39.9c-66.9-17.7-92-31.7-111.4-44.4c-13.9-12.7-27.5-26.4,28.7-44c53.6-17.5,195.1-34.4,357.4-43.6
		c161.6-10.8,302.1-9.1,349.7,11C805.2,600.6,779.2,628.8,760.3,654.7z"/>
</g>
<g>
	<path class="st2" d="M554.7,656.2H109.4c-1,0-1.9-0.9-1.9-1.9s0.9-1.9,1.9-1.9h445.3c1,0,1.9,0.9,1.9,1.9S555.8,656.2,554.7,656.2z
		"/>
</g>
<g>
	<path class="st2" d="M645.6,656.2h-68.8c-1,0-1.9-0.9-1.9-1.9s0.9-1.9,1.9-1.9h68.8c1,0,1.9,0.9,1.9,1.9S646.7,656.2,645.6,656.2z"
		/>
</g>
<g>
	<path class="st2" d="M92.6,656.2h-26c-1,0-1.9-0.9-1.9-1.9s0.9-1.9,1.9-1.9h26c1,0,1.9,0.9,1.9,1.9S93.6,656.2,92.6,656.2z"/>
</g>
<g>
	<path class="st2" d="M727.4,656.2h-62.3c-1,0-1.9-0.9-1.9-1.9s0.9-1.9,1.9-1.9h62.3c1,0,1.9,0.9,1.9,1.9S728.4,656.2,727.4,656.2z"
		/>
</g>
<g>
	<g>
		<path class="st2" d="M259.1,99.5c-2.5,0-4.9-0.4-7.3-1c-1-0.3-1.6-1.4-1.3-2.5c0.3-1,1.4-1.6,2.5-1.3c1.9,0.6,4,0.9,6.2,0.9
			c11.8,0,21.3-9.6,21.3-21.3c0-1.9-0.3-3.8-0.8-5.6c-0.3-1,0.4-2.1,1.4-2.3c1-0.3,2.1,0.4,2.3,1.4c0.5,2.1,0.9,4.3,0.9,6.6
			C284.4,88.2,273.2,99.5,259.1,99.5z"/>
	</g>
	<g>
		<path class="st2" d="M236.7,82.1c-0.9,0-1.7-0.5-1.8-1.4c-0.5-2.1-0.8-4.3-0.8-6.5c0-13.9,11.3-25.2,25.2-25.2
			c3.2,0,6.4,0.6,9.5,1.8c1,0.4,1.4,1.6,1,2.6c-0.4,1-1.6,1.4-2.6,1c-2.5-1-5.2-1.6-7.9-1.6c-11.8,0-21.3,9.6-21.3,21.3
			c0,1.8,0.3,3.6,0.6,5.5c0.3,1-0.4,2.1-1.4,2.3C237.1,82.1,236.8,82.1,236.7,82.1z"/>
	</g>
	<g>
		<path class="st2" d="M245.8,82.3c-0.8,0-1.4-0.4-1.8-1.2c-1-2.2-1.6-4.5-1.6-7c0-9.2,7.5-16.7,16.7-16.7c1.2,0,2.2,0.1,3.4,0.4
			c1,0.3,1.7,1.3,1.6,2.3c-0.3,1-1.3,1.7-2.3,1.6c-0.9-0.1-1.7-0.3-2.6-0.3c-7,0-12.9,5.7-12.9,12.9c0,1.8,0.4,3.6,1.2,5.3
			c0.4,1,0,2.1-0.9,2.6C246.3,82.3,246,82.3,245.8,82.3z"/>
	</g>
	<g>
		<path class="st2" d="M259.1,90.9c-0.8,0-1.7,0-2.5-0.1c-1-0.1-1.8-1.2-1.7-2.2c0.1-1,1.2-1.8,2.2-1.7c0.6,0.1,1.3,0.1,1.9,0.1
			c7,0,12.9-5.7,12.9-12.9c0-1-0.1-1.9-0.4-3c-0.3-1,0.4-2.1,1.4-2.3s2.1,0.4,2.3,1.4c0.3,1.3,0.4,2.6,0.4,3.9
			C275.9,83.5,268.4,90.9,259.1,90.9z"/>
	</g>
	<g>
		<path class="st2" d="M235.9,43.4c-0.8,0-1.6-0.1-2.3-0.4c-2.7-0.8-4.8-3-5.5-5.7c-0.1-0.6-0.3-1.4-0.3-2.1c0-4.5,3.6-8.2,8.2-8.2
			c1,0,2.1,0.3,3,0.6c2.3,0.9,4.2,3,4.8,5.5c0.1,0.6,0.3,1.4,0.3,2.1C244.1,39.8,240.4,43.4,235.9,43.4z M235.9,31.1
			c-2.3,0-4.3,1.9-4.3,4.3c0,0.4,0,0.8,0.1,1c0.4,1.4,1.4,2.6,2.9,3c0.4,0.1,0.8,0.1,1.2,0.1c2.3,0,4.3-1.9,4.3-4.3
			c0-0.4,0-0.8-0.1-1c-0.4-1.3-1.3-2.3-2.5-2.9C236.9,31.2,236.4,31.1,235.9,31.1z"/>
	</g>
	<g>
		<path class="st2" d="M213.8,81.8c-0.8,0-1.6-0.1-2.3-0.4c-2.7-0.8-4.8-3-5.5-5.7c-0.1-0.6-0.3-1.4-0.3-2.1c0-4.5,3.6-8.2,8.2-8.2
			c1,0,2.1,0.3,3,0.6c2.3,0.9,4.2,3,4.8,5.5c0.1,0.6,0.3,1.4,0.3,2.1C221.9,78.2,218.2,81.8,213.8,81.8z M213.8,69.5
			c-2.3,0-4.3,1.9-4.3,4.3c0,0.4,0,0.8,0.1,1c0.4,1.4,1.4,2.6,2.9,3c0.4,0.1,0.8,0.1,1.2,0.1c2.3,0,4.3-1.9,4.3-4.3
			c0-0.4,0-0.8-0.1-1.2c-0.4-1.3-1.3-2.3-2.5-2.9C214.9,69.6,214.3,69.5,213.8,69.5z"/>
	</g>
	<g>
		<path class="st2" d="M235.9,121.3c-0.8,0-1.6-0.1-2.3-0.4c-2.7-0.8-4.8-3-5.5-5.7c-0.1-0.6-0.3-1.4-0.3-2.1c0-4.5,3.6-8.2,8.2-8.2
			c1,0,2.1,0.3,3,0.6c2.3,0.9,4.2,3,4.8,5.5c0.1,0.6,0.3,1.4,0.3,2.1C244.1,117.6,240.4,121.3,235.9,121.3z M235.9,108.9
			c-2.3,0-4.3,1.9-4.3,4.3c0,0.4,0,0.8,0.1,1c0.4,1.4,1.4,2.6,2.9,3c0.4,0.1,0.8,0.1,1.2,0.1c2.3,0,4.3-1.9,4.3-4.3
			c0-0.4,0-0.8-0.1-1c-0.4-1.3-1.3-2.3-2.5-2.9C236.9,109.1,236.4,108.9,235.9,108.9z"/>
	</g>
	<g>
		<path class="st2" d="M281.6,121.3c-0.8,0-1.6-0.1-2.3-0.4c-2.7-0.8-4.8-3-5.5-5.7c-0.1-0.6-0.3-1.4-0.3-2.1c0-4.5,3.6-8.2,8.2-8.2
			c1,0,2.1,0.3,3,0.6c2.3,0.9,4.2,3,4.8,5.5c0.1,0.6,0.3,1.4,0.3,2.1C289.8,117.6,286.1,121.3,281.6,121.3z M281.6,108.9
			c-2.3,0-4.3,1.9-4.3,4.3c0,0.4,0,0.8,0.1,1c0.4,1.4,1.4,2.6,2.9,3c0.4,0.1,0.8,0.1,1.2,0.1c2.3,0,4.3-1.9,4.3-4.3
			c0-0.4,0-0.8-0.1-1.2c-0.4-1.3-1.3-2.3-2.5-2.9C282.6,109.1,282.1,108.9,281.6,108.9z"/>
	</g>
	<g>
		<path class="st2" d="M304.2,82.3c-0.8,0-1.6-0.1-2.3-0.4c-2.7-0.8-4.8-3-5.5-5.7c-0.1-0.6-0.3-1.4-0.3-2.1c0-4.5,3.6-8.2,8.2-8.2
			c1,0,2.1,0.3,3,0.6c2.3,0.9,4.2,3,4.8,5.5c0.1,0.6,0.3,1.4,0.3,2.1C312.2,78.7,308.6,82.3,304.2,82.3z M304.2,70
			c-2.3,0-4.3,1.9-4.3,4.3c0,0.4,0,0.8,0.1,1c0.4,1.4,1.4,2.6,2.9,3c0.4,0.1,0.8,0.1,1.2,0.1c2.3,0,4.3-1.9,4.3-4.3
			c0-0.4,0-0.8-0.1-1.2c-0.4-1.3-1.3-2.3-2.5-2.9C305.2,70.1,304.7,70,304.2,70z"/>
	</g>
	<g>
		<path class="st2" d="M281.6,42.1c-0.8,0-1.6-0.1-2.3-0.4c-2.7-0.8-4.8-3-5.5-5.7c-0.1-0.6-0.3-1.4-0.3-2.1c0-4.5,3.6-8.2,8.2-8.2
			c1,0,2.1,0.3,3,0.6c2.3,0.9,4.2,3,4.8,5.5c0.1,0.6,0.3,1.4,0.3,2.1C289.8,38.5,286.1,42.1,281.6,42.1z M281.6,29.8
			c-2.3,0-4.3,1.9-4.3,4.3c0,0.4,0,0.8,0.1,1c0.4,1.4,1.4,2.6,2.9,3c0.4,0.1,0.8,0.1,1.2,0.1c2.3,0,4.3-1.9,4.3-4.3
			c0-0.4,0-0.8-0.1-1.2c-0.4-1.3-1.3-2.3-2.5-2.9C282.6,29.9,282.1,29.8,281.6,29.8z"/>
	</g>
	<g>
		<path class="st2" d="M217.2,69.4c-0.4,0-0.8-0.1-1-0.3c-0.9-0.5-1.2-1.8-0.6-2.7l11.6-18.2c0.5-0.9,1.8-1.2,2.7-0.6
			c0.9,0.5,1.2,1.8,0.6,2.7l-11.6,18.2C218.5,69,217.8,69.4,217.2,69.4z"/>
	</g>
	<g>
		<path class="st2" d="M264.7,37.3h-21.3c-1,0-1.9-0.9-1.9-1.9c0-1,0.9-1.9,1.9-1.9h21.3c1,0,1.9,0.9,1.9,1.9
			C266.7,36.4,265.9,37.3,264.7,37.3z"/>
	</g>
	<g>
		<path class="st2" d="M273.9,115.7h-23c-1,0-1.9-0.9-1.9-1.9s0.9-1.9,1.9-1.9h23c1,0,1.9,0.9,1.9,1.9S275,115.7,273.9,115.7z"/>
	</g>
	<g>
		<path class="st2" d="M288.1,102.6c-0.4,0-0.8-0.1-1-0.3c-0.9-0.6-1.2-1.8-0.5-2.7l13.2-20.1c0.6-0.9,1.8-1.2,2.7-0.5
			s1.2,1.8,0.5,2.7l-13.2,20.1C289.4,102.2,288.7,102.6,288.1,102.6z"/>
	</g>
	<g>
		<path class="st2" d="M297,64c-0.6,0-1.3-0.4-1.7-0.9l-12.7-21.8c-0.5-0.9-0.3-2.1,0.6-2.6c0.9-0.5,2.1-0.3,2.7,0.6l12.7,21.8
			c0.5,0.9,0.3,2.1-0.6,2.6C297.7,63.9,297.4,64,297,64z"/>
	</g>
	<g>
		<path class="st2" d="M232.9,108.2c-0.6,0-1.3-0.4-1.7-0.9l-11.9-20.4c-0.5-0.9-0.3-2.1,0.6-2.7c0.9-0.5,2.1-0.3,2.7,0.6l11.9,20.4
			c0.5,0.9,0.3,2.1-0.6,2.7C233.6,108,233.2,108.2,232.9,108.2z"/>
	</g>
	<g>
		<path class="st2" d="M259.1,83c-4.8,0-8.7-3.9-8.7-8.7s3.9-8.7,8.7-8.7c4.8,0,8.7,3.9,8.7,8.7S263.9,83,259.1,83z M259.1,69.5
			c-2.6,0-4.8,2.2-4.8,4.8s2.2,4.8,4.8,4.8s4.8-2.2,4.8-4.8S261.9,69.5,259.1,69.5z"/>
	</g>
</g>
<g>
	<path class="st2" d="M672.1,295.8H693v5.7h-14.9v7.8c0.6-0.8,1.6-1.3,2.7-1.8s2.6-0.8,4.2-0.8c1.7,0,3.2,0.4,4.7,1
		c1.4,0.6,2.6,1.6,3.4,2.7c1.6,2.2,2.3,4.7,2.3,7.5c0,3.6-1,6.5-3.1,8.7c-2.1,2.2-4.9,3.2-8.6,3.2s-6.6-0.9-8.7-2.6
		c-2.1-1.7-3.4-4-3.8-6.8h6.5c0.3,1.2,0.9,2.2,1.9,2.9c1,0.8,2.3,1,4,1c1.7,0,3-0.5,3.9-1.7c0.9-1.2,1.4-2.7,1.4-4.5
		c0-1.9-0.5-3.4-1.4-4.4c-0.9-1-2.2-1.6-3.8-1.6c-3,0-4.8,1.2-5.5,3.6h-6.2L672.1,295.8L672.1,295.8z"/>
	<path class="st2" d="M706.8,325.5c-3.2-3.1-4.8-7.1-4.8-11.9s1.6-8.8,4.8-11.9c3.2-3.1,7.1-4.7,11.8-4.7c3.5,0,6.8,0.9,9.5,2.7
		c2.7,1.8,4.7,4.3,6,7.7h-7.9c-1.4-2.9-3.9-4.3-7.5-4.3c-3,0-5.3,1-7.3,3c-1.8,1.9-2.7,4.5-2.7,7.8c0,3.2,0.9,5.8,2.7,7.8
		c1.8,1.9,4.2,3,6.9,3c2.7,0,4.8-0.6,6.4-1.9c1.6-1.3,2.5-3.1,2.9-5.3h-10.9v-5.1h18v5.1c-0.5,3.5-2.3,6.6-5.2,9.3
		c-3,2.7-6.6,4-11,4C713.9,330.7,710,328.6,706.8,325.5z"/>
</g>
<g>
	<g>
		<path class="st2" d="M67.3,259.9h6.6v27.7h10.5v5.1H67.3V259.9z"/>
		<path class="st2" d="M89.2,265v-5.1h24.1v5.1h-8.8v27.5H98V265H89.2z"/>
		<path class="st2" d="M139.6,259.8v5.1h-12.2v8.6h10.9v5.1h-10.9v9h12.2v5.1h-18.8v-32.7L139.6,259.8L139.6,259.8z"/>
	</g>
</g>
<g>
	<path class="st2" d="M577.2,131.8h-68.9c-8.4,0-15.3-6.9-15.3-15.3s6.9-15.3,15.3-15.3h13.1c1,0,1.9,0.9,1.9,1.9
		c0,1-0.9,1.9-1.9,1.9h-13.1c-6.2,0-11.4,5.1-11.4,11.4c0,6.4,5.1,11.4,11.4,11.4h68.9c6.2,0,11.4-5.1,11.4-11.4
		c0-6.4-5.1-11.4-11.4-11.4H554c-1,0-1.9-0.9-1.9-1.9c0-1,0.9-1.9,1.9-1.9h23.2c8.4,0,15.3,6.9,15.3,15.3S585.6,131.8,577.2,131.8z"
		/>
</g>
<g>
	<path class="st2" d="M551.1,85.7c-0.1,0-0.3,0-0.4,0c-1-0.3-1.7-1.3-1.6-2.3c1.3-6.6,7.3-11.4,13.9-11.4c6.6,0,12.5,4.7,13.9,11.2
		c0.3,1-0.4,2.1-1.4,2.3c-1,0.3-2.1-0.4-2.3-1.4c-1-4.7-5.3-8-10.1-8c-4.9,0-9.1,3.5-10.1,8.3C552.8,85.1,552,85.7,551.1,85.7z"/>
</g>
<g>
	<path class="st2" d="M539.9,80.8c-0.1,0-0.4,0-0.5-0.1c-1-0.3-1.7-1.4-1.3-2.5c3.2-11,13.5-18.8,25.1-18.8
		c11.6,0,21.8,7.8,25.1,18.8c0.3,1-0.3,2.1-1.3,2.5c-1,0.3-2.1-0.3-2.5-1.3c-2.7-9.5-11.4-16-21.3-16c-9.9,0-18.6,6.6-21.3,16
		C541.5,80.3,540.7,80.8,539.9,80.8z"/>
</g>
<g>
	<path class="st2" d="M523.8,77.1c-0.1,0-0.4,0-0.5-0.1c-1-0.3-1.7-1.4-1.3-2.5c5.1-17.4,21.2-29.5,39.2-29.5
		c18,0,34.1,12.1,39.2,29.5c0.3,1-0.3,2.1-1.3,2.5c-1,0.3-2.1-0.3-2.5-1.3c-4.5-15.7-19.1-26.6-35.4-26.6
		c-16.4,0-30.9,10.9-35.4,26.6C525.5,76.6,524.8,77.1,523.8,77.1z"/>
</g>
<g>
	<circle class="st2" cx="506.8" cy="116.5" r="5.5"/>
</g>
<g>
	<path class="st2" d="M563.1,103.2c-1,0-1.9-0.9-1.9-1.9V85.7c0-1,0.9-1.9,1.9-1.9c1,0,1.9,0.9,1.9,1.9v15.6
		C565,102.5,564.2,103.2,563.1,103.2z"/>
</g>
<g>
	<path class="st2" d="M532.7,105.1H529c-1,0-1.9-0.9-1.9-1.9c0-1,0.9-1.9,1.9-1.9h3.6c1,0,1.9,0.9,1.9,1.9
		C534.6,104.1,533.7,105.1,532.7,105.1z"/>
</g>
<g>
	<path class="st2" d="M546.2,105.1h-6.2c-1,0-1.9-0.9-1.9-1.9c0-1,0.9-1.9,1.9-1.9h6.2c1,0,1.9,0.9,1.9,1.9
		C548.1,104.1,547.2,105.1,546.2,105.1z"/>
</g>
<g class="st1">
	<path class="st2" d="M389.3,412.3c-0.6,0-1.2-0.3-1.6-0.8c-0.5-0.6-1-1.4-1.6-2.1c-0.6-0.9-0.5-2.1,0.4-2.7
		c0.9-0.6,2.1-0.5,2.7,0.4c0.5,0.6,1,1.4,1.6,2.1c0.6,0.9,0.5,2.1-0.4,2.7C390.3,412.2,389.9,412.3,389.3,412.3z M381.4,402.1
		c-0.5,0-1.2-0.3-1.6-0.8c-0.5-0.6-1-1.3-1.7-1.9c-0.6-0.8-0.5-2.1,0.3-2.7c0.8-0.6,2.1-0.5,2.7,0.3c0.5,0.6,1,1.3,1.7,2.1
		c0.6,0.8,0.5,2.1-0.3,2.7C382.3,402,381.9,402.1,381.4,402.1z M373.1,392.1c-0.5,0-1-0.3-1.4-0.6c-0.5-0.6-1.2-1.3-1.7-1.9
		c-0.6-0.8-0.6-2.1,0.1-2.7c0.8-0.6,2.1-0.6,2.7,0.1c0.5,0.6,1.2,1.3,1.7,1.9c0.6,0.8,0.6,2.1-0.3,2.7
		C374,392,373.6,392.1,373.1,392.1z M364.4,382.5c-0.5,0-1-0.3-1.4-0.6c-0.6-0.6-1.2-1.3-1.8-1.9c-0.8-0.8-0.6-2.1,0.1-2.7
		c0.8-0.8,2.1-0.6,2.7,0.1c0.6,0.6,1.2,1.3,1.8,1.9c0.8,0.8,0.6,2.1-0.1,2.7C365.5,382.4,364.9,382.5,364.4,382.5z M355.5,373.1
		c-0.5,0-1-0.1-1.4-0.5c-0.6-0.6-1.2-1.2-1.8-1.8c-0.8-0.8-0.8-1.9,0-2.7c0.8-0.8,1.9-0.8,2.7,0c0.6,0.6,1.3,1.2,1.8,1.8
		c0.8,0.8,0.8,1.9,0,2.7C356.5,373,356,373.1,355.5,373.1z M346.1,364.2c-0.5,0-0.9-0.1-1.3-0.5c-0.6-0.6-1.3-1.2-1.9-1.7
		c-0.8-0.8-0.9-1.9-0.1-2.7c0.8-0.8,1.9-0.9,2.7-0.1c0.6,0.6,1.3,1.2,1.9,1.8c0.8,0.8,0.8,1.9,0.1,2.7
		C347.2,363.9,346.6,364.2,346.1,364.2z M336.5,355.5c-0.4,0-0.9-0.1-1.3-0.5c-0.6-0.5-1.3-1.2-1.9-1.7c-0.8-0.6-0.9-1.9-0.3-2.7
		c0.6-0.8,1.9-0.9,2.7-0.3c0.6,0.5,1.3,1.2,1.9,1.7c0.8,0.6,0.9,1.9,0.3,2.7C337.5,355.2,337,355.5,336.5,355.5z M326.5,347.2
		c-0.4,0-0.9-0.1-1.2-0.4c-0.6-0.5-1.3-1-2.1-1.6c-0.9-0.6-1-1.9-0.3-2.7c0.6-0.9,1.9-1,2.7-0.3c0.6,0.5,1.3,1,2.1,1.7
		c0.8,0.6,1,1.9,0.3,2.7C327.7,346.9,327,347.2,326.5,347.2z M316.3,339.3c-0.4,0-0.8-0.1-1.2-0.4c-0.6-0.5-1.4-1-2.1-1.6
		c-0.9-0.6-1-1.8-0.4-2.7c0.6-0.9,1.8-1,2.7-0.4c0.6,0.5,1.4,1,2.1,1.6c0.9,0.6,1,1.8,0.4,2.7C317.4,339,316.8,339.3,316.3,339.3z
		 M305.6,331.7c-0.4,0-0.8-0.1-1-0.4c-0.6-0.5-1.4-1-2.1-1.4c-0.9-0.6-1.2-1.8-0.5-2.7c0.6-0.9,1.8-1.2,2.7-0.5
		c0.8,0.5,1.4,1,2.2,1.4c0.9,0.6,1.2,1.8,0.5,2.7C306.9,331.3,306.3,331.7,305.6,331.7z M294.8,324.6c-0.4,0-0.8-0.1-1-0.3
		c-0.8-0.5-1.4-0.9-2.2-1.4c-0.9-0.5-1.2-1.8-0.6-2.7s1.8-1.2,2.7-0.6c0.8,0.5,1.4,0.9,2.2,1.4c0.9,0.5,1.2,1.8,0.6,2.7
		C296.1,324.2,295.5,324.6,294.8,324.6z M283.7,317.8c-0.4,0-0.6-0.1-1-0.3c-0.8-0.4-1.6-0.9-2.2-1.3c-0.9-0.5-1.3-1.7-0.8-2.6
		c0.5-0.9,1.7-1.3,2.6-0.8c0.8,0.4,1.6,0.9,2.2,1.3c0.9,0.5,1.3,1.7,0.6,2.7C285.1,317.4,284.4,317.8,283.7,317.8z M272.4,311.5
		c-0.3,0-0.6-0.1-0.9-0.3c-0.8-0.4-1.6-0.8-2.3-1.2c-0.9-0.5-1.3-1.7-0.8-2.6s1.7-1.3,2.6-0.8c0.8,0.4,1.6,0.8,2.3,1.2
		c0.9,0.5,1.3,1.7,0.8,2.6C273.8,311.1,273,311.5,272.4,311.5z M260.8,305.5c-0.3,0-0.5,0-0.9-0.3c-0.8-0.4-1.6-0.8-2.3-1.2
		c-0.9-0.5-1.4-1.7-0.9-2.6c0.5-0.9,1.7-1.4,2.6-0.9c0.8,0.4,1.6,0.8,2.3,1.2c0.9,0.5,1.4,1.7,0.9,2.6
		C262.2,305.1,261.6,305.5,260.8,305.5z M249,300c-0.3,0-0.5,0-0.8-0.1c-0.8-0.4-1.6-0.6-2.3-1c-1-0.4-1.4-1.6-1-2.6
		c0.4-1,1.6-1.4,2.6-1c0.8,0.4,1.6,0.6,2.3,1c1,0.4,1.4,1.6,1,2.6C250.4,299.7,249.8,300,249,300z M237.1,295c-0.3,0-0.5,0-0.8-0.1
		c-0.8-0.3-1.6-0.6-2.5-0.9c-1-0.4-1.6-1.6-1.2-2.5c0.4-1,1.6-1.6,2.5-1.2c0.8,0.3,1.6,0.6,2.5,0.9c1,0.4,1.4,1.6,1,2.5
		C238.6,294.6,237.8,295,237.1,295z M224.9,290.4c-0.3,0-0.4,0-0.6-0.1c-0.8-0.3-1.7-0.5-2.5-0.9c-1-0.4-1.6-1.4-1.2-2.5
		c0.4-1,1.4-1.6,2.5-1.2c0.8,0.3,1.7,0.5,2.5,0.9c1,0.4,1.6,1.4,1.2,2.5C226.4,289.9,225.6,290.4,224.9,290.4z M212.5,286.4
		c-0.1,0-0.4,0-0.5-0.1c-0.8-0.3-1.7-0.5-2.5-0.8c-1-0.3-1.6-1.4-1.3-2.5c0.3-1,1.4-1.6,2.5-1.3c0.8,0.3,1.7,0.5,2.5,0.8
		c1,0.3,1.6,1.4,1.3,2.5C214.2,285.9,213.4,286.4,212.5,286.4z M200.1,282.9c-0.1,0-0.3,0-0.5,0c-0.9-0.3-1.7-0.4-2.5-0.6
		c-1-0.3-1.7-1.3-1.4-2.3c0.3-1,1.3-1.7,2.3-1.4c0.8,0.3,1.7,0.4,2.6,0.6c1,0.3,1.7,1.3,1.4,2.3
		C201.7,282.4,200.8,282.9,200.1,282.9z M187.3,280.1c-0.1,0-0.3,0-0.4,0c-1.6-0.3-2.5-0.4-2.5-0.4c-1-0.1-1.8-1.2-1.7-2.2
		c0.1-1,1.2-1.8,2.2-1.7c0,0,0.9,0.1,2.6,0.4c1,0.1,1.8,1.2,1.6,2.2C189,279.4,188.2,280.1,187.3,280.1z"/>
</g>
<g class="st1">
	<path class="st2" d="M407.9,441.8c-1,0-1.9-0.8-1.9-1.8c0-0.9-0.1-1.7-0.1-2.6c0-1,0.8-1.9,1.8-2.1c1,0,1.9,0.8,2.1,1.8
		c0,0.9,0.1,1.7,0.1,2.6C409.9,440.9,409.1,441.8,407.9,441.8C408,441.8,407.9,441.8,407.9,441.8z M407.1,429c-1,0-1.8-0.8-1.9-1.8
		c-0.1-0.9-0.1-1.7-0.3-2.6c-0.1-1,0.6-2.1,1.8-2.1c1-0.1,2.1,0.6,2.1,1.8c0.1,0.9,0.1,1.7,0.3,2.6c0.1,1-0.6,2.1-1.8,2.1
		C407.1,429,407.1,429,407.1,429z M405.7,416c-0.9,0-1.8-0.8-1.9-1.7c-0.1-0.9-0.3-1.7-0.4-2.6c-0.1-1,0.6-2.1,1.7-2.2
		c1-0.1,2.1,0.6,2.2,1.7c0.1,0.9,0.3,1.7,0.4,2.6c0.1,1-0.6,2.1-1.7,2.2C405.8,416,405.8,416,405.7,416z M403.9,403.1
		c-0.9,0-1.8-0.6-1.9-1.7c-0.1-0.9-0.3-1.7-0.4-2.6c-0.1-1,0.5-2.1,1.6-2.2c1-0.1,2.1,0.5,2.2,1.6c0.1,0.9,0.3,1.7,0.4,2.6
		c0.1,1-0.5,2.1-1.6,2.2C404.1,403.1,404,403.1,403.9,403.1z M401.7,390.4c-0.9,0-1.7-0.6-1.9-1.6c-0.1-0.9-0.4-1.7-0.5-2.5
		c-0.3-1,0.5-2.1,1.6-2.3c1-0.3,2.1,0.5,2.3,1.6c0.1,0.9,0.4,1.7,0.5,2.6c0.3,1-0.5,2.1-1.6,2.3
		C401.9,390.4,401.8,390.4,401.7,390.4z M399,377.7c-0.9,0-1.7-0.6-1.9-1.6l-0.6-2.5c-0.3-1,0.4-2.1,1.4-2.3c1-0.3,2.1,0.4,2.3,1.4
		l0.6,2.6c0.3,1-0.4,2.1-1.4,2.3C399.2,377.7,399.1,377.7,399,377.7z M395.8,365.1c-0.9,0-1.7-0.5-1.8-1.4c-0.3-0.8-0.4-1.7-0.6-2.5
		c-0.3-1,0.4-2.1,1.4-2.3c1-0.3,2.1,0.4,2.3,1.4c0.3,0.8,0.5,1.7,0.6,2.5c0.3,1-0.4,2.1-1.4,2.3C396.1,365.1,396,365.1,395.8,365.1z
		 M392.2,352.6c-0.8,0-1.6-0.5-1.8-1.4c-0.3-0.8-0.5-1.7-0.8-2.5c-0.3-1,0.3-2.1,1.3-2.5c1-0.3,2.1,0.3,2.5,1.3
		c0.3,0.8,0.5,1.7,0.8,2.5c0.3,1-0.3,2.1-1.3,2.5C392.6,352.6,392.5,352.6,392.2,352.6z M388.3,340.3c-0.8,0-1.6-0.5-1.8-1.3
		c-0.3-0.8-0.5-1.7-0.8-2.5c-0.4-1,0.3-2.1,1.2-2.5c1-0.4,2.1,0.3,2.5,1.2c0.3,0.8,0.5,1.7,0.8,2.5c0.4,1-0.3,2.1-1.2,2.5
		C388.7,340.2,388.6,340.3,388.3,340.3z M384,328c-0.8,0-1.6-0.5-1.8-1.3c-0.3-0.8-0.6-1.6-0.9-2.5c-0.4-1,0.1-2.1,1.2-2.5
		s2.1,0.1,2.5,1.2c0.3,0.8,0.6,1.7,0.9,2.5c0.4,1-0.1,2.1-1.2,2.5C384.5,328,384.3,328,384,328z M379.4,315.9
		c-0.8,0-1.6-0.5-1.8-1.2l-0.9-2.5c-0.4-1,0.1-2.1,1-2.6c1-0.4,2.1,0.1,2.6,1l0.9,2.5c0.4,1-0.1,2.1-1,2.5
		C379.9,315.8,379.6,315.9,379.4,315.9z M374.4,303.8c-0.8,0-1.4-0.4-1.8-1.2c-0.4-0.8-0.6-1.6-1-2.3c-0.4-1,0-2.1,1-2.6
		c1-0.4,2.1,0,2.6,1c0.4,0.8,0.6,1.6,1,2.3c0.4,1,0,2.1-1,2.6C374.9,303.8,374.7,303.8,374.4,303.8z M369.2,292
		c-0.8,0-1.4-0.4-1.8-1.2l-1-2.3c-0.5-1,0-2.1,0.9-2.6c1-0.5,2.1,0,2.6,0.9l1,2.3c0.4,1,0,2.1-0.9,2.6
		C369.7,291.9,369.5,292,369.2,292z M363.6,280.2c-0.8,0-1.4-0.4-1.7-1l-1.2-2.3c-0.5-0.9-0.1-2.1,0.9-2.6c0.9-0.5,2.1-0.1,2.6,0.9
		l1.2,2.3c0.5,0.9,0.1,2.1-0.9,2.6C364.2,280.2,363.9,280.2,363.6,280.2z M357.8,268.6c-0.6,0-1.4-0.4-1.7-1l-1.2-2.3
		c-0.5-0.9-0.1-2.1,0.8-2.6s2.1-0.1,2.6,0.8l1.2,2.3c0.5,0.9,0.1,2.1-0.8,2.6C358.3,268.6,358.1,268.6,357.8,268.6z M351.6,257.2
		c-0.6,0-1.3-0.4-1.7-1l-1.3-2.2c-0.5-0.9-0.1-2.1,0.8-2.6s2.1-0.1,2.6,0.8l1.3,2.3c0.5,0.9,0.1,2.1-0.8,2.6
		C352.2,257.1,352,257.2,351.6,257.2z M345.2,245.9c-0.6,0-1.3-0.4-1.7-0.9l-1.3-2.2c-0.5-0.9-0.3-2.1,0.6-2.7
		c0.9-0.5,2.1-0.3,2.7,0.6l1.3,2.2c0.5,0.9,0.3,2.1-0.6,2.7C345.9,245.8,345.6,245.9,345.2,245.9z M338.6,234.7
		c-0.6,0-1.3-0.4-1.7-0.9l-1.3-2.2c-0.5-0.9-0.3-2.1,0.6-2.7c0.9-0.5,2.1-0.3,2.7,0.6l1.3,2.2c0.5,0.9,0.3,2.1-0.6,2.7
		C339.2,234.6,339,234.7,338.6,234.7z M331.7,223.7c-0.6,0-1.3-0.3-1.7-0.9l-1.4-2.2c-0.6-0.9-0.4-2.1,0.5-2.7
		c0.9-0.5,2.1-0.4,2.7,0.5l1.4,2.2c0.5,0.9,0.3,2.1-0.6,2.7C332.4,223.6,332.1,223.7,331.7,223.7z M324.6,212.8
		c-0.6,0-1.3-0.3-1.6-0.9l-1.4-2.2c-0.6-0.9-0.4-2.1,0.5-2.7c0.9-0.6,2.1-0.4,2.7,0.5l1.4,2.2c0.6,0.9,0.4,2.1-0.5,2.7
		C325.3,212.7,325,212.8,324.6,212.8z M317.2,202.2c-0.6,0-1.2-0.3-1.6-0.8l-1.4-2.1c-0.6-0.9-0.4-2.1,0.5-2.7
		c0.9-0.6,2.1-0.4,2.7,0.5l1.6,2.1c0.6,0.9,0.4,2.1-0.5,2.7C317.9,202,317.6,202.2,317.2,202.2z M309.6,191.5
		c-0.6,0-1.2-0.3-1.6-0.8c-0.5-0.6-1-1.4-1.6-2.1c-0.6-0.9-0.5-2.1,0.4-2.7c0.9-0.6,2.1-0.5,2.7,0.4c0.5,0.6,1,1.4,1.6,2.1
		c0.6,0.9,0.4,2.1-0.4,2.7C310.4,191.4,310,191.5,309.6,191.5z M301.8,181.1c-0.6,0-1.2-0.3-1.6-0.8l-1.6-2.1
		c-0.6-0.9-0.5-2.1,0.4-2.7c0.9-0.6,2.1-0.5,2.7,0.4l1.6,2.1c0.6,0.9,0.5,2.1-0.4,2.7C302.8,181,302.2,181.1,301.8,181.1z
		 M293.8,170.9c-0.5,0-1.2-0.3-1.6-0.8l-1.7-2.1c-0.6-0.8-0.5-2.1,0.3-2.7s2.1-0.5,2.7,0.3l1.7,2.1c0.6,0.8,0.5,2.1-0.3,2.7
		C294.7,170.7,294.3,170.9,293.8,170.9z M285.6,160.9c-0.5,0-1.2-0.3-1.6-0.6l-1.7-1.9c-0.6-0.8-0.6-2.1,0.3-2.7
		c0.8-0.6,2.1-0.6,2.7,0.3l1.7,1.9c0.6,0.8,0.5,2.1-0.3,2.7C286.5,160.7,286,160.9,285.6,160.9z M277.2,151c-0.5,0-1-0.3-1.4-0.6
		c-0.6-0.6-1.2-1.3-1.7-1.9c-0.8-0.8-0.6-2.1,0.1-2.7c0.8-0.8,2.1-0.6,2.7,0.1c0.5,0.6,1.2,1.3,1.7,1.9c0.6,0.8,0.6,2.1-0.1,2.7
		C278.1,150.9,277.6,151,277.2,151z M268.4,141.4c-0.5,0-1-0.3-1.4-0.6c-1.2-1.2-1.8-1.8-1.8-1.8c-0.8-0.8-0.8-1.9,0-2.7
		c0.8-0.8,1.9-0.8,2.7,0c0,0,0.6,0.6,1.8,1.9c0.8,0.8,0.6,2.1-0.1,2.7C269.3,141.1,268.9,141.4,268.4,141.4z"/>
</g>
<g class="st1">
	<path class="st2" d="M430.1,440.7c-0.3,0-0.5,0-0.8-0.1c-1-0.4-1.4-1.6-1-2.6c0,0,0.4-0.9,1.2-2.5c0.5-0.9,1.6-1.4,2.6-0.9
		c0.9,0.5,1.4,1.6,0.9,2.6c-0.6,1.4-1,2.2-1,2.3C431.7,440.1,430.9,440.7,430.1,440.7z M436.1,429.1c-0.4,0-0.6-0.1-1-0.3
		c-0.9-0.5-1.3-1.7-0.6-2.7c0.4-0.8,0.9-1.4,1.3-2.2c0.5-0.9,1.8-1.2,2.7-0.6s1.2,1.8,0.6,2.7c-0.5,0.8-0.9,1.6-1.3,2.2
		C437.4,428.7,436.7,429.1,436.1,429.1z M443.1,418.2c-0.4,0-0.8-0.1-1.2-0.4c-0.9-0.6-1-1.8-0.5-2.7c0.5-0.6,1-1.4,1.6-2.1
		c0.6-0.9,1.8-1,2.7-0.4c0.9,0.6,1,1.8,0.4,2.7c-0.5,0.6-1,1.4-1.4,2.1C444.4,417.8,443.7,418.2,443.1,418.2z M451,407.8
		c-0.4,0-0.9-0.1-1.2-0.4c-0.8-0.6-0.9-1.9-0.3-2.7c0.5-0.6,1-1.3,1.7-2.1c0.6-0.8,1.9-0.9,2.7-0.3c0.8,0.6,0.9,1.9,0.3,2.7
		c-0.5,0.6-1,1.3-1.7,1.9C452.1,407.5,451.5,407.8,451,407.8z M459.5,397.9c-0.5,0-0.9-0.1-1.3-0.5c-0.8-0.8-0.8-1.9-0.1-2.7
		c0.6-0.6,1.2-1.3,1.8-1.9c0.8-0.8,1.9-0.8,2.7,0c0.8,0.8,0.8,1.9,0,2.7c-0.6,0.6-1.2,1.3-1.8,1.8
		C460.5,397.8,460,397.9,459.5,397.9z M468.7,388.7c-0.5,0-1-0.3-1.4-0.6c-0.8-0.8-0.6-2.1,0.1-2.7c0.6-0.6,1.3-1.2,1.9-1.8
		c0.8-0.8,2.1-0.6,2.7,0.1c0.8,0.8,0.6,2.1-0.1,2.7c-0.6,0.6-1.3,1.2-1.8,1.8C469.6,388.6,469.1,388.7,468.7,388.7z M478.3,380.2
		c-0.5,0-1.2-0.3-1.6-0.6c-0.6-0.8-0.5-2.1,0.3-2.7c0.6-0.5,1.3-1.2,2.1-1.7c0.8-0.6,2.1-0.5,2.7,0.3c0.6,0.8,0.5,2.1-0.3,2.7
		c-0.6,0.5-1.3,1-1.9,1.7C479.2,380,478.8,380.2,478.3,380.2z M488.5,372.1c-0.6,0-1.2-0.3-1.6-0.8c-0.6-0.9-0.4-2.1,0.4-2.7
		c0.6-0.5,1.4-1,2.1-1.6c0.9-0.6,2.1-0.4,2.7,0.4c0.6,0.9,0.4,2.1-0.4,2.7c-0.6,0.5-1.4,1-2.1,1.6
		C489.3,372,488.9,372.1,488.5,372.1z M499.2,364.8c-0.6,0-1.3-0.3-1.7-0.9c-0.6-0.9-0.4-2.1,0.5-2.7c0.8-0.5,1.4-0.9,2.2-1.4
		c0.9-0.5,2.1-0.3,2.7,0.6c0.6,0.9,0.3,2.1-0.6,2.7c-0.8,0.5-1.4,0.9-2.2,1.4C500,364.7,499.6,364.8,499.2,364.8z M510.3,358.1
		c-0.6,0-1.3-0.4-1.7-1c-0.5-0.9-0.3-2.1,0.8-2.6c0.8-0.4,1.6-0.9,2.3-1.3c0.9-0.5,2.1-0.1,2.6,0.8c0.5,0.9,0.1,2.1-0.8,2.6
		c-0.8,0.4-1.6,0.8-2.2,1.3C511,358,510.6,358.1,510.3,358.1z M521.8,352c-0.8,0-1.4-0.4-1.7-1c-0.5-0.9-0.1-2.1,0.9-2.6
		c0.8-0.4,1.6-0.8,2.3-1.2c0.9-0.5,2.1,0,2.6,0.9c0.5,0.9,0,2.1-0.9,2.6c-0.8,0.4-1.6,0.8-2.3,1.2C522.4,351.8,522,352,521.8,352z
		 M533.6,346.5c-0.8,0-1.4-0.4-1.8-1.2c-0.4-1,0-2.1,1-2.6c0.8-0.4,1.6-0.6,2.5-1c1-0.4,2.1,0,2.6,1c0.4,1,0,2.1-1,2.6
		c-0.8,0.4-1.6,0.6-2.3,1C534.1,346.4,533.8,346.5,533.6,346.5z M545.5,341.6c-0.8,0-1.6-0.5-1.8-1.3c-0.4-1,0.1-2.1,1.2-2.5
		c0.8-0.3,1.7-0.6,2.5-0.9c1-0.4,2.1,0.1,2.5,1.2c0.4,1-0.1,2.1-1.2,2.5c-0.8,0.3-1.6,0.6-2.5,0.9
		C546,341.6,545.8,341.6,545.5,341.6z M557.9,337.4c-0.8,0-1.6-0.5-1.8-1.3c-0.4-1,0.3-2.1,1.3-2.5c0.8-0.3,1.7-0.5,2.5-0.8
		c1-0.3,2.1,0.3,2.5,1.3c0.3,1-0.3,2.1-1.3,2.5c-0.8,0.3-1.7,0.5-2.5,0.8C558.2,337.3,558,337.4,557.9,337.4z M570.3,333.8
		c-0.9,0-1.7-0.5-1.8-1.4c-0.3-1,0.4-2.1,1.4-2.3c0.8-0.3,1.7-0.4,2.5-0.6c1-0.3,2.1,0.4,2.3,1.4c0.3,1-0.4,2.1-1.4,2.3
		c-0.8,0.3-1.7,0.4-2.5,0.6C570.6,333.7,570.5,333.8,570.3,333.8z M582.9,330.7c-0.9,0-1.7-0.6-1.9-1.6c-0.3-1,0.4-2.1,1.4-2.3
		c0.9-0.1,1.7-0.4,2.6-0.5c1-0.3,2.1,0.4,2.3,1.6c0.3,1-0.4,2.1-1.6,2.3c-0.8,0.1-1.7,0.4-2.5,0.5
		C583.2,330.7,583,330.7,582.9,330.7z M595.6,328.1c-0.9,0-1.7-0.6-1.9-1.6c-0.1-1,0.5-2.1,1.6-2.2c0.9-0.1,1.7-0.3,2.6-0.4
		c1-0.1,2.1,0.5,2.2,1.6c0.1,1-0.5,2.1-1.6,2.2c-0.9,0.1-1.7,0.3-2.6,0.4C595.9,328.1,595.8,328.1,595.6,328.1z M608.5,326.1
		c-0.9,0-1.8-0.6-1.9-1.7c-0.1-1,0.6-2.1,1.7-2.2c0.9-0.1,1.7-0.3,2.6-0.4c1-0.1,2.1,0.6,2.2,1.7c0.1,1-0.6,2.1-1.7,2.2
		c-0.9,0.1-1.7,0.3-2.6,0.4C608.6,326.1,608.5,326.1,608.5,326.1z"/>
</g>
<g>
	<g>
		<rect x="318.6" y="468.3" class="st5" width="198.2" height="157.1"/>
	</g>
	<g>
		<rect x="283.4" y="442.2" class="st3" width="268.6" height="62.6"/>
		<path class="st2" d="M552,506.7H283.4c-1,0-1.9-0.9-1.9-1.9v-62.6c0-1,0.9-1.9,1.9-1.9H552c1,0,1.9,0.9,1.9,1.9v62.6
			C554,505.8,553.1,506.7,552,506.7z M285.4,502.8h264.7v-58.7H285.4V502.8z"/>
	</g>
	<g>
		<path class="st2" d="M429.9,475.4H310.4c-1,0-1.9-0.9-1.9-1.9c0-1,0.9-1.9,1.9-1.9h119.4c1,0,1.9,0.9,1.9,1.9
			C431.8,474.5,430.9,475.4,429.9,475.4z"/>
	</g>
	<g>
		<rect x="283.4" y="517.6" class="st3" width="268.6" height="62.6"/>
		<path class="st2" d="M552,582.2H283.4c-1,0-1.9-0.9-1.9-1.9v-62.6c0-1,0.9-1.9,1.9-1.9H552c1,0,1.9,0.9,1.9,1.9v62.6
			C554,581.3,553.1,582.2,552,582.2z M285.4,578.3h264.7v-58.7H285.4V578.3z"/>
	</g>
	<g>
		<path class="st2" d="M429.9,550.9H310.4c-1,0-1.9-0.9-1.9-1.9s0.9-1.9,1.9-1.9h119.4c1,0,1.9,0.9,1.9,1.9S430.9,550.9,429.9,550.9
			z"/>
	</g>
	<g>
		<rect x="283.4" y="592" class="st3" width="268.6" height="62.6"/>
		<path class="st2" d="M552,656.4H283.4c-1,0-1.9-0.9-1.9-1.9v-62.6c0-1,0.9-1.9,1.9-1.9H552c1,0,1.9,0.9,1.9,1.9v62.6
			C554,655.6,553.1,656.4,552,656.4z M285.4,652.5h264.7v-58.7H285.4V652.5z"/>
	</g>
	<g>
		<path class="st2" d="M429.9,625.3H310.4c-1,0-1.9-0.9-1.9-1.9s0.9-1.9,1.9-1.9h119.4c1,0,1.9,0.9,1.9,1.9S430.9,625.3,429.9,625.3
			z"/>
	</g>
	<g>
		<circle class="st6" cx="466.9" cy="473.2" r="11.8"/>
		<path class="st5" d="M466.9,486.9c-7.5,0-13.8-6.1-13.8-13.8c0-7.7,6.1-13.8,13.8-13.8c7.7,0,13.8,6.1,13.8,13.8
			C480.6,480.8,474.4,486.9,466.9,486.9z M466.9,463.4c-5.5,0-9.9,4.4-9.9,9.9s4.4,9.9,9.9,9.9s9.9-4.4,9.9-9.9
			S472.3,463.4,466.9,463.4z"/>
	</g>
	<g>
		<circle class="st7" cx="514" cy="473.2" r="11.8"/>
		<path class="st5" d="M514,486.9c-7.5,0-13.8-6.1-13.8-13.8c0-7.7,6.1-13.8,13.8-13.8c7.7,0,13.8,6.1,13.8,13.8
			C527.7,480.8,521.5,486.9,514,486.9z M514,463.4c-5.5,0-9.9,4.4-9.9,9.9s4.4,9.9,9.9,9.9s9.9-4.4,9.9-9.9S519.4,463.4,514,463.4z"
			/>
	</g>
	<g>
		<circle class="st8" cx="466.9" cy="547.5" r="11.8"/>
		<path class="st5" d="M466.9,561.3c-7.5,0-13.8-6.1-13.8-13.8s6.1-13.8,13.8-13.8c7.7,0,13.8,6.1,13.8,13.8
			S474.4,561.3,466.9,561.3z M466.9,537.6c-5.5,0-9.9,4.4-9.9,9.9s4.4,9.9,9.9,9.9s9.9-4.4,9.9-9.9S472.3,537.6,466.9,537.6z"/>
	</g>
	<g>
		<circle class="st6" cx="514" cy="547.5" r="11.8"/>
		<path class="st5" d="M514,561.3c-7.5,0-13.8-6.1-13.8-13.8s6.1-13.8,13.8-13.8c7.7,0,13.8,6.1,13.8,13.8S521.5,561.3,514,561.3z
			 M514,537.6c-5.5,0-9.9,4.4-9.9,9.9s4.4,9.9,9.9,9.9s9.9-4.4,9.9-9.9S519.4,537.6,514,537.6z"/>
	</g>
	<g>
		<circle class="st7" cx="466.9" cy="623.1" r="11.8"/>
		<path class="st5" d="M466.9,636.8c-7.5,0-13.8-6.1-13.8-13.8c0-7.7,6.1-13.8,13.8-13.8c7.7,0,13.8,6.1,13.8,13.8
			C480.6,630.7,474.4,636.8,466.9,636.8z M466.9,613.2c-5.5,0-9.9,4.4-9.9,9.9s4.4,9.9,9.9,9.9s9.9-4.4,9.9-9.9
			S472.3,613.2,466.9,613.2z"/>
	</g>
	<g>
		<circle class="st8" cx="514" cy="623.1" r="11.8"/>
		<path class="st5" d="M514,636.8c-7.5,0-13.8-6.1-13.8-13.8c0-7.7,6.1-13.8,13.8-13.8c7.7,0,13.8,6.1,13.8,13.8
			C527.7,630.7,521.5,636.8,514,636.8z M514,613.2c-5.5,0-9.9,4.4-9.9,9.9s4.4,9.9,9.9,9.9s9.9-4.4,9.9-9.9S519.4,613.2,514,613.2z"
			/>
	</g>
</g>
<g>
	<rect x="304.1" y="369.9" class="st3" width="205.9" height="70.1"/>
	<g>
		<g>
			<path class="st2" d="M383.2,387.3v9.2H367v46.1h-11.4v-46.1h-16.2v-9.2H383.2z"/>
			<path class="st2" d="M433.1,442.6h-8.8c-1,0-1.8-0.3-2.5-0.6c-0.6-0.5-1-1-1.4-1.8l-3.8-10.5h-22.1l-3.8,10.5
				c-0.3,0.6-0.6,1.2-1.3,1.7c-0.6,0.5-1.4,0.8-2.5,0.8h-9l21.7-55.3h11.7L433.1,442.6z M397.4,421.6h16.5l-6-16.9
				c-0.4-0.9-0.8-1.9-1.2-3.1c-0.4-1.2-0.8-2.5-1.2-3.9c-0.4,1.4-0.8,2.7-1.2,3.9c-0.4,1.2-0.8,2.2-1.2,3.1L397.4,421.6z"/>
			<path class="st2" d="M473.5,441.8c-3.2,0.9-6.6,1.4-10.1,1.4c-4.5,0-8.7-0.6-12.3-2.1c-3.6-1.4-6.9-3.4-9.5-5.8
				c-2.6-2.5-4.7-5.5-6.1-9c-1.4-3.5-2.1-7.3-2.1-11.3c0-4.2,0.6-7.9,2.1-11.4c1.3-3.5,3.2-6.5,5.8-9c2.6-2.5,5.6-4.4,9.1-5.8
				c3.6-1.4,7.5-2.1,11.9-2.1c2.3,0,4.4,0.1,6.4,0.5c1.9,0.4,3.8,0.9,5.5,1.6c1.7,0.6,3.2,1.4,4.7,2.3c1.4,0.9,2.7,1.8,3.8,3
				l-3.4,5.1c-0.5,0.8-1.2,1.3-1.9,1.4c-0.8,0.1-1.7,0-2.7-0.6c-0.9-0.5-1.8-1-2.7-1.6c-0.9-0.5-1.8-0.8-2.9-1.2s-2.1-0.6-3.2-0.8
				c-1.2-0.1-2.5-0.3-4-0.3c-2.6,0-4.9,0.4-7,1.3c-2.1,0.9-3.9,2.2-5.3,3.8c-1.4,1.7-2.6,3.6-3.4,5.8c-0.8,2.3-1.2,4.8-1.2,7.7
				c0,3.1,0.4,5.8,1.3,8.2c0.9,2.5,2.1,4.4,3.6,6.1c1.6,1.7,3.5,2.9,5.7,3.8c2.2,0.9,4.7,1.3,7.4,1.3c1.8,0,3.5-0.1,4.9-0.5
				c1.4-0.4,2.9-0.9,4.2-1.6v-9.3h-6.1c-0.8,0-1.3-0.3-1.7-0.6c-0.4-0.4-0.6-0.9-0.6-1.6v-6.4h19V437
				C479.6,439.4,476.6,440.9,473.5,441.8z"/>
		</g>
	</g>
</g>
</svg>
