<?xml version="1.0" encoding="utf-8"?>
<!-- Generator: Adobe Illustrator 21.1.0, SVG Export Plug-In . SVG Version: 6.00 Build 0)  -->
<svg version="1.1" id="Layer_1" xmlns="http://www.w3.org/2000/svg" xmlns:xlink="http://www.w3.org/1999/xlink" x="0px" y="0px"
	 width="900px" height="724.8px" viewBox="0 0 900 724.8" style="enable-background:new 0 0 900 724.8;" xml:space="preserve">
<style type="text/css">
	.st0{opacity:0.7;}
	.st1{fill:#41ACE1;}
	.st2{opacity:0.6;}
	.st3{fill:#404751;}
	.st4{fill:#FFFFFF;}
	.st5{opacity:5.000000e-02;}
	.st6{fill:#D75352;}
	.st7{fill:#E6BC45;}
</style>
<g class="st0">
	<path class="st1" d="M625.6,194.1H509.7c-6.6,0-12-5.4-12-12V97.4c0-6.6,5.4-12,12-12h115.9c6.6,0,12,5.4,12,12v84.8
		C637.6,188.7,632.2,194.1,625.6,194.1z"/>
</g>
<g class="st2">
	<g>
		<path class="st3" d="M474.7,412.2c-0.1,0-0.1,0-0.2,0c-0.8-0.1-1.4-0.8-1.3-1.7c0,0,0.1-0.7,0.3-2c0.1-0.8,0.9-1.4,1.7-1.3
			c0.8,0.1,1.4,0.9,1.3,1.7c-0.2,1.3-0.3,2-0.3,2C476.1,411.6,475.4,412.2,474.7,412.2z M476.1,402.2c-0.1,0-0.2,0-0.2,0
			c-0.8-0.1-1.4-0.9-1.2-1.7l0.3-2c0.1-0.8,0.9-1.4,1.7-1.2c0.8,0.1,1.4,0.9,1.2,1.7l-0.3,2C477.5,401.7,476.8,402.2,476.1,402.2z
			 M477.8,392.4c-0.1,0-0.2,0-0.3,0c-0.8-0.1-1.4-0.9-1.2-1.7l0.4-2c0.1-0.8,0.9-1.4,1.7-1.2c0.8,0.1,1.4,0.9,1.2,1.7l-0.4,2
			C479.1,391.8,478.5,392.4,477.8,392.4z M479.6,382.5c-0.1,0-0.2,0-0.3,0c-0.8-0.2-1.3-0.9-1.2-1.8l0.4-2c0.2-0.8,1-1.3,1.8-1.2
			c0.8,0.2,1.3,1,1.2,1.8l-0.4,2C481,382,480.3,382.5,479.6,382.5z M481.7,372.7c-0.1,0-0.2,0-0.3,0c-0.8-0.2-1.3-1-1.2-1.8l0.4-2
			c0.2-0.8,1-1.3,1.8-1.1c0.8,0.2,1.3,1,1.1,1.8l-0.4,2C483,372.2,482.3,372.7,481.7,372.7z M483.8,362.9c-0.1,0-0.2,0-0.3,0
			c-0.8-0.2-1.3-1-1.1-1.8l0.5-2c0.2-0.8,1-1.3,1.8-1.1c0.8,0.2,1.3,1,1.1,1.8l-0.5,1.9C485.1,362.5,484.5,362.9,483.8,362.9z
			 M486.2,353.2c-0.1,0-0.2,0-0.4,0c-0.8-0.2-1.3-1-1.1-1.8l0.5-1.9c0.2-0.8,1-1.3,1.8-1.1c0.8,0.2,1.3,1,1.1,1.8l-0.5,1.9
			C487.5,352.7,486.9,353.2,486.2,353.2z M488.7,343.5c-0.1,0-0.3,0-0.4-0.1c-0.8-0.2-1.3-1-1.1-1.8l0.5-1.9c0.2-0.8,1-1.3,1.8-1.1
			c0.8,0.2,1.3,1,1.1,1.8l-0.5,1.9C490,343.1,489.4,343.5,488.7,343.5z M491.4,333.9c-0.1,0-0.3,0-0.4-0.1c-0.8-0.2-1.3-1.1-1-1.9
			l0.6-1.9c0.2-0.8,1.1-1.3,1.9-1c0.8,0.2,1.3,1.1,1,1.9l-0.6,1.9C492.6,333.4,492,333.9,491.4,333.9z M494.2,324.3
			c-0.1,0-0.3,0-0.4-0.1c-0.8-0.2-1.2-1.1-1-1.9l0.6-1.9c0.2-0.8,1.1-1.2,1.9-1c0.8,0.2,1.2,1.1,1,1.9l-0.6,1.9
			C495.5,323.9,494.9,324.3,494.2,324.3z M497.3,314.7c-0.2,0-0.3,0-0.5-0.1c-0.8-0.3-1.2-1.1-1-1.9l0.6-1.9c0.3-0.8,1.1-1.2,1.9-1
			c0.8,0.3,1.2,1.1,1,1.9l-0.6,1.9C498.5,314.3,497.9,314.7,497.3,314.7z M500.5,305.3c-0.2,0-0.3,0-0.5-0.1
			c-0.8-0.3-1.2-1.1-0.9-1.9l0.7-1.9c0.3-0.8,1.1-1.2,1.9-0.9c0.8,0.3,1.2,1.1,0.9,1.9l-0.7,1.9
			C501.7,304.9,501.1,305.3,500.5,305.3z M503.9,295.8c-0.2,0-0.4,0-0.5-0.1c-0.8-0.3-1.2-1.2-0.9-1.9l0.7-1.9
			c0.3-0.8,1.2-1.2,1.9-0.9c0.8,0.3,1.2,1.2,0.9,1.9l-0.7,1.9C505,295.5,504.5,295.8,503.9,295.8z M507.4,286.5
			c-0.2,0-0.4,0-0.6-0.1c-0.8-0.3-1.1-1.2-0.8-1.9c0.2-0.6,0.5-1.2,0.7-1.9c0.3-0.8,1.2-1.1,2-0.8c0.8,0.3,1.1,1.2,0.8,2
			c-0.2,0.6-0.5,1.2-0.7,1.9C508.6,286.1,508,286.5,507.4,286.5z M511.2,277.2c-0.2,0-0.4,0-0.6-0.1c-0.8-0.3-1.1-1.2-0.8-2
			c0.3-0.6,0.5-1.2,0.8-1.8c0.3-0.8,1.2-1.1,2-0.8c0.8,0.3,1.1,1.2,0.8,2c-0.3,0.6-0.5,1.2-0.8,1.8
			C512.4,276.9,511.8,277.2,511.2,277.2z M515.2,268.1c-0.2,0-0.4,0-0.6-0.1c-0.8-0.3-1.1-1.2-0.8-2c0.3-0.6,0.6-1.2,0.8-1.8
			c0.3-0.8,1.2-1.1,2-0.7c0.8,0.3,1.1,1.2,0.7,2c-0.3,0.6-0.6,1.2-0.8,1.8C516.4,267.7,515.8,268.1,515.2,268.1z M519.5,259
			c-0.2,0-0.4,0-0.6-0.1c-0.7-0.4-1.1-1.3-0.7-2l0.9-1.8c0.4-0.7,1.3-1.1,2-0.7c0.7,0.4,1.1,1.3,0.7,2l-0.9,1.8
			C520.6,258.7,520,259,519.5,259z M523.9,250.1c-0.2,0-0.5-0.1-0.7-0.2c-0.7-0.4-1-1.3-0.6-2l0.9-1.8c0.4-0.7,1.3-1,2-0.6
			c0.7,0.4,1,1.3,0.6,2l-0.9,1.8C525,249.8,524.5,250.1,523.9,250.1z M528.6,241.2c-0.2,0-0.5-0.1-0.7-0.2c-0.7-0.4-1-1.3-0.6-2
			c0.3-0.6,0.7-1.2,1-1.8c0.4-0.7,1.3-1,2-0.6c0.7,0.4,1,1.3,0.6,2c-0.3,0.6-0.6,1.2-1,1.7C529.7,241,529.1,241.2,528.6,241.2z
			 M533.6,232.6c-0.3,0-0.5-0.1-0.8-0.2c-0.7-0.4-0.9-1.3-0.5-2.1c0.3-0.6,0.7-1.2,1-1.7c0.4-0.7,1.3-0.9,2.1-0.5
			c0.7,0.4,0.9,1.3,0.5,2.1c-0.3,0.6-0.7,1.1-1,1.7C534.6,232.3,534.1,232.6,533.6,232.6z M538.8,224c-0.3,0-0.6-0.1-0.8-0.2
			c-0.7-0.4-0.9-1.4-0.5-2.1c0.4-0.6,0.7-1.1,1.1-1.7c0.5-0.7,1.4-0.9,2.1-0.4c0.7,0.5,0.9,1.4,0.4,2.1c-0.4,0.6-0.7,1.1-1.1,1.7
			C539.8,223.8,539.3,224,538.8,224z M544.4,215.7c-0.3,0-0.6-0.1-0.9-0.3c-0.7-0.5-0.9-1.4-0.4-2.1c0.4-0.6,0.8-1.1,1.2-1.7
			c0.5-0.7,1.4-0.8,2.1-0.4c0.7,0.5,0.8,1.4,0.4,2.1c-0.4,0.5-0.8,1.1-1.1,1.6C545.3,215.5,544.8,215.7,544.4,215.7z M550.2,207.6
			c-0.3,0-0.6-0.1-0.9-0.3c-0.7-0.5-0.8-1.4-0.3-2.1c0.4-0.5,0.8-1.1,1.2-1.6c0.5-0.7,1.4-0.8,2.1-0.3c0.7,0.5,0.8,1.4,0.3,2.1
			c-0.4,0.5-0.8,1.1-1.2,1.6C551.1,207.3,550.7,207.6,550.2,207.6z M556.4,199.7c-0.3,0-0.7-0.1-0.9-0.3c-0.6-0.5-0.7-1.5-0.2-2.1
			c0.4-0.5,0.8-1,1.3-1.6c0.5-0.6,1.5-0.7,2.1-0.2c0.6,0.5,0.7,1.5,0.2,2.1c-0.4,0.5-0.8,1-1.3,1.5
			C557.2,199.5,556.8,199.7,556.4,199.7z"/>
	</g>
</g>
<g>
	<path class="st4" d="M395.4,179.3H294.9c-6.6,0-12-5.4-12-12V94.4c0-6.6,5.4-12,12-12h100.6c6.6,0,12,5.4,12,12v72.9
		C407.4,173.9,402,179.3,395.4,179.3z"/>
	<path class="st3" d="M395.4,180.8H294.9c-7.4,0-13.5-6.1-13.5-13.5V94.4c0-7.4,6.1-13.5,13.5-13.5h100.6c7.4,0,13.5,6.1,13.5,13.5
		v72.9C408.9,174.8,402.9,180.8,395.4,180.8z M294.9,83.9c-5.8,0-10.5,4.7-10.5,10.5v72.9c0,5.8,4.7,10.5,10.5,10.5h100.6
		c5.8,0,10.5-4.7,10.5-10.5V94.4c0-5.8-4.7-10.5-10.5-10.5H294.9z"/>
</g>
<g>
	<path class="st4" d="M276.8,333.6H176.2c-6.6,0-12-5.4-12-12v-72.9c0-6.6,5.4-12,12-12h100.6c6.6,0,12,5.4,12,12v72.9
		C288.8,328.2,283.4,333.6,276.8,333.6z"/>
	<path class="st3" d="M276.8,335.1H176.2c-7.4,0-13.5-6.1-13.5-13.5v-72.9c0-7.4,6.1-13.5,13.5-13.5h100.6c7.4,0,13.5,6.1,13.5,13.5
		v72.9C290.3,329,284.2,335.1,276.8,335.1z M176.2,238.2c-5.8,0-10.5,4.7-10.5,10.5v72.9c0,5.8,4.7,10.5,10.5,10.5h100.6
		c5.8,0,10.5-4.7,10.5-10.5v-72.9c0-5.8-4.7-10.5-10.5-10.5H176.2z"/>
</g>
<g class="st5">
	<path d="M727.2,573.3c-19,19.9-36,40-82.3,54.3c-22.1,7.1-53.4,11.9-86.5,13.8c-33.4,2-68.6,1-106.2-1.6
		c-73.3-4.5-154.2-17-204.6-30.4c-50.9-13.5-70.1-24.2-84.9-33.8c-10.6-9.7-21-20.1,21.8-33.5c40.8-13.4,148.6-26.2,272.2-33.2
		c123.1-8.2,230.1-7,266.4,8.4C761.4,532,741.6,553.5,727.2,573.3z"/>
</g>
<g>
	<path class="st3" d="M570.6,574.4H231.4c-0.8,0-1.5-0.7-1.5-1.5s0.7-1.5,1.5-1.5h339.2c0.8,0,1.5,0.7,1.5,1.5
		S571.4,574.4,570.6,574.4z"/>
</g>
<g>
	<path class="st3" d="M639.8,574.4h-52.4c-0.8,0-1.5-0.7-1.5-1.5s0.7-1.5,1.5-1.5h52.4c0.8,0,1.5,0.7,1.5,1.5
		S640.7,574.4,639.8,574.4z"/>
</g>
<g>
	<path class="st3" d="M218.6,574.4h-19.8c-0.8,0-1.5-0.7-1.5-1.5s0.7-1.5,1.5-1.5h19.8c0.8,0,1.5,0.7,1.5,1.5
		S219.4,574.4,218.6,574.4z"/>
</g>
<g>
	<path class="st3" d="M702.1,574.4h-47.5c-0.8,0-1.5-0.7-1.5-1.5s0.7-1.5,1.5-1.5h47.5c0.8,0,1.5,0.7,1.5,1.5S703,574.4,702.1,574.4
		z"/>
</g>
<g>
	<path class="st3" d="M345.5,150.4c-1.9,0-3.8-0.3-5.6-0.8c-0.8-0.2-1.2-1.1-1-1.9c0.2-0.8,1.1-1.2,1.9-1c1.5,0.5,3.1,0.7,4.7,0.7
		c9,0,16.2-7.3,16.2-16.2c0-1.4-0.2-2.9-0.6-4.2c-0.2-0.8,0.3-1.6,1.1-1.8c0.8-0.2,1.6,0.3,1.8,1.1c0.4,1.6,0.7,3.3,0.7,5
		C364.7,141.7,356.1,150.4,345.5,150.4z"/>
</g>
<g>
	<path class="st3" d="M328.3,137.1c-0.7,0-1.3-0.4-1.4-1.1c-0.4-1.6-0.6-3.2-0.6-4.9c0-10.6,8.6-19.2,19.2-19.2
		c2.5,0,4.9,0.5,7.2,1.4c0.8,0.3,1.1,1.2,0.8,2c-0.3,0.8-1.2,1.1-2,0.8c-1.9-0.8-4-1.2-6.1-1.2c-9,0-16.2,7.3-16.2,16.2
		c0,1.4,0.2,2.8,0.5,4.1c0.2,0.8-0.3,1.6-1.1,1.8C328.6,137.1,328.5,137.1,328.3,137.1z"/>
</g>
<g>
	<path class="st3" d="M335.3,137.3c-0.6,0-1.1-0.3-1.4-0.9c-0.8-1.7-1.2-3.5-1.2-5.3c0-7,5.7-12.7,12.7-12.7c0.9,0,1.7,0.1,2.6,0.3
		c0.8,0.2,1.3,1,1.2,1.8c-0.2,0.8-1,1.3-1.8,1.2c-0.6-0.1-1.3-0.2-2-0.2c-5.4,0-9.7,4.4-9.7,9.7c0,1.4,0.3,2.8,0.9,4.1
		c0.3,0.8,0,1.6-0.7,2C335.7,137.3,335.5,137.3,335.3,137.3z"/>
</g>
<g>
	<path class="st3" d="M345.5,143.9c-0.6,0-1.3,0-1.9-0.1c-0.8-0.1-1.4-0.9-1.3-1.7c0.1-0.8,0.9-1.4,1.7-1.3c0.5,0.1,1,0.1,1.4,0.1
		c5.4,0,9.7-4.4,9.7-9.7c0-0.8-0.1-1.5-0.3-2.2c-0.2-0.8,0.3-1.6,1.1-1.8c0.8-0.2,1.6,0.3,1.8,1.1c0.2,1,0.3,1.9,0.3,2.9
		C358.2,138.1,352.5,143.9,345.5,143.9z"/>
</g>
<g>
	<path class="st3" d="M327.8,107.7c-0.6,0-1.2-0.1-1.8-0.3c-2-0.6-3.7-2.3-4.2-4.4c-0.1-0.5-0.2-1-0.2-1.6c0-3.4,2.8-6.2,6.2-6.2
		c0.8,0,1.6,0.2,2.3,0.4c1.8,0.7,3.2,2.3,3.7,4.1c0.1,0.5,0.2,1.1,0.2,1.6C334,104.9,331.2,107.7,327.8,107.7z M327.8,98.2
		c-1.8,0-3.2,1.4-3.2,3.2c0,0.3,0,0.6,0.1,0.8c0.3,1.1,1.1,1.9,2.2,2.3c0.3,0.1,0.6,0.1,0.9,0.1c1.8,0,3.2-1.4,3.2-3.2
		c0-0.3,0-0.6-0.1-0.8c-0.3-1-1-1.8-1.9-2.1C328.6,98.3,328.2,98.2,327.8,98.2z"/>
</g>
<g>
	<path class="st3" d="M310.9,136.9c-0.6,0-1.2-0.1-1.8-0.3c-2-0.6-3.7-2.3-4.2-4.4c-0.1-0.5-0.2-1-0.2-1.6c0-3.4,2.8-6.2,6.2-6.2
		c0.8,0,1.6,0.2,2.3,0.4c1.8,0.7,3.2,2.3,3.7,4.1c0.1,0.5,0.2,1.1,0.2,1.6C317.1,134.1,314.3,136.9,310.9,136.9z M310.9,127.5
		c-1.8,0-3.2,1.4-3.2,3.2c0,0.3,0,0.6,0.1,0.8c0.3,1.1,1.1,1.9,2.2,2.3c0.3,0.1,0.6,0.1,0.9,0.1c1.8,0,3.2-1.4,3.2-3.2
		c0-0.3,0-0.6-0.1-0.8c-0.3-1-1-1.8-1.9-2.1C311.7,127.6,311.3,127.5,310.9,127.5z"/>
</g>
<g>
	<path class="st3" d="M327.8,167c-0.6,0-1.2-0.1-1.8-0.3c-2-0.6-3.7-2.3-4.2-4.4c-0.1-0.5-0.2-1-0.2-1.6c0-3.4,2.8-6.2,6.2-6.2
		c0.8,0,1.6,0.2,2.3,0.4c1.8,0.7,3.2,2.3,3.7,4.1c0.1,0.5,0.2,1.1,0.2,1.6C334,164.2,331.2,167,327.8,167z M327.8,157.6
		c-1.8,0-3.2,1.4-3.2,3.2c0,0.3,0,0.6,0.1,0.8c0.3,1.1,1.1,1.9,2.2,2.3c0.3,0.1,0.6,0.1,0.9,0.1c1.8,0,3.2-1.4,3.2-3.2
		c0-0.3,0-0.6-0.1-0.8c-0.3-1-1-1.8-1.9-2.1C328.6,157.7,328.2,157.6,327.8,157.6z"/>
</g>
<g>
	<path class="st3" d="M362.6,167c-0.6,0-1.2-0.1-1.8-0.3c-2-0.6-3.7-2.3-4.2-4.4c-0.1-0.5-0.2-1-0.2-1.6c0-3.4,2.8-6.2,6.2-6.2
		c0.8,0,1.6,0.2,2.3,0.4c1.8,0.7,3.2,2.3,3.7,4.1c0.1,0.5,0.2,1.1,0.2,1.6C368.8,164.2,366,167,362.6,167z M362.6,157.6
		c-1.8,0-3.2,1.4-3.2,3.2c0,0.3,0,0.6,0.1,0.8c0.3,1.1,1.1,1.9,2.2,2.2c0.3,0.1,0.6,0.1,0.9,0.1c1.8,0,3.2-1.4,3.2-3.2
		c0-0.3,0-0.6-0.1-0.8c-0.3-1-1-1.8-1.9-2.1C363.4,157.7,363,157.6,362.6,157.6z"/>
</g>
<g>
	<path class="st3" d="M379.7,137.3c-0.6,0-1.2-0.1-1.8-0.3c-2-0.6-3.7-2.3-4.2-4.4c-0.1-0.5-0.2-1-0.2-1.6c0-3.4,2.8-6.2,6.2-6.2
		c0.8,0,1.6,0.2,2.3,0.4c1.8,0.7,3.2,2.3,3.7,4.1c0.1,0.5,0.2,1.1,0.2,1.6C386,134.5,383.2,137.3,379.7,137.3z M379.7,127.9
		c-1.8,0-3.2,1.4-3.2,3.2c0,0.3,0,0.6,0.1,0.8c0.3,1.1,1.1,1.9,2.2,2.3c0.3,0.1,0.6,0.1,0.9,0.1c1.8,0,3.2-1.4,3.2-3.2
		c0-0.3,0-0.6-0.1-0.8c-0.3-1-1-1.8-1.9-2.1C380.6,128,380.2,127.9,379.7,127.9z"/>
</g>
<g>
	<path class="st3" d="M362.6,106.7c-0.6,0-1.2-0.1-1.8-0.3c-2.1-0.6-3.7-2.3-4.2-4.4c-0.1-0.5-0.2-1-0.2-1.6c0-3.4,2.8-6.2,6.2-6.2
		c0.8,0,1.6,0.2,2.3,0.4c1.8,0.7,3.2,2.3,3.7,4.1c0.1,0.5,0.2,1.1,0.2,1.6C368.8,103.9,366,106.7,362.6,106.7z M362.6,97.2
		c-1.8,0-3.2,1.4-3.2,3.2c0,0.3,0,0.6,0.1,0.8c0.3,1.1,1.1,1.9,2.2,2.3c0.3,0.1,0.6,0.1,0.9,0.1c1.8,0,3.2-1.4,3.2-3.2
		c0-0.3,0-0.6-0.1-0.8c-0.3-1-1-1.8-1.9-2.1C363.4,97.3,363,97.2,362.6,97.2z"/>
</g>
<g>
	<path class="st3" d="M313.5,127.4c-0.3,0-0.6-0.1-0.8-0.2c-0.7-0.4-0.9-1.4-0.5-2.1l8.8-13.8c0.4-0.7,1.4-0.9,2.1-0.5
		c0.7,0.4,0.9,1.4,0.5,2.1l-8.8,13.8C314.5,127.1,314,127.4,313.5,127.4z"/>
</g>
<g>
	<path class="st3" d="M349.7,102.9h-16.3c-0.8,0-1.5-0.7-1.5-1.5s0.7-1.5,1.5-1.5h16.3c0.8,0,1.5,0.7,1.5,1.5
		S350.6,102.9,349.7,102.9z"/>
</g>
<g>
	<path class="st3" d="M356.7,162.7h-17.5c-0.8,0-1.5-0.7-1.5-1.5s0.7-1.5,1.5-1.5h17.5c0.8,0,1.5,0.7,1.5,1.5
		S357.6,162.7,356.7,162.7z"/>
</g>
<g>
	<path class="st3" d="M367.5,152.7c-0.3,0-0.6-0.1-0.8-0.2c-0.7-0.5-0.9-1.4-0.4-2.1l10.1-15.4c0.5-0.7,1.4-0.9,2.1-0.4
		c0.7,0.5,0.9,1.4,0.4,2.1L368.8,152C368.5,152.5,368,152.7,367.5,152.7z"/>
</g>
<g>
	<path class="st3" d="M374.4,123.3c-0.5,0-1-0.3-1.3-0.7l-9.7-16.7c-0.4-0.7-0.2-1.6,0.5-2c0.7-0.4,1.6-0.2,2,0.5l9.7,16.7
		c0.4,0.7,0.2,1.6-0.5,2C374.9,123.3,374.6,123.3,374.4,123.3z"/>
</g>
<g>
	<path class="st3" d="M325.4,157c-0.5,0-1-0.3-1.3-0.7l-9.1-15.5c-0.4-0.7-0.2-1.6,0.5-2.1c0.7-0.4,1.6-0.2,2.1,0.5l9.1,15.5
		c0.4,0.7,0.2,1.6-0.5,2.1C326,156.9,325.7,157,325.4,157z"/>
</g>
<g>
	<path class="st3" d="M345.5,137.8c-3.7,0-6.6-3-6.6-6.6c0-3.7,3-6.6,6.6-6.6c3.7,0,6.6,3,6.6,6.6
		C352.1,134.8,349.2,137.8,345.5,137.8z M345.5,127.5c-2,0-3.6,1.6-3.6,3.6s1.6,3.6,3.6,3.6s3.6-1.6,3.6-3.6
		S347.5,127.5,345.5,127.5z"/>
</g>
<g>
	<path class="st3" d="M199.3,272.5h5v21h8v3.8h-13V272.5z"/>
	<path class="st3" d="M216,276.4v-3.8h18.4v3.8h-6.7v21h-5v-21H216z"/>
	<path class="st3" d="M254.4,272.5v3.8H245v6.5h8.3v3.8H245v6.9h9.3v3.8H240v-24.9H254.4z"/>
</g>
<g>
	<path class="st3" d="M551,154.4c-0.1,0-0.3,0-0.4,0c-1.1-0.2-1.8-1.3-1.6-2.4c1.7-8.3,9.1-14.3,17.5-14.3c8.3,0,15.7,5.9,17.5,14
		c0.2,1.1-0.4,2.1-1.5,2.4c-1.1,0.2-2.1-0.4-2.4-1.5c-1.4-6.3-7.1-10.9-13.6-10.9c-6.6,0-12.3,4.7-13.6,11.1
		C552.8,153.7,552,154.4,551,154.4z"/>
</g>
<g>
	<path class="st3" d="M536.6,148.1c-0.2,0-0.4,0-0.6-0.1c-1.1-0.3-1.7-1.4-1.4-2.5c4.1-14.1,17.2-24,31.9-24
		c14.7,0,27.8,9.9,31.9,24c0.3,1.1-0.3,2.2-1.4,2.5c-1.1,0.3-2.2-0.3-2.5-1.4c-3.6-12.4-15.1-21.1-28.1-21.1
		c-12.9,0-24.5,8.7-28.1,21.1C538.2,147.5,537.4,148.1,536.6,148.1z"/>
</g>
<g>
	<path class="st3" d="M518.3,143.4c-0.2,0-0.4,0-0.6-0.1c-1.1-0.3-1.7-1.4-1.4-2.5c6.4-22.2,27-37.7,50.2-37.7
		c23.1,0,43.7,15.5,50.2,37.7c0.3,1.1-0.3,2.2-1.4,2.5c-1.1,0.3-2.2-0.3-2.5-1.4c-5.9-20.5-25-34.8-46.3-34.8
		c-21.4,0-40.4,14.3-46.3,34.8C520,142.8,519.2,143.4,518.3,143.4z"/>
</g>
<g>
	<path class="st3" d="M566.6,170.9c-4.4,0-7.9-3.6-7.9-7.9s3.6-7.9,7.9-7.9c4.4,0,7.9,3.6,7.9,7.9S570.9,170.9,566.6,170.9z
		 M566.6,159.1c-2.2,0-3.9,1.8-3.9,3.9s1.8,3.9,3.9,3.9c2.2,0,3.9-1.8,3.9-3.9S568.7,159.1,566.6,159.1z"/>
</g>
<g class="st2">
	<g>
		<path class="st3" d="M453.4,393.9c-0.5,0-0.9-0.2-1.2-0.6l-0.4-0.5c-0.5-0.7-0.3-1.6,0.3-2.1c0.7-0.5,1.6-0.3,2.1,0.3l0.4,0.5
			c0.5,0.7,0.3,1.6-0.3,2.1C454,393.8,453.7,393.9,453.4,393.9z M448.3,386.9c-0.5,0-0.9-0.2-1.2-0.6c-0.4-0.5-0.8-1.1-1.2-1.6
			c-0.5-0.7-0.4-1.6,0.3-2.1s1.6-0.4,2.1,0.3c0.4,0.5,0.8,1.1,1.2,1.6c0.5,0.7,0.4,1.6-0.3,2.1C448.9,386.8,448.6,386.9,448.3,386.9
			z M442.1,379.1c-0.4,0-0.9-0.2-1.2-0.5c-0.4-0.5-0.8-1-1.3-1.5c-0.5-0.6-0.4-1.6,0.2-2.1c0.6-0.5,1.6-0.4,2.1,0.2
			c0.4,0.5,0.9,1,1.3,1.5c0.5,0.6,0.4,1.6-0.2,2.1C442.7,379,442.4,379.1,442.1,379.1z M435.6,371.5c-0.4,0-0.8-0.2-1.1-0.5
			c-0.4-0.5-0.9-1-1.3-1.5c-0.6-0.6-0.5-1.6,0.1-2.1c0.6-0.6,1.6-0.5,2.1,0.1c0.4,0.5,0.9,1,1.3,1.5c0.6,0.6,0.5,1.6-0.1,2.1
			C436.3,371.4,435.9,371.5,435.6,371.5z M428.8,364.2c-0.4,0-0.8-0.2-1.1-0.5c-0.5-0.5-0.9-1-1.4-1.4c-0.6-0.6-0.6-1.5,0-2.1
			c0.6-0.6,1.5-0.6,2.1,0c0.5,0.5,0.9,1,1.4,1.4c0.6,0.6,0.6,1.5,0,2.1C429.5,364,429.2,364.2,428.8,364.2z M421.7,357.1
			c-0.4,0-0.8-0.1-1-0.4c-0.5-0.5-1-0.9-1.4-1.4c-0.6-0.6-0.6-1.5-0.1-2.1c0.6-0.6,1.5-0.6,2.1-0.1c0.5,0.5,1,0.9,1.5,1.4
			c0.6,0.6,0.6,1.5,0,2.1C422.5,356.9,422.1,357.1,421.7,357.1z M414.4,350.3c-0.4,0-0.7-0.1-1-0.4c-0.5-0.4-1-0.9-1.5-1.3
			c-0.6-0.5-0.7-1.5-0.1-2.1c0.5-0.6,1.5-0.7,2.1-0.1c0.5,0.4,1,0.9,1.5,1.3c0.6,0.6,0.7,1.5,0.1,2.1
			C415.2,350.1,414.8,350.3,414.4,350.3z M406.8,343.7c-0.3,0-0.7-0.1-1-0.3c-0.5-0.4-1-0.8-1.5-1.3c-0.6-0.5-0.7-1.5-0.2-2.1
			c0.5-0.6,1.5-0.7,2.1-0.2c0.5,0.4,1,0.8,1.6,1.3c0.6,0.5,0.7,1.5,0.2,2.1C407.7,343.6,407.3,343.7,406.8,343.7z M399,337.5
			c-0.3,0-0.6-0.1-0.9-0.3c-0.5-0.4-1.1-0.8-1.6-1.2c-0.7-0.5-0.8-1.4-0.3-2.1c0.5-0.7,1.4-0.8,2.1-0.3c0.5,0.4,1.1,0.8,1.6,1.2
			c0.7,0.5,0.8,1.4,0.3,2.1C399.9,337.3,399.5,337.5,399,337.5z M391,331.6c-0.3,0-0.6-0.1-0.9-0.3c-0.5-0.4-1.1-0.8-1.6-1.1
			c-0.7-0.5-0.8-1.4-0.4-2.1c0.5-0.7,1.4-0.8,2.1-0.4c0.5,0.4,1.1,0.8,1.6,1.2c0.7,0.5,0.8,1.4,0.4,2.1
			C391.9,331.4,391.4,331.6,391,331.6z M382.7,325.9c-0.3,0-0.6-0.1-0.8-0.2c-0.6-0.4-1.1-0.7-1.7-1.1c-0.7-0.4-0.9-1.4-0.4-2.1
			c0.4-0.7,1.4-0.9,2.1-0.4c0.6,0.4,1.1,0.7,1.7,1.1c0.7,0.5,0.9,1.4,0.4,2.1C383.7,325.7,383.2,325.9,382.7,325.9z M374.2,320.6
			c-0.3,0-0.5-0.1-0.8-0.2c-0.6-0.3-1.1-0.7-1.7-1c-0.7-0.4-0.9-1.3-0.5-2.1c0.4-0.7,1.3-0.9,2.1-0.5c0.6,0.3,1.1,0.7,1.7,1
			c0.7,0.4,0.9,1.3,0.5,2.1C375.2,320.4,374.7,320.6,374.2,320.6z M365.6,315.6c-0.2,0-0.5-0.1-0.7-0.2c-0.6-0.3-1.2-0.6-1.7-1
			c-0.7-0.4-1-1.3-0.6-2c0.4-0.7,1.3-1,2-0.6c0.6,0.3,1.2,0.6,1.8,1c0.7,0.4,1,1.3,0.6,2C366.6,315.3,366.1,315.6,365.6,315.6z
			 M356.7,310.9c-0.2,0-0.5-0.1-0.7-0.2c-0.6-0.3-1.2-0.6-1.8-0.9c-0.7-0.4-1-1.3-0.7-2c0.4-0.7,1.3-1,2-0.7
			c0.6,0.3,1.2,0.6,1.8,0.9c0.7,0.4,1,1.3,0.7,2C357.8,310.6,357.3,310.9,356.7,310.9z M347.7,306.6c-0.2,0-0.4,0-0.6-0.1
			c-0.6-0.3-1.2-0.6-1.8-0.8c-0.8-0.3-1.1-1.2-0.7-2c0.3-0.8,1.2-1.1,2-0.7c0.6,0.3,1.2,0.6,1.8,0.8c0.8,0.3,1.1,1.2,0.7,2
			C348.8,306.2,348.3,306.6,347.7,306.6z M338.6,302.5c-0.2,0-0.4,0-0.6-0.1c-0.6-0.3-1.2-0.5-1.8-0.8c-0.8-0.3-1.1-1.2-0.8-2
			c0.3-0.8,1.2-1.1,2-0.8c0.6,0.3,1.2,0.5,1.9,0.8c0.8,0.3,1.1,1.2,0.8,2C339.7,302.2,339.2,302.5,338.6,302.5z M329.3,298.8
			c-0.2,0-0.4,0-0.5-0.1c-0.6-0.2-1.2-0.5-1.9-0.7c-0.8-0.3-1.2-1.1-0.9-1.9c0.3-0.8,1.1-1.2,1.9-0.9c0.6,0.2,1.3,0.5,1.9,0.7
			c0.8,0.3,1.2,1.2,0.9,1.9C330.4,298.5,329.9,298.8,329.3,298.8z M319.8,295.5c-0.2,0-0.3,0-0.5-0.1c-0.6-0.2-1.3-0.4-1.9-0.6
			c-0.8-0.3-1.2-1.1-1-1.9c0.3-0.8,1.1-1.2,1.9-1c0.6,0.2,1.3,0.4,1.9,0.6c0.8,0.3,1.2,1.1,1,1.9C321,295.1,320.5,295.5,319.8,295.5
			z M310.3,292.5c-0.1,0-0.3,0-0.4-0.1c-0.7-0.2-1.3-0.4-1.9-0.5c-0.8-0.2-1.3-1.1-1-1.8c0.2-0.8,1.1-1.3,1.8-1
			c0.6,0.2,1.3,0.4,1.9,0.5c0.8,0.2,1.3,1.1,1,1.9C311.5,292.1,310.9,292.5,310.3,292.5z M300.6,290c-0.1,0-0.2,0-0.4,0
			c-0.7-0.2-1.3-0.3-1.9-0.5c-0.8-0.2-1.3-1-1.1-1.8c0.2-0.8,1-1.3,1.8-1.1c0.6,0.1,1.3,0.3,2,0.5c0.8,0.2,1.3,1,1.1,1.8
			C301.9,289.5,301.3,290,300.6,290z M290.8,287.9c-0.1,0-0.2,0-0.3,0c-1.3-0.2-1.9-0.3-1.9-0.3c-0.8-0.1-1.4-0.9-1.3-1.7
			c0.1-0.8,0.9-1.4,1.7-1.3c0,0,0.7,0.1,2,0.3c0.8,0.1,1.4,0.9,1.2,1.7C292.1,287.4,291.5,287.9,290.8,287.9z"/>
	</g>
</g>
<g class="st2">
	<g>
		<path class="st3" d="M468.6,409c-0.8,0-1.5-0.6-1.5-1.4c0-0.7-0.1-1.3-0.1-2c-0.1-0.8,0.6-1.5,1.4-1.6c0.8,0,1.5,0.6,1.6,1.4
			c0,0.7,0.1,1.3,0.1,2C470.1,408.2,469.5,409,468.6,409C468.6,409,468.6,409,468.6,409z M467.8,399c-0.8,0-1.4-0.6-1.5-1.3
			c-0.1-0.7-0.1-1.3-0.2-2c-0.1-0.8,0.5-1.6,1.3-1.7c0.8-0.1,1.6,0.5,1.7,1.3c0.1,0.7,0.1,1.3,0.2,2c0.1,0.8-0.5,1.6-1.3,1.6
			C467.9,399,467.8,399,467.8,399z M466.6,389.1c-0.7,0-1.4-0.5-1.5-1.3c-0.1-0.7-0.2-1.3-0.3-2c-0.1-0.8,0.4-1.6,1.3-1.7
			c0.8-0.1,1.6,0.4,1.7,1.3c0.1,0.7,0.2,1.3,0.3,2c0.1,0.8-0.5,1.6-1.3,1.7C466.7,389.1,466.7,389.1,466.6,389.1z M465,379.2
			c-0.7,0-1.3-0.5-1.5-1.2c-0.1-0.7-0.2-1.3-0.4-2c-0.2-0.8,0.4-1.6,1.2-1.8c0.8-0.2,1.6,0.4,1.8,1.2c0.1,0.7,0.2,1.3,0.4,2
			c0.1,0.8-0.4,1.6-1.2,1.7C465.2,379.2,465.1,379.2,465,379.2z M463,369.4c-0.7,0-1.3-0.5-1.5-1.2c-0.1-0.6-0.3-1.3-0.4-1.9
			c-0.2-0.8,0.3-1.6,1.1-1.8c0.8-0.2,1.6,0.3,1.8,1.1c0.2,0.7,0.3,1.3,0.4,2c0.2,0.8-0.3,1.6-1.1,1.8
			C463.2,369.4,463.1,369.4,463,369.4z M460.7,359.7c-0.7,0-1.3-0.4-1.5-1.1c-0.2-0.6-0.3-1.3-0.5-1.9c-0.2-0.8,0.3-1.6,1.1-1.8
			c0.8-0.2,1.6,0.3,1.8,1.1c0.2,0.6,0.3,1.3,0.5,1.9c0.2,0.8-0.3,1.6-1.1,1.8C460.9,359.7,460.8,359.7,460.7,359.7z M458,350.1
			c-0.6,0-1.2-0.4-1.4-1.1c-0.2-0.6-0.4-1.3-0.6-1.9c-0.2-0.8,0.2-1.6,1-1.9c0.8-0.2,1.6,0.2,1.9,1c0.2,0.6,0.4,1.3,0.6,1.9
			c0.2,0.8-0.2,1.6-1,1.9C458.2,350.1,458.1,350.1,458,350.1z M454.9,340.6c-0.6,0-1.2-0.4-1.4-1c-0.2-0.6-0.4-1.3-0.6-1.9
			c-0.3-0.8,0.1-1.6,0.9-1.9c0.8-0.3,1.6,0.1,1.9,0.9c0.2,0.6,0.4,1.3,0.6,1.9c0.3,0.8-0.2,1.6-0.9,1.9
			C455.2,340.5,455.1,340.6,454.9,340.6z M451.6,331.1c-0.6,0-1.2-0.4-1.4-1c-0.2-0.6-0.5-1.2-0.7-1.9c-0.3-0.8,0.1-1.6,0.9-1.9
			c0.8-0.3,1.6,0.1,1.9,0.9c0.2,0.6,0.5,1.3,0.7,1.9c0.3,0.8-0.1,1.6-0.9,1.9C451.9,331.1,451.8,331.1,451.6,331.1z M448,321.8
			c-0.6,0-1.2-0.4-1.4-0.9c-0.3-0.6-0.5-1.2-0.8-1.8c-0.3-0.8,0-1.6,0.8-2c0.8-0.3,1.6,0,2,0.8c0.3,0.6,0.5,1.2,0.8,1.9
			c0.3,0.8-0.1,1.6-0.8,2C448.3,321.8,448.1,321.8,448,321.8z M444,312.6c-0.6,0-1.1-0.3-1.4-0.9c-0.3-0.6-0.5-1.2-0.8-1.8
			c-0.3-0.8,0-1.6,0.8-2c0.8-0.3,1.6,0,2,0.8c0.3,0.6,0.5,1.2,0.8,1.8c0.3,0.8,0,1.6-0.8,2C444.4,312.6,444.2,312.6,444,312.6z
			 M439.9,303.5c-0.6,0-1.1-0.3-1.4-0.9c-0.3-0.6-0.6-1.2-0.9-1.8c-0.4-0.7,0-1.6,0.7-2c0.7-0.4,1.6,0,2,0.7
			c0.3,0.6,0.6,1.2,0.9,1.8c0.4,0.7,0,1.6-0.7,2C440.3,303.5,440.1,303.5,439.9,303.5z M435.4,294.6c-0.5,0-1.1-0.3-1.3-0.8
			c-0.3-0.6-0.6-1.2-0.9-1.8c-0.4-0.7-0.1-1.6,0.6-2c0.7-0.4,1.6-0.1,2,0.6c0.3,0.6,0.6,1.2,0.9,1.8c0.4,0.7,0.1,1.6-0.7,2
			C435.9,294.5,435.6,294.6,435.4,294.6z M430.8,285.7c-0.5,0-1-0.3-1.3-0.8c-0.3-0.6-0.6-1.2-1-1.7c-0.4-0.7-0.1-1.6,0.6-2
			c0.7-0.4,1.6-0.1,2,0.6c0.3,0.6,0.6,1.2,1,1.8c0.4,0.7,0.1,1.6-0.6,2C431.2,285.7,431,285.7,430.8,285.7z M425.9,277
			c-0.5,0-1-0.3-1.3-0.8l-1-1.7c-0.4-0.7-0.2-1.6,0.5-2.1c0.7-0.4,1.6-0.2,2.1,0.5l1,1.7c0.4,0.7,0.2,1.6-0.5,2
			C426.4,276.9,426.1,277,425.9,277z M420.8,268.4c-0.5,0-1-0.3-1.3-0.7c-0.3-0.6-0.7-1.1-1-1.7c-0.4-0.7-0.2-1.6,0.5-2.1
			c0.7-0.4,1.6-0.2,2.1,0.5c0.4,0.6,0.7,1.1,1,1.7c0.4,0.7,0.2,1.6-0.5,2.1C421.3,268.3,421,268.4,420.8,268.4z M415.4,259.9
			c-0.5,0-1-0.2-1.3-0.7l-1.1-1.7c-0.5-0.7-0.3-1.6,0.4-2.1c0.7-0.5,1.6-0.3,2.1,0.4c0.4,0.6,0.7,1.1,1.1,1.7
			c0.4,0.7,0.2,1.6-0.5,2.1C416,259.8,415.7,259.9,415.4,259.9z M409.9,251.5c-0.5,0-1-0.2-1.2-0.7l-1.1-1.7
			c-0.5-0.7-0.3-1.6,0.4-2.1c0.7-0.5,1.6-0.3,2.1,0.4l1.1,1.7c0.5,0.7,0.3,1.6-0.4,2.1C410.5,251.5,410.2,251.5,409.9,251.5z
			 M404.2,243.3c-0.5,0-0.9-0.2-1.2-0.6l-1.2-1.6c-0.5-0.7-0.3-1.6,0.4-2.1c0.7-0.5,1.6-0.3,2.1,0.4l1.2,1.6
			c0.5,0.7,0.3,1.6-0.4,2.1C404.9,243.2,404.5,243.3,404.2,243.3z M398.4,235.2c-0.5,0-0.9-0.2-1.2-0.6L396,233
			c-0.5-0.7-0.4-1.6,0.3-2.1c0.7-0.5,1.6-0.4,2.1,0.3l1.2,1.6c0.5,0.7,0.4,1.6-0.3,2.1C399,235.1,398.7,235.2,398.4,235.2z
			 M392.3,227.2c-0.4,0-0.9-0.2-1.2-0.6l-1.2-1.6c-0.5-0.7-0.4-1.6,0.3-2.1c0.7-0.5,1.6-0.4,2.1,0.3l1.2,1.6
			c0.5,0.7,0.4,1.6-0.3,2.1C393,227.1,392.7,227.2,392.3,227.2z M386.1,219.4c-0.4,0-0.9-0.2-1.2-0.6l-1.3-1.6
			c-0.5-0.6-0.4-1.6,0.2-2.1c0.6-0.5,1.6-0.4,2.1,0.2l1.3,1.6c0.5,0.6,0.4,1.6-0.2,2.1C386.8,219.2,386.5,219.4,386.1,219.4z
			 M379.8,211.6c-0.4,0-0.9-0.2-1.1-0.5l-1.3-1.5c-0.5-0.6-0.5-1.6,0.2-2.1c0.6-0.5,1.6-0.5,2.1,0.2l1.3,1.5
			c0.5,0.6,0.5,1.6-0.2,2.1C380.5,211.5,380.1,211.6,379.8,211.6z M373.2,204c-0.4,0-0.8-0.2-1.1-0.5l-1.3-1.5
			c-0.6-0.6-0.5-1.6,0.1-2.1c0.6-0.6,1.6-0.5,2.1,0.1l1.3,1.5c0.5,0.6,0.5,1.6-0.1,2.1C373.9,203.9,373.6,204,373.2,204z
			 M366.5,196.6c-0.4,0-0.8-0.2-1.1-0.5c-0.5-0.5-0.9-1-1.4-1.5c-0.6-0.6-0.5-1.6,0.1-2.1c0.6-0.6,1.6-0.5,2.1,0.1
			c0.4,0.5,0.9,1,1.4,1.5c0.6,0.6,0.5,1.6-0.1,2.1C367.3,196.5,366.9,196.6,366.5,196.6z M359.7,189.3c-0.4,0-0.8-0.2-1.1-0.5
			c-0.5-0.5-0.9-1-1.4-1.4c-0.6-0.6-0.6-1.5,0-2.1c0.6-0.6,1.5-0.6,2.1,0c0.5,0.5,0.9,0.9,1.4,1.4c0.6,0.6,0.6,1.5,0,2.1
			C360.4,189.2,360,189.3,359.7,189.3z M352.6,182.2c-0.4,0-0.7-0.1-1-0.4c-0.9-0.9-1.4-1.4-1.4-1.4c-0.6-0.6-0.6-1.5-0.1-2.1
			c0.6-0.6,1.5-0.6,2.1-0.1c0,0,0.5,0.5,1.5,1.4c0.6,0.6,0.6,1.5,0,2.1C353.3,182,352.9,182.2,352.6,182.2z"/>
	</g>
</g>
<g class="st2">
	<g>
		<path class="st3" d="M485.6,410.2c-0.2,0-0.3,0-0.5-0.1c-0.8-0.3-1.2-1.1-0.9-1.9c0,0,0.2-0.7,0.8-2c0.3-0.8,1.2-1.1,2-0.8
			c0.8,0.3,1.1,1.2,0.8,2c-0.5,1.1-0.7,1.8-0.7,1.8C486.8,409.8,486.2,410.2,485.6,410.2z M489.7,401.1c-0.2,0-0.5-0.1-0.7-0.2
			c-0.7-0.4-1-1.3-0.6-2c0.3-0.6,0.6-1.2,1-1.8c0.4-0.7,1.3-1,2-0.6c0.7,0.4,1,1.3,0.6,2c-0.3,0.6-0.6,1.2-0.9,1.7
			C490.8,400.8,490.3,401.1,489.7,401.1z M494.8,392.5c-0.3,0-0.6-0.1-0.8-0.2c-0.7-0.5-0.9-1.4-0.4-2.1c0.4-0.6,0.7-1.1,1.1-1.7
			c0.5-0.7,1.4-0.9,2.1-0.4c0.7,0.5,0.9,1.4,0.4,2.1c-0.4,0.6-0.7,1.1-1.1,1.7C495.8,392.2,495.3,392.5,494.8,392.5z M500.6,384.3
			c-0.3,0-0.6-0.1-0.9-0.3c-0.7-0.5-0.8-1.4-0.3-2.1c0.4-0.5,0.8-1.1,1.2-1.6c0.5-0.6,1.5-0.8,2.1-0.3c0.7,0.5,0.8,1.5,0.3,2.1
			c-0.4,0.5-0.8,1-1.2,1.6C501.5,384.1,501,384.3,500.6,384.3z M507,376.6c-0.4,0-0.7-0.1-1-0.4c-0.6-0.5-0.7-1.5-0.1-2.1
			c0.4-0.5,0.9-1,1.4-1.5c0.6-0.6,1.5-0.7,2.1-0.1s0.7,1.5,0.1,2.1c-0.4,0.5-0.9,1-1.3,1.5C507.8,376.4,507.4,376.6,507,376.6z
			 M513.9,369.3c-0.4,0-0.8-0.2-1.1-0.5c-0.6-0.6-0.6-1.5,0-2.1c0.5-0.5,1-0.9,1.5-1.4c0.6-0.6,1.5-0.6,2.1,0c0.6,0.6,0.5,1.5,0,2.1
			c-0.5,0.5-1,0.9-1.4,1.4C514.6,369.2,514.2,369.3,513.9,369.3z M521.2,362.6c-0.4,0-0.8-0.2-1.1-0.5c-0.5-0.6-0.5-1.6,0.2-2.1
			c0.5-0.4,1-0.9,1.5-1.3c0.6-0.5,1.6-0.4,2.1,0.2s0.4,1.6-0.2,2.1c-0.5,0.4-1,0.8-1.5,1.3C521.9,362.5,521.6,362.6,521.2,362.6z
			 M529,356.4c-0.5,0-0.9-0.2-1.2-0.6c-0.5-0.7-0.4-1.6,0.3-2.1c0.5-0.4,1.1-0.8,1.6-1.2c0.7-0.5,1.6-0.3,2.1,0.3
			c0.5,0.7,0.3,1.6-0.3,2.1c-0.5,0.4-1.1,0.8-1.6,1.2C529.7,356.3,529.4,356.4,529,356.4z M537.3,350.6c-0.5,0-1-0.2-1.3-0.7
			c-0.5-0.7-0.3-1.6,0.4-2.1c0.6-0.4,1.1-0.7,1.7-1.1c0.7-0.4,1.6-0.2,2.1,0.5c0.4,0.7,0.2,1.6-0.5,2.1c-0.6,0.4-1.1,0.7-1.7,1.1
			C537.8,350.6,537.5,350.6,537.3,350.6z M545.8,345.5c-0.5,0-1-0.3-1.3-0.8c-0.4-0.7-0.2-1.6,0.6-2c0.6-0.3,1.2-0.7,1.8-1
			c0.7-0.4,1.6-0.1,2,0.6c0.4,0.7,0.1,1.6-0.6,2c-0.6,0.3-1.2,0.6-1.7,1C546.3,345.4,546,345.5,545.8,345.5z M554.6,340.8
			c-0.6,0-1.1-0.3-1.3-0.8c-0.4-0.7-0.1-1.6,0.7-2c0.6-0.3,1.2-0.6,1.8-0.9c0.7-0.4,1.6,0,2,0.7c0.4,0.7,0,1.6-0.7,2
			c-0.6,0.3-1.2,0.6-1.8,0.9C555.1,340.8,554.9,340.8,554.6,340.8z M563.7,336.7c-0.6,0-1.1-0.3-1.4-0.9c-0.3-0.8,0-1.6,0.8-2
			c0.6-0.3,1.2-0.5,1.9-0.8c0.8-0.3,1.6,0.1,2,0.8c0.3,0.8-0.1,1.6-0.8,2c-0.6,0.3-1.2,0.5-1.8,0.8
			C564.1,336.6,563.9,336.7,563.7,336.7z M573,333c-0.6,0-1.2-0.4-1.4-1c-0.3-0.8,0.1-1.6,0.9-1.9c0.6-0.2,1.3-0.4,1.9-0.7
			c0.8-0.3,1.6,0.1,1.9,0.9c0.3,0.8-0.1,1.6-0.9,1.9c-0.6,0.2-1.3,0.4-1.9,0.7C573.4,333,573.2,333,573,333z M582.5,329.9
			c-0.6,0-1.2-0.4-1.4-1.1c-0.2-0.8,0.2-1.6,1-1.9c0.6-0.2,1.3-0.4,1.9-0.6c0.8-0.2,1.6,0.2,1.9,1c0.2,0.8-0.2,1.6-1,1.9
			c-0.6,0.2-1.3,0.4-1.9,0.6C582.8,329.9,582.7,329.9,582.5,329.9z M592.2,327.3c-0.7,0-1.3-0.5-1.5-1.1c-0.2-0.8,0.3-1.6,1.1-1.8
			c0.6-0.2,1.3-0.3,2-0.5c0.8-0.2,1.6,0.3,1.8,1.1c0.2,0.8-0.3,1.6-1.1,1.8c-0.6,0.2-1.3,0.3-1.9,0.5
			C592.4,327.2,592.3,327.3,592.2,327.3z M601.9,325c-0.7,0-1.3-0.5-1.5-1.2c-0.2-0.8,0.4-1.6,1.2-1.8c0.7-0.1,1.3-0.3,2-0.4
			c0.8-0.2,1.6,0.4,1.8,1.2s-0.4,1.6-1.2,1.8c-0.7,0.1-1.3,0.3-1.9,0.4C602.1,325,602,325,601.9,325z M611.7,323.3
			c-0.7,0-1.4-0.5-1.5-1.3c-0.1-0.8,0.4-1.6,1.2-1.7c0.7-0.1,1.3-0.2,2-0.3c0.8-0.1,1.6,0.4,1.7,1.3c0.1,0.8-0.4,1.6-1.3,1.7
			c-0.7,0.1-1.3,0.2-2,0.3C611.9,323.3,611.8,323.3,611.7,323.3z M621.6,321.9c-0.7,0-1.4-0.6-1.5-1.3c-0.1-0.8,0.5-1.6,1.3-1.7
			c0.7-0.1,1.3-0.2,2-0.2c0.8-0.1,1.6,0.5,1.7,1.3c0.1,0.8-0.5,1.6-1.3,1.7c-0.7,0.1-1.3,0.1-2,0.2
			C621.8,321.9,621.7,321.9,621.6,321.9z"/>
	</g>
</g>
<g>
	<path class="st4" d="M591.9,411.5H469c-0.1,0-0.1,0-0.2-0.1l-8.4-12c-1.6-2.3-4.1-3.6-6.9-3.6h-65.1c-4,0-7.2,3.3-7.2,7.2v16.3V431
		v106.8c0,4.3,3.5,7.8,7.8,7.8h202.9c4.3,0,7.8-3.5,7.8-7.8V419.4C599.8,415,596.3,411.5,591.9,411.5z"/>
	<path class="st3" d="M591.9,547.2H389.1c-5.1,0-9.3-4.2-9.3-9.3V403.1c0-4.8,3.9-8.7,8.7-8.7h65.1c3.2,0,6.3,1.6,8.1,4.3l8,11.4
		h122.3c5.1,0,9.3,4.2,9.3,9.3v118.5C601.3,543,597.1,547.2,591.9,547.2z M388.5,397.3c-3.2,0-5.7,2.6-5.7,5.7v134.8
		c0,3.5,2.8,6.3,6.3,6.3h202.9c3.5,0,6.3-2.8,6.3-6.3V419.4c0-3.5-2.8-6.3-6.3-6.3H469c-0.6,0-1.1-0.3-1.4-0.7l-8.4-12
		c-1.3-1.9-3.4-3-5.6-3H388.5z M470,410.6L470,410.6C470,410.6,470,410.6,470,410.6z"/>
</g>
<g>
	<path class="st4" d="M570.6,427.5H438.7c-0.1,0-0.2,0-0.2-0.1l-9-12.8c-1.7-2.4-4.4-3.9-7.4-3.9h-69.8c-4.3,0-7.7,3.5-7.7,7.7v17.5
		v12.5V563c0,4.6,3.8,8.4,8.4,8.4h217.5c4.6,0,8.4-3.8,8.4-8.4V435.9C579,431.3,575.2,427.5,570.6,427.5z"/>
	<path class="st3" d="M570.6,572.9H353.1c-5.5,0-9.9-4.4-9.9-9.9V418.4c0-5.1,4.1-9.2,9.2-9.2h69.8c3.4,0,6.7,1.7,8.6,4.5l8.6,12.3
		h131.2c5.5,0,9.9,4.4,9.9,9.9V563C580.5,568.4,576.1,572.9,570.6,572.9z M352.4,412.2c-3.4,0-6.2,2.8-6.2,6.2V563
		c0,3.8,3.1,6.9,6.9,6.9h217.5c3.8,0,6.9-3.1,6.9-6.9V435.9c0-3.8-3.1-6.9-6.9-6.9H438.7c-0.6,0-1.1-0.3-1.4-0.8l-9-12.8
		c-1.4-2-3.7-3.2-6.1-3.2H352.4z M439.7,426.5L439.7,426.5C439.8,426.5,439.8,426.5,439.7,426.5z"/>
</g>
<g>
	<g>
		<path class="st1" d="M452.2,537.1c-7.9,0-14.7-2.7-20.2-8.1c-5.5-5.4-8.2-12.3-8.2-20.4c0-8.2,2.8-15,8.2-20.4
			c5.5-5.3,12.2-8,20.2-8c7.9,0,14.7,2.7,20.2,8c5.4,5.3,8.2,12.2,8.2,20.4c0,8.2-2.8,15.1-8.2,20.4
			C466.9,534.4,460.1,537.1,452.2,537.1z M452.2,484.8c-6.8,0-12.3,2.2-17,6.7c-4.6,4.5-6.9,10.1-6.9,17.1c0,7,2.2,12.6,6.9,17.1
			c4.6,4.6,10.2,6.8,16.9,6.8c6.8,0,12.3-2.2,16.9-6.7c4.6-4.5,6.8-10.1,6.8-17.1c0-7-2.2-12.6-6.8-17.1
			C464.5,487,458.9,484.8,452.2,484.8z"/>
	</g>
	<g>
		<path class="st6" d="M461.9,537.1c-7.9,0-14.7-2.7-20.2-8.1c-5.5-5.4-8.2-12.3-8.2-20.4c0-8.2,2.8-15,8.2-20.4
			c5.5-5.3,12.2-8,20.2-8c7.9,0,14.7,2.7,20.2,8c5.4,5.3,8.2,12.2,8.2,20.4c0,8.2-2.8,15.1-8.2,20.4
			C476.6,534.4,469.8,537.1,461.9,537.1z M461.9,484.8c-6.8,0-12.3,2.2-17,6.7c-4.6,4.5-6.9,10.1-6.9,17.1c0,7,2.2,12.6,6.9,17.1
			c4.6,4.6,10.2,6.8,16.9,6.8c6.8,0,12.3-2.2,16.9-6.7c4.6-4.5,6.8-10.1,6.8-17.1c0-7-2.2-12.6-6.8-17.1
			C474.2,487,468.6,484.8,461.9,484.8z"/>
	</g>
	<g>
		<path class="st7" d="M471.5,537.1c-7.9,0-14.7-2.7-20.2-8.1c-5.5-5.4-8.2-12.3-8.2-20.4c0-8.2,2.8-15,8.2-20.4
			c5.5-5.3,12.2-8,20.2-8c7.9,0,14.7,2.7,20.2,8c5.4,5.3,8.2,12.2,8.2,20.4c0,8.2-2.8,15.1-8.2,20.4
			C486.3,534.4,479.5,537.1,471.5,537.1z M471.5,484.8c-6.8,0-12.3,2.2-17,6.7c-4.6,4.5-6.9,10.1-6.9,17.1c0,7,2.2,12.6,6.9,17.1
			c4.6,4.6,10.2,6.8,16.9,6.8c6.8,0,12.3-2.2,16.9-6.7c4.6-4.5,6.8-10.1,6.8-17.1c0-7-2.2-12.6-6.8-17.1
			C483.9,487,478.3,484.8,471.5,484.8z"/>
	</g>
</g>
<g>
	<path class="st3" d="M539,448.8H359c-0.8,0-1.5-0.7-1.5-1.5s0.7-1.5,1.5-1.5h180c0.8,0,1.5,0.7,1.5,1.5S539.8,448.8,539,448.8z"/>
</g>
<g>
	<path class="st3" d="M567.6,448.8h-14.8c-0.8,0-1.5-0.7-1.5-1.5s0.7-1.5,1.5-1.5h14.8c0.8,0,1.5,0.7,1.5,1.5
		S568.5,448.8,567.6,448.8z"/>
</g>
<g>
	<path class="st4" d="M734.6,362.2H634c-6.6,0-12-5.4-12-12v-72.9c0-6.6,5.4-12,12-12h100.6c6.6,0,12,5.4,12,12v72.9
		C746.6,356.8,741.2,362.2,734.6,362.2z"/>
	<path class="st3" d="M734.6,363.7H634c-7.4,0-13.5-6.1-13.5-13.5v-72.9c0-7.4,6.1-13.5,13.5-13.5h100.6c7.4,0,13.5,6.1,13.5,13.5
		v72.9C748.1,357.7,742.1,363.7,734.6,363.7z M634,266.8c-5.8,0-10.5,4.7-10.5,10.5v72.9c0,5.8,4.7,10.5,10.5,10.5h100.6
		c5.8,0,10.5-4.7,10.5-10.5v-72.9c0-5.8-4.7-10.5-10.5-10.5H634z"/>
</g>
<g>
	<path class="st3" d="M658,298.8h15.9v4.4h-11.4v5.9c0.5-0.5,1.2-1,2.1-1.4c0.9-0.4,1.9-0.6,3.2-0.6s2.5,0.3,3.6,0.8
		c1.1,0.5,2,1.2,2.6,2.1c1.2,1.7,1.8,3.6,1.8,5.7c0,2.8-0.8,5-2.4,6.6c-1.6,1.6-3.8,2.5-6.6,2.5c-2.8,0-5-0.7-6.6-2
		c-1.6-1.3-2.5-3-2.8-5.2h4.9c0.2,0.9,0.7,1.7,1.5,2.2c0.8,0.5,1.8,0.8,3.1,0.8s2.3-0.4,3-1.3c0.7-0.9,1.1-2,1.1-3.5
		s-0.4-2.6-1.1-3.3s-1.7-1.2-2.9-1.2c-2.3,0-3.7,0.9-4.2,2.7H658V298.8z"/>
	<path class="st3" d="M684.4,321.5c-2.4-2.4-3.7-5.4-3.7-9.1c0-3.7,1.2-6.7,3.7-9.1c2.5-2.4,5.5-3.6,9-3.6c2.7,0,5.1,0.7,7.2,2.1
		c2.1,1.4,3.6,3.3,4.5,5.8h-6c-1.1-2.2-3-3.3-5.7-3.3c-2.3,0-4.1,0.7-5.5,2.2c-1.4,1.5-2.1,3.5-2.1,5.9c0,2.5,0.7,4.4,2.1,5.9
		c1.4,1.5,3.1,2.2,5.2,2.2s3.7-0.5,4.8-1.5c1.2-1,1.9-2.4,2.2-4.1h-8.3v-3.8h13.6v3.8c-0.4,2.7-1.8,5.1-4,7.1s-5,3-8.4,3
		S686.8,323.9,684.4,321.5z"/>
</g>
</svg>
