<?xml version="1.0" encoding="utf-8"?>
<!-- Generator: Adobe Illustrator 21.1.0, SVG Export Plug-In . SVG Version: 6.00 Build 0)  -->
<svg version="1.1" id="Layer_1" xmlns="http://www.w3.org/2000/svg" xmlns:xlink="http://www.w3.org/1999/xlink" x="0px" y="0px"
	 width="850px" height="605px" viewBox="0 0 850 605" enable-background="new 0 0 850 605" xml:space="preserve">
<g>
	<g>
		<g opacity="5.000000e-02">
			<g>
				<path d="M811,505.7c-25.8,13.7-48.9,27.4-111.8,37.3c-30,4.8-72.6,8.2-117.5,9.5c-45.4,1.4-93.2,0.7-144.3-1.1
					c-51-1.7-101.8-4.4-150.5-8.1c-48.3-3.7-94.5-8.3-127.6-12.8C90.1,521.3,64,513.9,44,507.3c-14.4-6.7-28.5-13.8,29.7-23
					c55.5-9.2,201.9-18,369.8-22.8c167.3-5.7,312.7-4.8,362,5.7C857.4,477.4,830.6,492.1,811,505.7z"/>
			</g>
		</g>
		<g>
			<path fill="#404751" d="M747.5,469h-597c-0.8,0-1.5-0.7-1.5-1.5s0.7-1.5,1.5-1.5h597c0.8,0,1.5,0.7,1.5,1.5S748.3,469,747.5,469z
				"/>
		</g>
		<g>
			<path fill="#404751" d="M137.5,469h-34c-0.8,0-1.5-0.7-1.5-1.5s0.7-1.5,1.5-1.5h34c0.8,0,1.5,0.7,1.5,1.5S138.3,469,137.5,469z"
				/>
		</g>
		<g>
			<path fill="#404751" d="M89.5,469h-17c-0.8,0-1.5-0.7-1.5-1.5s0.7-1.5,1.5-1.5h17c0.8,0,1.5,0.7,1.5,1.5S90.3,469,89.5,469z"/>
		</g>
		<g>
			<path fill="#404751" d="M811.5,469h-46c-0.8,0-1.5-0.7-1.5-1.5s0.7-1.5,1.5-1.5h46c0.8,0,1.5,0.7,1.5,1.5S812.3,469,811.5,469z"
				/>
		</g>
	</g>
	<g>
		<path fill="#FFFFFF" d="M686.4,232.6c1-6.9,1.6-14,1.6-21.2C688,116.2,596.2,39,482.9,39c-86.5,0-160.4,45-190.6,108.6
			c-15.2-8.1-33.2-12.8-52.6-12.8c-54.5,0-98.8,37.2-98.8,83c0,0.3,0,0.6,0.1,0.8C83.5,235.8,42.2,281.8,42.2,336
			c0,59.6,49.8,109.3,116.3,121.6c16.8,6,35.3,9.3,54.6,9.3h448.3c77.3,0,140.6-53.2,140.6-118.2v0C802,291,751.9,242.6,686.4,232.6
			z"/>
		<path fill="#404751" d="M661.4,468.4H213.2c-19,0-37.5-3.2-55-9.4c-32.7-6.1-62.5-21.5-83.8-43.5C52.7,393.2,40.7,365,40.7,336
			c0-52.9,39.6-100.4,98.8-118.4c0.2-46.5,45.1-84.3,100.3-84.3c18.3,0,36.2,4.2,51.9,12.3c15.2-31.4,40.8-58.1,74.1-77.4
			c34.5-20.1,75-30.7,117.1-30.7c113.9,0,206.6,78,206.6,174c0,6.5-0.5,13-1.4,19.9c31.7,5.1,60.6,19.4,81.7,40.3
			c21.7,21.6,33.7,48.9,33.7,77.1C803.5,414.8,739.8,468.4,661.4,468.4z M239.8,136.3c-53.6,0-97.3,36.6-97.3,81.5
			c0,0.1,0,0.2,0,0.3c0,0.2,0,0.3,0,0.5c0,0.7-0.4,1.3-1.1,1.5C83,237.5,43.7,284.1,43.7,336c0,57.3,48.4,107.8,115.1,120.1
			c0.1,0,0.2,0,0.2,0.1c17.2,6.1,35.4,9.3,54.1,9.3h448.3c76.7,0,139.1-52.3,139.1-116.7c0-56.3-48.1-104.6-114.3-114.7
			c-0.8-0.1-1.4-0.9-1.3-1.7c1.1-7.3,1.6-14.1,1.6-20.9c0-94.3-91.3-171-203.6-171c-83.9,0-158.2,42.3-189.2,107.8
			c-0.2,0.4-0.5,0.7-0.9,0.8c-0.4,0.1-0.8,0.1-1.2-0.1C276,140.7,258.1,136.3,239.8,136.3z"/>
	</g>
	<g>
		<g>
			<g>
				<path fill="#3FA9F5" d="M560.8,292c-0.3,0-0.6-0.1-0.9-0.3c-0.2-0.2-5.6-4.5-5.6-13c0-8.1,5.3-13.2,5.5-13.4
					c0.6-0.6,1.6-0.5,2.1,0.1c0.6,0.6,0.5,1.6-0.1,2.1c-0.1,0.1-4.6,4.5-4.6,11.2c0,7,4.3,10.5,4.5,10.6c0.6,0.5,0.8,1.5,0.3,2.1
					C561.7,291.8,561.2,292,560.8,292z"/>
			</g>
			<g>
				<path fill="#3FA9F5" d="M550,298.8c-0.3,0-0.6-0.1-0.9-0.3c-0.3-0.3-8.4-6.7-8.4-19.4c0-12.2,8-19.8,8.3-20.1
					c0.6-0.6,1.6-0.5,2.1,0.1c0.6,0.6,0.5,1.6-0.1,2.1c-0.1,0.1-7.3,7.1-7.3,17.9c0,11.3,7.2,17,7.2,17c0.7,0.5,0.8,1.5,0.3,2.1
					C550.9,298.6,550.4,298.8,550,298.8z"/>
			</g>
			<g>
				<path fill="#3FA9F5" d="M539.5,305.4c-0.3,0-0.6-0.1-0.9-0.3c-0.5-0.4-11.3-9-11.3-26.1c0-16.4,10.7-26.7,11.2-27.1
					c0.6-0.6,1.6-0.5,2.1,0.1c0.6,0.6,0.5,1.6-0.1,2.1l0,0c-0.1,0.1-10.2,9.8-10.2,24.9c0,15.7,10,23.7,10.1,23.8
					c0.7,0.5,0.8,1.5,0.3,2.1C540.4,305.2,539.9,305.4,539.5,305.4z"/>
			</g>
		</g>
		<g>
			<g>
				<path fill="#3FA9F5" d="M602.2,292c-0.4,0-0.8-0.2-1.1-0.5c-0.6-0.6-0.5-1.6,0.1-2.1c0.1-0.1,4.6-4.5,4.6-11.2
					c0-7-4.3-10.5-4.5-10.6c-0.6-0.5-0.8-1.5-0.3-2.1c0.5-0.7,1.4-0.8,2.1-0.3c0.2,0.2,5.6,4.5,5.6,13c0,8.1-5.3,13.2-5.5,13.4
					C602.9,291.9,602.6,292,602.2,292z"/>
			</g>
			<g>
				<path fill="#3FA9F5" d="M613,298.3c-0.4,0-0.8-0.2-1.1-0.5c-0.6-0.6-0.5-1.6,0.1-2.1c0.1-0.1,7.3-7.1,7.3-17.9
					c0-11.3-7.2-17-7.2-17c-0.7-0.5-0.8-1.5-0.3-2.1c0.5-0.7,1.5-0.8,2.1-0.3c0.3,0.3,8.4,6.7,8.4,19.4c0,12.2-8,19.8-8.3,20.1
					C613.7,298.2,613.4,298.3,613,298.3z"/>
			</g>
			<g>
				<path fill="#3FA9F5" d="M623.5,305.4c-0.4,0-0.8-0.2-1.1-0.5c-0.6-0.6-0.5-1.6,0.1-2.1l0,0c0.1-0.1,10.2-9.8,10.2-24.9
					c0-15.7-10-23.7-10.1-23.8c-0.7-0.5-0.8-1.5-0.3-2.1c0.5-0.7,1.5-0.8,2.1-0.3c0.5,0.4,11.3,9,11.3,26.1
					c0,16.4-10.7,26.7-11.2,27.1C624.2,305.3,623.9,305.4,623.5,305.4z"/>
			</g>
		</g>
		<g>
			<path fill="#404751" d="M620,460c-0.7,0-1.3-0.5-1.5-1.1L581.9,309l-30.4,149.8c-0.2,0.8-1,1.3-1.8,1.2c-0.8-0.2-1.3-1-1.2-1.8
				l31.7-156.4c0.1-0.7,0.7-1.2,1.4-1.2c0,0,0,0,0,0c0.7,0,1.3,0.5,1.5,1.1l38.3,156.4c0.2,0.8-0.3,1.6-1.1,1.8
				C620.3,460,620.1,460,620,460z"/>
		</g>
		<g>
			<path fill="#404751" d="M581.8,322.3c-0.8,0-1.5-0.7-1.5-1.5v-37.2c0-0.8,0.7-1.5,1.5-1.5s1.5,0.7,1.5,1.5v37.2
				C583.3,321.6,582.6,322.3,581.8,322.3z"/>
		</g>
		<g>
			<circle fill="#404751" cx="581.8" cy="281.4" r="5.5"/>
		</g>
		<g>
			<circle fill="#41ACE1" cx="581.8" cy="315.3" r="14.2"/>
			<path fill="#404751" d="M581.8,331c-8.7,0-15.7-7.1-15.7-15.7c0-8.7,7.1-15.7,15.7-15.7s15.7,7.1,15.7,15.7
				C597.5,324,590.4,331,581.8,331z M581.8,302.6c-7,0-12.7,5.7-12.7,12.7s5.7,12.7,12.7,12.7s12.7-5.7,12.7-12.7
				S588.8,302.6,581.8,302.6z"/>
		</g>
		<g>
			<path fill="#404751" d="M600.3,381.3c-0.4,0-0.7-0.1-1-0.4l-28.4-27.3c-0.6-0.6-0.6-1.5,0-2.1c0.6-0.6,1.5-0.6,2.1,0l28.4,27.3
				c0.6,0.6,0.6,1.5,0,2.1C601.1,381.2,600.7,381.3,600.3,381.3z"/>
		</g>
		<g>
			<path fill="#404751" d="M565.3,391.2c-0.3,0-0.6-0.1-0.9-0.3c-0.7-0.5-0.8-1.4-0.3-2.1l28.4-37.2c0.5-0.7,1.4-0.8,2.1-0.3
				c0.7,0.5,0.8,1.4,0.3,2.1l-28.4,37.2C566.2,391,565.8,391.2,565.3,391.2z"/>
		</g>
	</g>
	<g opacity="0.6">
		<path fill="#BDC6D1" d="M216.2,455L216.2,455l-2,0c-0.8,0-1.5-0.7-1.5-1.5c0-0.8,0.7-1.5,1.5-1.5c0,0,0,0,0,0l2,0
			c0.8,0,1.5,0.7,1.5,1.5S217,455,216.2,455z M646.2,455h-2c-0.8,0-1.5-0.7-1.5-1.5s0.7-1.5,1.5-1.5h2c0.8,0,1.5,0.7,1.5,1.5
			S647,455,646.2,455z M636.2,455h-2c-0.8,0-1.5-0.7-1.5-1.5s0.7-1.5,1.5-1.5h2c0.8,0,1.5,0.7,1.5,1.5S637,455,636.2,455z
			 M626.2,455h-2c-0.8,0-1.5-0.7-1.5-1.5s0.7-1.5,1.5-1.5h2c0.8,0,1.5,0.7,1.5,1.5S627,455,626.2,455z M616.2,455h-2
			c-0.8,0-1.5-0.7-1.5-1.5s0.7-1.5,1.5-1.5h2c0.8,0,1.5,0.7,1.5,1.5S617,455,616.2,455z M606.2,455h-2c-0.8,0-1.5-0.7-1.5-1.5
			s0.7-1.5,1.5-1.5h2c0.8,0,1.5,0.7,1.5,1.5S607,455,606.2,455z M596.2,455h-2c-0.8,0-1.5-0.7-1.5-1.5s0.7-1.5,1.5-1.5h2
			c0.8,0,1.5,0.7,1.5,1.5S597,455,596.2,455z M586.2,455h-2c-0.8,0-1.5-0.7-1.5-1.5s0.7-1.5,1.5-1.5h2c0.8,0,1.5,0.7,1.5,1.5
			S587,455,586.2,455z M576.2,455h-2c-0.8,0-1.5-0.7-1.5-1.5s0.7-1.5,1.5-1.5h2c0.8,0,1.5,0.7,1.5,1.5S577,455,576.2,455z
			 M566.2,455h-2c-0.8,0-1.5-0.7-1.5-1.5s0.7-1.5,1.5-1.5h2c0.8,0,1.5,0.7,1.5,1.5S567,455,566.2,455z M556.2,455h-2
			c-0.8,0-1.5-0.7-1.5-1.5s0.7-1.5,1.5-1.5h2c0.8,0,1.5,0.7,1.5,1.5S557,455,556.2,455z M546.2,455h-2c-0.8,0-1.5-0.7-1.5-1.5
			s0.7-1.5,1.5-1.5h2c0.8,0,1.5,0.7,1.5,1.5S547,455,546.2,455z M536.2,455h-2c-0.8,0-1.5-0.7-1.5-1.5s0.7-1.5,1.5-1.5h2
			c0.8,0,1.5,0.7,1.5,1.5S537,455,536.2,455z M526.2,455h-2c-0.8,0-1.5-0.7-1.5-1.5s0.7-1.5,1.5-1.5h2c0.8,0,1.5,0.7,1.5,1.5
			S527,455,526.2,455z M516.2,455h-2c-0.8,0-1.5-0.7-1.5-1.5s0.7-1.5,1.5-1.5h2c0.8,0,1.5,0.7,1.5,1.5S517,455,516.2,455z
			 M506.2,455h-2c-0.8,0-1.5-0.7-1.5-1.5s0.7-1.5,1.5-1.5h2c0.8,0,1.5,0.7,1.5,1.5S507,455,506.2,455z M496.2,455h-2
			c-0.8,0-1.5-0.7-1.5-1.5s0.7-1.5,1.5-1.5h2c0.8,0,1.5,0.7,1.5,1.5S497,455,496.2,455z M486.2,455h-2c-0.8,0-1.5-0.7-1.5-1.5
			s0.7-1.5,1.5-1.5h2c0.8,0,1.5,0.7,1.5,1.5S487,455,486.2,455z M476.2,455h-2c-0.8,0-1.5-0.7-1.5-1.5s0.7-1.5,1.5-1.5h2
			c0.8,0,1.5,0.7,1.5,1.5S477,455,476.2,455z M466.2,455h-2c-0.8,0-1.5-0.7-1.5-1.5s0.7-1.5,1.5-1.5h2c0.8,0,1.5,0.7,1.5,1.5
			S467,455,466.2,455z M456.2,455h-2c-0.8,0-1.5-0.7-1.5-1.5s0.7-1.5,1.5-1.5h2c0.8,0,1.5,0.7,1.5,1.5S457,455,456.2,455z
			 M446.2,455h-2c-0.8,0-1.5-0.7-1.5-1.5s0.7-1.5,1.5-1.5h2c0.8,0,1.5,0.7,1.5,1.5S447,455,446.2,455z M436.2,455h-2
			c-0.8,0-1.5-0.7-1.5-1.5s0.7-1.5,1.5-1.5h2c0.8,0,1.5,0.7,1.5,1.5S437,455,436.2,455z M426.2,455h-2c-0.8,0-1.5-0.7-1.5-1.5
			s0.7-1.5,1.5-1.5h2c0.8,0,1.5,0.7,1.5,1.5S427,455,426.2,455z M416.2,455h-2c-0.8,0-1.5-0.7-1.5-1.5s0.7-1.5,1.5-1.5h2
			c0.8,0,1.5,0.7,1.5,1.5S417,455,416.2,455z M406.2,455h-2c-0.8,0-1.5-0.7-1.5-1.5s0.7-1.5,1.5-1.5h2c0.8,0,1.5,0.7,1.5,1.5
			S407,455,406.2,455z M396.2,455h-2c-0.8,0-1.5-0.7-1.5-1.5s0.7-1.5,1.5-1.5h2c0.8,0,1.5,0.7,1.5,1.5S397,455,396.2,455z
			 M386.2,455h-2c-0.8,0-1.5-0.7-1.5-1.5s0.7-1.5,1.5-1.5h2c0.8,0,1.5,0.7,1.5,1.5S387,455,386.2,455z M376.2,455h-2
			c-0.8,0-1.5-0.7-1.5-1.5s0.7-1.5,1.5-1.5h2c0.8,0,1.5,0.7,1.5,1.5S377,455,376.2,455z M366.2,455h-2c-0.8,0-1.5-0.7-1.5-1.5
			s0.7-1.5,1.5-1.5h2c0.8,0,1.5,0.7,1.5,1.5S367,455,366.2,455z M356.2,455h-2c-0.8,0-1.5-0.7-1.5-1.5s0.7-1.5,1.5-1.5h2
			c0.8,0,1.5,0.7,1.5,1.5S357,455,356.2,455z M346.2,455h-2c-0.8,0-1.5-0.7-1.5-1.5s0.7-1.5,1.5-1.5h2c0.8,0,1.5,0.7,1.5,1.5
			S347,455,346.2,455z M336.2,455h-2c-0.8,0-1.5-0.7-1.5-1.5s0.7-1.5,1.5-1.5h2c0.8,0,1.5,0.7,1.5,1.5S337,455,336.2,455z
			 M326.2,455h-2c-0.8,0-1.5-0.7-1.5-1.5s0.7-1.5,1.5-1.5h2c0.8,0,1.5,0.7,1.5,1.5S327,455,326.2,455z M316.2,455h-2
			c-0.8,0-1.5-0.7-1.5-1.5s0.7-1.5,1.5-1.5h2c0.8,0,1.5,0.7,1.5,1.5S317,455,316.2,455z M306.2,455h-2c-0.8,0-1.5-0.7-1.5-1.5
			s0.7-1.5,1.5-1.5h2c0.8,0,1.5,0.7,1.5,1.5S307,455,306.2,455z M296.2,455h-2c-0.8,0-1.5-0.7-1.5-1.5s0.7-1.5,1.5-1.5h2
			c0.8,0,1.5,0.7,1.5,1.5S297,455,296.2,455z M286.2,455h-2c-0.8,0-1.5-0.7-1.5-1.5s0.7-1.5,1.5-1.5h2c0.8,0,1.5,0.7,1.5,1.5
			S287,455,286.2,455z M276.2,455h-2c-0.8,0-1.5-0.7-1.5-1.5s0.7-1.5,1.5-1.5h2c0.8,0,1.5,0.7,1.5,1.5S277,455,276.2,455z
			 M266.2,455h-2c-0.8,0-1.5-0.7-1.5-1.5s0.7-1.5,1.5-1.5h2c0.8,0,1.5,0.7,1.5,1.5S267,455,266.2,455z M256.2,455h-2
			c-0.8,0-1.5-0.7-1.5-1.5s0.7-1.5,1.5-1.5h2c0.8,0,1.5,0.7,1.5,1.5S257,455,256.2,455z M246.2,455h-2c-0.8,0-1.5-0.7-1.5-1.5
			s0.7-1.5,1.5-1.5h2c0.8,0,1.5,0.7,1.5,1.5S247,455,246.2,455z M236.2,455h-2c-0.8,0-1.5-0.7-1.5-1.5s0.7-1.5,1.5-1.5h2
			c0.8,0,1.5,0.7,1.5,1.5S237,455,236.2,455z M226.2,455h-2c-0.8,0-1.5-0.7-1.5-1.5s0.7-1.5,1.5-1.5h2c0.8,0,1.5,0.7,1.5,1.5
			S227,455,226.2,455z M654.2,455c-0.8,0-1.5-0.6-1.5-1.5c0-0.8,0.6-1.5,1.5-1.5c0.7,0,1.3,0,2-0.1c0,0,0,0,0,0
			c0.8,0,1.5,0.6,1.5,1.5c0,0.8-0.6,1.5-1.5,1.5C655.6,454.9,654.9,455,654.2,455C654.2,455,654.2,455,654.2,455z M206.2,454.9
			C206.2,454.9,206.2,454.9,206.2,454.9c-0.7,0-1.4,0-2-0.1c-0.8,0-1.5-0.7-1.5-1.5c0-0.8,0.7-1.5,1.5-1.5c0.7,0,1.3,0,2,0.1
			c0.8,0,1.5,0.7,1.5,1.5C207.7,454.3,207,454.9,206.2,454.9z M664.2,454.5c-0.8,0-1.4-0.6-1.5-1.4c-0.1-0.8,0.6-1.5,1.4-1.6
			c0.7-0.1,1.3-0.1,2-0.2c0.8-0.1,1.6,0.5,1.6,1.4s-0.5,1.6-1.4,1.6c-0.7,0.1-1.3,0.1-2,0.2C664.3,454.5,664.2,454.5,664.2,454.5z
			 M196.2,454.5c0,0-0.1,0-0.1,0c-0.7,0-1.3-0.1-2-0.2c-0.8-0.1-1.4-0.8-1.4-1.6c0.1-0.8,0.8-1.4,1.6-1.4c0.7,0.1,1.3,0.1,2,0.2
			c0.8,0.1,1.4,0.8,1.4,1.6C197.7,453.9,197,454.5,196.2,454.5z M674.1,453.4c-0.7,0-1.4-0.5-1.5-1.3c-0.1-0.8,0.5-1.6,1.3-1.7
			c0.7-0.1,1.3-0.2,2-0.3c0.8-0.1,1.6,0.5,1.7,1.3c0.1,0.8-0.5,1.6-1.3,1.7c-0.7,0.1-1.3,0.2-2,0.3
			C674.3,453.4,674.2,453.4,674.1,453.4z M186.3,453.4c-0.1,0-0.2,0-0.2,0c-0.7-0.1-1.3-0.2-2-0.3c-0.8-0.1-1.4-0.9-1.2-1.7
			c0.1-0.8,0.9-1.4,1.7-1.2c0.6,0.1,1.3,0.2,1.9,0.3c0.8,0.1,1.4,0.9,1.3,1.7C187.7,452.8,187,453.4,186.3,453.4z M684,451.8
			c-0.7,0-1.3-0.5-1.5-1.2c-0.2-0.8,0.4-1.6,1.2-1.8c0.6-0.1,1.3-0.3,1.9-0.4c0.8-0.2,1.6,0.4,1.8,1.2s-0.4,1.6-1.2,1.8
			c-0.7,0.1-1.3,0.3-2,0.4C684.2,451.8,684.1,451.8,684,451.8z M176.5,451.3c-0.1,0-0.3,0-0.4-0.1c-0.7-0.2-1.3-0.4-2-0.6
			c-0.8-0.2-1.2-1.1-1-1.9c0.2-0.8,1.1-1.2,1.9-1c0.6,0.2,1.3,0.4,1.9,0.5c0.8,0.2,1.3,1,1.1,1.8
			C177.8,450.9,177.2,451.3,176.5,451.3z M693.8,449.7c-0.7,0-1.3-0.5-1.5-1.1c-0.2-0.8,0.3-1.6,1.1-1.8c0.6-0.2,1.3-0.3,1.9-0.5
			c0.8-0.2,1.6,0.3,1.8,1.1c0.2,0.8-0.3,1.6-1.1,1.8c-0.6,0.2-1.3,0.3-2,0.5C694,449.6,693.9,449.7,693.8,449.7z M166.9,448.8
			c-0.1,0-0.2,0-0.3,0c-0.7-0.1-1.3-0.3-2-0.4c-0.8-0.2-1.3-1-1.1-1.8c0.2-0.8,1-1.3,1.8-1.1c0.6,0.1,1.3,0.3,1.9,0.4
			c0.8,0.2,1.3,1,1.2,1.8C168.2,448.3,167.6,448.8,166.9,448.8z M703.4,446.9c-0.6,0-1.2-0.4-1.4-1c-0.3-0.8,0.2-1.6,1-1.9
			c0.6-0.2,1.3-0.4,1.9-0.6c0.8-0.3,1.6,0.2,1.9,0.9c0.3,0.8-0.2,1.6-0.9,1.9c-0.6,0.2-1.3,0.4-1.9,0.6
			C703.7,446.9,703.5,446.9,703.4,446.9z M157.1,446.5c-0.1,0-0.3,0-0.4,0c-0.7-0.2-1.3-0.3-1.9-0.5c-0.8-0.2-1.3-1-1-1.8
			s1.1-1.3,1.8-1c0.6,0.2,1.3,0.3,1.9,0.5c0.8,0.2,1.3,1,1.1,1.8C158.4,446.1,157.8,446.5,157.1,446.5z M147.5,443.7
			c-0.2,0-0.3,0-0.5-0.1c-0.6-0.2-1.3-0.4-1.9-0.6c-0.8-0.3-1.2-1.1-0.9-1.9c0.3-0.8,1.1-1.2,1.9-0.9c0.6,0.2,1.3,0.4,1.9,0.6
			c0.8,0.3,1.2,1.1,1,1.9C148.8,443.3,148.2,443.7,147.5,443.7z M712.8,443.5c-0.6,0-1.2-0.4-1.4-1c-0.3-0.8,0.1-1.6,0.8-1.9
			c0.6-0.2,1.2-0.5,1.8-0.7c0.8-0.3,1.6,0.1,2,0.8s-0.1,1.6-0.8,2c-0.6,0.3-1.2,0.5-1.9,0.8C713.2,443.5,713,443.5,712.8,443.5z
			 M138.1,440.4c-0.2,0-0.4,0-0.5-0.1c-0.6-0.2-1.3-0.5-1.9-0.7c-0.8-0.3-1.1-1.2-0.8-2c0.3-0.8,1.2-1.1,2-0.8
			c0.6,0.2,1.2,0.5,1.8,0.7c0.8,0.3,1.2,1.2,0.9,1.9C139.3,440,138.7,440.4,138.1,440.4z M722,439.6c-0.6,0-1.1-0.3-1.4-0.9
			c-0.4-0.7,0-1.6,0.7-2c0.6-0.3,1.2-0.6,1.8-0.9c0.7-0.4,1.6-0.1,2,0.7c0.4,0.7,0.1,1.6-0.7,2c-0.6,0.3-1.2,0.6-1.8,0.9
			C722.4,439.5,722.2,439.6,722,439.6z M128.9,436.5c-0.2,0-0.4,0-0.6-0.1c-0.6-0.3-1.2-0.6-1.8-0.9c-0.7-0.4-1.1-1.2-0.7-2
			c0.4-0.7,1.2-1.1,2-0.7c0.6,0.3,1.2,0.6,1.8,0.8c0.8,0.3,1.1,1.2,0.7,2C130,436.2,129.5,436.5,128.9,436.5z M730.8,435
			c-0.5,0-1-0.3-1.3-0.8c-0.4-0.7-0.2-1.6,0.6-2c0.6-0.3,1.1-0.7,1.7-1c0.7-0.4,1.6-0.2,2.1,0.5c0.4,0.7,0.2,1.6-0.5,2.1
			c-0.6,0.3-1.2,0.7-1.8,1C731.3,434.9,731.1,435,730.8,435z M119.9,432c-0.2,0-0.5-0.1-0.7-0.2c-0.6-0.3-1.2-0.6-1.8-1
			c-0.7-0.4-1-1.3-0.6-2c0.4-0.7,1.3-1,2-0.6c0.6,0.3,1.2,0.6,1.7,1c0.7,0.4,1,1.3,0.6,2C121,431.7,120.5,432,119.9,432z
			 M739.4,429.7c-0.5,0-1-0.2-1.2-0.7c-0.5-0.7-0.3-1.6,0.4-2.1c0.5-0.4,1.1-0.7,1.6-1.1c0.7-0.5,1.6-0.3,2.1,0.4
			c0.5,0.7,0.3,1.6-0.4,2.1c-0.6,0.4-1.1,0.8-1.7,1.1C739.9,429.7,739.7,429.7,739.4,429.7z M111.3,427c-0.3,0-0.5-0.1-0.8-0.2
			c-0.6-0.4-1.1-0.7-1.7-1.1c-0.7-0.5-0.9-1.4-0.4-2.1c0.5-0.7,1.4-0.9,2.1-0.4c0.6,0.4,1.1,0.7,1.7,1.1c0.7,0.4,0.9,1.4,0.5,2.1
			C112.3,426.8,111.8,427,111.3,427z M747.4,423.9c-0.4,0-0.9-0.2-1.2-0.6c-0.5-0.6-0.4-1.6,0.2-2.1c0.5-0.4,1-0.8,1.5-1.2
			c0.6-0.5,1.6-0.4,2.1,0.2c0.5,0.6,0.4,1.6-0.2,2.1c-0.5,0.4-1,0.8-1.6,1.3C748.1,423.8,747.8,423.9,747.4,423.9z M103,421.4
			c-0.3,0-0.6-0.1-0.9-0.3c-0.5-0.4-1.1-0.8-1.6-1.2c-0.7-0.5-0.8-1.4-0.3-2.1c0.5-0.7,1.4-0.8,2.1-0.3c0.5,0.4,1.1,0.8,1.6,1.2
			c0.7,0.5,0.8,1.4,0.3,2.1C103.9,421.2,103.5,421.4,103,421.4z M755,417.3c-0.4,0-0.8-0.2-1.1-0.5c-0.6-0.6-0.5-1.6,0.1-2.1
			c0.5-0.5,1-0.9,1.4-1.4c0.6-0.6,1.5-0.6,2.1,0c0.6,0.6,0.6,1.5,0,2.1c-0.5,0.5-1,0.9-1.5,1.4C755.8,417.2,755.4,417.3,755,417.3z
			 M95.2,415.2c-0.3,0-0.7-0.1-1-0.4c-0.5-0.4-1-0.9-1.5-1.3c-0.6-0.6-0.7-1.5-0.1-2.1c0.6-0.6,1.5-0.7,2.1-0.1
			c0.5,0.4,1,0.9,1.5,1.3c0.6,0.5,0.7,1.5,0.2,2.1C96,415,95.6,415.2,95.2,415.2z M762,410.2c-0.4,0-0.7-0.1-1-0.4
			c-0.6-0.5-0.7-1.5-0.1-2.1c0.4-0.5,0.9-1,1.3-1.5c0.5-0.6,1.5-0.7,2.1-0.2c0.6,0.5,0.7,1.5,0.2,2.1c-0.4,0.5-0.9,1-1.3,1.5
			C762.8,410,762.4,410.2,762,410.2z M87.9,408.3c-0.4,0-0.8-0.1-1.1-0.4c-0.5-0.5-0.9-1-1.4-1.5c-0.6-0.6-0.5-1.5,0.1-2.1
			c0.6-0.6,1.5-0.5,2.1,0.1c0.5,0.5,0.9,0.9,1.4,1.4c0.6,0.6,0.6,1.5,0,2.1C88.7,408.2,88.3,408.3,87.9,408.3z M768.2,402.4
			c-0.3,0-0.6-0.1-0.9-0.3c-0.7-0.5-0.8-1.4-0.3-2.1c0.4-0.5,0.8-1.1,1.1-1.6c0.5-0.7,1.4-0.9,2.1-0.4c0.7,0.5,0.9,1.4,0.4,2.1
			c-0.4,0.6-0.8,1.1-1.2,1.7C769.1,402.1,768.7,402.4,768.2,402.4z M81.2,400.9c-0.4,0-0.9-0.2-1.2-0.5c-0.4-0.5-0.9-1-1.3-1.6
			c-0.5-0.6-0.4-1.6,0.2-2.1c0.6-0.5,1.6-0.4,2.1,0.2c0.4,0.5,0.8,1,1.2,1.5c0.5,0.6,0.4,1.6-0.2,2.1
			C81.9,400.8,81.5,400.9,81.2,400.9z M773.6,394c-0.3,0-0.5-0.1-0.7-0.2c-0.7-0.4-1-1.3-0.6-2c0.3-0.6,0.6-1.1,1-1.7
			c0.4-0.7,1.3-1,2-0.6c0.7,0.4,1,1.3,0.6,2c-0.3,0.6-0.7,1.2-1,1.8C774.7,393.7,774.2,394,773.6,394z M75.2,392.9
			c-0.5,0-1-0.2-1.2-0.7c-0.4-0.6-0.8-1.1-1.1-1.7c-0.5-0.7-0.3-1.6,0.4-2.1c0.7-0.5,1.6-0.3,2.1,0.4c0.4,0.5,0.7,1.1,1.1,1.6
			c0.5,0.7,0.3,1.6-0.4,2.1C75.8,392.8,75.5,392.9,75.2,392.9z M778.1,385c-0.2,0-0.4,0-0.6-0.1c-0.8-0.3-1.1-1.2-0.8-2
			c0.3-0.6,0.5-1.2,0.8-1.8c0.3-0.8,1.2-1.1,2-0.8c0.8,0.3,1.1,1.2,0.8,2c-0.3,0.6-0.5,1.2-0.8,1.9C779.3,384.7,778.7,385,778.1,385
			z M70,384.4c-0.5,0-1-0.3-1.3-0.8c-0.3-0.6-0.6-1.2-0.9-1.8c-0.4-0.7-0.1-1.6,0.6-2c0.7-0.4,1.6-0.1,2,0.6
			c0.3,0.6,0.6,1.2,0.9,1.7c0.4,0.7,0.1,1.6-0.6,2C70.5,384.3,70.3,384.4,70,384.4z M781.6,375.7c-0.1,0-0.3,0-0.4-0.1
			c-0.8-0.2-1.2-1.1-1-1.9c0.2-0.6,0.4-1.3,0.6-1.9c0.2-0.8,1.1-1.3,1.9-1c0.8,0.2,1.3,1.1,1,1.9c-0.2,0.7-0.4,1.3-0.6,1.9
			C782.9,375.3,782.3,375.7,781.6,375.7z M65.7,375.4c-0.6,0-1.1-0.3-1.4-0.9c-0.3-0.6-0.5-1.3-0.8-1.9c-0.3-0.8,0.1-1.6,0.9-1.9
			c0.8-0.3,1.6,0.1,1.9,0.9c0.2,0.6,0.5,1.2,0.7,1.8c0.3,0.8,0,1.6-0.8,2C66.1,375.3,65.9,375.4,65.7,375.4z M784,366
			c-0.1,0-0.2,0-0.3,0c-0.8-0.2-1.3-0.9-1.2-1.8c0.1-0.6,0.2-1.3,0.3-1.9c0.1-0.8,0.9-1.4,1.7-1.2c0.8,0.1,1.4,0.9,1.2,1.7
			c-0.1,0.7-0.2,1.3-0.4,2C785.4,365.5,784.7,366,784,366z M62.4,365.9c-0.6,0-1.2-0.4-1.4-1.1c-0.2-0.7-0.4-1.3-0.6-2
			c-0.2-0.8,0.3-1.6,1.1-1.8c0.8-0.2,1.6,0.3,1.8,1.1c0.2,0.6,0.3,1.3,0.5,1.9c0.2,0.8-0.2,1.6-1,1.9
			C62.7,365.9,62.6,365.9,62.4,365.9z M60.1,356.2c-0.7,0-1.3-0.5-1.5-1.2c-0.1-0.7-0.2-1.3-0.3-2c-0.1-0.8,0.4-1.6,1.2-1.7
			c0.8-0.1,1.6,0.4,1.7,1.2c0.1,0.6,0.2,1.3,0.3,1.9c0.1,0.8-0.4,1.6-1.2,1.7C60.3,356.2,60.2,356.2,60.1,356.2z M785.3,356.1
			c0,0-0.1,0-0.1,0c-0.8-0.1-1.4-0.8-1.4-1.6c0-0.7,0.1-1.3,0.1-2c0-0.8,0.7-1.5,1.6-1.4c0.8,0,1.5,0.7,1.4,1.6c0,0.7-0.1,1.4-0.1,2
			C786.8,355.5,786.1,356.1,785.3,356.1z M58.9,346.3c-0.8,0-1.4-0.6-1.5-1.4c0-0.7-0.1-1.3-0.1-2c0-0.8,0.6-1.5,1.4-1.6
			c0.9,0,1.5,0.6,1.6,1.4c0,0.7,0.1,1.3,0.1,2c0.1,0.8-0.6,1.5-1.4,1.6C59,346.3,58.9,346.3,58.9,346.3z M785.5,346.1
			c-0.8,0-1.5-0.6-1.5-1.4c0-0.7-0.1-1.3-0.1-2c0-0.8,0.6-1.5,1.4-1.6c0.9,0,1.5,0.6,1.6,1.4c0,0.7,0.1,1.4,0.1,2
			C787.1,345.4,786.4,346.1,785.5,346.1C785.6,346.1,785.5,346.1,785.5,346.1z M58.7,336.3C58.7,336.3,58.7,336.3,58.7,336.3
			c-0.9,0-1.5-0.7-1.5-1.5c0-0.7,0-1.4,0.1-2c0-0.8,0.7-1.5,1.6-1.4c0.8,0,1.5,0.7,1.4,1.6c0,0.7-0.1,1.3-0.1,2
			C60.2,335.7,59.5,336.3,58.7,336.3z M784.6,336.2c-0.7,0-1.4-0.5-1.5-1.3c-0.1-0.6-0.2-1.3-0.3-1.9c-0.1-0.8,0.4-1.6,1.2-1.7
			c0.8-0.1,1.6,0.4,1.7,1.2c0.1,0.7,0.2,1.3,0.3,2c0.1,0.8-0.4,1.6-1.3,1.7C784.8,336.2,784.7,336.2,784.6,336.2z M782.6,326.4
			c-0.7,0-1.3-0.4-1.4-1.1c-0.2-0.6-0.3-1.3-0.5-1.9c-0.2-0.8,0.2-1.6,1-1.9c0.8-0.2,1.6,0.2,1.9,1c0.2,0.6,0.4,1.3,0.6,2
			c0.2,0.8-0.3,1.6-1.1,1.8C782.9,326.4,782.7,326.4,782.6,326.4z M59.5,326.4c-0.1,0-0.1,0-0.2,0c-0.8-0.1-1.4-0.9-1.3-1.7
			c0.1-0.7,0.2-1.3,0.3-2c0.1-0.8,0.9-1.4,1.7-1.2c0.8,0.1,1.4,0.9,1.2,1.7c-0.1,0.6-0.2,1.3-0.3,1.9
			C60.9,325.8,60.3,326.4,59.5,326.4z M779.4,316.9c-0.6,0-1.2-0.4-1.4-0.9c-0.2-0.6-0.5-1.2-0.8-1.8c-0.3-0.8,0-1.6,0.8-2
			c0.8-0.3,1.6,0,2,0.8c0.3,0.6,0.5,1.3,0.8,1.9c0.3,0.8-0.1,1.6-0.8,2C779.8,316.9,779.6,316.9,779.4,316.9z M61.4,316.5
			c-0.1,0-0.2,0-0.4,0c-0.8-0.2-1.3-1-1.1-1.8c0.2-0.7,0.3-1.3,0.5-2c0.2-0.8,1-1.3,1.8-1.1c0.8,0.2,1.3,1,1.1,1.8
			c-0.2,0.6-0.3,1.3-0.5,1.9C62.7,316.1,62.1,316.5,61.4,316.5z M775.2,307.9c-0.5,0-1-0.3-1.3-0.8c-0.3-0.6-0.6-1.1-1-1.7
			c-0.4-0.7-0.2-1.6,0.5-2.1c0.7-0.4,1.6-0.2,2,0.5c0.3,0.6,0.7,1.2,1,1.8c0.4,0.7,0.1,1.6-0.6,2
			C775.6,307.8,775.4,307.9,775.2,307.9z M64.4,307c-0.2,0-0.4,0-0.5-0.1c-0.8-0.3-1.2-1.2-0.9-1.9c0.2-0.6,0.5-1.3,0.7-1.9
			c0.3-0.8,1.2-1.1,1.9-0.8c0.8,0.3,1.1,1.2,0.8,1.9c-0.2,0.6-0.5,1.2-0.7,1.8C65.5,306.6,65,307,64.4,307z M769.8,299.4
			c-0.5,0-0.9-0.2-1.2-0.6c-0.4-0.5-0.8-1.1-1.2-1.6c-0.5-0.7-0.4-1.6,0.3-2.1c0.7-0.5,1.6-0.4,2.1,0.3c0.4,0.5,0.8,1.1,1.2,1.6
			c0.5,0.7,0.3,1.6-0.4,2.1C770.4,299.4,770.1,299.4,769.8,299.4z M68.4,297.9c-0.2,0-0.5-0.1-0.7-0.2c-0.7-0.4-1-1.3-0.7-2
			c0.3-0.6,0.6-1.2,0.9-1.8c0.4-0.7,1.3-1,2-0.6c0.7,0.4,1,1.3,0.6,2c-0.3,0.6-0.6,1.2-0.9,1.7C69.4,297.6,68.9,297.9,68.4,297.9z
			 M763.6,291.6c-0.4,0-0.8-0.2-1.1-0.5c-0.4-0.5-0.9-1-1.3-1.5c-0.6-0.6-0.5-1.6,0.1-2.1c0.6-0.6,1.6-0.5,2.1,0.1
			c0.5,0.5,0.9,1,1.4,1.5c0.6,0.6,0.5,1.6-0.1,2.1C764.3,291.5,764,291.6,763.6,291.6z M73.4,289.2c-0.3,0-0.6-0.1-0.8-0.2
			c-0.7-0.5-0.9-1.4-0.4-2.1c0.4-0.6,0.7-1.1,1.1-1.7c0.5-0.7,1.4-0.9,2.1-0.4c0.7,0.5,0.9,1.4,0.4,2.1c-0.4,0.5-0.7,1.1-1.1,1.6
			C74.3,289,73.8,289.2,73.4,289.2z M756.6,284.5c-0.4,0-0.7-0.1-1-0.4c-0.5-0.4-1-0.9-1.5-1.3c-0.6-0.5-0.7-1.5-0.1-2.1
			c0.5-0.6,1.5-0.7,2.1-0.1c0.5,0.4,1,0.9,1.5,1.4c0.6,0.6,0.6,1.5,0.1,2.1C757.4,284.3,757,284.5,756.6,284.5z M79.2,281.1
			c-0.3,0-0.7-0.1-0.9-0.3c-0.6-0.5-0.7-1.5-0.2-2.1c0.4-0.5,0.9-1,1.3-1.6c0.5-0.6,1.5-0.7,2.1-0.2c0.6,0.5,0.7,1.5,0.2,2.1
			c-0.4,0.5-0.8,1-1.3,1.5C80.1,280.9,79.7,281.1,79.2,281.1z M748.9,278.1c-0.3,0-0.6-0.1-0.9-0.3c-0.5-0.4-1-0.8-1.6-1.2
			c-0.7-0.5-0.8-1.4-0.3-2.1s1.4-0.8,2.1-0.3c0.5,0.4,1.1,0.8,1.6,1.2c0.7,0.5,0.8,1.4,0.3,2.1C749.8,277.9,749.4,278.1,748.9,278.1
			z M85.9,273.6c-0.4,0-0.8-0.1-1-0.4c-0.6-0.6-0.6-1.5,0-2.1c0.5-0.5,0.9-1,1.4-1.4c0.6-0.6,1.5-0.6,2.1,0c0.6,0.6,0.6,1.5,0,2.1
			c-0.5,0.5-0.9,0.9-1.4,1.4C86.6,273.5,86.2,273.6,85.9,273.6z M740.8,272.3c-0.3,0-0.6-0.1-0.8-0.2c-0.6-0.4-1.1-0.7-1.7-1.1
			c-0.7-0.4-0.9-1.4-0.5-2.1c0.4-0.7,1.4-0.9,2.1-0.5c0.6,0.4,1.1,0.7,1.7,1.1c0.7,0.4,0.9,1.4,0.5,2.1
			C741.7,272.1,741.3,272.3,740.8,272.3z M732.2,267.3c-0.2,0-0.5-0.1-0.7-0.2c-0.6-0.3-1.2-0.6-1.7-0.9c-0.7-0.4-1-1.3-0.6-2
			c0.4-0.7,1.3-1,2-0.6c0.6,0.3,1.2,0.6,1.8,0.9c0.7,0.4,1,1.3,0.6,2C733.2,267,732.7,267.3,732.2,267.3z M93.1,266.8
			c-0.4,0-0.8-0.2-1.1-0.5c-0.5-0.6-0.5-1.6,0.2-2.1c0.5-0.4,1-0.9,1.5-1.3c0.6-0.5,1.6-0.4,2.1,0.2c0.5,0.6,0.4,1.6-0.2,2.1
			c-0.5,0.4-1,0.8-1.5,1.3C93.8,266.7,93.5,266.8,93.1,266.8z M723.2,262.8c-0.2,0-0.4,0-0.6-0.1c-0.6-0.3-1.2-0.5-1.8-0.8
			c-0.8-0.3-1.1-1.2-0.8-2s1.2-1.1,2-0.8c0.6,0.3,1.2,0.5,1.8,0.8c0.8,0.3,1.1,1.2,0.7,2C724.3,262.5,723.8,262.8,723.2,262.8z
			 M101,260.6c-0.5,0-0.9-0.2-1.2-0.6c-0.5-0.7-0.3-1.6,0.3-2.1c0.5-0.4,1.1-0.8,1.6-1.2c0.7-0.5,1.6-0.3,2.1,0.4s0.3,1.6-0.4,2.1
			c-0.5,0.4-1.1,0.8-1.6,1.2C101.6,260.5,101.3,260.6,101,260.6z M714,259c-0.2,0-0.4,0-0.5-0.1c-0.6-0.2-1.2-0.5-1.9-0.7
			c-0.8-0.3-1.2-1.1-0.9-1.9c0.3-0.8,1.1-1.2,1.9-0.9c0.6,0.2,1.3,0.5,1.9,0.7c0.8,0.3,1.2,1.2,0.9,1.9
			C715.1,258.6,714.6,259,714,259z M704.5,255.7c-0.1,0-0.3,0-0.5-0.1c-0.6-0.2-1.3-0.4-1.9-0.6c-0.8-0.2-1.2-1.1-1-1.9
			c0.2-0.8,1.1-1.2,1.9-1c0.6,0.2,1.3,0.4,1.9,0.6c0.8,0.2,1.2,1.1,1,1.9C705.7,255.3,705.2,255.7,704.5,255.7z M109.2,255
			c-0.5,0-1-0.2-1.3-0.7c-0.4-0.7-0.2-1.6,0.5-2.1c0.6-0.4,1.1-0.7,1.7-1.1c0.7-0.4,1.6-0.2,2.1,0.5c0.4,0.7,0.2,1.6-0.5,2.1
			c-0.6,0.3-1.1,0.7-1.7,1C109.8,254.9,109.5,255,109.2,255z M694.9,253c-0.1,0-0.2,0-0.4,0c-0.6-0.2-1.3-0.3-1.9-0.5
			c-0.8-0.2-1.3-1-1.1-1.8s1-1.3,1.8-1.1c0.7,0.2,1.3,0.3,2,0.5c0.8,0.2,1.3,1,1.1,1.8C696.2,252.5,695.6,253,694.9,253z
			 M685.2,250.7c-0.1,0-0.2,0-0.3,0c-0.6-0.1-1.3-0.3-1.9-0.4c-0.8-0.2-1.3-0.9-1.2-1.8c0.2-0.8,0.9-1.4,1.8-1.2
			c0.7,0.1,1.3,0.3,2,0.4c0.8,0.2,1.3,1,1.2,1.8C686.5,250.2,685.9,250.7,685.2,250.7z M117.9,249.9c-0.5,0-1.1-0.3-1.3-0.8
			c-0.4-0.7-0.1-1.6,0.6-2c0.6-0.3,1.2-0.6,1.8-0.9c0.7-0.4,1.6-0.1,2,0.6c0.4,0.7,0.1,1.6-0.6,2c-0.6,0.3-1.2,0.6-1.8,0.9
			C118.4,249.9,118.1,249.9,117.9,249.9z M675.1,249l0.2-1.5L675.1,249l-1.5-0.2l0.2-1.5c0.1-0.5,0.1-1.2,0.2-1.9
			c0.1-0.8,0.8-1.4,1.6-1.4c0.8,0.1,1.4,0.8,1.4,1.6c-0.1,0.8-0.1,1.5-0.2,2.1l-1.4-0.2v0L675.1,249z M126.8,245.5
			c-0.6,0-1.1-0.3-1.4-0.9c-0.3-0.8,0-1.6,0.7-2c0.6-0.3,1.2-0.6,1.8-0.8c0.8-0.3,1.6,0,2,0.8c0.3,0.8,0,1.6-0.8,2
			c-0.6,0.3-1.2,0.5-1.8,0.8C127.3,245.4,127,245.5,126.8,245.5z M136,241.5c-0.6,0-1.2-0.4-1.4-0.9c-0.3-0.8,0.1-1.6,0.8-1.9
			c0.6-0.2,1.2-0.5,1.9-0.7c0.8-0.3,1.6,0.1,1.9,0.9c0.3,0.8-0.1,1.6-0.9,1.9c-0.6,0.2-1.2,0.5-1.8,0.7
			C136.4,241.5,136.2,241.5,136,241.5z M675.8,239C675.7,239,675.7,239,675.8,239c-0.8,0-1.5-0.7-1.5-1.5c0-0.7,0-1.3,0-2
			c0-0.8,0.7-1.5,1.5-1.5c0,0,0,0,0,0c0.8,0,1.5,0.7,1.5,1.5c0,0.7,0,1.4,0,2C677.2,238.3,676.6,239,675.8,239z M145.4,238.1
			c-0.6,0-1.2-0.4-1.4-1c-0.3-0.8,0.2-1.6,0.9-1.9c0.6-0.2,1.3-0.4,1.9-0.6c0.8-0.3,1.6,0.2,1.9,1c0.3,0.8-0.2,1.6-1,1.9
			c-0.6,0.2-1.3,0.4-1.9,0.6C145.7,238.1,145.6,238.1,145.4,238.1z M152.9,233.6C152.9,233.6,152.9,233.6,152.9,233.6
			c-0.9,0-1.5-0.7-1.5-1.5c0-0.7,0-1.4,0.1-2c0-0.8,0.8-1.5,1.6-1.4c0.8,0,1.5,0.7,1.4,1.6c0,0.7,0,1.3-0.1,2
			C154.4,232.9,153.7,233.6,152.9,233.6z M675.7,229c-0.8,0-1.5-0.7-1.5-1.5l0-2c0-0.8,0.6-1.5,1.5-1.5c0.9,0,1.5,0.6,1.5,1.5l0,2
			C677.2,228.3,676.6,229,675.7,229C675.7,229,675.7,229,675.7,229z M153.6,223.6c-0.1,0-0.1,0-0.2,0c-0.8-0.1-1.4-0.9-1.3-1.7
			c0.1-0.7,0.2-1.3,0.3-2c0.1-0.8,0.9-1.4,1.7-1.3c0.8,0.1,1.4,0.9,1.3,1.7c-0.1,0.6-0.2,1.3-0.3,1.9
			C155,223.1,154.3,223.6,153.6,223.6z M675.6,219c-0.8,0-1.5-0.7-1.5-1.5c0-0.7,0-1.4,0-2c0-0.8,0.7-1.5,1.5-1.5c0,0,0,0,0,0
			c0.8,0,1.5,0.7,1.5,1.5c0,0.6,0,1.3,0,2C677.1,218.3,676.4,219,675.6,219C675.6,219,675.6,219,675.6,219z M155.4,213.8
			c-0.1,0-0.2,0-0.4,0c-0.8-0.2-1.3-1-1.1-1.8c0.2-0.7,0.3-1.3,0.5-2c0.2-0.8,1-1.3,1.8-1.1c0.8,0.2,1.3,1,1.1,1.8
			c-0.2,0.6-0.3,1.3-0.5,1.9C156.7,213.3,156.1,213.8,155.4,213.8z M675.4,209c-0.8,0-1.5-0.6-1.5-1.4c0-0.7-0.1-1.3-0.1-2
			c-0.1-0.8,0.6-1.5,1.4-1.6c0.8-0.1,1.5,0.6,1.6,1.4c0,0.7,0.1,1.3,0.1,2C676.9,208.2,676.3,209,675.4,209
			C675.4,209,675.4,209,675.4,209z M158.3,204.2c-0.2,0-0.4,0-0.5-0.1c-0.8-0.3-1.2-1.2-0.9-1.9c0.2-0.6,0.5-1.3,0.7-1.9
			c0.3-0.8,1.2-1.1,2-0.8c0.8,0.3,1.1,1.2,0.8,2c-0.2,0.6-0.5,1.2-0.7,1.8C159.5,203.9,158.9,204.2,158.3,204.2z M674.5,199
			c-0.7,0-1.4-0.6-1.5-1.3c-0.1-0.7-0.2-1.3-0.3-2c-0.1-0.8,0.5-1.6,1.3-1.7c0.8-0.1,1.6,0.5,1.7,1.3c0.1,0.7,0.2,1.3,0.3,2
			c0.1,0.8-0.5,1.6-1.3,1.7C674.6,199,674.6,199,674.5,199z M162.4,195.1c-0.2,0-0.5-0.1-0.7-0.2c-0.7-0.4-1-1.3-0.6-2
			c0.3-0.6,0.6-1.2,1-1.8c0.4-0.7,1.3-1,2-0.6c0.7,0.4,1,1.3,0.6,2c-0.3,0.6-0.6,1.1-0.9,1.7C163.4,194.8,162.9,195.1,162.4,195.1z
			 M672.9,189.2c-0.7,0-1.3-0.5-1.5-1.2c-0.1-0.6-0.3-1.3-0.4-1.9c-0.2-0.8,0.3-1.6,1.2-1.8c0.8-0.2,1.6,0.3,1.8,1.2
			c0.1,0.7,0.3,1.3,0.4,2c0.2,0.8-0.4,1.6-1.2,1.8C673.1,189.2,673,189.2,672.9,189.2z M167.5,186.5c-0.3,0-0.6-0.1-0.8-0.3
			c-0.7-0.5-0.9-1.4-0.4-2.1c0.4-0.6,0.8-1.1,1.2-1.7c0.5-0.7,1.4-0.8,2.1-0.3c0.7,0.5,0.8,1.4,0.3,2.1c-0.4,0.5-0.8,1.1-1.1,1.6
			C168.5,186.3,168,186.5,167.5,186.5z M670.6,179.4c-0.7,0-1.3-0.4-1.4-1.1c-0.2-0.6-0.4-1.3-0.5-1.9c-0.2-0.8,0.2-1.6,1-1.9
			c0.8-0.2,1.6,0.2,1.9,1c0.2,0.6,0.4,1.3,0.6,1.9c0.2,0.8-0.2,1.6-1,1.8C670.9,179.4,670.8,179.4,670.6,179.4z M173.7,178.7
			c-0.4,0-0.7-0.1-1-0.4c-0.6-0.6-0.7-1.5-0.1-2.1c0.5-0.5,0.9-1,1.4-1.5c0.6-0.6,1.5-0.6,2.1-0.1c0.6,0.6,0.6,1.5,0.1,2.1
			c-0.5,0.5-0.9,1-1.3,1.4C174.5,178.5,174.1,178.7,173.7,178.7z M180.8,171.7c-0.4,0-0.8-0.2-1.1-0.5c-0.5-0.6-0.5-1.6,0.2-2.1
			c0.5-0.4,1-0.9,1.6-1.3c0.6-0.5,1.6-0.4,2.1,0.2c0.5,0.6,0.4,1.6-0.2,2.1c-0.5,0.4-1,0.8-1.5,1.3
			C181.5,171.6,181.2,171.7,180.8,171.7z M667.6,169.9c-0.6,0-1.2-0.4-1.4-1c-0.2-0.6-0.4-1.2-0.7-1.9c-0.3-0.8,0.1-1.6,0.9-1.9
			c0.8-0.3,1.6,0.1,1.9,0.9c0.2,0.6,0.5,1.3,0.7,1.9c0.3,0.8-0.1,1.6-0.9,1.9C667.9,169.9,667.8,169.9,667.6,169.9z M295.8,167.9
			c-0.2,0-0.5-0.1-0.7-0.2c-0.6-0.3-1.1-0.6-1.8-0.9c-0.7-0.4-1-1.3-0.7-2c0.4-0.7,1.3-1,2-0.7c0.6,0.3,1.2,0.6,1.8,0.9
			c0.7,0.4,1,1.3,0.6,2C296.8,167.6,296.3,167.9,295.8,167.9z M188.8,165.7c-0.5,0-1-0.2-1.3-0.7c-0.5-0.7-0.3-1.6,0.4-2.1
			c0.6-0.4,1.1-0.7,1.7-1.1c0.7-0.4,1.6-0.2,2.1,0.5c0.4,0.7,0.2,1.6-0.5,2.1c-0.6,0.3-1.1,0.7-1.7,1.1
			C189.4,165.6,189.1,165.7,188.8,165.7z M286.7,163.7c-0.2,0-0.4,0-0.6-0.1c-0.6-0.2-1.2-0.5-1.8-0.7c-0.8-0.3-1.2-1.2-0.8-1.9
			s1.2-1.1,1.9-0.8c0.6,0.2,1.3,0.5,1.9,0.8c0.8,0.3,1.1,1.2,0.8,2C287.8,163.3,287.3,163.7,286.7,163.7z M299.5,161.1
			c-0.2,0-0.5-0.1-0.7-0.2c-0.7-0.4-1-1.3-0.6-2c0.3-0.6,0.6-1.2,1-1.8c0.4-0.7,1.3-1,2-0.6c0.7,0.4,1,1.3,0.6,2
			c-0.3,0.6-0.6,1.2-0.9,1.7C300.6,160.8,300,161.1,299.5,161.1z M197.5,160.7c-0.6,0-1.1-0.3-1.3-0.8c-0.4-0.7-0.1-1.6,0.7-2
			c0.6-0.3,1.2-0.6,1.8-0.9c0.8-0.3,1.6,0,2,0.7c0.3,0.8,0,1.6-0.7,2c-0.6,0.3-1.2,0.5-1.8,0.8C197.9,160.7,197.7,160.7,197.5,160.7
			z M663.9,160.6c-0.6,0-1.1-0.3-1.4-0.9c-0.3-0.6-0.5-1.2-0.8-1.8c-0.3-0.8,0-1.6,0.7-2c0.8-0.3,1.6,0,2,0.7
			c0.3,0.6,0.6,1.2,0.8,1.8c0.3,0.8,0,1.6-0.8,2C664.3,160.6,664.1,160.6,663.9,160.6z M277.3,160.2c-0.2,0-0.3,0-0.5-0.1
			c-0.6-0.2-1.3-0.4-1.9-0.6c-0.8-0.3-1.2-1.1-1-1.9c0.3-0.8,1.1-1.2,1.9-1c0.6,0.2,1.3,0.4,1.9,0.6c0.8,0.3,1.2,1.1,0.9,1.9
			C278.5,159.8,277.9,160.2,277.3,160.2z M267.7,157.3c-0.1,0-0.3,0-0.4-0.1c-0.6-0.2-1.3-0.3-1.9-0.5c-0.8-0.2-1.3-1-1.1-1.8
			c0.2-0.8,1-1.3,1.8-1.1c0.6,0.2,1.3,0.3,1.9,0.5c0.8,0.2,1.3,1,1,1.8C269,156.8,268.4,157.3,267.7,157.3z M206.7,157
			c-0.6,0-1.2-0.4-1.4-1c-0.3-0.8,0.2-1.6,0.9-1.9c0.6-0.2,1.3-0.4,1.9-0.6c0.8-0.2,1.6,0.2,1.9,1c0.2,0.8-0.2,1.6-1,1.9
			c-0.6,0.2-1.2,0.4-1.9,0.6C207.1,156.9,206.9,157,206.7,157z M258,154.9c-0.1,0-0.2,0-0.3,0c-0.6-0.1-1.3-0.3-1.9-0.4
			c-0.8-0.2-1.3-1-1.2-1.8c0.2-0.8,1-1.3,1.8-1.2c0.7,0.1,1.3,0.3,2,0.4c0.8,0.2,1.3,1,1.2,1.8C259.3,154.4,258.7,154.9,258,154.9z
			 M216.4,154.3c-0.7,0-1.3-0.5-1.5-1.2c-0.2-0.8,0.3-1.6,1.2-1.8c0.7-0.1,1.3-0.3,2-0.4c0.8-0.2,1.6,0.4,1.8,1.2
			c0.2,0.8-0.4,1.6-1.2,1.8c-0.6,0.1-1.3,0.3-1.9,0.4C216.6,154.3,216.5,154.3,216.4,154.3z M248.2,153.1c-0.1,0-0.1,0-0.2,0
			c-0.7-0.1-1.3-0.2-2-0.3c-0.8-0.1-1.4-0.8-1.3-1.7c0.1-0.8,0.8-1.4,1.7-1.3c0.7,0.1,1.3,0.2,2,0.3c0.8,0.1,1.4,0.9,1.3,1.7
			C249.6,152.6,248.9,153.1,248.2,153.1z M226.2,152.8c-0.8,0-1.4-0.6-1.5-1.3c-0.1-0.8,0.5-1.6,1.3-1.6c0.7-0.1,1.3-0.1,2-0.2
			c0.8-0.1,1.5,0.5,1.6,1.4c0.1,0.8-0.5,1.5-1.4,1.6c-0.7,0.1-1.3,0.1-2,0.2C226.3,152.7,226.3,152.8,226.2,152.8z M304.5,152.4
			c-0.3,0-0.5-0.1-0.8-0.2c-0.7-0.4-0.9-1.4-0.5-2.1c0.4-0.6,0.7-1.1,1.1-1.7c0.4-0.7,1.4-0.9,2.1-0.5c0.7,0.4,0.9,1.4,0.5,2.1
			c-0.4,0.6-0.7,1.1-1,1.7C305.5,152.2,305,152.4,304.5,152.4z M238.2,152.3C238.2,152.3,238.2,152.3,238.2,152.3
			c-0.7,0-1.3,0-1.9,0c-0.8,0-1.5-0.7-1.5-1.5s0.6-1.5,1.5-1.5c0.7,0,1.4,0,2,0c0.8,0,1.5,0.7,1.5,1.5
			C239.7,151.6,239,152.3,238.2,152.3z M659.6,151.6c-0.5,0-1.1-0.3-1.3-0.8c-0.3-0.6-0.6-1.2-0.9-1.7c-0.4-0.7-0.1-1.6,0.6-2
			c0.7-0.4,1.6-0.1,2,0.6c0.3,0.6,0.6,1.2,0.9,1.8c0.4,0.7,0.1,1.6-0.6,2C660.1,151.6,659.8,151.6,659.6,151.6z M310,144.1
			c-0.3,0-0.6-0.1-0.9-0.3c-0.7-0.5-0.8-1.4-0.4-2.1c0.4-0.6,0.8-1.1,1.2-1.6c0.5-0.7,1.4-0.8,2.1-0.3c0.7,0.5,0.8,1.4,0.3,2.1
			c-0.4,0.5-0.8,1.1-1.1,1.6C310.9,143.9,310.4,144.1,310,144.1z M654.7,142.9c-0.5,0-1-0.3-1.3-0.7c-0.3-0.6-0.7-1.1-1-1.7
			c-0.4-0.7-0.2-1.6,0.5-2.1c0.7-0.4,1.6-0.2,2.1,0.5c0.4,0.6,0.7,1.1,1.1,1.7c0.4,0.7,0.2,1.6-0.5,2.1
			C655.2,142.9,654.9,142.9,654.7,142.9z M315.9,136c-0.3,0-0.6-0.1-0.9-0.3c-0.7-0.5-0.8-1.5-0.3-2.1c0.4-0.5,0.8-1.1,1.3-1.6
			c0.5-0.6,1.5-0.8,2.1-0.2c0.6,0.5,0.8,1.5,0.2,2.1c-0.4,0.5-0.8,1-1.2,1.6C316.8,135.8,316.4,136,315.9,136z M649.1,134.6
			c-0.5,0-0.9-0.2-1.2-0.6c-0.4-0.5-0.8-1.1-1.2-1.6c-0.5-0.7-0.3-1.6,0.3-2.1c0.7-0.5,1.6-0.3,2.1,0.3c0.4,0.5,0.8,1.1,1.2,1.6
			c0.5,0.7,0.3,1.6-0.4,2.1C649.7,134.5,649.4,134.6,649.1,134.6z M322.3,128.3c-0.3,0-0.7-0.1-1-0.4c-0.6-0.5-0.7-1.5-0.1-2.1
			c0.4-0.5,0.9-1,1.3-1.5c0.6-0.6,1.5-0.7,2.1-0.1c0.6,0.6,0.7,1.5,0.1,2.1c-0.4,0.5-0.9,1-1.3,1.5
			C323.1,128.2,322.7,128.3,322.3,128.3z M643.1,126.7c-0.4,0-0.9-0.2-1.2-0.6c-0.4-0.5-0.8-1-1.3-1.5c-0.5-0.6-0.4-1.6,0.2-2.1
			c0.6-0.5,1.6-0.4,2.1,0.2c0.4,0.5,0.9,1,1.3,1.6c0.5,0.6,0.4,1.6-0.2,2.1C643.7,126.6,643.4,126.7,643.1,126.7z M329.1,121
			c-0.4,0-0.8-0.1-1-0.4c-0.6-0.6-0.6-1.5,0-2.1c0.5-0.5,0.9-1,1.4-1.4c0.6-0.6,1.5-0.6,2.1,0c0.6,0.6,0.6,1.5,0,2.1
			c-0.5,0.5-0.9,0.9-1.4,1.4C329.8,120.8,329.4,121,329.1,121z M636.5,119.1c-0.4,0-0.8-0.2-1.1-0.5c-0.4-0.5-0.9-1-1.4-1.4
			c-0.6-0.6-0.5-1.6,0.1-2.1s1.6-0.5,2.1,0.1c0.5,0.5,0.9,1,1.4,1.5c0.6,0.6,0.5,1.6-0.1,2.1C637.2,119,636.9,119.1,636.5,119.1z
			 M336.2,113.9c-0.4,0-0.8-0.2-1.1-0.5c-0.6-0.6-0.5-1.6,0.1-2.1c0.5-0.5,1-0.9,1.5-1.4c0.6-0.6,1.6-0.5,2.1,0.1
			c0.6,0.6,0.5,1.6-0.1,2.1c-0.5,0.4-1,0.9-1.5,1.4C336.9,113.8,336.5,113.9,336.2,113.9z M629.5,112c-0.4,0-0.7-0.1-1-0.4
			c-0.5-0.5-1-0.9-1.4-1.4c-0.6-0.6-0.6-1.5-0.1-2.1c0.6-0.6,1.5-0.6,2.1-0.1c0.5,0.5,1,0.9,1.5,1.4c0.6,0.6,0.6,1.5,0,2.1
			C630.3,111.8,629.9,112,629.5,112z M343.6,107.3c-0.4,0-0.8-0.2-1.1-0.5c-0.5-0.6-0.5-1.6,0.2-2.1c0.5-0.4,1-0.9,1.5-1.3
			c0.6-0.5,1.6-0.4,2.1,0.2c0.5,0.6,0.4,1.6-0.2,2.1c-0.5,0.4-1,0.9-1.5,1.3C344.3,107.1,344,107.3,343.6,107.3z M622.1,105.3
			c-0.3,0-0.7-0.1-1-0.4c-0.5-0.4-1-0.9-1.5-1.3c-0.6-0.5-0.7-1.5-0.2-2.1c0.5-0.6,1.5-0.7,2.1-0.2c0.5,0.4,1,0.9,1.5,1.3
			c0.6,0.5,0.7,1.5,0.2,2.1C623,105.1,622.5,105.3,622.1,105.3z M351.4,101c-0.4,0-0.9-0.2-1.2-0.6c-0.5-0.7-0.4-1.6,0.3-2.1
			c0.5-0.4,1.1-0.8,1.6-1.2c0.7-0.5,1.6-0.4,2.1,0.3c0.5,0.7,0.4,1.6-0.3,2.1c-0.5,0.4-1.1,0.8-1.6,1.2
			C352,100.9,351.7,101,351.4,101z M614.3,99c-0.3,0-0.6-0.1-0.9-0.3c-0.5-0.4-1.1-0.8-1.6-1.2c-0.7-0.5-0.8-1.4-0.3-2.1
			c0.5-0.7,1.4-0.8,2.1-0.3c0.5,0.4,1.1,0.8,1.6,1.2c0.7,0.5,0.8,1.4,0.3,2.1C615.2,98.8,614.8,99,614.3,99z M359.4,95
			c-0.5,0-0.9-0.2-1.2-0.6c-0.5-0.7-0.3-1.6,0.4-2.1c0.5-0.4,1.1-0.8,1.7-1.2c0.7-0.5,1.6-0.3,2.1,0.4c0.5,0.7,0.3,1.6-0.4,2.1
			c-0.5,0.4-1.1,0.8-1.6,1.1C360,94.9,359.7,95,359.4,95z M606.2,93.1c-0.3,0-0.6-0.1-0.8-0.3c-0.5-0.4-1.1-0.7-1.6-1.1
			c-0.7-0.5-0.9-1.4-0.4-2.1c0.5-0.7,1.4-0.9,2.1-0.4c0.6,0.4,1.1,0.7,1.7,1.1c0.7,0.5,0.9,1.4,0.4,2.1
			C607.2,92.9,606.7,93.1,606.2,93.1z M367.7,89.5c-0.5,0-1-0.2-1.3-0.7c-0.4-0.7-0.2-1.6,0.5-2.1c0.6-0.4,1.1-0.7,1.7-1.1
			c0.7-0.4,1.6-0.2,2.1,0.5c0.4,0.7,0.2,1.6-0.5,2.1c-0.6,0.4-1.1,0.7-1.7,1.1C368.3,89.4,368,89.5,367.7,89.5z M597.8,87.7
			c-0.3,0-0.5-0.1-0.8-0.2c-0.6-0.3-1.1-0.7-1.7-1c-0.7-0.4-0.9-1.3-0.5-2.1c0.4-0.7,1.3-0.9,2.1-0.5c0.6,0.3,1.2,0.7,1.7,1
			c0.7,0.4,0.9,1.4,0.5,2.1C598.8,87.4,598.3,87.7,597.8,87.7z M376.3,84.3c-0.5,0-1-0.3-1.3-0.8c-0.4-0.7-0.2-1.6,0.6-2
			c0.6-0.3,1.2-0.7,1.8-1c0.7-0.4,1.6-0.1,2,0.6c0.4,0.7,0.1,1.6-0.6,2c-0.6,0.3-1.2,0.6-1.7,1C376.8,84.2,376.6,84.3,376.3,84.3z
			 M589.2,82.7c-0.2,0-0.5-0.1-0.7-0.2c-0.6-0.3-1.2-0.6-1.8-0.9c-0.7-0.4-1-1.3-0.6-2c0.4-0.7,1.3-1,2-0.6c0.6,0.3,1.2,0.6,1.8,0.9
			c0.7,0.4,1,1.3,0.6,2C590.2,82.4,589.7,82.7,589.2,82.7z M385.1,79.5c-0.5,0-1.1-0.3-1.3-0.8c-0.4-0.7-0.1-1.6,0.7-2
			c0.6-0.3,1.2-0.6,1.8-0.9c0.7-0.4,1.6-0.1,2,0.7c0.4,0.7,0.1,1.6-0.7,2c-0.6,0.3-1.2,0.6-1.8,0.9
			C385.6,79.5,385.3,79.5,385.1,79.5z M580.3,78.2c-0.2,0-0.4,0-0.6-0.1c-0.6-0.3-1.2-0.6-1.8-0.8c-0.8-0.4-1.1-1.2-0.7-2
			c0.4-0.8,1.2-1.1,2-0.7c0.6,0.3,1.2,0.6,1.8,0.9c0.7,0.4,1.1,1.3,0.7,2C581.4,77.9,580.8,78.2,580.3,78.2z M394.1,75.1
			c-0.6,0-1.1-0.3-1.4-0.9c-0.3-0.8,0-1.6,0.7-2c0.6-0.3,1.2-0.6,1.8-0.8c0.8-0.3,1.6,0,2,0.8c0.3,0.8,0,1.6-0.8,2
			c-0.6,0.3-1.2,0.5-1.8,0.8C394.5,75.1,394.3,75.1,394.1,75.1z M571.1,74.1c-0.2,0-0.4,0-0.6-0.1c-0.6-0.3-1.2-0.5-1.8-0.8
			c-0.8-0.3-1.1-1.2-0.8-2c0.3-0.8,1.2-1.1,2-0.8c0.6,0.3,1.2,0.5,1.9,0.8c0.8,0.3,1.1,1.2,0.8,2C572.3,73.7,571.7,74.1,571.1,74.1z
			 M403.3,71.2c-0.6,0-1.2-0.4-1.4-0.9c-0.3-0.8,0.1-1.6,0.8-2c0.6-0.3,1.3-0.5,1.9-0.7c0.8-0.3,1.6,0.1,1.9,0.9
			c0.3,0.8-0.1,1.6-0.9,1.9c-0.6,0.2-1.2,0.5-1.9,0.7C403.7,71.2,403.5,71.2,403.3,71.2z M561.8,70.4c-0.2,0-0.3,0-0.5-0.1
			c-0.6-0.2-1.2-0.5-1.9-0.7c-0.8-0.3-1.2-1.1-0.9-1.9c0.3-0.8,1.1-1.2,1.9-0.9c0.6,0.2,1.3,0.5,1.9,0.7c0.8,0.3,1.2,1.1,0.9,1.9
			C563,70,562.5,70.4,561.8,70.4z M412.7,67.7c-0.6,0-1.2-0.4-1.4-1c-0.3-0.8,0.1-1.6,0.9-1.9c0.6-0.2,1.3-0.4,1.9-0.7
			c0.8-0.3,1.6,0.2,1.9,0.9c0.3,0.8-0.2,1.6-0.9,1.9c-0.6,0.2-1.3,0.4-1.9,0.6C413.1,67.7,412.9,67.7,412.7,67.7z M552.4,67.2
			c-0.2,0-0.3,0-0.5-0.1c-0.6-0.2-1.3-0.4-1.9-0.6c-0.8-0.2-1.2-1.1-1-1.9c0.2-0.8,1.1-1.2,1.9-1c0.6,0.2,1.3,0.4,1.9,0.6
			c0.8,0.3,1.2,1.1,1,1.9C553.6,66.8,553,67.2,552.4,67.2z M422.3,64.6c-0.6,0-1.2-0.4-1.4-1.1c-0.2-0.8,0.2-1.6,1-1.9
			c0.6-0.2,1.3-0.4,1.9-0.6c0.8-0.2,1.6,0.2,1.9,1c0.2,0.8-0.2,1.6-1,1.9c-0.6,0.2-1.3,0.4-1.9,0.6
			C422.5,64.6,422.4,64.6,422.3,64.6z M542.8,64.4c-0.1,0-0.3,0-0.4-0.1c-0.6-0.2-1.3-0.3-1.9-0.5c-0.8-0.2-1.3-1-1.1-1.8
			c0.2-0.8,1-1.3,1.8-1.1c0.7,0.2,1.3,0.3,1.9,0.5c0.8,0.2,1.3,1,1.1,1.8C544.1,63.9,543.5,64.4,542.8,64.4z M431.9,62
			c-0.7,0-1.3-0.5-1.5-1.1c-0.2-0.8,0.3-1.6,1.1-1.8c0.7-0.2,1.3-0.3,2-0.5c0.8-0.2,1.6,0.3,1.8,1.1c0.2,0.8-0.3,1.6-1.1,1.8
			c-0.6,0.2-1.3,0.3-1.9,0.5C432.2,62,432.1,62,431.9,62z M533.1,62c-0.1,0-0.2,0-0.3,0c-0.6-0.1-1.3-0.3-1.9-0.4
			c-0.8-0.2-1.3-1-1.2-1.8c0.2-0.8,1-1.3,1.8-1.2c0.7,0.1,1.3,0.3,2,0.4c0.8,0.2,1.3,1,1.1,1.8C534.4,61.5,533.8,62,533.1,62z
			 M523.3,60c-0.1,0-0.2,0-0.3,0c-0.7-0.1-1.3-0.2-2-0.3c-0.8-0.1-1.4-0.9-1.2-1.7c0.1-0.8,0.9-1.4,1.7-1.2c0.7,0.1,1.3,0.2,2,0.3
			c0.8,0.1,1.4,0.9,1.2,1.7C524.6,59.5,524,60,523.3,60z M441.7,59.9c-0.7,0-1.3-0.5-1.5-1.2c-0.2-0.8,0.4-1.6,1.2-1.8
			c0.7-0.1,1.3-0.3,2-0.4c0.8-0.2,1.6,0.4,1.7,1.2c0.1,0.8-0.4,1.6-1.2,1.7c-0.7,0.1-1.3,0.2-2,0.4
			C441.9,59.9,441.8,59.9,441.7,59.9z M513.4,58.4c-0.1,0-0.1,0-0.2,0c-0.7-0.1-1.3-0.2-2-0.3c-0.8-0.1-1.4-0.9-1.3-1.7
			c0.1-0.8,0.9-1.4,1.7-1.3c0.7,0.1,1.3,0.2,2,0.3c0.8,0.1,1.4,0.9,1.3,1.7C514.8,57.9,514.1,58.4,513.4,58.4z M451.6,58.2
			c-0.7,0-1.4-0.5-1.5-1.3c-0.1-0.8,0.5-1.6,1.3-1.7c0.7-0.1,1.3-0.2,2-0.3c0.8-0.1,1.6,0.5,1.7,1.3c0.1,0.8-0.5,1.6-1.3,1.7
			c-0.7,0.1-1.3,0.2-2,0.3C451.7,58.2,451.7,58.2,451.6,58.2z M503.5,57.3c0,0-0.1,0-0.1,0c-0.7-0.1-1.3-0.1-2-0.2
			c-0.8-0.1-1.4-0.8-1.4-1.6c0.1-0.8,0.8-1.4,1.6-1.4c0.7,0.1,1.3,0.1,2,0.2c0.8,0.1,1.4,0.8,1.4,1.6
			C504.9,56.7,504.2,57.3,503.5,57.3z M461.5,57c-0.8,0-1.4-0.6-1.5-1.4c-0.1-0.8,0.5-1.6,1.4-1.6c0.7-0.1,1.3-0.1,2-0.2
			c0.8-0.1,1.6,0.5,1.6,1.4s-0.5,1.6-1.4,1.6c-0.7,0.1-1.3,0.1-2,0.2C461.6,57,461.6,57,461.5,57z M493.5,56.6
			C493.5,56.6,493.4,56.5,493.5,56.6c-0.7,0-1.4-0.1-2.1-0.1c-0.8,0-1.5-0.7-1.4-1.6c0-0.8,0.7-1.5,1.6-1.4c0.7,0,1.3,0.1,2,0.1
			c0.8,0,1.5,0.8,1.4,1.6C495,55.9,494.3,56.6,493.5,56.6z M471.5,56.4c-0.8,0-1.5-0.6-1.5-1.4c0-0.8,0.6-1.5,1.4-1.6
			c0.7,0,1.3-0.1,2-0.1c0.9,0,1.5,0.6,1.5,1.4c0,0.8-0.6,1.5-1.4,1.5C472.9,56.3,472.2,56.3,471.5,56.4
			C471.5,56.4,471.5,56.4,471.5,56.4z M483.5,56.2C483.5,56.2,483.5,56.2,483.5,56.2c-0.7,0-1.3,0-2,0c-0.8,0-1.5-0.7-1.5-1.5
			c0-0.8,0.7-1.5,1.5-1.5c0,0,0,0,0,0c0.7,0,1.3,0,2,0c0.8,0,1.5,0.7,1.5,1.5C485,55.6,484.3,56.2,483.5,56.2z"/>
	</g>
	<g>
		<g>
			<path fill="#404751" d="M480.4,455.9h-81.9c-0.4,0-0.7-0.3-0.7-0.7V318.7c0-0.4,0.3-0.7,0.7-0.7h81.9c0.4,0,0.7,0.3,0.7,0.7
				v136.5C481.1,455.6,480.8,455.9,480.4,455.9z M399.2,454.5h80.6V319.3h-80.6V454.5z"/>
		</g>
		<g>
			<path fill="#404751" d="M473.9,341.3H405c-0.4,0-0.7-0.3-0.7-0.7v-14.3c0-0.4,0.3-0.7,0.7-0.7h68.9c0.4,0,0.7,0.3,0.7,0.7v14.3
				C474.6,341,474.3,341.3,473.9,341.3z M405.7,339.9h67.6v-13h-67.6V339.9z"/>
		</g>
		<g>
			<path fill="#404751" d="M473.9,360.5H405c-0.4,0-0.7-0.3-0.7-0.7v-14.3c0-0.4,0.3-0.7,0.7-0.7h68.9c0.4,0,0.7,0.3,0.7,0.7v14.3
				C474.6,360.2,474.3,360.5,473.9,360.5z M405.7,359.2h67.6v-13h-67.6V359.2z"/>
		</g>
		<g>
			<path fill="#404751" d="M473.9,379.8H405c-0.4,0-0.7-0.3-0.7-0.7v-14.3c0-0.4,0.3-0.7,0.7-0.7h68.9c0.4,0,0.7,0.3,0.7,0.7v14.3
				C474.6,379.5,474.3,379.8,473.9,379.8z M405.7,378.4h67.6v-13h-67.6V378.4z"/>
		</g>
		<g>
			<path fill="#404751" d="M473.9,399H405c-0.4,0-0.7-0.3-0.7-0.7V384c0-0.4,0.3-0.7,0.7-0.7h68.9c0.4,0,0.7,0.3,0.7,0.7v14.3
				C474.6,398.7,474.3,399,473.9,399z M405.7,397.7h67.6v-13h-67.6V397.7z"/>
		</g>
		<g>
			<path fill="#404751" d="M473.9,418.3H405c-0.4,0-0.7-0.3-0.7-0.7v-14.3c0-0.4,0.3-0.7,0.7-0.7h68.9c0.4,0,0.7,0.3,0.7,0.7v14.3
				C474.6,418,474.3,418.3,473.9,418.3z M405.7,416.9h67.6v-13h-67.6V416.9z"/>
		</g>
		<g>
			<path fill="#404751" d="M474.2,450.5h-68.9c-0.4,0-0.7-0.3-0.7-0.7V423c0-0.4,0.3-0.7,0.7-0.7h68.9c0.4,0,0.7,0.3,0.7,0.7v26.9
				C474.8,450.2,474.5,450.5,474.2,450.5z M405.9,449.2h67.6v-25.5h-67.6V449.2z"/>
		</g>
		<g>
			<path fill="#404751" d="M442.8,334.1h-33.6c-0.4,0-0.7-0.3-0.7-0.7c0-0.4,0.3-0.7,0.7-0.7h33.6c0.4,0,0.7,0.3,0.7,0.7
				C443.5,333.8,443.2,334.1,442.8,334.1z"/>
		</g>
		<g>
			<path fill="#404751" d="M442.8,353.4h-33.6c-0.4,0-0.7-0.3-0.7-0.7c0-0.4,0.3-0.7,0.7-0.7h33.6c0.4,0,0.7,0.3,0.7,0.7
				C443.5,353.1,443.2,353.4,442.8,353.4z"/>
		</g>
		<g>
			<path fill="#404751" d="M442.8,372.6h-33.6c-0.4,0-0.7-0.3-0.7-0.7c0-0.4,0.3-0.7,0.7-0.7h33.6c0.4,0,0.7,0.3,0.7,0.7
				C443.5,372.3,443.2,372.6,442.8,372.6z"/>
		</g>
		<g>
			<path fill="#404751" d="M442.8,391.9h-33.6c-0.4,0-0.7-0.3-0.7-0.7c0-0.4,0.3-0.7,0.7-0.7h33.6c0.4,0,0.7,0.3,0.7,0.7
				C443.5,391.6,443.2,391.9,442.8,391.9z"/>
		</g>
		<g>
			<path fill="#404751" d="M442.8,411.1h-33.6c-0.4,0-0.7-0.3-0.7-0.7c0-0.4,0.3-0.7,0.7-0.7h33.6c0.4,0,0.7,0.3,0.7,0.7
				C443.5,410.8,443.2,411.1,442.8,411.1z"/>
		</g>
		<g>
			<rect x="452.5" y="331.4" fill="#404751" width="4.5" height="4"/>
		</g>
		<g>
			<rect x="461" y="331.4" fill="#404751" width="4.5" height="4"/>
		</g>
		<g>
			<rect x="452.5" y="350.7" fill="#404751" width="4.5" height="4"/>
		</g>
		<g>
			<rect x="461" y="350.7" fill="#404751" width="4.5" height="4"/>
		</g>
		<g>
			<rect x="452.5" y="369.9" fill="#404751" width="4.5" height="4"/>
		</g>
		<g>
			<rect x="461" y="369.9" fill="#404751" width="4.5" height="4"/>
		</g>
		<g>
			<rect x="452.5" y="389.2" fill="#404751" width="4.5" height="4"/>
		</g>
		<g>
			<rect x="461" y="389.2" fill="#404751" width="4.5" height="4"/>
		</g>
		<g>
			<rect x="452.5" y="408.4" fill="#404751" width="4.5" height="4"/>
		</g>
		<g>
			<rect x="461" y="408.4" fill="#404751" width="4.5" height="4"/>
		</g>
		<g>
			<rect x="452.5" y="434.8" fill="#404751" width="4.5" height="4"/>
		</g>
		<g>
			<rect x="461" y="434.8" fill="#404751" width="4.5" height="4"/>
		</g>
		<g>
			<rect x="405.5" y="423.2" fill="#404751" width="37.6" height="26.4"/>
		</g>
	</g>
	<g>
		<rect x="326.9" y="331.3" fill="#404751" width="2.2" height="126.7"/>
		<polygon fill="#404751" points="334.6,354.5 330.2,358.2 325.7,358.2 321.3,354.5 321.3,304.7 325.7,301 330.2,301 334.6,304.7 		
			"/>
	</g>
	<g>
		<g>
			<g>
				<path fill="#404751" d="M229.9,342c-0.7-1-2.1-1.3-3.2-0.7l-17.3,10.9c-2.6,1.6-4.8,2.9-6.7,4.2c-3.6,2.4-6.1,4.4-8.2,6.7
					c-1.7,1.8-3,3.6-4,5.6c-1-2-2.3-3.8-4-5.6c-2.1-2.2-4.6-4.2-8.2-6.7c-1.9-1.3-4.1-2.6-6.7-4.2l-17.3-10.9
					c-1.1-0.7-2.5-0.4-3.2,0.7l-3.7,5.6c-0.7,1-0.4,2.4,0.7,3.1l24,15.1c1.1,0.7,2.5,0.4,3.2-0.7l2.4-3.6c8,5.8,10.5,10.5,10.6,17.4
					c0,0,0,71.8,0,71.8c0,1.3,1,2.3,2.3,2.3c1.3,0,2.3-1,2.3-2.3c0,0,0-71.8,0-71.8c0.1-6.8,2.6-11.4,10.6-17.1l2.4,3.5
					c0.7,1,2.1,1.3,3.2,0.6l24-15.1c1-0.7,1.4-2.1,0.7-3.1L229.9,342z"/>
			</g>
		</g>
		
			<rect x="206.9" y="341.7" transform="matrix(0.8495 -0.5276 0.5276 0.8495 -149.9768 163.2489)" fill="#404751" width="8.4" height="5.6"/>
		<rect x="212" y="346.4" transform="matrix(0.866 -0.5 0.5 0.866 -145.5635 153.3747)" fill="#404751" width="2.7" height="3.9"/>
	</g>
	<g>
		<circle fill="#404751" cx="237.5" cy="255.4" r="31.8"/>
		<g>
			<rect x="218" y="241.6" fill="#FFFFFF" width="39.4" height="7.2"/>
			<rect x="218" y="252.3" fill="#FFFFFF" width="39.4" height="7.2"/>
			<rect x="218" y="263" fill="#FFFFFF" width="39.4" height="7.2"/>
			<g>
				<rect x="221.1" y="244.3" fill="#404751" width="2" height="1.8"/>
				<rect x="225.1" y="244.3" fill="#404751" width="2" height="1.8"/>
				<rect x="229.1" y="244.3" fill="#404751" width="2" height="1.8"/>
				<rect x="233.1" y="244.3" fill="#404751" width="2" height="1.8"/>
			</g>
			<g>
				<rect x="221.1" y="255" fill="#404751" width="2" height="1.8"/>
				<rect x="225.1" y="255" fill="#404751" width="2" height="1.8"/>
				<rect x="229.1" y="255" fill="#404751" width="2" height="1.8"/>
				<rect x="233.1" y="255" fill="#404751" width="2" height="1.8"/>
			</g>
			<g>
				<rect x="221.1" y="265.7" fill="#404751" width="2" height="1.8"/>
				<rect x="225.1" y="265.7" fill="#404751" width="2" height="1.8"/>
				<rect x="229.1" y="265.7" fill="#404751" width="2" height="1.8"/>
				<rect x="233.1" y="265.7" fill="#404751" width="2" height="1.8"/>
			</g>
		</g>
	</g>
	<g>
		<circle fill="#404751" cx="392.5" cy="201.1" r="31.8"/>
		<g>
			<polygon fill="#FFFFFF" points="374.3,198 400.8,198 400.8,195.6 407.3,200.6 400.8,205.3 400.8,203.1 374.3,203.1 			"/>
			<path fill="#FFFFFF" d="M388.2,203.1l3.7,6.6h9v-2.5l6.5,5.1l-6.5,3.9v-2.2h-9.7c-0.8,0-1.5-0.4-1.8-1.1l-6.1-9.9H388.2z"/>
			<path fill="#FFFFFF" d="M388.2,198.1l3.7-6.6h9v2.5l6.5-5.1l-6.5-3.9v2.2h-9.7c-0.8,0-1.5,0.4-1.8,1.1l-6.1,9.9H388.2z"/>
		</g>
	</g>
	<g>
		<circle fill="#404751" cx="539.9" cy="138.8" r="31.8"/>
		<g>
			<polygon fill="#FFFFFF" points="542.9,144 542.9,155.1 544.6,155.1 540.8,160.3 537.1,155.1 538.8,155.1 538.8,144 			"/>
			<polygon fill="#FFFFFF" points="538.7,134.1 538.7,122.6 537.1,122.6 540.8,117.4 544.6,122.6 542.8,122.6 542.8,134.1 			"/>
			<polygon fill="#FFFFFF" points="560.7,141.1 549.6,141.1 549.6,142.8 544.5,139 549.6,135.3 549.6,137 560.7,137 			"/>
			<polygon fill="#FFFFFF" points="521,136.9 532.1,136.9 532.1,135.3 537.3,139 532.1,142.8 532.1,141 521,141 			"/>
		</g>
	</g>
	<g>
		<g>
			
				<ellipse transform="matrix(1 -1.264730e-03 1.264730e-03 1 -0.1234 0.3444)" fill="#FFFFFF" cx="272.3" cy="97.8" rx="70.3" ry="70.3"/>
			<path fill="#41ACE1" d="M272.2,169.5c-19.1,0-37.1-7.4-50.7-21C208,135,200.5,117,200.5,97.8c0-39.6,32.1-71.8,71.7-71.8
				c0,0,0.1,0,0.1,0c19.1,0,37.1,7.4,50.7,21C336.5,60.5,344,78.5,344,97.7C344,137.2,311.9,169.4,272.2,169.5
				C272.3,169.5,272.3,169.5,272.2,169.5z M272.3,29C272.2,29,272.2,29,272.3,29c-38,0-68.8,30.9-68.8,68.8
				c0,18.4,7.2,35.6,20.2,48.6c13,12.9,30.2,20.1,48.5,20.1c0,0,0.1,0,0.1,0c37.9,0,68.7-30.9,68.7-68.8c0-18.4-7.2-35.6-20.2-48.6
				C307.8,36.1,290.6,29,272.3,29z"/>
		</g>
		<g>
			<path fill="#E6BC45" d="M272.2,154.3c-15.1,0-29.2-5.9-39.9-16.5c-10.7-10.7-16.6-24.8-16.6-39.9c0-31.2,25.3-56.5,56.4-56.6
				c0,0,0,0,0.1,0c15.1,0,29.2,5.9,39.9,16.5c10.7,10.7,16.6,24.8,16.6,39.9C328.8,128.8,303.5,154.2,272.2,154.3
				C272.3,154.3,272.3,154.3,272.2,154.3z M272.3,44.3C272.2,44.3,272.2,44.3,272.3,44.3c-29.6,0-53.5,24.1-53.5,53.6
				c0,14.3,5.6,27.7,15.7,37.8c10.1,10.1,23.5,15.6,37.8,15.6c0,0,0,0,0.1,0c29.5,0,53.5-24.1,53.4-53.6c0-14.3-5.6-27.7-15.7-37.8
				C299.9,49.8,286.5,44.3,272.3,44.3z"/>
		</g>
		<g>
			<path fill="#D75352" d="M237.8,79.6c-0.4-1.1,0.5-1.9,2.2-2.6c10.2-4.3,20.4-8.7,30.7-13c0.9-0.4,2.3-0.5,3.2-0.1
				c10.5,4.3,20.9,8.8,31.3,13.3c0.7,0.3,1.7,1.4,1.7,2.1c-1.2,14.3-3.8,28.2-11.9,40.4c-4.8,7.2-11.2,12-20.2,12.7
				c-10.6,0.8-18.5-3.7-24.3-12.2c-6.4-9.3-9.3-19.9-11.2-30.8C238.6,86.4,238.3,83.4,237.8,79.6z"/>
		</g>
		<g>
			<path fill="#F2F2F2" d="M266.9,114.3c-3.5-3.9-7.5-8.4-11.6-12.9c1.7-1.5,3.3-2.9,5-4.5c2.4,1.7,4.9,3.5,7.4,5.3
				c5.9-4.8,11.8-9.7,17.8-14.6c1.4,1.8,2.6,3.4,4,5.3C282,100,274.5,107.1,266.9,114.3z"/>
		</g>
	</g>
</g>
</svg>
