<?xml version="1.0" encoding="utf-8"?>
<!-- Generator: Adobe Illustrator 21.1.0, SVG Export Plug-In . SVG Version: 6.00 Build 0)  -->
<svg version="1.1" id="Isolation_Mode" xmlns="http://www.w3.org/2000/svg" xmlns:xlink="http://www.w3.org/1999/xlink" x="0px"
	 y="0px" width="312px" height="68.8px" viewBox="0 0 312 68.8" style="enable-background:new 0 0 312 68.8;" xml:space="preserve">
<style type="text/css">
	.st0{fill:#fff;}
	.st1{fill:#fff;opacity:0.5}
	.st2{fill:#fff;opacity:0.7}
	.st3{fill:#fff;opacity:0.9}
</style>
<g>
	<path class="st0" d="M15,19.6v-3.9h24.6v3.9h-9.8v33.3h-4.9V19.6H15z"/>
	<path class="st0" d="M61.6,37.5v15.4h-4.9V15.7h12.1c4.2,0,7.4,1,9.6,3.1c2.2,2,3.3,4.5,3.3,7.5s-0.8,5.4-2.4,7.4
		c-1.6,2-4,3.2-7.3,3.7L82.3,53h-6.1l-9.8-15.4L61.6,37.5L61.6,37.5z M61.6,19.6v14.1h7.2c2.7,0,4.7-0.6,6-1.9c1.3-1.2,2-3,2-5.2
		c0-4.7-2.7-7-8-7H61.6z"/>
	<path class="st0" d="M100.7,52.9V15.7h4.9v37.2C105.6,52.9,100.7,52.9,100.7,52.9z"/>
	<path class="st0" d="M124.4,15.7h4.9v33.5h13.1V53h-17.9V15.7H124.4z"/>
	<path class="st0" d="M238.8,53.2c-5.1,0-9.5-1.8-13.2-5.4s-5.5-8.1-5.5-13.6s1.8-10,5.5-13.6s8.1-5.3,13.5-5.3
		c3.9,0,7.3,0.9,10.3,2.7c3,1.8,5.3,4.5,6.7,7.9h-5.9c-2.2-4.2-5.9-6.3-11.1-6.3c-4,0-7.4,1.3-10,4s-4,6.2-4,10.6s1.3,8,4,10.6
		c2.6,2.7,5.9,4,9.8,4s7.1-1.1,9.5-3.3c2.4-2.2,3.8-5.2,4.2-9h-15.4v-3.9h20.5v3.9c-0.5,4.8-2.5,8.8-6,11.9
		C248.3,51.7,243.9,53.2,238.8,53.2z"/>
	<path class="st0" d="M288.4,52.9h-4.9V38.8l-12.1-23.2h5.4l9.2,18.6l9.1-18.6h5.4l-12.1,23.2V52.9z"/>
	<g>
		<g>
			<path class="st1" d="M174.9,53c-5.2,0-9.7-1.8-13.3-5.3s-5.4-8-5.4-13.4s1.8-9.9,5.4-13.4c3.6-3.5,8-5.3,13.2-5.3
				s9.7,1.8,13.2,5.3c3.6,3.5,5.4,8,5.4,13.4s-1.8,9.9-5.4,13.4C184.6,51.2,180.1,53,174.9,53z M174.9,18.6c-4.5,0-8.1,1.4-11.1,4.4
				s-4.5,6.6-4.5,11.2s1.5,8.3,4.5,11.3s6.7,4.4,11.1,4.4c4.5,0,8.1-1.4,11.1-4.4s4.5-6.6,4.5-11.3c0-4.6-1.5-8.3-4.5-11.2
				C183,20.1,179.4,18.6,174.9,18.6z"/>
		</g>
		<g>
			<path class="st2" d="M181.3,53c-5.2,0-9.7-1.8-13.3-5.3s-5.4-8-5.4-13.4s1.8-9.9,5.4-13.4c3.6-3.5,8-5.3,13.3-5.3
				c5.2,0,9.7,1.8,13.2,5.3c3.6,3.5,5.4,8,5.4,13.4s-1.8,9.9-5.4,13.4C190.9,51.2,186.5,53,181.3,53z M181.3,18.6
				c-4.5,0-8.1,1.4-11.1,4.4s-4.5,6.6-4.5,11.2s1.5,8.3,4.5,11.3s6.7,4.4,11.1,4.4c4.5,0,8.1-1.4,11.1-4.4s4.5-6.6,4.5-11.3
				c0-4.6-1.5-8.3-4.5-11.2C189.3,20.1,185.7,18.6,181.3,18.6z"/>
		</g>
		<g>
			<path class="st3" d="M187.6,53c-5.2,0-9.7-1.8-13.3-5.3s-5.4-8-5.4-13.4s1.8-9.9,5.4-13.4c3.6-3.5,8-5.3,13.3-5.3
				c5.2,0,9.7,1.8,13.2,5.3c3.6,3.5,5.4,8,5.4,13.4s-1.8,9.9-5.4,13.4C197.3,51.2,192.8,53,187.6,53z M187.6,18.6
				c-4.5,0-8.1,1.4-11.1,4.4s-4.5,6.6-4.5,11.2s1.5,8.3,4.5,11.3s6.7,4.4,11.1,4.4c4.5,0,8.1-1.4,11.1-4.4s4.5-6.6,4.5-11.3
				c0-4.6-1.5-8.3-4.5-11.2C195.7,20.1,192.1,18.6,187.6,18.6z"/>
		</g>
	</g>
</g>
</svg>
